<svg width="1920" height="1126" viewBox="0 0 1920 1126" fill="none" xmlns="http://www.w3.org/2000/svg">
<mask id="mask0_3052_7803" style="mask-type:alpha" maskUnits="userSpaceOnUse" x="0" y="0" width="1920" height="1126">
<rect width="1920" height="1126" fill="#D9D9D9"/>
</mask>
<g mask="url(#mask0_3052_7803)">
<g opacity="0.8">
<rect width="1965.11" height="878.247" transform="matrix(-1.00303 0.00189843 -0.00381578 -0.993935 1932.56 1125.11)" fill="#56E1FF"/>
<mask id="mask1_3052_7803" style="mask-type:alpha" maskUnits="userSpaceOnUse" x="698" y="526" width="1450" height="943">
<path d="M698.762 1468.48L853.855 825.036L2129.83 526.244C2138.23 651.01 2153.12 901.605 2145.44 905.858C2137.76 910.111 1177.79 1282.71 698.762 1468.48Z" fill="url(#paint0_linear_3052_7803)"/>
</mask>
<g mask="url(#mask1_3052_7803)">
<mask id="mask2_3052_7803" style="mask-type:alpha" maskUnits="userSpaceOnUse" x="1136" y="566" width="1182" height="594">
<path d="M1136.74 762.953C1197.37 933.298 1274.77 1150.59 1276.67 1159.29L2317.35 962.768L2177.42 566.435L1136.74 762.953Z" fill="url(#paint1_linear_3052_7803)"/>
</mask>
<g mask="url(#mask2_3052_7803)">
<path d="M1687.12 934.22C1768.84 918.79 1820.72 858.171 1805.64 815.457C1790.56 772.743 1737.69 722.934 1650.02 739.49C1606.57 747.694 1543.74 729.102 1499.63 760.12C1454.73 791.695 1487.25 847.696 1494.85 869.244C1509.93 911.958 1605.41 949.651 1687.12 934.22Z" fill="#7EE8FF"/>
<g filter="url(#filter0_f_3052_7803)">
<path d="M1686.62 933.54C1780.52 915.81 1829.04 850.234 1812.3 802.821C1795.56 755.407 1738.17 699.875 1644.28 717.606C1597.75 726.392 1529.63 704.133 1482.68 738.183C1434.89 772.844 1470.52 835.094 1478.96 859.012C1495.7 906.426 1592.73 951.271 1686.62 933.54Z" fill="#7EE8FF"/>
</g>
<g filter="url(#filter1_f_3052_7803)">
<path d="M1687.11 925.806C1735.41 936.668 1860.2 839.579 1844.31 794.579C1828.42 749.578 1765.61 698.447 1654.4 719.449C1599.29 729.856 1519.86 707.048 1462.29 741.822C1403.69 777.221 1441.86 839.54 1449.87 862.241C1465.76 907.241 1632.62 960.25 1687.11 925.806Z" fill="#7EE8FF"/>
</g>
<g filter="url(#filter2_f_3052_7803)">
<path d="M1691.45 905.957C1808.99 872.517 1889.77 797.819 1872.02 747.531C1854.26 697.242 1773.52 654.501 1655.72 676.746C1597.34 687.77 1502.95 647.132 1442.44 685.271C1380.84 724.095 1421.1 789.651 1430.06 815.019C1447.82 865.307 1555.27 944.695 1691.45 905.957Z" fill="#7EE8FF"/>
</g>
<g filter="url(#filter3_f_3052_7803)">
<path d="M1755.92 892.64C1830.49 855.487 1991.84 756.353 1973.55 704.556C1955.27 652.759 1625.52 679.309 1498.69 703.26C1435.83 715.13 1352.53 709.774 1286.96 749.669C1220.22 790.282 1328.41 838.846 1414.72 882.602C1529.33 940.707 1687.24 949.018 1755.92 892.64Z" fill="#7EE8FF"/>
</g>
<g filter="url(#filter4_f_3052_7803)">
<path d="M1668.92 894.307C1800 869.555 2013.63 713.168 1994.92 660.19C1976.22 607.212 1721.11 631.249 1590.04 656.001C1525.08 668.267 1336.09 658.79 1268.23 699.744C1199.15 741.435 1257.2 773.68 1266.64 800.405C1285.34 853.383 1537.85 919.059 1668.92 894.307Z" fill="#7EE8FF"/>
</g>
<g filter="url(#filter5_f_3052_7803)">
<path d="M1668.92 894.307C1800 869.555 2013.63 713.168 1994.92 660.19C1976.22 607.212 1721.11 631.249 1590.04 656.001C1525.08 668.267 1336.09 658.79 1268.23 699.744C1199.15 741.435 1257.2 773.68 1266.64 800.405C1285.34 853.383 1537.85 919.059 1668.92 894.307Z" fill="#7EE8FF"/>
</g>
<g filter="url(#filter6_f_3052_7803)">
<path d="M1668.92 894.307C1800 869.555 2013.63 713.168 1994.92 660.19C1976.22 607.212 1721.11 631.249 1590.04 656.001C1525.08 668.267 1336.09 658.79 1268.23 699.744C1199.15 741.435 1257.2 773.68 1266.64 800.405C1285.34 853.383 1537.85 919.059 1668.92 894.307Z" fill="#7EE8FF"/>
</g>
<g filter="url(#filter7_f_3052_7803)">
<path d="M1668.92 894.307C1800 869.555 2013.63 713.168 1994.92 660.19C1976.22 607.212 1721.11 631.249 1590.04 656.001C1525.08 668.267 1336.09 658.79 1268.23 699.744C1199.15 741.435 1257.2 773.68 1266.64 800.405C1285.34 853.383 1537.85 919.059 1668.92 894.307Z" fill="#7EE8FF"/>
</g>
<g filter="url(#filter8_f_3052_7803)">
<path d="M1688.96 933.099C1803.65 911.441 1877.74 822.983 1859.03 770.005C1840.33 717.026 1760.18 671.071 1645.49 692.729C1588.65 703.462 1494.89 707.15 1436.68 746.283C1377.42 786.12 1423.86 839.294 1433.29 866.019C1452 918.997 1574.26 954.758 1688.96 933.099Z" fill="#7EE8FF"/>
</g>
</g>
</g>
<mask id="mask3_3052_7803" style="mask-type:alpha" maskUnits="userSpaceOnUse" x="-634" y="128" width="2803" height="1413">
<path d="M-633.941 546.846L1969 128.02L2168.38 661.55L329.176 1540.47L-633.941 546.846Z" fill="url(#paint2_linear_3052_7803)"/>
</mask>
<g mask="url(#mask3_3052_7803)">
<path d="M17.9964 808.906C113.243 797.569 219.67 773.564 324.249 799.408C409.995 820.549 485.079 856.051 574.825 880.024C736.322 923.162 880.078 886.852 975.255 871.611C1168.43 840.626 1388.01 921.142 1580.45 882.288C1648.25 868.611 1705.56 839.672 1754.51 804.487C1906.65 694.851 1890.52 667.635 1955.19 593.795C1990.72 553.207 2036.66 512.624 2095.26 489.815C2117.8 481.01 2143.45 476.468 2164.88 466.27C2189.34 454.685 2205.33 432.673 2218.98 411.194C2221.95 406.485 2233.92 393.077 2232.29 387.664L2015.5 79.5212C2015.5 79.5212 -537.574 492.349 -541.921 486.885C-546.223 481.477 -479.914 769.165 -479.914 769.165C-379.095 792.595 -225.346 837.909 17.9964 808.906Z" fill="#65D0F2"/>
<g filter="url(#filter9_f_3052_7803)">
<path d="M17.9942 808.906C113.241 797.569 219.668 773.565 324.247 799.408C409.993 820.55 485.077 856.052 574.823 880.024C736.32 923.162 857.829 863.901 953.006 848.659C1146.18 817.675 1365.76 898.19 1558.2 859.336C1626 845.659 1683.32 816.72 1732.26 781.535C1884.4 671.899 1890.52 667.635 1955.18 593.796C1990.72 553.207 2036.66 512.625 2095.26 489.815C2117.8 481.011 2143.45 476.469 2164.88 466.27C2189.34 454.685 2205.33 432.673 2218.98 411.195C2221.95 406.486 2233.92 393.077 2232.28 387.664L2008 57.521C2008 57.521 -452.695 421.701 -457.042 416.237C-461.344 410.829 -479.916 769.165 -479.916 769.165C-379.098 792.596 -225.348 837.91 17.9942 808.906Z" fill="#65D0F2"/>
</g>
<g filter="url(#filter10_f_3052_7803)">
<path d="M1.77333 839.048C97.02 827.711 203.447 803.707 308.026 829.55C393.771 850.691 468.855 886.194 558.602 910.166C720.099 953.304 857.831 863.901 953.009 848.659C1146.19 817.674 1350.93 882.889 1543.37 844.035C1611.17 830.358 1668.49 801.419 1717.43 766.234C1869.57 656.598 1890.52 667.635 1955.19 593.795C1990.72 553.207 2036.66 512.624 2095.26 489.815C2117.8 481.01 2143.45 476.468 2164.88 466.27C2189.34 454.685 2205.33 432.673 2218.98 411.194C2221.95 406.485 2233.92 393.077 2232.29 387.664L1939.5 29.5206C1939.5 29.5206 -521.186 444.422 -525.533 438.959C-529.835 433.55 -479.913 769.165 -479.913 769.165C-379.095 792.595 -241.569 868.052 1.77333 839.048Z" fill="#65D0F2"/>
</g>
<g filter="url(#filter11_f_3052_7803)">
<path d="M1.76909 839.05C97.0157 827.713 203.443 803.708 308.022 829.552C393.767 850.693 468.851 886.195 558.598 910.167C720.095 953.306 855.047 861.033 950.224 845.792C1143.4 814.807 1273.99 803.515 1466.43 764.661C1534.23 750.984 1591.54 722.045 1640.49 686.859C1792.63 577.224 1890.52 667.636 1955.18 593.797C1990.72 553.208 2036.66 512.626 2095.26 489.817C2117.8 481.012 2143.45 476.47 2164.87 466.271C2189.34 454.687 2205.33 432.674 2218.98 411.196C2221.95 406.487 2233.92 393.078 2232.28 387.665L1581.43 -477.88C1581.43 -477.88 -477.844 470.586 -482.19 465.122C-486.493 459.714 -479.917 769.167 -479.917 769.167C-379.099 792.597 -241.573 868.053 1.76909 839.05Z" fill="#65D0F2"/>
</g>
<g filter="url(#filter12_f_3052_7803)">
<path d="M1.76831 839.05C97.015 827.713 203.442 803.708 308.021 829.552C393.767 850.693 468.851 886.195 558.597 910.167C720.094 953.306 855.046 861.033 950.223 845.792C1143.4 814.807 1273.99 803.515 1466.42 764.661C1534.23 750.984 1591.54 722.045 1640.49 686.859C1792.63 577.224 1890.52 667.636 1955.18 593.797C1990.72 553.208 2036.65 512.626 2095.26 489.817C2117.8 481.012 2143.45 476.47 2164.87 466.271C2189.34 454.687 2205.33 432.674 2218.98 411.196C2221.95 406.487 2233.92 393.078 2232.28 387.665L1456.92 -471.554C1456.92 -471.554 -602.352 476.913 -606.699 471.449C-611.001 466.04 -479.918 769.167 -479.918 769.167C-379.099 792.597 -241.574 868.053 1.76831 839.05Z" fill="#65D0F2"/>
</g>
</g>
<mask id="mask4_3052_7803" style="mask-type:alpha" maskUnits="userSpaceOnUse" x="-543" y="-166" width="2776" height="1067">
<path d="M18.0018 808.9C113.248 797.564 219.676 773.559 324.255 799.402C410 820.544 485.084 856.046 574.831 880.018C736.328 923.156 880.083 886.847 975.261 871.605C1168.44 840.621 1388.01 921.136 1580.45 882.282C1648.25 868.606 1705.57 839.667 1754.51 804.481C1906.66 694.846 1890.53 667.629 1955.19 593.79C1990.73 553.201 2036.66 512.619 2095.27 489.81C2117.8 481.005 2143.46 476.463 2164.88 466.264C2189.35 454.68 2205.33 432.667 2218.98 411.189C2221.96 406.48 2233.93 393.071 2232.29 387.658L2019.5 -165.48C2019.5 -165.48 -537.569 492.343 -541.916 486.879C-546.218 481.471 -479.908 769.159 -479.908 769.159C-379.09 792.59 -225.34 837.904 18.0018 808.9Z" fill="#4F8BFF"/>
</mask>
<g mask="url(#mask4_3052_7803)">
<g filter="url(#filter13_f_3052_7803)">
<path d="M1886.07 822.975C1886.07 830.768 1905.91 880.339 1915.84 904.15L1874.77 954.073C1684.34 962.732 1295.98 979.562 1266 977.614C1236.03 975.666 1048.88 927.826 959.052 904.15C1008.5 894.68 1118.89 875.09 1164.88 872.492C1222.37 869.245 1311.69 884.668 1486.72 888.727C1661.76 892.786 1774.68 808.77 1846.03 770.617C1917.38 732.465 1886.07 813.234 1886.07 822.975Z" fill="#C8EEFF" fill-opacity="0.82"/>
</g>
</g>
<mask id="mask5_3052_7803" style="mask-type:alpha" maskUnits="userSpaceOnUse" x="-274" y="121" width="3064" height="763">
<path d="M2789.54 121.829L587.716 136.805L-273.135 441.554L1415.98 883.63L2469.22 688.561L2789.54 121.829Z" fill="black"/>
</mask>
<g mask="url(#mask5_3052_7803)">
<mask id="mask6_3052_7803" style="mask-type:alpha" maskUnits="userSpaceOnUse" x="33" y="6" width="3127" height="1082">
<path d="M163.788 1087.14L33.0864 55.9719L2828 6.54554C2944.6 220.217 3174.08 648.67 3159.16 653.113C3144.25 657.555 1156.03 944.318 163.788 1087.14Z" fill="url(#paint3_linear_3052_7803)"/>
</mask>
<g mask="url(#mask6_3052_7803)">
<mask id="mask7_3052_7803" style="mask-type:alpha" maskUnits="userSpaceOnUse" x="115" y="102" width="3020" height="831">
<path d="M115.685 256.032C199.716 547.071 307.066 918.332 308.218 932.991L3134.26 779.783L2941.73 102.823L115.685 256.032Z" fill="url(#paint4_linear_3052_7803)"/>
</mask>
<g mask="url(#mask7_3052_7803)">
<path d="M1523.49 752.973C1745.4 740.943 1902.31 626.572 1875.73 533.103C1849.15 439.635 1724.43 321.844 1486.35 334.751C1368.37 341.147 1207.35 286.431 1080.42 340.576C951.204 395.693 1019.91 521.414 1033.32 568.564C1059.9 662.033 1301.59 765.003 1523.49 752.973Z" fill="#91EBFF"/>
<g filter="url(#filter14_f_3052_7803)">
<path d="M1522.38 751.421C1777.36 737.598 1926.93 611.978 1897.42 508.226C1867.91 404.475 1732.99 273.535 1478.01 287.358C1351.65 294.208 1177.74 230.472 1042.32 290.276C904.46 351.155 979.453 490.776 994.338 543.113C1023.85 646.865 1267.4 765.244 1522.38 751.421Z" fill="#91EBFF"/>
</g>
<g filter="url(#filter15_f_3052_7803)">
<path d="M1526.12 735.299C1650.97 770.155 2013.04 597.371 1985.04 498.899C1957.03 400.428 1806.33 277.38 1504.31 293.753C1354.65 301.866 1150.88 234.158 987.01 292.834C820.201 352.565 901.925 492.965 916.053 542.639C944.059 641.11 1370.52 794.049 1526.12 735.299Z" fill="#91EBFF"/>
</g>
<g filter="url(#filter16_f_3052_7803)">
<path d="M1543.89 694.697C1866.65 653.78 2104.75 517.044 2073.46 407.002C2042.16 296.96 1841.18 187.061 1521.29 204.403C1362.76 212.997 1124.87 104.111 952.116 169.12C776.258 235.297 862.538 383.017 878.326 438.528C909.623 548.569 1169.99 742.096 1543.89 694.697Z" fill="#91EBFF"/>
</g>
<g filter="url(#filter17_f_3052_7803)">
<path d="M1719.33 682.802C1929.12 623.372 2388.93 455.407 2356.7 342.064C2324.46 228.72 1440.28 202.251 1095.84 220.924C925.15 230.178 705.6 198.157 518.862 265.594C328.768 334.242 600.831 463.219 816.268 576.637C1102.35 727.247 1519.15 784.083 1719.33 682.802Z" fill="#91EBFF"/>
</g>
<g filter="url(#filter18_f_3052_7803)">
<path d="M1487.75 664.613C1843.69 645.316 2460.41 370.147 2427.44 254.219C2394.47 138.291 1709.32 125.157 1353.37 144.454C1176.98 154.016 677.996 86.9827 484.848 156.074C288.231 226.406 432.245 308.603 448.877 367.083C481.848 483.011 1131.8 683.911 1487.75 664.613Z" fill="#91EBFF"/>
</g>
<g filter="url(#filter19_f_3052_7803)">
<path d="M1487.75 664.613C1843.69 645.316 2460.41 370.147 2427.44 254.219C2394.47 138.291 1709.32 125.157 1353.37 144.454C1176.98 154.016 677.996 86.9827 484.848 156.074C288.231 226.406 432.245 308.603 448.877 367.083C481.848 483.011 1131.8 683.911 1487.75 664.613Z" fill="#91EBFF"/>
</g>
<g filter="url(#filter20_f_3052_7803)">
<path d="M1487.75 664.613C1843.69 645.316 2460.41 370.147 2427.44 254.219C2394.47 138.291 1709.32 125.157 1353.37 144.454C1176.98 154.016 677.996 86.9827 484.848 156.074C288.231 226.406 432.245 308.603 448.877 367.083C481.848 483.011 1131.8 683.911 1487.75 664.613Z" fill="#91EBFF"/>
</g>
<g filter="url(#filter21_f_3052_7803)">
<path d="M1487.75 664.613C1843.69 645.316 2460.41 370.147 2427.44 254.219C2394.47 138.291 1709.32 125.157 1353.37 144.454C1176.98 154.016 677.996 86.9827 484.848 156.074C288.231 226.406 432.245 308.603 448.877 367.083C481.848 483.011 1131.8 683.911 1487.75 664.613Z" fill="#91EBFF"/>
</g>
<g filter="url(#filter22_f_3052_7803)">
<path d="M1528.72 751.077C1840.17 734.192 2064.85 566.888 2031.88 450.96C1998.91 335.032 1800.53 218.53 1489.07 235.415C1334.73 243.782 1084.54 228.148 917.585 295.819C747.634 364.705 854.196 487.961 870.828 546.441C903.799 662.369 1217.26 767.962 1528.72 751.077Z" fill="#91EBFF"/>
</g>
</g>
</g>
</g>
<g filter="url(#filter23_f_3052_7803)">
<ellipse cx="451.553" cy="292.078" rx="451.553" ry="292.078" transform="matrix(-0.998571 -0.0534455 0.107925 -0.994159 1338.67 687.909)" fill="#A9FAFF"/>
</g>
<mask id="mask8_3052_7803" style="mask-type:alpha" maskUnits="userSpaceOnUse" x="-1509" y="171" width="3064" height="763">
<path d="M1554.57 171.256L-647.249 186.232L-1508.1 490.981L181.019 933.057L1234.25 737.988L1554.57 171.256Z" fill="black"/>
</mask>
<g mask="url(#mask8_3052_7803)">
<mask id="mask9_3052_7803" style="mask-type:alpha" maskUnits="userSpaceOnUse" x="-1202" y="55" width="3127" height="1082">
<path d="M-1071.17 1136.57L-1201.88 105.398L1593.04 55.9717C1709.64 269.643 1939.12 698.096 1924.2 702.539C1909.29 706.981 -78.9305 993.744 -1071.17 1136.57Z" fill="url(#paint5_linear_3052_7803)"/>
</mask>
<g mask="url(#mask9_3052_7803)">
<mask id="mask10_3052_7803" style="mask-type:alpha" maskUnits="userSpaceOnUse" x="-1120" y="152" width="3020" height="831">
<path d="M-1119.28 305.458C-1035.24 596.497 -927.895 967.758 -926.742 982.417L1899.3 829.209L1706.77 152.25L-1119.28 305.458Z" fill="url(#paint6_linear_3052_7803)"/>
</mask>
<g mask="url(#mask10_3052_7803)">
<path d="M288.532 802.4C510.433 790.37 667.35 675.998 640.767 582.53C614.184 489.061 489.471 371.27 251.39 384.177C133.41 390.574 -27.6113 335.858 -154.544 390.003C-283.758 445.12 -215.056 570.84 -201.646 617.991C-175.063 711.459 66.6307 814.43 288.532 802.4Z" fill="#7EE8FF"/>
<g filter="url(#filter24_f_3052_7803)">
<path d="M287.417 800.847C542.396 787.024 691.964 661.404 662.456 557.653C632.948 453.901 498.023 322.961 243.044 336.784C116.69 343.634 -57.2206 279.898 -192.646 339.703C-330.504 400.582 -255.511 540.202 -240.626 592.54C-211.118 696.291 32.4385 814.67 287.417 800.847Z" fill="#7EE8FF"/>
</g>
<g filter="url(#filter25_f_3052_7803)">
<path d="M291.159 784.725C416.003 819.582 778.078 646.797 750.072 548.326C722.066 449.855 571.365 326.806 269.351 343.18C119.689 351.293 -84.0878 283.585 -247.953 342.261C-414.762 401.992 -333.038 542.392 -318.91 592.066C-290.904 690.537 135.561 843.475 291.159 784.725Z" fill="#7EE8FF"/>
</g>
<g filter="url(#filter26_f_3052_7803)">
<path d="M308.931 744.124C631.691 703.207 869.792 566.471 838.496 456.429C807.199 346.387 606.218 236.487 286.324 253.83C127.8 262.424 -110.093 153.538 -282.847 218.547C-458.704 284.724 -372.424 432.444 -356.636 487.954C-325.339 597.996 -64.9692 791.523 308.931 744.124Z" fill="#7EE8FF"/>
</g>
<g filter="url(#filter27_f_3052_7803)">
<path d="M484.37 732.229C694.162 672.799 1153.97 504.834 1121.73 391.49C1089.5 278.147 205.317 251.677 -139.125 270.351C-309.813 279.604 -529.362 247.584 -716.101 315.02C-906.195 383.668 -634.131 512.645 -418.694 626.063C-132.61 776.674 284.191 833.509 484.37 732.229Z" fill="#7EE8FF"/>
</g>
<g filter="url(#filter28_f_3052_7803)">
<path d="M252.782 714.04C608.731 694.743 1225.45 419.574 1192.48 303.645C1159.51 187.717 474.359 174.583 118.41 193.88C-57.9806 203.443 -556.968 136.409 -750.115 205.5C-946.732 275.832 -802.718 358.029 -786.086 416.509C-753.115 532.437 -103.167 733.337 252.782 714.04Z" fill="#7EE8FF"/>
</g>
<g filter="url(#filter29_f_3052_7803)">
<path d="M252.782 714.04C608.731 694.743 1225.45 419.574 1192.48 303.645C1159.51 187.717 474.359 174.583 118.41 193.88C-57.9806 203.443 -556.968 136.409 -750.115 205.5C-946.732 275.832 -802.718 358.029 -786.086 416.509C-753.115 532.437 -103.167 733.337 252.782 714.04Z" fill="#7EE8FF"/>
</g>
<g filter="url(#filter30_f_3052_7803)">
<path d="M252.782 714.04C608.731 694.743 1225.45 419.574 1192.48 303.645C1159.51 187.717 474.359 174.583 118.41 193.88C-57.9806 203.443 -556.968 136.409 -750.115 205.5C-946.732 275.832 -802.718 358.029 -786.086 416.509C-753.115 532.437 -103.167 733.337 252.782 714.04Z" fill="#7EE8FF"/>
</g>
<g filter="url(#filter31_f_3052_7803)">
<path d="M252.782 714.04C608.731 694.743 1225.45 419.574 1192.48 303.645C1159.51 187.717 474.359 174.583 118.41 193.88C-57.9806 203.443 -556.968 136.409 -750.115 205.5C-946.732 275.832 -802.718 358.029 -786.086 416.509C-753.115 532.437 -103.167 733.337 252.782 714.04Z" fill="#7EE8FF"/>
</g>
<g filter="url(#filter32_f_3052_7803)">
<path d="M293.753 800.503C605.209 783.618 829.889 616.314 796.918 500.386C763.947 384.458 565.566 267.956 254.11 284.841C99.7687 293.208 -150.427 277.574 -317.378 345.245C-487.329 414.131 -380.767 537.387 -364.135 595.867C-331.164 711.795 -17.7026 817.388 293.753 800.503Z" fill="#7EE8FF"/>
</g>
</g>
</g>
</g>
<g filter="url(#filter33_f_3052_7803)">
<path d="M2339.62 540.019C2162.01 552.295 2144.25 320.516 1467.02 472.982C1045.3 617.963 764.778 673.326 351.724 651.218C197.672 642.973 6.68277 773.949 -132.09 886.006C-270.863 998.064 -204.273 196.48 -204.273 196.48L2412.71 -33.0099L2339.62 540.019Z" fill="#007BFB"/>
</g>
<g filter="url(#filter34_f_3052_7803)">
<path d="M237.552 683.145C167.043 697.18 32.7399 706.112 -161.999 652.522L-116.508 189.999L1981.98 190L1968.38 281.222C2013.15 272.716 2139.29 341.211 1915 379.999C1634.64 428.485 1587.53 497.42 1518.17 547.895C1439.26 605.312 1358.68 624.451 1236.13 624.451C1168.79 624.451 1138.76 633.383 1056.5 683.145C974.24 732.906 789.874 768.633 601.849 707.388C413.825 646.142 308.061 669.109 237.552 683.145Z" fill="white"/>
</g>
<g opacity="0.5" filter="url(#filter35_f_3052_7803)">
<path d="M1672 4.00022C2016.17 -94.6591 2325.67 -137.166 2355.88 -76.8854C2386.09 -16.6046 2232.67 479.84 1888.5 578.499C877.5 832 1292 495.999 1101.02 365.931C925 228.5 1327.83 102.66 1672 4.00022Z" fill="url(#paint7_linear_3052_7803)"/>
</g>
<g filter="url(#filter36_f_3052_7803)">
<path d="M2210.47 146.508L2210.47 -234.988L-218.455 -234.988L-218.455 541.046L2210.47 146.508Z" fill="white"/>
</g>
<g opacity="0.5">
<g filter="url(#filter37_f_3052_7803)">
<path d="M-203.952 1045.3C-271.501 1042.92 -398.865 1051 -578.687 1109.81L-537.357 1506.72L1435.94 1221.81L1447.87 1044.48C1500.82 1044.97 1476.83 1043.98 1447.96 1043.15L1447.87 1044.48C1422.21 1044.25 1378.49 1043.66 1308.49 1042.55C1040.43 1038.27 960.658 974.537 891.531 946.238C812.896 914.047 745.903 1010.3 630.278 1023.44C566.744 1030.66 536.848 1018.72 455.605 992.305C374.361 965.894 310.913 925.58 137.986 989.092C-34.9411 1052.6 -136.404 1047.68 -203.952 1045.3Z" fill="#297ECD"/>
</g>
<g filter="url(#filter38_f_3052_7803)">
<path d="M-203.952 1045.3C-271.501 1042.92 -398.866 1051 -578.687 1109.81L-538.305 1503.77L1435.94 1221.81L1444.65 1011.02C1487.51 1012.25 1507.11 986.817 1294.03 996.653C1022.76 1009.18 925.246 965.936 796.706 934.418C686.488 934.767 744.992 1001.47 629.367 1014.6C565.833 1021.82 536.848 1018.72 455.605 992.305C374.361 965.894 310.913 925.58 137.986 989.092C-34.9409 1052.6 -136.404 1047.68 -203.952 1045.3Z" fill="#297ECD"/>
</g>
<g filter="url(#filter39_f_3052_7803)">
<path d="M-219.226 1072.68C-287.539 1073.03 -414.855 1086.1 -588.982 1151.41L-465.967 1533.74L1453.31 1181.54L1642 1151.41C1685.31 1150.9 1497.11 946.47 1283.68 964.709C1011.95 987.931 908.616 949.1 775.419 923.094C664.455 927.846 731.29 991.42 616.399 1009.02C553.268 1018.7 523.708 1016.79 438.751 993.937C353.793 971.086 285.109 933.785 118.484 1003.46C-48.1418 1073.14 -150.913 1072.33 -219.226 1072.68Z" fill="#2975AC"/>
</g>
<g filter="url(#filter40_f_3052_7803)">
<path d="M-203.952 1045.3C-271.501 1042.92 -398.865 1051 -578.687 1109.81L-492.654 1515.24L1418.75 1198.3L1725 1169C1767.86 1170.22 1507 981.798 1289.81 1004.58C994.37 1035.57 966.64 1001.47 897.514 973.173C818.878 940.982 746.482 1015.92 630.857 1029.06C567.323 1036.27 536.848 1018.72 455.605 992.305C374.361 965.894 310.913 925.58 137.986 989.092C-34.941 1052.6 -136.404 1047.68 -203.952 1045.3Z" fill="#297ECD"/>
</g>
<g filter="url(#filter41_f_3052_7803)">
<path d="M-203.952 1045.3C-271.501 1042.92 -398.865 1051 -578.687 1109.81L-454.763 1494.96L1435.94 1221.81L1440.71 1022.19C1493.59 1022.67 1469.6 1021.68 1440.74 1020.86L1440.71 1022.19C1415.06 1021.96 1371.32 1021.37 1301.27 1020.26C1033.22 1015.98 964.218 1009.06 895.091 980.759C816.456 948.568 744.992 1001.47 629.367 1014.6C565.833 1021.82 536.849 1018.72 455.605 992.305C374.361 965.894 310.914 925.58 137.987 989.092C-34.9406 1052.6 -136.403 1047.68 -203.952 1045.3Z" fill="#297ECD"/>
</g>
<g filter="url(#filter42_f_3052_7803)">
<path d="M127.555 887.915C-45.3719 951.426 -146.835 946.504 -214.383 944.125L-143.132 1454.49L1484.23 1155.85L1526 1140.5L1585 1140.5C1627.86 1141.72 1522.93 1045.96 1308.49 1042.54C1040.43 1038.26 959.747 965.692 890.62 937.393C811.985 905.202 734.56 900.29 618.935 913.426C555.401 920.644 526.417 917.539 445.174 891.128C363.93 864.717 300.482 824.403 127.555 887.915Z" fill="#297ECD"/>
</g>
<mask id="mask11_3052_7803" style="mask-type:alpha" maskUnits="userSpaceOnUse" x="-215" y="853" width="1695" height="523">
<path d="M127.561 887.914C-45.3659 951.425 -146.829 946.502 -214.377 944.124L-186.184 1375.66L1358.48 1110.93L1446.23 1044.46C1501.32 1044.98 1477.13 1043.97 1447.97 1043.14L1446.23 1044.46C1420.37 1044.21 1377.02 1043.63 1308.49 1042.54C1040.44 1038.26 959.753 965.691 890.626 937.392C811.991 905.201 734.567 900.289 618.942 913.425C555.408 920.643 526.423 917.538 445.18 891.127C363.936 864.715 300.488 824.402 127.561 887.914Z" fill="url(#paint8_linear_3052_7803)"/>
</mask>
<g mask="url(#mask11_3052_7803)">
<g opacity="0.5" filter="url(#filter43_f_3052_7803)">
<path d="M87.5807 908.827C-282.311 1028.5 -319.25 888.031 -441.646 810.505L-151.895 752.736C181.472 770.259 853.608 809.522 875.217 826.391C902.23 847.478 756.575 879.454 625.328 911.491C520.33 937.122 454.795 907.918 387.372 882.176C319.949 856.435 184.232 865.731 87.5807 908.827Z" fill="#C8F2FF"/>
</g>
</g>
</g>
</g>
</g>
<defs>
<filter id="filter0_f_3052_7803" x="1454.1" y="710.058" width="365.637" height="231.611" filterUnits="userSpaceOnUse" color-interpolation-filters="sRGB">
<feFlood flood-opacity="0" result="BackgroundImageFix"/>
<feBlend mode="normal" in="SourceGraphic" in2="BackgroundImageFix" result="shape"/>
<feGaussianBlur stdDeviation="2.0844" result="effect1_foregroundBlur_3052_7803"/>
</filter>
<filter id="filter1_f_3052_7803" x="1415.67" y="699.996" width="444.623" height="251.456" filterUnits="userSpaceOnUse" color-interpolation-filters="sRGB">
<feFlood flood-opacity="0" result="BackgroundImageFix"/>
<feBlend mode="normal" in="SourceGraphic" in2="BackgroundImageFix" result="shape"/>
<feGaussianBlur stdDeviation="7.2954" result="effect1_foregroundBlur_3052_7803"/>
</filter>
<filter id="filter2_f_3052_7803" x="1388.01" y="647.716" width="507.293" height="289.388" filterUnits="userSpaceOnUse" color-interpolation-filters="sRGB">
<feFlood flood-opacity="0" result="BackgroundImageFix"/>
<feBlend mode="normal" in="SourceGraphic" in2="BackgroundImageFix" result="shape"/>
<feGaussianBlur stdDeviation="10.422" result="effect1_foregroundBlur_3052_7803"/>
</filter>
<filter id="filter3_f_3052_7803" x="1209.93" y="618.476" width="821.332" height="368.63" filterUnits="userSpaceOnUse" color-interpolation-filters="sRGB">
<feFlood flood-opacity="0" result="BackgroundImageFix"/>
<feBlend mode="normal" in="SourceGraphic" in2="BackgroundImageFix" result="shape"/>
<feGaussianBlur stdDeviation="28.1394" result="effect1_foregroundBlur_3052_7803"/>
</filter>
<filter id="filter4_f_3052_7803" x="1076.9" y="470.533" width="1077.13" height="587.114" filterUnits="userSpaceOnUse" color-interpolation-filters="sRGB">
<feFlood flood-opacity="0" result="BackgroundImageFix"/>
<feBlend mode="normal" in="SourceGraphic" in2="BackgroundImageFix" result="shape"/>
<feGaussianBlur stdDeviation="78.9785" result="effect1_foregroundBlur_3052_7803"/>
</filter>
<filter id="filter5_f_3052_7803" x="1076.9" y="470.533" width="1077.13" height="587.114" filterUnits="userSpaceOnUse" color-interpolation-filters="sRGB">
<feFlood flood-opacity="0" result="BackgroundImageFix"/>
<feBlend mode="normal" in="SourceGraphic" in2="BackgroundImageFix" result="shape"/>
<feGaussianBlur stdDeviation="78.9785" result="effect1_foregroundBlur_3052_7803"/>
</filter>
<filter id="filter6_f_3052_7803" x="1076.9" y="470.533" width="1077.13" height="587.114" filterUnits="userSpaceOnUse" color-interpolation-filters="sRGB">
<feFlood flood-opacity="0" result="BackgroundImageFix"/>
<feBlend mode="normal" in="SourceGraphic" in2="BackgroundImageFix" result="shape"/>
<feGaussianBlur stdDeviation="78.9785" result="effect1_foregroundBlur_3052_7803"/>
</filter>
<filter id="filter7_f_3052_7803" x="1076.9" y="470.533" width="1077.13" height="587.114" filterUnits="userSpaceOnUse" color-interpolation-filters="sRGB">
<feFlood flood-opacity="0" result="BackgroundImageFix"/>
<feBlend mode="normal" in="SourceGraphic" in2="BackgroundImageFix" result="shape"/>
<feGaussianBlur stdDeviation="78.9785" result="effect1_foregroundBlur_3052_7803"/>
</filter>
<filter id="filter8_f_3052_7803" x="1342.46" y="622.629" width="584.067" height="381.515" filterUnits="userSpaceOnUse" color-interpolation-filters="sRGB">
<feFlood flood-opacity="0" result="BackgroundImageFix"/>
<feBlend mode="normal" in="SourceGraphic" in2="BackgroundImageFix" result="shape"/>
<feGaussianBlur stdDeviation="32.3082" result="effect1_foregroundBlur_3052_7803"/>
</filter>
<filter id="filter9_f_3052_7803" x="-537.12" y="0.317337" width="2826.76" height="952.365" filterUnits="userSpaceOnUse" color-interpolation-filters="sRGB">
<feFlood flood-opacity="0" result="BackgroundImageFix"/>
<feBlend mode="normal" in="SourceGraphic" in2="BackgroundImageFix" result="shape"/>
<feGaussianBlur stdDeviation="28.6018" result="effect1_foregroundBlur_3052_7803"/>
</filter>
<filter id="filter10_f_3052_7803" x="-636.39" y="-81.0731" width="2979.42" height="1113.49" filterUnits="userSpaceOnUse" color-interpolation-filters="sRGB">
<feFlood flood-opacity="0" result="BackgroundImageFix"/>
<feBlend mode="normal" in="SourceGraphic" in2="BackgroundImageFix" result="shape"/>
<feGaussianBlur stdDeviation="55.2969" result="effect1_foregroundBlur_3052_7803"/>
</filter>
<filter id="filter11_f_3052_7803" x="-594.244" y="-588.474" width="2937.27" height="1620.62" filterUnits="userSpaceOnUse" color-interpolation-filters="sRGB">
<feFlood flood-opacity="0" result="BackgroundImageFix"/>
<feBlend mode="normal" in="SourceGraphic" in2="BackgroundImageFix" result="shape"/>
<feGaussianBlur stdDeviation="55.2969" result="effect1_foregroundBlur_3052_7803"/>
</filter>
<filter id="filter12_f_3052_7803" x="-732.651" y="-597.402" width="3090.93" height="1644.8" filterUnits="userSpaceOnUse" color-interpolation-filters="sRGB">
<feFlood flood-opacity="0" result="BackgroundImageFix"/>
<feBlend mode="normal" in="SourceGraphic" in2="BackgroundImageFix" result="shape"/>
<feGaussianBlur stdDeviation="62.924" result="effect1_foregroundBlur_3052_7803"/>
</filter>
<filter id="filter13_f_3052_7803" x="908.052" y="709.447" width="1058.79" height="319.323" filterUnits="userSpaceOnUse" color-interpolation-filters="sRGB">
<feFlood flood-opacity="0" result="BackgroundImageFix"/>
<feBlend mode="normal" in="SourceGraphic" in2="BackgroundImageFix" result="shape"/>
<feGaussianBlur stdDeviation="25.5" result="effect1_foregroundBlur_3052_7803"/>
</filter>
<filter id="filter14_f_3052_7803" x="956.454" y="260.281" width="948.824" height="496.414" filterUnits="userSpaceOnUse" color-interpolation-filters="sRGB">
<feFlood flood-opacity="0" result="BackgroundImageFix"/>
<feBlend mode="normal" in="SourceGraphic" in2="BackgroundImageFix" result="shape"/>
<feGaussianBlur stdDeviation="2.0844" result="effect1_foregroundBlur_3052_7803"/>
</filter>
<filter id="filter15_f_3052_7803" x="869.031" y="254.087" width="1132.13" height="508.856" filterUnits="userSpaceOnUse" color-interpolation-filters="sRGB">
<feFlood flood-opacity="0" result="BackgroundImageFix"/>
<feBlend mode="normal" in="SourceGraphic" in2="BackgroundImageFix" result="shape"/>
<feGaussianBlur stdDeviation="7.2954" result="effect1_foregroundBlur_3052_7803"/>
</filter>
<filter id="filter16_f_3052_7803" x="822.435" y="127.471" width="1274.63" height="595.408" filterUnits="userSpaceOnUse" color-interpolation-filters="sRGB">
<feFlood flood-opacity="0" result="BackgroundImageFix"/>
<feBlend mode="normal" in="SourceGraphic" in2="BackgroundImageFix" result="shape"/>
<feGaussianBlur stdDeviation="10.422" result="effect1_foregroundBlur_3052_7803"/>
</filter>
<filter id="filter17_f_3052_7803" x="398.397" y="159.177" width="2016.19" height="630.913" filterUnits="userSpaceOnUse" color-interpolation-filters="sRGB">
<feFlood flood-opacity="0" result="BackgroundImageFix"/>
<feBlend mode="normal" in="SourceGraphic" in2="BackgroundImageFix" result="shape"/>
<feGaussianBlur stdDeviation="28.1394" result="effect1_foregroundBlur_3052_7803"/>
</filter>
<filter id="filter18_f_3052_7803" x="224.496" y="-33.5237" width="2362.17" height="857.389" filterUnits="userSpaceOnUse" color-interpolation-filters="sRGB">
<feFlood flood-opacity="0" result="BackgroundImageFix"/>
<feBlend mode="normal" in="SourceGraphic" in2="BackgroundImageFix" result="shape"/>
<feGaussianBlur stdDeviation="78.9785" result="effect1_foregroundBlur_3052_7803"/>
</filter>
<filter id="filter19_f_3052_7803" x="224.496" y="-33.5237" width="2362.17" height="857.389" filterUnits="userSpaceOnUse" color-interpolation-filters="sRGB">
<feFlood flood-opacity="0" result="BackgroundImageFix"/>
<feBlend mode="normal" in="SourceGraphic" in2="BackgroundImageFix" result="shape"/>
<feGaussianBlur stdDeviation="78.9785" result="effect1_foregroundBlur_3052_7803"/>
</filter>
<filter id="filter20_f_3052_7803" x="224.496" y="-33.5237" width="2362.17" height="857.389" filterUnits="userSpaceOnUse" color-interpolation-filters="sRGB">
<feFlood flood-opacity="0" result="BackgroundImageFix"/>
<feBlend mode="normal" in="SourceGraphic" in2="BackgroundImageFix" result="shape"/>
<feGaussianBlur stdDeviation="78.9785" result="effect1_foregroundBlur_3052_7803"/>
</filter>
<filter id="filter21_f_3052_7803" x="224.496" y="-33.5237" width="2362.17" height="857.389" filterUnits="userSpaceOnUse" color-interpolation-filters="sRGB">
<feFlood flood-opacity="0" result="BackgroundImageFix"/>
<feBlend mode="normal" in="SourceGraphic" in2="BackgroundImageFix" result="shape"/>
<feGaussianBlur stdDeviation="78.9785" result="effect1_foregroundBlur_3052_7803"/>
</filter>
<filter id="filter22_f_3052_7803" x="757.979" y="169.16" width="1341.73" height="648.318" filterUnits="userSpaceOnUse" color-interpolation-filters="sRGB">
<feFlood flood-opacity="0" result="BackgroundImageFix"/>
<feBlend mode="normal" in="SourceGraphic" in2="BackgroundImageFix" result="shape"/>
<feGaussianBlur stdDeviation="32.3082" result="effect1_foregroundBlur_3052_7803"/>
</filter>
<filter id="filter23_f_3052_7803" x="266.259" y="-118.987" width="1306.05" height="984.779" filterUnits="userSpaceOnUse" color-interpolation-filters="sRGB">
<feFlood flood-opacity="0" result="BackgroundImageFix"/>
<feBlend mode="normal" in="SourceGraphic" in2="BackgroundImageFix" result="shape"/>
<feGaussianBlur stdDeviation="100.5" result="effect1_foregroundBlur_3052_7803"/>
</filter>
<filter id="filter24_f_3052_7803" x="-278.51" y="309.707" width="948.823" height="496.414" filterUnits="userSpaceOnUse" color-interpolation-filters="sRGB">
<feFlood flood-opacity="0" result="BackgroundImageFix"/>
<feBlend mode="normal" in="SourceGraphic" in2="BackgroundImageFix" result="shape"/>
<feGaussianBlur stdDeviation="2.0844" result="effect1_foregroundBlur_3052_7803"/>
</filter>
<filter id="filter25_f_3052_7803" x="-365.933" y="303.513" width="1132.13" height="508.856" filterUnits="userSpaceOnUse" color-interpolation-filters="sRGB">
<feFlood flood-opacity="0" result="BackgroundImageFix"/>
<feBlend mode="normal" in="SourceGraphic" in2="BackgroundImageFix" result="shape"/>
<feGaussianBlur stdDeviation="7.2954" result="effect1_foregroundBlur_3052_7803"/>
</filter>
<filter id="filter26_f_3052_7803" x="-412.528" y="176.897" width="1274.63" height="595.408" filterUnits="userSpaceOnUse" color-interpolation-filters="sRGB">
<feFlood flood-opacity="0" result="BackgroundImageFix"/>
<feBlend mode="normal" in="SourceGraphic" in2="BackgroundImageFix" result="shape"/>
<feGaussianBlur stdDeviation="10.422" result="effect1_foregroundBlur_3052_7803"/>
</filter>
<filter id="filter27_f_3052_7803" x="-836.566" y="208.603" width="2016.19" height="630.913" filterUnits="userSpaceOnUse" color-interpolation-filters="sRGB">
<feFlood flood-opacity="0" result="BackgroundImageFix"/>
<feBlend mode="normal" in="SourceGraphic" in2="BackgroundImageFix" result="shape"/>
<feGaussianBlur stdDeviation="28.1394" result="effect1_foregroundBlur_3052_7803"/>
</filter>
<filter id="filter28_f_3052_7803" x="-1010.47" y="15.9026" width="2362.17" height="857.389" filterUnits="userSpaceOnUse" color-interpolation-filters="sRGB">
<feFlood flood-opacity="0" result="BackgroundImageFix"/>
<feBlend mode="normal" in="SourceGraphic" in2="BackgroundImageFix" result="shape"/>
<feGaussianBlur stdDeviation="78.9785" result="effect1_foregroundBlur_3052_7803"/>
</filter>
<filter id="filter29_f_3052_7803" x="-1010.47" y="15.9026" width="2362.17" height="857.389" filterUnits="userSpaceOnUse" color-interpolation-filters="sRGB">
<feFlood flood-opacity="0" result="BackgroundImageFix"/>
<feBlend mode="normal" in="SourceGraphic" in2="BackgroundImageFix" result="shape"/>
<feGaussianBlur stdDeviation="78.9785" result="effect1_foregroundBlur_3052_7803"/>
</filter>
<filter id="filter30_f_3052_7803" x="-1010.47" y="15.9026" width="2362.17" height="857.389" filterUnits="userSpaceOnUse" color-interpolation-filters="sRGB">
<feFlood flood-opacity="0" result="BackgroundImageFix"/>
<feBlend mode="normal" in="SourceGraphic" in2="BackgroundImageFix" result="shape"/>
<feGaussianBlur stdDeviation="78.9785" result="effect1_foregroundBlur_3052_7803"/>
</filter>
<filter id="filter31_f_3052_7803" x="-1010.47" y="15.9026" width="2362.17" height="857.389" filterUnits="userSpaceOnUse" color-interpolation-filters="sRGB">
<feFlood flood-opacity="0" result="BackgroundImageFix"/>
<feBlend mode="normal" in="SourceGraphic" in2="BackgroundImageFix" result="shape"/>
<feGaussianBlur stdDeviation="78.9785" result="effect1_foregroundBlur_3052_7803"/>
</filter>
<filter id="filter32_f_3052_7803" x="-476.985" y="218.586" width="1341.73" height="648.318" filterUnits="userSpaceOnUse" color-interpolation-filters="sRGB">
<feFlood flood-opacity="0" result="BackgroundImageFix"/>
<feBlend mode="normal" in="SourceGraphic" in2="BackgroundImageFix" result="shape"/>
<feGaussianBlur stdDeviation="32.3082" result="effect1_foregroundBlur_3052_7803"/>
</filter>
<filter id="filter33_f_3052_7803" x="-421.242" y="-234.01" width="3034.95" height="1331.76" filterUnits="userSpaceOnUse" color-interpolation-filters="sRGB">
<feFlood flood-opacity="0" result="BackgroundImageFix"/>
<feBlend mode="normal" in="SourceGraphic" in2="BackgroundImageFix" result="shape"/>
<feGaussianBlur stdDeviation="100.5" result="effect1_foregroundBlur_3052_7803"/>
</filter>
<filter id="filter34_f_3052_7803" x="-374.482" y="-22.4832" width="2631.28" height="974.718" filterUnits="userSpaceOnUse" color-interpolation-filters="sRGB">
<feFlood flood-opacity="0" result="BackgroundImageFix"/>
<feBlend mode="normal" in="SourceGraphic" in2="BackgroundImageFix" result="shape"/>
<feGaussianBlur stdDeviation="106.241" result="effect1_foregroundBlur_3052_7803"/>
</filter>
<filter id="filter35_f_3052_7803" x="938.293" y="-224.711" width="1541.31" height="1015.37" filterUnits="userSpaceOnUse" color-interpolation-filters="sRGB">
<feFlood flood-opacity="0" result="BackgroundImageFix"/>
<feBlend mode="normal" in="SourceGraphic" in2="BackgroundImageFix" result="shape"/>
<feGaussianBlur stdDeviation="60" result="effect1_foregroundBlur_3052_7803"/>
</filter>
<filter id="filter36_f_3052_7803" x="-430.938" y="-447.471" width="2853.89" height="1201" filterUnits="userSpaceOnUse" color-interpolation-filters="sRGB">
<feFlood flood-opacity="0" result="BackgroundImageFix"/>
<feBlend mode="normal" in="SourceGraphic" in2="BackgroundImageFix" result="shape"/>
<feGaussianBlur stdDeviation="106.241" result="effect1_foregroundBlur_3052_7803"/>
</filter>
<filter id="filter37_f_3052_7803" x="-622.856" y="895.521" width="2146.25" height="655.364" filterUnits="userSpaceOnUse" color-interpolation-filters="sRGB">
<feFlood flood-opacity="0" result="BackgroundImageFix"/>
<feBlend mode="normal" in="SourceGraphic" in2="BackgroundImageFix" result="shape"/>
<feGaussianBlur stdDeviation="22.084" result="effect1_foregroundBlur_3052_7803"/>
</filter>
<filter id="filter38_f_3052_7803" x="-647.95" y="865.155" width="2189.34" height="707.881" filterUnits="userSpaceOnUse" color-interpolation-filters="sRGB">
<feFlood flood-opacity="0" result="BackgroundImageFix"/>
<feBlend mode="normal" in="SourceGraphic" in2="BackgroundImageFix" result="shape"/>
<feGaussianBlur stdDeviation="34.6312" result="effect1_foregroundBlur_3052_7803"/>
</filter>
<filter id="filter39_f_3052_7803" x="-718.245" y="793.831" width="2495.76" height="869.171" filterUnits="userSpaceOnUse" color-interpolation-filters="sRGB">
<feFlood flood-opacity="0" result="BackgroundImageFix"/>
<feBlend mode="normal" in="SourceGraphic" in2="BackgroundImageFix" result="shape"/>
<feGaussianBlur stdDeviation="64.6312" result="effect1_foregroundBlur_3052_7803"/>
</filter>
<filter id="filter40_f_3052_7803" x="-779.897" y="753.963" width="2710.77" height="962.483" filterUnits="userSpaceOnUse" color-interpolation-filters="sRGB">
<feFlood flood-opacity="0" result="BackgroundImageFix"/>
<feBlend mode="normal" in="SourceGraphic" in2="BackgroundImageFix" result="shape"/>
<feGaussianBlur stdDeviation="100.605" result="effect1_foregroundBlur_3052_7803"/>
</filter>
<filter id="filter41_f_3052_7803" x="-662.115" y="871.744" width="2217.55" height="706.646" filterUnits="userSpaceOnUse" color-interpolation-filters="sRGB">
<feFlood flood-opacity="0" result="BackgroundImageFix"/>
<feBlend mode="normal" in="SourceGraphic" in2="BackgroundImageFix" result="shape"/>
<feGaussianBlur stdDeviation="41.7143" result="effect1_foregroundBlur_3052_7803"/>
</filter>
<filter id="filter42_f_3052_7803" x="-223.384" y="844.996" width="1826.83" height="618.492" filterUnits="userSpaceOnUse" color-interpolation-filters="sRGB">
<feFlood flood-opacity="0" result="BackgroundImageFix"/>
<feBlend mode="normal" in="SourceGraphic" in2="BackgroundImageFix" result="shape"/>
<feGaussianBlur stdDeviation="4.5" result="effect1_foregroundBlur_3052_7803"/>
</filter>
<filter id="filter43_f_3052_7803" x="-492.646" y="701.736" width="1422.13" height="304.526" filterUnits="userSpaceOnUse" color-interpolation-filters="sRGB">
<feFlood flood-opacity="0" result="BackgroundImageFix"/>
<feBlend mode="normal" in="SourceGraphic" in2="BackgroundImageFix" result="shape"/>
<feGaussianBlur stdDeviation="25.5" result="effect1_foregroundBlur_3052_7803"/>
</filter>
<linearGradient id="paint0_linear_3052_7803" x1="840.965" y1="1054.82" x2="2004.26" y2="1068.74" gradientUnits="userSpaceOnUse">
<stop stop-color="#C4C4C4" stop-opacity="0"/>
<stop offset="0.430547" stop-color="#C4C4C4"/>
<stop offset="0.498519" stop-color="#C4C4C4"/>
<stop offset="1" stop-color="#C4C4C4" stop-opacity="0"/>
</linearGradient>
<linearGradient id="paint1_linear_3052_7803" x1="1708.65" y1="997.606" x2="1662.96" y2="660.044" gradientUnits="userSpaceOnUse">
<stop stop-color="#C4C4C4"/>
<stop offset="1" stop-color="#C4C4C4" stop-opacity="0"/>
</linearGradient>
<linearGradient id="paint2_linear_3052_7803" x1="-113.72" y1="1123.45" x2="1219.71" y2="-229.317" gradientUnits="userSpaceOnUse">
<stop offset="0.12882" stop-color="#C4C4C4" stop-opacity="0"/>
<stop offset="0.496484" stop-color="#C4C4C4"/>
<stop offset="0.606591" stop-color="#C4C4C4"/>
<stop offset="1" stop-color="#C4C4C4" stop-opacity="0"/>
</linearGradient>
<linearGradient id="paint3_linear_3052_7803" x1="180.552" y1="439.37" x2="2333.38" y2="-514.719" gradientUnits="userSpaceOnUse">
<stop stop-color="#C4C4C4" stop-opacity="0"/>
<stop offset="0.430547" stop-color="#C4C4C4"/>
<stop offset="0.498519" stop-color="#C4C4C4"/>
<stop offset="1" stop-color="#C4C4C4" stop-opacity="0"/>
</linearGradient>
<linearGradient id="paint4_linear_3052_7803" x1="1516.8" y1="737.217" x2="1504.46" y2="173.635" gradientUnits="userSpaceOnUse">
<stop stop-color="#C4C4C4"/>
<stop offset="1" stop-color="#C4C4C4" stop-opacity="0"/>
</linearGradient>
<linearGradient id="paint5_linear_3052_7803" x1="-1054.41" y1="488.796" x2="1098.42" y2="-465.294" gradientUnits="userSpaceOnUse">
<stop stop-color="#C4C4C4" stop-opacity="0"/>
<stop offset="0.430547" stop-color="#C4C4C4"/>
<stop offset="0.498519" stop-color="#C4C4C4"/>
<stop offset="1" stop-color="#C4C4C4" stop-opacity="0"/>
</linearGradient>
<linearGradient id="paint6_linear_3052_7803" x1="281.843" y1="786.643" x2="269.503" y2="223.061" gradientUnits="userSpaceOnUse">
<stop stop-color="#C4C4C4"/>
<stop offset="1" stop-color="#C4C4C4" stop-opacity="0"/>
</linearGradient>
<linearGradient id="paint7_linear_3052_7803" x1="1866.5" y1="503.5" x2="1638.93" y2="31.1738" gradientUnits="userSpaceOnUse">
<stop stop-color="#78AEFF"/>
<stop offset="0.625" stop-color="#78AEFF" stop-opacity="0"/>
</linearGradient>
<linearGradient id="paint8_linear_3052_7803" x1="-540.203" y1="1110" x2="1055.08" y2="1207.06" gradientUnits="userSpaceOnUse">
<stop stop-color="#CD2F8D"/>
<stop offset="0.536458" stop-color="#F72D55"/>
<stop offset="1" stop-color="#FF974D"/>
</linearGradient>
</defs>
</svg>
