<svg width="1920" height="1126" viewBox="0 0 1920 1126" fill="none" xmlns="http://www.w3.org/2000/svg">
<g clip-path="url(#clip0_2643_3068)">
<g clip-path="url(#clip1_2643_3068)">
<rect width="1988" height="1248" transform="translate(1937 1187) rotate(180)" fill="white"/>
<mask id="mask0_2643_3068" style="mask-type:alpha" maskUnits="userSpaceOnUse" x="-51" y="-61" width="1988" height="1248">
<rect x="1936.8" y="1186.55" width="1987.8" height="1247.55" transform="rotate(180 1936.8 1186.55)" fill="#C4C4C4"/>
</mask>
<g mask="url(#mask0_2643_3068)">
<rect x="1940.22" y="1330" width="1987.8" height="1253.76" transform="rotate(179.846 1940.22 1330)" fill="#F93E76"/>
<path d="M168.52 978.69C432.248 1082.04 681.12 995.145 996.278 1042.11C1311.43 1089.07 1412.41 1113.68 1638.58 1091.69C1864.75 1069.71 1941.06 1112.34 2061.08 1174.17C2181.09 1236 1907.68 688.613 1907.68 688.613L137.294 940.168L168.52 978.69Z" fill="#FF7C94"/>
<g filter="url(#filter0_f_2643_3068)">
<path d="M128.354 1010.63C248.722 995.245 641.295 1029.8 989.305 1022.4C1304.46 1069.36 1427.31 1094.38 1638.58 1091.69C1864.75 1069.7 1956.39 1150.07 2076.41 1211.9C2196.42 1273.73 1907.68 688.612 1907.68 688.612L97.1282 972.106L128.354 1010.63Z" fill="#FF7C94"/>
</g>
<g filter="url(#filter1_f_2643_3068)">
<path d="M127.472 1015.33C247.84 999.942 503.567 1004.91 989.305 1022.4C1304.46 1069.36 1427.31 1094.39 1638.58 1091.69C1871.35 1097.88 1942.67 1212.41 2062.69 1274.25C2182.7 1336.08 1907.68 688.613 1907.68 688.613L103.544 853.917L127.472 1015.33Z" fill="#FF7C94"/>
</g>
<g filter="url(#filter2_f_2643_3068)">
<path d="M93.3586 1073.04C213.727 1057.65 518.872 874.609 1004.61 892.106C1319.77 939.067 1519.74 894.302 1731.01 891.608C1963.78 897.8 2007.15 1038.04 2127.16 1099.88C2247.18 1161.71 2000.11 488.53 2000.11 488.53L214.273 680.152L93.3586 1073.04Z" fill="#FF79C9"/>
</g>
<mask id="mask1_2643_3068" style="mask-type:alpha" maskUnits="userSpaceOnUse" x="-651" y="-763" width="2827" height="2690">
<rect x="-650.164" y="499.461" width="2243.65" height="1726.3" transform="rotate(-34.239 -650.164 499.461)" fill="url(#paint0_linear_2643_3068)"/>
</mask>
<g mask="url(#mask1_2643_3068)">
<path d="M7.30877 948.567C103.364 936.085 210.695 909.656 316.162 938.11C402.636 961.387 478.358 1000.48 568.866 1026.87C731.735 1074.37 876.711 1034.39 972.697 1017.61C1167.51 983.492 1388.95 1072.14 1583.03 1029.36C1651.4 1014.3 1709.21 982.441 1758.57 943.701C1912 822.991 1895.73 793.025 1960.95 711.726C1996.79 667.037 2043.11 622.355 2102.22 597.242C2124.94 587.547 2150.81 582.547 2172.42 571.318C2197.09 558.563 2213.22 534.327 2226.98 510.679C2229.98 505.494 2242.05 490.731 2240.4 484.771L1523.78 -444.248C1523.78 -444.248 -552.98 600.032 -557.364 594.016C-561.702 588.062 -494.83 904.812 -494.83 904.812C-393.155 930.609 -238.1 980.501 7.30877 948.567Z" fill="#FF99D6"/>
<g filter="url(#filter3_f_2643_3068)">
<path d="M7.31061 948.566C103.366 936.084 210.697 909.654 316.164 938.108C402.638 961.385 478.359 1000.47 568.868 1026.87C731.736 1074.36 854.277 1009.12 950.262 992.334C1145.08 958.22 1366.52 1046.87 1560.59 1004.09C1628.97 989.031 1686.77 957.169 1736.13 918.429C1889.57 797.718 1895.74 793.023 1960.95 711.724C1996.79 667.036 2043.12 622.354 2102.22 597.24C2124.94 587.546 2150.81 582.545 2172.42 571.316C2197.1 558.561 2213.22 534.325 2226.98 510.677C2229.98 505.492 2242.05 490.729 2240.4 484.77L1609.38 -522.035C1609.38 -522.035 -467.376 522.245 -471.76 516.229C-476.099 510.275 -494.828 904.81 -494.828 904.81C-393.153 930.607 -238.098 980.499 7.31061 948.566Z" fill="#FF99D6"/>
</g>
<g filter="url(#filter4_f_2643_3068)">
<path d="M-9.05104 981.753C87.0045 969.27 194.335 942.841 299.802 971.295C386.276 994.572 461.998 1033.66 552.506 1060.05C715.375 1107.55 854.277 1009.12 950.262 992.334C1145.08 958.219 1351.56 1030.02 1545.63 987.242C1614.01 972.184 1671.82 940.321 1721.17 901.582C1874.61 780.871 1895.74 793.023 1960.95 711.724C1996.79 667.035 2043.12 622.353 2102.22 597.24C2124.94 587.546 2150.81 582.545 2172.42 571.316C2197.1 558.561 2213.22 534.325 2226.98 510.677C2229.98 505.492 2242.05 490.729 2240.4 484.769L1540.31 -497.018C1540.31 -497.018 -536.451 547.262 -540.835 541.246C-545.174 535.292 -494.828 904.81 -494.828 904.81C-393.153 930.607 -254.459 1013.69 -9.05104 981.753Z" fill="#FF99D6"/>
</g>
<g filter="url(#filter5_f_2643_3068)">
<path d="M-9.05105 981.753C87.0045 969.271 194.336 942.842 299.802 971.296C386.276 994.573 461.998 1033.66 552.506 1060.06C715.375 1107.55 851.473 1005.96 947.458 989.176C1142.28 955.061 1273.97 942.628 1468.04 899.849C1536.42 884.791 1594.23 852.928 1643.58 814.189C1797.02 693.478 1895.74 793.024 1960.95 711.725C1996.79 667.036 2043.12 622.354 2102.22 597.241C2124.95 587.546 2150.81 582.546 2172.42 571.317C2197.1 558.562 2213.22 534.326 2226.98 510.678C2229.98 505.493 2242.05 490.73 2240.4 484.77L1584.02 -468.212C1584.02 -468.212 -492.736 576.068 -497.12 570.052C-501.459 564.098 -494.828 904.811 -494.828 904.811C-393.153 930.608 -254.46 1013.69 -9.05105 981.753Z" fill="#FF99D6"/>
</g>
<g filter="url(#filter6_f_2643_3068)">
<path d="M-9.0562 981.756C86.9993 969.274 194.33 942.844 299.797 971.299C386.271 994.576 461.993 1033.66 552.501 1060.06C715.37 1107.55 851.467 1005.96 947.453 989.179C1142.27 955.064 1273.97 942.631 1468.04 899.852C1536.42 884.793 1594.22 852.931 1643.58 814.191C1797.01 693.48 1895.73 793.026 1960.95 711.727C1996.78 667.039 2043.11 622.357 2102.21 597.243C2124.94 587.549 2150.81 582.548 2172.42 571.319C2197.09 558.564 2213.21 534.329 2226.98 510.68C2229.98 505.496 2242.05 490.733 2240.4 484.773L1458.45 -461.244C1458.45 -461.244 -618.307 583.036 -622.691 577.02C-627.03 571.066 -494.833 904.814 -494.833 904.814C-393.158 930.611 -254.465 1013.69 -9.0562 981.756Z" fill="#FF99D6"/>
</g>
</g>
<mask id="mask2_2643_3068" style="mask-type:alpha" maskUnits="userSpaceOnUse" x="214" y="175" width="2515" height="937">
<path d="M1709.19 610.941C1448.46 747.36 411.614 381.01 214.72 175.751L467.26 1111.65L2728.34 1023.29C2736.51 673.796 2498.54 238.36 2474.99 266.391C2445.57 301.431 1969.91 474.522 1709.19 610.941Z" fill="#C4C4C4"/>
</mask>
<g mask="url(#mask2_2643_3068)">
<mask id="mask3_2643_3068" style="mask-type:alpha" maskUnits="userSpaceOnUse" x="-287" y="-111" width="3090" height="1095">
<path d="M2802.39 -110.988L581.867 -89.4766L-286.294 348.228L1417.17 983.173L2479.35 702.999L2802.39 -110.988Z" fill="black"/>
</mask>
<g mask="url(#mask3_2643_3068)">
<mask id="mask4_2643_3068" style="mask-type:alpha" maskUnits="userSpaceOnUse" x="22" y="-277" width="3154" height="1553">
<path d="M154.34 1275.48L22.5277 -205.577L2841.17 -276.567C2958.77 30.325 3190.2 645.704 3175.15 652.085C3160.11 658.466 1155.01 1070.34 154.34 1275.48Z" fill="url(#paint1_linear_2643_3068)"/>
</mask>
<g mask="url(#mask4_2643_3068)">
<mask id="mask5_2643_3068" style="mask-type:alpha" maskUnits="userSpaceOnUse" x="105" y="-139" width="3046" height="1194">
<path d="M105.828 81.7664C190.573 499.781 298.834 1033.02 299.997 1054.07L3150.04 834.02L2955.87 -138.284L105.828 81.7664Z" fill="url(#paint2_linear_2643_3068)"/>
</mask>
<g mask="url(#mask5_2643_3068)">
<path d="M1525.59 795.515C1749.38 778.236 1907.63 613.967 1880.82 479.719C1854.01 345.472 1728.24 176.291 1488.14 194.83C1369.15 204.016 1206.76 125.43 1078.75 203.196C948.442 282.36 1017.73 462.93 1031.25 530.651C1058.06 664.899 1301.81 812.793 1525.59 795.515Z" fill="#FF99D6"/>
<g filter="url(#filter7_f_2643_3068)">
<path d="M1524.47 793.285C1781.61 773.431 1932.45 593.005 1902.69 443.989C1872.93 294.973 1736.86 106.906 1479.72 126.76C1352.29 136.599 1176.9 45.0558 1040.33 130.952C901.3 218.391 976.93 418.925 991.942 494.097C1021.7 643.113 1267.32 813.139 1524.47 793.285Z" fill="#FF99D6"/>
</g>
<g filter="url(#filter8_f_2643_3068)">
<path d="M1528.24 770.129C1654.15 820.193 2019.3 572.026 1991.05 430.593C1962.81 289.161 1810.83 112.429 1506.25 135.945C1355.32 147.598 1149.81 50.3503 984.552 134.626C816.327 220.416 898.745 422.07 912.992 493.416C941.236 634.849 1371.32 854.511 1528.24 770.129Z" fill="#FF99D6"/>
</g>
<g filter="url(#filter9_f_2643_3068)">
<path d="M1546.16 711.813C1871.66 653.045 2111.79 456.653 2080.23 298.602C2048.66 140.551 1845.97 -17.2954 1523.36 7.61327C1363.5 19.9567 1123.58 -136.434 949.361 -43.0629C772.01 51.9856 859.023 264.153 874.945 343.882C906.507 501.933 1169.09 779.892 1546.16 711.813Z" fill="#FF99D6"/>
</g>
<g filter="url(#filter10_f_2643_3068)">
<path d="M1723.1 694.729C1934.67 609.371 2398.38 368.126 2365.87 205.332C2333.36 42.5388 1441.67 4.52188 1094.31 31.342C922.169 44.6327 700.755 -1.35802 512.431 95.5C320.723 194.098 595.097 379.345 812.363 542.245C1100.88 758.565 1521.22 840.196 1723.1 694.729Z" fill="#FF99D6"/>
</g>
<g filter="url(#filter11_f_2643_3068)">
<path d="M1489.54 668.604C1848.51 640.888 2470.47 245.668 2437.21 79.1624C2403.96 -87.3429 1713 -106.208 1354.03 -78.4915C1176.14 -64.7568 672.913 -161.036 478.126 -61.8019C279.839 39.2149 425.076 157.273 441.849 241.267C475.1 407.772 1130.57 696.32 1489.54 668.604Z" fill="#FF99D6"/>
</g>
<g filter="url(#filter12_f_2643_3068)">
<path d="M1489.54 668.604C1848.51 640.888 2470.47 245.668 2437.21 79.1624C2403.96 -87.3429 1713 -106.208 1354.03 -78.4915C1176.14 -64.7568 672.913 -161.036 478.126 -61.8019C279.839 39.2149 425.076 157.273 441.849 241.267C475.1 407.772 1130.57 696.32 1489.54 668.604Z" fill="#FF99D6"/>
</g>
<g filter="url(#filter13_f_2643_3068)">
<path d="M1489.54 668.604C1848.51 640.888 2470.47 245.668 2437.21 79.1624C2403.96 -87.3429 1713 -106.208 1354.03 -78.4915C1176.14 -64.7568 672.913 -161.036 478.126 -61.8019C279.839 39.2149 425.076 157.273 441.849 241.267C475.1 407.772 1130.57 696.32 1489.54 668.604Z" fill="#FF99D6"/>
</g>
<g filter="url(#filter14_f_2643_3068)">
<path d="M1489.54 668.604C1848.51 640.888 2470.47 245.668 2437.21 79.1624C2403.96 -87.3429 1713 -106.208 1354.03 -78.4915C1176.14 -64.7568 672.913 -161.036 478.126 -61.8019C279.839 39.2149 425.076 157.273 441.849 241.267C475.1 407.772 1130.57 696.32 1489.54 668.604Z" fill="#FF99D6"/>
</g>
<g filter="url(#filter15_f_2643_3068)">
<path d="M1530.86 792.79C1844.96 768.539 2071.55 528.243 2038.3 361.738C2005.05 195.233 1804.98 27.9031 1490.88 52.1547C1335.23 64.1725 1082.91 41.7172 914.537 138.911C743.143 237.852 850.61 414.882 867.384 498.876C900.635 665.381 1216.76 817.042 1530.86 792.79Z" fill="#FF99D6"/>
</g>
</g>
</g>
</g>
</g>
<g filter="url(#filter16_f_2643_3068)">
<ellipse cx="916.254" cy="213.038" rx="456.055" ry="418.266" transform="rotate(-175.641 916.254 213.038)" fill="#F93E76"/>
</g>
<g filter="url(#filter17_f_2643_3068)">
<path d="M-265.746 840.25C-357.042 868.471 -532.279 891.545 -791.38 810.331L-833.02 -155.988L1921.38 -129.876L1981.34 291.718C2053.24 272.906 2020.86 283.28 1981.79 294.879L1981.34 291.718C1946.5 300.834 1887.16 316.805 1792.22 342.813C1428.66 442.406 1335.86 621.95 1248.8 712.902C1149.78 816.364 1034.92 607.683 874.401 614.693C786.199 618.545 748.478 657.166 644.479 747.627C540.479 838.088 464.115 955.982 213.233 861.191C-37.6495 766.401 -174.45 812.03 -265.746 840.25Z" fill="#A55EFF"/>
</g>
<g filter="url(#filter18_f_2643_3068)">
<path d="M-265.746 840.249C-357.041 868.47 -532.279 891.544 -791.38 810.331L-833.583 -148.608L1921.38 -129.877L1985.21 373.085C2043.2 355.865 2076.13 410.362 1783.88 457.768C1411.78 518.124 1289.81 654.393 1122.73 772.872C972.722 808.766 1035.86 629.194 875.34 636.204C787.139 640.056 748.478 657.166 644.479 747.626C540.48 838.087 464.115 955.981 213.233 861.191C-37.6493 766.4 -174.449 812.029 -265.746 840.249Z" fill="#A55EFF"/>
</g>
<g filter="url(#filter19_f_2643_3068)">
<path d="M-293.272 779.615C-386.281 801.541 -562.684 812.605 -815.641 713.903L-742.575 -244.649L1954.95 -39.0301L1984.31 467.114C2043.34 453.891 2072.48 510.508 1777.67 537.864C1402.32 572.692 1271.34 700.322 1096.57 807.126C944.458 832.701 1019.7 657.856 859.076 653.898C770.818 651.723 731.08 666.155 621.151 749.309C511.222 832.464 426.992 944.873 183.162 833.186C-60.6685 721.499 -200.263 757.689 -293.272 779.615Z" fill="#A55EFF"/>
</g>
<g filter="url(#filter20_f_2643_3068)">
<path d="M-265.746 840.25C-357.042 868.471 -532.278 891.545 -791.38 810.331L-774.313 -191.329L1903.8 -67.7163L1965.75 392.221C2023.74 375.001 2077.22 422.446 1776.17 440.155C1366.66 464.244 1337.35 555.315 1250.3 646.267C1151.27 749.729 1034.32 594.013 873.804 601.023C785.602 604.875 748.478 657.166 644.479 747.627C540.479 838.088 464.115 955.982 213.233 861.191C-37.6495 766.401 -174.45 812.03 -265.746 840.25Z" fill="#A55EFF"/>
</g>
<g filter="url(#filter21_f_2643_3068)">
<path d="M-265.747 840.25C-357.043 868.471 -532.281 891.545 -791.382 810.332L-717.776 -155.301L1921.38 -129.876L1977.09 347.6C2048.9 328.816 2016.52 339.187 1977.47 350.781L1977.09 347.6C1942.26 356.713 1882.9 372.688 1787.89 398.715C1424.33 498.308 1332.18 537.917 1245.13 628.869C1146.11 732.331 1035.86 629.196 875.339 636.205C787.137 640.057 748.477 657.167 644.478 747.627C540.478 838.088 464.113 955.982 213.231 861.192C-37.651 766.401 -174.451 812.03 -265.747 840.25Z" fill="#A55EFF"/>
</g>
<path d="M223.989 1107.46C-26.8936 1012.67 -163.694 1058.3 -254.99 1086.52L-283.902 -162.046L2003.33 12.2989L1982.05 291.533C2053.03 272.973 2020.73 283.318 1981.79 294.879L1982.05 291.533C1947.3 300.618 1887.8 316.628 1792.22 342.812C1428.66 442.405 1336.8 643.461 1249.74 734.413C1150.72 837.875 1046.61 875.467 886.096 882.477C797.894 886.329 759.234 903.438 655.235 993.899C551.235 1084.36 474.871 1202.25 223.989 1107.46Z" fill="#A55EFF"/>
<g filter="url(#filter22_f_2643_3068)">
<path d="M2244.9 572.673C2077.91 594.204 1879.13 476.231 1252.46 659.206C866.983 820.923 766.638 812.262 373.476 813.967C226.843 814.603 47.4655 889.788 -73.2605 1004.44C-193.986 1119.1 -41.0826 355.228 -41.0826 355.228L2065.7 372.7L2244.9 572.673Z" fill="#D96CFF"/>
</g>
<mask id="mask6_2643_3068" style="mask-type:alpha" maskUnits="userSpaceOnUse" x="-324" y="41" width="2349" height="1102">
<path d="M223.995 1107.46C-26.8871 1012.67 -163.687 1058.3 -254.983 1086.52L-323.031 41.4754L1843.36 162.011L1979.11 292.304C2053.91 272.695 2021.26 283.163 1981.8 294.88L1979.11 292.304C1943.99 301.513 1885.17 317.354 1792.23 342.814C1428.66 442.407 1336.8 643.463 1249.75 734.414C1150.72 837.877 1046.62 875.469 886.102 882.479C797.901 886.33 759.241 903.44 655.241 993.901C551.242 1084.36 474.877 1202.26 223.995 1107.46Z" fill="url(#paint3_linear_2643_3068)"/>
</mask>
<g mask="url(#mask6_2643_3068)">
<g filter="url(#filter23_f_2643_3068)">
<path d="M173.899 1066.75C-358.75 902.811 -374.363 1252.24 -521.737 1479.08L-113.362 1521.16C335.778 1368.01 1240.37 1049.78 1265.6 1002.09C1297.15 942.48 1091.14 914.284 904.709 881.137C755.568 854.619 673.624 946.547 588.259 1030.79C502.894 1115.04 315.993 1137.96 173.899 1066.75Z" fill="#FFD4AC" fill-opacity="0.82"/>
</g>
</g>
<g filter="url(#filter24_f_2643_3068)">
<path d="M417.107 752.915C312.794 776.21 114.103 791.034 -174 702.09V-325H2930.55L2977.39 82.7786C3059.38 67.7139 3022.36 76.3267 2977.74 85.8363L2977.39 82.7786C2937.66 90.0792 2869.98 102.94 2761.67 123.955C2346.9 204.428 2233.44 393.839 2130.82 477.613C2014.09 572.91 1894.87 604.676 1713.57 604.676C1613.94 604.676 1569.52 619.5 1447.82 702.09C1326.12 784.681 1234.23 894.802 956.058 793.152C677.89 691.502 521.42 729.621 417.107 752.915Z" fill="white"/>
</g>
<g opacity="0.5" filter="url(#filter25_f_2643_3068)">
<path d="M1524.39 118.246C1871.49 -23.457 2186.13 -191.002 2216.59 -104.422C2247.06 -17.8414 1981.81 290.077 1634.71 431.78C1287.61 573.483 981.538 618.168 951.075 531.588C920.611 445.008 1177.29 259.948 1524.39 118.246Z" fill="white"/>
</g>
<g filter="url(#filter26_f_2643_3068)">
<path d="M2218.4 -75.671L2218.4 -623.233L-231.471 -623.233L-231.471 490.611L2218.4 -75.671Z" fill="white"/>
</g>
</g>
</g>
</g>
<defs>
<filter id="filter0_f_2643_3068" x="39.4114" y="630.896" width="2123.91" height="643.297" filterUnits="userSpaceOnUse" color-interpolation-filters="sRGB">
<feFlood flood-opacity="0" result="BackgroundImageFix"/>
<feBlend mode="normal" in="SourceGraphic" in2="BackgroundImageFix" result="shape"/>
<feGaussianBlur stdDeviation="28.8583" result="effect1_foregroundBlur_2643_3068"/>
</filter>
<filter id="filter1_f_2643_3068" x="-25.2083" y="559.861" width="2246.97" height="847.301" filterUnits="userSpaceOnUse" color-interpolation-filters="sRGB">
<feFlood flood-opacity="0" result="BackgroundImageFix"/>
<feBlend mode="normal" in="SourceGraphic" in2="BackgroundImageFix" result="shape"/>
<feGaussianBlur stdDeviation="64.3761" result="effect1_foregroundBlur_2643_3068"/>
</filter>
<filter id="filter2_f_2643_3068" x="-221.863" y="173.309" width="2697.14" height="1245.8" filterUnits="userSpaceOnUse" color-interpolation-filters="sRGB">
<feFlood flood-opacity="0" result="BackgroundImageFix"/>
<feBlend mode="normal" in="SourceGraphic" in2="BackgroundImageFix" result="shape"/>
<feGaussianBlur stdDeviation="157.611" result="effect1_foregroundBlur_2643_3068"/>
</filter>
<filter id="filter3_f_2643_3068" x="-600.115" y="-627.322" width="2945.96" height="1776.49" filterUnits="userSpaceOnUse" color-interpolation-filters="sRGB">
<feFlood flood-opacity="0" result="BackgroundImageFix"/>
<feBlend mode="normal" in="SourceGraphic" in2="BackgroundImageFix" result="shape"/>
<feGaussianBlur stdDeviation="52.6433" result="effect1_foregroundBlur_2643_3068"/>
</filter>
<filter id="filter4_f_2643_3068" x="-744.654" y="-700.572" width="3188.76" height="1977.01" filterUnits="userSpaceOnUse" color-interpolation-filters="sRGB">
<feFlood flood-opacity="0" result="BackgroundImageFix"/>
<feBlend mode="normal" in="SourceGraphic" in2="BackgroundImageFix" result="shape"/>
<feGaussianBlur stdDeviation="101.777" result="effect1_foregroundBlur_2643_3068"/>
</filter>
<filter id="filter5_f_2643_3068" x="-702.147" y="-671.766" width="3146.26" height="1947.91" filterUnits="userSpaceOnUse" color-interpolation-filters="sRGB">
<feFlood flood-opacity="0" result="BackgroundImageFix"/>
<feBlend mode="normal" in="SourceGraphic" in2="BackgroundImageFix" result="shape"/>
<feGaussianBlur stdDeviation="101.777" result="effect1_foregroundBlur_2643_3068"/>
</filter>
<filter id="filter6_f_2643_3068" x="-854.425" y="-692.875" width="3326.61" height="1997.1" filterUnits="userSpaceOnUse" color-interpolation-filters="sRGB">
<feFlood flood-opacity="0" result="BackgroundImageFix"/>
<feBlend mode="normal" in="SourceGraphic" in2="BackgroundImageFix" result="shape"/>
<feGaussianBlur stdDeviation="115.815" result="effect1_foregroundBlur_2643_3068"/>
</filter>
<filter id="filter7_f_2643_3068" x="950.268" y="86.1849" width="963.818" height="716.361" filterUnits="userSpaceOnUse" color-interpolation-filters="sRGB">
<feFlood flood-opacity="0" result="BackgroundImageFix"/>
<feBlend mode="normal" in="SourceGraphic" in2="BackgroundImageFix" result="shape"/>
<feGaussianBlur stdDeviation="3.83646" result="effect1_foregroundBlur_2643_3068"/>
</filter>
<filter id="filter8_f_2643_3068" x="853.43" y="73.0746" width="1166.03" height="742.658" filterUnits="userSpaceOnUse" color-interpolation-filters="sRGB">
<feFlood flood-opacity="0" result="BackgroundImageFix"/>
<feBlend mode="normal" in="SourceGraphic" in2="BackgroundImageFix" result="shape"/>
<feGaussianBlur stdDeviation="13.4276" result="effect1_foregroundBlur_2643_3068"/>
</filter>
<filter id="filter9_f_2643_3068" x="801.235" y="-111.31" width="1320.14" height="872.028" filterUnits="userSpaceOnUse" color-interpolation-filters="sRGB">
<feFlood flood-opacity="0" result="BackgroundImageFix"/>
<feBlend mode="normal" in="SourceGraphic" in2="BackgroundImageFix" result="shape"/>
<feGaussianBlur stdDeviation="19.1823" result="effect1_foregroundBlur_2643_3068"/>
</filter>
<filter id="filter10_f_2643_3068" x="344.116" y="-80.0969" width="2126.97" height="951.672" filterUnits="userSpaceOnUse" color-interpolation-filters="sRGB">
<feFlood flood-opacity="0" result="BackgroundImageFix"/>
<feBlend mode="normal" in="SourceGraphic" in2="BackgroundImageFix" result="shape"/>
<feGaussianBlur stdDeviation="51.7922" result="effect1_foregroundBlur_2643_3068"/>
</filter>
<filter id="filter11_f_2643_3068" x="84.1317" y="-397.975" width="2645.09" height="1359.17" filterUnits="userSpaceOnUse" color-interpolation-filters="sRGB">
<feFlood flood-opacity="0" result="BackgroundImageFix"/>
<feBlend mode="normal" in="SourceGraphic" in2="BackgroundImageFix" result="shape"/>
<feGaussianBlur stdDeviation="145.364" result="effect1_foregroundBlur_2643_3068"/>
</filter>
<filter id="filter12_f_2643_3068" x="84.1317" y="-397.975" width="2645.09" height="1359.17" filterUnits="userSpaceOnUse" color-interpolation-filters="sRGB">
<feFlood flood-opacity="0" result="BackgroundImageFix"/>
<feBlend mode="normal" in="SourceGraphic" in2="BackgroundImageFix" result="shape"/>
<feGaussianBlur stdDeviation="145.364" result="effect1_foregroundBlur_2643_3068"/>
</filter>
<filter id="filter13_f_2643_3068" x="84.1317" y="-397.975" width="2645.09" height="1359.17" filterUnits="userSpaceOnUse" color-interpolation-filters="sRGB">
<feFlood flood-opacity="0" result="BackgroundImageFix"/>
<feBlend mode="normal" in="SourceGraphic" in2="BackgroundImageFix" result="shape"/>
<feGaussianBlur stdDeviation="145.364" result="effect1_foregroundBlur_2643_3068"/>
</filter>
<filter id="filter14_f_2643_3068" x="84.1317" y="-397.975" width="2645.09" height="1359.17" filterUnits="userSpaceOnUse" color-interpolation-filters="sRGB">
<feFlood flood-opacity="0" result="BackgroundImageFix"/>
<feBlend mode="normal" in="SourceGraphic" in2="BackgroundImageFix" result="shape"/>
<feGaussianBlur stdDeviation="145.364" result="effect1_foregroundBlur_2643_3068"/>
</filter>
<filter id="filter15_f_2643_3068" x="699.811" y="-69.1292" width="1460.65" height="983.413" filterUnits="userSpaceOnUse" color-interpolation-filters="sRGB">
<feFlood flood-opacity="0" result="BackgroundImageFix"/>
<feBlend mode="normal" in="SourceGraphic" in2="BackgroundImageFix" result="shape"/>
<feGaussianBlur stdDeviation="59.4651" result="effect1_foregroundBlur_2643_3068"/>
</filter>
<filter id="filter16_f_2643_3068" x="90.4378" y="-575.431" width="1651.63" height="1576.94" filterUnits="userSpaceOnUse" color-interpolation-filters="sRGB">
<feFlood flood-opacity="0" result="BackgroundImageFix"/>
<feBlend mode="normal" in="SourceGraphic" in2="BackgroundImageFix" result="shape"/>
<feGaussianBlur stdDeviation="184.976" result="effect1_foregroundBlur_2643_3068"/>
</filter>
<filter id="filter17_f_2643_3068" x="-914.314" y="-237.282" width="3019.62" height="1214.79" filterUnits="userSpaceOnUse" color-interpolation-filters="sRGB">
<feFlood flood-opacity="0" result="BackgroundImageFix"/>
<feBlend mode="normal" in="SourceGraphic" in2="BackgroundImageFix" result="shape"/>
<feGaussianBlur stdDeviation="40.6469" result="effect1_foregroundBlur_2643_3068"/>
</filter>
<filter id="filter18_f_2643_3068" x="-961.065" y="-276.089" width="3112.65" height="1299.79" filterUnits="userSpaceOnUse" color-interpolation-filters="sRGB">
<feFlood flood-opacity="0" result="BackgroundImageFix"/>
<feBlend mode="normal" in="SourceGraphic" in2="BackgroundImageFix" result="shape"/>
<feGaussianBlur stdDeviation="63.7408" result="effect1_foregroundBlur_2643_3068"/>
</filter>
<filter id="filter19_f_2643_3068" x="-1053.56" y="-482.564" width="3314.2" height="1600.52" filterUnits="userSpaceOnUse" color-interpolation-filters="sRGB">
<feFlood flood-opacity="0" result="BackgroundImageFix"/>
<feBlend mode="normal" in="SourceGraphic" in2="BackgroundImageFix" result="shape"/>
<feGaussianBlur stdDeviation="118.957" result="effect1_foregroundBlur_2643_3068"/>
</filter>
<filter id="filter20_f_2643_3068" x="-1161.72" y="-561.668" width="3542.84" height="1828.22" filterUnits="userSpaceOnUse" color-interpolation-filters="sRGB">
<feFlood flood-opacity="0" result="BackgroundImageFix"/>
<feBlend mode="normal" in="SourceGraphic" in2="BackgroundImageFix" result="shape"/>
<feGaussianBlur stdDeviation="185.169" result="effect1_foregroundBlur_2643_3068"/>
</filter>
<filter id="filter21_f_2643_3068" x="-944.937" y="-308.856" width="3118.17" height="1358.63" filterUnits="userSpaceOnUse" color-interpolation-filters="sRGB">
<feFlood flood-opacity="0" result="BackgroundImageFix"/>
<feBlend mode="normal" in="SourceGraphic" in2="BackgroundImageFix" result="shape"/>
<feGaussianBlur stdDeviation="76.7775" result="effect1_foregroundBlur_2643_3068"/>
</filter>
<filter id="filter22_f_2643_3068" x="-412.328" y="62.5791" width="2949.87" height="1246.24" filterUnits="userSpaceOnUse" color-interpolation-filters="sRGB">
<feFlood flood-opacity="0" result="BackgroundImageFix"/>
<feBlend mode="normal" in="SourceGraphic" in2="BackgroundImageFix" result="shape"/>
<feGaussianBlur stdDeviation="146.324" result="effect1_foregroundBlur_2643_3068"/>
</filter>
<filter id="filter23_f_2643_3068" x="-615.606" y="782.621" width="1978.3" height="832.407" filterUnits="userSpaceOnUse" color-interpolation-filters="sRGB">
<feFlood flood-opacity="0" result="BackgroundImageFix"/>
<feBlend mode="normal" in="SourceGraphic" in2="BackgroundImageFix" result="shape"/>
<feGaussianBlur stdDeviation="46.9342" result="effect1_foregroundBlur_2643_3068"/>
</filter>
<filter id="filter24_f_2643_3068" x="-565.086" y="-716.086" width="3982.17" height="1941.17" filterUnits="userSpaceOnUse" color-interpolation-filters="sRGB">
<feFlood flood-opacity="0" result="BackgroundImageFix"/>
<feBlend mode="normal" in="SourceGraphic" in2="BackgroundImageFix" result="shape"/>
<feGaussianBlur stdDeviation="195.543" result="effect1_foregroundBlur_2643_3068"/>
</filter>
<filter id="filter25_f_2643_3068" x="727.753" y="-349.038" width="1712.09" height="1145.64" filterUnits="userSpaceOnUse" color-interpolation-filters="sRGB">
<feFlood flood-opacity="0" result="BackgroundImageFix"/>
<feBlend mode="normal" in="SourceGraphic" in2="BackgroundImageFix" result="shape"/>
<feGaussianBlur stdDeviation="110.433" result="effect1_foregroundBlur_2643_3068"/>
</filter>
<filter id="filter26_f_2643_3068" x="-622.557" y="-1014.32" width="3232.05" height="1896.02" filterUnits="userSpaceOnUse" color-interpolation-filters="sRGB">
<feFlood flood-opacity="0" result="BackgroundImageFix"/>
<feBlend mode="normal" in="SourceGraphic" in2="BackgroundImageFix" result="shape"/>
<feGaussianBlur stdDeviation="195.543" result="effect1_foregroundBlur_2643_3068"/>
</filter>
<linearGradient id="paint0_linear_2643_3068" x1="-682.413" y1="1479.29" x2="1539.64" y2="1431.79" gradientUnits="userSpaceOnUse">
<stop offset="0.12882" stop-color="#C4C4C4" stop-opacity="0"/>
<stop offset="0.496484" stop-color="#C4C4C4"/>
<stop offset="0.606591" stop-color="#C4C4C4"/>
<stop offset="1" stop-color="#C4C4C4" stop-opacity="0"/>
</linearGradient>
<linearGradient id="paint1_linear_2643_3068" x1="171.246" y1="345.091" x2="2539.46" y2="-391.851" gradientUnits="userSpaceOnUse">
<stop stop-color="#C4C4C4" stop-opacity="0"/>
<stop offset="0.430547" stop-color="#C4C4C4"/>
<stop offset="0.498519" stop-color="#C4C4C4"/>
<stop offset="1" stop-color="#C4C4C4" stop-opacity="0"/>
</linearGradient>
<linearGradient id="paint2_linear_2643_3068" x1="1518.84" y1="772.883" x2="1493.62" y2="-36.1799" gradientUnits="userSpaceOnUse">
<stop stop-color="#C4C4C4"/>
<stop offset="1" stop-color="#C4C4C4" stop-opacity="0"/>
</linearGradient>
<linearGradient id="paint3_linear_2643_3068" x1="-739.081" y1="797.036" x2="1470.45" y2="491.255" gradientUnits="userSpaceOnUse">
<stop stop-color="#CD2F8D"/>
<stop offset="0.536458" stop-color="#F72D55"/>
<stop offset="1" stop-color="#FF974D"/>
</linearGradient>
<clipPath id="clip0_2643_3068">
<rect width="1920" height="1126" fill="white"/>
</clipPath>
<clipPath id="clip1_2643_3068">
<rect width="1988" height="1248" fill="white" transform="translate(1937 1187) rotate(180)"/>
</clipPath>
</defs>
</svg>
