<svg width="474" height="552" viewBox="0 0 474 552" fill="none" xmlns="http://www.w3.org/2000/svg">
<g clip-path="url(#clip0_2803_1581)">
<g clip-path="url(#clip1_2803_1581)">
<rect width="1440" height="900" transform="translate(766 -696) rotate(90)" fill="white"/>
<mask id="mask0_2803_1581" style="mask-type:alpha" maskUnits="userSpaceOnUse" x="-34" y="-66" width="721" height="721">
<rect x="686" y="-66" width="720" height="720" rx="40" transform="rotate(90 686 -66)" fill="#C4C4C4"/>
</mask>
<g mask="url(#mask0_2803_1581)">
<rect x="686.001" y="-65.9956" width="720" height="720" transform="rotate(90 686.001 -65.9956)" fill="#7451FF"/>
<g filter="url(#filter0_f_2803_1581)">
<circle cx="594.561" cy="72.9634" r="298.8" transform="rotate(90 594.561 72.9634)" fill="#8F7CFF"/>
</g>
<g filter="url(#filter1_f_2803_1581)">
<ellipse cx="609.68" cy="560.403" rx="505.44" ry="391.68" transform="rotate(90 609.68 560.403)" fill="#FFC4D9"/>
</g>
<g opacity="0.6" filter="url(#filter2_f_2803_1581)">
<ellipse cx="457.217" cy="365.598" rx="259.951" ry="88.2786" transform="rotate(48.1302 457.217 365.598)" fill="#D660FF"/>
</g>
<mask id="mask1_2803_1581" style="mask-type:alpha" maskUnits="userSpaceOnUse" x="-359" y="-25" width="1125" height="918">
<path d="M616.138 225.993C617.659 323.69 750.748 534.123 765.201 646.817L505.002 892.134C326.85 590.066 616.138 849.6 226.618 426.211C121.96 312.453 -138.812 375.201 -358.332 474.528L-169.241 160.354C-26.5896 66.8595 196.921 -17.6083 237.956 -23.9548C289.25 -31.888 614.617 128.296 616.138 225.993Z" fill="#C4C4C4"/>
</mask>
<g mask="url(#mask1_2803_1581)">
<g opacity="0.4" filter="url(#filter3_f_2803_1581)">
<ellipse cx="15.104" cy="221.215" rx="523.82" ry="293.963" transform="rotate(38.9498 15.104 221.215)" fill="url(#paint0_linear_2803_1581)"/>
</g>
<mask id="mask2_2803_1581" style="mask-type:alpha" maskUnits="userSpaceOnUse" x="-855" y="-575" width="1792" height="1603">
<path d="M936.241 353.98L576.369 1027.68L-854.967 207.96L-464.814 -574.654L936.241 353.98Z" fill="url(#paint1_linear_2803_1581)"/>
</mask>
<g mask="url(#mask2_2803_1581)">
<mask id="mask3_2803_1581" style="mask-type:alpha" maskUnits="userSpaceOnUse" x="-710" y="-441" width="1493" height="1271">
<path d="M-709.227 80.2581C-563.168 -143.517 -376.783 -428.94 -370.746 -440.888L782.161 307.919L443.68 829.064L-709.227 80.2581Z" fill="url(#paint2_linear_2803_1581)"/>
</mask>
<g mask="url(#mask3_2803_1581)">
<path d="M106.667 -0.75074C236.7 83.7049 293.899 234.973 247.165 306.928C200.43 378.884 86.4621 439.124 -53.052 348.51C-122.188 303.607 -237.373 297.186 -296.239 208.005C-356.164 117.222 -273.411 31.4322 -249.836 -4.86564C-203.101 -76.8208 -23.3656 -85.2063 106.667 -0.75074Z" fill="url(#paint3_linear_2803_1581)"/>
<g filter="url(#filter4_f_2803_1581)">
<path d="M101.107 4.39623C240.564 94.9728 295.562 228.786 255.391 290.636C215.219 352.486 109.885 399.48 -29.572 308.903C-98.6798 264.018 -210.488 252.473 -272.589 168.346C-335.806 82.707 -262.012 10.6944 -241.748 -20.5061C-201.576 -82.3565 -38.35 -86.1804 101.107 4.39623Z" fill="url(#paint4_linear_2803_1581)"/>
</g>
<g filter="url(#filter5_f_2803_1581)">
<path d="M105.332 7.13923C261.637 108.658 318.257 266.368 268.73 342.622C219.204 418.875 95.2368 480.643 -61.0675 379.124C-138.524 328.816 -271.579 327.794 -338.941 230.052C-407.513 130.554 -314.475 33.938 -289.491 -4.5284C-239.965 -80.7823 -50.9721 -94.3795 105.332 7.13923Z" fill="url(#paint5_linear_2803_1581)"/>
</g>
<g filter="url(#filter6_f_2803_1581)">
<path d="M117.504 27.8884C298.335 171.932 592.986 853.779 335.985 463.9C78.984 74.0208 75.6103 351.283 -111.846 229.532C-204.739 169.198 -345.529 423.63 -427.03 307.506C-509.994 189.296 -405.392 84.169 -376.152 39.1492C-318.187 -50.0961 -91.9784 -138.978 117.504 27.8884Z" fill="#FFC4D9"/>
</g>
<g filter="url(#filter7_f_2803_1581)">
<path d="M159.067 106.235C360.908 237.33 617.129 838.483 403.318 552.427C189.507 266.372 179.917 665.513 -21.9243 534.419C-121.946 469.455 -265.02 423.877 -355.633 303.243C-447.874 180.442 -343.074 79.3014 -314.485 35.2852C-257.813 -51.9705 -42.7736 -24.8595 159.067 106.235Z" fill="#FFC4D9"/>
</g>
<g filter="url(#filter8_f_2803_1581)">
<path d="M215.003 192.088C423.587 327.562 526.771 561.796 468.806 651.041C98.2197 -17.3728 239.193 765.979 30.6085 630.505C-72.7551 563.371 -220.379 515.917 -314.319 391.714C-409.946 265.279 -302.464 162.022 -273.224 117.002C-215.26 27.7571 6.41857 56.6135 215.003 192.088Z" fill="#FFC4D9"/>
</g>
<g filter="url(#filter9_f_2803_1581)">
<path d="M67.3342 2.26839C249.845 120.808 447.492 510.016 348.165 457.093C248.838 404.169 59.4704 402.517 -123.041 283.977C-213.484 225.235 -341.559 328.629 -420.148 214.396C-500.149 98.1104 -396.221 -7.4546 -366.981 -52.4745C-309.016 -141.72 -115.177 -116.271 67.3342 2.26839Z" fill="url(#paint6_linear_2803_1581)"/>
</g>
</g>
</g>
<mask id="mask4_2803_1581" style="mask-type:alpha" maskUnits="userSpaceOnUse" x="240" y="-74" width="1142" height="948">
<path d="M254.14 -73.0061L1117.53 78.5945L1381.27 476.212L606.9 873.346L240.31 588.121L254.14 -73.0061Z" fill="black"/>
</mask>
<g mask="url(#mask4_2803_1581)">
<mask id="mask5_2803_1581" style="mask-type:alpha" maskUnits="userSpaceOnUse" x="-96" y="-296" width="1380" height="1387">
<path d="M977.186 1090.58L1283.34 -68.7053L194.895 -295.572C96.2028 -60.8274 -99.9881 410.147 -95.2106 416.088C-90.433 422.029 621.711 868.228 977.186 1090.58Z" fill="url(#paint7_linear_2803_1581)"/>
</mask>
<g mask="url(#mask5_2803_1581)">
<mask id="mask6_2803_1581" style="mask-type:alpha" maskUnits="userSpaceOnUse" x="-117" y="-194" width="1319" height="1102">
<path d="M1201.4 152.708C1096.43 477.025 962.456 890.727 958.382 907.25L-116.688 560.999L126.329 -193.542L1201.4 152.708Z" fill="url(#paint8_linear_2803_1581)"/>
</mask>
<g mask="url(#mask6_2803_1581)">
<path d="M524.265 629.154C439.85 601.966 406.303 462.902 439.857 358.722C473.411 254.541 551.615 128.829 642.185 157.999C687.066 172.454 763.991 120.364 800.605 189.417C837.877 259.711 779.771 397.825 762.845 450.379C729.291 554.559 608.679 656.341 524.265 629.154Z" fill="#D660FF"/>
<g filter="url(#filter10_f_2803_1581)">
<path d="M525.082 627.468C428.084 596.227 400.209 444.88 437.454 329.238C474.7 213.596 560.174 73.624 657.171 104.864C705.239 120.346 789.467 58.8316 828.028 134.812C867.281 212.157 803.264 365.62 784.476 423.956C747.231 539.598 622.08 658.708 525.082 627.468Z" fill="#D660FF"/>
</g>
<g filter="url(#filter11_f_2803_1581)">
<path d="M527.589 608.986C469.817 640.809 369.904 423.076 405.254 313.32C440.604 203.563 530.341 73.4885 645.232 110.492C702.165 128.829 799.136 64.6445 849.175 141.087C900.113 218.902 833.254 372.837 815.421 428.204C780.072 537.96 574.355 685.006 527.589 608.986Z" fill="#D660FF"/>
</g>
<g filter="url(#filter12_f_2803_1581)">
<path d="M530.62 561.939C413.621 495.884 353.627 326.539 393.13 203.886C432.633 81.2327 538.924 -30.8827 660.616 8.31121C720.921 27.7337 841.497 -80.9768 893.473 3.1773C946.381 88.8432 875.92 250.785 855.992 312.658C816.489 435.311 666.156 638.46 530.62 561.939Z" fill="#D660FF"/>
</g>
<g filter="url(#filter13_f_2803_1581)">
<path d="M464.47 537.747C396.531 457.643 256.941 239.389 297.63 113.056C338.318 -13.2775 693.05 10.8295 824.081 53.031C889.013 73.944 983.382 51.1227 1040.26 138.88C1098.17 228.214 959.175 357.578 846.322 472.792C696.463 625.788 518.287 664.637 464.47 537.747Z" fill="#D660FF"/>
</g>
<g filter="url(#filter14_f_2803_1581)">
<path d="M560.163 531.318C424.754 487.707 249.85 138.503 291.466 9.28878C333.082 -119.925 606.141 -92.8947 741.549 -49.2833C808.651 -27.6717 1021.71 -73.0391 1080.71 16.9829C1140.77 108.622 1063.75 192.862 1042.76 258.044C1001.14 387.258 695.571 574.93 560.163 531.318Z" fill="#D660FF"/>
</g>
<g filter="url(#filter15_f_2803_1581)">
<path d="M560.163 531.318C424.754 487.707 249.85 138.503 291.466 9.28878C333.082 -119.925 606.141 -92.8947 741.549 -49.2833C808.651 -27.6717 1021.71 -73.0391 1080.71 16.9829C1140.77 108.622 1063.75 192.862 1042.76 258.044C1001.14 387.258 695.571 574.93 560.163 531.318Z" fill="#D660FF"/>
</g>
<g filter="url(#filter16_f_2803_1581)">
<path d="M560.163 531.318C424.754 487.707 249.85 138.503 291.466 9.28878C333.082 -119.925 606.141 -92.8947 741.549 -49.2833C808.651 -27.6717 1021.71 -73.0391 1080.71 16.9829C1140.77 108.622 1063.75 192.862 1042.76 258.044C1001.14 387.258 695.571 574.93 560.163 531.318Z" fill="#D660FF"/>
</g>
<g filter="url(#filter17_f_2803_1581)">
<path d="M560.163 531.318C424.754 487.707 234.201 152.413 275.817 23.1989C317.434 -106.015 606.141 -92.8947 741.549 -49.2833C808.651 -27.6717 1021.71 -73.0392 1080.71 16.9829C1140.77 108.622 1063.75 192.862 1042.76 258.044C1001.14 387.258 695.571 574.93 560.163 531.318Z" fill="#D660FF"/>
</g>
<g filter="url(#filter18_f_2803_1581)">
<path d="M507.926 584.538C389.444 546.378 342.284 343.251 383.9 214.037C425.517 84.8236 532.414 -34.9246 650.897 3.23537C709.611 22.1455 812 19.7475 861.033 106.56C910.947 194.932 838.54 327.941 817.547 393.123C775.931 522.337 626.409 622.698 507.926 584.538Z" fill="#D660FF"/>
</g>
</g>
</g>
</g>
</g>
<g filter="url(#filter19_f_2803_1581)">
<circle cx="110.721" cy="571.202" r="298.8" transform="rotate(90 110.721 571.202)" fill="#8F7CFF"/>
</g>
</g>
<rect y="-5.22021" width="1684" height="1062.15" fill="white" fill-opacity="0.1"/>
</g>
</g>
<defs>
<filter id="filter0_f_2803_1581" x="8.56079" y="-513.037" width="1172" height="1172" filterUnits="userSpaceOnUse" color-interpolation-filters="sRGB">
<feFlood flood-opacity="0" result="BackgroundImageFix"/>
<feBlend mode="normal" in="SourceGraphic" in2="BackgroundImageFix" result="shape"/>
<feGaussianBlur stdDeviation="143.6" result="effect1_foregroundBlur_2803_1581"/>
</filter>
<filter id="filter1_f_2803_1581" x="-141" y="-304.037" width="1501.36" height="1728.88" filterUnits="userSpaceOnUse" color-interpolation-filters="sRGB">
<feFlood flood-opacity="0" result="BackgroundImageFix"/>
<feBlend mode="normal" in="SourceGraphic" in2="BackgroundImageFix" result="shape"/>
<feGaussianBlur stdDeviation="179.5" result="effect1_foregroundBlur_2803_1581"/>
</filter>
<filter id="filter2_f_2803_1581" x="180.971" y="72.5412" width="552.493" height="586.113" filterUnits="userSpaceOnUse" color-interpolation-filters="sRGB">
<feFlood flood-opacity="0" result="BackgroundImageFix"/>
<feBlend mode="normal" in="SourceGraphic" in2="BackgroundImageFix" result="shape"/>
<feGaussianBlur stdDeviation="45.3292" result="effect1_foregroundBlur_2803_1581"/>
</filter>
<filter id="filter3_f_2803_1581" x="-644.247" y="-391.606" width="1318.7" height="1225.64" filterUnits="userSpaceOnUse" color-interpolation-filters="sRGB">
<feFlood flood-opacity="0" result="BackgroundImageFix"/>
<feBlend mode="normal" in="SourceGraphic" in2="BackgroundImageFix" result="shape"/>
<feGaussianBlur stdDeviation="105.956" result="effect1_foregroundBlur_2803_1581"/>
</filter>
<filter id="filter4_f_2803_1581" x="-304.69" y="-72.5121" width="579.923" height="438.95" filterUnits="userSpaceOnUse" color-interpolation-filters="sRGB">
<feFlood flood-opacity="0" result="BackgroundImageFix"/>
<feBlend mode="normal" in="SourceGraphic" in2="BackgroundImageFix" result="shape"/>
<feGaussianBlur stdDeviation="3.5112" result="effect1_foregroundBlur_2803_1581"/>
</filter>
<filter id="filter5_f_2803_1581" x="-388.267" y="-89.9397" width="698.99" height="546.811" filterUnits="userSpaceOnUse" color-interpolation-filters="sRGB">
<feFlood flood-opacity="0" result="BackgroundImageFix"/>
<feBlend mode="normal" in="SourceGraphic" in2="BackgroundImageFix" result="shape"/>
<feGaussianBlur stdDeviation="12.2892" result="effect1_foregroundBlur_2803_1581"/>
</filter>
<filter id="filter6_f_2803_1581" x="-493.502" y="-101.097" width="965.34" height="718.968" filterUnits="userSpaceOnUse" color-interpolation-filters="sRGB">
<feFlood flood-opacity="0" result="BackgroundImageFix"/>
<feBlend mode="normal" in="SourceGraphic" in2="BackgroundImageFix" result="shape"/>
<feGaussianBlur stdDeviation="17.556" result="effect1_foregroundBlur_2803_1581"/>
</filter>
<filter id="filter7_f_2803_1581" x="-487.642" y="-110.038" width="1066.48" height="833.549" filterUnits="userSpaceOnUse" color-interpolation-filters="sRGB">
<feFlood flood-opacity="0" result="BackgroundImageFix"/>
<feBlend mode="normal" in="SourceGraphic" in2="BackgroundImageFix" result="shape"/>
<feGaussianBlur stdDeviation="47.4012" result="effect1_foregroundBlur_2803_1581"/>
</filter>
<filter id="filter8_f_2803_1581" x="-588.396" y="-169.465" width="1308.43" height="1055.76" filterUnits="userSpaceOnUse" color-interpolation-filters="sRGB">
<feFlood flood-opacity="0" result="BackgroundImageFix"/>
<feBlend mode="normal" in="SourceGraphic" in2="BackgroundImageFix" result="shape"/>
<feGaussianBlur stdDeviation="117.625" result="effect1_foregroundBlur_2803_1581"/>
</filter>
<filter id="filter9_f_2803_1581" x="-558.663" y="-214.752" width="1042.29" height="785.608" filterUnits="userSpaceOnUse" color-interpolation-filters="sRGB">
<feFlood flood-opacity="0" result="BackgroundImageFix"/>
<feBlend mode="normal" in="SourceGraphic" in2="BackgroundImageFix" result="shape"/>
<feGaussianBlur stdDeviation="54.4235" result="effect1_foregroundBlur_2803_1581"/>
</filter>
<filter id="filter10_f_2803_1581" x="418.806" y="93.1393" width="424.491" height="542.149" filterUnits="userSpaceOnUse" color-interpolation-filters="sRGB">
<feFlood flood-opacity="0" result="BackgroundImageFix"/>
<feBlend mode="normal" in="SourceGraphic" in2="BackgroundImageFix" result="shape"/>
<feGaussianBlur stdDeviation="1.38236" result="effect1_foregroundBlur_2803_1581"/>
</filter>
<filter id="filter11_f_2803_1581" x="388.191" y="92.897" width="489.445" height="546.727" filterUnits="userSpaceOnUse" color-interpolation-filters="sRGB">
<feFlood flood-opacity="0" result="BackgroundImageFix"/>
<feBlend mode="normal" in="SourceGraphic" in2="BackgroundImageFix" result="shape"/>
<feGaussianBlur stdDeviation="4.83825" result="effect1_foregroundBlur_2803_1581"/>
</filter>
<filter id="filter12_f_2803_1581" x="367.188" y="-43.0333" width="559.417" height="635.57" filterUnits="userSpaceOnUse" color-interpolation-filters="sRGB">
<feFlood flood-opacity="0" result="BackgroundImageFix"/>
<feBlend mode="normal" in="SourceGraphic" in2="BackgroundImageFix" result="shape"/>
<feGaussianBlur stdDeviation="6.91179" result="effect1_foregroundBlur_2803_1581"/>
</filter>
<filter id="filter13_f_2803_1581" x="253.005" y="-18.2199" width="838.171" height="669.34" filterUnits="userSpaceOnUse" color-interpolation-filters="sRGB">
<feFlood flood-opacity="0" result="BackgroundImageFix"/>
<feBlend mode="normal" in="SourceGraphic" in2="BackgroundImageFix" result="shape"/>
<feGaussianBlur stdDeviation="18.6618" result="effect1_foregroundBlur_2803_1581"/>
</filter>
<filter id="filter14_f_2803_1581" x="180.462" y="-190.116" width="1027.47" height="832.625" filterUnits="userSpaceOnUse" color-interpolation-filters="sRGB">
<feFlood flood-opacity="0" result="BackgroundImageFix"/>
<feBlend mode="normal" in="SourceGraphic" in2="BackgroundImageFix" result="shape"/>
<feGaussianBlur stdDeviation="52.3779" result="effect1_foregroundBlur_2803_1581"/>
</filter>
<filter id="filter15_f_2803_1581" x="180.462" y="-190.116" width="1027.47" height="832.625" filterUnits="userSpaceOnUse" color-interpolation-filters="sRGB">
<feFlood flood-opacity="0" result="BackgroundImageFix"/>
<feBlend mode="normal" in="SourceGraphic" in2="BackgroundImageFix" result="shape"/>
<feGaussianBlur stdDeviation="52.3779" result="effect1_foregroundBlur_2803_1581"/>
</filter>
<filter id="filter16_f_2803_1581" x="180.462" y="-190.116" width="1027.47" height="832.625" filterUnits="userSpaceOnUse" color-interpolation-filters="sRGB">
<feFlood flood-opacity="0" result="BackgroundImageFix"/>
<feBlend mode="normal" in="SourceGraphic" in2="BackgroundImageFix" result="shape"/>
<feGaussianBlur stdDeviation="52.3779" result="effect1_foregroundBlur_2803_1581"/>
</filter>
<filter id="filter17_f_2803_1581" x="165.24" y="-184.596" width="1042.69" height="827.105" filterUnits="userSpaceOnUse" color-interpolation-filters="sRGB">
<feFlood flood-opacity="0" result="BackgroundImageFix"/>
<feBlend mode="normal" in="SourceGraphic" in2="BackgroundImageFix" result="shape"/>
<feGaussianBlur stdDeviation="52.3779" result="effect1_foregroundBlur_2803_1581"/>
</filter>
<filter id="filter18_f_2803_1581" x="326.183" y="-46.8211" width="594.92" height="682.41" filterUnits="userSpaceOnUse" color-interpolation-filters="sRGB">
<feFlood flood-opacity="0" result="BackgroundImageFix"/>
<feBlend mode="normal" in="SourceGraphic" in2="BackgroundImageFix" result="shape"/>
<feGaussianBlur stdDeviation="21.4266" result="effect1_foregroundBlur_2803_1581"/>
</filter>
<filter id="filter19_f_2803_1581" x="-475.279" y="-14.7977" width="1172" height="1172" filterUnits="userSpaceOnUse" color-interpolation-filters="sRGB">
<feFlood flood-opacity="0" result="BackgroundImageFix"/>
<feBlend mode="normal" in="SourceGraphic" in2="BackgroundImageFix" result="shape"/>
<feGaussianBlur stdDeviation="143.6" result="effect1_foregroundBlur_2803_1581"/>
</filter>
<linearGradient id="paint0_linear_2803_1581" x1="15.104" y1="-72.7476" x2="15.104" y2="515.178" gradientUnits="userSpaceOnUse">
<stop stop-color="#DB00FF"/>
<stop offset="1" stop-color="#DB00FF"/>
</linearGradient>
<linearGradient id="paint1_linear_2803_1581" x1="574.133" y1="657.449" x2="-529.962" y2="19.2875" gradientUnits="userSpaceOnUse">
<stop stop-color="#C4C4C4" stop-opacity="0"/>
<stop offset="0.203125" stop-color="#C4C4C4"/>
<stop offset="0.554366" stop-color="#C4C4C4"/>
<stop offset="1" stop-color="#C4C4C4" stop-opacity="0"/>
</linearGradient>
<linearGradient id="paint2_linear_2803_1581" x1="57.6678" y1="-45.2515" x2="-173.778" y2="329.527" gradientUnits="userSpaceOnUse">
<stop stop-color="#C4C4C4"/>
<stop offset="1" stop-color="#C4C4C4" stop-opacity="0"/>
</linearGradient>
<linearGradient id="paint3_linear_2803_1581" x1="-259.56" y1="6.03927" x2="234.271" y2="326.78" gradientUnits="userSpaceOnUse">
<stop stop-color="#DB00FF"/>
<stop offset="1" stop-color="#DB00FF"/>
</linearGradient>
<linearGradient id="paint4_linear_2803_1581" x1="-249.752" y1="-12.2478" x2="243.878" y2="308.362" gradientUnits="userSpaceOnUse">
<stop stop-color="#DB00FF"/>
<stop offset="1" stop-color="#DB00FF"/>
</linearGradient>
<linearGradient id="paint5_linear_2803_1581" x1="-300.669" y1="8.12434" x2="252.594" y2="367.465" gradientUnits="userSpaceOnUse">
<stop stop-color="#DB00FF"/>
<stop offset="1" stop-color="#DB00FF"/>
</linearGradient>
<linearGradient id="paint6_linear_2803_1581" x1="-395.106" y1="59.2405" x2="277.423" y2="496.044" gradientUnits="userSpaceOnUse">
<stop offset="0.5625" stop-color="#FF1C89"/>
<stop offset="1" stop-color="#FF00F5"/>
</linearGradient>
<linearGradient id="paint7_linear_2803_1581" x1="1078.17" y1="319.961" x2="244.291" y2="12.6634" gradientUnits="userSpaceOnUse">
<stop stop-color="#C4C4C4" stop-opacity="0"/>
<stop offset="0.430547" stop-color="#C4C4C4"/>
<stop offset="0.498519" stop-color="#C4C4C4"/>
<stop offset="1" stop-color="#C4C4C4" stop-opacity="0"/>
</linearGradient>
<linearGradient id="paint8_linear_2803_1581" x1="518.584" y1="742.956" x2="672.884" y2="-26.0408" gradientUnits="userSpaceOnUse">
<stop stop-color="#C4C4C4"/>
<stop offset="1" stop-color="#C4C4C4" stop-opacity="0"/>
</linearGradient>
<clipPath id="clip0_2803_1581">
<rect width="474" height="552" fill="white"/>
</clipPath>
<clipPath id="clip1_2803_1581">
<rect width="1440" height="900" fill="white" transform="translate(766 -696) rotate(90)"/>
</clipPath>
</defs>
</svg>
