<svg width="127" height="127" viewBox="0 0 127 127" fill="none" xmlns="http://www.w3.org/2000/svg">
<g filter="url(#filter0_f_3096_7447)">
<circle cx="63.502" cy="63.5002" r="33.5" fill="#8894FF" fill-opacity="0.5"/>
</g>
<g filter="url(#filter1_dii_3096_7447)">
<circle cx="58.502" cy="62.5002" r="33.5" fill="#8894FF"/>
</g>
<g clip-path="url(#clip0_3096_7447)">
<path d="M58.502 49.041C58.2119 49.041 57.9337 48.9257 57.7286 48.7206C57.5234 48.5155 57.4082 48.2373 57.4082 47.9472V45.0933C57.4082 44.8032 57.5234 44.525 57.7286 44.3199C57.9337 44.1147 58.2119 43.9995 58.502 43.9995C58.792 43.9995 59.0702 44.1147 59.2754 44.3199C59.4805 44.525 59.5957 44.8032 59.5957 45.0933V47.9472C59.5957 48.2373 59.4805 48.5155 59.2754 48.7206C59.0702 48.9257 58.792 49.041 58.502 49.041ZM68.0847 53.0106C67.8682 53.0107 67.6565 52.9465 67.4765 52.8262C67.2965 52.706 67.1563 52.535 67.0735 52.335C66.9907 52.1349 66.9692 51.9148 67.0116 51.7025C67.054 51.4902 67.1585 51.2953 67.3117 51.1424L69.3301 49.1241C69.4317 49.0225 69.5523 48.9419 69.685 48.8869C69.8178 48.8319 69.96 48.8036 70.1037 48.8036C70.2474 48.8036 70.3897 48.8319 70.5224 48.8869C70.6552 48.9419 70.7758 49.0225 70.8774 49.1241C70.979 49.2257 71.0596 49.3463 71.1145 49.479C71.1695 49.6118 71.1978 49.7541 71.1978 49.8977C71.1978 50.0414 71.1695 50.1837 71.1145 50.3164C71.0596 50.4492 70.979 50.5698 70.8774 50.6714L68.859 52.6897C68.6536 52.895 68.3751 53.0104 68.0847 53.0106ZM74.9082 62.5933H72.0542C71.7642 62.5933 71.486 62.478 71.2808 62.2729C71.0757 62.0678 70.9605 61.7896 70.9605 61.4995C70.9605 61.2094 71.0757 60.9312 71.2808 60.7261C71.486 60.521 71.7642 60.4058 72.0542 60.4058H74.9082C75.1983 60.4058 75.4765 60.521 75.6816 60.7261C75.8867 60.9312 76.002 61.2094 76.002 61.4995C76.002 61.7896 75.8867 62.0678 75.6816 62.2729C75.4765 62.478 75.1983 62.5933 74.9082 62.5933ZM70.103 74.1943C69.9593 74.1947 69.817 74.1665 69.6844 74.1114C69.5517 74.0563 69.4313 73.9755 69.3301 73.8735L67.3117 71.8551C67.2101 71.7535 67.1296 71.6329 67.0746 71.5002C67.0196 71.3674 66.9913 71.2252 66.9913 71.0815C66.9913 70.9378 67.0196 70.7955 67.0746 70.6628C67.1296 70.5301 67.2101 70.4094 67.3117 70.3078C67.4133 70.2063 67.534 70.1257 67.6667 70.0707C67.7994 70.0157 67.9417 69.9874 68.0854 69.9874C68.2291 69.9874 68.3713 70.0157 68.5041 70.0707C68.6368 70.1257 68.7574 70.2063 68.859 70.3078L70.8774 72.3262C71.0307 72.4791 71.1352 72.6742 71.1776 72.8866C71.2199 73.0991 71.1983 73.3193 71.1153 73.5194C71.0324 73.7195 70.8919 73.8904 70.7117 74.0106C70.5314 74.1308 70.3196 74.1947 70.103 74.1943ZM46.9009 74.1943C46.6844 74.1944 46.4728 74.1303 46.2928 74.01C46.1128 73.8897 45.9725 73.7187 45.8898 73.5187C45.807 73.3187 45.7854 73.0986 45.8279 72.8863C45.8703 72.674 45.9747 72.4791 46.128 72.3262L48.1463 70.3078C48.2479 70.2063 48.3685 70.1257 48.5013 70.0707C48.634 70.0157 48.7763 69.9874 48.92 69.9874C49.0637 69.9874 49.2059 70.0157 49.3387 70.0707C49.4714 70.1257 49.592 70.2063 49.6936 70.3078C49.7952 70.4094 49.8758 70.5301 49.9308 70.6628C49.9858 70.7955 50.0141 70.9378 50.0141 71.0815C50.0141 71.2252 49.9858 71.3674 49.9308 71.5002C49.8758 71.6329 49.7952 71.7535 49.6936 71.8551L47.6753 73.8735C47.5737 73.9754 47.453 74.0562 47.3201 74.1112C47.1872 74.1663 47.0448 74.1945 46.9009 74.1943ZM44.9497 62.5933H42.0957C41.8056 62.5933 41.5274 62.478 41.3223 62.2729C41.1172 62.0678 41.002 61.7896 41.002 61.4995C41.002 61.2094 41.1172 60.9312 41.3223 60.7261C41.5274 60.521 41.8056 60.4058 42.0957 60.4058H44.9497C45.2397 60.4058 45.5179 60.521 45.7231 60.7261C45.9282 60.9312 46.0434 61.2094 46.0434 61.4995C46.0434 61.7896 45.9282 62.0678 45.7231 62.2729C45.5179 62.478 45.2397 62.5933 44.9497 62.5933ZM48.9192 53.0106C48.7756 53.0109 48.6333 52.9827 48.5006 52.9277C48.3679 52.8726 48.2475 52.7917 48.1463 52.6897L46.128 50.6714C46.0264 50.5698 45.9458 50.4492 45.8908 50.3164C45.8358 50.1837 45.8075 50.0414 45.8075 49.8977C45.8075 49.7541 45.8358 49.6118 45.8908 49.479C45.9458 49.3463 46.0264 49.2257 46.128 49.1241C46.2296 49.0225 46.3502 48.9419 46.4829 48.8869C46.6157 48.8319 46.758 48.8036 46.9016 48.8036C47.0453 48.8036 47.1876 48.8319 47.3203 48.8869C47.4531 48.9419 47.5737 49.0225 47.6753 49.1241L49.6936 51.1424C49.847 51.2954 49.9515 51.4905 49.9938 51.7029C50.0362 51.9153 50.0145 52.1355 49.9316 52.3356C49.8486 52.5357 49.7082 52.7067 49.5279 52.8268C49.3477 52.947 49.1359 53.0109 48.9192 53.0106ZM62.877 74.6245V76.4474C62.877 77.8474 61.7249 78.9995 60.3249 78.9995H56.679C55.454 78.9995 54.127 78.0662 54.127 76.0245V74.6245H62.877ZM64.9332 53.5662C63.7408 52.6028 62.3475 51.9193 60.8558 51.5659C59.3642 51.2126 57.8123 51.1984 56.3145 51.5245C52.4499 52.3266 49.3145 55.4766 48.5124 59.3412C47.6957 63.3078 49.1832 67.2453 52.3624 69.6516C53.2228 70.2933 53.8207 71.2849 54.0249 72.437V72.4516C54.054 72.437 54.0978 72.437 54.127 72.437H62.877C62.9061 72.437 62.9207 72.437 62.9499 72.4516V72.437C63.154 71.3287 63.8103 70.3078 64.8165 69.5203C66.0312 68.5661 67.013 67.3482 67.6876 65.9586C68.3622 64.569 68.7119 63.0442 68.7103 61.4995C68.7103 58.4078 67.3395 55.5203 64.9332 53.5662ZM63.9707 62.2287C63.3728 62.2287 62.877 61.7328 62.877 61.1349C62.877 58.9183 61.0832 57.1245 58.8665 57.1245C58.2686 57.1245 57.7728 56.6287 57.7728 56.0308C57.7728 55.4328 58.2686 54.937 58.8665 54.937C60.5091 54.9409 62.0834 55.5951 63.2449 56.7566C64.4064 57.9181 65.0606 59.4923 65.0645 61.1349C65.0645 61.7328 64.5686 62.2287 63.9707 62.2287Z" fill="white"/>
<path d="M54.0244 72.437H54.1265C54.0973 72.437 54.0536 72.437 54.0244 72.4516V72.437ZM62.9494 72.437V72.4516C62.9202 72.437 62.9057 72.437 62.8765 72.437H62.9494Z" fill="white"/>
</g>
<defs>
<filter id="filter0_f_3096_7447" x="0.00195312" y="0.000244141" width="127" height="127" filterUnits="userSpaceOnUse" color-interpolation-filters="sRGB">
<feFlood flood-opacity="0" result="BackgroundImageFix"/>
<feBlend mode="normal" in="SourceGraphic" in2="BackgroundImageFix" result="shape"/>
<feGaussianBlur stdDeviation="15" result="effect1_foregroundBlur_3096_7447"/>
</filter>
<filter id="filter1_dii_3096_7447" x="9.00195" y="23.0002" width="99" height="99" filterUnits="userSpaceOnUse" color-interpolation-filters="sRGB">
<feFlood flood-opacity="0" result="BackgroundImageFix"/>
<feColorMatrix in="SourceAlpha" type="matrix" values="0 0 0 0 0 0 0 0 0 0 0 0 0 0 0 0 0 0 127 0" result="hardAlpha"/>
<feMorphology radius="4" operator="erode" in="SourceAlpha" result="effect1_dropShadow_3096_7447"/>
<feOffset dy="10"/>
<feGaussianBlur stdDeviation="10"/>
<feColorMatrix type="matrix" values="0 0 0 0 0.916051 0 0 0 0 0.921023 0 0 0 0 0.927984 0 0 0 1 0"/>
<feBlend mode="multiply" in2="BackgroundImageFix" result="effect1_dropShadow_3096_7447"/>
<feBlend mode="normal" in="SourceGraphic" in2="effect1_dropShadow_3096_7447" result="shape"/>
<feColorMatrix in="SourceAlpha" type="matrix" values="0 0 0 0 0 0 0 0 0 0 0 0 0 0 0 0 0 0 127 0" result="hardAlpha"/>
<feOffset/>
<feGaussianBlur stdDeviation="2"/>
<feComposite in2="hardAlpha" operator="arithmetic" k2="-1" k3="1"/>
<feColorMatrix type="matrix" values="0 0 0 0 0.625417 0 0 0 0 0.631402 0 0 0 0 0.658333 0 0 0 1 0"/>
<feBlend mode="color-burn" in2="shape" result="effect2_innerShadow_3096_7447"/>
<feColorMatrix in="SourceAlpha" type="matrix" values="0 0 0 0 0 0 0 0 0 0 0 0 0 0 0 0 0 0 127 0" result="hardAlpha"/>
<feOffset dx="2" dy="2"/>
<feGaussianBlur stdDeviation="1"/>
<feComposite in2="hardAlpha" operator="arithmetic" k2="-1" k3="1"/>
<feColorMatrix type="matrix" values="0 0 0 0 1 0 0 0 0 1 0 0 0 0 1 0 0 0 0.3 0"/>
<feBlend mode="normal" in2="effect2_innerShadow_3096_7447" result="effect3_innerShadow_3096_7447"/>
</filter>
<clipPath id="clip0_3096_7447">
<rect width="35" height="35" fill="white" transform="translate(41.002 43.9995)"/>
</clipPath>
</defs>
</svg>
