<svg width="127" height="127" viewBox="0 0 127 127" fill="none" xmlns="http://www.w3.org/2000/svg">
<g filter="url(#filter0_f_3096_7433)">
<circle cx="63.5" cy="63.5" r="33.5" fill="#B69DFE" fill-opacity="0.5"/>
</g>
<g filter="url(#filter1_dii_3096_7433)">
<circle cx="58.5" cy="62.5" r="33.5" fill="#8894FF"/>
</g>
<path d="M47.4676 63.6808C47.5047 63.5601 47.5681 63.4491 47.6532 63.3557C47.7383 63.2624 47.843 63.1892 47.9598 63.1412L54.2466 61.1309L44.6811 52.5238C44.5807 52.4423 44.5062 52.3333 44.4669 52.2101C44.4275 52.087 44.4249 51.955 44.4594 51.8303C44.4952 51.7139 44.5579 51.6076 44.6425 51.5199C44.7271 51.4322 44.8311 51.3657 44.9461 51.3257L53.3587 48.6357C53.4846 48.5955 53.619 48.5894 53.7479 48.6183C53.8769 48.6471 53.9959 48.7098 54.0926 48.7999L67.5275 63.116C67.6208 63.1961 67.69 63.3005 67.7274 63.4176C67.7649 63.5348 67.7691 63.66 67.7397 63.7793C67.7174 63.8976 67.6592 64.0061 67.5731 64.0901C67.487 64.1741 67.3771 64.2296 67.2583 64.249L60.9263 66.2737L69.7155 78.17C69.8113 78.2971 69.8584 78.4542 69.8482 78.613C69.838 78.7718 69.7711 78.9216 69.6598 79.0353C69.5649 79.1261 69.4488 79.1918 69.3221 79.2264C69.1175 79.2846 68.8988 79.2659 68.707 79.1738L47.699 64.4044C47.5911 64.3219 47.5111 64.2083 47.4698 64.0789C47.4284 63.9495 47.4277 63.8106 47.4676 63.6808Z" fill="white"/>
<defs>
<filter id="filter0_f_3096_7433" x="0" y="0" width="127" height="127" filterUnits="userSpaceOnUse" color-interpolation-filters="sRGB">
<feFlood flood-opacity="0" result="BackgroundImageFix"/>
<feBlend mode="normal" in="SourceGraphic" in2="BackgroundImageFix" result="shape"/>
<feGaussianBlur stdDeviation="15" result="effect1_foregroundBlur_3096_7433"/>
</filter>
<filter id="filter1_dii_3096_7433" x="9" y="23" width="99" height="99" filterUnits="userSpaceOnUse" color-interpolation-filters="sRGB">
<feFlood flood-opacity="0" result="BackgroundImageFix"/>
<feColorMatrix in="SourceAlpha" type="matrix" values="0 0 0 0 0 0 0 0 0 0 0 0 0 0 0 0 0 0 127 0" result="hardAlpha"/>
<feMorphology radius="4" operator="erode" in="SourceAlpha" result="effect1_dropShadow_3096_7433"/>
<feOffset dy="10"/>
<feGaussianBlur stdDeviation="10"/>
<feColorMatrix type="matrix" values="0 0 0 0 0.916051 0 0 0 0 0.921023 0 0 0 0 0.927984 0 0 0 1 0"/>
<feBlend mode="multiply" in2="BackgroundImageFix" result="effect1_dropShadow_3096_7433"/>
<feBlend mode="normal" in="SourceGraphic" in2="effect1_dropShadow_3096_7433" result="shape"/>
<feColorMatrix in="SourceAlpha" type="matrix" values="0 0 0 0 0 0 0 0 0 0 0 0 0 0 0 0 0 0 127 0" result="hardAlpha"/>
<feOffset/>
<feGaussianBlur stdDeviation="2"/>
<feComposite in2="hardAlpha" operator="arithmetic" k2="-1" k3="1"/>
<feColorMatrix type="matrix" values="0 0 0 0 0.625417 0 0 0 0 0.631402 0 0 0 0 0.658333 0 0 0 1 0"/>
<feBlend mode="color-burn" in2="shape" result="effect2_innerShadow_3096_7433"/>
<feColorMatrix in="SourceAlpha" type="matrix" values="0 0 0 0 0 0 0 0 0 0 0 0 0 0 0 0 0 0 127 0" result="hardAlpha"/>
<feOffset dx="2" dy="2"/>
<feGaussianBlur stdDeviation="1"/>
<feComposite in2="hardAlpha" operator="arithmetic" k2="-1" k3="1"/>
<feColorMatrix type="matrix" values="0 0 0 0 1 0 0 0 0 1 0 0 0 0 1 0 0 0 0.3 0"/>
<feBlend mode="normal" in2="effect2_innerShadow_3096_7433" result="effect3_innerShadow_3096_7433"/>
</filter>
</defs>
</svg>
