<svg width="123" height="128" viewBox="0 0 123 128" fill="none" xmlns="http://www.w3.org/2000/svg">
<g opacity="0.5" filter="url(#filter0_f_3096_7393)">
<rect x="30" y="30" width="63" height="68" rx="11" fill="#25C16F"/>
</g>
<g filter="url(#filter1_dii_3096_7393)">
<rect x="21" y="24" width="63" height="68" rx="11" fill="#25C16F"/>
</g>
<path d="M57.6964 66.3857C57.6964 63.5208 55.365 61.1902 52.5001 61.1902C49.6347 61.1902 47.3037 63.5212 47.3037 66.3857C47.3037 69.2511 49.6347 71.5821 52.5001 71.5821C55.3654 71.5821 57.6964 69.2511 57.6964 66.3857ZM58.3228 62.9756L61.7782 61.7385C60.8525 59.9017 59.4055 58.3787 57.6184 57.3604L55.8825 60.5463C56.8909 61.1333 57.7312 61.9699 58.3228 62.9756Z" fill="white"/>
<path d="M62.3727 63.1821L58.9587 64.4043C59.1513 65.031 59.2566 65.6964 59.2566 66.3855C59.2566 69.2774 57.4271 71.7433 54.8676 72.7055L55.9564 76.173C59.9859 74.7456 62.8809 70.8986 62.8809 66.3859C62.8809 65.2682 62.7011 64.1918 62.3727 63.1821ZM52.5003 76.7665C53.1544 76.7661 53.8071 76.7037 54.4495 76.5801L53.3508 73.0822C53.0716 73.1173 52.7892 73.1415 52.5003 73.1415C48.7746 73.1415 45.7439 70.1108 45.7439 66.3851C45.7439 62.6598 48.7746 59.6295 52.5003 59.6295C53.1773 59.6295 53.8309 59.7325 54.4479 59.9185L56.2068 56.6913C55.0239 56.237 53.7674 56.0043 52.5003 56.0049C46.7762 56.0049 42.1196 60.6615 42.1196 66.3855C42.1196 72.1095 46.7762 76.7665 52.5003 76.7665Z" fill="white"/>
<path d="M70.4401 69.9596V47.6149H34.5601V69.9596H41.1062C40.743 68.8032 40.5586 67.5981 40.5594 66.386C40.5594 59.8016 45.9161 54.4454 52.5001 54.4454C54.3295 54.4454 56.0639 54.8599 57.6153 55.599C57.6356 55.608 57.6562 55.6138 57.6761 55.6247C57.6808 55.6271 57.6843 55.631 57.6886 55.6333C60.3476 56.9243 62.4372 59.1504 63.5573 61.8858C63.5628 61.8987 63.5702 61.9104 63.5753 61.9236C63.5776 61.9306 63.5784 61.9373 63.5804 61.9443C64.1493 63.3561 64.4414 64.8642 64.4407 66.3864C64.4407 67.6305 64.2488 68.8313 63.8939 69.96L70.4401 69.9596ZM40.5278 54.4224H37.4008C37.1939 54.4224 36.9956 54.3402 36.8493 54.1939C36.703 54.0476 36.6208 53.8492 36.6208 53.6424C36.6208 53.4355 36.703 53.2371 36.8493 53.0908C36.9956 52.9445 37.1939 52.8624 37.4008 52.8624H40.5278C40.7347 52.8624 40.9331 52.9445 41.0794 53.0908C41.2257 53.2371 41.3078 53.4355 41.3078 53.6424C41.3078 53.8492 41.2257 54.0476 41.0794 54.1939C40.9331 54.3402 40.7347 54.4224 40.5278 54.4224ZM42.8234 51.2563H37.4012C37.1943 51.2563 36.9959 51.1742 36.8497 51.0279C36.7034 50.8816 36.6212 50.6832 36.6212 50.4763C36.6212 50.2695 36.7034 50.0711 36.8497 49.9248C36.9959 49.7785 37.1943 49.6963 37.4012 49.6963H42.8238C43.0306 49.6964 43.229 49.7786 43.3753 49.9249C43.5215 50.0713 43.6036 50.2697 43.6036 50.4765C43.6035 50.6834 43.5213 50.8818 43.375 51.028C43.2287 51.1743 43.0302 51.2564 42.8234 51.2563ZM62.1767 51.2563C61.9699 51.2563 61.7715 51.1742 61.6252 51.0279C61.4789 50.8816 61.3967 50.6832 61.3967 50.4763C61.3967 50.2695 61.4789 50.0711 61.6252 49.9248C61.7715 49.7785 61.9699 49.6963 62.1767 49.6963H67.5993C67.8062 49.6963 68.0046 49.7785 68.1508 49.9248C68.2971 50.0711 68.3793 50.2695 68.3793 50.4763C68.3793 50.6832 68.2971 50.8816 68.1508 51.0279C68.0046 51.1742 67.8062 51.2563 67.5993 51.2563H62.1767ZM63.6923 53.6424C63.6923 53.4355 63.7745 53.2371 63.9207 53.0908C64.067 52.9445 64.2654 52.8624 64.4723 52.8624H67.5993C67.8062 52.8624 68.0046 52.9445 68.1508 53.0908C68.2971 53.2371 68.3793 53.4355 68.3793 53.6424C68.3793 53.8492 68.2971 54.0476 68.1508 54.1939C68.0046 54.3402 67.8062 54.4224 67.5993 54.4224H64.4723C64.2654 54.4224 64.067 54.3402 63.9207 54.1939C63.7745 54.0476 63.6923 53.8492 63.6923 53.6424ZM34.5601 42.2329V46.0553H70.4401V42.2329H34.5601ZM44.7823 44.9239H37.0252C36.8184 44.9239 36.62 44.8417 36.4737 44.6955C36.3274 44.5492 36.2452 44.3508 36.2452 44.1439C36.2452 43.937 36.3274 43.7386 36.4737 43.5924C36.62 43.4461 36.8184 43.3639 37.0252 43.3639H44.7827C44.9896 43.364 45.188 43.4462 45.3342 43.5925C45.4805 43.7388 45.5626 43.9372 45.5625 44.1441C45.5625 44.351 45.4803 44.5493 45.3339 44.6956C45.1876 44.8418 44.9892 44.924 44.7823 44.9239Z" fill="white"/>
<defs>
<filter id="filter0_f_3096_7393" x="0" y="0" width="123" height="128" filterUnits="userSpaceOnUse" color-interpolation-filters="sRGB">
<feFlood flood-opacity="0" result="BackgroundImageFix"/>
<feBlend mode="normal" in="SourceGraphic" in2="BackgroundImageFix" result="shape"/>
<feGaussianBlur stdDeviation="15" result="effect1_foregroundBlur_3096_7393"/>
</filter>
<filter id="filter1_dii_3096_7393" x="5" y="18" width="95" height="100" filterUnits="userSpaceOnUse" color-interpolation-filters="sRGB">
<feFlood flood-opacity="0" result="BackgroundImageFix"/>
<feColorMatrix in="SourceAlpha" type="matrix" values="0 0 0 0 0 0 0 0 0 0 0 0 0 0 0 0 0 0 127 0" result="hardAlpha"/>
<feMorphology radius="4" operator="erode" in="SourceAlpha" result="effect1_dropShadow_3096_7393"/>
<feOffset dy="10"/>
<feGaussianBlur stdDeviation="10"/>
<feColorMatrix type="matrix" values="0 0 0 0 0.916051 0 0 0 0 0.921023 0 0 0 0 0.927984 0 0 0 1 0"/>
<feBlend mode="multiply" in2="BackgroundImageFix" result="effect1_dropShadow_3096_7393"/>
<feBlend mode="normal" in="SourceGraphic" in2="effect1_dropShadow_3096_7393" result="shape"/>
<feColorMatrix in="SourceAlpha" type="matrix" values="0 0 0 0 0 0 0 0 0 0 0 0 0 0 0 0 0 0 127 0" result="hardAlpha"/>
<feOffset/>
<feGaussianBlur stdDeviation="2"/>
<feComposite in2="hardAlpha" operator="arithmetic" k2="-1" k3="1"/>
<feColorMatrix type="matrix" values="0 0 0 0 0.625417 0 0 0 0 0.631402 0 0 0 0 0.658333 0 0 0 1 0"/>
<feBlend mode="color-burn" in2="shape" result="effect2_innerShadow_3096_7393"/>
<feColorMatrix in="SourceAlpha" type="matrix" values="0 0 0 0 0 0 0 0 0 0 0 0 0 0 0 0 0 0 127 0" result="hardAlpha"/>
<feOffset dx="2" dy="2"/>
<feGaussianBlur stdDeviation="1"/>
<feComposite in2="hardAlpha" operator="arithmetic" k2="-1" k3="1"/>
<feColorMatrix type="matrix" values="0 0 0 0 1 0 0 0 0 1 0 0 0 0 1 0 0 0 0.3 0"/>
<feBlend mode="normal" in2="effect2_innerShadow_3096_7393" result="effect3_innerShadow_3096_7393"/>
</filter>
</defs>
</svg>
