<svg width="127" height="127" viewBox="0 0 127 127" fill="none" xmlns="http://www.w3.org/2000/svg">
<g opacity="0.5" filter="url(#filter0_f_2255_12687)">
<circle cx="63.5" cy="63.5" r="33.5" fill="#8894FF"/>
</g>
<g filter="url(#filter1_dii_2255_12687)">
<circle cx="58.5" cy="62.5" r="33.5" fill="#8894FF"/>
</g>
<path d="M69.6667 43H48.3333C46.9188 43 45.5623 43.5531 44.5621 44.5377C43.5619 45.5223 43 46.8576 43 48.25V79.75C43 81.1424 43.5619 82.4777 44.5621 83.4623C45.5623 84.4469 46.9188 85 48.3333 85H69.6667C71.0812 85 72.4377 84.4469 73.4379 83.4623C74.4381 82.4777 75 81.1424 75 79.75V48.25C75 46.8576 74.4381 45.5223 73.4379 44.5377C72.4377 43.5531 71.0812 43 69.6667 43V43ZM51.152 53.5H66.848L67 58.75H65.6667C65.1867 55.873 64.7173 55.621 61.1493 55.5081L60.3547 55.4819V71.4681C60.3547 72.7019 60.6213 72.9959 62.7627 73.1875V74.5H55.24V73.1875C57.3707 72.9959 57.6347 72.7045 57.6347 71.4707V55.4819L56.8533 55.5081C53.2827 55.621 52.8133 55.8756 52.3333 58.75H51L51.152 53.5Z" fill="white"/>
<defs>
<filter id="filter0_f_2255_12687" x="0" y="0" width="127" height="127" filterUnits="userSpaceOnUse" color-interpolation-filters="sRGB">
<feFlood flood-opacity="0" result="BackgroundImageFix"/>
<feBlend mode="normal" in="SourceGraphic" in2="BackgroundImageFix" result="shape"/>
<feGaussianBlur stdDeviation="15" result="effect1_foregroundBlur_2255_12687"/>
</filter>
<filter id="filter1_dii_2255_12687" x="9" y="23" width="99" height="99" filterUnits="userSpaceOnUse" color-interpolation-filters="sRGB">
<feFlood flood-opacity="0" result="BackgroundImageFix"/>
<feColorMatrix in="SourceAlpha" type="matrix" values="0 0 0 0 0 0 0 0 0 0 0 0 0 0 0 0 0 0 127 0" result="hardAlpha"/>
<feMorphology radius="4" operator="erode" in="SourceAlpha" result="effect1_dropShadow_2255_12687"/>
<feOffset dy="10"/>
<feGaussianBlur stdDeviation="10"/>
<feColorMatrix type="matrix" values="0 0 0 0 0.916051 0 0 0 0 0.921023 0 0 0 0 0.927984 0 0 0 1 0"/>
<feBlend mode="multiply" in2="BackgroundImageFix" result="effect1_dropShadow_2255_12687"/>
<feBlend mode="normal" in="SourceGraphic" in2="effect1_dropShadow_2255_12687" result="shape"/>
<feColorMatrix in="SourceAlpha" type="matrix" values="0 0 0 0 0 0 0 0 0 0 0 0 0 0 0 0 0 0 127 0" result="hardAlpha"/>
<feOffset/>
<feGaussianBlur stdDeviation="2"/>
<feComposite in2="hardAlpha" operator="arithmetic" k2="-1" k3="1"/>
<feColorMatrix type="matrix" values="0 0 0 0 0.625417 0 0 0 0 0.631402 0 0 0 0 0.658333 0 0 0 1 0"/>
<feBlend mode="color-burn" in2="shape" result="effect2_innerShadow_2255_12687"/>
<feColorMatrix in="SourceAlpha" type="matrix" values="0 0 0 0 0 0 0 0 0 0 0 0 0 0 0 0 0 0 127 0" result="hardAlpha"/>
<feOffset dx="2" dy="2"/>
<feGaussianBlur stdDeviation="1"/>
<feComposite in2="hardAlpha" operator="arithmetic" k2="-1" k3="1"/>
<feColorMatrix type="matrix" values="0 0 0 0 1 0 0 0 0 1 0 0 0 0 1 0 0 0 0.3 0"/>
<feBlend mode="normal" in2="effect2_innerShadow_2255_12687" result="effect3_innerShadow_2255_12687"/>
</filter>
</defs>
</svg>
