<svg width="171" height="34" viewBox="0 0 171 34" fill="none" xmlns="http://www.w3.org/2000/svg">
<path fill-rule="evenodd" clip-rule="evenodd" d="M162.982 27.6206L169.375 9.72146H151.718C149.435 9.72146 146.948 11.5726 146.136 13.8361L141.317 27.1574H131.879L136.445 15.0711H141.265L143.548 8.693H138.83L142.077 0.000549316H133.705L130.56 8.693H125.029L122.746 15.0711H128.277L123.912 27.1574H114.272L121.02 9.10439H112.802L106.154 27.5705H98.5422L96.4125 20.6255L108.691 9.46479H99.9634L90.0702 18.4667H89.3079L95.7023 0.61754H88.0401L78.3452 27.6205H71.2918L77.6341 9.72139H60.0275C57.7443 9.72139 55.2582 11.5726 54.3953 13.836L49.3208 28.0329H42.7244L49.3208 9.66952H34.8603L36.4333 5.24636H22.2762L23.799 1.02894H0V8.74486H13.3957L4.31318 33.9996H11.9241L19.4848 13.0134H26.03L18.4703 33.9996H26.1324L32.069 17.4364H38.9194L32.9829 33.9995H45.1611L49.0676 29.935C49.1188 31.9418 50.1334 33.9995 51.8581 33.9995H58.8603L63.0721 29.4717C62.9706 31.5814 64.0363 33.9995 65.8626 33.9995H72.8648L77.7867 29.1122L76.0619 33.9995H83.7241L88.2412 21.4482H89.1031L92.9593 33.9995H101.129L105.747 29.0613C105.543 31.2728 106.659 33.8439 108.538 33.8439H118.736L123.456 28.598C123.049 30.8614 124.165 33.8439 126.194 33.8439H136.395L140.809 28.9584C140.454 31.17 141.57 33.9995 143.548 33.9995H150.551L154.762 29.4717C154.66 31.5814 155.726 33.9995 157.552 33.9995H171V27.6205L162.982 27.6206ZM63.4276 27.4668H57.3897L61.3985 16.3052H67.4364L63.4276 27.4668ZM155.117 27.4668H149.08L153.139 16.3052H159.127L155.117 27.4668Z" fill="white"/>
</svg>
