<svg width="174" height="116" viewBox="0 0 174 116" fill="none" xmlns="http://www.w3.org/2000/svg">
<g clip-path="url(#clip0_3052_7693)">
<path d="M89.2258 0H59.4509L48.2578 11.2462H77.9014V41.6105L89.2258 30.2416V0Z" fill="#12181C"/>
<path d="M11.2256 11.2462H40.9576L29.6483 0H0V30.369L11.2256 41.5226V11.2462Z" fill="#12181C"/>
<path d="M11.2256 77.8664V47.565L0 58.8348V89.1516H29.8342L41.0658 77.8664H11.2256Z" fill="#12181C"/>
<path d="M89.2258 58.7812L77.9014 47.5289V77.8664H48.0898L59.4382 89.1516H89.2258V58.7812Z" fill="#12181C"/>
<path d="M0.183594 115.657V96.6366H9.08849C13.2269 96.6366 15.4817 99.431 15.4817 102.768C15.4817 106.076 13.1982 108.899 9.08849 108.899H4.23641V115.657H0.183594ZM11.3428 102.768C11.3428 101.171 10.1442 100.201 8.54608 100.201H4.23641V105.334H8.54608C10.1442 105.334 11.3428 104.336 11.3428 102.768Z" fill="#12181C"/>
<path d="M17.0215 108.756C17.0215 104.849 19.7613 101.541 24.2996 101.541C28.8661 101.541 31.606 104.849 31.606 108.756C31.606 112.691 28.8661 116 24.2996 116C19.7613 116 17.0215 112.691 17.0215 108.756ZM27.8387 108.756C27.8387 106.617 26.5544 104.764 24.2996 104.764C22.0448 104.764 20.7892 106.617 20.7892 108.756C20.7892 110.923 22.0448 112.777 24.2996 112.777C26.5544 112.777 27.8387 110.924 27.8387 108.756Z" fill="#12181C"/>
<path d="M33.4023 108.756C33.4023 104.536 36.4564 101.541 40.7087 101.541C43.5341 101.541 45.2465 102.767 46.1601 104.022L43.791 106.246C43.1343 105.276 42.1355 104.763 40.8799 104.763C38.6825 104.763 37.1414 106.36 37.1414 108.756C37.1414 111.151 38.6825 112.776 40.8799 112.776C42.136 112.776 43.1347 112.206 43.791 111.294L46.1601 113.49C45.247 114.773 43.5341 116 40.7087 116C36.456 116 33.4023 113.005 33.4023 108.756Z" fill="#12181C"/>
<path d="M51.0697 115.657V105.049H47.2168V101.884H58.576V105.049H54.7231V115.657H51.0697Z" fill="#12181C"/>
<path d="M59.9727 108.756C59.9727 104.764 62.9124 101.541 67.1078 101.541C71.2175 101.541 74.0147 104.621 74.0147 109.127V109.925H63.7686C63.9968 111.664 65.3954 113.119 67.7358 113.119C68.9058 113.119 70.5325 112.606 71.4174 111.75L73.0155 114.089C71.6456 115.344 69.4764 116 67.3359 116C63.1406 116 59.9727 113.176 59.9727 108.756ZM67.1078 104.422C64.8534 104.422 63.8829 106.104 63.7117 107.473H70.5043C70.4187 106.161 69.5051 104.422 67.1078 104.422Z" fill="#12181C"/>
<path d="M85.1735 115.657L82.0338 111.009L78.8659 115.657H74.8418L79.7226 108.585L75.1273 101.884H79.1802L82.0343 106.132L84.8597 101.884H88.9121L84.2886 108.585L89.2259 115.657H85.1735Z" fill="#12181C"/>
<path d="M99.6172 53.7254V68.0594H101.707V55.5882H104.689V68.0594H106.779V53.7254H99.6172Z" fill="#12181C"/>
<path d="M112.544 57.3006C111.918 57.3006 111.291 57.6686 110.815 58.282V57.5497H108.877V71.8836H110.815V67.344C111.271 67.9485 111.895 68.3085 112.544 68.3085C114.505 68.3085 115.629 66.2986 115.629 62.794C115.629 59.3029 114.505 57.3006 112.544 57.3006ZM113.604 62.7944C113.604 65.3002 113.124 66.5708 112.178 66.5708C111.676 66.5708 111.07 65.9085 110.815 65.0873V60.5002C111.064 59.678 111.658 59.0383 112.178 59.0383C113.124 59.0383 113.604 60.3023 113.604 62.7944Z" fill="#12181C"/>
<path d="M120.315 57.3006C118.086 57.3006 116.756 59.3542 116.756 62.7944C116.756 66.2474 118.086 68.309 120.315 68.309C122.53 68.309 123.853 66.2474 123.853 62.7944C123.853 59.3542 122.53 57.3006 120.315 57.3006ZM120.315 66.5708C119.047 66.5708 118.78 64.5171 118.78 62.7944C118.78 61.3918 118.98 59.0388 120.315 59.0388C121.651 59.0388 121.85 61.3918 121.85 62.7944C121.85 64.5171 121.584 66.5708 120.315 66.5708Z" fill="#12181C"/>
<path d="M132.015 62.7733C132.015 59.2442 130.789 57.3006 128.563 57.3006C126.368 57.3006 125.004 59.4059 125.004 62.7944C125.004 66.2474 126.447 68.309 128.866 68.309C129.99 68.309 131.025 67.689 131.781 66.5628L131.898 66.3884L130.639 65.3242L130.497 65.5644C130.095 66.2469 129.526 66.654 128.973 66.654C127.763 66.654 127.021 65.4831 126.967 63.5075H132.014V62.7733H132.015ZM128.52 58.9556C129.823 58.9556 130.048 60.9114 130.074 61.9775H126.968C126.995 61.1328 127.193 58.9556 128.52 58.9556Z" fill="#12181C"/>
<path d="M140.37 57.5497H138.227L135.404 62.4546V57.5497H133.465V68.0594H135.404V65.3336L136.342 63.7844L138.187 68.0594H140.309L137.592 62.2868L140.37 57.5497Z" fill="#12181C"/>
<path d="M140.523 57.5497V59.2672H142.293V68.0594H144.253V59.2672H146.023V57.5497H140.523Z" fill="#12181C"/>
<path d="M151.512 57.5497V61.7279H149.176V57.5497H147.238V68.0594H149.176V63.445H151.512V68.0594H153.45V57.5497H151.512Z" fill="#12181C"/>
<path d="M164.503 57.5497H162.543V68.0589H164.503V57.5497Z" fill="#12181C"/>
<path d="M158.31 61.499H157.337V57.5497H155.398V68.0589H158.31C160.341 68.0589 161.653 66.7757 161.653 64.7893C161.653 62.7907 160.341 61.499 158.31 61.499ZM157.337 63.1333H158.159C159.505 63.1333 159.651 64.2915 159.651 64.7898C159.651 65.2814 159.505 66.425 158.159 66.425H157.337V63.1333Z" fill="#12181C"/>
<path d="M173.052 62.7733C173.052 59.2442 171.826 57.3006 169.6 57.3006C167.405 57.3006 166.041 59.4059 166.041 62.7944C166.041 66.2474 167.484 68.309 169.903 68.309C171.027 68.309 172.063 67.689 172.818 66.5628L172.935 66.3884L171.676 65.3242L171.534 65.5644C171.133 66.2469 170.563 66.654 170.011 66.654C168.8 66.654 168.058 65.4831 168.004 63.5075H173.051L173.052 62.7733ZM169.557 58.9556C170.859 58.9556 171.085 60.9114 171.111 61.9775H168.005C168.031 61.1328 168.23 58.9556 169.557 58.9556Z" fill="#12181C"/>
<path d="M98.7324 79.9491H100.502V88.7408H102.462V79.9491H104.232V78.2321H98.7324V79.9491Z" fill="#12181C"/>
<path d="M108.594 77.9829C106.399 77.9829 105.035 80.0878 105.035 83.4763C105.035 86.9293 106.478 88.9904 108.897 88.9904C110.022 88.9904 111.057 88.3704 111.812 87.2442L111.929 87.0698L110.67 86.0056L110.528 86.2458C110.127 86.9283 109.557 87.3354 109.005 87.3354C107.794 87.3354 107.052 86.1645 106.998 84.1894H112.046V83.4552C112.046 79.9261 110.821 77.9829 108.594 77.9829ZM108.551 79.6375C109.853 79.6375 110.079 81.5929 110.105 82.6589H106.999C107.026 81.8143 107.224 79.6375 108.551 79.6375Z" fill="#12181C"/>
<path d="M119.513 78.2321H117.437L116.042 81.6671L114.646 78.2321H112.549L114.877 83.4326L112.414 88.7408H114.514L116.04 85.1417L117.547 88.7408H119.648L117.186 83.4326L119.513 78.2321Z" fill="#12181C"/>
<path d="M124.809 82.4098H122.473V78.2321H120.535V88.7408H122.473V84.1269H124.809V88.7408H126.747V78.2321H124.809V82.4098Z" fill="#12181C"/>
<path d="M131.844 77.9829C129.616 77.9829 128.285 80.0366 128.285 83.4763C128.285 86.9293 129.616 88.9904 131.844 88.9904C134.06 88.9904 135.383 86.9288 135.383 83.4763C135.383 80.0366 134.06 77.9829 131.844 77.9829ZM131.844 87.2522C130.576 87.2522 130.309 85.1986 130.309 83.4759C130.309 82.0737 130.509 79.7207 131.844 79.7207C133.18 79.7207 133.38 82.0737 133.38 83.4759C133.38 85.1986 133.113 87.2522 131.844 87.2522Z" fill="#12181C"/>
<path d="M137.719 83.9168C137.503 87.0012 136.984 87.2527 136.378 87.2527H136.143V88.9904H136.378C138.492 88.9904 139.442 87.5596 139.656 84.054L139.943 79.9496H141.215V88.7413H143.153V78.2325H138.1L137.719 83.9168Z" fill="#12181C"/>
<path d="M148.251 77.9829C146.022 77.9829 144.691 80.0366 144.691 83.4763C144.691 86.9293 146.022 88.9904 148.251 88.9904C150.466 88.9904 151.789 86.9288 151.789 83.4763C151.789 80.0366 150.466 77.9829 148.251 77.9829ZM148.251 87.2522C146.982 87.2522 146.716 85.1986 146.716 83.4759C146.716 82.0737 146.915 79.7207 148.251 79.7207C149.586 79.7207 149.786 82.0737 149.786 83.4759C149.786 85.1986 149.519 87.2522 148.251 87.2522Z" fill="#12181C"/>
<path d="M153.348 88.7408H155.286V79.9491H158.416V78.2321H153.348V88.7408Z" fill="#12181C"/>
<path d="M161.567 84.1452V78.2321H159.629V88.7408H161.558L163.903 82.6618V88.7408H165.841V78.2321H163.847L161.567 84.1452Z" fill="#12181C"/>
<path d="M172.007 78.2321L169.728 84.1452V78.2321H167.789V88.7408H169.718L172.063 82.6618V88.7408H174.001V78.2321H172.007Z" fill="#12181C"/>
</g>
<defs>
<clipPath id="clip0_3052_7693">
<rect width="174" height="116" fill="white"/>
</clipPath>
</defs>
</svg>
