<svg width="151" height="81" viewBox="0 0 151 81" fill="none" xmlns="http://www.w3.org/2000/svg">
<path d="M2.2499 38.2532C8.03516 40.272 13.5727 42.7054 18.999 45.5396L19.0167 45.5408C19.1015 45.5842 19.1863 45.6276 19.2715 45.6714C20.4658 46.3071 19.3616 47.9654 18.2233 47.6561C14.1068 46.5313 9.68786 43.8551 5.57096 42.7298C18.3501 56.2971 32.6307 71.819 51.1454 76.7213C69.808 81.6637 88.1648 75.5508 97.7994 59.3657C86.9461 47.8579 81.9421 30.4634 84.0492 15.0294C84.9133 8.75063 88.8086 -2.72524 97.3126 2.15739C105.336 6.75493 106.779 21.6731 107.047 29.7426C107.383 39.7828 105.175 50.1893 100.481 58.9672C101.314 59.82 102.171 60.6214 103.05 61.3712C110.891 68.0506 122.173 72.2934 132.1 67.3855C144.712 61.1509 147.54 45.4791 149.434 33.044C149.537 32.3747 150.563 32.4683 150.478 33.1391C149.028 44.8826 146.962 57.6861 137.424 65.9065C129.578 72.6649 119.209 72.7465 110.221 68.5073C106.174 66.5937 102.543 64.0126 99.3609 60.9634C93.6921 70.4652 84.8927 77.7349 73.0107 79.9912C45.0901 85.277 22.9071 65.3967 5.04196 46.687L6.83524 53.2524C7.21267 54.6443 4.98964 55.004 4.6106 53.6303C3.65633 50.1683 2.71194 46.6976 1.76515 43.245C1.66031 43.1377 1.46255 41.8894 1.36679 41.7734C1.25625 40.5669 1.76516 43.245 1.3492 41.707C1.14551 40.983 0.951699 40.2511 0.747602 39.5275C0.514473 38.6487 1.52701 37.9908 2.2499 38.2532ZM100.739 53.4815C104.376 44.5714 105.528 34.6313 104.457 25.1492C103.915 20.3406 102.858 15.4225 101.052 10.9272C100.339 9.14797 99.463 7.2107 98.1411 5.80439C94.1435 1.54696 89.4614 4.4419 87.6132 9.1487C81.5343 24.5865 87.9891 45.0332 98.9585 57.3373C99.5917 56.1003 100.193 54.8247 100.739 53.4815Z" fill="#6366F1"/>
</svg>
