<svg width="784" height="840" viewBox="0 0 784 840" fill="none" xmlns="http://www.w3.org/2000/svg">
<path d="M3.42715 680.061L5.21515 682.354C5.61875 682.871 5.39416 683.611 4.71447 684.006C4.03503 684.403 3.1572 684.304 2.75474 683.787L2.75423 683.785L0.970537 681.49C0.569471 680.973 0.793435 680.235 1.47199 679.84C2.15079 679.446 3.02609 679.544 3.42715 680.061Z" fill="#6366F1"/>
<path d="M10.3525 688.056L12.1936 690.317C12.6107 690.829 12.4201 691.574 11.7678 691.981C11.1154 692.388 10.248 692.303 9.83092 691.791L9.82955 691.79L7.99259 689.528C7.57689 689.016 7.76887 688.272 8.42034 687.866C9.07265 687.459 9.93652 687.544 10.3525 688.056Z" fill="#6366F1"/>
<path d="M16.2808 696.052L18.1713 698.279C18.6014 698.786 18.4432 699.537 17.8164 699.955C17.1896 700.373 16.3328 700.302 15.9028 699.795L15.9014 699.794L14.0147 697.565C13.586 697.058 13.7458 696.309 14.3715 695.891C14.9974 695.474 15.8521 695.546 16.2808 696.052Z" fill="#6366F1"/>
<path d="M23.213 703.047L25.1479 705.24C25.5911 705.742 25.4628 706.498 24.862 706.929C24.2612 707.36 23.4146 707.302 22.9715 706.8L22.9702 706.799L21.0379 704.603C20.5961 704.102 20.7256 703.346 21.3259 702.917C21.928 702.487 22.772 702.544 23.213 703.047Z" fill="#6366F1"/>
<path d="M30.1468 711.042L32.1246 713.202C32.5795 713.699 32.4805 714.461 31.9041 714.903C31.3276 715.346 30.4916 715.302 30.037 714.806L30.0357 714.805L28.0615 712.642C27.608 712.145 27.7072 711.385 28.2839 710.943C28.8596 710.501 29.6933 710.545 30.1468 711.042Z" fill="#6366F1"/>
<path d="M37.685 717.868L40.0318 719.903C40.5741 720.373 40.4384 721.159 39.7285 721.658C39.0187 722.157 38.0032 722.181 37.4609 721.711L37.4594 721.71L35.1171 719.672C34.5761 719.202 34.7136 718.417 35.4224 717.919C36.1313 717.421 37.144 717.398 37.685 717.868Z" fill="#6366F1"/>
<path d="M44.6109 725.865L47.0037 727.863C47.5594 728.328 47.4577 729.117 46.7763 729.629C46.0946 730.139 45.0919 730.177 44.5359 729.712L44.5344 729.711L42.1448 727.71C41.5903 727.246 41.6938 726.458 42.3758 725.948C43.0565 725.439 44.0567 725.402 44.6109 725.865Z" fill="#6366F1"/>
<path d="M52.5392 732.863L54.9753 734.825C55.5439 735.282 55.4749 736.077 54.82 736.599C54.1664 737.122 53.1744 737.174 52.6068 736.716L52.6053 736.715L50.1735 734.75C49.6061 734.292 49.6766 733.498 50.3307 732.978C50.9846 732.457 51.973 732.405 52.5392 732.863Z" fill="#6366F1"/>
<path d="M60.4711 738.859L62.9463 740.785C63.5273 741.236 63.4887 742.036 62.8619 742.57C62.2351 743.103 61.2559 743.172 60.6759 742.719L60.6744 742.719L58.2023 740.791C57.6237 740.339 57.6616 739.541 58.2887 739.008C58.9167 738.474 59.8925 738.408 60.4711 738.859Z" fill="#6366F1"/>
<path d="M68.4048 745.855L70.9164 747.743C71.5084 748.189 71.5021 748.992 70.9013 749.539C70.3005 750.086 69.3345 750.169 68.7425 749.723L68.7411 749.723L66.2322 747.831C65.6416 747.386 65.6494 746.583 66.2492 746.038C66.8494 745.493 67.814 745.41 68.4048 745.855Z" fill="#6366F1"/>
<path d="M76.3397 751.851L78.8855 753.701C79.4891 754.14 79.5117 754.948 78.9384 755.508C78.3638 756.068 77.4104 756.166 76.807 755.728L76.8056 755.727L74.2627 753.874C73.6617 753.436 73.639 752.627 74.2129 752.069C74.7866 751.511 75.7386 751.412 76.3397 751.851Z" fill="#6366F1"/>
<path d="M85.2775 758.846L87.8543 760.658C88.4676 761.09 88.5209 761.904 87.9729 762.476C87.4248 763.049 86.4831 763.164 85.8698 762.733L85.8684 762.732L83.2942 760.916C82.682 760.484 82.6303 759.672 83.1786 759.1C83.7261 758.53 84.6653 758.414 85.2775 758.846Z" fill="#6366F1"/>
<path d="M94.2166 764.841L96.8228 766.615C97.4458 767.04 97.5273 767.859 97.0047 768.445C96.4822 769.031 95.5536 769.162 94.9306 768.737L94.9292 768.736L92.3258 766.959C91.7042 766.535 91.6241 765.717 92.1458 765.132C92.6697 764.547 93.595 764.417 94.2166 764.841Z" fill="#6366F1"/>
<path d="M102.157 769.836L104.79 771.571C105.422 771.988 105.532 772.812 105.035 773.412C104.539 774.011 103.623 774.159 102.991 773.743L102.989 773.742L100.359 772.004C99.7275 771.587 99.619 770.764 100.116 770.165C100.612 769.567 101.526 769.419 102.157 769.836Z" fill="#6366F1"/>
<path d="M111.099 775.83L113.756 777.526C114.398 777.935 114.535 778.764 114.063 779.378C113.592 779.992 112.69 780.157 112.048 779.748L112.047 779.748L109.392 778.049C108.752 777.64 108.616 776.811 109.088 776.199C109.559 775.587 110.459 775.421 111.099 775.83Z" fill="#6366F1"/>
<path d="M120.043 780.825L122.722 782.479C123.372 782.881 123.536 783.716 123.09 784.343C122.643 784.972 121.754 785.155 121.105 784.754L121.104 784.754L118.427 783.096C117.778 782.696 117.615 781.862 118.062 781.234C118.508 780.607 119.395 780.423 120.043 780.825Z" fill="#6366F1"/>
<path d="M130.462 785.686L133.579 787.182C134.338 787.546 134.521 788.389 133.988 789.063C133.455 789.738 132.406 789.989 131.647 789.624L131.646 789.623L128.532 788.124C127.775 787.759 127.593 786.918 128.126 786.245C128.66 785.571 129.704 785.321 130.462 785.686Z" fill="#6366F1"/>
<path d="M140.399 790.682L143.538 792.133C144.307 792.489 144.521 793.336 144.016 794.025C143.511 794.713 142.479 794.983 141.711 794.627L141.71 794.627L138.572 793.171C137.806 792.815 137.592 791.97 138.097 791.283C138.602 790.596 139.632 790.327 140.399 790.682Z" fill="#6366F1"/>
<path d="M149.336 795.679L152.498 797.085C153.275 797.431 153.519 798.282 153.044 798.984C152.568 799.687 151.552 799.978 150.773 799.631L150.772 799.631L147.614 798.222C146.838 797.876 146.595 797.026 147.071 796.324C147.548 795.621 148.56 795.332 149.336 795.679Z" fill="#6366F1"/>
<path d="M159.274 799.675L162.455 801.035C163.241 801.371 163.516 802.226 163.069 802.943C162.622 803.661 161.621 803.971 160.835 803.635L160.834 803.634L157.656 802.271C156.871 801.934 156.598 801.08 157.046 800.363C157.493 799.648 158.49 799.339 159.274 799.675Z" fill="#6366F1"/>
<path d="M170.215 803.67L173.412 804.982C174.205 805.307 174.51 806.167 174.091 806.901C173.673 807.634 172.689 807.965 171.896 807.64L171.894 807.639L168.699 806.324C167.906 805.998 167.605 805.139 168.024 804.407C168.442 803.674 169.422 803.344 170.215 803.67Z" fill="#6366F1"/>
<path d="M180.154 807.667L183.367 808.929C184.169 809.244 184.502 810.107 184.112 810.856C183.723 811.606 182.756 811.959 181.955 811.643L181.953 811.643L178.743 810.377C177.944 810.062 177.612 809.199 178.002 808.451C178.392 807.703 179.355 807.351 180.154 807.667Z" fill="#6366F1"/>
<path d="M191.097 811.662L194.322 812.873C195.13 813.177 195.492 814.044 195.131 814.811C194.769 815.577 193.822 815.952 193.014 815.648L193.012 815.647L189.789 814.432C188.982 814.128 188.622 813.261 188.984 812.496C189.345 811.732 190.29 811.358 191.097 811.662Z" fill="#6366F1"/>
<path d="M201.041 814.658L204.269 815.815L204.276 815.818C205.09 816.109 205.48 816.98 205.148 817.763C204.816 818.546 203.887 818.944 203.073 818.652L203.072 818.651L199.834 817.487C199.022 817.194 198.633 816.324 198.965 815.543C199.297 814.762 200.228 814.365 201.041 814.658Z" fill="#6366F1"/>
<path d="M212.236 818.561L215.377 819.293C216.17 819.478 216.538 820.169 216.198 820.837C215.857 821.505 214.938 821.897 214.143 821.712L214.142 821.712L211.003 820.976C210.211 820.791 209.845 820.1 210.185 819.433C210.526 818.766 211.444 818.376 212.236 818.561Z" fill="#6366F1"/>
<path d="M223.182 821.561L226.332 822.247C227.132 822.421 227.526 823.115 227.213 823.795C226.9 824.476 225.997 824.887 225.197 824.713L225.196 824.712L222.048 824.023C221.249 823.848 220.857 823.155 221.17 822.475C221.484 821.795 222.383 821.386 223.182 821.561Z" fill="#6366F1"/>
<path d="M234.13 824.56L237.287 825.199C238.092 825.363 238.513 826.058 238.226 826.752C237.94 827.446 237.055 827.877 236.25 827.713L236.248 827.713L233.093 827.07C232.289 826.906 231.87 826.212 232.157 825.518C232.444 824.825 233.326 824.396 234.13 824.56Z" fill="#6366F1"/>
<path d="M245.078 826.559L248.24 827.151C249.051 827.303 249.498 828 249.237 828.708C248.978 829.416 248.111 829.866 247.301 829.714L247.299 829.714L244.139 829.118C243.33 828.966 242.885 828.269 243.145 827.562C243.405 826.856 244.27 826.407 245.078 826.559Z" fill="#6366F1"/>
<path d="M256.029 828.559L259.194 829.102C260.009 829.242 260.48 829.941 260.248 830.662C260.015 831.384 259.166 831.855 258.351 831.715L258.35 831.714L255.186 831.167C254.372 831.027 253.902 830.329 254.136 829.608C254.369 828.888 255.215 828.418 256.029 828.559Z" fill="#6366F1"/>
<path d="M266.979 830.558L270.146 831.051C270.965 831.179 271.462 831.879 271.255 832.615C271.049 833.351 270.219 833.843 269.401 833.715L269.398 833.715L266.233 833.217C265.416 833.088 264.92 832.389 265.127 831.654C265.334 830.921 266.162 830.429 266.979 830.558Z" fill="#6366F1"/>
<path d="M279.286 831.458L282.923 831.769C283.868 831.85 284.439 832.537 284.2 833.304C283.96 834.071 283.001 834.627 282.057 834.546L282.054 834.546L278.418 834.232C277.475 834.149 276.906 833.463 277.147 832.697C277.387 831.931 278.344 831.377 279.286 831.458Z" fill="#6366F1"/>
<path d="M290.232 832.46L293.87 832.718C294.818 832.785 295.417 833.472 295.207 834.253C294.997 835.034 294.059 835.612 293.11 835.545L293.108 835.544L289.472 835.283C288.525 835.215 287.929 834.527 288.139 833.747C288.349 832.968 289.285 832.392 290.232 832.46Z" fill="#6366F1"/>
<path d="M302.179 833.462L305.815 833.665C306.766 833.718 307.393 834.406 307.212 835.201C307.032 835.995 306.115 836.596 305.164 836.543L305.161 836.542L301.527 836.334C300.576 836.28 299.952 835.593 300.133 834.799C300.313 834.007 301.229 833.408 302.179 833.462Z" fill="#6366F1"/>
<path d="M313.127 834.463L316.758 834.61C317.713 834.649 318.366 835.337 318.216 836.146C318.066 836.955 317.17 837.58 316.216 837.541L316.213 837.541L312.583 837.389C311.629 837.35 310.979 836.662 311.129 835.853C311.28 835.047 312.174 834.424 313.127 834.463Z" fill="#6366F1"/>
<path d="M325.077 835.465L328.702 835.555C329.659 835.579 330.338 836.266 330.218 837.09C330.098 837.914 329.224 838.562 328.267 838.539L328.264 838.538L324.64 838.445C323.684 838.421 323.007 837.734 323.128 836.912C323.251 836.088 324.122 835.441 325.077 835.465Z" fill="#6366F1"/>
<path d="M336.026 835.468L339.643 835.497C340.603 835.505 341.308 836.192 341.218 837.031C341.129 837.87 340.277 838.544 339.317 838.536L339.315 838.536L335.698 838.503C334.739 838.494 334.037 837.807 334.128 836.969C334.219 836.131 335.068 835.459 336.026 835.468Z" fill="#6366F1"/>
<path d="M347.977 835.471L351.584 835.438C352.546 835.43 353.276 836.116 353.216 836.97C353.155 837.824 352.327 838.525 351.367 838.533L351.365 838.534L347.758 838.562C346.798 838.57 346.069 837.883 346.13 837.03C346.192 836.176 347.018 835.478 347.977 835.471Z" fill="#6366F1"/>
<path d="M359.927 834.474L363.523 834.377C364.485 834.351 365.241 835.036 365.212 835.907C365.182 836.778 364.377 837.504 363.416 837.53L363.414 837.53L359.818 837.624C358.857 837.649 358.103 836.963 358.134 836.094C358.163 835.224 358.966 834.499 359.927 834.474Z" fill="#6366F1"/>
<path d="M370.879 834.478L374.461 834.314C375.424 834.27 376.205 834.953 376.206 835.841C376.207 836.728 375.427 837.483 374.464 837.527L374.462 837.527L370.88 837.688C369.919 837.73 369.139 837.046 369.14 836.161C369.141 835.273 369.918 834.52 370.879 834.478Z" fill="#6366F1"/>
<path d="M382.831 833.482L386.398 833.248C387.36 833.185 388.166 833.868 388.198 834.772C388.229 835.676 387.474 836.46 386.512 836.523L386.51 836.523L382.943 836.752C381.981 836.814 381.178 836.132 381.148 835.229C381.117 834.326 381.87 833.543 382.831 833.482Z" fill="#6366F1"/>
<path d="M394.786 832.486L398.334 832.181C399.296 832.098 400.126 832.779 400.188 833.701C400.25 834.622 399.52 835.436 398.558 835.518L398.556 835.519L395.008 835.819C394.047 835.9 393.219 835.22 393.158 834.3C393.097 833.38 393.825 832.567 394.786 832.486Z" fill="#6366F1"/>
<path d="M406.007 831.448L409.495 830.928C410.445 830.786 411.24 831.251 411.271 831.967C411.301 832.683 410.556 833.377 409.607 833.519L409.604 833.52L406.115 834.036C405.166 834.177 404.374 833.712 404.344 832.997C404.315 832.281 405.058 831.588 406.007 831.448Z" fill="#6366F1"/>
<path d="M417.961 830.455L421.433 829.877C422.383 829.718 423.201 830.18 423.262 830.907C423.322 831.635 422.602 832.353 421.652 832.511L421.65 832.512L418.177 833.088C417.228 833.245 416.411 832.783 416.353 832.056C416.294 831.329 417.012 830.613 417.961 830.455Z" fill="#6366F1"/>
<path d="M429.915 828.464L433.37 827.824C434.318 827.648 435.16 828.106 435.251 828.845C435.342 829.585 434.645 830.327 433.697 830.503L433.695 830.504L430.24 831.14C429.293 831.315 428.453 830.858 428.364 830.118C428.274 829.378 428.967 828.639 429.915 828.464Z" fill="#6366F1"/>
<path d="M440.871 825.472L444.305 824.768C445.252 824.575 446.117 825.027 446.238 825.78C446.358 826.533 445.689 827.301 444.742 827.495L444.74 827.495L441.305 828.196C440.359 828.388 439.495 827.935 439.377 827.183C439.258 826.431 439.926 825.665 440.871 825.472Z" fill="#6366F1"/>
<path d="M452.827 823.482L456.239 822.711C457.183 822.498 458.071 822.945 458.222 823.712C458.373 824.478 457.731 825.272 456.787 825.485L456.784 825.486L453.372 826.253C452.429 826.466 451.542 826.017 451.392 825.251C451.243 824.486 451.885 823.693 452.827 823.482Z" fill="#6366F1"/>
<path d="M463.782 820.492L467.169 819.651C468.111 819.417 469.022 819.859 469.205 820.64C469.387 821.419 468.772 822.241 467.831 822.475L467.829 822.475L464.44 823.314C463.5 823.546 462.59 823.104 462.41 822.325C462.228 821.544 462.842 820.725 463.782 820.492Z" fill="#6366F1"/>
<path d="M475.734 817.505L479.092 816.582C480.029 816.324 480.965 816.76 481.182 817.555C481.399 818.35 480.816 819.205 479.879 819.462L479.877 819.463L476.518 820.382C475.582 820.638 474.648 820.202 474.432 819.407C474.216 818.613 474.798 817.761 475.734 817.505Z" fill="#6366F1"/>
<path d="M486.704 814.595L490.03 813.585C490.962 813.302 491.914 813.697 492.157 814.468C492.4 815.238 491.841 816.092 490.909 816.375L490.907 816.376L487.58 817.383C486.65 817.664 485.698 817.269 485.458 816.499C485.216 815.729 485.774 814.877 486.704 814.595Z" fill="#6366F1"/>
<path d="M498.677 810.699L501.969 809.604C502.895 809.296 503.863 809.643 504.13 810.381C504.397 811.118 503.863 811.964 502.938 812.272L502.936 812.272L499.642 813.363C498.717 813.67 497.752 813.322 497.485 812.586C497.22 811.851 497.752 811.006 498.677 810.699Z" fill="#6366F1"/>
<path d="M509.648 807.803L512.904 806.626C513.824 806.294 514.807 806.594 515.101 807.295C515.394 807.996 514.886 808.834 513.967 809.167L513.965 809.168L510.707 810.341C509.787 810.672 508.806 810.372 508.514 809.671C508.222 808.97 508.729 808.135 509.648 807.803Z" fill="#6366F1"/>
<path d="M520.615 802.908L523.834 801.652C524.747 801.295 525.748 801.546 526.07 802.212C526.391 802.877 525.912 803.706 524.999 804.062L524.997 804.063L521.776 805.316C520.865 805.671 519.865 805.42 519.545 804.754C519.225 804.089 519.702 803.263 520.615 802.908Z" fill="#6366F1"/>
<path d="M531.352 798.194L534.492 796.723C535.387 796.304 536.447 796.656 536.862 797.51C537.277 798.364 536.889 799.395 535.994 799.814L535.992 799.815L532.849 801.282C531.955 801.699 530.895 801.346 530.483 800.494C530.071 799.641 530.459 798.612 531.352 798.194Z" fill="#6366F1"/>
<path d="M541.322 793.332L544.411 791.759C545.295 791.309 546.372 791.598 546.817 792.403C547.262 793.208 546.907 794.226 546.024 794.675L546.022 794.677L542.93 796.246C542.048 796.694 540.972 796.404 540.528 795.6C540.085 794.795 540.439 793.78 541.322 793.332Z" fill="#6366F1"/>
<path d="M552.289 788.471L555.324 786.8C556.195 786.32 557.289 786.544 557.768 787.299C558.246 788.055 557.928 789.057 557.057 789.536L557.055 789.538L554.018 791.205C553.146 791.684 552.055 791.458 551.578 790.703C551.1 789.949 551.418 788.949 552.289 788.471Z" fill="#6366F1"/>
<path d="M563.255 782.611L566.232 780.846C567.089 780.337 568.201 780.495 568.716 781.199C569.23 781.903 568.952 782.886 568.094 783.395L568.092 783.397L565.114 785.16C564.257 785.666 563.146 785.508 562.634 784.804C562.12 784.099 562.398 783.118 563.255 782.611Z" fill="#6366F1"/>
<path d="M573.215 776.753L576.127 774.898C576.969 774.361 578.101 774.453 578.654 775.103C579.208 775.753 578.974 776.715 578.131 777.252L578.129 777.254L575.215 779.107C574.373 779.643 573.244 779.55 572.691 778.9C572.139 778.249 572.372 777.29 573.215 776.753Z" fill="#6366F1"/>
<path d="M583.172 769.899L586.013 767.957C586.838 767.393 587.99 767.417 588.587 768.011C589.184 768.605 588.999 769.543 588.174 770.107L588.172 770.109L585.329 772.048C584.505 772.61 583.353 772.585 582.759 771.991C582.162 771.397 582.348 770.461 583.172 769.899Z" fill="#6366F1"/>
<path d="M591.949 762.408L594.629 760.097C595.411 759.424 596.604 759.446 597.295 760.147C597.985 760.848 597.91 761.962 597.129 762.637L597.127 762.638L594.443 764.945C593.661 765.617 592.469 765.594 591.782 764.892C591.093 764.191 591.167 763.08 591.949 762.408Z" fill="#6366F1"/>
<path d="M600.912 755.584L603.499 753.18C604.256 752.475 605.469 752.415 606.206 753.045C606.944 753.675 606.928 754.756 606.17 755.46L606.168 755.461L603.579 757.863C602.822 758.565 601.611 758.625 600.875 757.994C600.138 757.365 600.154 756.287 600.912 755.584Z" fill="#6366F1"/>
<path d="M608.867 747.759L611.35 745.271C612.079 744.54 613.311 744.398 614.102 744.953C614.892 745.509 614.94 746.552 614.211 747.284L614.209 747.286L611.723 749.772C610.993 750.501 609.763 750.642 608.974 750.087C608.186 749.53 608.137 748.489 608.867 747.759Z" fill="#6366F1"/>
<path d="M616.822 739.933L619.191 737.372C619.889 736.616 621.141 736.393 621.988 736.872C622.835 737.352 622.954 738.354 622.255 739.11L622.253 739.111L619.882 741.671C619.183 742.426 617.932 742.648 617.088 742.168C616.243 741.687 616.123 740.687 616.822 739.933Z" fill="#6366F1"/>
<path d="M623.684 732.13L625.531 729.617C626.078 728.873 627.171 728.621 627.972 729.052C628.773 729.484 628.979 730.438 628.432 731.182L628.431 731.183L626.581 733.694C626.033 734.437 624.941 734.689 624.141 734.256C623.341 733.824 623.136 732.873 623.684 732.13Z" fill="#6366F1"/>
<path d="M629.649 723.294L631.37 720.729C631.883 719.966 632.99 719.637 633.845 719.993C634.7 720.349 634.978 721.255 634.466 722.019L634.465 722.02L632.74 724.583C632.227 725.344 631.121 725.672 630.268 725.316C629.414 724.96 629.137 724.055 629.649 723.294Z" fill="#6366F1"/>
<path d="M635.487 712.986L636.964 709.983C637.405 709.087 638.522 708.668 639.459 709.05C640.396 709.432 640.8 710.467 640.359 711.362L640.358 711.365L638.877 714.367C638.435 715.262 637.319 715.678 636.383 715.296C635.448 714.913 635.046 713.88 635.487 712.986Z" fill="#6366F1"/>
<path d="M640.464 704.152L641.796 701.113C642.196 700.203 643.323 699.707 644.313 700.006C645.303 700.306 645.782 701.287 645.383 702.197L645.382 702.199L644.046 705.236C643.645 706.145 642.52 706.638 641.531 706.339C640.542 706.039 640.064 705.061 640.464 704.152Z" fill="#6366F1"/>
<path d="M644.444 694.305L645.626 691.246C645.981 690.325 647.116 689.759 648.16 689.978C649.204 690.198 649.761 691.123 649.406 692.043L649.406 692.046L648.22 695.104C647.863 696.022 646.73 696.587 645.687 696.367C644.644 696.145 644.088 695.223 644.444 694.305Z" fill="#6366F1"/>
<path d="M648.424 684.447L649.449 681.38C649.758 680.454 650.899 679.82 651.997 679.964C653.095 680.108 653.735 680.975 653.425 681.901L653.424 681.903L652.395 684.97C652.085 685.895 650.945 686.527 649.848 686.382C648.753 686.237 648.115 685.372 648.424 684.447Z" fill="#6366F1"/>
<path d="M650.377 674.588L650.969 671.599C651.149 670.694 652.088 670.055 653.065 670.174C654.043 670.293 654.69 671.123 654.51 672.029L654.51 672.031L653.912 675.02C653.731 675.924 652.794 676.561 651.817 676.441C650.842 676.32 650.196 675.492 650.377 674.588Z" fill="#6366F1"/>
<path d="M652.371 664.709L652.816 661.727C652.952 660.82 653.89 660.125 654.912 660.175C655.933 660.225 656.652 661.001 656.516 661.908L656.516 661.91L656.067 664.892C655.93 665.798 654.992 666.491 653.971 666.44C652.951 666.389 652.234 665.615 652.371 664.709Z" fill="#6366F1"/>
<path d="M654.367 654.822L654.658 651.857C654.746 650.952 655.682 650.204 656.749 650.187C657.815 650.169 658.608 650.889 658.52 651.795L658.519 651.797L658.225 654.762C658.135 655.667 657.2 656.412 656.134 656.428C655.068 656.444 654.278 655.727 654.367 654.822Z" fill="#6366F1"/>
<path d="M654.365 644.928L654.489 641.99C654.527 641.089 655.46 640.291 656.573 640.208C657.686 640.124 658.557 640.787 658.518 641.689L658.517 641.691L658.388 644.629C658.348 645.529 657.416 646.325 656.304 646.408C655.193 646.489 654.325 645.827 654.365 644.928Z" fill="#6366F1"/>
<path d="M654.368 635.031L654.317 632.126C654.301 631.232 655.229 630.387 656.387 630.238C657.547 630.089 658.499 630.692 658.515 631.586L658.515 631.588L658.562 634.494C658.576 635.386 657.649 636.229 656.49 636.377C655.333 636.525 654.383 635.923 654.368 635.031Z" fill="#6366F1"/>
<path d="M654.373 625.128L654.029 622.295C653.924 621.421 654.626 620.592 655.598 620.444C656.571 620.295 657.444 620.883 657.55 621.757L657.551 621.759L657.89 624.593C657.995 625.466 657.292 626.293 656.32 626.441C655.35 626.587 654.478 626.001 654.373 625.128Z" fill="#6366F1"/>
<path d="M652.386 615.22L651.878 612.428C651.721 611.564 652.411 610.693 653.421 610.482C654.431 610.272 655.377 610.801 655.534 611.666L655.534 611.667L656.038 614.461C656.193 615.324 655.501 616.193 654.493 616.402C653.485 616.611 652.541 616.083 652.386 615.22Z" fill="#6366F1"/>
<path d="M650.406 605.307L649.72 602.566C649.507 601.715 650.184 600.803 651.233 600.531C652.281 600.258 653.303 600.727 653.517 601.578L653.517 601.58L654.199 604.322C654.411 605.173 653.733 606.083 652.685 606.354C651.638 606.626 650.617 606.158 650.406 605.307Z" fill="#6366F1"/>
<path d="M648.545 595.358L647.671 592.677C647.398 591.841 648.007 590.905 649.031 590.587C650.055 590.269 651.106 590.689 651.378 591.526L651.379 591.528L652.249 594.21C652.521 595.046 651.911 595.98 650.888 596.296C649.865 596.613 648.817 596.194 648.545 595.358Z" fill="#6366F1"/>
<path d="M644.747 586.379L643.708 583.776L643.705 583.766C643.378 582.947 643.889 581.997 644.847 581.645C645.806 581.293 646.847 581.672 647.174 582.491L647.175 582.493L648.219 585.121C648.545 585.94 648.032 586.888 647.074 587.239C646.117 587.59 645.077 587.21 644.751 586.391L644.747 586.379Z" fill="#6366F1"/>
<path d="M641.041 577.39L639.744 574.856C639.337 574.059 639.924 573.048 641.057 572.597C642.189 572.147 643.438 572.428 643.847 573.224L643.847 573.226L645.139 575.763C645.545 576.559 644.957 577.569 643.824 578.018C642.693 578.467 641.447 578.187 641.041 577.39Z" fill="#6366F1"/>
<path d="M636.241 568.412L634.787 565.941C634.328 565.161 634.82 564.14 635.886 563.66C636.952 563.18 638.189 563.423 638.647 564.203L638.647 564.205L640.097 566.678C640.554 567.458 640.06 568.477 638.995 568.955C637.93 569.434 636.698 569.192 636.241 568.412Z" fill="#6366F1"/>
<path d="M631.426 559.434L629.835 557.025C629.331 556.262 629.735 555.231 630.738 554.721C631.74 554.211 632.961 554.417 633.465 555.18L633.466 555.182L635.053 557.593C635.555 558.356 635.149 559.387 634.147 559.894C633.147 560.402 631.929 560.197 631.426 559.434Z" fill="#6366F1"/>
<path d="M625.593 551.458L623.882 549.109C623.338 548.362 623.66 547.32 624.602 546.781C625.545 546.242 626.749 546.411 627.293 547.157L627.295 547.159L629.002 549.51C629.545 550.256 629.22 551.296 628.279 551.834C627.336 552.371 626.135 552.204 625.593 551.458Z" fill="#6366F1"/>
<path d="M619.749 543.48L617.932 541.191C617.353 540.462 617.6 539.409 618.485 538.841C619.37 538.272 620.557 538.404 621.136 539.134L621.138 539.135L622.951 541.427C623.53 542.157 623.281 543.208 622.396 543.775C621.511 544.341 620.327 544.21 619.749 543.48Z" fill="#6366F1"/>
<path d="M612.897 535.504L610.986 533.274C610.375 532.559 610.553 531.496 611.383 530.9C612.214 530.302 613.383 530.397 613.994 531.11L613.995 531.112L615.901 533.344C616.511 534.058 616.332 535.12 615.502 535.716C614.673 536.311 613.507 536.217 612.897 535.504Z" fill="#6366F1"/>
<path d="M606.32 527.446L604.073 525.346C603.351 524.671 603.54 523.576 604.496 522.901C605.45 522.226 606.811 522.224 607.533 522.899L607.535 522.9L609.778 525.003C610.499 525.678 610.308 526.772 609.353 527.446C608.398 528.12 607.04 528.121 606.32 527.446Z" fill="#6366F1"/>
<path d="M599.466 520.462L597.134 518.427C596.38 517.769 596.498 516.666 597.397 515.965C598.295 515.262 599.634 515.225 600.387 515.883L600.388 515.885L602.718 517.923C603.469 518.581 603.351 519.682 602.452 520.383C601.553 521.083 600.218 521.12 599.466 520.462Z" fill="#6366F1"/>
<path d="M591.604 513.479L589.192 511.504C588.412 510.866 588.461 509.757 589.305 509.028C590.148 508.299 591.465 508.226 592.246 508.866L592.247 508.868L594.655 510.845C595.435 511.484 595.382 512.592 594.539 513.319C593.697 514.046 592.382 514.118 591.604 513.479Z" fill="#6366F1"/>
<path d="M583.736 507.496L581.254 505.583C580.448 504.961 580.436 503.846 581.225 503.091C582.016 502.336 583.309 502.228 584.114 502.849L584.116 502.85L586.594 504.767C587.398 505.388 587.409 506.503 586.618 507.257C585.83 508.008 584.54 508.117 583.736 507.496Z" fill="#6366F1"/>
<path d="M574.86 500.512L572.318 498.661C571.49 498.058 571.418 496.936 572.157 496.155C572.895 495.374 574.165 495.23 574.993 495.833L574.994 495.834L577.534 497.688C578.36 498.292 578.431 499.413 577.692 500.192C576.953 500.971 575.686 501.116 574.86 500.512Z" fill="#6366F1"/>
<path d="M565.975 494.529L563.379 492.74C562.531 492.156 562.402 491.028 563.091 490.219C563.779 489.412 565.025 489.232 565.873 489.816L565.875 489.818L568.469 491.609C569.315 492.194 569.443 493.321 568.754 494.128C568.064 494.933 566.822 495.114 565.975 494.529Z" fill="#6366F1"/>
<path d="M557.087 489.545L554.443 487.82C553.577 487.254 553.393 486.119 554.034 485.285C554.674 484.452 555.896 484.234 556.762 484.799L556.763 484.801L559.405 486.531C560.27 487.096 560.451 488.23 559.81 489.063C559.171 489.893 557.952 490.111 557.087 489.545Z" fill="#6366F1"/>
<path d="M547.615 483.444L544.588 481.879C543.592 481.364 543.369 480.22 544.09 479.323C544.812 478.427 546.205 478.117 547.2 478.631L547.202 478.633L550.227 480.2C551.222 480.716 551.442 481.86 550.721 482.754C549.998 483.65 548.61 483.96 547.615 483.444Z" fill="#6366F1"/>
<path d="M538.734 478.455L535.659 476.959C534.646 476.465 534.364 475.318 535.032 474.396C535.701 473.473 537.064 473.126 538.078 473.62L538.081 473.621L541.152 475.121C542.164 475.615 542.444 476.762 541.775 477.683C541.107 478.603 539.746 478.95 538.734 478.455Z" fill="#6366F1"/>
<path d="M528.861 474.47L525.745 473.054C524.712 472.585 524.368 471.432 524.976 470.48C525.584 469.529 526.915 469.137 527.949 469.606L527.952 469.607L531.066 471.026C532.098 471.496 532.44 472.647 531.831 473.598C531.22 474.549 529.893 474.939 528.861 474.47Z" fill="#6366F1"/>
<path d="M518.013 470.484L514.849 469.166C513.797 468.728 513.38 467.572 513.918 466.585C514.456 465.598 515.746 465.153 516.798 465.591L516.801 465.592L519.963 466.915C521.014 467.354 521.428 468.509 520.89 469.495C520.351 470.479 519.065 470.923 518.013 470.484Z" fill="#6366F1"/>
<path d="M508.203 466.568L505.084 465.692C504.042 465.4 503.6 464.442 504.096 463.552C504.592 462.663 505.838 462.178 506.878 462.47L506.881 462.47L509.997 463.349C511.037 463.642 511.476 464.6 510.98 465.488C510.486 466.377 509.243 466.861 508.203 466.568Z" fill="#6366F1"/>
<path d="M497.39 463.575L494.224 462.824C493.164 462.573 492.634 461.617 493.039 460.689C493.443 459.76 494.63 459.212 495.69 459.463L495.692 459.463L498.857 460.218C499.915 460.47 500.443 461.426 500.037 462.353C499.631 463.281 498.447 463.828 497.39 463.575Z" fill="#6366F1"/>
<path d="M486.593 460.582L483.395 459.984C482.318 459.784 481.692 458.83 481.995 457.856C482.297 456.882 483.414 456.255 484.491 456.456L484.494 456.457L487.69 457.058C488.765 457.26 489.39 458.212 489.085 459.185C488.783 460.159 487.668 460.785 486.593 460.582Z" fill="#6366F1"/>
<path d="M475.382 459.427L471.752 459.129C470.527 459.029 469.737 458.1 469.988 457.055C470.239 456.009 471.436 455.243 472.661 455.343L472.664 455.343L476.293 455.645C477.517 455.747 478.304 456.675 478.053 457.72C477.801 458.763 476.606 459.528 475.382 459.427Z" fill="#6366F1"/>
<path d="M463.647 458.417L460.009 458.355C458.777 458.335 457.866 457.423 457.973 456.317C458.08 455.212 459.164 454.332 460.395 454.353L460.398 454.353L464.036 454.418C465.266 454.44 466.176 455.353 466.068 456.457C465.959 457.562 464.877 458.439 463.647 458.417Z" fill="#6366F1"/>
<path d="M452.921 458.408L449.35 458.782C448.137 458.909 447.163 458.238 447.174 457.284C447.185 456.33 448.178 455.453 449.39 455.326L449.392 455.325L452.965 454.954C454.176 454.828 455.148 455.499 455.136 456.453C455.122 457.407 454.132 458.282 452.921 458.408Z" fill="#6366F1"/>
<path d="M441.182 460.366L437.655 461.017C436.454 461.239 435.363 460.602 435.218 459.594C435.073 458.586 435.93 457.589 437.131 457.367L437.133 457.366L440.659 456.719C441.859 456.499 442.949 457.136 443.092 458.144C443.235 459.151 442.382 460.146 441.182 460.366Z" fill="#6366F1"/>
<path d="M429.429 462.275L425.994 463.268C424.82 463.607 423.619 463.029 423.312 461.977C423.004 460.923 423.707 459.795 424.881 459.456L424.884 459.455L428.32 458.465C429.493 458.128 430.692 458.707 430.998 459.758C431.304 460.811 430.603 461.937 429.429 462.275Z" fill="#6366F1"/>
<path d="M418.587 465.831L415.273 467.172C414.138 467.631 412.871 467.271 412.443 466.367C412.015 465.464 412.587 464.359 413.722 463.899L413.725 463.898L417.042 462.561C418.175 462.103 419.441 462.464 419.867 463.367C420.293 464.271 419.721 465.373 418.587 465.831Z" fill="#6366F1"/>
<path d="M408.706 471.211L405.593 473.018C404.522 473.641 403.149 473.369 402.526 472.414C401.904 471.459 402.267 470.179 403.339 469.557L403.342 469.555L406.457 467.75C407.527 467.13 408.898 467.402 409.519 468.358C410.14 469.315 409.776 470.591 408.706 471.211Z" fill="#6366F1"/>
<path d="M398.862 476.71L395.956 478.821C394.953 479.55 393.517 479.523 392.75 478.76C391.983 477.997 392.174 476.787 393.177 476.059L393.179 476.057L396.088 473.948C397.092 473.221 398.525 473.249 399.291 474.012C400.057 474.775 399.866 475.982 398.862 476.71Z" fill="#6366F1"/>
<path d="M390.191 484.469L387.921 486.703C387.135 487.477 385.817 487.625 384.979 487.035C384.14 486.445 384.099 485.339 384.885 484.566L384.887 484.565L387.16 482.334C387.946 481.563 389.263 481.415 390.099 482.006C390.936 482.595 390.978 483.697 390.191 484.469Z" fill="#6366F1"/>
<path d="M382.194 491.65L380.278 494.37C379.611 495.315 378.252 495.647 377.24 495.109C376.227 494.572 375.948 493.37 376.614 492.424L376.616 492.422L378.536 489.703C379.202 488.759 380.561 488.43 381.571 488.968C382.58 489.506 382.86 490.706 382.194 491.65Z" fill="#6366F1"/>
<path d="M377.281 501.256L375.658 504.086C375.091 505.072 373.708 505.589 372.567 505.239C371.426 504.888 370.96 503.805 371.526 502.819L371.528 502.816L373.155 499.987C373.722 499.002 375.104 498.487 376.244 498.839C377.383 499.189 377.848 500.271 377.281 501.256Z" fill="#6366F1"/>
<path d="M372.439 511.176L371.413 513.974C371.054 514.953 369.866 515.566 368.759 515.344C367.652 515.12 367.047 514.146 367.405 513.168L367.405 513.165L368.436 510.368C368.795 509.39 369.983 508.778 371.088 509.002C372.193 509.226 372.798 510.199 372.439 511.176Z" fill="#6366F1"/>
<path d="M369.316 520.322L368.706 523.533C368.492 524.659 367.322 525.467 366.094 525.337C364.867 525.206 364.044 524.185 364.259 523.059L364.259 523.056L364.874 519.845C365.09 518.719 366.259 517.914 367.486 518.046C368.712 518.179 369.532 519.197 369.316 520.322Z" fill="#6366F1"/>
<path d="M368.327 530.03L368.058 533.22C367.963 534.343 366.81 535.283 365.481 535.32C364.153 535.356 363.153 534.475 363.247 533.351L363.248 533.348L363.522 530.158C363.617 529.035 364.772 528.097 366.098 528.062C367.425 528.027 368.423 528.907 368.327 530.03Z" fill="#6366F1"/>
<path d="M367.364 540.027L367.603 543.125C367.687 544.217 366.781 545.215 365.578 545.352C364.376 545.489 363.332 544.714 363.248 543.622L363.249 543.62L363.014 540.522C362.932 539.43 363.838 538.434 365.04 538.299C366.24 538.163 367.281 538.935 367.364 540.027Z" fill="#6366F1"/>
<path d="M368.331 549.787L368.95 552.792C369.171 553.859 368.304 554.963 367.016 555.259C365.729 555.554 364.506 554.929 364.286 553.863L364.285 553.86L363.669 550.855C363.451 549.788 364.317 548.686 365.604 548.392C366.893 548.097 368.112 548.72 368.331 549.787Z" fill="#6366F1"/>
<path d="M371.094 558.636L372.098 561.531C372.455 562.56 371.719 563.727 370.454 564.137C369.19 564.547 367.875 564.045 367.518 563.015L367.517 563.013L366.518 560.116C366.163 559.088 366.9 557.923 368.163 557.514C369.426 557.106 370.738 557.607 371.094 558.636Z" fill="#6366F1"/>
<path d="M374.702 568.552L376.018 571.336C376.488 572.329 375.948 573.529 374.812 574.016C373.677 574.503 372.376 574.092 371.906 573.099L371.906 573.096L370.593 570.311C370.126 569.318 370.666 568.12 371.801 567.635C372.936 567.15 374.234 567.559 374.702 568.552Z" fill="#6366F1"/>
<path d="M378.37 577.474L379.929 580.152C380.486 581.111 380.113 582.34 379.094 582.9C378.075 583.459 376.797 583.136 376.239 582.178L376.237 582.175L374.682 579.496C374.126 578.538 374.502 577.309 375.521 576.751C376.539 576.194 377.814 576.516 378.37 577.474Z" fill="#6366F1"/>
<path d="M384.84 585.192L386.776 587.713C387.472 588.619 387.131 589.908 386.014 590.592C384.898 591.276 383.428 591.097 382.733 590.191L382.731 590.189L380.798 587.666C380.104 586.76 380.447 585.472 381.563 584.79C382.68 584.107 384.146 584.286 384.84 585.192Z" fill="#6366F1"/>
<path d="M391.549 593.135L393.67 595.551C394.432 596.42 394.235 597.727 393.228 598.471C392.221 599.216 390.786 599.115 390.023 598.247L390.021 598.245L387.904 595.828C387.143 594.958 387.342 593.652 388.35 592.91C389.357 592.167 390.788 592.267 391.549 593.135Z" fill="#6366F1"/>
<path d="M398.294 600.084L400.561 602.393C401.378 603.225 401.307 604.55 400.4 605.353C399.494 606.155 398.096 606.131 397.278 605.298L397.276 605.296L395.012 602.985C394.197 602.152 394.27 600.828 395.176 600.028C396.084 599.228 397.479 599.252 398.294 600.084Z" fill="#6366F1"/>
<path d="M406.713 606.869L409.348 608.975L409.366 608.99C410.327 609.757 410.315 611.111 409.341 612.013C408.366 612.915 406.798 613.024 405.838 612.257L405.836 612.256L403.169 610.119C402.212 609.351 402.225 607.998 403.199 607.099C404.172 606.199 405.74 606.091 406.697 606.859L406.713 606.869Z" fill="#6366F1"/>
<path d="M414.699 613.657L417.371 615.296C418.341 615.892 418.399 617.075 417.499 617.939C416.599 618.801 415.082 619.017 414.11 618.422L414.108 618.42L411.439 616.778C410.47 616.181 410.413 614.999 411.315 614.137C412.216 613.276 413.729 613.059 414.699 613.657Z" fill="#6366F1"/>
<path d="M423.473 619.632L426.246 621.165C427.257 621.724 427.426 622.912 426.621 623.818C425.817 624.724 424.344 625.005 423.332 624.445L423.329 624.444L420.559 622.908C419.55 622.348 419.382 621.161 420.188 620.256C420.994 619.353 422.463 619.072 423.473 619.632Z" fill="#6366F1"/>
<path d="M432.261 624.609L435.119 626.032C436.165 626.553 436.438 627.744 435.726 628.694C435.014 629.643 433.589 629.991 432.543 629.469L432.54 629.468L429.685 628.041C428.641 627.518 428.371 626.328 429.082 625.38C429.795 624.433 431.216 624.088 432.261 624.609Z" fill="#6366F1"/>
<path d="M442.062 629.587L444.991 630.898C446.066 631.38 446.435 632.574 445.813 633.567C445.192 634.559 443.817 634.974 442.742 634.491L442.739 634.49L439.813 633.175C438.74 632.693 438.374 631.498 438.996 630.508C439.617 629.518 440.989 629.105 442.062 629.587Z" fill="#6366F1"/>
<path d="M451.874 633.566L454.859 634.762C455.958 635.201 456.417 636.398 455.885 637.434C455.352 638.47 454.03 638.952 452.931 638.513L452.928 638.511L449.945 637.312C448.848 636.871 448.391 635.675 448.924 634.641C449.456 633.607 450.776 633.125 451.874 633.566Z" fill="#6366F1"/>
<path d="M463.175 636.413L466.565 637.386C467.817 637.745 468.39 638.934 467.845 640.042C467.301 641.15 465.845 641.756 464.593 641.397L464.59 641.396L461.201 640.418C459.952 640.059 459.381 638.87 459.927 637.764C460.473 636.657 461.926 636.052 463.175 636.413Z" fill="#6366F1"/>
<path d="M473.982 639.401L477.414 640.245C478.684 640.557 479.349 641.743 478.9 642.892C478.451 644.042 477.057 644.72 475.787 644.408L475.784 644.408L472.353 643.56C471.084 643.246 470.422 642.062 470.872 640.913C471.324 639.765 472.714 639.087 473.982 639.401Z" fill="#6366F1"/>
<path d="M484.798 641.392L488.26 642.099C489.544 642.361 490.298 643.541 489.943 644.734C489.587 645.927 488.259 646.68 486.974 646.418L486.971 646.418L483.511 645.706C482.228 645.442 481.477 644.263 481.833 643.071C482.188 641.881 483.515 641.128 484.798 641.392Z" fill="#6366F1"/>
<path d="M495.877 644.31L499.289 644.636C500.559 644.756 501.336 645.711 501.025 646.768C500.714 647.825 499.431 648.583 498.161 648.462L498.159 648.462L494.747 648.134C493.479 648.012 492.704 647.057 493.016 646.002C493.33 644.944 494.609 644.187 495.877 644.31Z" fill="#6366F1"/>
<path d="M506.706 645.314L510.13 645.509C511.409 645.581 512.267 646.524 512.046 647.615C511.825 648.706 510.61 649.531 509.331 649.459L509.329 649.459L505.905 649.261C504.629 649.187 503.773 648.244 503.994 647.154C504.216 646.064 505.428 645.24 506.706 645.314Z" fill="#6366F1"/>
<path d="M518.543 645.32L521.967 645.373C523.251 645.394 524.186 646.323 524.057 647.45C523.928 648.576 522.784 649.472 521.5 649.452L521.496 649.452L518.072 649.395C516.791 649.373 515.857 648.443 515.987 647.318C516.119 646.193 517.26 645.298 518.543 645.32Z" fill="#6366F1"/>
<path d="M529.378 645.329L532.792 645.232C534.076 645.195 535.087 646.108 535.051 647.27C535.015 648.433 533.944 649.406 532.66 649.443L532.657 649.443L529.243 649.537C527.96 649.573 526.951 648.659 526.989 647.498C527.028 646.335 528.095 645.365 529.378 645.329Z" fill="#6366F1"/>
<path d="M541.22 644.343L544.613 644.081C545.893 643.981 546.978 644.875 547.035 646.075C547.093 647.276 546.102 648.33 544.822 648.429L544.818 648.429L541.425 648.687C540.146 648.785 539.064 647.891 539.009 646.691C538.953 645.492 539.941 644.441 541.22 644.343Z" fill="#6366F1"/>
<path d="M553.065 643.362L556.423 642.92C557.695 642.752 558.85 643.622 559.003 644.862C559.157 646.101 558.25 647.243 556.978 647.41L556.975 647.411L553.616 647.849C552.346 648.016 551.193 647.145 551.04 645.906C550.89 644.666 551.794 643.528 553.065 643.362Z" fill="#6366F1"/>
<path d="M564.176 642.35L567.473 641.656C568.726 641.393 569.888 642.014 570.07 643.044C570.251 644.074 569.384 645.122 568.131 645.385L568.128 645.386L564.83 646.077C563.578 646.339 562.419 645.717 562.239 644.688C562.059 643.658 562.925 642.611 564.176 642.35Z" fill="#6366F1"/>
<path d="M576.026 639.386L579.276 638.516C580.514 638.185 581.743 638.775 582.021 639.833C582.299 640.892 581.522 642.019 580.285 642.349L580.281 642.35L577.031 643.216C575.794 643.545 574.567 642.955 574.291 641.896C574.014 640.838 574.79 639.715 576.026 639.386Z" fill="#6366F1"/>
<path d="M586.921 635.571L590.114 634.526C591.333 634.126 592.605 634.619 592.957 635.624C593.309 636.629 592.605 637.768 591.388 638.167L591.384 638.168L588.191 639.21C586.973 639.607 585.702 639.114 585.352 638.11C585.003 637.105 585.703 635.969 586.921 635.571Z" fill="#6366F1"/>
<path d="M597.587 630.887L600.699 629.617C601.891 629.13 603.25 629.693 603.734 630.872C604.218 632.052 603.645 633.403 602.453 633.889L602.45 633.89L599.336 635.156C598.145 635.641 596.788 635.077 596.305 633.897C595.824 632.719 596.396 631.372 597.587 630.887Z" fill="#6366F1"/>
<path d="M608.513 627.112L611.555 625.677C612.723 625.127 614.111 625.572 614.656 626.673C615.2 627.774 614.695 629.112 613.527 629.664L613.524 629.665L610.481 631.096C609.313 631.645 607.926 631.198 607.383 630.098C606.842 628.997 607.345 627.661 608.513 627.112Z" fill="#6366F1"/>
<path d="M619.444 622.32L622.415 620.743C623.559 620.135 624.976 620.474 625.579 621.499C626.183 622.523 625.744 623.847 624.6 624.455L624.597 624.457L621.624 626.031C620.48 626.636 619.065 626.297 618.463 625.272C617.863 624.246 618.301 622.925 619.444 622.32Z" fill="#6366F1"/>
<path d="M629.376 616.512L632.275 614.812C633.395 614.155 634.839 614.395 635.499 615.347C636.16 616.299 635.788 617.605 634.668 618.262L634.665 618.264L631.764 619.961C630.644 620.616 629.203 620.375 628.543 619.422C627.885 618.47 628.256 617.169 629.376 616.512Z" fill="#6366F1"/>
<path d="M639.309 611.691L642.136 609.884C643.231 609.184 644.7 609.333 645.417 610.216C646.133 611.099 645.826 612.383 644.731 613.084L644.728 613.086L641.899 614.889C640.804 615.588 639.337 615.437 638.622 614.555C637.908 613.671 638.215 612.39 639.309 611.691Z" fill="#6366F1"/>
<path d="M649.248 604.856L652.002 602.957C653.072 602.22 654.564 602.284 655.335 603.102C656.106 603.92 655.863 605.18 654.793 605.919L654.79 605.92L652.034 607.816C650.963 608.552 649.473 608.486 648.704 607.669C647.936 606.85 648.178 605.592 649.248 604.856Z" fill="#6366F1"/>
<path d="M657.993 597.313L660.61 595.107C661.629 594.247 663.165 594.31 664.04 595.247C664.915 596.183 664.797 597.64 663.778 598.5L663.776 598.502L661.157 600.704C660.137 601.562 658.602 601.497 657.73 600.56C656.857 599.624 656.974 598.171 657.993 597.313Z" fill="#6366F1"/>
<path d="M666.947 590.478L669.484 588.189C670.476 587.294 672.029 587.273 672.952 588.141C673.876 589.009 673.821 590.439 672.829 591.333L672.827 591.335L670.287 593.622C669.295 594.514 667.744 594.535 666.821 593.666C665.9 592.797 665.954 591.371 666.947 590.478Z" fill="#6366F1"/>
<path d="M675.899 583.634L678.355 581.273C679.319 580.347 680.889 580.246 681.861 581.048C682.833 581.85 682.84 583.251 681.877 584.177L681.875 584.179L679.416 586.537C678.451 587.462 676.884 587.561 675.913 586.759C674.943 585.956 674.935 584.558 675.899 583.634Z" fill="#6366F1"/>
<path d="M683.854 575.783L686.231 573.357C687.166 572.404 688.75 572.229 689.769 572.967C690.787 573.704 690.857 575.075 689.923 576.029L689.921 576.03L687.54 578.453C686.605 579.405 685.023 579.578 684.005 578.84C682.988 578.101 682.919 576.733 683.854 575.783Z" fill="#6366F1"/>
<path d="M691.81 567.924L694.108 565.442C695.012 564.464 696.61 564.22 697.674 564.895C698.74 565.571 698.87 566.911 697.965 567.888L697.963 567.889L695.662 570.369C694.757 571.345 693.162 571.587 692.098 570.911C691.036 570.236 690.906 568.899 691.81 567.924Z" fill="#6366F1"/>
<path d="M698.767 559.054L700.979 556.529C701.854 555.53 703.464 555.219 704.576 555.834C705.687 556.45 705.881 557.758 705.005 558.756L705.003 558.759L702.788 561.283C701.912 562.279 700.303 562.589 699.194 561.973C698.084 561.356 697.892 560.051 698.767 559.054Z" fill="#6366F1"/>
<path d="M705.729 551.181L707.855 548.616C708.698 547.598 710.321 547.225 711.478 547.781C712.636 548.337 712.891 549.613 712.047 550.63L712.045 550.633L709.914 553.196C709.07 554.212 707.449 554.584 706.294 554.027C705.139 553.47 704.885 552.197 705.729 551.181Z" fill="#6366F1"/>
<path d="M712.691 542.305L714.731 539.703C715.541 538.67 717.173 538.236 718.376 538.734C719.579 539.232 719.896 540.473 719.086 541.506L719.084 541.508L717.039 544.108C716.228 545.14 714.597 545.572 713.397 545.073C712.196 544.574 711.879 543.336 712.691 542.305Z" fill="#6366F1"/>
<path d="M718.5 532.88L720.358 529.931C721.099 528.755 722.74 528.257 724.023 528.82C725.306 529.382 725.745 530.792 725.004 531.968L725.002 531.97L723.14 534.918C722.398 536.093 720.758 536.587 719.477 536.024C718.197 535.46 717.757 534.055 718.5 532.88Z" fill="#6366F1"/>
<path d="M724.39 523.025L725.857 520.132C726.444 518.975 727.881 518.475 729.069 519.017C730.255 519.558 730.742 520.935 730.155 522.092L730.153 522.094L728.682 524.985C728.094 526.141 726.658 526.638 725.472 526.096C724.287 525.554 723.802 524.18 724.39 523.025Z" fill="#6366F1"/>
<path d="M729.37 514.134L730.759 511.217C731.317 510.047 732.757 509.494 733.976 509.98C735.195 510.468 735.732 511.812 735.174 512.982L735.173 512.985L733.779 515.9C733.222 517.069 731.781 517.62 730.564 517.132C729.347 516.643 728.812 515.303 729.37 514.134Z" fill="#6366F1"/>
<path d="M734.352 505.237L735.663 502.301C736.191 501.12 737.633 500.515 738.884 500.951C740.134 501.387 740.721 502.698 740.193 503.879L740.192 503.882L738.876 506.816C738.347 507.997 736.907 508.598 735.657 508.162C734.408 507.724 733.822 506.417 734.352 505.237Z" fill="#6366F1"/>
<path d="M739.334 495.333L740.57 492.383C741.068 491.192 742.511 490.54 743.793 490.927C745.075 491.313 745.708 492.592 745.21 493.783L745.209 493.786L743.969 496.735C743.47 497.924 742.027 498.574 740.747 498.186C739.468 497.797 738.835 496.523 739.334 495.333Z" fill="#6366F1"/>
<path d="M743.319 485.423L744.479 482.462C744.949 481.264 746.392 480.568 747.703 480.908C749.014 481.248 749.696 482.495 749.226 483.694L749.224 483.696L748.06 486.656C747.589 487.852 746.146 488.546 744.837 488.206C743.528 487.864 742.848 486.619 743.319 485.423Z" fill="#6366F1"/>
<path d="M747.302 475.506L748.391 472.538C748.833 471.333 750.275 470.597 751.614 470.893C752.953 471.189 753.679 472.405 753.238 473.609L753.237 473.613L752.145 476.58C751.701 477.783 750.26 478.518 748.923 478.22C747.586 477.922 746.86 476.709 747.302 475.506Z" fill="#6366F1"/>
<path d="M751.291 466.584L752.308 463.611C752.722 462.402 754.164 461.627 755.529 461.882C756.893 462.136 757.664 463.323 757.25 464.532L757.25 464.535L756.229 467.507C755.813 468.715 754.371 469.487 753.008 469.232C751.644 468.975 750.875 467.791 751.291 466.584Z" fill="#6366F1"/>
<path d="M754.281 456.655L755.23 453.681C755.616 452.468 757.058 451.658 758.447 451.873C759.837 452.088 760.651 453.247 760.264 454.46L760.263 454.462L759.311 457.437C758.923 458.649 757.482 459.456 756.093 459.239C754.704 459.023 753.893 457.868 754.281 456.655Z" fill="#6366F1"/>
<path d="M757.269 446.72L758.151 443.749C758.512 442.532 759.952 441.69 761.365 441.869C762.779 442.048 763.633 443.179 763.272 444.396L763.271 444.399L762.385 447.369C762.022 448.585 760.583 449.425 759.171 449.245C757.758 449.065 756.907 447.936 757.269 446.72Z" fill="#6366F1"/>
<path d="M760.261 436.782L761.08 433.812C761.416 432.593 762.853 431.721 764.288 431.866C765.725 432.01 766.617 433.115 766.28 434.335L766.28 434.337L765.457 437.306C765.119 438.524 763.683 439.393 762.248 439.248C760.813 439.103 759.923 438 760.261 436.782Z" fill="#6366F1"/>
<path d="M762.253 426.838L763.013 423.871C763.325 422.65 764.758 421.752 766.215 421.864C767.672 421.977 768.6 423.057 768.288 424.277L768.287 424.28L767.524 427.247C767.21 428.467 765.776 429.363 764.321 429.249C762.865 429.135 761.939 428.058 762.253 426.838Z" fill="#6366F1"/>
<path d="M764.248 415.889L764.95 412.927C765.239 411.706 766.67 410.782 768.147 410.865C769.623 410.947 770.585 412.004 770.296 413.225L770.296 413.229L769.59 416.191C769.3 417.411 767.868 418.332 766.394 418.249C764.918 418.164 763.958 417.109 764.248 415.889Z" fill="#6366F1"/>
<path d="M766.243 405.937L766.89 402.98C767.157 401.758 768.585 400.812 770.08 400.867C771.575 400.921 772.569 401.957 772.302 403.178L772.302 403.181L771.65 406.138C771.381 407.358 769.953 408.303 768.46 408.247C766.967 408.19 765.974 407.158 766.243 405.937Z" fill="#6366F1"/>
<path d="M768.235 395.98L768.831 393.03C769.077 391.808 770.504 390.841 772.015 390.869C773.526 390.898 774.551 391.913 774.305 393.135L774.305 393.138L773.704 396.088C773.455 397.31 772.031 398.275 770.52 398.244C769.011 398.214 767.988 397.202 768.235 395.98Z" fill="#6366F1"/>
<path d="M770.232 386.018L770.779 383.077C771.006 381.854 772.428 380.867 773.956 380.873C775.483 380.879 776.537 381.874 776.31 383.097L776.309 383.101L775.758 386.042C775.529 387.264 774.107 388.248 772.581 388.24C771.054 388.234 770.002 387.24 770.232 386.018Z" fill="#6366F1"/>
<path d="M771.23 376.048L771.731 373.122C771.938 371.9 773.356 370.895 774.898 370.877C776.44 370.859 777.523 371.836 777.315 373.059L777.314 373.065L776.806 376C776.595 377.221 775.175 378.223 773.635 378.237C772.095 378.251 771.018 377.273 771.229 376.052L771.23 376.048Z" fill="#6366F1"/>
<path d="M772.224 366.084L772.684 363.161C772.876 361.938 774.293 360.917 775.848 360.882C777.404 360.846 778.509 361.808 778.316 363.031L778.316 363.034L777.852 365.958C777.658 367.179 776.241 368.198 774.688 368.232C773.134 368.266 772.03 367.307 772.224 366.084Z" fill="#6366F1"/>
<path d="M774.221 356.117L774.637 353.201C774.813 351.979 776.225 350.943 777.795 350.886C779.363 350.831 780.494 351.776 780.32 352.999L780.319 353.002L779.897 355.917C779.721 357.139 778.308 358.173 776.74 358.227C775.174 358.281 774.045 357.337 774.221 356.117Z" fill="#6366F1"/>
<path d="M774.202 346.153L774.418 343.291C774.509 342.088 775.694 341.099 777.063 341.082C778.433 341.065 779.47 342.028 779.379 343.231L779.379 343.234L779.158 346.096C779.066 347.298 777.88 348.286 776.512 348.301C775.144 348.315 774.11 347.355 774.202 346.153Z" fill="#6366F1"/>
<path d="M775.202 335.184L775.38 332.33C775.456 331.127 776.636 330.122 778.016 330.087C779.397 330.051 780.455 330.997 780.38 332.2L780.38 332.203L780.197 335.057C780.121 336.26 778.94 337.262 777.56 337.296C776.181 337.331 775.124 336.386 775.202 335.184Z" fill="#6366F1"/>
<path d="M776.199 325.215L776.34 322.369C776.399 321.167 777.576 320.146 778.967 320.091C780.358 320.036 781.438 320.967 781.379 322.17L781.378 322.173L781.234 325.018C781.173 326.22 779.996 327.238 778.607 327.292C777.215 327.345 776.138 326.417 776.199 325.215Z" fill="#6366F1"/>
<path d="M776.096 314.872L776.096 311.665C776.095 310.304 777.241 309.175 778.655 309.144C780.069 309.112 781.216 310.188 781.216 311.549L781.215 311.552L781.213 314.76C781.212 316.12 780.065 317.246 778.653 317.276C777.239 317.306 776.095 316.231 776.096 314.872Z" fill="#6366F1"/>
<path d="M777.095 304.906L777.056 301.707C777.039 300.347 778.18 299.202 779.604 299.149C781.029 299.095 782.196 300.154 782.213 301.514L782.212 301.518L782.248 304.717C782.263 306.075 781.123 307.219 779.699 307.271C778.276 307.322 777.111 306.265 777.095 304.906Z" fill="#6366F1"/>
<path d="M777.097 294.94L777.018 291.751C776.984 290.391 778.119 289.229 779.554 289.154C780.988 289.08 782.178 290.12 782.211 291.481L782.211 291.484L782.286 294.674C782.318 296.032 781.181 297.193 779.749 297.266C778.316 297.337 777.128 296.298 777.097 294.94Z" fill="#6366F1"/>
<path d="M777.1 284.974L776.983 281.795C776.932 280.436 778.061 279.257 779.506 279.16C780.949 279.065 782.162 280.089 782.212 281.447L782.212 281.451L782.325 284.63C782.374 285.988 781.243 287.165 779.8 287.26C778.358 287.354 777.149 286.332 777.1 284.974Z" fill="#6366F1"/>
<path d="M777.1 275.007L776.943 271.838C776.876 270.48 778 269.284 779.454 269.167C780.907 269.05 782.141 270.056 782.208 271.414L782.207 271.417L782.361 274.587C782.427 275.944 781.302 277.138 779.849 277.252C778.397 277.367 777.166 276.364 777.1 275.007Z" fill="#6366F1"/>
<path d="M776.103 265.04L775.905 261.883C775.821 260.525 776.938 259.313 778.402 259.175C779.866 259.037 781.121 260.024 781.206 261.381L781.206 261.385L781.399 264.543C781.482 265.899 780.364 267.108 778.901 267.245C777.438 267.382 776.186 266.397 776.103 265.04Z" fill="#6366F1"/>
<path d="M776.105 255.073L775.868 251.927C775.765 250.571 776.877 249.343 778.35 249.183C779.823 249.023 781.1 249.993 781.203 251.348L781.203 251.351L781.436 254.498C781.536 255.853 780.424 257.08 778.951 257.237C777.48 257.394 776.206 256.428 776.105 255.073Z" fill="#6366F1"/>
<path d="M775.108 245.106L774.831 241.971C774.71 240.617 775.815 239.372 777.298 239.192C778.78 239.011 780.08 239.962 780.2 241.316L780.201 241.319L780.475 244.454C780.594 245.807 779.488 247.049 778.007 247.228C776.523 247.408 775.226 246.459 775.108 245.106Z" fill="#6366F1"/>
<path d="M774.111 235.137L773.792 232.015C773.653 230.663 774.752 229.403 776.244 229.201C777.736 228.999 779.058 229.932 779.197 231.284L779.198 231.287L779.513 234.41C779.649 235.761 778.55 237.019 777.058 237.219C775.567 237.419 774.247 236.489 774.111 235.137Z" fill="#6366F1"/>
<path d="M773.115 225.17L772.755 222.06C772.598 220.71 773.689 219.435 775.19 219.211C776.692 218.988 778.036 219.902 778.194 221.252L778.194 221.255L778.551 224.365C778.706 225.714 777.615 226.987 776.114 227.209C774.612 227.43 773.269 226.518 773.115 225.17Z" fill="#6366F1"/>
<path d="M772.118 215.2L771.716 212.104C771.541 210.756 772.624 209.466 774.136 209.222C775.648 208.978 777.014 209.872 777.189 211.22L777.19 211.223L777.588 214.32C777.762 215.668 776.677 216.956 775.167 217.198C773.657 217.439 772.292 216.547 772.118 215.2Z" fill="#6366F1"/>
<path d="M771.125 205.232L770.68 202.15C770.485 200.805 771.561 199.499 773.082 199.233C774.602 198.968 775.993 199.844 776.187 201.189L776.188 201.192L776.628 204.275C776.82 205.62 775.744 206.924 774.224 207.187C772.705 207.45 771.317 206.577 771.125 205.232Z" fill="#6366F1"/>
<path d="M769.127 195.263L768.64 192.195C768.427 190.853 769.495 189.532 771.024 189.245C772.555 188.959 773.967 189.815 774.181 191.158L774.181 191.161L774.665 194.23C774.876 195.572 773.808 196.89 772.279 197.175C770.749 197.459 769.338 196.605 769.127 195.263Z" fill="#6366F1"/>
<path d="M768.133 185.294L767.602 182.241C767.369 180.9 768.429 179.566 769.967 179.258C771.506 178.951 772.943 179.788 773.175 181.127L773.176 181.13L773.702 184.185C773.933 185.523 772.874 186.857 771.334 187.163C769.797 187.469 768.363 186.634 768.133 185.294Z" fill="#6366F1"/>
<path d="M766.14 175.325L765.565 172.287C765.313 170.95 766.363 169.6 767.912 169.271C769.459 168.943 770.919 169.759 771.172 171.096L771.173 171.099L771.742 174.139C771.993 175.474 770.942 176.823 769.395 177.149C767.848 177.475 766.391 176.66 766.14 175.325Z" fill="#6366F1"/>
<path d="M764.144 165.355L763.525 162.333C763.252 161 764.294 159.636 765.851 159.285C767.408 158.936 768.891 159.733 769.164 161.066L769.165 161.069L769.779 164.092C770.049 165.425 769.007 166.787 767.452 167.135C765.894 167.483 764.414 166.688 764.144 165.355Z" fill="#6366F1"/>
<path d="M762.152 155.385L761.489 152.379C761.196 151.05 762.228 149.671 763.794 149.3C765.36 148.929 766.867 149.706 767.16 151.035L767.161 151.038L767.819 154.046C768.109 155.374 767.076 156.751 765.511 157.121C763.946 157.489 762.442 156.714 762.152 155.385Z" fill="#6366F1"/>
<path d="M760.156 146.415L759.448 143.426C759.135 142.1 760.157 140.708 761.732 140.315C763.306 139.923 764.838 140.679 765.151 142.006L765.152 142.008L765.855 144.999C766.167 146.324 765.144 147.715 763.569 148.105C761.995 148.495 760.468 147.739 760.156 146.415Z" fill="#6366F1"/>
<path d="M758.166 136.445L757.412 133.472C757.078 132.151 758.09 130.745 759.673 130.332C761.256 129.918 762.811 130.653 763.146 131.975L763.147 131.978L763.895 134.952C764.227 136.273 763.214 137.677 761.632 138.09C760.049 138.501 758.499 137.766 758.166 136.445Z" fill="#6366F1"/>
<path d="M755.173 126.475L754.374 123.52C754.018 122.203 755.019 120.783 756.611 120.348C758.203 119.913 759.782 120.628 760.138 121.946L760.139 121.949L760.934 124.906C761.287 126.222 760.285 127.64 758.694 128.073C757.103 128.505 755.527 127.792 755.173 126.475Z" fill="#6366F1"/>
<path d="M752.206 117.499L751.36 114.561C750.982 113.248 751.964 111.818 753.551 111.365C755.139 110.912 756.733 111.61 757.111 112.922L757.112 112.925L757.953 115.863C758.328 117.175 757.345 118.604 755.759 119.055C754.172 119.505 752.581 118.811 752.206 117.499Z" fill="#6366F1"/>
<path d="M749.261 107.516L748.37 104.596C747.971 103.288 748.921 101.849 750.49 101.383C752.061 100.916 753.656 101.598 754.055 102.905L754.056 102.908L754.943 105.829C755.339 107.137 754.389 108.573 752.819 109.037C751.252 109.503 749.658 108.824 749.261 107.516Z" fill="#6366F1"/>
<path d="M746.316 98.5306L745.381 95.6296C744.961 94.3271 745.878 92.8812 747.43 92.4002C748.983 91.9193 750.58 92.586 751.001 93.8895L751.001 93.8924L751.932 96.7947C752.35 98.0978 751.43 99.5412 749.88 100.02C748.329 100.499 746.733 99.8337 746.316 98.5306Z" fill="#6366F1"/>
<path d="M743.37 88.5473L742.392 85.664C741.951 84.3662 742.837 82.913 744.371 82.4181C745.905 81.9236 747.505 82.5741 747.946 83.8729L747.947 83.8758L748.921 86.7604C749.359 88.0579 748.472 89.5095 746.939 90.0017C745.406 90.494 743.808 89.8448 743.37 88.5473Z" fill="#6366F1"/>
<path d="M740.424 79.564L739.404 76.6988C738.943 75.4054 739.797 73.9458 741.313 73.4364C742.828 72.9279 744.429 73.5633 744.891 74.8564L744.892 74.8593L745.909 77.7255C746.368 79.0183 745.511 80.4766 743.996 80.9837C742.481 81.4909 740.882 80.8571 740.424 79.564Z" fill="#6366F1"/>
<path d="M737.479 69.5799L736.416 66.7334C735.935 65.4453 736.759 63.9776 738.256 63.4545C739.754 62.9314 741.356 63.5522 741.837 64.8404L741.838 64.8434L742.897 67.691C743.375 68.9788 742.55 70.4446 741.054 70.9654C739.557 71.4862 737.958 70.8677 737.479 69.5799Z" fill="#6366F1"/>
<path d="M733.53 60.5965L732.427 57.7682C731.927 56.485 732.72 55.0096 734.198 54.473C735.678 53.9361 737.282 54.5395 737.782 55.8228L737.783 55.8257L738.882 58.6552C739.38 59.9378 738.585 61.4115 737.107 61.9471C735.63 62.4824 734.028 61.8794 733.53 60.5965Z" fill="#6366F1"/>
<path d="M729.585 51.6133L728.442 48.8035C727.923 47.5262 728.685 46.0431 730.146 45.4916C731.606 44.9401 733.211 45.5289 733.73 46.8071L733.731 46.8101L734.87 49.6208C735.388 50.8987 734.624 52.3792 733.165 52.9281C731.705 53.4783 730.103 52.891 729.585 51.6133Z" fill="#6366F1"/>
<path d="M725.638 41.6296L724.457 38.8392C723.918 37.5667 724.649 36.0766 726.091 35.5106C727.533 34.9446 729.139 35.5172 729.678 36.7898L729.679 36.7927L730.856 39.5853C731.393 40.8574 730.659 42.3459 729.218 42.9096C727.777 43.4733 726.175 42.9018 725.638 41.6296Z" fill="#6366F1"/>
<path d="M721.689 32.6472L720.469 29.8745C719.911 28.6075 720.613 27.1102 722.037 26.5297C723.46 25.9493 725.065 26.5063 725.623 27.7733L725.624 27.7762L726.84 30.5498C727.395 31.8164 726.692 33.3121 725.269 33.8903C723.847 34.4695 722.244 33.9138 721.689 32.6472Z" fill="#6366F1"/>
<path d="M717.743 23.6633L716.486 20.9102C715.91 19.6486 716.582 18.144 717.987 17.549C719.392 16.954 720.997 17.4945 721.573 18.7561L721.574 18.759L722.827 21.5134C723.4 22.7746 722.727 24.2775 721.323 24.8712C719.919 25.464 718.317 24.9245 717.743 23.6633Z" fill="#6366F1"/>
<path d="M713.793 14.68L712.5 11.9461C711.906 10.6907 712.548 9.17808 713.934 8.56857C715.32 7.95907 716.925 8.48325 717.519 9.73957L717.52 9.74247L718.809 12.4785C719.401 13.7344 718.758 15.2444 717.372 15.8517C715.987 16.4587 714.385 15.9359 713.793 14.68Z" fill="#6366F1"/>
<path d="M708.438 5.72451L708.084 5.00897C707.443 3.71301 708.116 2.12905 709.586 1.46955C711.057 0.809742 712.768 1.3262 713.409 2.62115L713.41 2.62422L713.762 3.34002C714.401 4.6356 713.728 6.21964 712.257 6.87744C710.787 7.53461 709.078 7.01977 708.438 5.72451Z" fill="#6366F1"/>
</svg>
