<svg fill="none" xmlns="http://www.w3.org/2000/svg">
<symbol width="330" height="251" viewBox="0 0 330 251" id="reviews-sticker">
<g filter="url(#filter0_b_1110_4780)">
<rect width="311" height="78" rx="23.8552" transform="matrix(0.998658 -0.0517963 0.0528812 0.998601 3 87)" fill="#FAFAFA" fill-opacity="0.1"/>
</g>
<g filter="url(#filter1_ddddiiiiii_1110_4780)">
<rect width="311" height="78" rx="23.8552" transform="matrix(0.998658 -0.0517963 0.0528812 0.998601 3 87)" fill="white"/>
</g>
<path d="M58.7681 133.713L57.7687 114.84L60.8795 114.678L61.3005 122.63L71.2272 122.115L70.8061 114.163L73.917 114.002L74.9164 132.876L71.8056 133.037L71.3836 125.068L61.4569 125.583L61.8789 133.552L58.7681 133.713ZM84.9668 132.88C83.5571 132.953 82.3609 132.758 81.3784 132.295C80.4069 131.82 79.654 131.17 79.1196 130.345C78.5969 129.519 78.3086 128.599 78.255 127.586C78.2025 126.595 78.3436 125.729 78.6782 124.988C79.0238 124.234 79.5277 123.6 80.1898 123.087C80.8513 122.562 81.6523 122.135 82.5929 121.806C83.4771 121.515 84.4679 121.253 85.5655 121.021C86.6742 120.776 87.7954 120.549 88.9291 120.338C90.0629 120.127 91.1213 119.926 92.1042 119.735L91.02 120.44C90.9661 118.76 90.5625 117.537 89.8092 116.77C89.0676 116.003 87.8346 115.663 86.1102 115.753C84.9684 115.812 83.9803 116.126 83.1459 116.695C82.3225 117.252 81.7669 118.122 81.4791 119.305L78.4784 118.567C78.8452 116.889 79.656 115.544 80.911 114.533C82.1659 113.522 83.8594 112.961 85.9916 112.85C87.7043 112.761 89.1886 112.994 90.4447 113.548C91.7118 114.09 92.646 114.964 93.2473 116.171C93.5462 116.74 93.7487 117.366 93.855 118.05C93.9607 118.722 94.0333 119.431 94.0728 120.176L94.691 131.85L91.9297 131.993L91.69 127.467L92.3588 127.853C91.7289 129.416 90.7939 130.621 89.5536 131.468C88.325 132.315 86.796 132.785 84.9668 132.88ZM85.3008 130.252C86.4193 130.194 87.3759 129.946 88.1705 129.507C88.9761 129.056 89.6121 128.492 90.0786 127.814C90.5444 127.123 90.8324 126.384 90.9425 125.596C91.0864 125.004 91.1454 124.353 91.1194 123.642C91.1044 122.918 91.0868 122.364 91.0664 121.98L92.175 122.395C91.1687 122.588 90.1797 122.773 89.2078 122.952C88.2359 123.131 87.317 123.319 86.4512 123.516C85.5848 123.701 84.8073 123.911 84.1187 124.145C83.6147 124.335 83.1423 124.569 82.7015 124.849C82.2723 125.128 81.9287 125.479 81.6707 125.901C81.4237 126.311 81.3159 126.814 81.3474 127.408C81.3745 127.92 81.5286 128.403 81.8096 128.856C82.1023 129.308 82.5301 129.665 83.0931 129.928C83.6678 130.19 84.4037 130.298 85.3008 130.252ZM98.9792 131.628L97.9797 112.754L100.986 112.598L101.835 128.641L108.336 128.304L107.487 112.261L110.493 112.105L111.342 128.148L117.826 127.811L116.977 111.769L119.983 111.613L120.982 130.486L98.9792 131.628ZM141.077 129.97C139.306 130.062 137.792 129.702 136.534 128.891C135.275 128.069 134.291 126.922 133.583 125.452C132.885 123.97 132.486 122.29 132.387 120.415C132.287 118.516 132.505 116.799 133.043 115.264C133.593 113.728 134.45 112.498 135.617 111.573C136.794 110.647 138.269 110.139 140.04 110.047C141.787 109.956 143.313 110.315 144.618 111.124C145.933 111.92 146.969 113.052 147.724 114.52C148.48 115.988 148.907 117.665 149.007 119.553C149.107 121.44 148.859 123.153 148.263 124.691C147.667 126.229 146.757 127.473 145.534 128.424C144.322 129.364 142.836 129.879 141.077 129.97ZM132.808 138.284L131.364 111.023L134.143 110.878L134.878 124.771L135.228 124.753L135.936 138.122L132.808 138.284ZM140.542 127.141C141.788 127.077 142.803 126.709 143.585 126.037C144.367 125.366 144.934 124.484 145.285 123.391C145.635 122.286 145.775 121.064 145.704 119.724C145.634 118.396 145.366 117.206 144.902 116.156C144.449 115.104 143.786 114.286 142.914 113.7C142.054 113.114 140.983 112.854 139.701 112.921C138.478 112.984 137.48 113.34 136.708 113.987C135.936 114.623 135.38 115.487 135.04 116.58C134.7 117.66 134.568 118.9 134.642 120.298C134.714 121.672 134.972 122.892 135.414 123.955C135.866 125.006 136.517 125.82 137.365 126.395C138.213 126.958 139.272 127.207 140.542 127.141ZM161.308 128.921C159.455 129.017 157.814 128.693 156.384 127.949C154.966 127.193 153.833 126.101 152.986 124.673C152.139 123.234 151.663 121.529 151.559 119.561C151.45 117.498 151.734 115.696 152.412 114.154C153.089 112.6 154.082 111.381 155.39 110.495C156.709 109.597 158.284 109.101 160.113 109.006C162.012 108.907 163.649 109.26 165.023 110.065C166.409 110.87 167.477 112.064 168.227 113.649C168.989 115.234 169.382 117.147 169.407 119.388L166.262 119.551L166.202 118.433C166.045 116.116 165.481 114.411 164.512 113.316C163.542 112.21 162.16 111.703 160.366 111.796C158.443 111.896 157.014 112.589 156.077 113.876C155.141 115.163 154.733 116.96 154.856 119.267C154.973 121.492 155.566 123.19 156.632 124.362C157.699 125.533 159.159 126.071 161.011 125.975C162.258 125.91 163.326 125.568 164.217 124.95C165.107 124.331 165.786 123.472 166.253 122.373L169.296 123.249C168.651 124.953 167.612 126.304 166.181 127.301C164.761 128.286 163.137 128.826 161.308 128.921ZM153.853 120.195L153.721 117.696L167.667 116.973L167.8 119.472L153.853 120.195ZM180.524 106.265C179.65 106.31 178.841 106.136 178.096 105.742C177.35 105.349 176.743 104.808 176.275 104.12C175.805 103.42 175.547 102.627 175.5 101.742L178.017 101.611C178.05 102.228 178.299 102.747 178.765 103.167C179.231 103.587 179.773 103.78 180.391 103.748C181.02 103.716 181.538 103.467 181.946 103.002C182.365 102.536 182.559 101.995 182.526 101.377L185.043 101.247C185.089 102.132 184.916 102.947 184.524 103.692C184.142 104.424 183.595 105.025 182.884 105.494C182.185 105.963 181.398 106.22 180.524 106.265ZM187.963 108.087L188.963 126.961L185.957 127.116L185.22 113.206L176.065 127.63L173.496 127.763L172.497 108.889L175.503 108.733L176.229 122.452L185.412 108.219L187.963 108.087ZM198.617 126.46L197.768 110.417L191.197 110.758L191.047 107.927L207.3 107.084L207.45 109.915L200.879 110.256L201.728 126.298L198.617 126.46ZM225.819 106.124L226.819 124.997L223.813 125.153L223.076 111.243L213.921 125.666L211.352 125.799L210.352 106.926L213.358 106.77L214.085 120.488L223.268 106.256L225.819 106.124ZM231.457 124.757L230.458 105.883L233.569 105.722L233.99 113.673L243.916 113.158L243.495 105.207L246.606 105.045L247.606 123.919L244.495 124.08L244.073 116.111L234.146 116.626L234.568 124.595L231.457 124.757ZM252.263 123.677L251.264 104.804L264.371 104.124L264.527 107.077L254.531 107.596L255.374 123.516L252.263 123.677Z" fill="#232326"/>
<g filter="url(#filter2_b_1110_4780)">
<rect width="228" height="77" rx="23.8552" transform="matrix(0.998623 0.0524578 -0.0522144 0.998636 40 150)" fill="#FAFAFA" fill-opacity="0.1"/>
</g>
<g filter="url(#filter3_ddddiiiiii_1110_4780)">
<rect width="228" height="77" rx="23.8552" transform="matrix(0.998623 0.0524578 -0.0522144 0.998636 40 150)" fill="white"/>
</g>
<path d="M74.5062 186.843L74.7218 182.713C74.3083 182.897 73.8272 183.04 73.2784 183.144C72.73 183.24 72.1555 183.272 71.555 183.24C70.3394 183.176 69.3759 182.854 68.6645 182.273C67.9609 181.685 67.5262 180.869 67.3604 179.825C67.3179 179.515 67.2904 179.197 67.2779 178.874C67.2658 178.542 67.2632 178.241 67.27 177.97C67.2842 177.699 67.2947 177.498 67.3016 177.366L67.4473 174.576L69.776 174.698L69.6303 177.488C69.6204 177.679 69.6145 177.932 69.6127 178.247C69.6113 178.556 69.6359 178.858 69.6865 179.154C69.7913 179.821 70.0439 180.326 70.4445 180.67C70.8455 181.007 71.4268 181.196 72.1884 181.236C72.7376 181.265 73.2356 181.221 73.6823 181.105C74.1366 180.982 74.5199 180.815 74.832 180.604L75.1256 174.979L77.4434 175.101L76.824 186.965L74.5062 186.843ZM90.5248 175.789L89.9053 187.653L87.6974 187.537L88.1281 179.287L81.7656 187.225L79.8982 187.127L80.5176 175.263L82.7256 175.379L82.3034 183.464L88.6684 175.692L90.5248 175.789ZM96.0398 187.976L96.5515 178.177L92.4981 177.964L92.6059 175.899L103.009 176.446L102.901 178.511L98.8473 178.298L98.3357 188.097L96.0398 187.976ZM107.465 188.907C106.586 188.861 105.858 188.661 105.282 188.308C104.706 187.947 104.278 187.491 103.999 186.941C103.727 186.383 103.607 185.782 103.641 185.137C103.672 184.537 103.806 184.015 104.042 183.572C104.278 183.129 104.613 182.761 105.047 182.468C105.481 182.168 106.008 181.935 106.626 181.769C107.161 181.643 107.765 181.539 108.437 181.457C109.11 181.375 109.815 181.302 110.553 181.238C111.298 181.174 112.035 181.11 112.766 181.046L111.907 181.463C111.97 180.534 111.808 179.835 111.422 179.367C111.042 178.892 110.359 178.628 109.37 178.576C108.748 178.543 108.169 178.66 107.633 178.925C107.099 179.184 106.711 179.641 106.471 180.296L104.364 179.525C104.71 178.522 105.309 177.742 106.16 177.185C107.019 176.628 108.133 176.385 109.503 176.457C110.565 176.513 111.478 176.745 112.242 177.152C113.014 177.553 113.563 178.154 113.888 178.957C114.058 179.355 114.154 179.771 114.176 180.206C114.197 180.64 114.195 181.106 114.169 181.604L113.787 188.909L111.755 188.803L111.897 186.089L112.274 186.462C111.736 187.344 111.074 187.988 110.289 188.395C109.512 188.795 108.57 188.966 107.465 188.907ZM107.969 187.05C108.621 187.085 109.187 187.001 109.668 186.798C110.149 186.588 110.541 186.312 110.846 185.968C111.15 185.624 111.356 185.26 111.464 184.877C111.607 184.532 111.697 184.14 111.735 183.701C111.78 183.263 111.809 182.912 111.823 182.649L112.556 182.963C111.825 183.034 111.161 183.098 110.563 183.155C109.965 183.212 109.422 183.271 108.934 183.334C108.454 183.389 108.024 183.466 107.645 183.563C107.324 183.657 107.035 183.774 106.778 183.914C106.528 184.055 106.325 184.232 106.167 184.444C106.016 184.656 105.933 184.92 105.916 185.235C105.9 185.543 105.962 185.832 106.102 186.104C106.242 186.368 106.466 186.586 106.773 186.756C107.08 186.926 107.479 187.024 107.969 187.05ZM122.625 176.112C122.046 176.082 121.523 175.911 121.054 175.6C120.593 175.289 120.232 174.888 119.972 174.397C119.711 173.906 119.596 173.368 119.626 172.782L121.45 172.878C121.431 173.244 121.546 173.566 121.796 173.843C122.046 174.121 122.354 174.269 122.72 174.289C123.094 174.308 123.415 174.193 123.685 173.943C123.963 173.693 124.111 173.385 124.13 173.019L125.954 173.115C125.923 173.701 125.753 174.224 125.442 174.685C125.132 175.146 124.727 175.507 124.229 175.767C123.738 176.027 123.203 176.142 122.625 176.112ZM127.255 177.721L126.636 189.585L124.428 189.469L124.859 181.219L118.496 189.157L116.629 189.059L117.248 177.195L119.456 177.311L119.034 185.396L125.399 177.624L127.255 177.721ZM132.77 189.908L133.282 180.109L129.229 179.896L129.336 177.831L139.739 178.378L139.631 180.443L135.578 180.23L135.066 190.029L132.77 189.908ZM146.45 190.958C145.271 190.896 144.248 190.585 143.381 190.026C142.522 189.459 141.868 188.701 141.418 187.752C140.976 186.796 140.787 185.707 140.851 184.484C140.918 183.188 141.219 182.076 141.752 181.15C142.292 180.223 143.012 179.523 143.91 179.049C144.809 178.575 145.837 178.368 146.994 178.429C148.202 178.493 149.216 178.829 150.036 179.437C150.857 180.039 151.449 180.867 151.812 181.921C152.183 182.976 152.288 184.212 152.125 185.628L149.83 185.507L149.873 184.672C149.93 183.295 149.72 182.263 149.242 181.577C148.771 180.891 148.015 180.521 146.976 180.466C145.826 180.406 144.943 180.723 144.326 181.417C143.71 182.112 143.366 183.144 143.295 184.513C143.226 185.817 143.463 186.843 144.004 187.591C144.545 188.332 145.362 188.731 146.453 188.788C147.171 188.826 147.798 188.697 148.335 188.402C148.879 188.101 149.314 187.654 149.638 187.061L151.853 187.894C151.336 188.931 150.594 189.718 149.626 190.255C148.658 190.784 147.6 191.018 146.45 190.958ZM142.514 185.122L142.607 183.332L151.077 183.777L150.983 185.568L142.514 185.122ZM163.847 191.873C162.661 191.811 161.646 191.489 160.802 190.909C159.959 190.328 159.323 189.557 158.896 188.595C158.477 187.625 158.299 186.525 158.364 185.295C158.428 184.057 158.727 182.983 159.259 182.071C159.792 181.151 160.507 180.455 161.406 179.98C162.305 179.499 163.336 179.289 164.501 179.35C165.687 179.413 166.702 179.734 167.546 180.314C168.389 180.895 169.025 181.666 169.452 182.629C169.879 183.591 170.06 184.684 169.996 185.907C169.932 187.145 169.633 188.223 169.101 189.142C168.576 190.055 167.863 190.755 166.964 191.244C166.065 191.725 165.026 191.935 163.847 191.873ZM163.96 189.709C165.095 189.769 165.961 189.432 166.557 188.7C167.161 187.961 167.495 186.987 167.558 185.779C167.622 184.541 167.388 183.537 166.856 182.768C166.331 181.991 165.508 181.573 164.388 181.514C163.619 181.474 162.976 181.616 162.46 181.942C161.944 182.26 161.549 182.72 161.275 183.322C161.002 183.917 160.844 184.618 160.802 185.423C160.737 186.668 160.971 187.679 161.503 188.456C162.035 189.233 162.854 189.651 163.96 189.709ZM174.907 192.124L175.419 182.326L171.366 182.113L171.473 180.047L181.876 180.595L181.768 182.66L177.715 182.447L177.203 192.245L174.907 192.124ZM187.554 193.12C186.405 193.06 185.385 192.76 184.495 192.221C183.613 191.683 182.93 190.968 182.448 190.076L184.334 188.974C184.729 189.568 185.197 190.037 185.737 190.381C186.284 190.725 186.909 190.916 187.612 190.953C188.345 190.992 188.932 190.857 189.374 190.55C189.823 190.236 190.063 189.797 190.092 189.233C190.116 188.786 190.008 188.45 189.771 188.225C189.54 187.992 189.211 187.832 188.782 187.743C188.361 187.655 187.879 187.597 187.337 187.568L186.283 187.513L186.379 185.667L187.434 185.723C188.152 185.76 188.746 185.692 189.218 185.519C189.697 185.339 189.952 184.966 189.981 184.403C190.01 183.853 189.829 183.447 189.439 183.184C189.056 182.922 188.59 182.776 188.041 182.747C187.426 182.715 186.822 182.815 186.23 183.049C185.638 183.274 185.116 183.566 184.664 183.925L183.406 182.283C184.067 181.709 184.81 181.274 185.633 180.979C186.464 180.678 187.344 180.552 188.274 180.601C189.036 180.641 189.732 180.813 190.362 181.118C191 181.416 191.499 181.835 191.86 182.375C192.229 182.916 192.393 183.567 192.353 184.329C192.322 184.922 192.162 185.457 191.873 185.934C191.584 186.411 191.158 186.836 190.595 187.211L190.569 186.427C191.009 186.59 191.371 186.833 191.655 187.156C191.939 187.48 192.143 187.854 192.268 188.279C192.4 188.697 192.455 189.137 192.431 189.598C192.389 190.397 192.141 191.067 191.687 191.608C191.24 192.15 190.654 192.549 189.928 192.804C189.202 193.06 188.411 193.165 187.554 193.12ZM194.659 193.163L195.279 181.3L197.586 181.421L197.371 185.54L198.93 185.622C199.267 185.64 199.629 185.666 200.017 185.701C200.404 185.737 200.732 185.79 201 185.863C201.63 186.029 202.171 186.277 202.624 186.61C203.077 186.942 203.414 187.371 203.636 187.897C203.866 188.415 203.962 189.045 203.923 189.784C203.869 190.817 203.559 191.627 202.992 192.214C202.426 192.793 201.68 193.165 200.753 193.33C200.457 193.38 200.107 193.406 199.703 193.407C199.306 193.4 198.94 193.389 198.603 193.371L194.659 193.163ZM197.063 191.439L198.831 191.532C199.022 191.542 199.234 191.546 199.469 191.544C199.705 191.541 199.922 191.52 200.123 191.479C200.472 191.395 200.794 191.202 201.089 190.902C201.384 190.602 201.545 190.188 201.572 189.661C201.601 189.119 201.484 188.679 201.223 188.342C200.969 188.006 200.635 187.779 200.223 187.662C200.035 187.601 199.835 187.557 199.624 187.531C199.42 187.506 199.226 187.488 199.043 187.479L197.274 187.386L197.063 191.439ZM205.029 193.709L205.649 181.845L207.944 181.966L207.325 193.83L205.029 193.709ZM210.386 193.991L211.005 182.127L216.223 182.401C216.567 182.419 216.91 182.459 217.252 182.521C217.594 182.576 217.895 182.647 218.155 182.734C218.747 182.934 219.242 183.298 219.64 183.826C220.039 184.346 220.217 185.024 220.173 185.858C220.148 186.334 220.054 186.733 219.89 187.055C219.727 187.37 219.511 187.637 219.243 187.858C219.12 187.955 218.991 188.04 218.855 188.113C218.719 188.187 218.584 188.242 218.45 188.279C218.718 188.337 218.981 188.447 219.237 188.607C219.628 188.841 219.942 189.166 220.177 189.582C220.42 189.991 220.524 190.529 220.489 191.195C220.448 191.994 220.219 192.654 219.802 193.175C219.386 193.689 218.818 194.027 218.097 194.187C217.815 194.253 217.497 194.291 217.144 194.302C216.798 194.313 216.453 194.31 216.109 194.292L210.386 193.991ZM212.809 192.301L216.061 192.472C216.214 192.48 216.391 192.474 216.59 192.455C216.789 192.436 216.967 192.405 217.124 192.362C217.459 192.277 217.703 192.103 217.856 191.839C218.017 191.576 218.105 191.29 218.121 190.983C218.143 190.565 218.05 190.226 217.844 189.966C217.637 189.698 217.368 189.518 217.035 189.428C216.891 189.369 216.731 189.331 216.556 189.314C216.381 189.298 216.231 189.286 216.106 189.28L212.976 189.115L212.809 192.301ZM213.072 187.269L215.642 187.405C215.855 187.416 216.071 187.416 216.292 187.406C216.513 187.388 216.706 187.35 216.871 187.293C217.162 187.198 217.384 187.026 217.537 186.777C217.69 186.521 217.774 186.239 217.79 185.931C217.808 185.595 217.746 185.29 217.606 185.018C217.466 184.747 217.245 184.552 216.943 184.433C216.735 184.348 216.491 184.295 216.213 184.273C215.943 184.244 215.771 184.228 215.698 184.224L213.238 184.095L213.072 187.269ZM222.508 194.628L223.127 182.764L225.434 182.886L225.219 187.005L226.779 187.087C227.116 187.105 227.478 187.131 227.865 187.166C228.252 187.201 228.58 187.255 228.848 187.328C229.478 187.493 230.02 187.742 230.472 188.075C230.925 188.407 231.262 188.836 231.485 189.361C231.714 189.88 231.81 190.509 231.771 191.249C231.718 192.282 231.407 193.092 230.841 193.679C230.274 194.258 229.528 194.63 228.601 194.795C228.305 194.845 227.955 194.871 227.551 194.871C227.155 194.865 226.788 194.853 226.451 194.836L222.508 194.628ZM224.911 192.904L226.679 192.997C226.87 193.007 227.083 193.011 227.318 193.009C227.553 193.006 227.771 192.985 227.971 192.944C228.32 192.859 228.643 192.667 228.937 192.367C229.232 192.067 229.393 191.653 229.421 191.125C229.449 190.584 229.332 190.144 229.071 189.807C228.817 189.471 228.484 189.244 228.071 189.127C227.883 189.066 227.684 189.022 227.472 188.996C227.268 188.971 227.074 188.953 226.891 188.944L225.122 188.851L224.911 192.904ZM232.877 195.174L233.497 183.31L235.793 183.431L235.173 195.294L232.877 195.174ZM58.6172 209.039L59.2367 197.175L61.5325 197.296L61.2796 202.141L67.0686 202.445L67.3215 197.601L69.6173 197.721L68.9979 209.585L66.702 209.465L66.9556 204.609L61.1666 204.305L60.913 209.16L58.6172 209.039ZM75.4135 210.253C74.5347 210.207 73.8071 210.007 73.2307 209.654C72.6548 209.293 72.227 208.837 71.9473 208.286C71.6753 207.729 71.5562 207.128 71.5898 206.483C71.6212 205.883 71.7549 205.361 71.991 204.918C72.2271 204.475 72.5621 204.107 72.9959 203.814C73.4302 203.514 73.9564 203.281 74.5745 203.115C75.1098 202.989 75.7137 202.885 76.3863 202.803C77.0588 202.721 77.7639 202.648 78.5016 202.584C79.2466 202.52 79.9843 202.456 80.7146 202.392L79.8557 202.809C79.9189 201.88 79.7571 201.181 79.3703 200.713C78.9913 200.238 78.3074 199.974 77.3188 199.922C76.6963 199.889 76.1174 200.006 75.5822 200.271C75.0473 200.53 74.66 200.987 74.4201 201.642L72.3125 200.87C72.6586 199.868 73.2574 199.088 74.109 198.531C74.9678 197.974 76.082 197.731 77.4514 197.803C78.5133 197.859 79.4265 198.091 80.1909 198.498C80.9631 198.898 81.5118 199.5 81.8371 200.303C82.0072 200.701 82.103 201.117 82.1243 201.552C82.1457 201.986 82.1434 202.452 82.1174 202.95L81.736 210.255L79.7038 210.148L79.8454 207.435L80.2225 207.807C79.6845 208.69 79.023 209.334 78.238 209.741C77.4608 210.141 76.5193 210.311 75.4135 210.253ZM75.918 208.396C76.5697 208.43 77.1359 208.346 77.6164 208.144C78.0974 207.934 78.49 207.658 78.7943 207.314C79.0987 206.97 79.3049 206.606 79.4131 206.223C79.5559 205.878 79.6461 205.486 79.6837 205.047C79.7286 204.609 79.758 204.258 79.7717 203.995L80.5044 204.308C79.7736 204.38 79.1094 204.444 78.5116 204.501C77.9139 204.558 77.371 204.617 76.8831 204.68C76.4029 204.735 75.973 204.812 75.5934 204.909C75.2727 205.003 74.9839 205.12 74.7269 205.26C74.4772 205.401 74.2734 205.578 74.1154 205.79C73.9648 206.002 73.8813 206.266 73.8648 206.581C73.8488 206.888 73.9108 207.178 74.0508 207.45C74.1912 207.714 74.4148 207.932 74.7217 208.102C75.0286 208.272 75.4273 208.37 75.918 208.396ZM103.264 211.388L103.884 199.524L106.18 199.645L105.927 204.489L111.716 204.794L111.969 199.949L114.265 200.07L113.645 211.934L111.349 211.813L111.603 206.958L105.814 206.653L105.56 211.509L103.264 211.388ZM115.711 214.686L115.945 210.204C116.597 210.239 117.073 210.047 117.374 209.629C117.683 209.205 117.948 208.474 118.172 207.435C118.307 206.804 118.427 206.131 118.53 205.416C118.641 204.703 118.744 203.93 118.839 203.097C118.934 202.258 119.034 201.334 119.138 200.326L127.64 200.773L127.117 210.792L128.281 210.853L128.047 215.335L125.872 215.221L126.01 212.584L118.035 212.165L117.897 214.801L115.711 214.686ZM119.23 210.377L124.81 210.671L125.237 202.498L121.084 202.279C121.03 202.761 120.971 203.257 120.908 203.768C120.851 204.279 120.788 204.786 120.718 205.289C120.655 205.793 120.586 206.274 120.51 206.732C120.435 207.191 120.355 207.605 120.269 207.975C120.151 208.549 120.02 209.027 119.875 209.409C119.738 209.791 119.522 210.113 119.23 210.377ZM135.617 213.42C134.438 213.358 133.415 213.047 132.549 212.488C131.69 211.921 131.035 211.163 130.586 210.214C130.144 209.258 129.954 208.169 130.018 206.946C130.086 205.65 130.386 204.538 130.919 203.612C131.46 202.685 132.179 201.985 133.078 201.511C133.976 201.037 135.004 200.83 136.161 200.891C137.37 200.955 138.384 201.291 139.204 201.899C140.024 202.501 140.616 203.329 140.98 204.383C141.351 205.438 141.455 206.674 141.293 208.09L138.997 207.969L139.041 207.134C139.098 205.757 138.887 204.725 138.409 204.039C137.938 203.353 137.183 202.983 136.143 202.928C134.993 202.868 134.11 203.185 133.494 203.879C132.878 204.574 132.534 205.606 132.462 206.975C132.394 208.279 132.63 209.305 133.172 210.053C133.713 210.794 134.529 211.193 135.62 211.25C136.338 211.288 136.965 211.159 137.502 210.864C138.047 210.563 138.481 210.116 138.806 209.523L141.02 210.356C140.504 211.393 139.761 212.18 138.793 212.717C137.826 213.246 136.767 213.48 135.617 213.42ZM131.681 207.584L131.775 205.794L140.244 206.239L140.151 208.03L131.681 207.584ZM143.471 213.503L144.101 201.639L146.43 201.762L146.132 207.474L151.087 202.007L154.009 202.161L148.778 207.834L153.895 214.051L150.776 213.887L146.109 207.913L145.81 213.626L143.471 213.503ZM159.846 214.694C158.63 214.63 157.612 214.305 156.791 213.719C155.97 213.132 155.357 212.354 154.952 211.386C154.554 210.418 154.383 209.333 154.439 208.131C154.51 206.909 154.801 205.841 155.311 204.928C155.822 204.007 156.52 203.302 157.404 202.813C158.289 202.323 159.332 202.11 160.533 202.173C161.829 202.241 162.918 202.622 163.8 203.314C164.689 204.007 165.251 204.922 165.485 206.058L163.166 206.597C162.974 205.918 162.627 205.382 162.126 204.989C161.633 204.588 161.053 204.371 160.387 204.336C159.633 204.296 159.004 204.443 158.502 204.776C158.001 205.102 157.617 205.567 157.35 206.17C157.084 206.772 156.926 207.469 156.878 208.26C156.821 209.483 157.048 210.486 157.557 211.269C158.075 212.053 158.875 212.473 159.959 212.53C160.699 212.569 161.304 212.432 161.776 212.119C162.255 211.799 162.632 211.327 162.907 210.703L165.207 211.374C164.759 212.511 164.072 213.367 163.146 213.943C162.22 214.511 161.12 214.761 159.846 214.694ZM171.662 214.986L172.293 203.122L174.621 203.245L174.323 208.957L179.279 203.49L182.201 203.643L176.97 209.316L182.087 215.534L178.967 215.37L174.3 209.396L174.002 215.109L171.662 214.986ZM186.527 216.098C185.649 216.052 184.921 215.852 184.345 215.498C183.769 215.138 183.341 214.682 183.061 214.131C182.789 213.573 182.67 212.972 182.704 212.328C182.735 211.727 182.869 211.206 183.105 210.763C183.341 210.32 183.676 209.952 184.11 209.659C184.544 209.359 185.07 209.126 185.689 208.96C186.224 208.834 186.828 208.73 187.5 208.648C188.173 208.566 188.878 208.493 189.616 208.429C190.361 208.365 191.098 208.301 191.829 208.236L190.97 208.654C191.033 207.725 190.871 207.026 190.484 206.558C190.105 206.082 189.421 205.819 188.433 205.767C187.81 205.734 187.231 205.85 186.696 206.116C186.161 206.374 185.774 206.831 185.534 207.487L183.426 206.715C183.773 205.713 184.371 204.933 185.223 204.375C186.082 203.818 187.196 203.576 188.565 203.648C189.627 203.704 190.54 203.935 191.305 204.343C192.077 204.743 192.626 205.345 192.951 206.148C193.121 206.546 193.217 206.962 193.238 207.396C193.26 207.831 193.257 208.297 193.231 208.795L192.85 216.1L190.818 215.993L190.959 213.28L191.337 213.652C190.798 214.534 190.137 215.179 189.352 215.586C188.575 215.985 187.633 216.156 186.527 216.098ZM187.032 214.241C187.684 214.275 188.25 214.191 188.73 213.989C189.211 213.779 189.604 213.502 189.908 213.158C190.213 212.815 190.419 212.451 190.527 212.067C190.67 211.722 190.76 211.331 190.798 210.892C190.843 210.454 190.872 210.103 190.886 209.839L191.618 210.153C190.888 210.225 190.223 210.289 189.626 210.346C189.028 210.402 188.485 210.462 187.997 210.524C187.517 210.58 187.087 210.656 186.707 210.754C186.387 210.847 186.098 210.964 185.841 211.105C185.591 211.246 185.387 211.423 185.229 211.635C185.079 211.847 184.995 212.111 184.979 212.425C184.963 212.733 185.025 213.023 185.165 213.294C185.305 213.559 185.529 213.776 185.836 213.947C186.143 214.117 186.541 214.215 187.032 214.241ZM201.254 216.873C200.119 216.813 199.182 216.488 198.441 215.898C197.702 215.301 197.159 214.52 196.812 213.555C196.466 212.589 196.324 211.513 196.386 210.327C196.448 209.14 196.698 208.085 197.135 207.161C197.58 206.237 198.197 205.524 198.987 205.022C199.785 204.513 200.744 204.288 201.864 204.347C202.978 204.406 203.923 204.731 204.699 205.323C205.484 205.907 206.071 206.683 206.461 207.651C206.852 208.612 207.016 209.689 206.954 210.883C206.892 212.069 206.616 213.127 206.127 214.056C205.646 214.978 204.988 215.692 204.154 216.199C203.327 216.706 202.36 216.931 201.254 216.873ZM195.416 221.522L196.311 204.386L198.354 204.493L197.908 213.028L198.172 213.042L197.723 221.644L195.416 221.522ZM201.044 214.78C201.777 214.818 202.391 214.663 202.886 214.315C203.389 213.967 203.774 213.484 204.041 212.866C204.316 212.242 204.474 211.538 204.515 210.754C204.555 209.978 204.471 209.269 204.263 208.626C204.061 207.984 203.725 207.463 203.254 207.064C202.783 206.665 202.166 206.445 201.405 206.405C200.687 206.367 200.084 206.512 199.597 206.839C199.118 207.166 198.748 207.638 198.488 208.256C198.235 208.875 198.088 209.594 198.045 210.414C198.002 211.234 198.074 211.965 198.261 212.606C198.448 213.248 198.77 213.76 199.227 214.144C199.684 214.528 200.29 214.74 201.044 214.78ZM212.133 217.114L212.645 207.316L208.592 207.102L208.7 205.037L219.102 205.584L218.994 207.65L214.941 207.436L214.429 217.235L212.133 217.114ZM223.558 218.046C222.679 217.999 221.952 217.8 221.376 217.446C220.8 217.085 220.372 216.63 220.092 216.079C219.82 215.521 219.701 214.92 219.735 214.276C219.766 213.675 219.9 213.153 220.136 212.711C220.372 212.268 220.707 211.9 221.141 211.607C221.575 211.307 222.101 211.074 222.719 210.908C223.255 210.782 223.859 210.678 224.531 210.596C225.204 210.513 225.909 210.44 226.646 210.376C227.391 210.313 228.129 210.249 228.859 210.184L228 210.602C228.064 209.672 227.902 208.974 227.515 208.505C227.136 208.03 226.452 207.767 225.464 207.715C224.841 207.682 224.262 207.798 223.727 208.064C223.192 208.322 222.805 208.779 222.565 209.435L220.457 208.663C220.803 207.66 221.402 206.88 222.254 206.323C223.113 205.766 224.227 205.524 225.596 205.596C226.658 205.651 227.571 205.883 228.336 206.29C229.108 206.691 229.657 207.293 229.982 208.095C230.152 208.494 230.248 208.91 230.269 209.344C230.291 209.779 230.288 210.245 230.262 210.743L229.881 218.048L227.849 217.941L227.99 215.228L228.367 215.6C227.829 216.482 227.168 217.127 226.383 217.533C225.606 217.933 224.664 218.104 223.558 218.046ZM224.063 216.189C224.715 216.223 225.281 216.139 225.761 215.937C226.242 215.727 226.635 215.45 226.939 215.106C227.244 214.762 227.45 214.399 227.558 214.015C227.701 213.67 227.791 213.278 227.829 212.84C227.873 212.402 227.903 212.051 227.917 211.787L228.649 212.101C227.918 212.173 227.254 212.237 226.656 212.294C226.059 212.35 225.516 212.41 225.028 212.472C224.548 212.528 224.118 212.604 223.738 212.702C223.418 212.795 223.129 212.912 222.872 213.053C222.622 213.194 222.418 213.37 222.26 213.582C222.11 213.795 222.026 214.058 222.01 214.373C221.994 214.681 222.056 214.971 222.196 215.242C222.336 215.507 222.56 215.724 222.867 215.894C223.173 216.065 223.572 216.163 224.063 216.189ZM231.415 218.129L236.166 212.364L232.133 206.27L234.858 206.413L237.6 210.644L240.734 206.722L243.459 206.866L238.813 212.503L242.949 218.735L240.214 218.591L237.413 214.225L234.15 218.272L231.415 218.129Z" fill="#232326"/>
<path d="M100.202 211.227L97.8953 211.105L98.1918 205.426L93.721 205.191L92.7931 205.032C91.516 204.737 90.579 204.119 89.982 203.177C89.3853 202.227 89.1199 201.123 89.1857 199.863C89.23 199.014 89.417 198.245 89.7467 197.558C90.0763 196.87 90.5461 196.311 91.156 195.88C91.766 195.45 92.5176 195.188 93.411 195.096C93.618 195.07 93.8352 195.059 94.0626 195.064C94.2904 195.061 94.4811 195.064 94.6349 195.072L101.028 195.408L100.202 211.227ZM90.9529 210.74L88.3275 210.602L92.1219 203.752L94.4087 204.467L90.9529 210.74ZM98.3054 203.251L98.6083 197.451L94.6098 197.241C94.4633 197.233 94.2982 197.232 94.1143 197.237C93.9378 197.242 93.7679 197.262 93.6045 197.298C93.13 197.383 92.7422 197.568 92.4409 197.854C92.14 198.131 91.9135 198.461 91.7614 198.842C91.617 199.216 91.5347 199.598 91.5144 199.986C91.4942 200.374 91.5362 200.765 91.6404 201.16C91.7519 201.555 91.9427 201.91 92.2126 202.226C92.4829 202.534 92.8495 202.755 93.3125 202.889C93.4717 202.934 93.6388 202.969 93.8138 202.993C93.9961 203.017 94.1605 203.033 94.3069 203.041L98.3054 203.251Z" fill="#E33F29"/>
<rect width="87" height="84" rx="23.8552" transform="matrix(0.990565 0.137045 -0.141333 0.989962 37 1)" fill="url(#paint0_linear_1110_4780)"/>
<g filter="url(#filter4_ddddiiiiii_1110_4780)">
<rect width="87" height="84" rx="23.8552" transform="matrix(0.990565 0.137045 -0.141333 0.989962 37 1)" fill="var(--primary-color)"/>
</g>
<path d="M53.5573 62.5672C51.9228 62.3411 50.4475 61.7963 49.1314 60.9328C47.8173 60.0544 46.7325 58.9503 45.8769 57.6205C45.0361 56.2928 44.5052 54.8111 44.2842 53.1754L49.6521 52.5097C49.7371 53.3998 50.01 54.1947 50.4707 54.8944C50.9463 55.5962 51.5312 56.1693 52.2254 56.6136C52.9344 57.06 53.6901 57.3387 54.4924 57.4497C55.5325 57.5936 56.5195 57.4727 57.4534 57.087C58.3872 56.7014 59.1672 56.1203 59.7932 55.3438C60.4214 54.5524 60.8096 53.637 60.958 52.5975C61.1064 51.5581 60.981 50.5791 60.5818 49.6608C60.1996 48.7296 59.6126 47.9594 58.8207 47.3501C58.031 46.726 57.1236 46.3431 56.0983 46.2012C54.8651 46.0306 53.808 46.1115 52.9272 46.4439C52.0613 46.7784 51.3768 47.1683 50.8738 47.6135L46.4924 45.5082L49.8962 28.671L67.3252 31.0823L66.6066 36.1163L52.0527 34.1027L54.3289 32.4869L51.9303 44.1936L51.1213 42.8551C52.0615 42.2129 53.1079 41.7822 54.2604 41.5631C55.4129 41.344 56.5018 41.3054 57.5271 41.4472C59.5329 41.7247 61.2428 42.4307 62.6567 43.5652C64.0875 44.6868 65.1289 46.0953 65.7808 47.7906C66.4476 49.488 66.6379 51.339 66.3517 53.3437C66.0655 55.3484 65.2857 57.0955 64.0124 58.585C62.7413 60.0597 61.1824 61.1615 59.3359 61.8903C57.5042 62.6212 55.578 62.8468 53.5573 62.5672ZM68.433 63.9439L69.2185 58.4422L74.7235 59.2038L73.9381 64.7055L68.433 63.9439ZM89.8165 67.5837C87.5431 67.2692 85.6061 66.5091 84.0055 65.3033C82.407 64.0828 81.2414 62.536 80.5088 60.6629C79.791 58.7919 79.5943 56.7204 79.9187 54.4484L81.3942 44.1132C81.7185 41.8413 82.4876 39.9034 83.7015 38.2996C84.9302 36.6979 86.4826 35.5347 88.3589 34.81C90.2372 34.0705 92.3131 33.858 94.5864 34.1725C96.8598 34.487 98.7883 35.2535 100.372 36.4721C101.973 37.6778 103.139 39.2172 103.872 41.0902C104.604 42.9633 104.809 45.0358 104.484 47.3078L103.009 57.643C102.684 59.9149 101.908 61.8518 100.679 63.4535C99.4505 65.0552 97.8969 66.2258 96.0186 66.9654C94.1572 67.6921 92.0898 67.8982 89.8165 67.5837ZM90.5447 62.4829C91.6739 62.6392 92.7373 62.5137 93.7349 62.1066C94.7345 61.6846 95.5665 61.0577 96.2307 60.2259C96.897 59.3793 97.3108 58.3916 97.4719 57.2631L99.0587 46.1483C99.222 45.0049 99.1008 43.9433 98.6952 42.9634C98.2917 41.9688 97.6675 41.1404 96.8226 40.4784C95.9799 39.8015 94.9938 39.385 93.8646 39.2287C92.7353 39.0725 91.6709 39.2054 90.6712 39.6273C89.6737 40.0345 88.8417 40.6614 88.1754 41.508C87.5112 42.3398 87.0974 43.3274 86.9342 44.4709L85.3474 55.5857C85.1863 56.7142 85.3074 57.7758 85.7109 58.7705C86.1165 59.7503 86.7407 60.5787 87.5835 61.2555C88.4284 61.9176 89.4154 62.3267 90.5447 62.4829Z" fill="white"/>
<defs>
<filter id="filter0_b_1110_4780" x="-21.7105" y="46.1562" width="364.128" height="143.47" filterUnits="userSpaceOnUse" color-interpolation-filters="sRGB">
<feFlood flood-opacity="0" result="BackgroundImageFix"/>
<feGaussianBlur in="BackgroundImageFix" stdDeviation="12.969"/>
<feComposite in2="SourceAlpha" operator="in" result="effect1_backgroundBlur_1110_4780"/>
<feBlend mode="normal" in="SourceGraphic" in2="effect1_backgroundBlur_1110_4780" result="shape"/>
</filter>
<filter id="filter1_ddddiiiiii_1110_4780" x="0.887781" y="68.7545" width="328.474" height="107.815" filterUnits="userSpaceOnUse" color-interpolation-filters="sRGB">
<feFlood flood-opacity="0" result="BackgroundImageFix"/>
<feColorMatrix in="SourceAlpha" type="matrix" values="0 0 0 0 0 0 0 0 0 0 0 0 0 0 0 0 0 0 127 0" result="hardAlpha"/>
<feMorphology radius="0.954208" operator="erode" in="SourceAlpha" result="effect1_dropShadow_1110_4780"/>
<feOffset dx="5.9638" dy="5.9638"/>
<feGaussianBlur stdDeviation="3.57828"/>
<feColorMatrix type="matrix" values="0 0 0 0 0.916051 0 0 0 0 0.921023 0 0 0 0 0.927984 0 0 0 0.5 0"/>
<feBlend mode="multiply" in2="BackgroundImageFix" result="effect1_dropShadow_1110_4780"/>
<feColorMatrix in="SourceAlpha" type="matrix" values="0 0 0 0 0 0 0 0 0 0 0 0 0 0 0 0 0 0 127 0" result="hardAlpha"/>
<feMorphology radius="0.238552" operator="erode" in="SourceAlpha" result="effect2_dropShadow_1110_4780"/>
<feOffset dx="5.9638" dy="5.9638"/>
<feGaussianBlur stdDeviation="3.57828"/>
<feColorMatrix type="matrix" values="0 0 0 0 0.772549 0 0 0 0 0.792157 0 0 0 0 0.819608 0 0 0 0.2 0"/>
<feBlend mode="multiply" in2="effect1_dropShadow_1110_4780" result="effect2_dropShadow_1110_4780"/>
<feColorMatrix in="SourceAlpha" type="matrix" values="0 0 0 0 0 0 0 0 0 0 0 0 0 0 0 0 0 0 127 0" result="hardAlpha"/>
<feMorphology radius="0.238552" operator="erode" in="SourceAlpha" result="effect3_dropShadow_1110_4780"/>
<feOffset dx="3.57828" dy="3.57828"/>
<feGaussianBlur stdDeviation="3.57828"/>
<feColorMatrix type="matrix" values="0 0 0 0 0.772549 0 0 0 0 0.792157 0 0 0 0 0.819608 0 0 0 0.1 0"/>
<feBlend mode="color-burn" in2="effect2_dropShadow_1110_4780" result="effect3_dropShadow_1110_4780"/>
<feColorMatrix in="SourceAlpha" type="matrix" values="0 0 0 0 0 0 0 0 0 0 0 0 0 0 0 0 0 0 127 0" result="hardAlpha"/>
<feMorphology radius="1.19276" operator="erode" in="SourceAlpha" result="effect4_dropShadow_1110_4780"/>
<feOffset dx="3.57828" dy="3.57828"/>
<feGaussianBlur stdDeviation="3.57828"/>
<feColorMatrix type="matrix" values="0 0 0 0 0.827757 0 0 0 0 0.843115 0 0 0 0 0.864615 0 0 0 0.2 0"/>
<feBlend mode="multiply" in2="effect3_dropShadow_1110_4780" result="effect4_dropShadow_1110_4780"/>
<feBlend mode="normal" in="SourceGraphic" in2="effect4_dropShadow_1110_4780" result="shape"/>
<feColorMatrix in="SourceAlpha" type="matrix" values="0 0 0 0 0 0 0 0 0 0 0 0 0 0 0 0 0 0 127 0" result="hardAlpha"/>
<feOffset dy="-2.38552"/>
<feGaussianBlur stdDeviation="0.119276"/>
<feComposite in2="hardAlpha" operator="arithmetic" k2="-1" k3="1"/>
<feColorMatrix type="matrix" values="0 0 0 0 0.798081 0 0 0 0 0.808857 0 0 0 0 0.841184 0 0 0 0.6 0"/>
<feBlend mode="multiply" in2="shape" result="effect5_innerShadow_1110_4780"/>
<feColorMatrix in="SourceAlpha" type="matrix" values="0 0 0 0 0 0 0 0 0 0 0 0 0 0 0 0 0 0 127 0" result="hardAlpha"/>
<feOffset dy="-2.38552"/>
<feGaussianBlur stdDeviation="0.119276"/>
<feComposite in2="hardAlpha" operator="arithmetic" k2="-1" k3="1"/>
<feColorMatrix type="matrix" values="0 0 0 0 0.8 0 0 0 0 0.807843 0 0 0 0 0.843137 0 0 0 0.4 0"/>
<feBlend mode="color-burn" in2="effect5_innerShadow_1110_4780" result="effect6_innerShadow_1110_4780"/>
<feColorMatrix in="SourceAlpha" type="matrix" values="0 0 0 0 0 0 0 0 0 0 0 0 0 0 0 0 0 0 127 0" result="hardAlpha"/>
<feOffset dy="-1.19276"/>
<feGaussianBlur stdDeviation="1.19276"/>
<feComposite in2="hardAlpha" operator="arithmetic" k2="-1" k3="1"/>
<feColorMatrix type="matrix" values="0 0 0 0 1 0 0 0 0 1 0 0 0 0 1 0 0 0 0.25 0"/>
<feBlend mode="overlay" in2="effect6_innerShadow_1110_4780" result="effect7_innerShadow_1110_4780"/>
<feColorMatrix in="SourceAlpha" type="matrix" values="0 0 0 0 0 0 0 0 0 0 0 0 0 0 0 0 0 0 127 0" result="hardAlpha"/>
<feOffset/>
<feGaussianBlur stdDeviation="0.238552"/>
<feComposite in2="hardAlpha" operator="arithmetic" k2="-1" k3="1"/>
<feColorMatrix type="matrix" values="0 0 0 0 0.8 0 0 0 0 0.807843 0 0 0 0 0.843137 0 0 0 0.5 0"/>
<feBlend mode="normal" in2="effect7_innerShadow_1110_4780" result="effect8_innerShadow_1110_4780"/>
<feColorMatrix in="SourceAlpha" type="matrix" values="0 0 0 0 0 0 0 0 0 0 0 0 0 0 0 0 0 0 127 0" result="hardAlpha"/>
<feOffset/>
<feGaussianBlur stdDeviation="0.477104"/>
<feComposite in2="hardAlpha" operator="arithmetic" k2="-1" k3="1"/>
<feColorMatrix type="matrix" values="0 0 0 0 0.625417 0 0 0 0 0.631402 0 0 0 0 0.658333 0 0 0 1 0"/>
<feBlend mode="color-burn" in2="effect8_innerShadow_1110_4780" result="effect9_innerShadow_1110_4780"/>
<feColorMatrix in="SourceAlpha" type="matrix" values="0 0 0 0 0 0 0 0 0 0 0 0 0 0 0 0 0 0 127 0" result="hardAlpha"/>
<feOffset dx="0.477104" dy="0.477104"/>
<feGaussianBlur stdDeviation="0.238552"/>
<feComposite in2="hardAlpha" operator="arithmetic" k2="-1" k3="1"/>
<feColorMatrix type="matrix" values="0 0 0 0 1 0 0 0 0 1 0 0 0 0 1 0 0 0 0.3 0"/>
<feBlend mode="normal" in2="effect9_innerShadow_1110_4780" result="effect10_innerShadow_1110_4780"/>
</filter>
<filter id="filter2_b_1110_4780" x="11.2539" y="125.28" width="281.158" height="138.296" filterUnits="userSpaceOnUse" color-interpolation-filters="sRGB">
<feFlood flood-opacity="0" result="BackgroundImageFix"/>
<feGaussianBlur in="BackgroundImageFix" stdDeviation="12.969"/>
<feComposite in2="SourceAlpha" operator="in" result="effect1_backgroundBlur_1110_4780"/>
<feBlend mode="normal" in="SourceGraphic" in2="effect1_backgroundBlur_1110_4780" result="shape"/>
</filter>
<filter id="filter3_ddddiiiiii_1110_4780" x="33.8522" y="147.878" width="245.503" height="102.641" filterUnits="userSpaceOnUse" color-interpolation-filters="sRGB">
<feFlood flood-opacity="0" result="BackgroundImageFix"/>
<feColorMatrix in="SourceAlpha" type="matrix" values="0 0 0 0 0 0 0 0 0 0 0 0 0 0 0 0 0 0 127 0" result="hardAlpha"/>
<feMorphology radius="0.954208" operator="erode" in="SourceAlpha" result="effect1_dropShadow_1110_4780"/>
<feOffset dx="5.9638" dy="5.9638"/>
<feGaussianBlur stdDeviation="3.57828"/>
<feColorMatrix type="matrix" values="0 0 0 0 0.916051 0 0 0 0 0.921023 0 0 0 0 0.927984 0 0 0 0.5 0"/>
<feBlend mode="multiply" in2="BackgroundImageFix" result="effect1_dropShadow_1110_4780"/>
<feColorMatrix in="SourceAlpha" type="matrix" values="0 0 0 0 0 0 0 0 0 0 0 0 0 0 0 0 0 0 127 0" result="hardAlpha"/>
<feMorphology radius="0.238552" operator="erode" in="SourceAlpha" result="effect2_dropShadow_1110_4780"/>
<feOffset dx="5.9638" dy="5.9638"/>
<feGaussianBlur stdDeviation="3.57828"/>
<feColorMatrix type="matrix" values="0 0 0 0 0.772549 0 0 0 0 0.792157 0 0 0 0 0.819608 0 0 0 0.2 0"/>
<feBlend mode="multiply" in2="effect1_dropShadow_1110_4780" result="effect2_dropShadow_1110_4780"/>
<feColorMatrix in="SourceAlpha" type="matrix" values="0 0 0 0 0 0 0 0 0 0 0 0 0 0 0 0 0 0 127 0" result="hardAlpha"/>
<feMorphology radius="0.238552" operator="erode" in="SourceAlpha" result="effect3_dropShadow_1110_4780"/>
<feOffset dx="3.57828" dy="3.57828"/>
<feGaussianBlur stdDeviation="3.57828"/>
<feColorMatrix type="matrix" values="0 0 0 0 0.772549 0 0 0 0 0.792157 0 0 0 0 0.819608 0 0 0 0.1 0"/>
<feBlend mode="color-burn" in2="effect2_dropShadow_1110_4780" result="effect3_dropShadow_1110_4780"/>
<feColorMatrix in="SourceAlpha" type="matrix" values="0 0 0 0 0 0 0 0 0 0 0 0 0 0 0 0 0 0 127 0" result="hardAlpha"/>
<feMorphology radius="1.19276" operator="erode" in="SourceAlpha" result="effect4_dropShadow_1110_4780"/>
<feOffset dx="3.57828" dy="3.57828"/>
<feGaussianBlur stdDeviation="3.57828"/>
<feColorMatrix type="matrix" values="0 0 0 0 0.827757 0 0 0 0 0.843115 0 0 0 0 0.864615 0 0 0 0.2 0"/>
<feBlend mode="multiply" in2="effect3_dropShadow_1110_4780" result="effect4_dropShadow_1110_4780"/>
<feBlend mode="normal" in="SourceGraphic" in2="effect4_dropShadow_1110_4780" result="shape"/>
<feColorMatrix in="SourceAlpha" type="matrix" values="0 0 0 0 0 0 0 0 0 0 0 0 0 0 0 0 0 0 127 0" result="hardAlpha"/>
<feOffset dy="-2.38552"/>
<feGaussianBlur stdDeviation="0.119276"/>
<feComposite in2="hardAlpha" operator="arithmetic" k2="-1" k3="1"/>
<feColorMatrix type="matrix" values="0 0 0 0 0.798081 0 0 0 0 0.808857 0 0 0 0 0.841184 0 0 0 0.6 0"/>
<feBlend mode="multiply" in2="shape" result="effect5_innerShadow_1110_4780"/>
<feColorMatrix in="SourceAlpha" type="matrix" values="0 0 0 0 0 0 0 0 0 0 0 0 0 0 0 0 0 0 127 0" result="hardAlpha"/>
<feOffset dy="-2.38552"/>
<feGaussianBlur stdDeviation="0.119276"/>
<feComposite in2="hardAlpha" operator="arithmetic" k2="-1" k3="1"/>
<feColorMatrix type="matrix" values="0 0 0 0 0.8 0 0 0 0 0.807843 0 0 0 0 0.843137 0 0 0 0.4 0"/>
<feBlend mode="color-burn" in2="effect5_innerShadow_1110_4780" result="effect6_innerShadow_1110_4780"/>
<feColorMatrix in="SourceAlpha" type="matrix" values="0 0 0 0 0 0 0 0 0 0 0 0 0 0 0 0 0 0 127 0" result="hardAlpha"/>
<feOffset dy="-1.19276"/>
<feGaussianBlur stdDeviation="1.19276"/>
<feComposite in2="hardAlpha" operator="arithmetic" k2="-1" k3="1"/>
<feColorMatrix type="matrix" values="0 0 0 0 1 0 0 0 0 1 0 0 0 0 1 0 0 0 0.25 0"/>
<feBlend mode="overlay" in2="effect6_innerShadow_1110_4780" result="effect7_innerShadow_1110_4780"/>
<feColorMatrix in="SourceAlpha" type="matrix" values="0 0 0 0 0 0 0 0 0 0 0 0 0 0 0 0 0 0 127 0" result="hardAlpha"/>
<feOffset/>
<feGaussianBlur stdDeviation="0.238552"/>
<feComposite in2="hardAlpha" operator="arithmetic" k2="-1" k3="1"/>
<feColorMatrix type="matrix" values="0 0 0 0 0.8 0 0 0 0 0.807843 0 0 0 0 0.843137 0 0 0 0.5 0"/>
<feBlend mode="normal" in2="effect7_innerShadow_1110_4780" result="effect8_innerShadow_1110_4780"/>
<feColorMatrix in="SourceAlpha" type="matrix" values="0 0 0 0 0 0 0 0 0 0 0 0 0 0 0 0 0 0 127 0" result="hardAlpha"/>
<feOffset/>
<feGaussianBlur stdDeviation="0.477104"/>
<feComposite in2="hardAlpha" operator="arithmetic" k2="-1" k3="1"/>
<feColorMatrix type="matrix" values="0 0 0 0 0.625417 0 0 0 0 0.631402 0 0 0 0 0.658333 0 0 0 1 0"/>
<feBlend mode="color-burn" in2="effect8_innerShadow_1110_4780" result="effect9_innerShadow_1110_4780"/>
<feColorMatrix in="SourceAlpha" type="matrix" values="0 0 0 0 0 0 0 0 0 0 0 0 0 0 0 0 0 0 127 0" result="hardAlpha"/>
<feOffset dx="0.477104" dy="0.477104"/>
<feGaussianBlur stdDeviation="0.238552"/>
<feComposite in2="hardAlpha" operator="arithmetic" k2="-1" k3="1"/>
<feColorMatrix type="matrix" values="0 0 0 0 1 0 0 0 0 1 0 0 0 0 1 0 0 0 0.3 0"/>
<feBlend mode="normal" in2="effect9_innerShadow_1110_4780" result="effect10_innerShadow_1110_4780"/>
</filter>
<filter id="filter4_ddddiiiiii_1110_4780" x="24.9175" y="0.70141" width="108.014" height="105.219" filterUnits="userSpaceOnUse" color-interpolation-filters="sRGB">
<feFlood flood-opacity="0" result="BackgroundImageFix"/>
<feColorMatrix in="SourceAlpha" type="matrix" values="0 0 0 0 0 0 0 0 0 0 0 0 0 0 0 0 0 0 127 0" result="hardAlpha"/>
<feMorphology radius="0.954208" operator="erode" in="SourceAlpha" result="effect1_dropShadow_1110_4780"/>
<feOffset dx="5.9638" dy="5.9638"/>
<feGaussianBlur stdDeviation="3.57828"/>
<feColorMatrix type="matrix" values="0 0 0 0 0.916051 0 0 0 0 0.921023 0 0 0 0 0.927984 0 0 0 0.5 0"/>
<feBlend mode="multiply" in2="BackgroundImageFix" result="effect1_dropShadow_1110_4780"/>
<feColorMatrix in="SourceAlpha" type="matrix" values="0 0 0 0 0 0 0 0 0 0 0 0 0 0 0 0 0 0 127 0" result="hardAlpha"/>
<feMorphology radius="0.238552" operator="erode" in="SourceAlpha" result="effect2_dropShadow_1110_4780"/>
<feOffset dx="5.9638" dy="5.9638"/>
<feGaussianBlur stdDeviation="3.57828"/>
<feColorMatrix type="matrix" values="0 0 0 0 0.772549 0 0 0 0 0.792157 0 0 0 0 0.819608 0 0 0 0.2 0"/>
<feBlend mode="multiply" in2="effect1_dropShadow_1110_4780" result="effect2_dropShadow_1110_4780"/>
<feColorMatrix in="SourceAlpha" type="matrix" values="0 0 0 0 0 0 0 0 0 0 0 0 0 0 0 0 0 0 127 0" result="hardAlpha"/>
<feMorphology radius="0.238552" operator="erode" in="SourceAlpha" result="effect3_dropShadow_1110_4780"/>
<feOffset dx="3.57828" dy="3.57828"/>
<feGaussianBlur stdDeviation="3.57828"/>
<feColorMatrix type="matrix" values="0 0 0 0 0.772549 0 0 0 0 0.792157 0 0 0 0 0.819608 0 0 0 0.1 0"/>
<feBlend mode="color-burn" in2="effect2_dropShadow_1110_4780" result="effect3_dropShadow_1110_4780"/>
<feColorMatrix in="SourceAlpha" type="matrix" values="0 0 0 0 0 0 0 0 0 0 0 0 0 0 0 0 0 0 127 0" result="hardAlpha"/>
<feMorphology radius="1.19276" operator="erode" in="SourceAlpha" result="effect4_dropShadow_1110_4780"/>
<feOffset dx="3.57828" dy="3.57828"/>
<feGaussianBlur stdDeviation="3.57828"/>
<feColorMatrix type="matrix" values="0 0 0 0 0.827757 0 0 0 0 0.843115 0 0 0 0 0.864615 0 0 0 0.2 0"/>
<feBlend mode="multiply" in2="effect3_dropShadow_1110_4780" result="effect4_dropShadow_1110_4780"/>
<feBlend mode="normal" in="SourceGraphic" in2="effect4_dropShadow_1110_4780" result="shape"/>
<feColorMatrix in="SourceAlpha" type="matrix" values="0 0 0 0 0 0 0 0 0 0 0 0 0 0 0 0 0 0 127 0" result="hardAlpha"/>
<feOffset dy="-2.38552"/>
<feGaussianBlur stdDeviation="0.119276"/>
<feComposite in2="hardAlpha" operator="arithmetic" k2="-1" k3="1"/>
<feColorMatrix type="matrix" values="0 0 0 0 0.798081 0 0 0 0 0.808857 0 0 0 0 0.841184 0 0 0 0.6 0"/>
<feBlend mode="multiply" in2="shape" result="effect5_innerShadow_1110_4780"/>
<feColorMatrix in="SourceAlpha" type="matrix" values="0 0 0 0 0 0 0 0 0 0 0 0 0 0 0 0 0 0 127 0" result="hardAlpha"/>
<feOffset dy="-2.38552"/>
<feGaussianBlur stdDeviation="0.119276"/>
<feComposite in2="hardAlpha" operator="arithmetic" k2="-1" k3="1"/>
<feColorMatrix type="matrix" values="0 0 0 0 0.8 0 0 0 0 0.807843 0 0 0 0 0.843137 0 0 0 0.4 0"/>
<feBlend mode="color-burn" in2="effect5_innerShadow_1110_4780" result="effect6_innerShadow_1110_4780"/>
<feColorMatrix in="SourceAlpha" type="matrix" values="0 0 0 0 0 0 0 0 0 0 0 0 0 0 0 0 0 0 127 0" result="hardAlpha"/>
<feOffset dy="-1.19276"/>
<feGaussianBlur stdDeviation="1.19276"/>
<feComposite in2="hardAlpha" operator="arithmetic" k2="-1" k3="1"/>
<feColorMatrix type="matrix" values="0 0 0 0 1 0 0 0 0 1 0 0 0 0 1 0 0 0 0.25 0"/>
<feBlend mode="overlay" in2="effect6_innerShadow_1110_4780" result="effect7_innerShadow_1110_4780"/>
<feColorMatrix in="SourceAlpha" type="matrix" values="0 0 0 0 0 0 0 0 0 0 0 0 0 0 0 0 0 0 127 0" result="hardAlpha"/>
<feOffset/>
<feGaussianBlur stdDeviation="0.238552"/>
<feComposite in2="hardAlpha" operator="arithmetic" k2="-1" k3="1"/>
<feColorMatrix type="matrix" values="0 0 0 0 0.8 0 0 0 0 0.807843 0 0 0 0 0.843137 0 0 0 0.5 0"/>
<feBlend mode="normal" in2="effect7_innerShadow_1110_4780" result="effect8_innerShadow_1110_4780"/>
<feColorMatrix in="SourceAlpha" type="matrix" values="0 0 0 0 0 0 0 0 0 0 0 0 0 0 0 0 0 0 127 0" result="hardAlpha"/>
<feOffset/>
<feGaussianBlur stdDeviation="0.477104"/>
<feComposite in2="hardAlpha" operator="arithmetic" k2="-1" k3="1"/>
<feColorMatrix type="matrix" values="0 0 0 0 0.625417 0 0 0 0 0.631402 0 0 0 0 0.658333 0 0 0 1 0"/>
<feBlend mode="color-burn" in2="effect8_innerShadow_1110_4780" result="effect9_innerShadow_1110_4780"/>
<feColorMatrix in="SourceAlpha" type="matrix" values="0 0 0 0 0 0 0 0 0 0 0 0 0 0 0 0 0 0 127 0" result="hardAlpha"/>
<feOffset dx="0.477104" dy="0.477104"/>
<feGaussianBlur stdDeviation="0.238552"/>
<feComposite in2="hardAlpha" operator="arithmetic" k2="-1" k3="1"/>
<feColorMatrix type="matrix" values="0 0 0 0 1 0 0 0 0 1 0 0 0 0 1 0 0 0 0.3 0"/>
<feBlend mode="normal" in2="effect9_innerShadow_1110_4780" result="effect10_innerShadow_1110_4780"/>
</filter>
<linearGradient id="paint0_linear_1110_4780" x1="0" y1="0" x2="0" y2="84" gradientUnits="userSpaceOnUse">
<stop stop-color="#B7E111"/>
<stop offset="1" stop-color="#80BF07"/>
</linearGradient>
</defs>
</symbol>
</svg>
