<svg width="127" height="127" viewBox="0 0 127 127" fill="none" xmlns="http://www.w3.org/2000/svg">
<g opacity="0.5" filter="url(#filter0_f_2255_12701)">
<circle cx="63.5" cy="63.5" r="33.5" fill="#8894FF"/>
</g>
<g filter="url(#filter1_dii_2255_12701)">
<circle cx="58.5" cy="62.5" r="33.5" fill="#8894FF"/>
</g>
<path d="M37 63.0303C37 71.8131 41.8978 79.4032 49 83L38.8434 54C37.662 56.7596 37 59.8134 37 63.0303V63.0303Z" fill="white"/>
<path d="M73.9954 62.1742C73.9954 59.4182 73.0258 57.5095 72.1941 56.0239C71.0869 54.187 70.0491 52.6314 70.0491 50.7945C70.0491 48.7445 71.5719 46.8363 73.717 46.8363C73.8138 46.8363 73.9057 46.8486 74 46.8541C70.1139 43.2193 64.9365 41 59.25 41C51.6192 41 44.9056 44.9972 41 51.0516C41.5125 51.0673 41.9954 51.0783 42.4056 51.0783C44.6903 51.0783 48.2268 50.7953 48.2268 50.7953C49.4043 50.7244 49.5431 52.4901 48.3669 52.6322C48.3669 52.6322 47.1836 52.7744 45.8669 52.8448L53.8211 77L58.6012 62.3635L55.1981 52.844C54.0219 52.7735 52.9076 52.6314 52.9076 52.6314C51.7305 52.561 51.8685 50.7236 53.0456 50.7945C53.0456 50.7945 56.6528 51.0775 58.799 51.0775C61.0833 51.0775 64.6202 50.7945 64.6202 50.7945C65.7985 50.7236 65.9369 52.4892 64.7603 52.6314C64.7603 52.6314 63.5745 52.7735 62.2603 52.844L70.1538 76.8163L72.3325 69.3832C73.2768 66.2987 73.9954 64.0833 73.9954 62.1742V62.1742Z" fill="white"/>
<path d="M59.8349 65L53 85.0625C55.0407 85.6685 57.199 86 59.4352 86C62.088 86 64.632 85.5367 67 84.6956C66.9389 84.5971 66.8834 84.4924 66.8379 84.3786L59.8349 65Z" fill="white"/>
<path d="M78.2901 53C78.3852 53.7109 78.4391 54.4741 78.4391 55.295C78.4391 57.5598 78.0199 60.1058 76.7571 63.2892L70 83C76.5765 79.1307 81 71.9421 81 63.7084C81.0004 59.828 80.018 56.1792 78.2901 53V53Z" fill="white"/>
<defs>
<filter id="filter0_f_2255_12701" x="0" y="0" width="127" height="127" filterUnits="userSpaceOnUse" color-interpolation-filters="sRGB">
<feFlood flood-opacity="0" result="BackgroundImageFix"/>
<feBlend mode="normal" in="SourceGraphic" in2="BackgroundImageFix" result="shape"/>
<feGaussianBlur stdDeviation="15" result="effect1_foregroundBlur_2255_12701"/>
</filter>
<filter id="filter1_dii_2255_12701" x="9" y="23" width="99" height="99" filterUnits="userSpaceOnUse" color-interpolation-filters="sRGB">
<feFlood flood-opacity="0" result="BackgroundImageFix"/>
<feColorMatrix in="SourceAlpha" type="matrix" values="0 0 0 0 0 0 0 0 0 0 0 0 0 0 0 0 0 0 127 0" result="hardAlpha"/>
<feMorphology radius="4" operator="erode" in="SourceAlpha" result="effect1_dropShadow_2255_12701"/>
<feOffset dy="10"/>
<feGaussianBlur stdDeviation="10"/>
<feColorMatrix type="matrix" values="0 0 0 0 0.916051 0 0 0 0 0.921023 0 0 0 0 0.927984 0 0 0 1 0"/>
<feBlend mode="multiply" in2="BackgroundImageFix" result="effect1_dropShadow_2255_12701"/>
<feBlend mode="normal" in="SourceGraphic" in2="effect1_dropShadow_2255_12701" result="shape"/>
<feColorMatrix in="SourceAlpha" type="matrix" values="0 0 0 0 0 0 0 0 0 0 0 0 0 0 0 0 0 0 127 0" result="hardAlpha"/>
<feOffset/>
<feGaussianBlur stdDeviation="2"/>
<feComposite in2="hardAlpha" operator="arithmetic" k2="-1" k3="1"/>
<feColorMatrix type="matrix" values="0 0 0 0 0.625417 0 0 0 0 0.631402 0 0 0 0 0.658333 0 0 0 1 0"/>
<feBlend mode="color-burn" in2="shape" result="effect2_innerShadow_2255_12701"/>
<feColorMatrix in="SourceAlpha" type="matrix" values="0 0 0 0 0 0 0 0 0 0 0 0 0 0 0 0 0 0 127 0" result="hardAlpha"/>
<feOffset dx="2" dy="2"/>
<feGaussianBlur stdDeviation="1"/>
<feComposite in2="hardAlpha" operator="arithmetic" k2="-1" k3="1"/>
<feColorMatrix type="matrix" values="0 0 0 0 1 0 0 0 0 1 0 0 0 0 1 0 0 0 0.3 0"/>
<feBlend mode="normal" in2="effect2_innerShadow_2255_12701" result="effect3_innerShadow_2255_12701"/>
</filter>
</defs>
</svg>
