<svg width="118" height="123" viewBox="0 0 118 123" fill="none" xmlns="http://www.w3.org/2000/svg">
<g opacity="0.5" filter="url(#filter0_f_2000_15161)">
<rect x="30" y="30" width="63" height="68" rx="11" fill="#FF8A8A"/>
</g>
<g filter="url(#filter1_dii_2000_15161)">
<rect x="21" y="24" width="63" height="68" rx="11" fill="#FF8A8A"/>
</g>
<path fill-rule="evenodd" clip-rule="evenodd" d="M33 43.1786C33 42.0703 33.4402 41.0075 34.2239 40.2239C35.0075 39.4402 36.0703 39 37.1786 39H39.9643C41.0725 39 42.1353 39.4402 42.919 40.2239C43.7026 41.0075 44.1429 42.0703 44.1429 43.1786H55.659C55.9656 42.6475 56.4389 42.2324 57.0055 41.9978C57.572 41.7631 58.2002 41.7219 58.7925 41.8806C59.3848 42.0394 59.9082 42.3891 60.2816 42.8756C60.6549 43.3621 60.8572 43.9582 60.8572 44.5714C60.8572 45.1847 60.6549 45.7808 60.2816 46.2673C59.9082 46.7538 59.3848 47.1035 58.7925 47.2622C58.2002 47.4209 57.572 47.3798 57.0055 47.1451C56.4389 46.9104 55.9656 46.4954 55.659 45.9643H50.0597C50.5611 46.4657 51.0069 47.0256 51.408 47.6496C53.1853 50.4131 53.8929 54.2072 53.8929 58.5C53.8929 64.0519 54.6088 67.1134 55.8791 68.8071C56.8708 70.1331 58.3723 70.8156 60.8571 70.9911C60.8689 69.8907 61.3143 68.8392 62.0967 68.0652C62.879 67.2912 63.9352 66.8571 65.0357 66.8571H67.8214C68.9297 66.8571 69.9925 67.2974 70.7761 68.081C71.5598 68.8647 72 69.9275 72 71.0357V73.8214C72 74.9297 71.5598 75.9925 70.7761 76.7761C69.9925 77.5598 68.9297 78 67.8214 78H65.0357C63.9275 78 62.8647 77.5598 62.081 76.7761C61.2974 75.9925 60.8571 74.9297 60.8571 73.8214H49.341C49.0344 74.3525 48.5611 74.7676 47.9945 75.0022C47.428 75.2369 46.7998 75.2781 46.2075 75.1194C45.6152 74.9607 45.0918 74.6109 44.7184 74.1244C44.3451 73.6379 44.1428 73.0418 44.1428 72.4286C44.1428 71.8153 44.3451 71.2192 44.7184 70.7327C45.0918 70.2462 45.6152 69.8965 46.2075 69.7378C46.7998 69.5791 47.428 69.6202 47.9945 69.8549C48.5611 70.0896 49.0344 70.5046 49.341 71.0357H54.1074C53.9457 70.8571 53.7924 70.6712 53.6477 70.4786C51.7841 67.9909 51.1071 64.0909 51.1071 58.5C51.1071 54.4329 50.4219 51.2655 49.0652 49.1539C47.9788 47.4686 46.4132 46.3682 44.1429 46.0562C44.1188 47.1484 43.668 48.1878 42.887 48.9517C42.1059 49.7155 41.0568 50.1431 39.9643 50.1429H37.1786C36.0703 50.1429 35.0075 49.7026 34.2239 48.919C33.4402 48.1353 33 47.0725 33 45.9643V43.1786ZM37.1786 41.7857C36.8092 41.7857 36.4549 41.9325 36.1937 42.1937C35.9325 42.4549 35.7857 42.8092 35.7857 43.1786V45.9643C35.7857 46.3337 35.9325 46.688 36.1937 46.9492C36.4549 47.2104 36.8092 47.3571 37.1786 47.3571H39.9643C40.3337 47.3571 40.688 47.2104 40.9492 46.9492C41.2104 46.688 41.3571 46.3337 41.3571 45.9643V43.1786C41.3571 42.8092 41.2104 42.4549 40.9492 42.1937C40.688 41.9325 40.3337 41.7857 39.9643 41.7857H37.1786ZM65.0357 69.6429C64.6663 69.6429 64.312 69.7896 64.0508 70.0508C63.7896 70.312 63.6429 70.6663 63.6429 71.0357V73.8214C63.6429 74.1908 63.7896 74.5451 64.0508 74.8063C64.312 75.0675 64.6663 75.2143 65.0357 75.2143H67.8214C68.1908 75.2143 68.5451 75.0675 68.8063 74.8063C69.0675 74.5451 69.2143 74.1908 69.2143 73.8214V71.0357C69.2143 70.6663 69.0675 70.312 68.8063 70.0508C68.5451 69.7896 68.1908 69.6429 67.8214 69.6429H65.0357Z" fill="white"/>
<defs>
<filter id="filter0_f_2000_15161" x="0" y="0" width="123" height="128" filterUnits="userSpaceOnUse" color-interpolation-filters="sRGB">
<feFlood flood-opacity="0" result="BackgroundImageFix"/>
<feBlend mode="normal" in="SourceGraphic" in2="BackgroundImageFix" result="shape"/>
<feGaussianBlur stdDeviation="15" result="effect1_foregroundBlur_2000_15161"/>
</filter>
<filter id="filter1_dii_2000_15161" x="5" y="18" width="95" height="100" filterUnits="userSpaceOnUse" color-interpolation-filters="sRGB">
<feFlood flood-opacity="0" result="BackgroundImageFix"/>
<feColorMatrix in="SourceAlpha" type="matrix" values="0 0 0 0 0 0 0 0 0 0 0 0 0 0 0 0 0 0 127 0" result="hardAlpha"/>
<feMorphology radius="4" operator="erode" in="SourceAlpha" result="effect1_dropShadow_2000_15161"/>
<feOffset dy="10"/>
<feGaussianBlur stdDeviation="10"/>
<feColorMatrix type="matrix" values="0 0 0 0 0.916051 0 0 0 0 0.921023 0 0 0 0 0.927984 0 0 0 1 0"/>
<feBlend mode="multiply" in2="BackgroundImageFix" result="effect1_dropShadow_2000_15161"/>
<feBlend mode="normal" in="SourceGraphic" in2="effect1_dropShadow_2000_15161" result="shape"/>
<feColorMatrix in="SourceAlpha" type="matrix" values="0 0 0 0 0 0 0 0 0 0 0 0 0 0 0 0 0 0 127 0" result="hardAlpha"/>
<feOffset/>
<feGaussianBlur stdDeviation="2"/>
<feComposite in2="hardAlpha" operator="arithmetic" k2="-1" k3="1"/>
<feColorMatrix type="matrix" values="0 0 0 0 0.625417 0 0 0 0 0.631402 0 0 0 0 0.658333 0 0 0 1 0"/>
<feBlend mode="color-burn" in2="shape" result="effect2_innerShadow_2000_15161"/>
<feColorMatrix in="SourceAlpha" type="matrix" values="0 0 0 0 0 0 0 0 0 0 0 0 0 0 0 0 0 0 127 0" result="hardAlpha"/>
<feOffset dx="2" dy="2"/>
<feGaussianBlur stdDeviation="1"/>
<feComposite in2="hardAlpha" operator="arithmetic" k2="-1" k3="1"/>
<feColorMatrix type="matrix" values="0 0 0 0 1 0 0 0 0 1 0 0 0 0 1 0 0 0 0.3 0"/>
<feBlend mode="normal" in2="effect2_innerShadow_2000_15161" result="effect3_innerShadow_2000_15161"/>
</filter>
</defs>
</svg>
