<svg width="655" height="807" viewBox="0 0 655 807" fill="none" xmlns="http://www.w3.org/2000/svg">
<path d="M531.454 91.1599L532.405 89.9999L531.454 91.1599ZM331.061 299.667L332.55 299.488L331.061 299.667ZM653.188 424.827L651.688 424.843L653.188 424.827ZM3.42491 124.031C3.0657 124.778 2.16935 125.092 1.42285 124.732C0.676348 124.373 0.362387 123.477 0.721596 122.73L3.42491 124.031ZM1.59946 120.978C1.98185 120.243 2.8876 119.957 3.62249 120.339C4.35738 120.722 4.64313 121.628 4.26073 122.362L1.59946 120.978ZM9.34712 114.04C8.87315 114.719 7.93812 114.886 7.25868 114.412C6.57924 113.938 6.41268 113.003 6.88665 112.323L9.34712 114.04ZM9.29349 109.022C9.79472 108.362 10.7357 108.234 11.3953 108.735C12.0549 109.236 12.1833 110.177 11.6821 110.837L9.29349 109.022ZM17.9734 103.259C17.4195 103.875 16.4711 103.926 15.8551 103.372C15.239 102.818 15.1886 101.87 15.7424 101.253L17.9734 103.259ZM18.4977 98.2743C19.0684 97.6739 20.0179 97.6498 20.6183 98.2205C21.2188 98.7912 21.2429 99.7407 20.6721 100.341L18.4977 98.2743ZM27.7347 93.3559C27.1291 93.9212 26.1799 93.8886 25.6146 93.283C25.0493 92.6774 25.082 91.7282 25.6875 91.1629L27.7347 93.3559ZM28.5897 88.5092C29.2067 87.9564 30.155 88.0084 30.7079 88.6254C31.2607 89.2424 31.2087 90.1907 30.5917 90.7435L28.5897 88.5092ZM38.1604 84.2832C37.5182 84.8064 36.5734 84.71 36.0501 84.0677C35.5268 83.4255 35.6233 82.4806 36.2655 81.9574L38.1604 84.2832ZM39.3633 79.4766C40.0142 78.9642 40.9573 79.0764 41.4698 79.7273C41.9822 80.3782 41.87 81.3213 41.2191 81.8338L39.3633 79.4766ZM49.1623 75.8324C48.4919 76.3191 47.5539 76.1701 47.0672 75.4996C46.5806 74.8292 46.7296 73.8912 47.4 73.4046L49.1623 75.8324ZM50.6387 71.0893C51.316 70.6123 52.2518 70.7747 52.7288 71.452C53.2058 72.1294 53.0433 73.0651 52.366 73.5421L50.6387 71.0893ZM60.6093 67.9471C59.9162 68.4008 58.9865 68.2067 58.5328 67.5136C58.0791 66.8204 58.2732 65.8907 58.9663 65.437L60.6093 67.9471ZM62.3099 63.2787C63.0088 62.8338 63.9359 63.0397 64.3808 63.7385C64.8257 64.4373 64.6198 65.3645 63.921 65.8094L62.3099 63.2787ZM72.4193 60.5818C71.7072 61.0052 70.7868 60.7711 70.3634 60.059C69.94 59.3469 70.1741 58.4265 70.8862 58.0031L72.4193 60.5818ZM74.3108 55.9938C75.0277 55.5786 75.9454 55.8233 76.3605 56.5402C76.7757 57.2571 76.531 58.1748 75.8141 58.5899L74.3108 55.9938ZM84.5373 53.7025C83.809 54.0973 82.8986 53.827 82.5037 53.0987C82.1089 52.3704 82.3793 51.46 83.1076 51.0651L84.5373 53.7025ZM86.5969 49.1977C87.3293 48.8106 88.2368 49.0907 88.6239 49.8232C89.0109 50.5556 88.7309 51.4631 87.9984 51.8502L86.5969 49.1977ZM96.8908 47.3014C96.1484 47.669 95.2485 47.3651 94.8809 46.6227C94.5134 45.8803 94.8172 44.9805 95.5596 44.6129L96.8908 47.3014ZM99.1359 42.8648C99.882 42.5047 100.779 42.8177 101.139 43.5638C101.499 44.3099 101.186 45.2066 100.44 45.5666L99.1359 42.8648ZM109.439 41.362C108.685 41.7033 107.796 41.3681 107.455 40.6132C107.113 39.8584 107.449 38.9698 108.204 38.6285L109.439 41.362ZM111.902 36.9781C112.661 36.6443 113.546 36.9883 113.88 37.7465C114.214 38.5047 113.87 39.3899 113.111 39.7237L111.902 36.9781ZM122.203 35.8509C121.437 36.1665 120.56 35.8014 120.244 35.0354C119.929 34.2694 120.294 33.3927 121.06 33.0771L122.203 35.8509ZM124.796 31.5589C125.565 31.2507 126.438 31.6242 126.746 32.3932C127.054 33.1622 126.681 34.0354 125.912 34.3436L124.796 31.5589ZM135.162 30.7615C134.386 31.0516 133.522 30.6578 133.232 29.8818C132.942 29.1058 133.336 28.2416 134.112 27.9515L135.162 30.7615ZM137.871 26.5659C138.65 26.283 139.51 26.6849 139.793 27.4636C140.076 28.2422 139.674 29.1027 138.896 29.3856L137.871 26.5659ZM148.301 26.0916C147.516 26.3564 146.665 25.9347 146.4 25.1497C146.136 24.3647 146.557 23.5137 147.342 23.249L148.301 26.0916ZM151.123 21.9928C151.911 21.7353 152.758 22.1647 153.016 22.9521C153.273 23.7394 152.844 24.5865 152.056 24.8441L151.123 21.9928ZM161.584 21.8479C160.791 22.0873 159.954 21.6385 159.714 20.8455C159.475 20.0524 159.924 19.2154 160.717 18.9759L161.584 21.8479ZM164.537 17.8414C165.332 17.6092 166.165 18.0656 166.397 18.8608C166.63 19.656 166.173 20.4889 165.378 20.7211L164.537 17.8414ZM174.94 18.0461C174.14 18.2602 173.318 17.785 173.104 16.9847C172.889 16.1844 173.365 15.3621 174.165 15.148L174.94 18.0461ZM178.065 14.1236C178.867 13.9169 179.685 14.3996 179.892 15.2018C180.099 16.004 179.616 16.8219 178.814 17.0287L178.065 14.1236ZM188.439 14.664C187.632 14.8525 186.825 14.3513 186.637 13.5446C186.448 12.738 186.949 11.9312 187.756 11.7427L188.439 14.664ZM191.664 10.8482C192.472 10.6671 193.275 11.1755 193.456 11.9839C193.637 12.7923 193.128 13.5945 192.32 13.7756L191.664 10.8482ZM202.063 11.7091C201.251 11.8717 200.461 11.345 200.298 10.5326C200.136 9.72033 200.662 8.93001 201.475 8.76742L202.063 11.7091ZM205.389 8.00247C206.203 7.84731 206.988 8.38121 207.144 9.19498C207.299 10.0087 206.765 10.7942 205.951 10.9494L205.389 8.00247ZM215.764 9.19536C214.947 9.3317 214.174 8.77981 214.038 7.96267C213.901 7.14554 214.453 6.3726 215.27 6.23627L215.764 9.19536ZM219.225 5.59526C220.043 5.46649 220.811 6.02552 220.94 6.84387C221.068 7.66223 220.509 8.43003 219.691 8.5588L219.225 5.59526ZM229.506 7.13072C228.685 7.24047 227.93 6.6638 227.82 5.84267C227.71 5.02155 228.287 4.26692 229.108 4.15716L229.506 7.13072ZM233.094 3.64336C233.916 3.54132 234.666 4.12505 234.768 4.94717C234.87 5.76929 234.286 6.51847 233.464 6.62052L233.094 3.64336ZM243.336 5.5126C242.511 5.5953 241.776 4.99412 241.693 4.16983C241.611 3.34555 242.212 2.61029 243.036 2.52759L243.336 5.5126ZM247.018 2.14712C247.843 2.07222 248.572 2.68032 248.647 3.50535C248.722 4.33038 248.114 5.05993 247.289 5.13483L247.018 2.14712ZM257.238 4.3512C256.412 4.40635 255.697 3.78098 255.642 2.95439C255.587 2.1278 256.212 1.41301 257.038 1.35785L257.238 4.3512ZM261.012 1.11173C261.839 1.06446 262.548 1.69663 262.596 2.5237C262.643 3.35078 262.011 4.05958 261.184 4.10684L261.012 1.11173ZM271.107 3.65964C270.279 3.68693 269.585 3.03784 269.558 2.20986C269.531 1.38189 270.18 0.688555 271.008 0.661265L271.107 3.65964ZM275.029 0.548375C275.858 0.529178 276.545 1.18501 276.564 2.01321C276.583 2.84142 275.927 3.52837 275.099 3.54757L275.029 0.548375ZM285.019 3.43874C284.191 3.43768 283.52 2.76525 283.521 1.93683C283.522 1.1084 284.194 0.437686 285.023 0.438743L285.019 3.43874ZM289.027 0.463586C289.855 0.472814 290.519 1.15183 290.51 1.9802C290.501 2.80858 289.822 3.47263 288.993 3.4634L289.027 0.463586ZM298.961 3.69849C298.133 3.66862 297.486 2.97327 297.516 2.14538C297.546 1.31749 298.241 0.670572 299.069 0.700441L298.961 3.69849ZM303.051 0.863931C303.878 0.90204 304.518 1.6038 304.48 2.43135C304.442 3.2589 303.74 3.89886 302.913 3.86076L303.051 0.863931ZM312.832 4.44254C312.005 4.38361 311.383 3.66596 311.442 2.83964C311.501 2.01331 312.219 1.39121 313.045 1.45014L312.832 4.44254ZM317.058 1.75686C317.884 1.8242 318.498 2.54815 318.431 3.37383C318.364 4.19952 317.64 4.81428 316.814 4.74693L317.058 1.75686ZM326.686 5.67848C325.862 5.59015 325.266 4.85079 325.354 4.02709C325.442 3.20338 326.182 2.60725 327.005 2.69558L326.686 5.67848ZM330.985 3.14298C331.808 3.23976 332.396 3.9852 332.299 4.80795C332.203 5.6307 331.457 6.21922 330.634 6.12244L330.985 3.14298ZM340.524 7.41567C339.704 7.29761 339.135 6.53719 339.253 5.71722C339.371 4.89724 340.132 4.32823 340.952 4.44629L340.524 7.41567ZM344.89 5.03414C345.709 5.16065 346.27 5.9269 346.144 6.74561C346.017 7.56432 345.251 8.12546 344.432 7.99895L344.89 5.03414ZM354.225 9.64277C353.409 9.49499 352.868 8.71438 353.016 7.89924C353.164 7.0841 353.945 6.54311 354.76 6.6909L354.225 9.64277ZM358.715 7.42959C359.529 7.58594 360.062 8.3722 359.905 9.18574C359.749 9.99927 358.963 10.532 358.149 10.3757L358.715 7.42959ZM367.864 12.3752C367.055 12.1976 366.543 11.3976 366.721 10.5885C366.899 9.77931 367.698 9.26737 368.508 9.44502L367.864 12.3752ZM372.41 10.3234C373.218 10.5095 373.721 11.3148 373.535 12.1221C373.349 12.9293 372.543 13.4328 371.736 13.2467L372.41 10.3234ZM381.427 15.6173C380.625 15.4098 380.143 14.5914 380.35 13.7893C380.558 12.9873 381.376 12.5054 382.178 12.7129L381.427 15.6173ZM386.038 13.7335C386.838 13.9495 387.311 14.7729 387.095 15.5727C386.879 16.3725 386.056 16.8457 385.256 16.6297L386.038 13.7335ZM394.788 19.3398C393.994 19.1028 393.543 18.2671 393.78 17.4733C394.017 16.6795 394.853 16.2282 395.647 16.4653L394.788 19.3398ZM399.492 17.6362C400.283 17.8817 400.725 18.7222 400.48 19.5134C400.234 20.3046 399.394 20.7469 398.603 20.5014L399.492 17.6362ZM408.057 23.5738C407.272 23.3073 406.852 22.4554 407.119 21.671C407.385 20.8866 408.237 20.4668 409.022 20.7333L408.057 23.5738ZM412.792 22.0365C413.573 22.3113 413.984 23.1676 413.709 23.9491C413.434 24.7306 412.578 25.1414 411.797 24.8666L412.792 22.0365ZM421.144 28.2936C420.37 27.9982 419.982 27.1312 420.277 26.3573C420.573 25.5833 421.44 25.1955 422.214 25.491L421.144 28.2936ZM425.981 26.9524C426.751 27.2561 427.13 28.1271 426.826 28.8979C426.523 29.6686 425.652 30.0472 424.881 29.7434L425.981 26.9524ZM434.022 33.4859C433.26 33.162 432.904 32.2813 433.228 31.5188C433.552 30.7564 434.433 30.4008 435.195 30.7248L434.022 33.4859ZM438.874 32.3106C439.633 32.6425 439.979 33.5269 439.648 34.2859C439.316 35.045 438.431 35.3912 437.672 35.0592L438.874 32.3106ZM446.782 39.1879C446.032 38.836 445.71 37.9428 446.062 37.1928C446.414 36.4428 447.307 36.1201 448.057 36.472L446.782 39.1879ZM451.638 38.1751C452.384 38.5348 452.698 39.4313 452.338 40.1776C451.978 40.9239 451.082 41.2373 450.336 40.8777L451.638 38.1751ZM459.205 45.2948C458.468 44.9159 458.178 44.0116 458.557 43.2749C458.936 42.5382 459.84 42.2481 460.577 42.627L459.205 45.2948ZM464.146 44.4862C464.879 44.8727 465.159 45.7801 464.773 46.5128C464.386 47.2455 463.479 47.5262 462.746 47.1396L464.146 44.4862ZM471.484 51.8943C470.762 51.489 470.505 50.5747 470.91 49.8522C471.315 49.1297 472.229 48.8725 472.952 49.2777L471.484 51.8943ZM476.412 51.2416C477.13 51.6541 477.378 52.571 476.966 53.2893C476.553 54.0077 475.636 54.2556 474.918 53.8431L476.412 51.2416ZM483.481 58.9069C482.774 58.4763 482.549 57.5535 482.98 56.8458C483.411 56.1381 484.333 55.9135 485.041 56.3441L483.481 58.9069ZM488.484 58.4631C489.187 58.9009 489.402 59.8259 488.964 60.5292C488.527 61.2325 487.602 61.4478 486.898 61.01L488.484 58.4631ZM495.23 66.341C494.538 65.8859 494.346 64.9558 494.801 64.2636C495.256 63.5714 496.186 63.3791 496.878 63.8342L495.23 66.341ZM500.202 66.0426C500.889 66.5044 501.072 67.4364 500.611 68.1241C500.149 68.8118 499.217 68.995 498.529 68.5331L500.202 66.0426ZM506.751 74.2026C506.075 73.724 505.915 72.7879 506.394 72.1117C506.872 71.4355 507.808 71.2752 508.484 71.7538L506.751 74.2026ZM511.781 74.1113C512.453 74.5965 512.604 75.5341 512.119 76.2056C511.634 76.8771 510.696 77.0282 510.025 76.5431L511.781 74.1113ZM517.934 82.4008C517.274 81.8999 517.145 80.959 517.646 80.2991C518.147 79.6392 519.088 79.5103 519.748 80.0111L517.934 82.4008ZM522.922 82.4445C523.578 82.9515 523.698 83.8937 523.191 84.5488C522.684 85.2039 521.741 85.324 521.086 84.817L522.922 82.4445ZM528.938 91.0426C528.295 90.5203 528.197 89.5757 528.719 88.9326C529.242 88.2895 530.186 88.1915 530.829 88.7138L528.938 91.0426ZM534.034 91.3446C534.67 91.8745 534.757 92.8202 534.227 93.4571C533.698 94.0939 532.752 94.1807 532.115 93.6508L534.034 91.3446ZM539.834 100.315C539.217 99.7618 539.165 98.8134 539.718 98.1967C540.271 97.58 541.22 97.5284 541.837 98.0815L539.834 100.315ZM544.801 100.782C545.41 101.344 545.447 102.293 544.884 102.901C544.322 103.51 543.373 103.547 542.764 102.984L544.801 100.782ZM549.762 109.718C549.177 109.132 549.178 108.182 549.764 107.597C550.351 107.012 551.301 107.013 551.886 107.6L549.762 109.718ZM554.817 110.592C555.391 111.189 555.373 112.139 554.775 112.713C554.178 113.287 553.229 113.269 552.654 112.672L554.817 110.592ZM559.431 120.056C558.886 119.433 558.949 118.485 559.573 117.94C560.197 117.395 561.144 117.458 561.69 118.082L559.431 120.056ZM564.259 121.08C564.792 121.714 564.71 122.661 564.075 123.193C563.441 123.726 562.495 123.644 561.962 123.01L564.259 121.08ZM568.178 130.823C567.68 130.161 567.814 129.221 568.476 128.723C569.138 128.225 570.079 128.359 570.576 129.021L568.178 130.823ZM572.994 132.316C573.476 132.99 573.321 133.927 572.647 134.409C571.973 134.891 571.037 134.736 570.554 134.062L572.994 132.316ZM575.984 142.146C575.544 141.445 575.755 140.519 576.457 140.078C577.158 139.637 578.084 139.849 578.525 140.55L575.984 142.146ZM580.674 144.076C581.096 144.789 580.86 145.708 580.147 146.13C579.434 146.552 578.514 146.316 578.092 145.603L580.674 144.076ZM582.871 154.359C582.5 153.618 582.8 152.717 583.541 152.346C584.282 151.976 585.183 152.276 585.554 153.017L582.871 154.359ZM587.275 156.585C587.625 157.336 587.299 158.228 586.547 158.577C585.796 158.927 584.904 158.601 584.555 157.849L587.275 156.585ZM588.411 167.067C588.122 166.291 588.517 165.427 589.293 165.138C590.07 164.849 590.933 165.244 591.222 166.021L588.411 167.067ZM592.571 169.83C592.834 170.615 592.411 171.466 591.626 171.729C590.84 171.993 589.99 171.57 589.726 170.784L592.571 169.83ZM592.467 180.258C592.272 179.453 592.765 178.641 593.57 178.445C594.375 178.249 595.186 178.743 595.382 179.548L592.467 180.258ZM596.278 183.535C596.446 184.347 595.924 185.14 595.112 185.307C594.301 185.474 593.507 184.952 593.34 184.141L596.278 183.535ZM594.891 193.838C594.797 193.015 595.389 192.272 596.212 192.178C597.035 192.084 597.778 192.676 597.872 193.499L594.891 193.838ZM598.261 197.582C598.324 198.408 597.706 199.129 596.879 199.192C596.053 199.255 595.333 198.637 595.269 197.811L598.261 197.582ZM595.569 207.65C595.582 206.822 596.263 206.161 597.092 206.174C597.92 206.187 598.581 206.869 598.568 207.697L595.569 207.65ZM598.429 211.777C598.385 212.604 597.679 213.239 596.852 213.196C596.025 213.152 595.39 212.446 595.433 211.619L598.429 211.777ZM594.464 221.457C594.582 220.637 595.343 220.069 596.163 220.187C596.983 220.306 597.551 221.066 597.433 221.886L594.464 221.457ZM596.782 225.89C596.634 226.705 595.854 227.246 595.039 227.099C594.223 226.952 593.682 226.171 593.83 225.356L596.782 225.89ZM591.645 235.01C591.863 234.21 592.687 233.738 593.486 233.956C594.286 234.173 594.758 234.997 594.54 235.796L591.645 235.01ZM593.409 239.7C593.165 240.492 592.326 240.936 591.534 240.692C590.742 240.449 590.298 239.609 590.542 238.817L593.409 239.7ZM587.251 248.146C587.558 247.376 588.43 247.001 589.2 247.307C589.969 247.613 590.345 248.485 590.039 249.255L587.251 248.146ZM588.477 253.011C588.148 253.771 587.264 254.12 586.504 253.79C585.744 253.461 585.395 252.577 585.725 251.817L588.477 253.011ZM581.454 260.748C581.838 260.014 582.744 259.73 583.478 260.114C584.212 260.498 584.496 261.405 584.112 262.139L581.454 260.748ZM582.179 265.71C581.774 266.433 580.861 266.692 580.137 266.287C579.414 265.883 579.156 264.969 579.56 264.246L582.179 265.71ZM574.432 272.738C574.883 272.043 575.812 271.845 576.507 272.296C577.202 272.748 577.399 273.677 576.948 274.371L574.432 272.738ZM574.7 277.74C574.231 278.423 573.298 278.597 572.615 278.128C571.931 277.66 571.757 276.726 572.226 276.043L574.7 277.74ZM566.356 284.072C566.864 283.418 567.806 283.3 568.46 283.808C569.114 284.317 569.232 285.259 568.724 285.913L566.356 284.072ZM566.209 289.072C565.686 289.714 564.741 289.811 564.099 289.287C563.456 288.764 563.36 287.819 563.883 287.177L566.209 289.072ZM557.375 294.727C557.933 294.115 558.882 294.07 559.494 294.628C560.107 295.185 560.152 296.134 559.594 296.747L557.375 294.727ZM556.851 299.697C556.281 300.298 555.332 300.323 554.731 299.752C554.13 299.182 554.105 298.233 554.675 297.632L556.851 299.697ZM547.632 304.685C548.232 304.113 549.181 304.136 549.753 304.736C550.324 305.336 550.301 306.286 549.701 306.857L547.632 304.685ZM546.751 309.613C546.14 310.173 545.191 310.131 544.631 309.52C544.072 308.909 544.113 307.961 544.724 307.401L546.751 309.613ZM537.227 313.95C537.863 313.419 538.809 313.506 539.34 314.142C539.87 314.778 539.784 315.724 539.147 316.255L537.227 313.95ZM536.012 318.818C535.366 319.337 534.422 319.233 533.904 318.587C533.385 317.941 533.488 316.997 534.135 316.479L536.012 318.818ZM526.233 322.534C526.901 322.045 527.84 322.19 528.329 322.859C528.818 323.527 528.673 324.466 528.004 324.955L526.233 322.534ZM524.723 327.312C524.046 327.789 523.11 327.627 522.633 326.95C522.155 326.273 522.317 325.338 522.994 324.86L524.723 327.312ZM514.723 330.428C515.42 329.98 516.348 330.183 516.796 330.88C517.243 331.577 517.041 332.505 516.344 332.952L514.723 330.428ZM512.929 335.105C512.224 335.541 511.3 335.323 510.864 334.618C510.428 333.914 510.646 332.989 511.351 332.554L512.929 335.105ZM502.762 337.616C503.484 337.211 504.399 337.468 504.804 338.19C505.21 338.913 504.953 339.827 504.23 340.232L502.762 337.616ZM500.688 342.181C499.958 342.574 499.049 342.301 498.656 341.572C498.263 340.843 498.535 339.933 499.264 339.54L500.688 342.181ZM490.407 344.073C491.152 343.712 492.049 344.023 492.411 344.768C492.772 345.514 492.461 346.411 491.716 346.773L490.407 344.073ZM488.051 348.512C487.299 348.86 486.407 348.534 486.059 347.782C485.71 347.031 486.037 346.139 486.788 345.79L488.051 348.512ZM477.677 349.778C478.444 349.462 479.32 349.828 479.636 350.594C479.951 351.36 479.586 352.236 478.82 352.552L477.677 349.778ZM475.061 354.06C474.29 354.361 473.42 353.98 473.118 353.209C472.817 352.437 473.198 351.567 473.969 351.266L475.061 354.06ZM464.604 354.68C465.388 354.415 466.24 354.836 466.505 355.62C466.771 356.405 466.35 357.256 465.565 357.522L464.604 354.68ZM461.758 358.771C460.968 359.022 460.125 358.585 459.874 357.795C459.624 357.005 460.061 356.162 460.85 355.911L461.758 358.771ZM451.242 358.702C452.043 358.491 452.864 358.97 453.075 359.771C453.286 360.572 452.807 361.392 452.006 361.603L451.242 358.702ZM448.117 362.584C447.312 362.779 446.501 362.283 446.307 361.478C446.113 360.672 446.608 359.862 447.414 359.668L448.117 362.584ZM437.642 361.745C438.457 361.595 439.238 362.135 439.388 362.949C439.537 363.764 438.998 364.546 438.183 364.695L437.642 361.745ZM434.218 365.375C433.4 365.505 432.631 364.948 432.501 364.13C432.371 363.312 432.928 362.543 433.746 362.412L434.218 365.375ZM423.862 363.675C424.687 363.597 425.419 364.202 425.498 365.026C425.576 365.851 424.972 366.583 424.147 366.662L423.862 363.675ZM420.125 366.991C419.299 367.048 418.583 366.423 418.526 365.597C418.47 364.77 419.094 364.055 419.921 363.998L420.125 366.991ZM409.99 364.317C410.818 364.322 411.486 364.997 411.482 365.825C411.477 366.654 410.802 367.322 409.973 367.317L409.99 364.317ZM405.927 367.231C405.1 367.2 404.454 366.503 404.485 365.675C404.516 364.848 405.212 364.202 406.04 364.233L405.927 367.231ZM396.165 363.435C396.987 363.539 397.569 364.289 397.465 365.111C397.361 365.933 396.611 366.515 395.789 366.411L396.165 363.435ZM391.778 365.825C390.96 365.689 390.408 364.917 390.544 364.1C390.679 363.282 391.452 362.73 392.269 362.866L391.778 365.825ZM382.627 360.739C383.425 360.961 383.891 361.789 383.669 362.587C383.446 363.385 382.618 363.851 381.82 363.628L382.627 360.739ZM377.938 362.445C377.152 362.185 376.725 361.336 376.985 360.55C377.246 359.764 378.094 359.337 378.881 359.597L377.938 362.445ZM369.76 355.918C370.506 356.278 370.819 357.175 370.458 357.921C370.098 358.667 369.201 358.98 368.455 358.619L369.76 355.918ZM364.841 356.746C364.117 356.344 363.855 355.431 364.257 354.707C364.659 353.982 365.572 353.721 366.297 354.123L364.841 356.746ZM358.11 348.744C358.766 349.251 358.886 350.193 358.38 350.848C357.873 351.504 356.931 351.624 356.275 351.118L358.11 348.744ZM353.112 348.509C352.49 347.962 352.429 347.014 352.977 346.392C353.524 345.77 354.472 345.709 355.094 346.256L353.112 348.509ZM348.294 339.232C348.82 339.872 348.729 340.817 348.089 341.344C347.45 341.87 346.505 341.779 345.978 341.14L348.294 339.232ZM343.485 337.911C343 337.239 343.151 336.302 343.822 335.816C344.493 335.331 345.431 335.481 345.916 336.153L343.485 337.911ZM340.782 327.76C341.161 328.497 340.87 329.401 340.133 329.78C339.396 330.158 338.492 329.867 338.113 329.13L340.782 327.76ZM336.384 325.516C336.047 324.759 336.387 323.872 337.144 323.535C337.901 323.198 338.787 323.539 339.124 324.295L336.384 325.516ZM335.7 314.983C335.936 315.777 335.484 316.612 334.69 316.848C333.896 317.084 333.06 316.632 332.824 315.838L335.7 314.983ZM331.782 312.013C331.582 311.209 332.072 310.395 332.876 310.195C333.679 309.995 334.493 310.485 334.693 311.289L331.782 312.013ZM332.819 301.548C332.934 302.368 332.362 303.127 331.542 303.242C330.721 303.357 329.963 302.785 329.848 301.965L332.819 301.548ZM329.336 297.746C329.249 296.922 329.847 296.185 330.671 296.098C331.495 296.012 332.233 296.61 332.319 297.434L329.336 297.746ZM331.673 287.532C331.693 288.36 331.038 289.047 330.209 289.067C329.381 289.087 328.694 288.431 328.674 287.603L331.673 287.532ZM328.648 283.668C328.657 282.84 329.336 282.176 330.165 282.185C330.993 282.194 331.657 282.873 331.648 283.701L328.648 283.668ZM332.245 273.771C332.152 274.594 331.41 275.187 330.587 275.095C329.764 275.002 329.171 274.26 329.263 273.437L332.245 273.771ZM329.787 269.516C329.915 268.698 330.682 268.138 331.5 268.265C332.319 268.393 332.879 269.16 332.751 269.978L329.787 269.516ZM334.852 260.326C334.626 261.122 333.796 261.585 332.999 261.359C332.203 261.132 331.74 260.303 331.966 259.506L334.852 260.326ZM333.17 255.652C333.438 254.868 334.29 254.45 335.074 254.718C335.858 254.985 336.277 255.838 336.009 256.622L333.17 255.652ZM339.801 247.617C339.425 248.356 338.523 248.651 337.784 248.275C337.045 247.9 336.751 246.997 337.126 246.259L339.801 247.617ZM339.094 242.653C339.512 241.938 340.431 241.698 341.146 242.116C341.861 242.535 342.102 243.453 341.683 244.168L339.094 242.653ZM347.219 236.155C346.698 236.799 345.754 236.899 345.11 236.378C344.465 235.857 344.365 234.913 344.886 234.269L347.219 236.155ZM347.555 231.164C348.113 230.553 349.062 230.51 349.674 231.068C350.285 231.627 350.328 232.576 349.77 233.187L347.555 231.164ZM356.856 226.489C356.215 227.013 355.27 226.918 354.745 226.277C354.221 225.635 354.316 224.69 354.957 224.166L356.856 226.489ZM358.189 221.671C358.859 221.183 359.797 221.33 360.285 221.999C360.773 222.669 360.626 223.607 359.956 224.095L358.189 221.671ZM368.219 218.866C367.492 219.263 366.58 218.997 366.182 218.27C365.785 217.544 366.051 216.632 366.778 216.234L368.219 218.866ZM370.419 214.353C371.164 213.991 372.062 214.3 372.425 215.045C372.787 215.79 372.477 216.688 371.732 217.051L370.419 214.353ZM380.769 213.258C379.989 213.537 379.13 213.132 378.851 212.352C378.571 211.572 378.977 210.713 379.757 210.434L380.769 213.258ZM383.646 209.128C384.436 208.88 385.278 209.32 385.526 210.11C385.774 210.901 385.334 211.743 384.543 211.991L383.646 209.128ZM394.045 209.487C393.235 209.662 392.437 209.148 392.261 208.339C392.086 207.529 392.6 206.73 393.41 206.555L394.045 209.487ZM397.391 205.762C398.206 205.614 398.987 206.154 399.136 206.969C399.284 207.784 398.743 208.565 397.928 208.714L397.391 205.762ZM407.709 207.324C406.885 207.41 406.148 206.812 406.062 205.988C405.976 205.164 406.574 204.426 407.398 204.34L407.709 207.324ZM411.416 203.979C412.242 203.916 412.962 204.535 413.025 205.361C413.088 206.187 412.469 206.908 411.643 206.971L411.416 203.979ZM421.54 206.549C420.711 206.558 420.033 205.893 420.024 205.065C420.015 204.237 420.68 203.558 421.508 203.549L421.54 206.549ZM425.536 203.556C426.364 203.567 427.026 204.248 427.015 205.076C427.004 205.905 426.323 206.567 425.495 206.556L425.536 203.556ZM435.397 206.977C434.57 206.919 433.948 206.202 434.006 205.375C434.065 204.549 434.782 203.926 435.608 203.985L435.397 206.977ZM439.634 204.313C440.459 204.389 441.066 205.119 440.989 205.944C440.913 206.769 440.183 207.376 439.358 207.3L439.634 204.313ZM449.191 208.462C448.371 208.345 447.802 207.584 447.92 206.764C448.037 205.944 448.798 205.375 449.618 205.493L449.191 208.462ZM453.632 206.11C454.45 206.244 455.004 207.015 454.87 207.832C454.736 208.65 453.965 209.204 453.148 209.07L453.632 206.11ZM462.862 210.893C462.052 210.721 461.534 209.926 461.705 209.115C461.876 208.304 462.672 207.786 463.483 207.958L462.862 210.893ZM467.451 208.833C468.258 209.019 468.762 209.824 468.576 210.632C468.391 211.439 467.585 211.943 466.778 211.757L467.451 208.833ZM476.366 214.182C475.567 213.962 475.099 213.136 475.319 212.338C475.539 211.539 476.365 211.07 477.163 211.29L476.366 214.182ZM481.053 212.398C481.848 212.631 482.303 213.465 482.069 214.26C481.836 215.055 481.002 215.51 480.207 215.276L481.053 212.398ZM489.665 218.266C488.88 218.001 488.459 217.149 488.725 216.365C488.99 215.58 489.842 215.159 490.627 215.425L489.665 218.266ZM494.43 216.746C495.211 217.024 495.618 217.883 495.34 218.663C495.062 219.443 494.204 219.85 493.423 219.572L494.43 216.746ZM502.723 223.094C501.954 222.785 501.581 221.912 501.889 221.143C502.198 220.374 503.071 220.001 503.84 220.31L502.723 223.094ZM507.553 221.832C508.317 222.153 508.677 223.032 508.357 223.796C508.037 224.56 507.158 224.919 506.394 224.599L507.553 221.832ZM515.507 228.626C514.756 228.277 514.43 227.384 514.779 226.633C515.129 225.882 516.021 225.556 516.772 225.905L515.507 228.626ZM520.39 227.62C521.135 227.98 521.448 228.877 521.087 229.623C520.727 230.369 519.83 230.681 519.084 230.321L520.39 227.62ZM527.968 234.822C527.236 234.434 526.957 233.526 527.346 232.794C527.734 232.063 528.642 231.784 529.374 232.172L527.968 234.822ZM532.906 234.081C533.632 234.48 533.897 235.392 533.497 236.118C533.098 236.844 532.186 237.109 531.46 236.709L532.906 234.081ZM540.071 241.658C539.361 241.232 539.131 240.311 539.557 239.6C539.983 238.89 540.904 238.659 541.615 239.086L540.071 241.658ZM545.061 241.189C545.765 241.626 545.981 242.551 545.544 243.254C545.108 243.958 544.183 244.175 543.479 243.738L545.061 241.189ZM551.807 249.127C551.12 248.664 550.939 247.732 551.402 247.045C551.865 246.358 552.798 246.177 553.485 246.64L551.807 249.127ZM556.806 248.917C557.486 249.39 557.653 250.325 557.179 251.005C556.706 251.685 555.771 251.852 555.091 251.378L556.806 248.917ZM563.133 257.214C562.472 256.715 562.341 255.774 562.841 255.113C563.34 254.452 564.281 254.321 564.942 254.82L563.133 257.214ZM568.13 257.268C568.783 257.778 568.9 258.72 568.39 259.374C567.881 260.027 566.938 260.143 566.285 259.634L568.13 257.268ZM574.005 265.904C573.372 265.369 573.293 264.423 573.828 263.79C574.363 263.157 575.309 263.078 575.942 263.613L574.005 265.904ZM578.987 266.23C579.611 266.775 579.676 267.722 579.131 268.346C578.586 268.97 577.638 269.035 577.014 268.49L578.987 266.23ZM584.37 275.178C583.768 274.609 583.743 273.659 584.312 273.058C584.882 272.456 585.831 272.43 586.433 273L584.37 275.178ZM589.33 275.789C589.922 276.369 589.932 277.318 589.353 277.91C588.773 278.502 587.823 278.513 587.231 277.933L589.33 275.789ZM594.181 285.023C593.613 284.419 593.643 283.47 594.246 282.902C594.85 282.335 595.799 282.364 596.366 282.968L594.181 285.023ZM599.102 285.928C599.659 286.541 599.613 287.49 599 288.047C598.387 288.604 597.438 288.558 596.881 287.945L599.102 285.928ZM603.394 295.43C602.864 294.793 602.95 293.847 603.586 293.317C604.223 292.787 605.169 292.873 605.699 293.51L603.394 295.43ZM608.248 296.626C608.767 297.272 608.664 298.216 608.019 298.735C607.373 299.254 606.429 299.151 605.91 298.505L608.248 296.626ZM611.955 306.38C611.465 305.712 611.61 304.773 612.278 304.283C612.946 303.794 613.885 303.939 614.375 304.607L611.955 306.38ZM616.722 307.872C617.199 308.549 617.038 309.485 616.36 309.962C615.683 310.44 614.748 310.278 614.27 309.601L616.722 307.872ZM619.81 317.854C619.365 317.155 619.569 316.228 620.268 315.782C620.966 315.336 621.893 315.541 622.339 316.24L619.81 317.854ZM624.467 319.642C624.899 320.349 624.677 321.272 623.971 321.705C623.264 322.137 622.341 321.915 621.908 321.209L624.467 319.642ZM626.889 329.793C626.491 329.067 626.756 328.155 627.482 327.756C628.209 327.358 629.121 327.623 629.519 328.349L626.889 329.793ZM631.429 331.91C631.814 332.644 631.531 333.551 630.797 333.935C630.063 334.32 629.157 334.037 628.772 333.303L631.429 331.91ZM633.152 342.175C632.803 341.424 633.13 340.532 633.881 340.183C634.633 339.835 635.525 340.162 635.873 340.913L633.152 342.175ZM637.535 344.591C637.869 345.349 637.524 346.234 636.766 346.568C636.008 346.902 635.123 346.557 634.789 345.799L637.535 344.591ZM638.555 354.965C638.259 354.191 638.647 353.324 639.421 353.028C640.194 352.732 641.061 353.12 641.357 353.894L638.555 354.965ZM642.756 357.664C643.036 358.444 642.631 359.303 641.852 359.583C641.072 359.864 640.213 359.459 639.933 358.679L642.756 357.664ZM643.064 368.125C642.823 367.332 643.27 366.494 644.063 366.253C644.855 366.012 645.693 366.46 645.934 367.252L643.064 368.125ZM647.058 371.089C647.283 371.886 646.819 372.715 646.022 372.94C645.225 373.165 644.396 372.701 644.171 371.904L647.058 371.089ZM646.626 381.519C646.441 380.711 646.946 379.907 647.754 379.722C648.561 379.537 649.366 380.042 649.551 380.85L646.626 381.519ZM650.417 384.822C650.586 385.633 650.065 386.427 649.254 386.596C648.442 386.764 647.648 386.243 647.48 385.432L650.417 384.822ZM649.244 395.124C649.116 394.306 649.675 393.538 650.494 393.41C651.312 393.282 652.08 393.842 652.208 394.66L649.244 395.124ZM652.793 398.657C652.905 399.478 652.331 400.234 651.51 400.346C650.689 400.458 649.933 399.883 649.821 399.063L652.793 398.657ZM650.921 408.925C650.849 408.1 651.46 407.373 652.285 407.301C653.11 407.229 653.838 407.84 653.909 408.666L650.921 408.925ZM654.217 412.653C654.273 413.48 653.648 414.195 652.822 414.251C651.995 414.307 651.28 413.682 651.224 412.855L654.217 412.653ZM651.658 422.824C651.642 421.996 652.3 421.311 653.128 421.295C653.957 421.279 654.641 421.937 654.658 422.765L651.658 422.824ZM654.705 426.859C654.71 427.688 654.043 428.364 653.215 428.369C652.386 428.374 651.71 427.707 651.705 426.878L654.705 426.859ZM651.673 437.002C651.683 436.174 652.363 435.511 653.192 435.521C654.02 435.532 654.683 436.212 654.673 437.04L651.673 437.002ZM654.606 441.087C654.589 441.915 653.904 442.573 653.076 442.556C652.248 442.539 651.59 441.854 651.607 441.026L654.606 441.087ZM651.307 451.125C651.339 450.297 652.037 449.652 652.865 449.684C653.692 449.717 654.337 450.414 654.305 451.242L651.307 451.125ZM654.131 455.307C654.092 456.134 653.39 456.774 652.562 456.735C651.735 456.697 651.095 455.995 651.134 455.167L654.131 455.307ZM650.572 465.203C650.626 464.377 651.34 463.75 652.167 463.804C652.994 463.858 653.62 464.572 653.566 465.399L650.572 465.203ZM653.284 469.478C653.224 470.305 652.506 470.926 651.679 470.865C650.853 470.805 650.232 470.087 650.292 469.26L653.284 469.478ZM649.465 479.33C649.541 478.505 650.271 477.898 651.096 477.973C651.921 478.049 652.528 478.779 652.453 479.603L649.465 479.33ZM652.071 483.623C651.989 484.447 651.255 485.05 650.43 484.968C649.606 484.887 649.004 484.152 649.085 483.328L652.071 483.623ZM647.997 493.397C648.093 492.574 648.838 491.985 649.661 492.082C650.484 492.178 651.073 492.924 650.976 493.746L647.997 493.397ZM650.488 497.774C650.386 498.596 649.636 499.179 648.814 499.077C647.992 498.974 647.409 498.225 647.511 497.403L650.488 497.774ZM646.173 507.397C646.29 506.577 647.05 506.007 647.87 506.124C648.69 506.242 649.26 507.002 649.142 507.822L646.173 507.397ZM648.55 511.855C648.427 512.674 647.663 513.239 646.843 513.115C646.024 512.992 645.46 512.228 645.583 511.409L648.55 511.855ZM643.996 521.351C644.134 520.534 644.908 519.984 645.725 520.122C646.542 520.26 647.092 521.034 646.954 521.85L643.996 521.351ZM646.263 525.86C646.119 526.676 645.341 527.221 644.525 527.077C643.71 526.934 643.165 526.156 643.308 525.34L646.263 525.86ZM641.466 535.286C641.624 534.473 642.412 533.942 643.225 534.1C644.038 534.258 644.569 535.045 644.411 535.858L641.466 535.286ZM643.627 539.82C643.463 540.632 642.672 541.157 641.86 540.994C641.048 540.83 640.523 540.039 640.686 539.227L643.627 539.82ZM638.599 549.136C638.777 548.327 639.577 547.815 640.386 547.993C641.195 548.171 641.707 548.971 641.529 549.78L638.599 549.136ZM640.645 553.738C640.462 554.546 639.659 555.052 638.851 554.869C638.043 554.685 637.536 553.882 637.72 553.074L640.645 553.738ZM635.403 562.895C635.6 562.091 636.412 561.598 637.216 561.795C638.021 561.992 638.514 562.804 638.317 563.609L635.403 562.895ZM637.334 567.562C637.131 568.366 636.316 568.852 635.513 568.65C634.709 568.447 634.222 567.632 634.425 566.829L637.334 567.562ZM631.885 576.559C632.101 575.759 632.924 575.286 633.724 575.502C634.524 575.718 634.997 576.541 634.781 577.341L631.885 576.559ZM633.701 581.288C633.48 582.086 632.653 582.554 631.855 582.333C631.056 582.112 630.589 581.285 630.81 580.487L633.701 581.288ZM628.033 590.189C628.268 589.395 629.102 588.941 629.897 589.175C630.691 589.41 631.145 590.244 630.911 591.038L628.033 590.189ZM629.754 594.911C629.514 595.704 628.677 596.152 627.884 595.913C627.091 595.673 626.643 594.836 626.882 594.043L629.754 594.911ZM623.871 603.721C624.124 602.932 624.968 602.497 625.757 602.75C626.546 603.002 626.981 603.846 626.728 604.635L623.871 603.721ZM625.486 608.474C625.228 609.261 624.381 609.691 623.594 609.433C622.806 609.176 622.377 608.328 622.635 607.541L625.486 608.474ZM619.407 617.144C619.677 616.361 620.531 615.945 621.314 616.216C622.097 616.486 622.513 617.34 622.243 618.123L619.407 617.144ZM620.91 621.946C620.635 622.728 619.778 623.138 618.997 622.863C618.216 622.588 617.805 621.731 618.08 620.95L620.91 621.946ZM614.648 630.457C614.936 629.68 615.799 629.283 616.576 629.57C617.353 629.858 617.749 630.72 617.462 631.497L614.648 630.457ZM616.04 635.304C615.748 636.08 614.883 636.471 614.108 636.179C613.332 635.887 612.941 635.021 613.233 634.246L616.04 635.304ZM609.602 643.655C609.907 642.885 610.778 642.506 611.548 642.811C612.319 643.115 612.697 643.986 612.393 644.757L609.602 643.655ZM610.883 648.546C610.575 649.314 609.701 649.687 608.932 649.378C608.164 649.069 607.791 648.196 608.1 647.427L610.883 648.546ZM604.275 656.738C604.596 655.974 605.475 655.615 606.239 655.935C607.003 656.256 607.362 657.135 607.041 657.899L604.275 656.738ZM605.446 661.668C605.121 662.43 604.24 662.784 603.478 662.459C602.716 662.134 602.362 661.253 602.687 660.491L605.446 661.668ZM598.672 669.705C599.009 668.948 599.895 668.607 600.652 668.944C601.409 669.28 601.75 670.167 601.414 670.924L598.672 669.705ZM599.734 674.671C599.393 675.426 598.504 675.762 597.749 675.42C596.994 675.079 596.659 674.191 597 673.436L599.734 674.671ZM592.793 682.568C593.145 681.818 594.038 681.496 594.788 681.848C595.538 682.2 595.86 683.093 595.508 683.843L592.793 682.568ZM593.752 687.553C593.396 688.3 592.5 688.618 591.753 688.261C591.005 687.904 590.688 687.009 591.045 686.261L593.752 687.553ZM586.647 695.311C587.015 694.568 587.915 694.264 588.657 694.632C589.4 694.999 589.704 695.899 589.336 696.641L586.647 695.311ZM587.506 700.312C587.134 701.053 586.232 701.351 585.492 700.98C584.752 700.608 584.453 699.706 584.825 698.966L587.506 700.312ZM580.249 707.917C580.631 707.182 581.537 706.896 582.272 707.278C583.007 707.661 583.292 708.566 582.91 709.301L580.249 707.917ZM580.999 712.948C580.612 713.68 579.705 713.961 578.972 713.574C578.24 713.188 577.959 712.28 578.346 711.548L580.999 712.948ZM573.588 720.409C573.985 719.682 574.896 719.414 575.624 719.811C576.351 720.209 576.618 721.12 576.221 721.847L573.588 720.409ZM574.238 725.454C573.837 726.179 572.924 726.441 572.199 726.04C571.474 725.638 571.212 724.726 571.613 724.001L574.238 725.454ZM566.669 732.785C567.08 732.066 567.996 731.817 568.716 732.228C569.435 732.64 569.684 733.556 569.272 734.275L566.669 732.785ZM567.231 737.819C566.816 738.535 565.898 738.779 565.181 738.364C564.465 737.948 564.22 737.03 564.636 736.314L567.231 737.819ZM559.506 745.02C559.932 744.309 560.853 744.078 561.564 744.503C562.274 744.929 562.505 745.85 562.08 746.561L559.506 745.02ZM559.997 750.017C559.568 750.725 558.645 750.951 557.937 750.522C557.229 750.092 557.002 749.17 557.432 748.462L559.997 750.017ZM552.127 757.074C552.566 756.372 553.492 756.159 554.194 756.598C554.896 757.038 555.109 757.963 554.67 758.666L552.127 757.074ZM552.528 762.068C552.084 762.768 551.158 762.976 550.458 762.533C549.758 762.09 549.55 761.163 549.993 760.463L552.528 762.068ZM544.518 768.977C544.971 768.283 545.901 768.088 546.594 768.541C547.288 768.994 547.483 769.923 547.03 770.617L544.518 768.977ZM544.781 774.041C544.324 774.733 543.394 774.923 542.703 774.466C542.011 774.009 541.821 773.079 542.278 772.388L544.781 774.041ZM536.674 780.748C537.14 780.063 538.073 779.885 538.758 780.351C539.443 780.817 539.621 781.75 539.155 782.435L536.674 780.748ZM536.838 785.825C536.369 786.508 535.435 786.682 534.752 786.212C534.07 785.743 533.896 784.81 534.366 784.127L536.838 785.825ZM528.638 792.368C529.114 791.69 530.05 791.526 530.728 792.002C531.406 792.478 531.57 793.413 531.094 794.091L528.638 792.368ZM528.721 797.466C528.244 798.144 527.308 798.306 526.631 797.829C525.953 797.352 525.791 796.417 526.268 795.739L528.721 797.466ZM520.467 804.179C520.904 803.475 521.828 803.258 522.532 803.695C523.237 804.131 523.453 805.056 523.017 805.76L520.467 804.179ZM0.721596 122.73C1.00148 122.149 1.29415 121.564 1.59946 120.978L4.26073 122.362C3.96947 122.922 3.69084 123.478 3.42491 124.031L0.721596 122.73ZM6.88665 112.323C7.6502 111.229 8.45274 110.128 9.29349 109.022L11.6821 110.837C10.8649 111.912 10.0864 112.98 9.34712 114.04L6.88665 112.323ZM15.7424 101.253C16.6327 100.263 17.5513 99.27 18.4977 98.2743L20.6721 100.341C19.7443 101.317 18.8446 102.29 17.9734 103.259L15.7424 101.253ZM25.6875 91.1629C26.6343 90.2792 27.6018 89.3945 28.5897 88.5092L30.5917 90.7435C29.6187 91.6154 28.6662 92.4864 27.7347 93.3559L25.6875 91.1629ZM36.2655 81.9574C37.281 81.13 38.3137 80.303 39.3633 79.4766L41.2191 81.8338C40.1824 82.6499 39.1628 83.4665 38.1604 84.2832L36.2655 81.9574ZM47.4 73.4046C48.4652 72.6315 49.5448 71.8596 50.6387 71.0893L52.366 73.5421C51.2837 74.3043 50.2157 75.0678 49.1623 75.8324L47.4 73.4046ZM58.9663 65.437C60.0685 64.7155 61.1831 63.996 62.3099 63.2787L63.921 65.8094C62.8048 66.52 61.7009 67.2326 60.6093 67.9471L58.9663 65.437ZM70.8862 58.0031C72.0171 57.3308 73.1587 56.6609 74.3108 55.9938L75.8141 58.5899C74.6719 59.2513 73.5402 59.9154 72.4193 60.5818L70.8862 58.0031ZM83.1076 51.0651C84.2614 50.4397 85.4245 49.8171 86.5969 49.1977L87.9984 51.8502C86.8354 52.4646 85.6817 53.0822 84.5373 53.7025L83.1076 51.0651ZM95.5596 44.6129C96.7434 44.0268 97.9355 43.444 99.1359 42.8648L100.44 45.5666C99.2484 46.1415 98.0654 46.7198 96.8908 47.3014L95.5596 44.6129ZM108.204 38.6285C109.429 38.0745 110.662 37.5243 111.902 36.9781L113.111 39.7237C111.88 40.266 110.656 40.8121 109.439 41.362L108.204 38.6285ZM121.06 33.0771C122.298 32.5669 123.544 32.0608 124.796 31.5589L125.912 34.3436C124.669 34.8419 123.432 35.3444 122.203 35.8509L121.06 33.0771ZM134.112 27.9515C135.359 27.4853 136.612 27.0234 137.871 26.5659L138.896 29.3856C137.645 29.8399 136.401 30.2986 135.162 30.7615L134.112 27.9515ZM147.342 23.249C148.597 22.8257 149.858 22.4069 151.123 21.9928L152.056 24.8441C150.799 25.2554 149.547 25.6713 148.301 26.0916L147.342 23.249ZM160.717 18.9759C161.985 18.593 163.259 18.2148 164.537 17.8414L165.378 20.7211C164.108 21.0919 162.844 21.4675 161.584 21.8479L160.717 18.9759ZM174.165 15.148C175.46 14.8014 176.761 14.4599 178.065 14.1236L178.814 17.0287C177.518 17.3627 176.227 17.7018 174.94 18.0461L174.165 15.148ZM187.756 11.7427C189.055 11.4392 190.357 11.141 191.664 10.8482L192.32 13.7756C191.022 14.0664 189.728 14.3626 188.439 14.664L187.756 11.7427ZM201.475 8.76742C202.776 8.50699 204.081 8.25197 205.389 8.00247L205.951 10.9494C204.652 11.1972 203.356 11.4504 202.063 11.7091L201.475 8.76742ZM215.27 6.23627C216.585 6.0169 217.903 5.8032 219.225 5.59526L219.691 8.5588C218.379 8.76529 217.07 8.97751 215.764 9.19536L215.27 6.23627ZM229.108 4.15716C230.434 3.97997 231.763 3.80867 233.094 3.64336L233.464 6.62052C232.141 6.78466 230.822 6.95476 229.506 7.13072L229.108 4.15716ZM243.036 2.52759C244.361 2.39471 245.688 2.26785 247.018 2.14712L247.289 5.13483C245.969 5.25471 244.651 5.38066 243.336 5.5126L243.036 2.52759ZM257.038 1.35785C258.361 1.26963 259.685 1.18756 261.012 1.11173L261.184 4.10684C259.866 4.18213 258.551 4.26361 257.238 4.3512L257.038 1.35785ZM271.008 0.661265C272.346 0.617154 273.687 0.579496 275.029 0.548375L275.099 3.54757C273.766 3.57846 272.435 3.61585 271.107 3.65964L271.008 0.661265ZM285.023 0.438743C286.356 0.440443 287.69 0.448696 289.027 0.463586L288.993 3.4634C287.667 3.44862 286.342 3.44043 285.019 3.43874L285.023 0.438743ZM299.069 0.700441C300.395 0.748268 301.722 0.802739 303.051 0.863931L302.913 3.86076C301.594 3.80002 300.277 3.74596 298.961 3.69849L299.069 0.700441ZM313.045 1.45014C314.381 1.54543 315.719 1.64765 317.058 1.75686L316.814 4.74693C315.485 4.63855 314.158 4.53711 312.832 4.44254L313.045 1.45014ZM327.005 2.69558C328.331 2.83771 329.657 2.98682 330.985 3.14298L330.634 6.12244C329.317 5.96748 328.001 5.81952 326.686 5.67848L327.005 2.69558ZM340.952 4.44629C342.264 4.63519 343.577 4.83112 344.89 5.03414L344.432 7.99895C343.129 7.79751 341.826 7.60311 340.524 7.41567L340.952 4.44629ZM354.76 6.6909C356.078 6.92983 357.396 7.17604 358.715 7.42959L358.149 10.3757C356.84 10.1241 355.532 9.87984 354.225 9.64277L354.76 6.6909ZM368.508 9.44502C369.808 9.73051 371.109 10.0233 372.41 10.3234L371.736 13.2467C370.445 12.9489 369.154 12.6585 367.864 12.3752L368.508 9.44502ZM382.178 12.7129C383.465 13.0458 384.751 13.386 386.038 13.7335L385.256 16.6297C383.979 16.285 382.703 15.9475 381.427 15.6173L382.178 12.7129ZM395.647 16.4653C396.928 16.8481 398.21 17.2384 399.492 17.6362L398.603 20.5014C397.331 20.1067 396.059 19.7196 394.788 19.3398L395.647 16.4653ZM409.022 20.7333C410.278 21.1603 411.535 21.5946 412.792 22.0365L411.797 24.8666C410.55 24.4283 409.303 23.9974 408.057 23.5738L409.022 20.7333ZM422.214 25.491C423.47 25.9705 424.725 26.4576 425.981 26.9524L424.881 29.7434C423.635 29.2526 422.39 28.7693 421.144 28.2936L422.214 25.491ZM435.195 30.7248C436.422 31.2459 437.648 31.7745 438.874 32.3106L437.672 35.0592C436.456 34.5273 435.239 34.0029 434.022 33.4859L435.195 30.7248ZM448.057 36.472C449.251 37.0324 450.445 37.6001 451.638 38.1751L450.336 40.8777C449.152 40.3071 447.967 39.7439 446.782 39.1879L448.057 36.472ZM460.577 42.627C461.767 43.2392 462.957 43.8589 464.146 44.4862L462.746 47.1396C461.566 46.5172 460.386 45.9023 459.205 45.2948L460.577 42.627ZM472.952 49.2777C474.106 49.925 475.259 50.5796 476.412 51.2416L474.918 53.8431C473.774 53.1862 472.63 52.5366 471.484 51.8943L472.952 49.2777ZM485.041 56.3441C486.189 57.043 487.337 57.7493 488.484 58.4631L486.898 61.01C485.76 60.3015 484.621 59.6005 483.481 58.9069L485.041 56.3441ZM496.878 63.8342C497.987 64.5631 499.095 65.2992 500.202 66.0426L498.529 68.5331C497.43 67.7952 496.331 67.0645 495.23 66.341L496.878 63.8342ZM508.484 71.7538C509.585 72.5323 510.684 73.3181 511.781 74.1113L510.025 76.5431C508.935 75.7556 507.844 74.9755 506.751 74.2026L508.484 71.7538ZM519.748 80.0111C520.807 80.8152 521.865 81.6263 522.922 82.4445L521.086 84.817C520.037 84.0046 518.986 83.1992 517.934 82.4008L519.748 80.0111ZM530.829 88.7138C531.355 89.1407 531.88 89.5694 532.405 89.9999L530.503 92.3198C529.982 91.8923 529.46 91.4666 528.938 91.0426L530.829 88.7138ZM532.405 89.9999C532.952 90.448 533.495 90.8962 534.034 91.3446L532.115 93.6508C531.582 93.2071 531.044 92.7634 530.503 92.3198L532.405 89.9999ZM541.837 98.0815C542.84 98.9811 543.828 99.8811 544.801 100.782L542.764 102.984C541.802 102.094 540.825 101.204 539.834 100.315L541.837 98.0815ZM551.886 107.6C552.88 108.597 553.857 109.594 554.817 110.592L552.654 112.672C551.708 111.687 550.744 110.703 549.762 109.718L551.886 107.6ZM561.69 118.082C562.563 119.081 563.42 120.081 564.259 121.08L561.962 123.01C561.135 122.025 560.292 121.041 559.431 120.056L561.69 118.082ZM570.576 129.021C571.402 130.12 572.208 131.218 572.994 132.316L570.554 134.062C569.782 132.983 568.99 131.904 568.178 130.823L570.576 129.021ZM578.525 140.55C579.263 141.726 579.98 142.901 580.674 144.076L578.092 145.603C577.411 144.451 576.709 143.299 575.984 142.146L578.525 140.55ZM585.554 153.017C586.149 154.207 586.723 155.396 587.275 156.585L584.555 157.849C584.015 156.687 583.453 155.524 582.871 154.359L585.554 153.017ZM591.222 166.021C591.696 167.292 592.145 168.562 592.571 169.83L589.726 170.784C589.311 169.547 588.873 168.308 588.411 167.067L591.222 166.021ZM595.382 179.548C595.706 180.88 596.005 182.209 596.278 183.535L593.34 184.141C593.074 182.849 592.783 181.555 592.467 180.258L595.382 179.548ZM597.872 193.499C598.027 194.863 598.157 196.224 598.261 197.582L595.269 197.811C595.168 196.49 595.042 195.166 594.891 193.838L597.872 193.499ZM598.568 207.697C598.547 209.061 598.5 210.421 598.429 211.777L595.433 211.619C595.503 210.3 595.548 208.977 595.569 207.65L598.568 207.697ZM597.433 221.886C597.239 223.226 597.022 224.56 596.782 225.89L593.83 225.356C594.064 224.061 594.275 222.761 594.464 221.457L597.433 221.886ZM594.54 235.796C594.185 237.104 593.808 238.405 593.409 239.7L590.542 238.817C590.931 237.554 591.299 236.284 591.645 235.01L594.54 235.796ZM590.039 249.255C589.538 250.514 589.018 251.766 588.477 253.011L585.725 251.817C586.253 250.6 586.762 249.376 587.251 248.146L590.039 249.255ZM584.112 262.139C583.485 263.336 582.841 264.527 582.179 265.71L579.56 264.246C580.209 263.086 580.84 261.92 581.454 260.748L584.112 262.139ZM576.948 274.371C576.214 275.501 575.465 276.624 574.7 277.74L572.226 276.043C572.976 274.948 573.712 273.846 574.432 272.738L576.948 274.371ZM568.724 285.913C567.899 286.974 567.061 288.027 566.209 289.072L563.883 287.177C564.721 286.149 565.545 285.114 566.356 284.072L568.724 285.913ZM559.594 296.747C558.691 297.738 557.777 298.722 556.851 299.697L554.675 297.632C555.587 296.671 556.487 295.703 557.375 294.727L559.594 296.747ZM549.701 306.857C548.728 307.784 547.744 308.703 546.751 309.613L544.724 307.401C545.703 306.504 546.673 305.598 547.632 304.685L549.701 306.857ZM539.147 316.255C538.111 317.118 537.066 317.973 536.012 318.818L534.135 316.479C535.174 315.644 536.205 314.801 537.227 313.95L539.147 316.255ZM528.004 324.955C526.918 325.75 525.824 326.536 524.723 327.312L522.994 324.86C524.081 324.094 525.16 323.319 526.233 322.534L528.004 324.955ZM516.344 332.952C515.211 333.68 514.073 334.398 512.929 335.105L511.351 332.554C512.48 331.855 513.605 331.147 514.723 330.428L516.344 332.952ZM504.23 340.232C503.054 340.892 501.873 341.542 500.688 342.181L499.264 339.54C500.434 338.909 501.6 338.268 502.762 337.616L504.23 340.232ZM491.716 346.773C490.497 347.364 489.275 347.944 488.051 348.512L486.788 345.79C487.997 345.23 489.203 344.657 490.407 344.073L491.716 346.773ZM478.82 352.552C477.568 353.067 476.316 353.57 475.061 354.06L473.969 351.266C475.207 350.782 476.443 350.286 477.677 349.778L478.82 352.552ZM465.565 357.522C464.296 357.952 463.027 358.368 461.758 358.771L460.85 355.911C462.101 355.514 463.352 355.104 464.604 354.68L465.565 357.522ZM452.006 361.603C450.708 361.945 449.412 362.272 448.117 362.584L447.414 359.668C448.688 359.361 449.964 359.039 451.242 358.702L452.006 361.603ZM438.183 364.695C436.858 364.938 435.536 365.165 434.218 365.375L433.746 362.412C435.041 362.206 436.339 361.983 437.642 361.745L438.183 364.695ZM424.147 366.662C422.801 366.79 421.46 366.9 420.125 366.991L419.921 363.998C421.228 363.909 422.542 363.801 423.862 363.675L424.147 366.662ZM409.973 367.317C408.616 367.31 407.267 367.281 405.927 367.231L406.04 364.233C407.347 364.282 408.664 364.31 409.99 364.317L409.973 367.317ZM395.789 366.411C394.44 366.24 393.102 366.045 391.778 365.825L392.269 362.866C393.555 363.079 394.854 363.269 396.165 363.435L395.789 366.411ZM381.82 363.628C380.51 363.262 379.216 362.868 377.938 362.445L378.881 359.597C380.112 360.005 381.361 360.385 382.627 360.739L381.82 363.628ZM368.455 358.619C367.229 358.027 366.024 357.403 364.841 356.746L366.297 354.123C367.43 354.751 368.584 355.35 369.76 355.918L368.455 358.619ZM356.275 351.118C355.195 350.282 354.14 349.413 353.112 348.509L355.094 346.256C356.074 347.118 357.079 347.947 358.11 348.744L356.275 351.118ZM345.978 341.14C345.119 340.096 344.288 339.02 343.485 337.911L345.916 336.153C346.682 337.212 347.475 338.238 348.294 339.232L345.978 341.14ZM338.113 329.13C337.51 327.954 336.933 326.75 336.384 325.516L339.124 324.295C339.651 325.479 340.204 326.634 340.782 327.76L338.113 329.13ZM332.824 315.838C332.453 314.587 332.105 313.312 331.782 312.013L334.693 311.289C335.006 312.545 335.342 313.776 335.7 314.983L332.824 315.838ZM329.848 301.965C329.75 301.265 329.658 300.559 329.572 299.846L332.55 299.488C332.634 300.181 332.723 300.867 332.819 301.548L329.848 301.965ZM329.572 299.846C329.487 299.142 329.408 298.442 329.336 297.746L332.319 297.434C332.391 298.114 332.468 298.799 332.55 299.488L329.572 299.846ZM328.674 287.603C328.643 286.275 328.634 284.964 328.648 283.668L331.648 283.701C331.634 284.962 331.643 286.238 331.673 287.532L328.674 287.603ZM329.263 273.437C329.412 272.111 329.587 270.804 329.787 269.516L332.751 269.978C332.558 271.223 332.388 272.487 332.245 273.771L329.263 273.437ZM331.966 259.506C332.338 258.198 332.739 256.913 333.17 255.652L336.009 256.622C335.595 257.833 335.21 259.067 334.852 260.326L331.966 259.506ZM337.126 246.259C337.75 245.03 338.407 243.828 339.094 242.653L341.683 244.168C341.026 245.292 340.398 246.441 339.801 247.617L337.126 246.259ZM344.886 234.269C345.746 233.205 346.636 232.171 347.555 231.164L349.77 233.187C348.891 234.15 348.041 235.139 347.219 236.155L344.886 234.269ZM354.957 224.166C356.009 223.307 357.086 222.475 358.189 221.671L359.956 224.095C358.898 224.867 357.864 225.665 356.856 226.489L354.957 224.166ZM366.778 216.234C367.97 215.581 369.184 214.954 370.419 214.353L371.732 217.051C370.54 217.631 369.368 218.236 368.219 218.866L366.778 216.234ZM379.757 210.434C381.036 209.975 382.332 209.54 383.646 209.128L384.543 211.991C383.268 212.391 382.009 212.813 380.769 213.258L379.757 210.434ZM393.41 206.555C394.724 206.27 396.051 206.006 397.391 205.762L397.928 208.714C396.621 208.952 395.326 209.209 394.045 209.487L393.41 206.555ZM407.398 204.34C408.728 204.202 410.067 204.081 411.416 203.979L411.643 206.971C410.321 207.071 409.01 207.189 407.709 207.324L407.398 204.34ZM421.508 203.549C422.843 203.535 424.186 203.537 425.536 203.556L425.495 206.556C424.169 206.538 422.85 206.535 421.54 206.549L421.508 203.549ZM435.608 203.985C436.945 204.079 438.286 204.189 439.634 204.313L439.358 207.3C438.032 207.178 436.711 207.07 435.397 206.977L435.608 203.985ZM449.618 205.493C450.952 205.685 452.29 205.89 453.632 206.11L453.148 209.07C451.825 208.854 450.506 208.651 449.191 208.462L449.618 205.493ZM463.483 207.958C464.803 208.236 466.126 208.528 467.451 208.833L466.778 211.757C465.47 211.456 464.165 211.168 462.862 210.893L463.483 207.958ZM477.163 211.29C478.459 211.647 479.755 212.017 481.053 212.398L480.207 215.276C478.926 214.9 477.645 214.535 476.366 214.182L477.163 211.29ZM490.627 215.425C491.895 215.854 493.163 216.295 494.43 216.746L493.423 219.572C492.17 219.126 490.917 218.69 489.665 218.266L490.627 215.425ZM503.84 220.31C505.079 220.806 506.317 221.314 507.553 221.832L506.394 224.599C505.171 224.087 503.948 223.585 502.723 223.094L503.84 220.31ZM516.772 225.905C517.98 226.467 519.186 227.038 520.39 227.62L519.084 230.321C517.894 229.746 516.702 229.181 515.507 228.626L516.772 225.905ZM529.374 232.172C530.554 232.799 531.731 233.435 532.906 234.081L531.46 236.709C530.299 236.071 529.135 235.442 527.968 234.822L529.374 232.172ZM541.615 239.086C542.767 239.777 543.916 240.478 545.061 241.189L543.479 243.738C542.347 243.035 541.211 242.342 540.071 241.658L541.615 239.086ZM553.485 246.64C554.596 247.39 555.703 248.149 556.806 248.917L555.091 251.378C554.001 250.619 552.906 249.869 551.807 249.127L553.485 246.64ZM564.942 254.82C566.01 255.627 567.073 256.443 568.13 257.268L566.285 259.634C565.24 258.818 564.189 258.012 563.133 257.214L564.942 254.82ZM575.942 263.613C576.963 264.477 577.978 265.349 578.987 266.23L577.014 268.49C576.017 267.619 575.014 266.757 574.005 265.904L575.942 263.613ZM586.433 273C587.405 273.921 588.371 274.851 589.33 275.789L587.231 277.933C586.284 277.006 585.331 276.088 584.37 275.178L586.433 273ZM596.366 282.968C597.286 283.946 598.198 284.933 599.102 285.928L596.881 287.945C595.989 286.963 595.089 285.989 594.181 285.023L596.366 282.968ZM605.699 293.51C606.557 294.54 607.407 295.579 608.248 296.626L605.91 298.505C605.08 297.472 604.241 296.447 603.394 295.43L605.699 293.51ZM614.375 304.607C615.166 305.687 615.949 306.776 616.722 307.872L614.27 309.601C613.508 308.52 612.736 307.446 611.955 306.38L614.375 304.607ZM622.339 316.24C623.058 317.366 623.767 318.5 624.467 319.642L621.908 321.209C621.219 320.083 620.519 318.965 619.81 317.854L622.339 316.24ZM629.519 328.349C630.166 329.529 630.803 330.716 631.429 331.91L628.772 333.303C628.155 332.126 627.527 330.956 626.889 329.793L629.519 328.349ZM635.873 340.913C636.438 342.132 636.992 343.358 637.535 344.591L634.789 345.799C634.254 344.584 633.708 343.376 633.152 342.175L635.873 340.913ZM641.357 353.894C641.835 355.144 642.301 356.401 642.756 357.664L639.933 358.679C639.485 357.434 639.026 356.196 638.555 354.965L641.357 353.894ZM645.934 367.252C646.321 368.525 646.695 369.803 647.058 371.089L644.171 371.904C643.814 370.637 643.444 369.378 643.064 368.125L645.934 367.252ZM649.551 380.85C649.852 382.167 650.141 383.491 650.417 384.822L647.48 385.432C647.208 384.121 646.923 382.817 646.626 381.519L649.551 380.85ZM652.208 394.66C652.416 395.987 652.611 397.319 652.793 398.657L649.821 399.063C649.641 397.744 649.449 396.431 649.244 395.124L652.208 394.66ZM653.909 408.666C654.024 409.989 654.127 411.318 654.217 412.653L651.224 412.855C651.135 411.54 651.034 410.23 650.921 408.925L653.909 408.666ZM654.658 422.765C654.671 423.446 654.681 424.128 654.688 424.812L651.688 424.843C651.681 424.168 651.671 423.496 651.658 422.824L654.658 422.765ZM654.688 424.812C654.695 425.495 654.701 426.177 654.705 426.859L651.705 426.878C651.701 426.2 651.695 425.522 651.688 424.843L654.688 424.812ZM654.673 437.04C654.655 438.392 654.633 439.74 654.606 441.087L651.607 441.026C651.634 439.687 651.656 438.346 651.673 437.002L654.673 437.04ZM654.305 451.242C654.252 452.599 654.194 453.954 654.131 455.307L651.134 455.167C651.197 453.822 651.254 452.475 651.307 451.125L654.305 451.242ZM653.566 465.399C653.477 466.761 653.383 468.121 653.284 469.478L650.292 469.26C650.391 467.911 650.484 466.558 650.572 465.203L653.566 465.399ZM652.453 479.603C652.33 480.946 652.203 482.286 652.071 483.623L649.085 483.328C649.216 481.998 649.343 480.666 649.465 479.33L652.453 479.603ZM650.976 493.746C650.818 495.092 650.655 496.435 650.488 497.774L647.511 497.403C647.678 496.07 647.839 494.735 647.997 493.397L650.976 493.746ZM649.142 507.822C648.949 509.17 648.752 510.514 648.55 511.855L645.583 511.409C645.784 510.075 645.981 508.737 646.173 507.397L649.142 507.822ZM646.954 521.85C646.728 523.191 646.498 524.527 646.263 525.86L643.308 525.34C643.542 524.014 643.771 522.684 643.996 521.351L646.954 521.85ZM644.411 535.858C644.154 537.183 643.892 538.503 643.627 539.82L640.686 539.227C640.95 537.917 641.21 536.603 641.466 535.286L644.411 535.858ZM641.529 549.78C641.239 551.103 640.944 552.422 640.645 553.738L637.72 553.074C638.017 551.765 638.31 550.452 638.599 549.136L641.529 549.78ZM638.317 563.609C637.993 564.931 637.665 566.249 637.334 567.562L634.425 566.829C634.755 565.522 635.081 564.211 635.403 562.895L638.317 563.609ZM634.781 577.341C634.425 578.661 634.064 579.977 633.701 581.288L630.81 580.487C631.172 579.182 631.53 577.872 631.885 576.559L634.781 577.341ZM630.911 591.038C630.528 592.334 630.143 593.625 629.754 594.911L626.882 594.043C627.269 592.763 627.653 591.478 628.033 590.189L630.911 591.038ZM626.728 604.635C626.317 605.92 625.903 607.199 625.486 608.474L622.635 607.541C623.05 606.273 623.462 604.999 623.871 603.721L626.728 604.635ZM622.243 618.123C621.801 619.403 621.357 620.677 620.91 621.946L618.08 620.95C618.525 619.687 618.967 618.418 619.407 617.144L622.243 618.123ZM617.462 631.497C616.991 632.772 616.517 634.041 616.04 635.304L613.233 634.246C613.707 632.989 614.179 631.725 614.648 630.457L617.462 631.497ZM612.393 644.757C611.892 646.026 611.389 647.289 610.883 648.546L608.1 647.427C608.603 646.176 609.104 644.919 609.602 643.655L612.393 644.757ZM607.041 657.899C606.511 659.162 605.979 660.419 605.446 661.668L602.687 660.491C603.218 659.247 603.747 657.996 604.275 656.738L607.041 657.899ZM601.414 670.924C600.855 672.18 600.295 673.429 599.734 674.671L597 673.436C597.559 672.2 598.116 670.956 598.672 669.705L601.414 670.924ZM595.508 683.843C594.923 685.088 594.338 686.324 593.752 687.553L591.045 686.261C591.628 685.038 592.211 683.807 592.793 682.568L595.508 683.843ZM589.336 696.641C588.726 697.874 588.116 699.098 587.506 700.312L584.825 698.966C585.432 697.756 586.04 696.538 586.647 695.311L589.336 696.641ZM582.91 709.301C582.272 710.527 581.635 711.742 580.999 712.948L578.346 711.548C578.979 710.347 579.614 709.137 580.249 707.917L582.91 709.301ZM576.221 721.847C575.558 723.061 574.897 724.263 574.238 725.454L571.613 724.001C572.27 722.815 572.928 721.618 573.588 720.409L576.221 721.847ZM569.272 734.275C568.589 735.469 567.908 736.651 567.231 737.819L564.636 736.314C565.31 735.151 565.988 733.974 566.669 732.785L569.272 734.275ZM562.08 746.561C561.381 747.728 560.687 748.88 559.997 750.017L557.432 748.462C558.118 747.33 558.81 746.182 559.506 745.02L562.08 746.561ZM554.67 758.666C553.948 759.819 553.234 760.953 552.528 762.068L549.993 760.463C550.697 759.352 551.408 758.223 552.127 757.074L554.67 758.666ZM547.03 770.617C546.268 771.784 545.518 772.926 544.781 774.041L542.278 772.388C543.012 771.277 543.759 770.139 544.518 768.977L547.03 770.617ZM539.155 782.435C538.361 783.604 537.588 784.734 536.838 785.825L534.366 784.127C535.113 783.039 535.883 781.913 536.674 780.748L539.155 782.435ZM531.094 794.091C530.25 795.294 529.457 796.42 528.721 797.466L526.268 795.739C527.005 794.693 527.796 793.569 528.638 792.368L531.094 794.091ZM523.017 805.76C522.748 806.194 522.569 806.51 522.464 806.725C522.439 806.776 522.421 806.817 522.408 806.847C522.401 806.862 522.397 806.874 522.394 806.882C522.392 806.886 522.391 806.889 522.39 806.891C522.389 806.894 522.389 806.895 522.389 806.895C522.389 806.895 522.389 806.893 522.39 806.891C522.391 806.888 522.392 806.884 522.394 806.879C522.396 806.868 522.401 806.85 522.405 806.825C522.413 806.782 522.429 806.677 522.417 806.535L519.427 806.787C519.397 806.425 519.488 806.114 519.539 805.96C519.601 805.77 519.683 805.582 519.768 805.408C519.939 805.059 520.18 804.643 520.467 804.179L523.017 805.76Z" fill="#FF9A38"/>
</svg>
