<svg width="28" height="28" viewBox="0 0 28 28" fill="none" xmlns="http://www.w3.org/2000/svg">
<path d="M21.58 17.7408L21.9351 17.3749C22.1303 17.1737 23.5339 15.7832 25.0542 14.2849L21.58 17.7408ZM21.58 17.7408L22.3198 22.1065C23.008 26.1674 23.084 26.6027 22.9215 26.913C22.9002 26.9538 22.8747 26.9923 22.846 27.0367L21.58 17.7408ZM14.2585 0.970821L14.2584 0.970769C14.1794 0.935494 14.0391 0.916379 13.8834 0.942134C13.81 0.954269 13.7469 0.974337 13.6994 0.996802C13.677 1.00741 13.6602 1.01749 13.6485 1.02581C13.6442 1.0337 13.6393 1.04274 13.6338 1.05301C13.6041 1.10884 13.562 1.18999 13.5083 1.29512C13.4013 1.50474 13.2522 1.80183 13.0717 2.16519C12.711 2.89148 12.2268 3.87798 11.7065 4.94911C11.1856 6.0216 10.7075 7.00137 10.3568 7.71604C10.1815 8.07326 10.0377 8.36482 9.93633 8.56879C9.88572 8.67057 9.84509 8.75166 9.81614 8.80854C9.80183 8.83666 9.78938 8.86084 9.77958 8.87931C9.77491 8.88812 9.76921 8.89873 9.76342 8.90894C9.76074 8.91368 9.75581 8.92226 9.74964 8.93214C9.74662 8.93697 9.74114 8.94558 9.73392 8.95587L9.73363 8.95628C9.72915 8.96267 9.71092 8.98867 9.68314 9.01735C9.62558 9.07676 9.56698 9.10688 9.55227 9.11444L9.55181 9.11468C9.52853 9.12665 9.50902 9.13438 9.49862 9.13831C9.47732 9.14638 9.45945 9.15152 9.45123 9.15382C9.43294 9.15894 9.41569 9.16285 9.40451 9.1653C9.38012 9.17063 9.3503 9.17639 9.31862 9.18222C9.2538 9.19415 9.16267 9.20976 9.05 9.22837C8.82377 9.26575 8.50084 9.31687 8.10584 9.37796C7.31538 9.50021 6.23136 9.66313 5.04436 9.83725C3.48512 10.066 2.39784 10.2312 1.68454 10.349C1.32722 10.408 1.06878 10.4542 0.893688 10.4899C0.805614 10.5079 0.74464 10.522 0.705364 10.5324C0.703409 10.5329 0.701551 10.5334 0.699789 10.5339C0.630194 10.586 0.561581 10.68 0.524637 10.8079C0.488359 10.9334 0.495123 11.0483 0.525061 11.1302C0.5298 11.1356 0.53524 11.1417 0.541443 11.1486C0.580261 11.1917 0.637724 11.2533 0.71348 11.3329C0.864336 11.4914 1.07882 11.7118 1.34195 11.9787C1.86772 12.5121 2.58221 13.2258 3.35817 13.9908C4.90874 15.5193 6.31953 16.9168 6.48665 17.0901L6.77998 17.3943L6.9552 17.576L6.91302 17.8249L6.17394 22.1859L5.68097 22.1024L6.17394 22.186C6.14915 22.3322 6.12514 22.4738 6.1019 22.6108C5.73692 24.7632 5.56154 25.7975 5.51899 26.3437C5.49968 26.5916 5.51478 26.6767 5.51975 26.6967C5.52835 26.7049 5.55593 26.7321 5.63171 26.8044C5.73477 26.9028 5.8588 26.9429 5.98761 26.9268C5.99789 26.9222 6.0107 26.9163 6.02629 26.909C6.08427 26.8819 6.16723 26.8416 6.27411 26.7885C6.4871 26.6826 6.78489 26.5308 7.14655 26.3441C7.86935 25.9709 8.84121 25.4607 9.8873 24.904C10.9354 24.3462 11.8959 23.8389 12.5993 23.4709C12.9508 23.2869 13.239 23.1373 13.4422 23.0333C13.5434 22.9815 13.6254 22.9401 13.6842 22.9111C13.7131 22.897 13.7398 22.8841 13.7616 22.8741C13.7718 22.8695 13.7863 22.863 13.8018 22.8568C13.8089 22.8539 13.823 22.8485 13.8404 22.8429C13.849 22.8401 13.864 22.8355 13.883 22.8312C13.896 22.8282 13.9393 22.8185 13.9956 22.8185C14.0521 22.8185 14.0956 22.8283 14.1085 22.8313C14.1274 22.8356 14.1425 22.8402 14.151 22.843C14.1684 22.8485 14.1824 22.854 14.1895 22.8569C14.2049 22.863 14.2194 22.8695 14.2296 22.8742C14.2515 22.8842 14.2782 22.897 14.3072 22.9113C14.3663 22.9403 14.4486 22.9819 14.5504 23.0339C14.7545 23.1383 15.0442 23.2886 15.3974 23.4733C16.1043 23.8429 17.0697 24.3524 18.1232 24.9126C19.5033 25.6463 20.4745 26.1551 21.123 26.4827C21.4479 26.6468 21.6869 26.763 21.8536 26.8385C21.9374 26.8765 21.9974 26.9017 22.0379 26.917C22.045 26.9197 22.0509 26.9218 22.0557 26.9236C22.1022 26.9234 22.1793 26.9105 22.2669 26.8719C22.3144 26.851 22.3546 26.8268 22.3847 26.8039C22.4148 26.7808 22.4257 26.7657 22.4263 26.7649L22.4263 26.7649C22.484 26.6758 22.4846 26.671 22.4859 26.6615C22.486 26.6603 22.4862 26.659 22.4865 26.6576C22.4948 26.6141 22.5024 26.5036 22.4705 26.204C22.4081 25.6201 22.2224 24.5242 21.8403 22.2694L21.8269 22.1901L21.0871 17.8244L21.0447 17.5745L21.2212 17.3926L21.5762 17.0267L21.5762 17.0267C21.7765 16.8203 23.186 15.4241 24.7032 13.9288C25.4621 13.1809 26.1611 12.4827 26.6756 11.9605C26.9332 11.6992 27.1431 11.4834 27.2908 11.3281C27.365 11.2501 27.4213 11.1897 27.4592 11.1475C27.4652 11.1409 27.4704 11.135 27.4749 11.1299C27.5047 11.0489 27.5118 10.9339 27.4755 10.8078C27.4387 10.6802 27.371 10.5875 27.3037 10.5368C27.3018 10.5362 27.2997 10.5357 27.2976 10.5351C27.2568 10.5245 27.1938 10.5102 27.1039 10.492C26.9249 10.456 26.6619 10.4091 26.3015 10.3497C25.5822 10.2312 24.494 10.0657 22.9571 9.84018C21.7697 9.66596 20.6853 9.5028 19.8945 9.38024C19.4994 9.319 19.1763 9.2677 18.9499 9.23014C18.8372 9.21144 18.7459 9.19572 18.6809 9.18367C18.6491 9.17778 18.6191 9.17193 18.5944 9.16647C18.5831 9.16397 18.5655 9.15993 18.5468 9.15459C18.5383 9.15219 18.52 9.14682 18.4981 9.13835C18.4874 9.13422 18.4675 9.12613 18.4437 9.11361L18.4434 9.11345C18.4283 9.10547 18.3692 9.07432 18.3117 9.01315L18.3113 9.01267C18.2856 8.98529 18.2687 8.96076 18.2645 8.95463L18.2642 8.95429C18.2574 8.94446 18.2522 8.93624 18.2494 8.93158C18.2435 8.92206 18.2387 8.91378 18.2361 8.90913C18.2305 8.89914 18.2249 8.8887 18.2203 8.87992C18.2105 8.86154 18.1981 8.83743 18.1839 8.80929C18.1549 8.7524 18.1143 8.67129 18.0637 8.56944C17.9623 8.36536 17.8186 8.07369 17.6433 7.71636C17.2927 7.00148 16.8146 6.02159 16.2936 4.94911C15.7733 3.87798 15.2892 2.8915 14.9284 2.16522C14.7479 1.80188 14.5989 1.50479 14.4919 1.29517C14.4382 1.19005 14.3961 1.1089 14.3663 1.05308C14.3617 1.04444 14.3575 1.03667 14.3538 1.02973C14.3485 1.02573 14.3425 1.02138 14.336 1.01679C14.3034 0.99403 14.2737 0.977594 14.2585 0.970821ZM13.6309 1.04037C13.6309 1.04034 13.6309 1.04032 13.6309 1.0403C13.6309 1.04031 13.6309 1.04031 13.6309 1.04031L13.6309 1.04037ZM13.6685 0.989825C13.6713 0.985465 13.6728 0.982838 13.6729 0.982623C13.6729 0.982409 13.6715 0.984586 13.6685 0.989825ZM0.727129 10.5156L0.727005 10.5157L0.727129 10.5156ZM0.502651 11.1042C0.499565 11.1 0.497601 11.0976 0.497253 11.0973C0.49687 11.0969 0.498447 11.0991 0.502651 11.1042ZM5.95513 26.9406C5.95439 26.941 5.95655 26.9403 5.96225 26.9379C5.95822 26.9394 5.95573 26.9404 5.95513 26.9406ZM22.0338 26.9225L22.0339 26.9225L22.0338 26.9225ZM27.5022 11.0976C27.502 11.0977 27.5001 11.1 27.497 11.1042C27.5008 11.0995 27.5024 11.0974 27.5022 11.0976ZM27.3302 10.5444C27.3316 10.5449 27.3323 10.5452 27.3324 10.5451L27.3302 10.5444ZM14.3273 0.98269C14.3273 0.982912 14.3289 0.985536 14.3316 0.989886C14.3286 0.984643 14.3272 0.982468 14.3273 0.98269Z" stroke="#6366F1"/>
</svg>
