<svg width="166" height="166" viewBox="0 0 166 166" fill="none" xmlns="http://www.w3.org/2000/svg">
<g filter="url(#filter0_f_2618_2528)">
<circle cx="83.3044" cy="82.6874" r="40.4792" fill="#FF8A8A" fill-opacity="0.5"/>
</g>
<g filter="url(#filter1_dii_2618_2528)">
<circle cx="77.2624" cy="81.4792" r="40.4792" fill="#FF8A8A"/>
</g>
<path d="M94.2835 89.3334V73.2C94.2835 71.1465 94.2835 70.1198 93.8839 69.3354C93.5324 68.6455 92.9714 68.0846 92.2815 67.733C91.4972 67.3334 90.4704 67.3334 88.4169 67.3334H67.1502C65.0967 67.3334 64.0699 67.3334 63.2856 67.733C62.5956 68.0846 62.0347 68.6455 61.6832 69.3354C61.2835 70.1198 61.2835 71.1465 61.2835 73.2V89.3334M64.3391 96.6667H91.228C92.3646 96.6667 92.9329 96.6667 93.3992 96.5418C94.6645 96.2027 95.6529 95.2144 95.9919 93.949C96.1169 93.4828 96.1169 92.9145 96.1169 91.7778C96.1169 91.2095 96.1169 90.9253 96.0544 90.6922C95.8849 90.0595 95.3907 89.5654 94.758 89.3958C94.5249 89.3334 94.2407 89.3334 93.6724 89.3334H61.8946C61.3263 89.3334 61.0422 89.3334 60.809 89.3958C60.1764 89.5654 59.6822 90.0595 59.5127 90.6922C59.4502 90.9253 59.4502 91.2095 59.4502 91.7778C59.4502 92.9145 59.4502 93.4828 59.5751 93.949C59.9142 95.2144 60.9025 96.2027 62.1679 96.5418C62.6341 96.6667 63.2025 96.6667 64.3391 96.6667Z" stroke="white" stroke-width="2" stroke-linecap="round" stroke-linejoin="round"/>
<defs>
<filter id="filter0_f_2618_2528" x="0.72842" y="0.111477" width="165.152" height="165.152" filterUnits="userSpaceOnUse" color-interpolation-filters="sRGB">
<feFlood flood-opacity="0" result="BackgroundImageFix"/>
<feBlend mode="normal" in="SourceGraphic" in2="BackgroundImageFix" result="shape"/>
<feGaussianBlur stdDeviation="21.0484" result="effect1_foregroundBlur_2618_2528"/>
</filter>
<filter id="filter1_dii_2618_2528" x="14.3316" y="32.5806" width="125.861" height="125.862" filterUnits="userSpaceOnUse" color-interpolation-filters="sRGB">
<feFlood flood-opacity="0" result="BackgroundImageFix"/>
<feColorMatrix in="SourceAlpha" type="matrix" values="0 0 0 0 0 0 0 0 0 0 0 0 0 0 0 0 0 0 127 0" result="hardAlpha"/>
<feMorphology radius="5.6129" operator="erode" in="SourceAlpha" result="effect1_dropShadow_2618_2528"/>
<feOffset dy="14.0323"/>
<feGaussianBlur stdDeviation="14.0323"/>
<feColorMatrix type="matrix" values="0 0 0 0 0.916051 0 0 0 0 0.921023 0 0 0 0 0.927984 0 0 0 1 0"/>
<feBlend mode="multiply" in2="BackgroundImageFix" result="effect1_dropShadow_2618_2528"/>
<feBlend mode="normal" in="SourceGraphic" in2="effect1_dropShadow_2618_2528" result="shape"/>
<feColorMatrix in="SourceAlpha" type="matrix" values="0 0 0 0 0 0 0 0 0 0 0 0 0 0 0 0 0 0 127 0" result="hardAlpha"/>
<feOffset/>
<feGaussianBlur stdDeviation="2.80645"/>
<feComposite in2="hardAlpha" operator="arithmetic" k2="-1" k3="1"/>
<feColorMatrix type="matrix" values="0 0 0 0 0.625417 0 0 0 0 0.631402 0 0 0 0 0.658333 0 0 0 1 0"/>
<feBlend mode="color-burn" in2="shape" result="effect2_innerShadow_2618_2528"/>
<feColorMatrix in="SourceAlpha" type="matrix" values="0 0 0 0 0 0 0 0 0 0 0 0 0 0 0 0 0 0 127 0" result="hardAlpha"/>
<feOffset dx="2.80645" dy="2.80645"/>
<feGaussianBlur stdDeviation="1.40323"/>
<feComposite in2="hardAlpha" operator="arithmetic" k2="-1" k3="1"/>
<feColorMatrix type="matrix" values="0 0 0 0 1 0 0 0 0 1 0 0 0 0 1 0 0 0 0.3 0"/>
<feBlend mode="normal" in2="effect2_innerShadow_2618_2528" result="effect3_innerShadow_2618_2528"/>
</filter>
</defs>
</svg>
