<svg width="102" height="94" viewBox="0 0 102 94" fill="none" xmlns="http://www.w3.org/2000/svg">
<g clip-path="url(#clip0_4703_4338)">
<g opacity="0.5">
<g filter="url(#filter0_f_4703_4338)">
<path d="M11.3974 27.6697C10.4958 18.8618 17.4077 11.2063 26.2615 11.2063H70.9309C78.5939 11.2063 85.0147 17.0034 85.7951 24.6266L90.0203 65.9034C90.9218 74.7112 84.0099 82.3668 75.1561 82.3668H30.4867C22.8237 82.3668 16.4029 76.5697 15.6226 68.9465L11.3974 27.6697Z" fill="url(#paint0_linear_4703_4338)"/>
</g>
</g>
<g filter="url(#filter1_dddddddiiiiii_4703_4338)">
<path d="M15.554 22.1054C14.6278 13.2845 21.5447 5.60327 30.4142 5.60327H75.0754C82.7235 5.60327 89.1369 11.3785 89.9355 18.9848L94.6422 63.8103C95.5684 72.6312 88.6515 80.3124 79.7821 80.3124H35.1208C27.4727 80.3124 21.0594 74.5372 20.2607 66.9309L15.554 22.1054Z" fill="#007BFB"/>
</g>
<path d="M42.0171 49.9143L40.4848 29.9081L37.1414 30.1642L36.886 26.8298L41.9012 26.4457C42.3446 26.4118 42.7832 26.5548 43.1207 26.8435C43.4581 27.1321 43.6668 27.5427 43.7006 27.9849L45.2329 47.991L66.0259 46.3985L68.3479 32.805L47.5548 34.3975L47.2995 31.0631L70.2357 29.3065C70.4898 29.287 70.745 29.3256 70.9819 29.4193C71.2187 29.5129 71.4311 29.6592 71.6027 29.847C71.7743 30.0349 71.9008 30.2592 71.9724 30.5031C72.044 30.747 72.0589 31.004 72.016 31.2546L69.1135 48.2465C69.0506 48.6139 68.8663 48.9499 68.5901 49.2011C68.3138 49.4522 67.9613 49.6042 67.5886 49.6327L43.8165 51.4534C43.3732 51.4874 42.9345 51.3443 42.597 51.0557C42.2596 50.767 42.051 50.3564 42.0171 49.9143ZM46.2544 61.3285C45.3677 61.3964 44.4903 61.1102 43.8154 60.5329C43.1405 59.9556 42.7233 59.1345 42.6555 58.2502C42.5878 57.3659 42.8751 56.4908 43.4542 55.8174C44.0334 55.1441 44.8569 54.7277 45.7436 54.6597C46.6304 54.5918 47.5077 54.878 48.1826 55.4553C48.8575 56.0326 49.2748 56.8537 49.3425 57.738C49.4102 58.6224 49.1229 59.4974 48.5438 60.1708C47.9647 60.8441 47.1411 61.2605 46.2544 61.3285ZM66.3152 59.792C65.4285 59.8599 64.5512 59.5738 63.8762 58.9965C63.2013 58.4192 62.7841 57.5981 62.7164 56.7137C62.6486 55.8294 62.936 54.9543 63.5151 54.281C64.0942 53.6076 64.9177 53.1912 65.8045 53.1233C66.6912 53.0554 67.5685 53.3415 68.2435 53.9188C68.9184 54.4961 69.3356 55.3172 69.4033 56.2016C69.4711 57.0859 69.1838 57.961 68.6046 58.6343C68.0255 59.3077 67.202 59.7241 66.3152 59.792Z" fill="white"/>
</g>
<defs>
<filter id="filter0_f_4703_4338" x="0.111739" y="-7.72476e-05" width="101.194" height="93.5732" filterUnits="userSpaceOnUse" color-interpolation-filters="sRGB">
<feFlood flood-opacity="0" result="BackgroundImageFix"/>
<feBlend mode="normal" in="SourceGraphic" in2="BackgroundImageFix" result="shape"/>
<feGaussianBlur stdDeviation="5.60319" result="effect1_foregroundBlur_4703_4338"/>
</filter>
<filter id="filter1_dddddddiiiiii_4703_4338" x="9.49397" y="3.362" width="91.2084" height="86.6627" filterUnits="userSpaceOnUse" color-interpolation-filters="sRGB">
<feFlood flood-opacity="0" result="BackgroundImageFix"/>
<feColorMatrix in="SourceAlpha" type="matrix" values="0 0 0 0 0 0 0 0 0 0 0 0 0 0 0 0 0 0 127 0" result="hardAlpha"/>
<feMorphology radius="1.49418" operator="erode" in="SourceAlpha" result="effect1_dropShadow_4703_4338"/>
<feOffset dy="3.73546"/>
<feGaussianBlur stdDeviation="3.73546"/>
<feColorMatrix type="matrix" values="0 0 0 0 0.916051 0 0 0 0 0.921023 0 0 0 0 0.927984 0 0 0 1 0"/>
<feBlend mode="multiply" in2="BackgroundImageFix" result="effect1_dropShadow_4703_4338"/>
<feColorMatrix in="SourceAlpha" type="matrix" values="0 0 0 0 0 0 0 0 0 0 0 0 0 0 0 0 0 0 127 0" result="hardAlpha"/>
<feMorphology radius="1.49418" operator="erode" in="SourceAlpha" result="effect2_dropShadow_4703_4338"/>
<feOffset dy="3.73546"/>
<feGaussianBlur stdDeviation="3.73546"/>
<feColorMatrix type="matrix" values="0 0 0 0 0.916051 0 0 0 0 0.921023 0 0 0 0 0.927984 0 0 0 0.25 0"/>
<feBlend mode="color-burn" in2="effect1_dropShadow_4703_4338" result="effect2_dropShadow_4703_4338"/>
<feColorMatrix in="SourceAlpha" type="matrix" values="0 0 0 0 0 0 0 0 0 0 0 0 0 0 0 0 0 0 127 0" result="hardAlpha"/>
<feMorphology radius="0.373546" operator="erode" in="SourceAlpha" result="effect3_dropShadow_4703_4338"/>
<feOffset dy="1.86773"/>
<feGaussianBlur stdDeviation="0.933865"/>
<feColorMatrix type="matrix" values="0 0 0 0 0.772549 0 0 0 0 0.792157 0 0 0 0 0.819608 0 0 0 0.25 0"/>
<feBlend mode="multiply" in2="effect2_dropShadow_4703_4338" result="effect3_dropShadow_4703_4338"/>
<feColorMatrix in="SourceAlpha" type="matrix" values="0 0 0 0 0 0 0 0 0 0 0 0 0 0 0 0 0 0 127 0" result="hardAlpha"/>
<feMorphology radius="0.373546" operator="erode" in="SourceAlpha" result="effect4_dropShadow_4703_4338"/>
<feOffset dy="1.86773"/>
<feGaussianBlur stdDeviation="0.933865"/>
<feColorMatrix type="matrix" values="0 0 0 0 0.772549 0 0 0 0 0.792157 0 0 0 0 0.819608 0 0 0 0.25 0"/>
<feBlend mode="color-burn" in2="effect3_dropShadow_4703_4338" result="effect4_dropShadow_4703_4338"/>
<feColorMatrix in="SourceAlpha" type="matrix" values="0 0 0 0 0 0 0 0 0 0 0 0 0 0 0 0 0 0 127 0" result="hardAlpha"/>
<feMorphology radius="1.86773" operator="erode" in="SourceAlpha" result="effect5_dropShadow_4703_4338"/>
<feOffset/>
<feGaussianBlur stdDeviation="1.86773"/>
<feColorMatrix type="matrix" values="0 0 0 0 0.827757 0 0 0 0 0.843115 0 0 0 0 0.864615 0 0 0 0.5 0"/>
<feBlend mode="multiply" in2="effect4_dropShadow_4703_4338" result="effect5_dropShadow_4703_4338"/>
<feColorMatrix in="SourceAlpha" type="matrix" values="0 0 0 0 0 0 0 0 0 0 0 0 0 0 0 0 0 0 127 0" result="hardAlpha"/>
<feMorphology radius="1.86773" operator="erode" in="SourceAlpha" result="effect6_dropShadow_4703_4338"/>
<feOffset/>
<feGaussianBlur stdDeviation="1.86773"/>
<feColorMatrix type="matrix" values="0 0 0 0 0.827757 0 0 0 0 0.843115 0 0 0 0 0.864615 0 0 0 0.25 0"/>
<feBlend mode="color-burn" in2="effect5_dropShadow_4703_4338" result="effect6_dropShadow_4703_4338"/>
<feColorMatrix in="SourceAlpha" type="matrix" values="0 0 0 0 0 0 0 0 0 0 0 0 0 0 0 0 0 0 127 0" result="hardAlpha"/>
<feMorphology radius="0.373546" operator="erode" in="SourceAlpha" result="effect7_dropShadow_4703_4338"/>
<feOffset dx="0.373546" dy="0.373546"/>
<feGaussianBlur stdDeviation="0.373546"/>
<feColorMatrix type="matrix" values="0 0 0 0 0.8 0 0 0 0 0.807843 0 0 0 0 0.843137 0 0 0 0.35 0"/>
<feBlend mode="multiply" in2="effect6_dropShadow_4703_4338" result="effect7_dropShadow_4703_4338"/>
<feBlend mode="normal" in="SourceGraphic" in2="effect7_dropShadow_4703_4338" result="shape"/>
<feColorMatrix in="SourceAlpha" type="matrix" values="0 0 0 0 0 0 0 0 0 0 0 0 0 0 0 0 0 0 127 0" result="hardAlpha"/>
<feOffset dy="-3.73546"/>
<feGaussianBlur stdDeviation="0.186773"/>
<feComposite in2="hardAlpha" operator="arithmetic" k2="-1" k3="1"/>
<feColorMatrix type="matrix" values="0 0 0 0 0.798081 0 0 0 0 0.808857 0 0 0 0 0.841184 0 0 0 0.6 0"/>
<feBlend mode="multiply" in2="shape" result="effect8_innerShadow_4703_4338"/>
<feColorMatrix in="SourceAlpha" type="matrix" values="0 0 0 0 0 0 0 0 0 0 0 0 0 0 0 0 0 0 127 0" result="hardAlpha"/>
<feOffset dy="-3.73546"/>
<feGaussianBlur stdDeviation="0.186773"/>
<feComposite in2="hardAlpha" operator="arithmetic" k2="-1" k3="1"/>
<feColorMatrix type="matrix" values="0 0 0 0 0.8 0 0 0 0 0.807843 0 0 0 0 0.843137 0 0 0 0.4 0"/>
<feBlend mode="color-burn" in2="effect8_innerShadow_4703_4338" result="effect9_innerShadow_4703_4338"/>
<feColorMatrix in="SourceAlpha" type="matrix" values="0 0 0 0 0 0 0 0 0 0 0 0 0 0 0 0 0 0 127 0" result="hardAlpha"/>
<feOffset dy="-1.86773"/>
<feGaussianBlur stdDeviation="1.86773"/>
<feComposite in2="hardAlpha" operator="arithmetic" k2="-1" k3="1"/>
<feColorMatrix type="matrix" values="0 0 0 0 1 0 0 0 0 1 0 0 0 0 1 0 0 0 0.25 0"/>
<feBlend mode="overlay" in2="effect9_innerShadow_4703_4338" result="effect10_innerShadow_4703_4338"/>
<feColorMatrix in="SourceAlpha" type="matrix" values="0 0 0 0 0 0 0 0 0 0 0 0 0 0 0 0 0 0 127 0" result="hardAlpha"/>
<feOffset/>
<feGaussianBlur stdDeviation="0.373546"/>
<feComposite in2="hardAlpha" operator="arithmetic" k2="-1" k3="1"/>
<feColorMatrix type="matrix" values="0 0 0 0 0.8 0 0 0 0 0.807843 0 0 0 0 0.843137 0 0 0 0.5 0"/>
<feBlend mode="normal" in2="effect10_innerShadow_4703_4338" result="effect11_innerShadow_4703_4338"/>
<feColorMatrix in="SourceAlpha" type="matrix" values="0 0 0 0 0 0 0 0 0 0 0 0 0 0 0 0 0 0 127 0" result="hardAlpha"/>
<feOffset/>
<feGaussianBlur stdDeviation="0.747092"/>
<feComposite in2="hardAlpha" operator="arithmetic" k2="-1" k3="1"/>
<feColorMatrix type="matrix" values="0 0 0 0 0.625417 0 0 0 0 0.631402 0 0 0 0 0.658333 0 0 0 1 0"/>
<feBlend mode="color-burn" in2="effect11_innerShadow_4703_4338" result="effect12_innerShadow_4703_4338"/>
<feColorMatrix in="SourceAlpha" type="matrix" values="0 0 0 0 0 0 0 0 0 0 0 0 0 0 0 0 0 0 127 0" result="hardAlpha"/>
<feOffset dx="0.747092" dy="0.747092"/>
<feGaussianBlur stdDeviation="0.373546"/>
<feComposite in2="hardAlpha" operator="arithmetic" k2="-1" k3="1"/>
<feColorMatrix type="matrix" values="0 0 0 0 1 0 0 0 0 1 0 0 0 0 1 0 0 0 0.3 0"/>
<feBlend mode="normal" in2="effect12_innerShadow_4703_4338" result="effect13_innerShadow_4703_4338"/>
</filter>
<linearGradient id="paint0_linear_4703_4338" x1="57.9944" y1="21.8813" x2="92.2798" y2="22.8626" gradientUnits="userSpaceOnUse">
<stop stop-color="#007BFB"/>
<stop offset="1" stop-color="#55CDF3"/>
</linearGradient>
<clipPath id="clip0_4703_4338">
<rect width="101.604" height="93.76" fill="white"/>
</clipPath>
</defs>
</svg>
