<svg width="1283" height="614" viewBox="0 0 1283 614" fill="none" xmlns="http://www.w3.org/2000/svg">
<path opacity="0.5" d="M1279.73 609.05C1280.31 609.634 1281.26 609.632 1281.85 609.045C1282.43 608.457 1282.43 607.508 1281.84 606.923L1279.73 609.05ZM607.283 598.987L607.843 597.595L607.283 598.987ZM585.283 18.9867L585.669 17.5371L585.283 18.9867ZM1280.35 605.441C1279.76 604.859 1278.81 604.864 1278.23 605.453C1277.64 606.042 1277.65 606.992 1278.24 607.574L1280.35 605.441ZM1270.84 600.359C1271.43 600.933 1272.38 600.913 1272.96 600.316C1273.53 599.718 1273.51 598.769 1272.91 598.195L1270.84 600.359ZM1269.96 595.372C1269.36 594.802 1268.41 594.827 1267.84 595.428C1267.27 596.029 1267.29 596.978 1267.89 597.548L1269.96 595.372ZM1260.57 590.71C1261.18 591.271 1262.13 591.231 1262.69 590.621C1263.25 590.012 1263.21 589.063 1262.61 588.502L1260.57 590.71ZM1259.68 585.828C1259.07 585.271 1258.12 585.316 1257.56 585.93C1257 586.543 1257.05 587.492 1257.66 588.049L1259.68 585.828ZM1250.31 581.476C1250.93 582.022 1251.88 581.961 1252.43 581.339C1252.97 580.717 1252.91 579.769 1252.29 579.222L1250.31 581.476ZM1249.14 576.475C1248.51 575.932 1247.57 576 1247.02 576.626C1246.48 577.252 1246.55 578.2 1247.18 578.742L1249.14 576.475ZM1239.39 572.122C1240.03 572.652 1240.97 572.567 1241.51 571.931C1242.04 571.295 1241.95 570.35 1241.32 569.819L1239.39 572.122ZM1238.2 567.24C1237.56 566.714 1236.62 566.806 1236.09 567.446C1235.57 568.086 1235.66 569.032 1236.3 569.558L1238.2 567.24ZM1228.61 563.356C1229.26 563.87 1230.2 563.76 1230.72 563.11C1231.23 562.46 1231.12 561.517 1230.47 561.003L1228.61 563.356ZM1227.39 558.59C1226.74 558.081 1225.8 558.199 1225.29 558.853C1224.78 559.506 1224.9 560.449 1225.55 560.958L1227.39 558.59ZM1217.38 554.737C1218.04 555.231 1218.98 555.093 1219.48 554.429C1219.97 553.764 1219.83 552.824 1219.17 552.33L1217.38 554.737ZM1215.87 549.896C1215.2 549.407 1214.26 549.553 1213.77 550.222C1213.28 550.891 1213.43 551.83 1214.1 552.318L1215.87 549.896ZM1205.95 546.507C1206.63 546.98 1207.57 546.813 1208.04 546.133C1208.51 545.453 1208.35 544.518 1207.67 544.045L1205.95 546.507ZM1204.41 541.797C1203.72 541.33 1202.79 541.506 1202.32 542.19C1201.86 542.874 1202.03 543.807 1202.72 544.274L1204.41 541.797ZM1194.37 538.727C1195.07 539.177 1196 538.978 1196.45 538.283C1196.9 537.587 1196.7 536.658 1196 536.208L1194.37 538.727ZM1192.52 533.978C1191.82 533.535 1190.89 533.743 1190.45 534.443C1190.01 535.144 1190.21 536.07 1190.91 536.513L1192.52 533.978ZM1182.33 531.238C1183.04 531.662 1183.96 531.429 1184.38 530.717C1184.81 530.005 1184.57 529.085 1183.86 528.661L1182.33 531.238ZM1180.42 526.636C1179.71 526.22 1178.79 526.463 1178.37 527.179C1177.96 527.896 1178.2 528.814 1178.92 529.23L1180.42 526.636ZM1170.27 524.365C1170.99 524.76 1171.9 524.491 1172.3 523.763C1172.7 523.036 1172.43 522.125 1171.7 521.729L1170.27 524.365ZM1168.04 519.769C1167.31 519.382 1166.4 519.663 1166.02 520.395C1165.63 521.128 1165.91 522.035 1166.64 522.422L1168.04 519.769ZM1157.65 517.848C1158.39 518.212 1159.29 517.903 1159.65 517.159C1160.02 516.415 1159.71 515.517 1158.97 515.153L1157.65 517.848ZM1155.36 513.417C1154.61 513.063 1153.72 513.383 1153.36 514.131C1153.01 514.88 1153.33 515.774 1154.08 516.129L1155.36 513.417ZM1145.02 512.022C1145.78 512.351 1146.66 512.003 1146.99 511.243C1147.32 510.482 1146.97 509.599 1146.21 509.27L1145.02 512.022ZM1142.41 507.651C1141.65 507.332 1140.77 507.693 1140.45 508.458C1140.13 509.222 1140.49 510.101 1141.26 510.42L1142.41 507.651ZM1131.91 506.714C1132.69 507.005 1133.55 506.613 1133.84 505.838C1134.14 505.062 1133.74 504.197 1132.97 503.906L1131.91 506.714ZM1129.22 502.526C1128.44 502.246 1127.58 502.65 1127.3 503.43C1127.02 504.209 1127.42 505.068 1128.2 505.349L1129.22 502.526ZM1118.71 502.132C1119.5 502.383 1120.34 501.947 1120.59 501.157C1120.85 500.368 1120.41 499.524 1119.62 499.273L1118.71 502.132ZM1115.7 498.061C1114.91 497.822 1114.07 498.272 1113.83 499.065C1113.59 499.858 1114.04 500.695 1114.84 500.934L1115.7 498.061ZM1105.23 498.246C1106.03 498.453 1106.85 497.971 1107.05 497.169C1107.26 496.367 1106.78 495.549 1105.98 495.341L1105.23 498.246ZM1102.11 494.376C1101.31 494.181 1100.5 494.676 1100.3 495.481C1100.11 496.287 1100.6 497.097 1101.41 497.292L1102.11 494.376ZM1091.53 495.119C1092.34 495.28 1093.13 494.751 1093.29 493.939C1093.45 493.126 1092.92 492.337 1092.11 492.176L1091.53 495.119ZM1088.12 491.419C1087.3 491.271 1086.52 491.812 1086.38 492.628C1086.23 493.443 1086.77 494.223 1087.58 494.371L1088.12 491.419ZM1077.8 492.809C1078.62 492.922 1079.38 492.349 1079.49 491.529C1079.6 490.708 1079.03 489.951 1078.21 489.837L1077.8 492.809ZM1074.14 489.31C1073.32 489.211 1072.57 489.797 1072.47 490.619C1072.37 491.442 1072.96 492.189 1073.78 492.288L1074.14 489.31ZM1063.77 491.295C1064.6 491.36 1065.32 490.742 1065.38 489.916C1065.45 489.09 1064.83 488.368 1064 488.304L1063.77 491.295ZM1059.98 488.026C1059.15 487.976 1058.44 488.606 1058.39 489.433C1058.34 490.26 1058.97 490.971 1059.8 491.021L1059.98 488.026ZM1049.79 490.627C1050.62 490.642 1051.31 489.983 1051.32 489.155C1051.34 488.326 1050.68 487.643 1049.85 487.628L1049.79 490.627ZM1045.77 487.588C1044.95 487.587 1044.27 488.258 1044.27 489.087C1044.27 489.915 1044.94 490.587 1045.77 490.588L1045.77 487.588ZM1035.78 490.784C1036.61 490.751 1037.26 490.053 1037.22 489.225C1037.19 488.397 1036.49 487.753 1035.66 487.786L1035.78 490.784ZM1031.62 487.982C1030.8 488.029 1030.16 488.738 1030.21 489.565C1030.26 490.392 1030.97 491.024 1031.79 490.978L1031.62 487.982ZM1021.77 491.749C1022.59 491.669 1023.2 490.936 1023.12 490.111C1023.04 489.287 1022.3 488.683 1021.48 488.763L1021.77 491.749ZM1017.45 489.187C1016.63 489.28 1016.04 490.022 1016.13 490.846C1016.22 491.669 1016.96 492.261 1017.79 492.168L1017.45 489.187ZM1007.86 493.482C1008.68 493.358 1009.24 492.593 1009.12 491.774C1008.99 490.955 1008.23 490.392 1007.41 490.516L1007.86 493.482ZM1003.4 491.156C1002.58 491.292 1002.03 492.065 1002.17 492.882C1002.3 493.699 1003.08 494.251 1003.89 494.115L1003.4 491.156ZM994.037 495.942C994.849 495.776 995.373 494.984 995.208 494.173C995.042 493.361 994.25 492.837 993.438 493.002L994.037 495.942ZM989.478 493.837C988.668 494.014 988.155 494.813 988.331 495.622C988.508 496.432 989.307 496.945 990.116 496.769L989.478 493.837ZM980.342 499.07C981.145 498.867 981.632 498.051 981.429 497.248C981.226 496.445 980.411 495.958 979.607 496.161L980.342 499.07ZM975.685 497.178C974.885 497.391 974.408 498.213 974.621 499.013C974.834 499.814 975.656 500.29 976.456 500.077L975.685 497.178ZM966.797 502.803C967.591 502.566 968.043 501.731 967.806 500.937C967.57 500.143 966.734 499.691 965.94 499.928L966.797 502.803ZM962.065 501.107C961.274 501.352 960.832 502.193 961.077 502.984C961.323 503.775 962.163 504.218 962.955 503.972L962.065 501.107ZM953.401 507.079C954.186 506.813 954.605 505.961 954.339 505.176C954.072 504.392 953.22 503.972 952.436 504.239L953.401 507.079ZM948.608 505.561C947.827 505.835 947.415 506.691 947.69 507.473C947.964 508.255 948.82 508.666 949.602 508.392L948.608 505.561ZM940.163 511.831C940.938 511.539 941.329 510.673 941.036 509.898C940.744 509.123 939.878 508.732 939.103 509.025L940.163 511.831ZM935.322 510.471C934.55 510.77 934.167 511.639 934.466 512.411C934.765 513.184 935.634 513.568 936.406 513.268L935.322 510.471ZM927.068 516.998C927.834 516.683 928.2 515.807 927.885 515.04C927.57 514.274 926.694 513.908 925.927 514.223L927.068 516.998ZM922.193 515.774C921.429 516.095 921.069 516.974 921.39 517.738C921.71 518.502 922.59 518.861 923.353 518.541L922.193 515.774ZM914.111 522.515C914.869 522.181 915.213 521.296 914.88 520.538C914.546 519.78 913.661 519.435 912.903 519.769L914.111 522.515ZM909.205 521.409C908.449 521.747 908.11 522.635 908.448 523.391C908.787 524.147 909.674 524.486 910.43 524.148L909.205 521.409ZM901.273 528.323C902.025 527.974 902.351 527.082 902.002 526.331C901.653 525.579 900.762 525.253 900.01 525.602L901.273 528.323ZM896.349 527.313C895.599 527.666 895.277 528.559 895.63 529.309C895.982 530.058 896.876 530.38 897.625 530.028L896.349 527.313ZM888.536 534.365C889.282 534.005 889.594 533.108 889.233 532.362C888.873 531.616 887.976 531.304 887.23 531.665L888.536 534.365ZM883.595 533.432C882.851 533.795 882.542 534.693 882.906 535.438C883.269 536.182 884.167 536.491 884.912 536.127L883.595 533.432ZM875.88 540.585C876.622 540.215 876.924 539.315 876.554 538.573C876.185 537.832 875.284 537.53 874.542 537.9L875.88 540.585ZM870.933 539.704C870.193 540.076 869.893 540.977 870.265 541.718C870.636 542.458 871.538 542.757 872.278 542.386L870.933 539.704ZM863.272 546.933C864.011 546.558 864.305 545.655 863.93 544.916C863.555 544.178 862.653 543.883 861.914 544.258L863.272 546.933ZM858.318 546.087C857.58 546.463 857.286 547.366 857.662 548.104C858.038 548.843 858.942 549.136 859.68 548.76L858.318 546.087ZM850.702 553.347C851.44 552.969 851.731 552.065 851.354 551.328C850.976 550.591 850.073 550.299 849.335 550.676L850.702 553.347ZM845.738 552.518C845 552.896 844.709 553.8 845.086 554.537C845.464 555.274 846.368 555.566 847.105 555.188L845.738 552.518ZM838.132 559.779C838.87 559.403 839.162 558.499 838.786 557.761C838.409 557.023 837.505 556.731 836.768 557.107L838.132 559.779ZM833.183 558.936C832.445 559.311 832.151 560.215 832.527 560.953C832.903 561.691 833.806 561.985 834.545 561.609L833.183 558.936ZM825.521 566.182C826.261 565.809 826.559 564.907 826.186 564.167C825.813 563.427 824.911 563.13 824.171 563.502L825.521 566.182ZM820.574 565.31C819.833 565.68 819.533 566.582 819.904 567.322C820.275 568.063 821.176 568.363 821.917 567.992L820.574 565.31ZM812.876 572.479C813.619 572.113 813.926 571.215 813.561 570.471C813.196 569.727 812.297 569.421 811.553 569.786L812.876 572.479ZM807.924 571.56C807.179 571.923 806.869 572.82 807.231 573.565C807.593 574.31 808.491 574.62 809.236 574.258L807.924 571.56ZM800.144 578.62C800.893 578.266 801.213 577.372 800.859 576.623C800.505 575.874 799.611 575.554 798.862 575.908L800.144 578.62ZM795.222 577.617C794.472 577.967 794.147 578.86 794.497 579.611C794.847 580.361 795.739 580.686 796.49 580.336L795.222 577.617ZM787.273 584.552C788.029 584.214 788.367 583.326 788.028 582.57C787.69 581.814 786.802 581.476 786.046 581.814L787.273 584.552ZM782.378 583.443C781.62 583.777 781.275 584.662 781.609 585.42C781.942 586.178 782.827 586.523 783.586 586.189L782.378 583.443ZM774.287 590.176C775.051 589.857 775.412 588.979 775.093 588.214C774.774 587.45 773.896 587.089 773.132 587.408L774.287 590.176ZM769.405 588.944C768.638 589.256 768.269 590.131 768.582 590.898C768.894 591.666 769.77 592.034 770.537 591.722L769.405 588.944ZM761.155 595.417C761.929 595.123 762.319 594.256 762.024 593.482C761.73 592.707 760.864 592.318 760.089 592.613L761.155 595.417ZM756.307 594.027C755.53 594.314 755.132 595.176 755.418 595.953C755.704 596.731 756.566 597.129 757.344 596.843L756.307 594.027ZM747.781 600.212C748.567 599.948 748.989 599.098 748.725 598.313C748.461 597.527 747.611 597.105 746.825 597.369L747.781 600.212ZM743.029 598.619C742.241 598.874 741.808 599.719 742.062 600.507C742.317 601.296 743.162 601.729 743.95 601.474L743.029 598.619ZM734.236 604.432C735.033 604.205 735.494 603.374 735.266 602.578C735.038 601.781 734.208 601.32 733.411 601.548L734.236 604.432ZM729.547 602.623C728.747 602.839 728.274 603.663 728.49 604.463C728.707 605.262 729.53 605.735 730.33 605.519L729.547 602.623ZM720.508 607.975C721.316 607.79 721.82 606.986 721.635 606.178C721.45 605.371 720.645 604.866 719.838 605.051L720.508 607.975ZM715.913 605.917C715.103 606.089 714.585 606.885 714.757 607.696C714.928 608.506 715.725 609.024 716.535 608.852L715.913 605.917ZM706.572 610.739C707.389 610.603 707.942 609.83 707.806 609.013C707.67 608.196 706.897 607.644 706.08 607.78L706.572 610.739ZM702.127 608.4C701.308 608.521 700.741 609.283 700.862 610.103C700.983 610.922 701.745 611.489 702.565 611.368L702.127 608.4ZM692.48 612.606C693.304 612.525 693.907 611.792 693.827 610.967C693.746 610.143 693.013 609.54 692.188 609.62L692.48 612.606ZM688.201 609.969C687.375 610.032 686.757 610.753 686.82 611.579C686.884 612.405 687.605 613.023 688.431 612.96L688.201 609.969ZM678.298 613.473C679.126 613.453 679.781 612.766 679.761 611.938C679.742 611.109 679.054 610.454 678.226 610.474L678.298 613.473ZM674.227 610.525C673.399 610.527 672.728 611.2 672.73 612.028C672.731 612.856 673.404 613.527 674.233 613.525L674.227 610.525ZM664.059 613.259C664.886 613.304 665.594 612.67 665.639 611.843C665.684 611.016 665.05 610.309 664.223 610.264L664.059 613.259ZM660.258 610.002C659.432 609.938 658.71 610.556 658.646 611.382C658.582 612.208 659.2 612.929 660.026 612.993L660.258 610.002ZM649.896 611.913C650.717 612.025 651.473 611.45 651.584 610.629C651.696 609.808 651.121 609.052 650.3 608.941L649.896 611.913ZM646.321 608.351C645.502 608.22 644.733 608.777 644.602 609.595C644.471 610.413 645.028 611.183 645.846 611.314L646.321 608.351ZM635.934 609.433C636.743 609.611 637.543 609.099 637.721 608.29C637.898 607.481 637.386 606.681 636.577 606.503L635.934 609.433ZM632.66 605.595C631.855 605.399 631.043 605.892 630.847 606.697C630.651 607.502 631.144 608.314 631.949 608.51L632.66 605.595ZM622.158 605.826C622.95 606.068 623.788 605.621 624.03 604.828C624.271 604.036 623.824 603.198 623.031 602.956L622.158 605.826ZM619.253 601.76C618.466 601.502 617.618 601.93 617.359 602.717C617.101 603.505 617.529 604.352 618.316 604.611L619.253 601.76ZM608.663 601.146C609.435 601.446 610.304 601.064 610.605 600.292C610.906 599.521 610.524 598.651 609.752 598.35L608.663 601.146ZM605.909 596.802C605.145 596.483 604.266 596.843 603.946 597.607C603.627 598.372 603.987 599.25 604.751 599.57L605.909 596.802ZM595.433 595.273C596.172 595.648 597.075 595.353 597.45 594.615C597.825 593.876 597.531 592.973 596.792 592.598L595.433 595.273ZM593.399 590.806C592.673 590.408 591.761 590.674 591.362 591.4C590.964 592.126 591.23 593.038 591.956 593.437L593.399 590.806ZM583.403 588.247C584.091 588.708 585.023 588.525 585.485 587.837C585.947 587.15 585.763 586.218 585.076 585.756L583.403 588.247ZM581.825 583.478C581.156 582.989 580.218 583.134 579.729 583.803C579.239 584.471 579.385 585.41 580.053 585.899L581.825 583.478ZM572.422 579.679C573.035 580.236 573.984 580.192 574.541 579.579C575.099 578.966 575.054 578.017 574.441 577.46L572.422 579.679ZM571.544 574.694C570.959 574.108 570.01 574.107 569.423 574.692C568.837 575.277 568.835 576.226 569.42 576.813L571.544 574.694ZM562.745 569.239C563.252 569.894 564.195 570.013 564.849 569.506C565.504 568.998 565.624 568.056 565.116 567.401L562.745 569.239ZM562.851 564.319C562.378 563.639 561.443 563.471 560.763 563.945C560.083 564.418 559.916 565.353 560.389 566.033L562.851 564.319ZM555.149 557.338C555.53 558.074 556.434 558.363 557.17 557.983C557.907 557.603 558.195 556.698 557.815 555.962L555.149 557.338ZM556.125 552.471C555.783 551.716 554.895 551.381 554.14 551.723C553.385 552.065 553.05 552.953 553.392 553.708L556.125 552.471ZM549.823 544.307C550.069 545.098 550.91 545.54 551.701 545.293C552.492 545.047 552.933 544.206 552.687 543.415L549.823 544.307ZM551.61 539.655C551.401 538.853 550.581 538.373 549.78 538.583C548.978 538.792 548.498 539.612 548.708 540.413L551.61 539.655ZM546.698 530.579C546.822 531.398 547.586 531.962 548.405 531.838C549.224 531.715 549.788 530.951 549.665 530.131L546.698 530.579ZM549.159 526.266C549.067 525.442 548.325 524.849 547.502 524.941C546.678 525.033 546.085 525.775 546.177 526.598L549.159 526.266ZM545.507 516.513C545.527 517.341 546.214 517.997 547.042 517.977C547.87 517.957 548.526 517.27 548.506 516.441L545.507 516.513ZM548.473 512.584C548.478 511.756 547.811 511.08 546.983 511.074C546.154 511.069 545.478 511.736 545.473 512.565L548.473 512.584ZM545.899 502.471C545.836 503.297 546.455 504.018 547.281 504.08C548.107 504.143 548.828 503.525 548.891 502.699L545.899 502.471ZM549.238 498.779C549.321 497.955 548.72 497.219 547.895 497.136C547.071 497.053 546.336 497.654 546.253 498.478L549.238 498.779ZM547.519 488.649C547.391 489.468 547.952 490.235 548.77 490.362C549.589 490.489 550.356 489.929 550.483 489.11L547.519 488.649ZM551.136 485.168C551.28 484.352 550.735 483.574 549.919 483.431C549.103 483.287 548.325 483.832 548.182 484.648L551.136 485.168ZM550.119 474.89C549.941 475.699 550.452 476.499 551.261 476.678C552.07 476.856 552.871 476.345 553.049 475.536L550.119 474.89ZM553.923 471.711C554.114 470.905 553.615 470.097 552.809 469.906C552.003 469.716 551.194 470.215 551.004 471.021L553.923 471.711ZM553.51 461.215C553.291 462.014 553.761 462.84 554.56 463.058C555.359 463.277 556.184 462.807 556.403 462.008L553.51 461.215ZM557.452 458.267C557.68 457.471 557.22 456.64 556.424 456.412C555.628 456.183 554.797 456.644 554.568 457.44L557.452 458.267ZM557.434 447.96C557.183 448.749 557.621 449.593 558.41 449.843C559.2 450.093 560.043 449.656 560.294 448.866L557.434 447.96ZM561.521 445.062C561.779 444.275 561.35 443.427 560.563 443.169C559.776 442.911 558.929 443.339 558.67 444.126L561.521 445.062ZM561.884 434.701C561.608 435.483 562.017 436.34 562.798 436.615C563.58 436.891 564.436 436.482 564.712 435.701L561.884 434.701ZM566.034 432.005C566.317 431.226 565.914 430.366 565.135 430.084C564.356 429.802 563.496 430.204 563.214 430.983L566.034 432.005ZM566.709 421.609C566.413 422.382 566.8 423.25 567.573 423.546C568.347 423.842 569.214 423.456 569.511 422.682L566.709 421.609ZM570.963 418.928C571.265 418.156 570.884 417.286 570.112 416.985C569.341 416.683 568.471 417.064 568.169 417.836L570.963 418.928ZM571.819 408.697C571.506 409.464 571.875 410.339 572.642 410.652C573.409 410.965 574.284 410.596 574.597 409.829L571.819 408.697ZM576.103 406.164C576.419 405.398 576.056 404.521 575.29 404.204C574.525 403.888 573.647 404.251 573.331 405.017L576.103 406.164ZM577.227 395.761C576.902 396.522 577.255 397.404 578.016 397.73C578.778 398.056 579.66 397.702 579.986 396.941L577.227 395.761ZM581.534 393.343C581.863 392.583 581.513 391.7 580.753 391.371C579.993 391.042 579.11 391.391 578.781 392.152L581.534 393.343ZM582.757 383.085C582.42 383.842 582.762 384.728 583.519 385.064C584.276 385.401 585.162 385.059 585.499 384.302L582.757 383.085ZM587.119 380.668C587.458 379.911 587.119 379.024 586.363 378.685C585.607 378.347 584.72 378.685 584.381 379.441L587.119 380.668ZM588.492 370.355C588.147 371.109 588.479 371.999 589.233 372.343C589.987 372.687 590.876 372.355 591.221 371.601L588.492 370.355ZM592.863 368.016C593.209 367.263 592.879 366.373 592.126 366.027C591.373 365.681 590.483 366.011 590.137 366.763L592.863 368.016ZM594.307 357.755C593.957 358.506 594.282 359.398 595.033 359.748C595.784 360.098 596.676 359.773 597.026 359.022L594.307 357.755ZM598.712 355.413C599.063 354.662 598.739 353.769 597.989 353.418C597.239 353.067 596.346 353.391 595.995 354.141L598.712 355.413ZM600.224 345.149C599.87 345.898 600.19 346.792 600.939 347.146C601.688 347.5 602.582 347.179 602.936 346.43L600.224 345.149ZM604.63 342.85C604.984 342.102 604.665 341.207 603.916 340.853C603.167 340.498 602.273 340.818 601.918 341.566L604.63 342.85ZM606.179 332.595C605.823 333.343 606.141 334.238 606.889 334.594C607.637 334.95 608.532 334.632 608.888 333.884L606.179 332.595ZM610.598 330.291C610.954 329.543 610.637 328.648 609.889 328.292C609.141 327.936 608.246 328.253 607.89 329.001L610.598 330.291ZM612.161 320.039C611.805 320.787 612.122 321.682 612.87 322.038C613.618 322.395 614.513 322.077 614.87 321.33L612.161 320.039ZM616.577 317.746C616.934 316.998 616.616 316.103 615.868 315.747C615.12 315.39 614.225 315.708 613.869 316.456L616.577 317.746ZM618.131 307.496C617.775 308.245 618.094 309.14 618.842 309.495C619.591 309.85 620.485 309.531 620.841 308.783L618.131 307.496ZM622.541 305.198C622.896 304.449 622.576 303.555 621.827 303.2C621.079 302.845 620.184 303.165 619.83 303.914L622.541 305.198ZM624.073 294.923C623.721 295.672 624.043 296.566 624.793 296.918C625.542 297.271 626.436 296.949 626.788 296.199L624.073 294.923ZM628.476 292.601C628.828 291.851 628.504 290.958 627.754 290.607C627.004 290.255 626.111 290.579 625.759 291.329L628.476 292.601ZM629.936 282.358C629.588 283.11 629.915 284.001 630.667 284.349C631.419 284.697 632.311 284.37 632.659 283.618L629.936 282.358ZM634.324 280.008C634.67 279.255 634.34 278.365 633.588 278.018C632.835 277.672 631.944 278.002 631.598 278.754L634.324 280.008ZM635.73 269.699C635.388 270.454 635.723 271.342 636.478 271.684C637.233 272.025 638.122 271.69 638.463 270.935L635.73 269.699ZM640.094 267.314C640.433 266.558 640.096 265.671 639.34 265.332C638.584 264.992 637.696 265.33 637.357 266.086L640.094 267.314ZM641.357 257.075C641.024 257.834 641.369 258.719 642.128 259.052C642.886 259.385 643.771 259.04 644.104 258.281L641.357 257.075ZM645.711 254.601C646.041 253.841 645.692 252.957 644.933 252.627C644.173 252.297 643.289 252.646 642.959 253.406L645.711 254.601ZM646.873 244.267C646.551 245.03 646.909 245.91 647.672 246.232C648.435 246.554 649.315 246.196 649.637 245.433L646.873 244.267ZM651.168 241.781C651.487 241.016 651.125 240.138 650.36 239.819C649.595 239.501 648.717 239.862 648.399 240.627L651.168 241.781ZM652.141 231.478C651.833 232.247 652.206 233.12 652.975 233.429C653.744 233.738 654.617 233.364 654.926 232.596L652.141 231.478ZM656.411 228.864C656.715 228.093 656.337 227.222 655.567 226.918C654.796 226.614 653.925 226.992 653.621 227.762L656.411 228.864ZM657.183 218.529C656.891 219.304 657.283 220.169 658.058 220.461C658.834 220.753 659.699 220.361 659.991 219.586L657.183 218.529ZM661.366 215.897C661.653 215.12 661.255 214.257 660.478 213.971C659.7 213.684 658.838 214.082 658.551 214.859L661.366 215.897ZM661.907 205.488C661.636 206.271 662.05 207.126 662.833 207.397C663.615 207.669 664.47 207.255 664.742 206.472L661.907 205.488ZM666.038 202.687C666.303 201.902 665.881 201.051 665.096 200.786C664.311 200.521 663.46 200.942 663.195 201.727L666.038 202.687ZM666.227 192.403C665.98 193.194 666.421 194.035 667.212 194.282C668.003 194.528 668.844 194.088 669.091 193.297L666.227 192.403ZM670.259 189.488C670.498 188.694 670.048 187.858 669.255 187.619C668.462 187.38 667.625 187.83 667.386 188.623L670.259 189.488ZM670.129 179.03C669.913 179.83 670.386 180.653 671.186 180.87C671.985 181.086 672.809 180.613 673.025 179.813L670.129 179.03ZM674.036 175.981C674.242 175.179 673.759 174.361 672.956 174.155C672.154 173.949 671.336 174.432 671.13 175.234L674.036 175.981ZM673.42 165.663C673.242 166.472 673.752 167.272 674.561 167.451C675.37 167.63 676.171 167.119 676.35 166.31L673.42 165.663ZM677.192 162.354C677.358 161.542 676.834 160.75 676.023 160.584C675.211 160.417 674.419 160.941 674.252 161.752L677.192 162.354ZM676.022 152.111C675.89 152.928 676.446 153.698 677.264 153.83C678.082 153.962 678.852 153.406 678.984 152.589L676.022 152.111ZM679.576 148.696C679.693 147.876 679.123 147.117 678.303 147C677.483 146.883 676.723 147.453 676.606 148.273L679.576 148.696ZM677.761 138.37C677.687 139.195 678.296 139.924 679.121 139.998C679.946 140.072 680.675 139.463 680.749 138.637L677.761 138.37ZM681.058 134.677C681.113 133.851 680.488 133.136 679.661 133.081C678.835 133.026 678.12 133.652 678.065 134.478L681.058 134.677ZM678.411 124.668C678.409 125.497 679.079 126.17 679.907 126.172C680.736 126.175 681.409 125.505 681.411 124.676L678.411 124.668ZM681.365 120.635C681.344 119.807 680.655 119.153 679.827 119.175C678.999 119.196 678.345 119.885 678.366 120.713L681.365 120.635ZM677.751 111.043C677.836 111.867 678.573 112.466 679.397 112.381C680.221 112.296 680.82 111.558 680.735 110.734L677.751 111.043ZM680.245 106.68C680.131 105.859 679.374 105.286 678.553 105.4C677.733 105.514 677.16 106.271 677.273 107.092L680.245 106.68ZM675.488 97.4766C675.678 98.283 676.485 98.7828 677.292 98.593C678.098 98.4031 678.598 97.5955 678.408 96.7891L675.488 97.4766ZM677.419 92.9315C677.197 92.1333 676.37 91.6661 675.572 91.8878C674.774 92.1097 674.307 92.9365 674.529 93.7347L677.419 92.9315ZM671.414 84.4611C671.72 85.2309 672.592 85.6069 673.362 85.3009C674.132 84.9949 674.508 84.1228 674.202 83.3529L671.414 84.4611ZM672.629 79.6394C672.289 78.8841 671.401 78.5475 670.646 78.8876C669.89 79.2278 669.554 80.1159 669.894 80.8712L672.629 79.6394ZM665.419 72.2743C665.842 72.9861 666.763 73.2194 667.475 72.7954C668.187 72.3715 668.42 71.4508 667.996 70.7391L665.419 72.2743ZM665.851 67.3204C665.395 66.629 664.464 66.4384 663.773 66.8947C663.082 67.351 662.891 68.2814 663.347 68.9729L665.851 67.3204ZM657.522 61.1552C658.053 61.7905 658.999 61.8746 659.635 61.343C660.27 60.8114 660.354 59.8654 659.822 59.23L657.522 61.1552ZM657.212 56.2436C656.653 55.6317 655.705 55.5885 655.093 56.1469C654.481 56.7054 654.437 57.6541 654.996 58.266L657.212 56.2436ZM647.964 51.34C648.584 51.8901 649.532 51.834 650.082 51.2146C650.632 50.5952 650.576 49.6471 649.956 49.097L647.964 51.34ZM646.919 46.5028C646.279 45.9769 645.334 46.0694 644.808 46.7095C644.282 47.3496 644.375 48.2948 645.015 48.8207L646.919 46.5028ZM637.307 43.0471C637.99 43.5147 638.924 43.3393 639.391 42.6555C639.859 41.9716 639.684 41.0382 639 40.5706L637.307 43.0471ZM635.574 38.3122C634.874 37.8678 633.947 38.0744 633.503 38.7735C633.059 39.4727 633.265 40.3997 633.964 40.8441L635.574 38.3122ZM625.552 35.9357C626.282 36.3269 627.192 36.0522 627.583 35.3219C627.974 34.5917 627.699 33.6826 626.969 33.2914L625.552 35.9357ZM623.487 31.4855C622.747 31.1138 621.845 31.4126 621.474 32.1531C621.102 32.8934 621.401 33.7949 622.141 34.1666L623.487 31.4855ZM613.066 29.9703C613.829 30.2949 614.71 29.94 615.034 29.1777C615.358 28.4155 615.004 27.5345 614.241 27.2101L613.066 29.9703ZM610.387 25.6224C609.617 25.3158 608.745 25.6911 608.438 26.4606C608.131 27.2302 608.507 28.1027 609.276 28.4093L610.387 25.6224ZM600.409 25.1299C601.192 25.3986 602.045 24.9812 602.314 24.1976C602.583 23.4139 602.165 22.5608 601.382 22.2921L600.409 25.1299ZM597.606 21.0365C596.817 20.7824 595.972 21.2155 595.718 22.0039C595.464 22.7924 595.897 23.6376 596.685 23.8918L597.606 21.0365ZM586.927 20.9848C587.726 21.2043 588.551 20.7347 588.771 19.9359C588.99 19.1371 588.521 18.3116 587.722 18.092L586.927 20.9848ZM583.708 17.0198C582.906 16.8101 582.087 17.2898 581.877 18.0912C581.667 18.8927 582.147 19.7124 582.948 19.9221L583.708 17.0198ZM573.221 17.4797C574.027 17.6734 574.837 17.1776 575.03 16.3722C575.224 15.5667 574.728 14.7566 573.923 14.5629L573.221 17.4797ZM570.019 13.64C569.212 13.4526 568.406 13.9549 568.218 14.7619C568.031 15.5688 568.533 16.3749 569.34 16.5623L570.019 13.64ZM559.662 14.4158C560.472 14.5871 561.268 14.069 561.44 13.2585C561.611 12.4479 561.093 11.652 560.282 11.4806L559.662 14.4158ZM556.38 10.6718C555.568 10.5069 554.776 11.0313 554.611 11.8432C554.446 12.655 554.971 13.4468 555.783 13.6117L556.38 10.6718ZM545.933 11.7142C546.748 11.8627 547.529 11.3224 547.677 10.5074C547.826 9.69235 547.286 8.9113 546.471 8.7628L545.933 11.7142ZM542.518 8.05924C541.702 7.91732 540.925 8.46393 540.783 9.28009C540.641 10.0963 541.188 10.873 542.004 11.0149L542.518 8.05924ZM532.211 9.4135C533.03 9.53892 533.796 8.97682 533.921 8.15794C534.047 7.33907 533.485 6.57355 532.666 6.44807L532.211 9.4135ZM528.73 5.86132C527.911 5.74243 527.15 6.31065 527.031 7.13053C526.912 7.95037 527.48 8.71138 528.3 8.83027L528.73 5.86132ZM518.362 7.49262C519.184 7.59474 519.934 7.01109 520.036 6.18894C520.138 5.36687 519.554 4.61764 518.732 4.51548L518.362 7.49262ZM514.746 4.03676C513.923 3.94132 513.178 4.53108 513.083 5.35399C512.987 6.17691 513.577 6.92136 514.4 7.0168L514.746 4.03676ZM504.527 5.97315C505.352 6.05192 506.084 5.4472 506.163 4.62251C506.242 3.79785 505.637 3.06548 504.812 2.98675L504.527 5.97315ZM500.846 2.62428C500.021 2.55223 499.294 3.16281 499.221 3.9881C499.149 4.81342 499.76 5.54082 500.585 5.61286L500.846 2.62428ZM490.594 4.84352C491.421 4.89865 492.136 4.27329 492.191 3.44671C492.246 2.6201 491.621 1.90537 490.794 1.85024L490.594 4.84352ZM486.788 1.59936C485.961 1.55093 485.251 2.18215 485.203 3.00919C485.155 3.83619 485.786 4.54583 486.613 4.59421L486.788 1.59936ZM476.696 4.11475C477.524 4.14635 478.221 3.50092 478.252 2.67305C478.284 1.84526 477.638 1.14854 476.811 1.11689L476.696 4.11475ZM472.819 0.980698C471.991 0.955781 471.299 1.60685 471.274 2.43493C471.249 3.26296 471.901 3.9544 472.729 3.97931L472.819 0.980698ZM462.719 3.78054C463.548 3.78853 464.226 3.12345 464.234 2.2951C464.242 1.4667 463.577 0.788665 462.748 0.780677L462.719 3.78054ZM458.737 0.758201C457.908 0.756926 457.236 1.4275 457.234 2.25589C457.233 3.08432 457.904 3.75691 458.732 3.75822L458.737 0.758201ZM448.806 3.84306C449.634 3.82762 450.293 3.14368 450.278 2.31539C450.262 1.48709 449.578 0.828165 448.75 0.843555L448.806 3.84306ZM444.742 0.934459C443.913 0.95659 443.26 1.64584 443.282 2.47397C443.304 3.30212 443.994 3.95549 444.822 3.9334L444.742 0.934459ZM434.827 4.30156C435.655 4.26274 436.294 3.5604 436.255 2.73285C436.216 1.90535 435.514 1.26602 434.687 1.30486L434.827 4.30156ZM430.683 1.50902C429.856 1.55449 429.222 2.26191 429.268 3.08913C429.313 3.9163 430.021 4.54997 430.848 4.50443L430.683 1.50902ZM420.947 5.14825C421.773 5.08626 422.392 4.36632 422.33 3.5402C422.268 2.71413 421.548 2.09466 420.722 2.15665L420.947 5.14825ZM416.707 2.4741C415.881 2.54269 415.268 3.26758 415.336 4.09317C415.405 4.91876 416.13 5.53238 416.955 5.46379L416.707 2.4741ZM407.008 6.39027C407.832 6.30524 408.431 5.56825 408.346 4.74424C408.261 3.92019 407.524 3.32106 406.7 3.40609L407.008 6.39027ZM402.718 3.8329C401.894 3.92444 401.301 4.66611 401.392 5.48943C401.484 6.31278 402.226 6.90604 403.049 6.8145L402.718 3.8329ZM393.187 8.00916C394.008 7.90147 394.587 7.14831 394.479 6.32694C394.371 5.5055 393.618 4.92696 392.797 5.03464L393.187 8.00916ZM388.803 5.57424C387.982 5.68834 387.41 6.44604 387.524 7.2666C387.638 8.08709 388.396 8.65972 389.216 8.54556L388.803 5.57424ZM379.346 10.0173C380.164 9.88711 380.722 9.11837 380.592 8.30025C380.461 7.48212 379.693 6.92439 378.874 7.05454L379.346 10.0173ZM374.926 7.69843C374.109 7.8349 373.557 8.60792 373.693 9.42503C373.83 10.2421 374.603 10.7939 375.42 10.6574L374.926 7.69843ZM365.618 12.3921C366.432 12.24 366.969 11.4564 366.817 10.6421C366.665 9.82775 365.881 9.29102 365.067 9.4432L365.618 12.3921ZM361.114 10.1979C360.3 10.3564 359.77 11.144 359.928 11.9571C360.087 12.7703 360.874 13.301 361.687 13.1425L361.114 10.1979ZM351.922 15.1429C352.732 14.9689 353.248 14.1713 353.074 13.3613C352.9 12.5514 352.102 12.0358 351.292 12.2098L351.922 15.1429ZM347.389 13.0637C346.58 13.2438 346.071 14.0453 346.251 14.854C346.431 15.6625 347.232 16.1721 348.041 15.9919L347.389 13.0637ZM338.325 18.2526C339.13 18.0573 339.624 17.2462 339.429 16.4412C339.233 15.6361 338.422 15.1418 337.617 15.3371L338.325 18.2526ZM333.715 16.2995C332.912 16.5008 332.424 17.3155 332.625 18.1191C332.826 18.9226 333.641 19.4108 334.445 19.2094L333.715 16.2995ZM324.811 21.7192C325.611 21.5029 326.084 20.6793 325.868 19.8796C325.651 19.0798 324.828 18.607 324.028 18.8232L324.811 21.7192ZM320.18 19.8791C319.382 20.1013 318.915 20.9284 319.138 21.7265C319.36 22.5246 320.187 22.9915 320.985 22.7692L320.18 19.8791ZM311.377 25.54C312.171 25.3031 312.623 24.4676 312.386 23.6736C312.149 22.8798 311.313 22.4284 310.52 22.6653L311.377 25.54ZM306.679 23.8266C305.887 24.0693 305.442 24.9082 305.684 25.7003C305.927 26.4923 306.766 26.9377 307.558 26.695L306.679 23.8266ZM298.082 29.6929C298.869 29.4359 299.299 28.5891 299.042 27.8015C298.785 27.014 297.938 26.5839 297.151 26.8409L298.082 29.6929ZM293.342 28.0992C292.556 28.3619 292.132 29.2117 292.395 29.9974C292.658 30.7831 293.508 31.207 294.293 30.9443L293.342 28.0992ZM284.841 34.1998C285.622 33.9231 286.031 33.0656 285.754 32.2849C285.477 31.504 284.62 31.0955 283.839 31.3722L284.841 34.1998ZM280.069 32.7238C279.29 33.0062 278.888 33.8665 279.17 34.6453C279.452 35.4241 280.313 35.8266 281.092 35.5442L280.069 32.7238ZM271.775 39.0159C272.548 38.7198 272.936 37.8525 272.639 37.0789C272.343 36.3051 271.476 35.918 270.702 36.214L271.775 39.0159ZM266.945 37.6676C266.173 37.9692 265.792 38.8392 266.094 39.6108C266.395 40.3824 267.265 40.7633 268.037 40.4618L266.945 37.6676ZM258.776 44.1758C259.542 43.8607 259.908 42.9842 259.593 42.218C259.278 41.4519 258.401 41.0862 257.635 41.4013L258.776 44.1758ZM253.945 42.9338C253.181 43.2542 252.822 44.1332 253.142 44.8972C253.463 45.6612 254.342 46.0207 255.106 45.7003L253.945 42.9338ZM245.94 49.6388C246.698 49.3052 247.042 48.42 246.709 47.6617C246.375 46.9035 245.49 46.5593 244.731 46.8929L245.94 49.6388ZM241.057 48.5248C240.301 48.8637 239.963 49.7513 240.302 50.5072C240.641 51.2632 241.529 51.6012 242.285 51.2623L241.057 48.5248ZM233.238 55.4116C233.988 55.0598 234.311 54.1666 233.959 53.4166C233.608 52.6666 232.714 52.3438 231.964 52.6957L233.238 55.4116ZM228.365 54.3994C227.617 54.7563 227.3 55.6517 227.657 56.3993C228.014 57.1469 228.909 57.4635 229.657 57.1066L228.365 54.3994ZM220.655 61.4998C221.396 61.1302 221.698 60.2295 221.328 59.4881C220.958 58.7467 220.057 58.4454 219.316 58.8152L220.655 61.4998ZM215.735 60.6161C214.996 60.9908 214.701 61.8935 215.076 62.6324C215.451 63.3712 216.353 63.6664 217.092 63.2916L215.735 60.6161ZM208.279 67.8557C209.011 67.4686 209.291 66.561 208.904 65.8286C208.517 65.0962 207.609 64.8163 206.877 65.2035L208.279 67.8557ZM203.313 67.1027C202.583 67.4948 202.31 68.4043 202.702 69.134C203.094 69.8638 204.003 70.1375 204.733 69.7453L203.313 67.1027ZM195.975 74.547C196.698 74.1427 196.957 73.2288 196.552 72.5057C196.148 71.7827 195.234 71.5243 194.511 71.9288L195.975 74.547ZM191.033 73.8892C190.313 74.2985 190.061 75.2141 190.47 75.9344C190.879 76.6547 191.795 76.9069 192.515 76.4976L191.033 73.8892ZM183.881 81.4997C184.594 81.0784 184.831 80.1586 184.41 79.4453C183.989 78.732 183.069 78.4953 182.355 78.9166L183.881 81.4997ZM178.899 80.9741C178.188 81.4001 177.958 82.3215 178.384 83.032C178.81 83.7424 179.731 83.9729 180.442 83.5468L178.899 80.9741ZM171.96 88.7313C172.663 88.2933 172.878 87.3682 172.44 86.665C172.002 85.9618 171.077 85.7468 170.374 86.1848L171.96 88.7313ZM166.994 88.3057C166.293 88.7484 166.085 89.675 166.527 90.3752C166.97 91.0754 167.896 91.2842 168.597 90.8416L166.994 88.3057ZM160.169 96.2694C160.862 95.8149 161.055 94.885 160.601 94.1923C160.146 93.4997 159.216 93.3066 158.524 93.7611L160.169 96.2694ZM155.186 95.967C154.497 96.4261 154.31 97.3574 154.769 98.0469C155.228 98.7365 156.16 98.9233 156.849 98.464L155.186 95.967ZM148.617 104.046C149.299 103.576 149.47 102.641 148.999 101.96C148.528 101.278 147.594 101.107 146.912 101.578L148.617 104.046ZM143.599 103.883C142.92 104.358 142.756 105.294 143.231 105.972C143.706 106.651 144.642 106.815 145.32 106.34L143.599 103.883ZM137.216 112.123C137.886 111.636 138.035 110.698 137.548 110.027C137.061 109.357 136.123 109.209 135.452 109.696L137.216 112.123ZM132.25 112.039C131.583 112.531 131.441 113.47 131.932 114.137C132.424 114.804 133.363 114.946 134.03 114.454L132.25 112.039ZM126.003 120.48C126.661 119.977 126.786 119.035 126.283 118.377C125.78 117.719 124.839 117.593 124.181 118.096L126.003 120.48ZM121.009 120.539C120.354 121.047 120.235 121.989 120.743 122.643C121.25 123.298 122.192 123.417 122.847 122.909L121.009 120.539ZM115.051 129.067C115.696 128.548 115.799 127.604 115.279 126.958C114.76 126.313 113.816 126.21 113.17 126.729L115.051 129.067ZM110.028 129.276C109.386 129.8 109.29 130.745 109.814 131.386C110.338 132.028 111.283 132.124 111.925 131.6L110.028 129.276ZM104.277 137.959C104.909 137.423 104.988 136.477 104.452 135.845C103.917 135.213 102.97 135.134 102.338 135.67L104.277 137.959ZM99.3221 138.243C98.6939 138.783 98.6225 139.73 99.1625 140.359C99.7026 140.987 100.65 141.058 101.278 140.518L99.3221 138.243ZM93.7187 147.142C94.3366 146.59 94.3901 145.642 93.8382 145.024C93.2863 144.406 92.3381 144.352 91.7202 144.904L93.7187 147.142ZM88.7535 147.574C88.1399 148.131 88.0937 149.08 88.6503 149.693C89.2068 150.307 90.1554 150.353 90.769 149.796L88.7535 147.574ZM83.4521 156.564C84.0547 155.996 84.0824 155.046 83.5139 154.444C82.9454 153.841 81.9961 153.814 81.3935 154.382L83.4521 156.564ZM78.4704 157.162C77.8724 157.735 77.8525 158.685 78.4258 159.283C78.9992 159.881 79.9487 159.901 80.5467 159.328L78.4704 157.162ZM73.4905 166.232C74.0767 165.647 74.0772 164.697 73.4918 164.111C72.9063 163.524 71.9566 163.524 71.3704 164.109L73.4905 166.232ZM68.498 167.003C67.917 167.594 67.9246 168.544 68.5151 169.125C69.1057 169.706 70.0554 169.698 70.6364 169.107L68.498 167.003ZM63.7239 176.288C64.2918 175.685 64.2632 174.735 63.66 174.167C63.0569 173.599 62.1076 173.628 61.5397 174.231L63.7239 176.288ZM58.85 177.113C58.2875 177.722 58.3246 178.671 58.9328 179.233C59.541 179.796 60.49 179.759 61.0525 179.15L58.85 177.113ZM54.3087 186.619C54.8563 185.997 54.7965 185.049 54.1749 184.502C53.5534 183.954 52.6055 184.014 52.0578 184.635L54.3087 186.619ZM49.4444 187.631C48.9028 188.257 48.9721 189.205 49.599 189.746C50.2259 190.288 51.1731 190.219 51.7147 189.592L49.4444 187.631ZM45.2773 197.242C45.8022 196.601 45.7082 195.656 45.0672 195.131C44.4263 194.607 43.4812 194.7 42.9563 195.341L45.2773 197.242ZM40.4336 198.457C39.9158 199.103 40.0204 200.047 40.667 200.565C41.3137 201.083 42.2577 200.978 42.7754 200.332L40.4336 198.457ZM36.6731 208.184C37.1716 207.522 37.0394 206.582 36.3778 206.083C35.7161 205.585 34.7756 205.717 34.2771 206.379L36.6731 208.184ZM31.8663 209.621C31.3762 210.289 31.5204 211.227 32.1882 211.717C32.8562 212.208 33.795 212.063 34.285 211.395L31.8663 209.621ZM28.5578 219.48C29.0249 218.795 28.849 217.862 28.1648 217.395C27.4807 216.928 26.5474 217.104 26.0803 217.788L28.5578 219.48ZM23.8132 221.162C23.3564 221.853 23.5463 222.784 24.2374 223.24C24.9285 223.697 25.859 223.507 26.3159 222.816L23.8132 221.162ZM21.0268 231.174C21.455 230.465 21.2274 229.543 20.5183 229.115C19.8091 228.686 18.8871 228.914 18.4588 229.623L21.0268 231.174ZM16.3839 233.13C15.9687 233.847 16.2133 234.765 16.9302 235.18C17.6471 235.595 18.5648 235.351 18.98 234.634L16.3839 233.13ZM14.2367 243.317C14.6144 242.579 14.3229 241.675 13.5857 241.298C12.8484 240.92 11.9444 241.211 11.5667 241.949L14.2367 243.317ZM9.75912 245.581C9.39903 246.327 9.71192 247.224 10.458 247.584C11.2041 247.944 12.1008 247.631 12.4609 246.885L9.75912 245.581ZM8.45891 255.938C8.76615 255.168 8.39158 254.295 7.6223 253.988C6.85294 253.681 5.98019 254.055 5.67287 254.825L8.45891 255.938ZM4.25195 258.555C3.97011 259.335 4.37308 260.195 5.1521 260.476C5.93104 260.758 6.79108 260.355 7.073 259.576L4.25195 258.555ZM4.17875 268.987C4.37875 268.183 3.88918 267.369 3.0853 267.169C2.28136 266.969 1.46752 267.459 1.26752 268.263L4.17875 268.987ZM1281.84 606.923C1281.34 606.428 1280.85 605.934 1280.35 605.441L1278.24 607.574C1278.73 608.064 1279.23 608.556 1279.73 609.05L1281.84 606.923ZM1272.91 598.195C1271.93 597.247 1270.94 596.306 1269.96 595.372L1267.89 597.548C1268.87 598.478 1269.85 599.415 1270.84 600.359L1272.91 598.195ZM1262.61 588.502C1261.63 587.604 1260.65 586.712 1259.68 585.828L1257.66 588.049C1258.63 588.929 1259.6 589.816 1260.57 590.71L1262.61 588.502ZM1252.29 579.222C1251.24 578.298 1250.19 577.382 1249.14 576.475L1247.18 578.742C1248.22 579.645 1249.26 580.556 1250.31 581.476L1252.29 579.222ZM1241.32 569.819C1240.28 568.951 1239.24 568.092 1238.2 567.24L1236.3 569.558C1237.33 570.404 1238.36 571.259 1239.39 572.122L1241.32 569.819ZM1230.47 561.003C1229.44 560.191 1228.42 559.386 1227.39 558.59L1225.55 560.958C1226.57 561.749 1227.59 562.549 1228.61 563.356L1230.47 561.003ZM1219.17 552.33C1218.07 551.51 1216.97 550.698 1215.87 549.896L1214.1 552.318C1215.19 553.116 1216.28 553.922 1217.38 554.737L1219.17 552.33ZM1207.67 544.045C1206.58 543.287 1205.49 542.537 1204.41 541.797L1202.72 544.274C1203.79 545.01 1204.87 545.754 1205.95 546.507L1207.67 544.045ZM1196 536.208C1194.84 535.455 1193.68 534.711 1192.52 533.978L1190.91 536.513C1192.07 537.241 1193.22 537.979 1194.37 538.727L1196 536.208ZM1183.86 528.661C1182.71 527.976 1181.57 527.301 1180.42 526.636L1178.92 529.23C1180.05 529.89 1181.19 530.559 1182.33 531.238L1183.86 528.661ZM1171.7 521.729C1170.48 521.065 1169.26 520.412 1168.04 519.769L1166.64 522.422C1167.85 523.059 1169.06 523.706 1170.27 524.365L1171.7 521.729ZM1158.97 515.153C1157.76 514.564 1156.56 513.985 1155.36 513.417L1154.08 516.129C1155.26 516.691 1156.45 517.264 1157.65 517.848L1158.97 515.153ZM1146.21 509.27C1144.94 508.718 1143.68 508.179 1142.41 507.651L1141.26 510.42C1142.51 510.942 1143.76 511.476 1145.02 512.022L1146.21 509.27ZM1132.97 503.906C1131.72 503.435 1130.47 502.975 1129.22 502.526L1128.2 505.349C1129.44 505.793 1130.67 506.248 1131.91 506.714L1132.97 503.906ZM1119.62 499.273C1118.31 498.857 1117 498.453 1115.7 498.061L1114.84 500.934C1116.12 501.321 1117.42 501.721 1118.71 502.132L1119.62 499.273ZM1105.98 495.341C1104.69 495.008 1103.4 494.686 1102.11 494.376L1101.41 497.292C1102.68 497.599 1103.95 497.917 1105.23 498.246L1105.98 495.341ZM1092.11 492.176C1090.78 491.911 1089.45 491.659 1088.12 491.419L1087.58 494.371C1088.9 494.608 1090.21 494.857 1091.53 495.119L1092.11 492.176ZM1078.21 489.837C1076.85 489.649 1075.49 489.474 1074.14 489.31L1073.78 492.288C1075.12 492.45 1076.46 492.623 1077.8 492.809L1078.21 489.837ZM1064 488.304C1062.66 488.2 1061.32 488.107 1059.98 488.026L1059.8 491.021C1061.12 491.101 1062.44 491.192 1063.77 491.295L1064 488.304ZM1049.85 487.628C1048.49 487.603 1047.13 487.59 1045.77 487.588L1045.77 490.588C1047.11 490.59 1048.45 490.603 1049.79 490.627L1049.85 487.628ZM1035.66 487.786C1034.31 487.841 1032.97 487.906 1031.62 487.982L1031.79 490.978C1033.12 490.902 1034.45 490.838 1035.78 490.784L1035.66 487.786ZM1021.48 488.763C1020.13 488.894 1018.79 489.035 1017.45 489.187L1017.79 492.168C1019.11 492.018 1020.44 491.878 1021.77 491.749L1021.48 488.763ZM1007.41 490.516C1006.07 490.72 1004.73 490.933 1003.4 491.156L1003.89 494.115C1005.21 493.894 1006.54 493.684 1007.86 493.482L1007.41 490.516ZM993.438 493.002C992.116 493.272 990.795 493.55 989.478 493.837L990.116 496.769C991.421 496.484 992.728 496.208 994.037 495.942L993.438 493.002ZM979.607 496.161C978.298 496.492 976.99 496.831 975.685 497.178L976.456 500.077C977.749 499.733 979.045 499.397 980.342 499.07L979.607 496.161ZM965.94 499.928C964.646 500.313 963.355 500.707 962.065 501.107L962.955 503.972C964.233 503.575 965.514 503.185 966.797 502.803L965.94 499.928ZM952.436 504.239C951.158 504.673 949.882 505.114 948.608 505.561L949.602 508.392C950.866 507.948 952.133 507.51 953.401 507.079L952.436 504.239ZM939.103 509.025C937.841 509.501 936.581 509.983 935.322 510.471L936.406 513.268C937.657 512.784 938.909 512.305 940.163 511.831L939.103 509.025ZM925.927 514.223C924.681 514.736 923.436 515.253 922.193 515.774L923.353 518.541C924.59 518.022 925.828 517.507 927.068 516.998L925.927 514.223ZM912.903 519.769C911.668 520.312 910.436 520.859 909.205 521.409L910.43 524.148C911.655 523.6 912.882 523.055 914.111 522.515L912.903 519.769ZM900.01 525.602C898.788 526.169 897.568 526.74 896.349 527.313L897.625 530.028C898.84 529.456 900.056 528.888 901.273 528.323L900.01 525.602ZM887.23 531.665C886.017 532.252 884.805 532.841 883.595 533.432L884.912 536.127C886.119 535.538 887.327 534.95 888.536 534.365L887.23 531.665ZM874.542 537.9C873.338 538.5 872.135 539.102 870.933 539.704L872.278 542.386C873.478 541.784 874.679 541.184 875.88 540.585L874.542 537.9ZM861.914 544.258C860.714 544.867 859.515 545.477 858.318 546.087L859.68 548.76C860.876 548.15 862.074 547.541 863.272 546.933L861.914 544.258ZM849.335 550.676C848.135 551.291 846.936 551.905 845.738 552.518L847.105 555.188C848.304 554.575 849.502 553.961 850.702 553.347L849.335 550.676ZM836.768 557.107C835.572 557.718 834.377 558.327 833.183 558.936L834.545 561.609C835.74 561 836.936 560.39 838.132 559.779L836.768 557.107ZM824.171 563.502C822.972 564.107 821.772 564.709 820.574 565.31L821.917 567.992C823.118 567.391 824.319 566.787 825.521 566.182L824.171 563.502ZM811.553 569.786C810.343 570.38 809.133 570.972 807.924 571.56L809.236 574.258C810.449 573.668 811.662 573.075 812.876 572.479L811.553 569.786ZM798.862 575.908C797.649 576.482 796.435 577.052 795.222 577.617L796.49 580.336C797.708 579.768 798.926 579.196 800.144 578.62L798.862 575.908ZM786.046 581.814C784.823 582.362 783.6 582.905 782.378 583.443L783.586 586.189C784.815 585.649 786.044 585.103 787.273 584.552L786.046 581.814ZM773.132 587.408C771.889 587.926 770.647 588.438 769.405 588.944L770.537 591.722C771.787 591.213 773.037 590.698 774.287 590.176L773.132 587.408ZM760.089 592.613C758.829 593.092 757.568 593.563 756.307 594.027L757.344 596.843C758.614 596.375 759.885 595.899 761.155 595.417L760.089 592.613ZM746.825 597.369C745.56 597.794 744.295 598.211 743.029 598.619L743.95 601.474C745.228 601.062 746.505 600.642 747.781 600.212L746.825 597.369ZM733.411 601.548C732.124 601.916 730.835 602.275 729.547 602.623L730.33 605.519C731.633 605.167 732.935 604.804 734.236 604.432L733.411 601.548ZM719.838 605.051C718.53 605.351 717.222 605.64 715.913 605.917L716.535 608.852C717.86 608.571 719.185 608.279 720.508 607.975L719.838 605.051ZM706.08 607.78C704.763 607.999 703.446 608.206 702.127 608.4L702.565 611.368C703.902 611.171 705.238 610.961 706.572 610.739L706.08 607.78ZM692.188 609.62C690.86 609.75 689.531 609.866 688.201 609.969L688.431 612.96C689.782 612.856 691.132 612.738 692.48 612.606L692.188 609.62ZM678.226 610.474C676.895 610.505 675.562 610.523 674.227 610.525L674.233 613.525C675.589 613.523 676.944 613.505 678.298 613.473L678.226 610.474ZM664.223 610.264C662.903 610.192 661.581 610.105 660.258 610.002L660.026 612.993C661.372 613.097 662.717 613.186 664.059 613.259L664.223 610.264ZM650.3 608.941C648.976 608.76 647.649 608.564 646.321 608.351L645.846 611.314C647.198 611.53 648.548 611.73 649.896 611.913L650.3 608.941ZM636.577 606.503C635.273 606.217 633.968 605.914 632.66 605.595L631.949 608.51C633.279 608.834 634.607 609.142 635.934 609.433L636.577 606.503ZM623.031 602.956C621.774 602.573 620.514 602.175 619.253 601.76L618.316 604.611C619.599 605.032 620.879 605.437 622.158 605.826L623.031 602.956ZM609.752 598.35C609.116 598.103 608.479 597.851 607.843 597.595L606.724 600.379C607.371 600.638 608.017 600.894 608.663 601.146L609.752 598.35ZM607.843 597.595C607.192 597.333 606.547 597.069 605.909 596.802L604.751 599.57C605.403 599.842 606.06 600.112 606.724 600.379L607.843 597.595ZM596.792 592.598C595.637 592.011 594.506 591.414 593.399 590.806L591.956 593.437C593.092 594.06 594.251 594.672 595.433 595.273L596.792 592.598ZM585.076 585.756C583.963 585.009 582.88 584.25 581.825 583.478L580.053 585.899C581.141 586.695 582.258 587.478 583.403 588.247L585.076 585.756ZM574.441 577.46C573.443 576.552 572.478 575.63 571.544 574.694L569.42 576.813C570.389 577.783 571.389 578.739 572.422 579.679L574.441 577.46ZM565.116 567.401C564.331 566.387 563.576 565.36 562.851 564.319L560.389 566.033C561.143 567.116 561.928 568.185 562.745 569.239L565.116 567.401ZM557.815 555.962C557.221 554.812 556.658 553.648 556.125 552.471L553.392 553.708C553.946 554.932 554.532 556.142 555.149 557.338L557.815 555.962ZM552.687 543.415C552.3 542.174 551.941 540.921 551.61 539.655L548.708 540.413C549.051 541.724 549.422 543.022 549.823 544.307L552.687 543.415ZM549.665 530.131C549.472 528.854 549.304 527.566 549.159 526.266L546.177 526.598C546.326 527.936 546.5 529.263 546.698 530.579L549.665 530.131ZM548.506 516.441C548.475 515.165 548.464 513.879 548.473 512.584L545.473 512.565C545.464 513.889 545.475 515.206 545.507 516.513L548.506 516.441ZM548.891 502.699C548.989 501.4 549.105 500.094 549.238 498.779L546.253 498.478C546.118 499.817 546 501.148 545.899 502.471L548.891 502.699ZM550.483 489.11C550.686 487.803 550.904 486.489 551.136 485.168L548.182 484.648C547.946 485.988 547.725 487.322 547.519 488.649L550.483 489.11ZM553.049 475.536C553.329 474.267 553.62 472.992 553.923 471.711L551.004 471.021C550.697 472.316 550.403 473.605 550.119 474.89L553.049 475.536ZM556.403 462.008C556.743 460.765 557.093 459.519 557.452 458.267L554.568 457.44C554.206 458.703 553.853 459.961 553.51 461.215L556.403 462.008ZM560.294 448.866C560.694 447.602 561.103 446.334 561.521 445.062L558.67 444.126C558.25 445.408 557.838 446.686 557.434 447.96L560.294 448.866ZM564.712 435.701C565.146 434.472 565.587 433.24 566.034 432.005L563.214 430.983C562.764 432.226 562.32 433.465 561.884 434.701L564.712 435.701ZM569.511 422.682C569.989 421.433 570.473 420.182 570.963 418.928L568.169 417.836C567.677 419.096 567.19 420.354 566.709 421.609L569.511 422.682ZM574.597 409.829C575.094 408.61 575.596 407.388 576.103 406.164L573.331 405.017C572.822 406.246 572.318 407.472 571.819 408.697L574.597 409.829ZM579.986 396.941C580.498 395.744 581.014 394.544 581.534 393.343L578.781 392.152C578.259 393.356 577.741 394.559 577.227 395.761L579.986 396.941ZM585.499 384.302C586.036 383.092 586.576 381.881 587.119 380.668L584.381 379.441C583.837 380.657 583.295 381.872 582.757 383.085L585.499 384.302ZM591.221 371.601C591.766 370.408 592.313 369.212 592.863 368.016L590.137 366.763C589.586 367.962 589.038 369.159 588.492 370.355L591.221 371.601ZM597.026 359.022C597.586 357.82 598.148 356.617 598.712 355.413L595.995 354.141C595.43 355.346 594.868 356.551 594.307 357.755L597.026 359.022ZM602.936 346.43C603.5 345.238 604.064 344.044 604.63 342.85L601.918 341.566C601.352 342.761 600.787 343.955 600.224 345.149L602.936 346.43ZM608.888 333.884C609.457 332.687 610.027 331.489 610.598 330.291L607.89 329.001C607.319 330.199 606.749 331.397 606.179 332.595L608.888 333.884ZM614.87 321.33C615.439 320.135 616.008 318.941 616.577 317.746L613.869 316.456C613.3 317.65 612.731 318.845 612.161 320.039L614.87 321.33ZM620.841 308.783C621.408 307.588 621.975 306.393 622.541 305.198L619.83 303.914C619.264 305.108 618.698 306.302 618.131 307.496L620.841 308.783ZM626.788 296.199C627.352 294.999 627.915 293.8 628.476 292.601L625.759 291.329C625.199 292.526 624.637 293.724 624.073 294.923L626.788 296.199ZM632.659 283.618C633.215 282.414 633.771 281.211 634.324 280.008L631.598 278.754C631.046 279.955 630.492 281.156 629.936 282.358L632.659 283.618ZM638.463 270.935C639.009 269.727 639.553 268.52 640.094 267.314L637.357 266.086C636.817 267.289 636.275 268.494 635.73 269.699L638.463 270.935ZM644.104 258.281C644.643 257.053 645.179 255.826 645.711 254.601L642.959 253.406C642.429 254.628 641.894 255.851 641.357 257.075L644.104 258.281ZM649.637 245.433C650.151 244.214 650.662 242.997 651.168 241.781L648.399 240.627C647.894 241.839 647.385 243.052 646.873 244.267L649.637 245.433ZM654.926 232.596C655.426 231.35 655.921 230.106 656.411 228.864L653.621 227.762C653.132 228.999 652.639 230.238 652.141 231.478L654.926 232.596ZM659.991 219.586C660.455 218.354 660.913 217.125 661.366 215.897L658.551 214.859C658.101 216.08 657.645 217.303 657.183 218.529L659.991 219.586ZM664.742 206.472C665.18 205.208 665.613 203.946 666.038 202.687L663.195 201.727C662.773 202.978 662.344 204.232 661.907 205.488L664.742 206.472ZM669.091 193.297C669.488 192.024 669.878 190.754 670.259 189.488L667.386 188.623C667.008 189.879 666.621 191.139 666.227 192.403L669.091 193.297ZM673.025 179.813C673.371 178.532 673.708 177.254 674.036 175.981L671.13 175.234C670.806 176.495 670.472 177.761 670.129 179.03L673.025 179.813ZM676.35 166.31C676.642 164.987 676.923 163.668 677.192 162.354L674.252 161.752C673.987 163.051 673.709 164.354 673.42 165.663L676.35 166.31ZM678.984 152.589C679.194 151.286 679.391 149.989 679.576 148.696L676.606 148.273C676.424 149.546 676.229 150.826 676.022 152.111L678.984 152.589ZM680.749 138.637C680.868 137.311 680.971 135.991 681.058 134.677L678.065 134.478C677.979 135.769 677.878 137.066 677.761 138.37L680.749 138.637ZM681.411 124.676C681.415 123.322 681.4 121.975 681.365 120.635L678.366 120.713C678.4 122.023 678.415 123.342 678.411 124.668L681.411 124.676ZM680.735 110.734C680.594 109.374 680.431 108.022 680.245 106.68L677.273 107.092C677.455 108.399 677.614 109.716 677.751 111.043L680.735 110.734ZM678.408 96.7891C678.103 95.4932 677.774 94.2073 677.419 92.9315L674.529 93.7347C674.872 94.9715 675.192 96.2189 675.488 97.4766L678.408 96.7891ZM674.202 83.3529C673.706 82.1036 673.181 80.8657 672.629 79.6394L669.894 80.8712C670.427 82.0562 670.934 83.2529 671.414 84.4611L674.202 83.3529ZM667.996 70.7391C667.31 69.5872 666.595 68.4476 665.851 67.3204L663.347 68.9729C664.066 70.0615 664.756 71.1621 665.419 72.2743L667.996 70.7391ZM659.822 59.23C658.979 58.2226 658.109 57.2271 657.212 56.2436L654.996 58.266C655.865 59.2179 656.706 60.181 657.522 61.1552L659.822 59.23ZM649.956 49.097C648.97 48.2208 647.958 47.3561 646.919 46.5028L645.015 48.8207C646.024 49.6498 647.007 50.4897 647.964 51.34L649.956 49.097ZM639 40.5706C637.883 39.8068 636.741 39.054 635.574 38.3122L633.964 40.8441C635.104 41.5681 636.217 42.3025 637.307 43.0471L639 40.5706ZM626.969 33.2914C625.829 32.6804 624.668 32.0784 623.487 31.4855L622.141 34.1666C623.299 34.7477 624.436 35.3375 625.552 35.9357L626.969 33.2914ZM614.241 27.2101C612.977 26.6718 611.692 26.1426 610.387 25.6224L609.276 28.4093C610.56 28.9211 611.824 29.4414 613.066 29.9703L614.241 27.2101ZM601.382 22.2921C600.14 21.8663 598.881 21.4477 597.606 21.0365L596.685 23.8918C597.943 24.2974 599.184 24.7101 600.409 25.1299L601.382 22.2921ZM587.722 18.092C587.042 17.9052 586.357 17.7202 585.669 17.5371L584.898 20.4363C585.578 20.6173 586.255 20.8002 586.927 20.9848L587.722 18.092ZM585.669 17.5371C585.015 17.3632 584.361 17.1908 583.708 17.0198L582.948 19.9221C583.598 20.092 584.248 20.2634 584.898 20.4363L585.669 17.5371ZM573.923 14.5629C572.621 14.2496 571.319 13.942 570.019 13.64L569.34 16.5623C570.633 16.8624 571.927 17.1682 573.221 17.4797L573.923 14.5629ZM560.282 11.4806C558.981 11.2054 557.68 10.9358 556.38 10.6718L555.783 13.6117C557.075 13.8742 558.368 14.1422 559.662 14.4158L560.282 11.4806ZM546.471 8.7628C545.152 8.52261 543.834 8.28809 542.518 8.05924L542.004 11.0149C543.313 11.2424 544.622 11.4755 545.933 11.7142L546.471 8.7628ZM532.666 6.44807C531.353 6.24693 530.041 6.05137 528.73 5.86132L528.3 8.83027C529.603 9.01915 530.906 9.21353 532.211 9.4135L532.666 6.44807ZM518.732 4.51548C517.402 4.35028 516.073 4.1907 514.746 4.03676L514.4 7.0168C515.719 7.1698 517.04 7.3284 518.362 7.49262L518.732 4.51548ZM504.812 2.98675C503.489 2.86041 502.167 2.73957 500.846 2.62428L500.585 5.61286C501.898 5.72753 503.212 5.8476 504.527 5.97315L504.812 2.98675ZM490.794 1.85024C489.457 1.76104 488.122 1.67743 486.788 1.59936L486.613 4.59421C487.939 4.67181 489.266 4.75492 490.594 4.84352L490.794 1.85024ZM476.811 1.11689C475.478 1.06605 474.148 1.02063 472.819 0.980698L472.729 3.97931C474.05 4.01907 475.372 4.0642 476.696 4.11475L476.811 1.11689ZM462.748 0.780677C461.409 0.767715 460.072 0.760276 458.737 0.758201L458.732 3.75822C460.059 3.76024 461.389 3.76769 462.719 3.78054L462.748 0.780677ZM448.75 0.843555C447.412 0.868508 446.076 0.898813 444.742 0.934459L444.822 3.9334C446.148 3.89796 447.476 3.8678 448.806 3.84306L448.75 0.843555ZM434.687 1.30486C433.35 1.36763 432.016 1.4357 430.683 1.50902L430.848 4.50443C432.173 4.43159 433.499 4.36396 434.827 4.30156L434.687 1.30486ZM420.722 2.15665C419.382 2.25719 418.043 2.36303 416.707 2.4741L416.955 5.46379C418.284 5.35342 419.614 5.24819 420.947 5.14825L420.722 2.15665ZM406.7 3.40609C405.37 3.54323 404.043 3.68557 402.718 3.8329L403.049 6.8145C404.367 6.66806 405.686 6.52662 407.008 6.39027L406.7 3.40609ZM392.797 5.03464C391.463 5.20941 390.132 5.38927 388.803 5.57424L389.216 8.54556C390.538 8.36176 391.861 8.18293 393.187 8.00916L392.797 5.03464ZM378.874 7.05454C377.556 7.2643 376.24 7.47892 374.926 7.69843L375.42 10.6574C376.727 10.4392 378.035 10.2258 379.346 10.0173L378.874 7.05454ZM365.067 9.4432C363.747 9.68992 362.429 9.94158 361.114 10.1979L361.687 13.1425C362.995 12.8876 364.305 12.6375 365.618 12.3921L365.067 9.4432ZM351.292 12.2098C349.989 12.4897 348.687 12.7744 347.389 13.0637L348.041 15.9919C349.332 15.7043 350.626 15.4213 351.922 15.1429L351.292 12.2098ZM337.617 15.3371C336.314 15.6533 335.013 15.9741 333.715 16.2995L334.445 19.2094C335.735 18.886 337.029 18.567 338.325 18.2526L337.617 15.3371ZM324.028 18.8232C322.743 19.1709 321.46 19.5229 320.18 19.8791L320.985 22.7692C322.258 22.4149 323.533 22.0649 324.811 21.7192L324.028 18.8232ZM310.52 22.6653C309.237 23.0481 307.956 23.4352 306.679 23.8266L307.558 26.695C308.828 26.3057 310.102 25.9208 311.377 25.54L310.52 22.6653ZM297.151 26.8409C295.878 27.2562 294.609 27.6756 293.342 28.0992L294.293 30.9443C295.553 30.5231 296.816 30.1059 298.082 29.6929L297.151 26.8409ZM283.839 31.3722C282.579 31.8188 281.323 32.2694 280.069 32.7238L281.092 35.5442C282.338 35.0921 283.588 34.644 284.841 34.1998L283.839 31.3722ZM270.702 36.214C269.447 36.6947 268.194 37.1792 266.945 37.6676L268.037 40.4618C269.28 39.9759 270.526 39.494 271.775 39.0159L270.702 36.214ZM257.635 41.4013C256.402 41.9085 255.172 42.4193 253.945 42.9338L255.106 45.7003C256.326 45.1885 257.549 44.6803 258.776 44.1758L257.635 41.4013ZM244.731 46.8929C243.503 47.4333 242.279 47.9773 241.057 48.5248L242.285 51.2623C243.5 50.7176 244.718 50.1765 245.94 49.6388L244.731 46.8929ZM231.964 52.6957C230.761 53.2602 229.561 53.8282 228.365 54.3994L229.657 57.1066C230.847 56.5383 232.041 55.9733 233.238 55.4116L231.964 52.6957ZM219.316 58.8152C218.119 59.4122 216.925 60.0127 215.735 60.6161L217.092 63.2916C218.276 62.6913 219.464 62.0939 220.655 61.4998L219.316 58.8152ZM206.877 65.2035C205.685 65.8335 204.497 66.4666 203.313 67.1027L204.733 69.7453C205.911 69.1125 207.093 68.4826 208.279 67.8557L206.877 65.2035ZM194.511 71.9288C193.347 72.5794 192.188 73.233 191.033 73.8892L192.515 76.4976C193.664 75.8446 194.818 75.1945 195.975 74.547L194.511 71.9288ZM182.355 78.9166C181.199 79.5998 180.047 80.2856 178.899 80.9741L180.442 83.5468C181.584 82.8618 182.73 82.1794 183.881 81.4997L182.355 78.9166ZM170.374 86.1848C169.243 86.8894 168.116 87.5964 166.994 88.3057L168.597 90.8416C169.713 90.1358 170.834 89.4323 171.96 88.7313L170.374 86.1848ZM158.524 93.7611C157.406 94.4942 156.294 95.2295 155.186 95.967L156.849 98.464C157.951 97.7304 159.058 96.9988 160.169 96.2694L158.524 93.7611ZM146.912 101.578C145.803 102.344 144.698 103.113 143.599 103.883L145.32 106.34C146.414 105.573 147.513 104.809 148.617 104.046L146.912 101.578ZM135.452 109.696C134.38 110.475 133.312 111.256 132.25 112.039L134.03 114.454C135.087 113.675 136.149 112.898 137.216 112.123L135.452 109.696ZM124.181 118.096C123.117 118.909 122.06 119.723 121.009 120.539L122.847 122.909C123.893 122.098 124.945 121.288 126.003 120.48L124.181 118.096ZM113.17 126.729C112.117 127.577 111.069 128.426 110.028 129.276L111.925 131.6C112.961 130.755 114.002 129.91 115.051 129.067L113.17 126.729ZM102.338 135.67C101.326 136.527 100.321 137.385 99.3221 138.243L101.278 140.518C102.271 139.664 103.271 138.811 104.277 137.959L102.338 135.67ZM91.7202 144.904C90.7243 145.794 89.7353 146.684 88.7535 147.574L90.769 149.796C91.7451 148.911 92.7284 148.026 93.7187 147.142L91.7202 144.904ZM81.3935 154.382C80.4113 155.309 79.437 156.235 78.4704 157.162L80.5467 159.328C81.5073 158.406 82.4758 157.485 83.4521 156.564L81.3935 154.382ZM71.3704 164.109C70.4042 165.075 69.4467 166.039 68.498 167.003L70.6364 169.107C71.5791 168.15 72.5304 167.191 73.4905 166.232L71.3704 164.109ZM61.5397 174.231C60.6341 175.193 59.7376 176.154 58.85 177.113L61.0525 179.15C61.934 178.197 62.8245 177.243 63.7239 176.288L61.5397 174.231ZM52.0578 184.635C51.1766 185.635 50.3054 186.634 49.4444 187.631L51.7147 189.592C52.5692 188.602 53.4339 187.611 54.3087 186.619L52.0578 184.635ZM42.9563 195.341C42.1039 196.382 41.2629 197.421 40.4336 198.457L42.7754 200.332C43.5978 199.305 44.4319 198.275 45.2773 197.242L42.9563 195.341ZM34.2771 206.379C33.4601 207.463 32.6565 208.544 31.8663 209.621L34.285 211.395C35.0676 210.329 35.8637 209.258 36.6731 208.184L34.2771 206.379ZM26.0803 217.788C25.3088 218.918 24.5531 220.042 23.8132 221.162L26.3159 222.816C27.0474 221.71 27.7947 220.597 28.5578 219.48L26.0803 217.788ZM18.4588 229.623C17.7484 230.799 17.0567 231.969 16.3839 233.13L18.98 234.634C19.6433 233.488 20.3257 232.335 21.0268 231.174L18.4588 229.623ZM11.5667 241.949C10.9412 243.169 10.3386 244.38 9.75912 245.581L12.4609 246.885C13.0298 245.707 13.6218 244.517 14.2367 243.317L11.5667 241.949ZM5.67287 254.825C5.17063 256.082 4.69689 257.326 4.25195 258.555L7.073 259.576C7.50627 258.379 7.96831 257.166 8.45891 255.938L5.67287 254.825ZM1.26752 268.263C1.10901 268.9 0.959639 269.533 0.819445 270.16L3.74738 270.814C3.88212 270.211 4.02594 269.602 4.17875 268.987L1.26752 268.263Z" fill="#6366F1"/>
</svg>
