<svg width="1760" height="710" viewBox="0 0 1760 710" fill="none" xmlns="http://www.w3.org/2000/svg">
<g clip-path="url(#clip0_2342_12617)">
<g clip-path="url(#clip1_2342_12617)">
<g clip-path="url(#clip2_2342_12617)">
<path d="M973.587 667.191L975.375 669.484C975.779 670.001 975.554 670.742 974.875 671.137C974.195 671.533 973.317 671.435 972.915 670.918L972.914 670.916L971.131 668.62C970.73 668.104 970.954 667.366 971.632 666.97C972.311 666.576 973.186 666.675 973.587 667.191Z" fill="#6366F1"/>
<path d="M980.513 675.187L982.354 677.447C982.771 677.96 982.58 678.704 981.928 679.111C981.276 679.518 980.408 679.433 979.991 678.921L979.99 678.921L978.153 676.658C977.737 676.147 977.929 675.403 978.58 674.997C979.233 674.59 980.097 674.675 980.513 675.187Z" fill="#6366F1"/>
<path d="M986.441 683.183L988.331 685.409C988.762 685.917 988.603 686.667 987.977 687.086C987.35 687.504 986.493 687.433 986.063 686.926L986.062 686.925L984.175 684.695C983.746 684.189 983.906 683.44 984.532 683.022C985.158 682.605 986.012 682.676 986.441 683.183Z" fill="#6366F1"/>
<path d="M993.373 690.177L995.308 692.371C995.751 692.873 995.623 693.629 995.022 694.06C994.421 694.49 993.575 694.432 993.132 693.93L993.13 693.93L991.198 691.733C990.756 691.232 990.886 690.476 991.486 690.048C992.088 689.618 992.932 689.675 993.373 690.177Z" fill="#6366F1"/>
<path d="M1000.31 698.172L1002.28 700.333C1002.74 700.83 1002.64 701.591 1002.06 702.034C1001.49 702.477 1000.65 702.432 1000.2 701.936L1000.2 701.936L998.222 699.772C997.768 699.276 997.867 698.515 998.444 698.073C999.02 697.632 999.853 697.676 1000.31 698.172Z" fill="#6366F1"/>
<path d="M1007.85 704.999L1010.19 707.033C1010.73 707.504 1010.6 708.29 1009.89 708.789C1009.18 709.288 1008.16 709.311 1007.62 708.841L1007.62 708.841L1005.28 706.803C1004.74 706.332 1004.87 705.548 1005.58 705.05C1006.29 704.552 1007.3 704.528 1007.85 704.999Z" fill="#6366F1"/>
<path d="M1599.81 710.425L1601.53 707.86C1602.04 707.097 1603.15 706.767 1604.01 707.123C1604.86 707.48 1605.14 708.386 1604.63 709.149L1604.63 709.15L1602.9 711.714C1602.39 712.475 1601.28 712.803 1600.43 712.446C1599.57 712.091 1599.3 711.186 1599.81 710.425Z" fill="#6366F1"/>
<path d="M1605.65 700.116L1607.12 697.113C1607.57 696.217 1608.68 695.799 1609.62 696.18C1610.56 696.562 1610.96 697.597 1610.52 698.493L1610.52 698.495L1609.04 701.497C1608.6 702.392 1607.48 702.808 1606.54 702.426C1605.61 702.044 1605.21 701.011 1605.65 700.116Z" fill="#6366F1"/>
<path d="M1610.62 691.283L1611.96 688.244C1612.36 687.333 1613.48 686.838 1614.47 687.137C1615.46 687.437 1615.94 688.417 1615.54 689.327L1615.54 689.33L1614.21 692.367C1613.81 693.276 1612.68 693.769 1611.69 693.47C1610.7 693.17 1610.22 692.192 1610.62 691.283Z" fill="#6366F1"/>
<path d="M1614.6 681.436L1615.78 678.376C1616.14 677.456 1617.27 676.889 1618.32 677.109C1619.36 677.329 1619.92 678.254 1619.56 679.174L1619.56 679.177L1618.38 682.235C1618.02 683.153 1616.89 683.718 1615.85 683.498C1614.8 683.276 1614.25 682.354 1614.6 681.436Z" fill="#6366F1"/>
<path d="M1618.58 671.578L1619.61 668.511C1619.92 667.585 1621.06 666.951 1622.16 667.095C1623.25 667.238 1623.89 668.105 1623.58 669.032L1623.58 669.034L1622.55 672.101C1622.24 673.026 1621.1 673.658 1620.01 673.513C1618.91 673.368 1618.27 672.503 1618.58 671.578Z" fill="#6366F1"/>
<path d="M1620.53 661.719L1621.13 658.73C1621.31 657.825 1622.25 657.186 1623.22 657.305C1624.2 657.424 1624.85 658.254 1624.67 659.16L1624.67 659.162L1624.07 662.151C1623.89 663.055 1622.95 663.692 1621.98 663.572C1621 663.451 1620.35 662.623 1620.53 661.719Z" fill="#6366F1"/>
<path d="M1622.53 651.84L1622.97 648.858C1623.11 647.951 1624.05 647.256 1625.07 647.306C1626.09 647.356 1626.81 648.132 1626.67 649.038L1626.67 649.041L1626.22 652.023C1626.09 652.929 1625.15 653.621 1624.13 653.57C1623.11 653.52 1622.39 652.746 1622.53 651.84Z" fill="#6366F1"/>
<path d="M1624.53 641.953L1624.82 638.988C1624.9 638.082 1625.84 637.335 1626.91 637.317C1627.97 637.3 1628.77 638.02 1628.68 638.926L1628.68 638.928L1628.38 641.893C1628.29 642.797 1627.36 643.543 1626.29 643.559C1625.23 643.575 1624.44 642.858 1624.53 641.953Z" fill="#6366F1"/>
<path d="M1624.52 632.058L1624.65 629.121C1624.69 628.22 1625.62 627.421 1626.73 627.339C1627.85 627.255 1628.72 627.918 1628.68 628.819L1628.68 628.821L1628.55 631.759C1628.51 632.66 1627.58 633.456 1626.46 633.538C1625.35 633.62 1624.49 632.958 1624.52 632.058Z" fill="#6366F1"/>
<path d="M1624.53 622.162L1624.48 619.257C1624.46 618.363 1625.39 617.518 1626.55 617.369C1627.71 617.22 1628.66 617.823 1628.67 618.717L1628.68 618.719L1628.72 621.624C1628.74 622.517 1627.81 623.36 1626.65 623.508C1625.49 623.656 1624.54 623.054 1624.53 622.162Z" fill="#6366F1"/>
<path d="M1624.53 612.259L1624.19 609.426C1624.08 608.552 1624.78 607.723 1625.76 607.574C1626.73 607.426 1627.6 608.014 1627.71 608.888L1627.71 608.889L1628.05 611.724C1628.15 612.597 1627.45 613.423 1626.48 613.572C1625.51 613.717 1624.64 613.131 1624.53 612.259Z" fill="#6366F1"/>
<path d="M1622.55 602.35L1622.04 599.558C1621.88 598.694 1622.57 597.824 1623.58 597.613C1624.59 597.403 1625.54 597.932 1625.69 598.796L1625.69 598.798L1626.2 601.591C1626.35 602.455 1625.66 603.324 1624.65 603.533C1623.65 603.742 1622.7 603.214 1622.55 602.35Z" fill="#6366F1"/>
<path d="M1620.56 592.438L1619.88 589.697C1619.67 588.846 1620.34 587.934 1621.39 587.662C1622.44 587.388 1623.46 587.858 1623.68 588.709L1623.68 588.711L1624.36 591.453C1624.57 592.304 1623.89 593.214 1622.84 593.485C1621.8 593.757 1620.78 593.289 1620.56 592.438Z" fill="#6366F1"/>
<path d="M1618.71 582.489L1617.83 579.808C1617.56 578.972 1618.17 578.036 1619.19 577.718C1620.22 577.4 1621.27 577.82 1621.54 578.657L1621.54 578.658L1622.41 581.341C1622.68 582.177 1622.07 583.111 1621.05 583.427C1620.02 583.744 1618.98 583.325 1618.71 582.489Z" fill="#6366F1"/>
<path d="M1614.9 573.509L1613.87 570.907L1613.86 570.897C1613.54 570.078 1614.05 569.128 1615.01 568.776C1615.96 568.424 1617.01 568.802 1617.33 569.622L1617.33 569.624L1618.38 572.252C1618.7 573.071 1618.19 574.019 1617.23 574.37C1616.27 574.721 1615.24 574.341 1614.91 573.522L1614.9 573.509Z" fill="#6366F1"/>
<path d="M1611.2 564.521L1609.9 561.986C1609.5 561.19 1610.08 560.178 1611.22 559.728C1612.35 559.278 1613.6 559.558 1614.01 560.355L1614.01 560.357L1615.3 562.893C1615.71 563.689 1615.12 564.7 1613.98 565.149C1612.85 565.597 1611.61 565.318 1611.2 564.521Z" fill="#6366F1"/>
<path d="M1606.4 555.543L1604.95 553.072C1604.49 552.292 1604.98 551.27 1606.05 550.791C1607.11 550.31 1608.35 550.554 1608.81 551.334L1608.81 551.336L1610.26 553.809C1610.71 554.589 1610.22 555.608 1609.16 556.086C1608.09 556.565 1606.86 556.323 1606.4 555.543Z" fill="#6366F1"/>
<path d="M1601.58 546.565L1599.99 544.156C1599.49 543.393 1599.89 542.361 1600.9 541.852C1601.9 541.342 1603.12 541.548 1603.62 542.311L1603.62 542.313L1605.21 544.724C1605.71 545.486 1605.31 546.517 1604.31 547.025C1603.31 547.533 1602.09 547.327 1601.58 546.565Z" fill="#6366F1"/>
<path d="M1595.75 538.589L1594.04 536.24C1593.5 535.493 1593.82 534.451 1594.76 533.912C1595.7 533.373 1596.91 533.541 1597.45 534.288L1597.45 534.29L1599.16 536.64C1599.7 537.387 1599.38 538.427 1598.44 538.965C1597.5 539.502 1596.29 539.335 1595.75 538.589Z" fill="#6366F1"/>
<path d="M1589.91 530.611L1588.09 528.322C1587.51 527.592 1587.76 526.54 1588.64 525.972C1589.53 525.403 1590.72 525.535 1591.3 526.265L1591.3 526.266L1593.11 528.557C1593.69 529.288 1593.44 530.339 1592.56 530.906C1591.67 531.472 1590.49 531.341 1589.91 530.611Z" fill="#6366F1"/>
<path d="M1583.05 522.635L1581.14 520.404C1580.53 519.69 1580.71 518.627 1581.54 518.03C1582.37 517.433 1583.54 517.528 1584.15 518.241L1584.15 518.243L1586.06 520.475C1586.67 521.189 1586.49 522.25 1585.66 522.847C1584.83 523.442 1583.67 523.348 1583.05 522.635Z" fill="#6366F1"/>
<path d="M1576.48 514.577L1574.23 512.476C1573.51 511.802 1573.7 510.707 1574.65 510.032C1575.61 509.357 1576.97 509.355 1577.69 510.029L1577.69 510.031L1579.94 512.134C1580.66 512.809 1580.47 513.902 1579.51 514.576C1578.56 515.25 1577.2 515.252 1576.48 514.577Z" fill="#6366F1"/>
<path d="M1569.62 507.593L1567.29 505.557C1566.54 504.9 1566.66 503.797 1567.55 503.095C1568.45 502.393 1569.79 502.356 1570.55 503.014L1570.55 503.015L1572.88 505.054C1573.63 505.712 1573.51 506.813 1572.61 507.514C1571.71 508.214 1570.38 508.251 1569.62 507.593Z" fill="#6366F1"/>
<path d="M1561.76 500.609L1559.35 498.635C1558.57 497.996 1558.62 496.887 1559.47 496.158C1560.31 495.43 1561.63 495.357 1562.41 495.997L1562.41 495.998L1564.82 497.976C1565.59 498.615 1565.54 499.723 1564.7 500.45C1563.86 501.176 1562.54 501.249 1561.76 500.609Z" fill="#6366F1"/>
<path d="M1553.9 494.626L1551.41 492.713C1550.61 492.092 1550.6 490.977 1551.39 490.222C1552.18 489.467 1553.47 489.359 1554.27 489.979L1554.28 489.981L1556.75 491.898C1557.56 492.519 1557.57 493.633 1556.78 494.387C1555.99 495.138 1554.7 495.247 1553.9 494.626Z" fill="#6366F1"/>
<path d="M1545.02 487.643L1542.48 485.792C1541.65 485.189 1541.58 484.067 1542.31 483.286C1543.05 482.505 1544.32 482.361 1545.15 482.963L1545.15 482.965L1547.69 484.819C1548.52 485.423 1548.59 486.543 1547.85 487.323C1547.11 488.102 1545.84 488.247 1545.02 487.643Z" fill="#6366F1"/>
<path d="M1536.14 481.66L1533.54 479.871C1532.69 479.286 1532.56 478.159 1533.25 477.35C1533.94 476.543 1535.18 476.363 1536.03 476.947L1536.04 476.948L1538.63 478.74C1539.48 479.325 1539.6 480.452 1538.91 481.258C1538.22 482.064 1536.98 482.244 1536.14 481.66Z" fill="#6366F1"/>
<path d="M1527.25 476.676L1524.6 474.951C1523.74 474.385 1523.55 473.25 1524.19 472.416C1524.83 471.582 1526.06 471.365 1526.92 471.93L1526.92 471.932L1529.56 473.661C1530.43 474.227 1530.61 475.361 1529.97 476.194C1529.33 477.024 1528.11 477.242 1527.25 476.676Z" fill="#6366F1"/>
<path d="M1517.77 470.575L1514.75 469.01C1513.75 468.495 1513.53 467.351 1514.25 466.454C1514.97 465.557 1516.36 465.248 1517.36 465.762L1517.36 465.764L1520.39 467.331C1521.38 467.847 1521.6 468.991 1520.88 469.885C1520.16 470.781 1518.77 471.091 1517.77 470.575Z" fill="#6366F1"/>
<path d="M1508.89 465.586L1505.82 464.09C1504.81 463.596 1504.52 462.448 1505.19 461.527C1505.86 460.604 1507.22 460.257 1508.24 460.751L1508.24 460.752L1511.31 462.252C1512.32 462.746 1512.6 463.893 1511.94 464.814C1511.27 465.734 1509.91 466.081 1508.89 465.586Z" fill="#6366F1"/>
<path d="M1499.02 461.601L1495.91 460.185C1494.87 459.716 1494.53 458.563 1495.14 457.611C1495.74 456.659 1497.08 456.268 1498.11 456.737L1498.11 456.737L1501.23 458.157C1502.26 458.627 1502.6 459.778 1501.99 460.729C1501.38 461.68 1500.05 462.07 1499.02 461.601Z" fill="#6366F1"/>
<path d="M1488.17 457.615L1485.01 456.297C1483.96 455.858 1483.54 454.702 1484.08 453.715C1484.62 452.728 1485.91 452.284 1486.96 452.722L1486.96 452.723L1490.12 454.045C1491.17 454.485 1491.59 455.639 1491.05 456.625C1490.51 457.61 1489.22 458.054 1488.17 457.615Z" fill="#6366F1"/>
<path d="M1478.36 453.698L1475.24 452.823C1474.2 452.531 1473.76 451.572 1474.26 450.683C1474.75 449.793 1476 449.309 1477.04 449.6L1477.04 449.6L1480.16 450.479C1481.2 450.772 1481.64 451.73 1481.14 452.619C1480.65 453.508 1479.4 453.992 1478.36 453.698Z" fill="#6366F1"/>
<path d="M1467.55 450.706L1464.38 449.955C1463.32 449.704 1462.79 448.748 1463.2 447.82C1463.6 446.891 1464.79 446.343 1465.85 446.594L1465.85 446.594L1469.02 447.349C1470.07 447.601 1470.6 448.556 1470.2 449.483C1469.79 450.411 1468.61 450.959 1467.55 450.706Z" fill="#6366F1"/>
<path d="M1456.75 447.713L1453.55 447.115C1452.48 446.914 1451.85 445.961 1452.15 444.987C1452.46 444.012 1453.57 443.385 1454.65 443.587L1454.65 443.587L1457.85 444.189C1458.92 444.391 1459.55 445.343 1459.24 446.316C1458.94 447.29 1457.83 447.915 1456.75 447.713Z" fill="#6366F1"/>
<path d="M1445.54 446.557L1441.91 446.26C1440.69 446.16 1439.9 445.231 1440.15 444.186C1440.4 443.139 1441.6 442.373 1442.82 442.474L1442.82 442.474L1446.45 442.775C1447.68 442.877 1448.46 443.806 1448.21 444.85C1447.96 445.893 1446.77 446.659 1445.54 446.557Z" fill="#6366F1"/>
<path d="M1433.81 445.547L1430.17 445.486C1428.94 445.466 1428.03 444.553 1428.13 443.448C1428.24 442.343 1429.32 441.463 1430.56 441.484L1430.56 441.484L1434.2 441.549C1435.43 441.571 1436.34 442.484 1436.23 443.588C1436.12 444.693 1435.04 445.57 1433.81 445.547Z" fill="#6366F1"/>
<path d="M1423.08 445.538L1419.51 445.913C1418.3 446.04 1417.32 445.369 1417.33 444.415C1417.34 443.461 1418.34 442.584 1419.55 442.457L1419.55 442.456L1423.12 442.085C1424.34 441.959 1425.31 442.63 1425.3 443.584C1425.28 444.538 1424.29 445.413 1423.08 445.538Z" fill="#6366F1"/>
<path d="M1411.34 447.497L1407.82 448.148C1406.61 448.37 1405.52 447.733 1405.38 446.725C1405.23 445.717 1406.09 444.72 1407.29 444.498L1407.29 444.497L1410.82 443.85C1412.02 443.629 1413.11 444.267 1413.25 445.275C1413.4 446.282 1412.54 447.276 1411.34 447.497Z" fill="#6366F1"/>
<path d="M1399.59 449.406L1396.15 450.398C1394.98 450.737 1393.78 450.16 1393.47 449.107C1393.16 448.054 1393.87 446.926 1395.04 446.586L1395.04 446.585L1398.48 445.596C1399.65 445.258 1400.85 445.837 1401.16 446.889C1401.46 447.942 1400.76 449.068 1399.59 449.406Z" fill="#6366F1"/>
<path d="M1388.75 452.962L1385.43 454.303C1384.3 454.762 1383.03 454.402 1382.6 453.498C1382.17 452.594 1382.75 451.49 1383.88 451.03L1383.89 451.029L1387.2 449.692C1388.34 449.233 1389.6 449.595 1390.03 450.498C1390.45 451.402 1389.88 452.504 1388.75 452.962Z" fill="#6366F1"/>
<path d="M1378.86 458.342L1375.75 460.149C1374.68 460.771 1373.31 460.5 1372.68 459.545C1372.06 458.589 1372.43 457.31 1373.5 456.687L1373.5 456.685L1376.61 454.881C1377.69 454.261 1379.06 454.533 1379.68 455.489C1380.3 456.446 1379.93 457.722 1378.86 458.342Z" fill="#6366F1"/>
<path d="M1369.02 463.84L1366.12 465.952C1365.11 466.68 1363.68 466.653 1362.91 465.891C1362.14 465.128 1362.33 463.918 1363.34 463.189L1363.34 463.188L1366.25 461.079C1367.25 460.351 1368.69 460.38 1369.45 461.143C1370.22 461.906 1370.03 463.113 1369.02 463.84Z" fill="#6366F1"/>
<path d="M1360.35 471.6L1358.08 473.834C1357.3 474.607 1355.98 474.756 1355.14 474.166C1354.3 473.576 1354.26 472.47 1355.04 471.697L1355.05 471.696L1357.32 469.465C1358.11 468.693 1359.42 468.546 1360.26 469.137C1361.1 469.726 1361.14 470.828 1360.35 471.6Z" fill="#6366F1"/>
<path d="M1352.35 478.78L1350.44 481.501C1349.77 482.446 1348.41 482.777 1347.4 482.24C1346.39 481.703 1346.11 480.501 1346.77 479.555L1346.78 479.552L1348.7 476.834C1349.36 475.89 1350.72 475.561 1351.73 476.099C1352.74 476.637 1353.02 477.836 1352.35 478.78Z" fill="#6366F1"/>
<path d="M1347.44 488.387L1345.82 491.216C1345.25 492.203 1343.87 492.72 1342.73 492.369C1341.59 492.019 1341.12 490.936 1341.69 489.95L1341.69 489.947L1343.32 487.118C1343.88 486.133 1345.26 485.618 1346.4 485.97C1347.54 486.32 1348.01 487.402 1347.44 488.387Z" fill="#6366F1"/>
<path d="M1342.6 498.307L1341.57 501.105C1341.21 502.084 1340.03 502.697 1338.92 502.474C1337.81 502.251 1337.21 501.277 1337.57 500.299L1337.57 500.296L1338.6 497.498C1338.96 496.521 1340.14 495.909 1341.25 496.133C1342.35 496.357 1342.96 497.329 1342.6 498.307Z" fill="#6366F1"/>
<path d="M1339.48 507.453L1338.87 510.664C1338.65 511.79 1337.48 512.598 1336.25 512.467C1335.03 512.337 1334.2 511.316 1334.42 510.189L1334.42 510.187L1335.03 506.976C1335.25 505.85 1336.42 505.045 1337.65 505.177C1338.87 505.31 1339.69 506.328 1339.48 507.453Z" fill="#6366F1"/>
<path d="M1338.49 517.16L1338.22 520.351C1338.12 521.474 1336.97 522.414 1335.64 522.451C1334.31 522.487 1333.31 521.605 1333.41 520.481L1333.41 520.479L1333.68 517.288C1333.78 516.166 1334.93 515.228 1336.26 515.193C1337.59 515.158 1338.58 516.038 1338.49 517.16Z" fill="#6366F1"/>
<path d="M1337.52 527.158L1337.76 530.256C1337.85 531.348 1336.94 532.346 1335.74 532.482C1334.54 532.62 1333.49 531.845 1333.41 530.753L1333.41 530.75L1333.17 527.653C1333.09 526.561 1334 525.565 1335.2 525.43C1336.4 525.294 1337.44 526.066 1337.52 527.158Z" fill="#6366F1"/>
<path d="M1338.49 536.917L1339.11 539.923C1339.33 540.99 1338.46 542.094 1337.17 542.389C1335.89 542.685 1334.66 542.059 1334.44 540.994L1334.44 540.991L1333.83 537.985C1333.61 536.919 1334.48 535.817 1335.76 535.523C1337.05 535.228 1338.27 535.851 1338.49 536.917Z" fill="#6366F1"/>
<path d="M1341.25 545.767L1342.26 548.662C1342.61 549.691 1341.88 550.857 1340.61 551.268C1339.35 551.678 1338.03 551.176 1337.68 550.146L1337.67 550.143L1336.68 547.247C1336.32 546.218 1337.06 545.054 1338.32 544.645C1339.58 544.237 1340.9 544.738 1341.25 545.767Z" fill="#6366F1"/>
<path d="M1344.86 555.682L1346.18 558.467C1346.65 559.46 1346.11 560.659 1344.97 561.146C1343.84 561.633 1342.54 561.223 1342.07 560.23L1342.07 560.227L1340.75 557.442C1340.29 556.449 1340.83 555.251 1341.96 554.766C1343.1 554.281 1344.39 554.69 1344.86 555.682Z" fill="#6366F1"/>
<path d="M1348.53 564.605L1350.09 567.283C1350.65 568.241 1350.27 569.471 1349.25 570.03C1348.23 570.589 1346.96 570.266 1346.4 569.309L1346.4 569.306L1344.84 566.626C1344.29 565.669 1344.66 564.44 1345.68 563.881C1346.7 563.324 1347.97 563.647 1348.53 564.605Z" fill="#6366F1"/>
<path d="M1355 572.322L1356.94 574.843C1357.63 575.749 1357.29 577.039 1356.17 577.723C1355.06 578.407 1353.59 578.228 1352.89 577.322L1352.89 577.32L1350.96 574.796C1350.26 573.891 1350.61 572.603 1351.72 571.92C1352.84 571.237 1354.31 571.417 1355 572.322Z" fill="#6366F1"/>
<path d="M1361.71 580.266L1363.83 582.682C1364.59 583.55 1364.39 584.858 1363.39 585.602C1362.38 586.346 1360.95 586.246 1360.18 585.377L1360.18 585.376L1358.06 582.958C1357.3 582.089 1357.5 580.783 1358.51 580.041C1359.52 579.298 1360.95 579.398 1361.71 580.266Z" fill="#6366F1"/>
<path d="M1368.45 587.215L1370.72 589.523C1371.54 590.356 1371.47 591.681 1370.56 592.484C1369.65 593.286 1368.26 593.262 1367.44 592.429L1367.44 592.427L1365.17 590.116C1364.36 589.283 1364.43 587.958 1365.34 587.159C1366.24 586.358 1367.64 586.382 1368.45 587.215Z" fill="#6366F1"/>
<path d="M1376.87 593.999L1379.51 596.105L1379.53 596.12C1380.49 596.888 1380.48 598.242 1379.5 599.144C1378.53 600.046 1376.96 600.155 1376 599.388L1376 599.386L1373.33 597.249C1372.37 596.482 1372.38 595.129 1373.36 594.229C1374.33 593.329 1375.9 593.222 1376.86 593.989L1376.87 593.999Z" fill="#6366F1"/>
<path d="M1384.86 600.787L1387.53 602.427C1388.5 603.023 1388.56 604.206 1387.66 605.069C1386.76 605.932 1385.24 606.148 1384.27 605.552L1384.27 605.551L1381.6 603.908C1380.63 603.312 1380.57 602.13 1381.47 601.268C1382.37 600.406 1383.89 600.19 1384.86 600.787Z" fill="#6366F1"/>
<path d="M1393.63 606.763L1396.41 608.296C1397.42 608.855 1397.59 610.043 1396.78 610.949C1395.98 611.855 1394.5 612.136 1393.49 611.576L1393.49 611.575L1390.72 610.039C1389.71 609.479 1389.54 608.292 1390.35 607.387C1391.15 606.484 1392.62 606.202 1393.63 606.763Z" fill="#6366F1"/>
<path d="M1402.42 611.74L1405.28 613.163C1406.33 613.684 1406.6 614.875 1405.89 615.825C1405.17 616.774 1403.75 617.122 1402.7 616.6L1402.7 616.599L1399.84 615.172C1398.8 614.649 1398.53 613.459 1399.24 612.511C1399.95 611.564 1401.38 611.218 1402.42 611.74Z" fill="#6366F1"/>
<path d="M1412.22 616.717L1415.15 618.029C1416.23 618.51 1416.59 619.705 1415.97 620.697C1415.35 621.69 1413.98 622.104 1412.9 621.622L1412.9 621.62L1409.97 620.305C1408.9 619.823 1408.53 618.628 1409.16 617.638C1409.78 616.648 1411.15 616.235 1412.22 616.717Z" fill="#6366F1"/>
<path d="M1422.03 620.697L1425.02 621.893C1426.12 622.332 1426.58 623.529 1426.04 624.565C1425.51 625.601 1424.19 626.083 1423.09 625.643L1423.09 625.642L1420.11 624.443C1419.01 624.001 1418.55 622.806 1419.08 621.772C1419.62 620.738 1420.94 620.256 1422.03 620.697Z" fill="#6366F1"/>
<path d="M1433.34 623.544L1436.73 624.517C1437.98 624.876 1438.55 626.065 1438.01 627.173C1437.46 628.281 1436 628.887 1434.75 628.528L1434.75 628.527L1431.36 627.549C1430.11 627.189 1429.54 626.001 1430.09 624.895C1430.63 623.788 1432.09 623.183 1433.34 623.544Z" fill="#6366F1"/>
<path d="M1444.14 626.532L1447.57 627.376C1448.84 627.688 1449.51 628.874 1449.06 630.023C1448.61 631.173 1447.22 631.851 1445.95 631.539L1445.94 631.539L1442.51 630.691C1441.24 630.377 1440.58 629.193 1441.03 628.044C1441.48 626.896 1442.87 626.218 1444.14 626.532Z" fill="#6366F1"/>
<path d="M1454.96 628.522L1458.42 629.23C1459.7 629.492 1460.46 630.672 1460.1 631.864C1459.75 633.057 1458.42 633.811 1457.13 633.549L1457.13 633.548L1453.67 632.837C1452.39 632.573 1451.63 631.394 1451.99 630.202C1452.35 629.012 1453.67 628.259 1454.96 628.522Z" fill="#6366F1"/>
<path d="M1466.04 631.441L1469.45 631.767C1470.72 631.887 1471.5 632.842 1471.18 633.899C1470.87 634.956 1469.59 635.714 1468.32 635.593L1468.32 635.593L1464.91 635.265C1463.64 635.142 1462.86 634.188 1463.18 633.133C1463.49 632.075 1464.77 631.318 1466.04 631.441Z" fill="#6366F1"/>
<path d="M1476.87 632.444L1480.29 632.639C1481.57 632.712 1482.43 633.655 1482.21 634.746C1481.99 635.837 1480.77 636.661 1479.49 636.59L1479.49 636.589L1476.07 636.392C1474.79 636.318 1473.93 635.375 1474.15 634.285C1474.38 633.194 1475.59 632.371 1476.87 632.444Z" fill="#6366F1"/>
<path d="M1488.7 632.45L1492.13 632.504C1493.41 632.524 1494.34 633.453 1494.21 634.58C1494.09 635.707 1492.94 636.603 1491.66 636.583L1491.65 636.583L1488.23 636.525C1486.95 636.503 1486.01 635.574 1486.15 634.449C1486.28 633.323 1487.42 632.429 1488.7 632.45Z" fill="#6366F1"/>
<path d="M1499.54 632.46L1502.95 632.362C1504.24 632.325 1505.25 633.238 1505.21 634.401C1505.18 635.564 1504.1 636.536 1502.82 636.574L1502.82 636.574L1499.4 636.668C1498.12 636.703 1497.11 635.79 1497.15 634.629C1497.19 633.466 1498.26 632.495 1499.54 632.46Z" fill="#6366F1"/>
<path d="M1511.38 631.474L1514.77 631.211C1516.05 631.112 1517.14 632.005 1517.19 633.206C1517.25 634.407 1516.26 635.461 1514.98 635.56L1514.98 635.56L1511.58 635.818C1510.3 635.915 1509.22 635.022 1509.17 633.821C1509.11 632.622 1510.1 631.571 1511.38 631.474Z" fill="#6366F1"/>
<path d="M1523.22 630.492L1526.58 630.05C1527.85 629.883 1529.01 630.753 1529.16 631.992C1529.32 633.232 1528.41 634.374 1527.14 634.541L1527.13 634.541L1523.77 634.98C1522.5 635.147 1521.35 634.276 1521.2 633.037C1521.05 631.796 1521.95 630.659 1523.22 630.492Z" fill="#6366F1"/>
<path d="M1534.34 629.48L1537.63 628.787C1538.89 628.524 1540.05 629.145 1540.23 630.175C1540.41 631.204 1539.54 632.253 1538.29 632.516L1538.29 632.517L1534.99 633.208C1533.74 633.469 1532.58 632.848 1532.4 631.819C1532.22 630.788 1533.09 629.742 1534.34 629.48Z" fill="#6366F1"/>
<path d="M1546.18 626.516L1549.43 625.647C1550.67 625.316 1551.9 625.906 1552.18 626.964C1552.46 628.023 1551.68 629.149 1550.44 629.48L1550.44 629.481L1547.19 630.347C1545.95 630.676 1544.73 630.085 1544.45 629.027C1544.17 627.969 1544.95 626.846 1546.18 626.516Z" fill="#6366F1"/>
<path d="M1557.08 622.702L1560.27 621.656C1561.49 621.257 1562.77 621.749 1563.12 622.754C1563.47 623.76 1562.77 624.899 1561.55 625.297L1561.54 625.298L1558.35 626.341C1557.13 626.738 1555.86 626.245 1555.51 625.241C1555.16 624.236 1555.86 623.099 1557.08 622.702Z" fill="#6366F1"/>
<path d="M1567.75 618.017L1570.86 616.747C1572.05 616.261 1573.41 616.824 1573.89 618.003C1574.38 619.183 1573.81 620.534 1572.61 621.02L1572.61 621.021L1569.5 622.287C1568.31 622.771 1566.95 622.207 1566.47 621.028C1565.98 619.849 1566.56 618.502 1567.75 618.017Z" fill="#6366F1"/>
<path d="M1578.67 614.243L1581.71 612.808C1582.88 612.257 1584.27 612.703 1584.82 613.803C1585.36 614.904 1584.86 616.243 1583.69 616.794L1583.68 616.795L1580.64 618.226C1579.47 618.775 1578.09 618.329 1577.54 617.228C1577 616.128 1577.51 614.792 1578.67 614.243Z" fill="#6366F1"/>
<path d="M1589.6 609.451L1592.57 607.873C1593.72 607.266 1595.13 607.604 1595.74 608.629C1596.34 609.654 1595.9 610.978 1594.76 611.585L1594.76 611.587L1591.78 613.161C1590.64 613.767 1589.22 613.427 1588.62 612.402C1588.02 611.376 1588.46 610.056 1589.6 609.451Z" fill="#6366F1"/>
<path d="M1599.53 603.643L1602.43 601.943C1603.55 601.286 1605 601.525 1605.66 602.478C1606.32 603.43 1605.95 604.735 1604.83 605.392L1604.82 605.394L1601.92 607.092C1600.8 607.747 1599.36 607.506 1598.7 606.553C1598.04 605.601 1598.41 604.299 1599.53 603.643Z" fill="#6366F1"/>
<path d="M1609.47 598.822L1612.3 597.015C1613.39 596.314 1614.86 596.464 1615.58 597.347C1616.29 598.23 1615.99 599.514 1614.89 600.215L1614.89 600.216L1612.06 602.02C1610.96 602.719 1609.5 602.568 1608.78 601.685C1608.07 600.801 1608.38 599.52 1609.47 598.822Z" fill="#6366F1"/>
<path d="M1619.41 591.987L1622.16 590.088C1623.23 589.35 1624.72 589.415 1625.49 590.233C1626.27 591.05 1626.02 592.311 1624.95 593.049L1624.95 593.051L1622.19 594.947C1621.12 595.683 1619.63 595.617 1618.86 594.8C1618.1 593.981 1618.34 592.723 1619.41 591.987Z" fill="#6366F1"/>
<path d="M1628.15 584.444L1630.77 582.238C1631.79 581.378 1633.33 581.441 1634.2 582.378C1635.08 583.314 1634.96 584.771 1633.94 585.631L1633.94 585.633L1631.32 587.835C1630.3 588.693 1628.76 588.628 1627.89 587.69C1627.02 586.754 1627.13 585.301 1628.15 584.444Z" fill="#6366F1"/>
<path d="M1637.1 577.609L1639.64 575.32C1640.63 574.425 1642.19 574.403 1643.11 575.272C1644.03 576.14 1643.98 577.569 1642.99 578.464L1642.99 578.466L1640.45 580.753C1639.45 581.645 1637.9 581.665 1636.98 580.797C1636.06 579.928 1636.11 578.502 1637.1 577.609Z" fill="#6366F1"/>
<path d="M1646.06 570.765L1648.51 568.404C1649.48 567.478 1651.05 567.377 1652.02 568.179C1652.99 568.981 1653 570.382 1652.03 571.308L1652.03 571.31L1649.57 573.668C1648.61 574.592 1647.04 574.692 1646.07 573.89C1645.1 573.087 1645.09 571.689 1646.06 570.765Z" fill="#6366F1"/>
<path d="M1654.01 562.913L1656.39 560.488C1657.32 559.535 1658.91 559.359 1659.93 560.098C1660.95 560.835 1661.01 562.206 1660.08 563.159L1660.08 563.161L1657.7 565.584C1656.76 566.536 1655.18 566.709 1654.16 565.97C1653.15 565.232 1653.08 563.864 1654.01 562.913Z" fill="#6366F1"/>
<path d="M1661.97 555.055L1664.27 552.573C1665.17 551.595 1666.77 551.351 1667.83 552.026C1668.9 552.702 1669.03 554.042 1668.12 555.018L1668.12 555.02L1665.82 557.5C1664.92 558.476 1663.32 558.718 1662.26 558.042C1661.19 557.366 1661.06 556.029 1661.97 555.055Z" fill="#6366F1"/>
<path d="M1668.93 546.185L1671.14 543.659C1672.01 542.661 1673.62 542.349 1674.74 542.965C1675.85 543.581 1676.04 544.889 1675.17 545.887L1675.16 545.89L1672.95 548.414C1672.07 549.41 1670.46 549.72 1669.35 549.104C1668.24 548.487 1668.05 547.182 1668.93 546.185Z" fill="#6366F1"/>
<path d="M1675.89 538.312L1678.01 535.747C1678.86 534.729 1680.48 534.356 1681.64 534.912C1682.79 535.468 1683.05 536.744 1682.2 537.761L1682.2 537.764L1680.07 540.327C1679.23 541.343 1677.61 541.714 1676.45 541.158C1675.3 540.601 1675.04 539.327 1675.89 538.312Z" fill="#6366F1"/>
<path d="M1682.85 529.436L1684.89 526.834C1685.7 525.801 1687.33 525.367 1688.53 525.865C1689.74 526.362 1690.05 527.604 1689.24 528.637L1689.24 528.639L1687.2 531.239C1686.39 532.271 1684.76 532.702 1683.56 532.204C1682.35 531.705 1682.04 530.466 1682.85 529.436Z" fill="#6366F1"/>
<path d="M1688.66 520.01L1690.52 517.062C1691.26 515.885 1692.9 515.388 1694.18 515.95C1695.47 516.513 1695.91 517.923 1695.16 519.098L1695.16 519.101L1693.3 522.048C1692.56 523.223 1690.92 523.718 1689.64 523.155C1688.36 522.591 1687.92 521.185 1688.66 520.01Z" fill="#6366F1"/>
<path d="M1694.55 510.156L1696.01 507.263C1696.6 506.106 1698.04 505.606 1699.23 506.148C1700.41 506.689 1700.9 508.066 1700.31 509.223L1700.31 509.225L1698.84 512.116C1698.25 513.272 1696.82 513.769 1695.63 513.226C1694.45 512.685 1693.96 511.31 1694.55 510.156Z" fill="#6366F1"/>
<path d="M1699.53 501.265L1700.92 498.348C1701.47 497.178 1702.92 496.625 1704.13 497.111C1705.35 497.599 1705.89 498.943 1705.33 500.113L1705.33 500.115L1703.94 503.031C1703.38 504.2 1701.94 504.751 1700.72 504.263C1699.51 503.774 1698.97 502.434 1699.53 501.265Z" fill="#6366F1"/>
<path d="M1704.51 492.368L1705.82 489.432C1706.35 488.251 1707.79 487.646 1709.04 488.082C1710.29 488.518 1710.88 489.829 1710.35 491.01L1710.35 491.012L1709.03 493.947C1708.51 495.127 1707.06 495.729 1705.82 495.292C1704.57 494.855 1703.98 493.548 1704.51 492.368Z" fill="#6366F1"/>
<path d="M1709.49 482.464L1710.73 479.514C1711.23 478.323 1712.67 477.671 1713.95 478.058C1715.23 478.444 1715.87 479.723 1715.37 480.913L1715.37 480.917L1714.13 483.866C1713.63 485.055 1712.19 485.705 1710.91 485.317C1709.63 484.928 1708.99 483.654 1709.49 482.464Z" fill="#6366F1"/>
<path d="M1713.48 472.554L1714.64 469.593C1715.11 468.395 1716.55 467.699 1717.86 468.039C1719.17 468.379 1719.85 469.626 1719.38 470.824L1719.38 470.827L1718.22 473.787C1717.75 474.983 1716.3 475.677 1714.99 475.337C1713.69 474.995 1713.01 473.75 1713.48 472.554Z" fill="#6366F1"/>
<path d="M1717.46 462.637L1718.55 459.669C1718.99 458.464 1720.44 457.728 1721.77 458.024C1723.11 458.32 1723.84 459.536 1723.4 460.74L1723.4 460.744L1722.3 463.711C1721.86 464.914 1720.42 465.648 1719.08 465.351C1717.75 465.052 1717.02 463.84 1717.46 462.637Z" fill="#6366F1"/>
<path d="M1721.45 453.714L1722.47 450.742C1722.88 449.533 1724.32 448.758 1725.69 449.012C1727.05 449.267 1727.82 450.454 1727.41 451.663L1727.41 451.666L1726.39 454.637C1725.97 455.846 1724.53 456.617 1723.17 456.363C1721.8 456.106 1721.04 454.922 1721.45 453.714Z" fill="#6366F1"/>
<path d="M1724.44 443.786L1725.39 440.812C1725.77 439.599 1727.22 438.789 1728.61 439.004C1730 439.219 1730.81 440.378 1730.42 441.591L1730.42 441.593L1729.47 444.567C1729.08 445.78 1727.64 446.586 1726.25 446.37C1724.86 446.154 1724.05 444.999 1724.44 443.786Z" fill="#6366F1"/>
<path d="M1727.43 433.851L1728.31 430.88C1728.67 429.662 1730.11 428.82 1731.53 428.999C1732.94 429.178 1733.79 430.31 1733.43 431.526L1733.43 431.529L1732.55 434.5C1732.18 435.716 1730.74 436.555 1729.33 436.376C1727.92 436.196 1727.07 435.066 1727.43 433.851Z" fill="#6366F1"/>
<path d="M1730.42 423.913L1731.24 420.943C1731.58 419.723 1733.01 418.852 1734.45 418.997C1735.88 419.141 1736.78 420.246 1736.44 421.466L1736.44 421.468L1735.62 424.437C1735.28 425.655 1733.84 426.524 1732.41 426.378C1730.97 426.234 1730.08 425.131 1730.42 423.913Z" fill="#6366F1"/>
<path d="M1732.41 413.969L1733.17 411.001C1733.48 409.781 1734.92 408.883 1736.38 408.995C1737.83 409.108 1738.76 410.188 1738.45 411.408L1738.45 411.411L1737.68 414.378C1737.37 415.597 1735.94 416.494 1734.48 416.38C1733.03 416.266 1732.1 415.189 1732.41 413.969Z" fill="#6366F1"/>
<path d="M1734.41 403.02L1735.11 400.057C1735.4 398.837 1736.83 397.913 1738.3 397.996C1739.78 398.078 1740.74 399.135 1740.45 400.356L1740.45 400.359L1739.75 403.322C1739.46 404.542 1738.03 405.463 1736.55 405.379C1735.08 405.294 1734.12 404.24 1734.41 403.02Z" fill="#6366F1"/>
<path d="M1736.4 393.068L1737.05 390.111C1737.32 388.888 1738.74 387.943 1740.24 387.997C1741.73 388.052 1742.73 389.087 1742.46 390.309L1742.46 390.312L1741.81 393.268C1741.54 394.489 1740.11 395.434 1738.62 395.378C1737.13 395.321 1736.13 394.289 1736.4 393.068Z" fill="#6366F1"/>
<path d="M1738.4 383.111L1738.99 380.161C1739.24 378.939 1740.66 377.971 1742.18 378C1743.69 378.029 1744.71 379.043 1744.47 380.266L1744.46 380.269L1743.86 383.219C1743.62 384.441 1742.19 385.406 1740.68 385.375C1739.17 385.345 1738.15 384.333 1738.4 383.111Z" fill="#6366F1"/>
<path d="M1740.39 373.148L1740.94 370.207C1741.17 368.985 1742.59 367.998 1744.12 368.004C1745.64 368.01 1746.7 369.005 1746.47 370.228L1746.47 370.231L1745.92 373.172C1745.69 374.394 1744.27 375.378 1742.74 375.371C1741.21 375.364 1740.16 374.37 1740.39 373.148Z" fill="#6366F1"/>
<path d="M1741.39 363.179L1741.89 360.253C1742.1 359.031 1743.51 358.026 1745.06 358.008C1746.6 357.99 1747.68 358.966 1747.47 360.19L1747.47 360.196L1746.96 363.131C1746.75 364.352 1745.33 365.354 1743.79 365.368C1742.25 365.382 1741.18 364.404 1741.39 363.182L1741.39 363.179Z" fill="#6366F1"/>
<path d="M1742.38 353.215L1742.84 350.292C1743.04 349.069 1744.45 348.048 1746.01 348.012C1747.56 347.976 1748.67 348.939 1748.48 350.162L1748.48 350.165L1748.01 353.088C1747.82 354.31 1746.4 355.329 1744.85 355.363C1743.29 355.397 1742.19 354.438 1742.38 353.215Z" fill="#6366F1"/>
<path d="M1744.38 343.247L1744.8 340.332C1744.97 339.11 1746.39 338.074 1747.96 338.017C1749.52 337.962 1750.65 338.907 1750.48 340.13L1750.48 340.133L1750.06 343.048C1749.88 344.269 1748.47 345.304 1746.9 345.358C1745.33 345.412 1744.21 344.468 1744.38 343.247Z" fill="#6366F1"/>
<path d="M1744.36 333.284L1744.58 330.422C1744.67 329.219 1745.85 328.23 1747.22 328.213C1748.59 328.196 1749.63 329.158 1749.54 330.362L1749.54 330.365L1749.32 333.227C1749.22 334.429 1748.04 335.417 1746.67 335.432C1745.3 335.446 1744.27 334.486 1744.36 333.284Z" fill="#6366F1"/>
<path d="M1745.36 322.315L1745.54 319.461C1745.61 318.258 1746.79 317.253 1748.17 317.217C1749.56 317.182 1750.61 318.128 1750.54 319.331L1750.54 319.334L1750.36 322.188C1750.28 323.391 1749.1 324.393 1747.72 324.427C1746.34 324.462 1745.28 323.517 1745.36 322.315Z" fill="#6366F1"/>
<path d="M1746.36 312.345L1746.5 309.5C1746.56 308.297 1747.74 307.277 1749.13 307.222C1750.52 307.167 1751.6 308.098 1751.54 309.301L1751.54 309.304L1751.39 312.149C1751.33 313.351 1750.16 314.368 1748.77 314.422C1747.38 314.476 1746.3 313.547 1746.36 312.345Z" fill="#6366F1"/>
<path d="M1746.25 302.003L1746.25 298.795C1746.25 297.435 1747.4 296.306 1748.81 296.275C1750.23 296.243 1751.37 297.319 1751.37 298.68L1751.37 298.683L1751.37 301.891C1751.37 303.251 1750.22 304.377 1748.81 304.407C1747.4 304.436 1746.25 303.362 1746.25 302.003Z" fill="#6366F1"/>
<path d="M1747.26 292.037L1747.22 288.838C1747.2 287.478 1748.34 286.333 1749.76 286.279C1751.19 286.226 1752.36 287.285 1752.37 288.645L1752.37 288.648L1752.41 291.847C1752.42 293.206 1751.28 294.35 1749.86 294.402C1748.44 294.453 1747.27 293.396 1747.26 292.037Z" fill="#6366F1"/>
<path d="M1747.26 282.071L1747.18 278.881C1747.14 277.522 1748.28 276.36 1749.71 276.285C1751.15 276.21 1752.34 277.251 1752.37 278.612L1752.37 278.615L1752.45 281.805C1752.48 283.163 1751.34 284.323 1749.91 284.397C1748.48 284.468 1747.29 283.428 1747.26 282.071Z" fill="#6366F1"/>
<path d="M1747.26 272.105L1747.14 268.926C1747.09 267.567 1748.22 266.387 1749.66 266.291C1751.11 266.195 1752.32 267.22 1752.37 268.578L1752.37 268.582L1752.48 271.761C1752.53 273.119 1751.4 274.296 1749.96 274.391C1748.52 274.485 1747.31 273.463 1747.26 272.105Z" fill="#6366F1"/>
<path d="M1747.26 262.137L1747.1 258.968C1747.04 257.611 1748.16 256.415 1749.61 256.298C1751.07 256.181 1752.3 257.187 1752.37 258.545L1752.37 258.548L1752.52 261.718C1752.59 263.075 1751.46 264.268 1750.01 264.383C1748.56 264.497 1747.33 263.494 1747.26 262.137Z" fill="#6366F1"/>
<path d="M1746.26 252.171L1746.07 249.013C1745.98 247.656 1747.1 246.444 1748.56 246.306C1750.03 246.168 1751.28 247.155 1751.37 248.512L1751.37 248.515L1751.56 251.673C1751.64 253.03 1750.52 254.239 1749.06 254.376C1747.6 254.512 1746.35 253.527 1746.26 252.171Z" fill="#6366F1"/>
<path d="M1746.27 242.203L1746.03 239.057C1745.93 237.702 1747.04 236.473 1748.51 236.314C1749.98 236.154 1751.26 237.124 1751.36 238.479L1751.36 238.482L1751.6 241.629C1751.7 242.983 1750.58 244.21 1749.11 244.368C1747.64 244.525 1746.37 243.559 1746.27 242.203Z" fill="#6366F1"/>
<path d="M1745.27 232.236L1744.99 229.101C1744.87 227.747 1745.97 226.503 1747.46 226.322C1748.94 226.142 1750.24 227.093 1750.36 228.447L1750.36 228.45L1750.64 231.585C1750.75 232.938 1749.65 234.18 1748.17 234.359C1746.68 234.538 1745.39 233.59 1745.27 232.236Z" fill="#6366F1"/>
<path d="M1744.27 222.268L1743.95 219.146C1743.81 217.794 1744.91 216.534 1746.4 216.332C1747.9 216.13 1749.22 217.062 1749.36 218.414L1749.36 218.417L1749.67 221.54C1749.81 222.892 1748.71 224.15 1747.22 224.35C1745.73 224.549 1744.41 223.619 1744.27 222.268Z" fill="#6366F1"/>
<path d="M1743.27 212.3L1742.91 209.191C1742.76 207.841 1743.85 206.566 1745.35 206.342C1746.85 206.119 1748.2 207.033 1748.35 208.383L1748.35 208.386L1748.71 211.496C1748.87 212.845 1747.78 214.118 1746.27 214.339C1744.77 214.561 1743.43 213.649 1743.27 212.3Z" fill="#6366F1"/>
<path d="M1742.28 202.331L1741.88 199.235C1741.7 197.887 1742.78 196.597 1744.3 196.353C1745.81 196.109 1747.17 197.003 1747.35 198.351L1747.35 198.354L1747.75 201.451C1747.92 202.798 1746.84 204.087 1745.33 204.329C1743.82 204.57 1742.45 203.678 1742.28 202.331Z" fill="#6366F1"/>
<path d="M1741.28 192.363L1740.84 189.281C1740.64 187.936 1741.72 186.63 1743.24 186.364C1744.76 186.099 1746.15 186.974 1746.35 188.319L1746.35 188.322L1746.79 191.406C1746.98 192.751 1745.9 194.055 1744.38 194.318C1742.86 194.58 1741.48 193.707 1741.28 192.363Z" fill="#6366F1"/>
<path d="M1739.29 182.394L1738.8 179.326C1738.59 177.984 1739.66 176.663 1741.18 176.376C1742.71 176.089 1744.13 176.946 1744.34 178.289L1744.34 178.292L1744.83 181.361C1745.04 182.703 1743.97 184.021 1742.44 184.306C1740.91 184.59 1739.5 183.736 1739.29 182.394Z" fill="#6366F1"/>
<path d="M1738.29 172.425L1737.76 169.372C1737.53 168.031 1738.59 166.696 1740.13 166.389C1741.67 166.081 1743.1 166.918 1743.34 168.258L1743.34 168.261L1743.86 171.315C1744.09 172.654 1743.03 173.988 1741.49 174.293C1739.96 174.6 1738.52 173.765 1738.29 172.425Z" fill="#6366F1"/>
<path d="M1736.3 162.455L1735.72 159.417C1735.47 158.081 1736.52 156.731 1738.07 156.402C1739.62 156.074 1741.08 156.89 1741.33 158.227L1741.33 158.23L1741.9 161.269C1742.15 162.605 1741.1 163.953 1739.55 164.28C1738.01 164.606 1736.55 163.791 1736.3 162.455Z" fill="#6366F1"/>
<path d="M1734.3 152.486L1733.69 149.464C1733.41 148.131 1734.45 146.766 1736.01 146.416C1737.57 146.067 1739.05 146.863 1739.32 148.196L1739.33 148.199L1739.94 151.223C1740.21 152.556 1739.17 153.918 1737.61 154.266C1736.05 154.614 1734.57 153.819 1734.3 152.486Z" fill="#6366F1"/>
<path d="M1732.31 142.516L1731.65 139.51C1731.35 138.181 1732.39 136.802 1733.95 136.431C1735.52 136.06 1737.02 136.837 1737.32 138.166L1737.32 138.169L1737.98 141.176C1738.27 142.505 1737.23 143.882 1735.67 144.252C1734.1 144.62 1732.6 143.845 1732.31 142.516Z" fill="#6366F1"/>
<path d="M1730.32 133.546L1729.61 130.556C1729.3 129.231 1730.32 127.838 1731.89 127.446C1733.47 127.054 1735 127.81 1735.31 129.136L1735.31 129.139L1736.02 132.13C1736.33 133.454 1735.3 134.846 1733.73 135.236C1732.16 135.626 1730.63 134.87 1730.32 133.546Z" fill="#6366F1"/>
<path d="M1728.32 123.576L1727.57 120.603C1727.24 119.282 1728.25 117.876 1729.83 117.462C1731.41 117.049 1732.97 117.784 1733.3 119.106L1733.3 119.109L1734.05 122.083C1734.39 123.404 1733.37 124.808 1731.79 125.22C1730.21 125.631 1728.66 124.897 1728.32 123.576Z" fill="#6366F1"/>
<path d="M1725.33 113.606L1724.53 110.651C1724.18 109.334 1725.18 107.914 1726.77 107.479C1728.36 107.044 1729.94 107.759 1730.3 109.077L1730.3 109.08L1731.09 112.037C1731.45 113.353 1730.44 114.771 1728.85 115.204C1727.26 115.636 1725.69 114.922 1725.33 113.606Z" fill="#6366F1"/>
<path d="M1722.36 104.629L1721.52 101.692C1721.14 100.379 1722.12 98.9487 1723.71 98.4959C1725.3 98.0431 1726.89 98.7405 1727.27 100.052L1727.27 100.055L1728.11 102.994C1728.49 104.306 1727.5 105.735 1725.92 106.186C1724.33 106.636 1722.74 105.942 1722.36 104.629Z" fill="#6366F1"/>
<path d="M1719.42 94.6465L1718.53 91.7267C1718.13 90.4187 1719.08 88.98 1720.65 88.5132C1722.22 88.0462 1723.81 88.7287 1724.21 90.0357L1724.21 90.0387L1725.1 92.9598C1725.5 94.2675 1724.55 95.7032 1722.98 96.168C1721.41 96.6341 1719.82 95.9542 1719.42 94.6465Z" fill="#6366F1"/>
<path d="M1716.47 85.6613L1715.54 82.7602C1715.12 81.4577 1716.04 80.0118 1717.59 79.5309C1719.14 79.0499 1720.74 79.7167 1721.16 81.0201L1721.16 81.023L1722.09 83.9254C1722.51 85.2285 1721.59 86.6718 1720.04 87.1501C1718.49 87.6295 1716.89 86.9644 1716.47 85.6613Z" fill="#6366F1"/>
<path d="M1713.53 75.6781L1712.55 72.7948C1712.11 71.497 1712.99 70.0438 1714.53 69.549C1716.06 69.0544 1717.66 69.705 1718.1 71.0038L1718.11 71.0067L1719.08 73.8913C1719.52 75.1888 1718.63 76.6403 1717.1 77.1326C1715.56 77.6249 1713.97 76.9756 1713.53 75.6781Z" fill="#6366F1"/>
<path d="M1710.58 66.6946L1709.56 63.8294C1709.1 62.536 1709.96 61.0764 1711.47 60.567C1712.99 60.0586 1714.59 60.6939 1715.05 61.987L1715.05 61.9899L1716.07 64.8561C1716.53 66.1489 1715.67 67.6072 1714.15 68.1144C1712.64 68.6215 1711.04 67.9878 1710.58 66.6946Z" fill="#6366F1"/>
<path d="M1707.64 56.7107L1706.57 53.8643C1706.09 52.5762 1706.92 51.1084 1708.41 50.5853C1709.91 50.0623 1711.51 50.6831 1712 51.9712L1712 51.9742L1713.05 54.8219C1713.53 56.1096 1712.71 57.5754 1711.21 58.0962C1709.72 58.617 1708.12 57.9985 1707.64 56.7107Z" fill="#6366F1"/>
<path d="M1703.69 47.7271L1702.59 44.8988C1702.09 43.6156 1702.88 42.1402 1704.36 41.6036C1705.84 41.0667 1707.44 41.6702 1707.94 42.9534L1707.94 42.9563L1709.04 45.7859C1709.54 47.0684 1708.75 48.5422 1707.27 49.0777C1705.79 49.613 1704.19 49.01 1703.69 47.7271Z" fill="#6366F1"/>
<path d="M1699.74 38.7442L1698.6 35.9344C1698.08 34.6571 1698.84 33.174 1700.3 32.6225C1701.76 32.071 1703.37 32.6597 1703.89 33.938L1703.89 33.9409L1705.03 36.7516C1705.55 38.0296 1704.78 39.5101 1703.32 40.059C1701.86 40.6092 1700.26 40.0218 1699.74 38.7442Z" fill="#6366F1"/>
<path d="M1695.8 28.7602L1694.61 25.9699C1694.08 24.6973 1694.81 23.2072 1696.25 22.6412C1697.69 22.0753 1699.3 22.6479 1699.84 23.9204L1699.84 23.9233L1701.01 26.7159C1701.55 27.988 1700.82 29.4765 1699.38 30.0402C1697.93 30.604 1696.33 30.0324 1695.8 28.7602Z" fill="#6366F1"/>
<path d="M1691.85 19.7781L1690.63 17.0053C1690.07 15.7384 1690.77 14.241 1692.2 13.6606C1693.62 13.0802 1695.23 13.6372 1695.78 14.9041L1695.78 14.907L1697 17.6807C1697.56 18.9473 1696.85 20.443 1695.43 21.0212C1694.01 21.6003 1692.4 21.0447 1691.85 19.7781Z" fill="#6366F1"/>
<path d="M1687.9 10.7939L1686.64 8.04078C1686.07 6.77919 1686.74 5.27466 1688.14 4.67964C1689.55 4.08462 1691.16 4.62512 1691.73 5.88672L1691.73 5.88961L1692.98 8.64403C1693.56 9.90526 1692.89 11.4081 1691.48 12.0019C1690.08 12.5946 1688.48 12.0552 1687.9 10.7939Z" fill="#6366F1"/>
<path d="M1683.95 1.81057L1682.66 -0.923311C1682.07 -2.17867 1682.71 -3.69131 1684.09 -4.30081C1685.48 -4.91031 1687.08 -4.38613 1687.68 -3.12981L1687.68 -3.12691L1688.97 -0.390913C1689.56 0.865034 1688.92 2.37506 1687.53 2.98233C1686.15 3.58931 1684.55 3.06652 1683.95 1.81057Z" fill="#6366F1"/>
</g>
</g>
</g>
<defs>
<clipPath id="clip0_2342_12617">
<rect width="1760" height="710" rx="30" fill="white"/>
</clipPath>
<clipPath id="clip1_2342_12617">
<rect width="1760" height="710" fill="white"/>
</clipPath>
<clipPath id="clip2_2342_12617">
<rect width="726.186" height="881.95" fill="white" transform="translate(1041.46 920.75) rotate(-105.601)"/>
</clipPath>
</defs>
</svg>
