<svg width="395" height="414" viewBox="0 0 395 414" fill="none" xmlns="http://www.w3.org/2000/svg">
<g clip-path="url(#clip0_2702_3123)">
<path d="M64.5005 144.949C107.001 127.449 170.299 129.525 204.227 158.074C225.909 176.318 235.509 210.539 224.82 236.874C214.725 261.745 194.048 282.677 165.737 279.781C150.98 278.272 138.762 270.476 137.285 254.696C135.029 230.587 160.679 207.822 180.353 198.946C241.753 171.247 324.91 179.541 378.077 221.398L380.179 222.35M380.179 222.35C368.371 222.98 341.465 225.253 328.306 229.299M380.179 222.35C376.133 209.191 362.895 185.657 356.782 175.534" stroke="#06BDF8" stroke-width="3" stroke-linecap="round" stroke-dasharray="5 7"/>
</g>
<defs>
<clipPath id="clip0_2702_3123">
<rect width="352.109" height="281.861" fill="white" transform="translate(132.881 0.0585938) rotate(27.9072)"/>
</clipPath>
</defs>
</svg>
