<svg width="127" height="128" viewBox="0 0 127 128" fill="none" xmlns="http://www.w3.org/2000/svg">
<g clip-path="url(#clip0_2702_3111)">
<g filter="url(#filter0_f_2702_3111)">
<circle cx="63.5002" cy="64.4492" r="33.5" fill="#FF8A8A" fill-opacity="0.5"/>
</g>
<g filter="url(#filter1_dii_2702_3111)">
<circle cx="58.5002" cy="63.4492" r="33.5" fill="#FA9D7C"/>
</g>
<g clip-path="url(#clip1_2702_3111)">
<path d="M69.6252 61.8232C69.3435 61.8232 69.0732 61.7113 68.8739 61.512C68.6747 61.3128 68.5627 61.0425 68.5627 60.7607V53.3232H61.1252C60.8435 53.3232 60.5732 53.2113 60.3739 53.012C60.1747 52.8128 60.0627 52.5425 60.0627 52.2607C60.0627 51.9789 60.1747 51.7087 60.3739 51.5094C60.5732 51.3102 60.8435 51.1982 61.1252 51.1982H69.6252C69.907 51.1982 70.1773 51.3102 70.3765 51.5094C70.5758 51.7087 70.6877 51.9789 70.6877 52.2607V60.7607C70.6877 61.0425 70.5758 61.3128 70.3765 61.512C70.1773 61.7113 69.907 61.8232 69.6252 61.8232Z" fill="white"/>
<path d="M62.1877 55.4486C62.0482 55.4489 61.91 55.4215 61.781 55.3681C61.6521 55.3146 61.535 55.2362 61.4366 55.1373L59.3116 53.0123C59.1124 52.813 59.0005 52.5428 59.0005 52.2611C59.0005 51.9794 59.1124 51.7092 59.3116 51.5099L61.4366 49.3849C61.5346 49.2834 61.6518 49.2025 61.7814 49.1468C61.9111 49.0911 62.0505 49.0618 62.1916 49.0606C62.3326 49.0594 62.4726 49.0862 62.6031 49.1397C62.7337 49.1931 62.8523 49.272 62.9521 49.3717C63.0519 49.4715 63.1308 49.5901 63.1842 49.7207C63.2376 49.8513 63.2645 49.9912 63.2633 50.1323C63.262 50.2734 63.2327 50.4128 63.177 50.5424C63.1214 50.672 63.0404 50.7893 62.9389 50.8873L61.5656 52.2611L62.9389 53.6349C63.0875 53.7835 63.1886 53.9728 63.2296 54.1789C63.2706 54.385 63.2496 54.5986 63.1692 54.7927C63.0888 54.9868 62.9526 55.1527 62.7779 55.2695C62.6032 55.3862 62.3979 55.4486 62.1877 55.4486ZM59.0002 76.6986H48.3752C48.0935 76.6986 47.8232 76.5867 47.6239 76.3874C47.4247 76.1881 47.3127 75.9179 47.3127 75.6361V67.1361C47.3127 66.8543 47.4247 66.5841 47.6239 66.3848C47.8232 66.1855 48.0935 66.0736 48.3752 66.0736C48.657 66.0736 48.9273 66.1855 49.1265 66.3848C49.3258 66.5841 49.4377 66.8543 49.4377 67.1361V74.5736H59.0002C59.282 74.5736 59.5523 74.6855 59.7515 74.8848C59.9508 75.0841 60.0627 75.3543 60.0627 75.6361C60.0627 75.9179 59.9508 76.1881 59.7515 76.3874C59.5523 76.5867 59.282 76.6986 59.0002 76.6986Z" fill="white"/>
<path d="M57.9377 78.8232C57.7276 78.8232 57.5223 78.7609 57.3476 78.6441C57.1729 78.5274 57.0367 78.3614 56.9563 78.1673C56.8759 77.9732 56.8549 77.7596 56.8959 77.5535C56.9369 77.3474 57.038 77.1581 57.1866 77.0096L58.5598 75.6357L57.1866 74.2619C57.0851 74.1639 57.0041 74.0467 56.9484 73.917C56.8928 73.7874 56.8635 73.648 56.8622 73.5069C56.861 73.3658 56.8879 73.2259 56.9413 73.0954C56.9947 72.9648 57.0736 72.8461 57.1734 72.7464C57.2731 72.6466 57.3918 72.5677 57.5224 72.5143C57.6529 72.4609 57.7928 72.434 57.9339 72.4352C58.075 72.4365 58.2144 72.4658 58.344 72.5214C58.4737 72.5771 58.5909 72.6581 58.6889 72.7596L60.8139 74.8846C61.0131 75.0838 61.125 75.354 61.125 75.6357C61.125 75.9175 61.0131 76.1877 60.8139 76.3869L58.6889 78.5119C58.5905 78.6108 58.4734 78.6893 58.3445 78.7427C58.2155 78.7961 58.0773 78.8235 57.9377 78.8232ZM69.6252 70.3232C67.8673 70.3232 66.4377 68.8936 66.4377 67.1357C66.4377 65.3778 67.8673 63.9482 69.6252 63.9482C71.3832 63.9482 72.8127 65.3778 72.8127 67.1357C72.8127 68.8936 71.3832 70.3232 69.6252 70.3232ZM73.2659 70.9942C72.3139 71.8931 71.0347 72.4482 69.6252 72.4482C68.2158 72.4482 66.9366 71.8931 65.9846 70.9942C64.3558 71.9032 63.2502 73.642 63.2502 75.6357V79.8857C63.2502 80.1675 63.3622 80.4378 63.5614 80.637C63.7607 80.8363 64.031 80.9482 64.3127 80.9482H74.9377C75.2195 80.9482 75.4898 80.8363 75.689 80.637C75.8883 80.4378 76.0002 80.1675 76.0002 79.8857V75.6357C76.0002 73.642 74.8947 71.9032 73.2659 70.9942ZM44.1252 51.1982H43.0627C42.781 51.1982 42.5107 51.3102 42.3114 51.5094C42.1122 51.7087 42.0002 51.9789 42.0002 52.2607V62.8857C42.0002 63.1675 42.1122 63.4378 42.3114 63.637C42.5107 63.8363 42.781 63.9482 43.0627 63.9482H44.1252V51.1982ZM55.8127 46.9482H47.3127C47.031 46.9482 46.7607 47.0602 46.5614 47.2594C46.3622 47.4587 46.2502 47.7289 46.2502 48.0107V63.9482H50.5002V60.7607C50.5002 60.4789 50.6122 60.2087 50.8114 60.0094C51.0107 59.8102 51.281 59.6982 51.5627 59.6982C51.8445 59.6982 52.1148 59.8102 52.314 60.0094C52.5133 60.2087 52.6252 60.4789 52.6252 60.7607V63.9482H55.8127C56.0945 63.9482 56.3648 63.8363 56.564 63.637C56.7633 63.4378 56.8752 63.1675 56.8752 62.8857V48.0107C56.8752 47.7289 56.7633 47.4587 56.564 47.2594C56.3648 47.0602 56.0945 46.9482 55.8127 46.9482ZM51.5627 57.5732C51.4232 57.5732 51.285 57.5457 51.1561 57.4922C51.0271 57.4388 50.91 57.3605 50.8113 57.2618C50.7127 57.1631 50.6344 57.0459 50.581 56.9169C50.5277 56.788 50.5002 56.6498 50.5002 56.5102C50.5003 56.3706 50.5278 56.2325 50.5812 56.1035C50.6347 55.9746 50.713 55.8575 50.8117 55.7588C50.9104 55.6601 51.0276 55.5819 51.1566 55.5285C51.2855 55.4751 51.4237 55.4477 51.5633 55.4477C51.8451 55.4478 52.1154 55.5598 52.3147 55.7592C52.5139 55.9585 52.6258 56.2289 52.6258 56.5107C52.6257 56.7926 52.5137 57.0629 52.3143 57.2622C52.115 57.4614 51.8446 57.5733 51.5627 57.5732ZM51.5627 53.3232C51.4232 53.3232 51.285 53.2957 51.1561 53.2422C51.0271 53.1888 50.91 53.1105 50.8113 53.0118C50.7127 52.9131 50.6344 52.7959 50.581 52.6669C50.5277 52.538 50.5002 52.3998 50.5002 52.2602C50.5003 52.1206 50.5278 51.9825 50.5812 51.8535C50.6347 51.7246 50.713 51.6075 50.8117 51.5088C50.9104 51.4101 51.0276 51.3319 51.1566 51.2785C51.2855 51.2251 51.4237 51.1977 51.5633 51.1977C51.8451 51.1978 52.1154 51.3098 52.3147 51.5092C52.5139 51.7085 52.6258 51.9789 52.6258 52.2607C52.6257 52.5426 52.5137 52.8129 52.3143 53.0122C52.115 53.2114 51.8446 53.3233 51.5627 53.3232Z" fill="white"/>
</g>
</g>
<defs>
<filter id="filter0_f_2702_3111" x="0.000244141" y="0.949219" width="127" height="127" filterUnits="userSpaceOnUse" color-interpolation-filters="sRGB">
<feFlood flood-opacity="0" result="BackgroundImageFix"/>
<feBlend mode="normal" in="SourceGraphic" in2="BackgroundImageFix" result="shape"/>
<feGaussianBlur stdDeviation="15" result="effect1_foregroundBlur_2702_3111"/>
</filter>
<filter id="filter1_dii_2702_3111" x="9.00024" y="23.9492" width="99" height="99" filterUnits="userSpaceOnUse" color-interpolation-filters="sRGB">
<feFlood flood-opacity="0" result="BackgroundImageFix"/>
<feColorMatrix in="SourceAlpha" type="matrix" values="0 0 0 0 0 0 0 0 0 0 0 0 0 0 0 0 0 0 127 0" result="hardAlpha"/>
<feMorphology radius="4" operator="erode" in="SourceAlpha" result="effect1_dropShadow_2702_3111"/>
<feOffset dy="10"/>
<feGaussianBlur stdDeviation="10"/>
<feColorMatrix type="matrix" values="0 0 0 0 0.916051 0 0 0 0 0.921023 0 0 0 0 0.927984 0 0 0 1 0"/>
<feBlend mode="multiply" in2="BackgroundImageFix" result="effect1_dropShadow_2702_3111"/>
<feBlend mode="normal" in="SourceGraphic" in2="effect1_dropShadow_2702_3111" result="shape"/>
<feColorMatrix in="SourceAlpha" type="matrix" values="0 0 0 0 0 0 0 0 0 0 0 0 0 0 0 0 0 0 127 0" result="hardAlpha"/>
<feOffset/>
<feGaussianBlur stdDeviation="2"/>
<feComposite in2="hardAlpha" operator="arithmetic" k2="-1" k3="1"/>
<feColorMatrix type="matrix" values="0 0 0 0 0.625417 0 0 0 0 0.631402 0 0 0 0 0.658333 0 0 0 1 0"/>
<feBlend mode="color-burn" in2="shape" result="effect2_innerShadow_2702_3111"/>
<feColorMatrix in="SourceAlpha" type="matrix" values="0 0 0 0 0 0 0 0 0 0 0 0 0 0 0 0 0 0 127 0" result="hardAlpha"/>
<feOffset dx="2" dy="2"/>
<feGaussianBlur stdDeviation="1"/>
<feComposite in2="hardAlpha" operator="arithmetic" k2="-1" k3="1"/>
<feColorMatrix type="matrix" values="0 0 0 0 1 0 0 0 0 1 0 0 0 0 1 0 0 0 0.3 0"/>
<feBlend mode="normal" in2="effect2_innerShadow_2702_3111" result="effect3_innerShadow_2702_3111"/>
</filter>
<clipPath id="clip0_2702_3111">
<rect width="127" height="128" fill="white" transform="translate(0.000244141)"/>
</clipPath>
<clipPath id="clip1_2702_3111">
<rect width="34" height="34" fill="white" transform="translate(42.0002 46.9482)"/>
</clipPath>
</defs>
</svg>
