<svg width="1081" height="1000" viewBox="0 0 1081 1000" fill="none" xmlns="http://www.w3.org/2000/svg">
<g clip-path="url(#clip0_2703_2233)">
<g clip-path="url(#clip1_2703_2233)">
<path d="M751.501 175.949C794.001 158.449 857.299 160.525 891.227 189.073C912.909 207.318 922.509 241.538 911.82 267.873C901.725 292.744 881.048 313.676 852.737 310.781C837.98 309.272 825.762 301.475 824.285 285.695C822.029 261.587 847.679 238.822 867.353 229.946C928.753 202.247 1011.91 210.541 1065.08 252.398L1067.18 253.349M1067.18 253.349C1055.37 253.98 1028.46 256.252 1015.31 260.299M1067.18 253.349C1063.13 240.191 1049.9 216.656 1043.78 206.534" stroke="#06BDF8" stroke-width="3" stroke-linecap="round" stroke-dasharray="5 7"/>
</g>
</g>
<defs>
<clipPath id="clip0_2703_2233">
<rect width="1283" height="1000" fill="white" transform="translate(-202)"/>
</clipPath>
<clipPath id="clip1_2703_2233">
<rect width="352.109" height="281.861" fill="white" transform="translate(819.881 31.0582) rotate(27.9072)"/>
</clipPath>
</defs>
</svg>
