<svg width="192" height="194" viewBox="0 0 192 194" fill="none" xmlns="http://www.w3.org/2000/svg">
<g opacity="0.5" filter="url(#filter0_f_2702_3085)">
<rect x="69.572" y="54.1533" width="67.8839" height="73.2715" rx="11" transform="rotate(11.0584 69.572 54.1533)" fill="#25C16F"/>
</g>
<g filter="url(#filter1_dii_2702_3085)">
<rect x="61.2944" y="45.9482" width="67.8839" height="73.2715" rx="11" transform="rotate(11.0584 61.2944 45.9482)" fill="#25C16F"/>
</g>
<g clip-path="url(#clip0_2702_3085)">
<path d="M91.3412 98.3555C91.9333 95.3258 89.9495 92.3793 86.9198 91.7871C83.8896 91.1949 80.9427 93.1783 80.3507 96.2076C79.7585 99.2377 81.7418 102.185 84.772 102.777C87.8021 103.369 90.749 101.386 91.3412 98.3555ZM92.7083 94.8787L96.6182 94.2846C96.0189 92.1508 94.8035 90.2412 93.124 88.7949L90.6298 91.8053C91.5748 92.6345 92.2906 93.6929 92.7083 94.8787Z" fill="white"/>
<path d="M96.9483 95.935L93.0852 96.522C93.1594 97.2246 93.1333 97.9499 92.9908 98.6787C92.3932 101.737 89.9488 103.967 87.0431 104.455L87.478 108.347C92.0342 107.67 95.8908 104.2 96.8235 99.4282C97.0545 98.2462 97.0868 97.0707 96.9483 95.935ZM83.7003 108.26C84.3922 108.395 85.0953 108.464 85.8002 108.466L85.3613 104.54C85.0588 104.519 84.7552 104.487 84.4496 104.427C80.5096 103.657 77.931 99.8255 78.701 95.8855C79.471 91.946 83.3023 89.3678 87.2422 90.1378C87.9582 90.2777 88.6281 90.5217 89.2422 90.8459L91.7692 87.7966C90.6121 87.0717 89.3315 86.566 87.9913 86.3046C81.9381 85.1216 76.0512 89.0836 74.8682 95.1369C73.6852 101.19 77.6471 107.077 83.7003 108.26Z" fill="white"/>
<path d="M104.079 104.769L108.697 81.1394L70.7536 73.7238L66.1354 97.3536L73.0581 98.7065C72.913 97.4086 72.9671 96.0961 73.2185 94.8144C74.5793 87.8514 81.3511 83.2941 88.3137 84.6549C90.2484 85.033 91.9968 85.8299 93.4847 86.9321C93.5043 86.9458 93.525 86.9562 93.5438 86.9719C93.5482 86.9753 93.5511 86.9802 93.5552 86.9835C96.1003 88.8983 97.85 91.6844 98.4692 94.8086C98.4723 94.8233 98.4777 94.8372 98.4804 94.8523C98.4814 94.8602 98.4808 94.8674 98.4814 94.8752C98.7913 96.4858 98.7885 98.141 98.4732 99.7506C98.216 101.066 97.7649 102.296 97.1564 103.417L104.079 104.769ZM75.6577 82.1562L72.3508 81.5099C72.132 81.4671 71.9392 81.3392 71.8148 81.1543C71.6903 80.9694 71.6444 80.7426 71.6872 80.5238C71.7299 80.305 71.8578 80.1122 72.0427 79.9878C72.2277 79.8633 72.4545 79.8174 72.6732 79.8602L75.9801 80.5064C76.1989 80.5492 76.3917 80.6771 76.5161 80.862C76.6406 81.047 76.6865 81.2738 76.6438 81.4925C76.601 81.7113 76.4731 81.9041 76.2882 82.0286C76.1032 82.153 75.8764 82.1989 75.6577 82.1562ZM78.7396 79.2825L73.0056 78.1618C72.7868 78.1191 72.594 77.9912 72.4695 77.8063C72.3451 77.6213 72.2992 77.3945 72.3419 77.1758C72.3847 76.957 72.5126 76.7642 72.6975 76.6397C72.8824 76.5153 73.1092 76.4694 73.328 76.5121L79.0624 77.6329C79.2812 77.6757 79.474 77.8036 79.5984 77.9886C79.7228 78.1735 79.7686 78.4003 79.7258 78.6191C79.683 78.8378 79.5551 79.0306 79.3701 79.1551C79.1852 79.2795 78.9584 79.3253 78.7396 79.2825ZM99.2061 83.2824C98.9873 83.2397 98.7945 83.1118 98.67 82.9268C98.5456 82.7419 98.4997 82.5151 98.5424 82.2964C98.5852 82.0776 98.7131 81.8848 98.898 81.7603C99.0829 81.6359 99.3097 81.59 99.5285 81.6327L105.263 82.7534C105.482 82.7962 105.675 82.9241 105.799 83.109C105.923 83.294 105.969 83.5207 105.927 83.7395C105.884 83.9583 105.756 84.1511 105.571 84.2756C105.386 84.4 105.159 84.4459 104.941 84.4032L99.2061 83.2824ZM100.316 86.1189C100.358 85.9001 100.486 85.7073 100.671 85.5829C100.856 85.4584 101.083 85.4125 101.302 85.4553L104.609 86.1016C104.827 86.1443 105.02 86.2722 105.145 86.4571C105.269 86.6421 105.315 86.8689 105.272 87.0876C105.229 87.3064 105.102 87.4992 104.917 87.6237C104.732 87.7481 104.505 87.794 104.286 87.7513L100.979 87.105C100.761 87.0622 100.568 86.9343 100.443 86.7494C100.319 86.5645 100.273 86.3377 100.316 86.1189ZM71.866 68.0322L71.076 72.0745L109.02 79.4901L109.81 75.4479L71.866 68.0322ZM82.12 72.9907L73.9168 71.3875C73.698 71.3447 73.5052 71.2168 73.3807 71.0319C73.2563 70.847 73.2104 70.6202 73.2531 70.4014C73.2959 70.1827 73.4238 69.9898 73.6087 69.8654C73.7936 69.7409 74.0204 69.695 74.2392 69.7378L82.4429 71.3411C82.6616 71.3839 82.8544 71.5119 82.9788 71.6968C83.1032 71.8818 83.1491 72.1086 83.1063 72.3273C83.0634 72.5461 82.9355 72.7389 82.7505 72.8633C82.5656 72.9877 82.3388 73.0335 82.12 72.9907Z" fill="white"/>
</g>
<defs>
<filter id="filter0_f_2702_3085" x="27.4214" y="26.0566" width="136.87" height="141.125" filterUnits="userSpaceOnUse" color-interpolation-filters="sRGB">
<feFlood flood-opacity="0" result="BackgroundImageFix"/>
<feBlend mode="normal" in="SourceGraphic" in2="BackgroundImageFix" result="shape"/>
<feGaussianBlur stdDeviation="15" result="effect1_foregroundBlur_2702_3085"/>
</filter>
<filter id="filter1_dii_2702_3085" x="33.1438" y="41.8516" width="108.87" height="113.125" filterUnits="userSpaceOnUse" color-interpolation-filters="sRGB">
<feFlood flood-opacity="0" result="BackgroundImageFix"/>
<feColorMatrix in="SourceAlpha" type="matrix" values="0 0 0 0 0 0 0 0 0 0 0 0 0 0 0 0 0 0 127 0" result="hardAlpha"/>
<feMorphology radius="4" operator="erode" in="SourceAlpha" result="effect1_dropShadow_2702_3085"/>
<feOffset dy="10"/>
<feGaussianBlur stdDeviation="10"/>
<feColorMatrix type="matrix" values="0 0 0 0 0.916051 0 0 0 0 0.921023 0 0 0 0 0.927984 0 0 0 1 0"/>
<feBlend mode="multiply" in2="BackgroundImageFix" result="effect1_dropShadow_2702_3085"/>
<feBlend mode="normal" in="SourceGraphic" in2="effect1_dropShadow_2702_3085" result="shape"/>
<feColorMatrix in="SourceAlpha" type="matrix" values="0 0 0 0 0 0 0 0 0 0 0 0 0 0 0 0 0 0 127 0" result="hardAlpha"/>
<feOffset/>
<feGaussianBlur stdDeviation="2"/>
<feComposite in2="hardAlpha" operator="arithmetic" k2="-1" k3="1"/>
<feColorMatrix type="matrix" values="0 0 0 0 0.625417 0 0 0 0 0.631402 0 0 0 0 0.658333 0 0 0 1 0"/>
<feBlend mode="color-burn" in2="shape" result="effect2_innerShadow_2702_3085"/>
<feColorMatrix in="SourceAlpha" type="matrix" values="0 0 0 0 0 0 0 0 0 0 0 0 0 0 0 0 0 0 127 0" result="hardAlpha"/>
<feOffset dx="2" dy="2"/>
<feGaussianBlur stdDeviation="1"/>
<feComposite in2="hardAlpha" operator="arithmetic" k2="-1" k3="1"/>
<feColorMatrix type="matrix" values="0 0 0 0 1 0 0 0 0 1 0 0 0 0 1 0 0 0 0.3 0"/>
<feBlend mode="normal" in2="effect2_innerShadow_2702_3085" result="effect3_innerShadow_2702_3085"/>
</filter>
<clipPath id="clip0_2702_3085">
<rect width="42.0234" height="42.0234" fill="white" transform="translate(70.6777 65.3486) rotate(11.0584)"/>
</clipPath>
</defs>
</svg>
