<svg width="141" height="25" viewBox="0 0 141 25" fill="none" xmlns="http://www.w3.org/2000/svg">
<path d="M140.68 8.07971C140.672 8.57324 140.218 8.97482 139.662 8.97482H136.511C136.187 9.04506 135.857 9.11373 135.524 9.18275C135.294 9.349 135.143 9.5999 135.143 9.88463V23.1705C135.143 23.671 135.344 24.0804 134.783 24.0804H130.646C130.085 24.0804 129.626 23.671 129.626 23.1705V10.3815V9.8847C129.626 9.78948 129.605 9.70047 129.575 9.61382C129.444 9.24571 129.177 8.97482 128.722 8.97482H125.091C124.53 8.97482 124.071 8.56588 124.071 8.06579V5.5308C124.071 5.032 124.53 4.62142 125.091 4.62142H139.662C139.806 4.62142 139.944 4.6504 140.069 4.69944C140.429 4.83998 140.682 5.16027 140.682 5.5308V8.06579L140.68 8.07971ZM120.319 24.0759H116.842C116.281 24.0759 115.822 23.667 115.822 23.1678V19.7923C115.822 19.2927 115.562 19.1664 115.244 19.5125C115.244 19.5125 115.244 19.5125 114.851 19.8789C114.459 20.2462 114.027 20.6126 113.556 20.9816C113.375 21.1238 113.19 21.266 113.001 21.4102L113 21.4118C112.84 21.5356 112.677 21.6574 112.511 21.7811C112.381 21.8792 112.249 21.9719 112.117 22.0663C110.87 22.8842 108.713 24.165 105.368 24.0759H103.828C103.267 24.0759 102.808 23.667 102.808 23.1678V15.5802V13.3214V5.52673C102.808 5.02707 103.267 4.61892 103.828 4.61892H107.42C107.981 4.61892 108.44 5.02707 108.44 5.52673V12.8568V14.6614V17.6348C108.44 18.1328 108.762 18.358 109.156 18.1308C109.156 18.1308 109.387 18.1308 109.759 17.8861C110.133 17.6422 110.515 17.3721 110.908 17.0735C111.535 16.6188 112.154 16.117 112.761 15.5659C113.37 15.0156 113.939 14.4596 114.469 13.9015C114.578 13.7801 114.683 13.6621 114.787 13.544C114.926 13.3867 115.06 13.229 115.189 13.0754C115.415 12.8045 115.626 12.5369 115.822 12.2747V12.1914V5.52673C115.822 5.02707 116.281 4.61892 116.842 4.61892H120.319C120.88 4.61892 121.339 5.02707 121.339 5.52673V11.4813V11.8878V23.1677C121.339 23.667 120.88 24.0759 120.319 24.0759ZM115.627 2.72492C114.638 3.27112 113.518 3.54365 112.267 3.54365C111.041 3.54365 109.933 3.27112 108.944 2.72492C108.501 2.47894 108.141 2.19342 107.856 1.86779C106.948 0.745976 108.162 0.5 108.162 0.5H116.071C116.786 0.5 117.154 0.983315 116.886 1.57491C116.886 1.57491 116.615 2.1775 115.627 2.72492ZM99.0338 24.0804H95.4355C94.3683 24.0804 94.0619 23.4684 93.9726 23.1894C93.9644 23.1477 93.9558 23.1052 93.9464 23.0595C93.9267 22.9675 93.9046 22.8548 93.8809 22.7331H88.0464V18.3465H92.716C92.5291 17.7484 92.3399 17.1543 92.1723 16.6351C92.1073 16.4283 92.0441 16.2228 91.9885 16.0415C91.9852 15.9826 91.9775 15.9234 91.9581 15.8605C91.9581 15.8605 91.9352 15.7833 91.8056 15.434C91.7898 15.3911 91.7727 15.347 91.7539 15.2959C91.5769 14.824 91.4009 14.3689 91.224 13.9326L91.2105 13.8999C90.9009 13.1621 90.6066 12.5296 90.3269 12.0038C90.0421 11.4715 89.86 11.1254 89.782 10.9682C89.2702 11.9413 88.8023 12.9619 88.3647 14.0151C88.2992 14.1716 88.2277 14.3235 88.1638 14.4817C87.8231 15.3318 87.5155 16.8847 87.2225 17.7341C87.1083 17.7422 86.9941 17.75 86.88 17.7578H86.1355H85.8006H81.0413C81.3511 16.7969 81.6849 15.1459 82.0333 14.21C82.5453 12.8348 83.0943 11.485 83.69 10.1703C84.5562 8.25624 85.4434 6.61435 86.3532 5.24442C86.4679 5.08225 86.875 4.62142 87.805 4.62142H91.6753C92.2369 4.62142 92.9295 4.97482 93.215 5.40296C93.215 5.40296 94.2307 6.93585 94.8878 8.15045C95.5447 9.36384 96.1386 10.5846 96.6683 11.8082C96.9273 12.4067 97.1683 12.9999 97.3989 13.5915C97.7156 14.4049 98.0093 15.2122 98.2776 16.0141C98.5374 16.7887 98.782 17.5613 98.9929 18.3257L98.9992 18.3465H99.0339V18.4752C99.4942 20.1462 99.868 21.6888 100.156 23.1032C100.195 23.4133 100.151 24.0804 99.0338 24.0804ZM79.4283 8.60636C79.4283 8.60636 79.4283 8.60636 78.9347 8.54547C78.4402 8.48744 77.9137 8.46788 77.3549 8.48872C75.1997 8.56838 73.5641 9.15584 72.4482 10.2545C71.3565 11.3277 70.8419 12.7024 70.8952 14.3677C70.897 14.4037 70.8945 14.4393 70.8959 14.4744C70.972 16.12 71.405 17.3374 72.1939 18.1243C72.9824 18.9112 73.8364 19.4509 74.7561 19.7434C75.2445 19.879 75.7214 20.0726 76.1862 20.1148C76.5608 20.1511 76.8953 20.1658 77.1926 20.1646H85.3205V23.1617V24.2137V24.2884H79.633L58.0262 24.3166H57.7208H57.718L57.2954 24.3175C56.9652 24.3089 56.5792 24.2819 56.3394 24.2656C53.5987 24.0617 51.523 23.3517 50.1167 21.923C48.3457 20.1262 47.3114 18.1055 47.0149 15.8663C46.9876 15.6963 46.9648 15.5207 46.9473 15.3409C46.9287 15.1599 46.9157 14.9847 46.9078 14.8143C46.8932 14.5075 46.8935 14.2088 46.9029 13.913C46.9812 11.3968 47.9092 9.27276 49.6924 7.54665C51.6849 5.61667 54.5581 4.58309 58.3114 4.44375C59.081 4.41513 59.7996 4.42783 60.4674 4.48094C61.1353 4.53162 61.7708 4.61742 62.3735 4.7322L62.525 7.98221C62.5485 8.4733 62.1919 8.80008 61.7347 8.70943C61.7347 8.70943 61.7347 8.70943 61.2405 8.65104C60.746 8.59387 60.2195 8.57424 59.6616 8.59422C57.5058 8.67388 55.8702 9.26341 54.7549 10.3616C53.7369 11.3621 53.2231 12.6253 53.2004 14.1407C53.1987 14.2874 53.1948 14.4308 53.202 14.5811C53.2787 16.2267 53.7114 17.4446 54.4999 18.2323C55.2883 19.0175 56.1426 19.5568 57.0624 19.8489C57.5507 19.9857 58.0278 20.0756 58.4922 20.1198C58.8676 20.1537 59.2016 20.1688 59.4994 20.1672L66.4355 20.1537C65.4982 18.7965 64.9167 17.3347 64.7086 15.7594C64.6808 15.5902 64.6581 15.4141 64.6405 15.2331C64.6222 15.0538 64.6094 14.8777 64.6013 14.7069C64.5954 14.588 64.5949 14.4712 64.5926 14.3564C64.5457 11.5967 65.4751 9.29082 67.3859 7.43972C69.3785 5.51139 72.2521 4.47487 76.0049 4.33761C76.7745 4.30984 77.4934 4.32169 78.1612 4.37359C78.829 4.42748 79.4635 4.51128 80.0673 4.62563L80.2185 7.87642C80.2415 8.36573 79.8861 8.69423 79.4283 8.60636ZM41.3824 21.9155C39.1937 23.6396 36.5119 24.5 33.3333 24.5C30.1154 24.5 27.4224 23.6396 25.2551 21.9155C23.0865 20.1939 22.003 17.6732 22.003 14.3509C22.003 13.7548 22.0392 13.1853 22.1081 12.6395C22.13 12.4712 22.1634 12.3077 22.1915 12.1422C22.5807 9.87764 23.5951 8.07807 25.2551 6.75925C27.4223 5.03685 30.1154 4.17722 33.3333 4.17722C36.5119 4.17722 39.1937 5.03678 41.3824 6.75925C43.4499 8.38772 44.5393 10.7397 44.6523 13.8128C44.6586 13.9897 44.6635 14.1679 44.6635 14.3509C44.6635 15.0295 44.6156 15.6717 44.5243 16.2821C44.1696 18.666 43.1239 20.5461 41.3824 21.9155ZM38.2281 13.4643C38.1073 12.2898 37.7439 11.2386 37.1298 10.3124C36.3649 9.15912 35.0992 8.5818 33.3334 8.5818C31.5279 8.5818 30.2527 9.15905 29.5076 10.3124C29.0333 11.0482 28.7156 11.8608 28.5437 12.7498C28.469 13.1384 28.4193 13.5396 28.4011 13.9563C28.3955 14.0874 28.3894 14.2173 28.3894 14.351C28.3894 15.8903 28.7671 17.2357 29.5224 18.389C30.277 19.5444 31.5479 20.1204 33.3334 20.1204C35.0993 20.1204 36.3649 19.5444 37.1299 18.389C37.693 17.5397 38.0477 16.5853 38.1958 15.5267C38.2491 15.148 38.2774 14.757 38.2774 14.351C38.2773 14.0465 38.2582 13.7524 38.2281 13.4643ZM10.571 19.6747C10.4738 19.6747 10.3774 19.6726 10.2808 19.6694C9.58512 19.6555 9.57014 18.9536 9.57014 18.9536V15.7931C9.57014 15.4021 9.86263 15.3049 10.0136 15.2795L10.0424 15.2754C10.0763 15.2717 10.101 15.2705 10.101 15.2705L10.0977 15.2688C10.8365 15.174 11.4671 14.9355 11.9839 14.5482C12.6702 14.033 13.0136 13.2416 13.0136 12.1741C13.0136 12.0524 12.9989 11.8477 12.9696 11.5581C12.9538 11.3995 12.9099 11.2361 12.8441 11.0641C12.7896 10.9228 12.7197 10.7769 12.6312 10.6274C12.5697 10.5203 12.5001 10.4195 12.4248 10.3259C12.406 10.3026 12.3815 10.2793 12.3608 10.2557C12.3009 10.1882 12.24 10.1204 12.1737 10.0587L12.14 10.0232L12.1255 10.0183C11.2039 9.20281 9.75144 9.0255 9.1565 8.98753L9.14524 8.98224C9.11213 8.9806 9.07638 8.98103 9.04275 8.9806C8.94786 8.97532 8.88974 8.97532 8.88974 8.97532L8.89179 8.97653C8.8431 8.97611 8.79667 8.97489 8.74667 8.97489H6.97085C6.40962 8.97489 5.95088 9.38262 5.95088 9.8847V9.99092V23.1706C5.95088 23.6711 5.49214 24.0804 4.93112 24.0804H1.33782C0.776807 24.0804 0.318359 23.6711 0.318359 23.1706V8.76568V5.5308C0.318359 5.21908 0.496884 4.9437 0.767668 4.77824C0.930622 4.68059 1.1272 4.62135 1.33782 4.62135H8.87409C9.43482 4.62135 10.3485 4.67816 10.9044 4.74512C10.9044 4.74512 11.9341 4.87218 13.1691 5.14835H13.1675L13.1713 5.14913C13.5437 5.23329 13.9349 5.33051 14.3219 5.44243C15.6343 5.8902 17.7415 6.97204 18.8849 9.48133C19.1157 10.0447 19.2694 10.6286 19.3408 11.2307C19.36 11.3884 19.375 11.5494 19.3847 11.7152C19.3883 11.7753 19.3883 11.83 19.39 11.8873C19.3921 11.9567 19.3954 12.0286 19.3962 12.0968C19.3969 12.13 19.3994 12.1663 19.3994 12.2006C19.3994 14.2989 18.6441 16.0691 17.1337 17.5113C15.6227 18.9524 13.4353 19.6747 10.571 19.6747Z" fill="#0B0F19"/>
</svg>
