<svg width="749" height="924" viewBox="0 0 749 924" fill="none" xmlns="http://www.w3.org/2000/svg">
<path d="M608.018 103.831L608.969 102.671L608.018 103.831ZM378.562 342.573L380.051 342.394L378.562 342.573ZM747.401 485.887L745.901 485.902L747.401 485.887ZM3.21956 141.369C2.86035 142.115 1.96399 142.429 1.2175 142.07C0.471001 141.711 0.157049 140.814 0.516266 140.068L3.21956 141.369ZM1.38837 138.318C1.76797 137.582 2.67261 137.293 3.40895 137.672C4.14529 138.052 4.43449 138.956 4.05489 139.693L1.38837 138.318ZM9.08306 131.262C8.62015 131.949 7.68794 132.131 7.00091 131.668C6.31389 131.205 6.13221 130.273 6.59512 129.586L9.08306 131.262ZM8.90005 126.3C9.38805 125.631 10.3263 125.484 10.9958 125.972C11.6652 126.46 11.8123 127.398 11.3243 128.068L8.90005 126.3ZM17.4615 120.327C16.923 120.957 15.9761 121.031 15.3466 120.492C14.717 119.954 14.6432 119.007 15.1816 118.377L17.4615 120.327ZM17.8794 115.308C18.4344 114.693 19.3829 114.644 19.9979 115.199C20.613 115.754 20.6616 116.703 20.1066 117.318L17.8794 115.308ZM26.9314 110.187C26.3424 110.769 25.3927 110.764 24.8101 110.175C24.2276 109.586 24.2329 108.636 24.8219 108.054L26.9314 110.187ZM27.7725 105.195C28.3734 104.625 29.3228 104.65 29.8931 105.25C30.4635 105.851 30.4388 106.801 29.838 107.371L27.7725 105.195ZM37.1422 100.749C36.5165 101.292 35.5691 101.225 35.0262 100.599C34.4833 99.9731 34.5504 99.0258 35.1761 98.4829L37.1422 100.749ZM38.2949 95.8224C38.9295 95.29 39.8757 95.3729 40.4081 96.0076C40.9405 96.6423 40.8576 97.5884 40.223 98.1208L38.2949 95.8224ZM47.9011 91.9239C47.247 92.4324 46.3047 92.3143 45.7962 91.6603C45.2878 91.0062 45.4058 90.0638 46.0599 89.5554L47.9011 91.9239ZM49.2945 87.0775C49.9556 86.5783 50.8963 86.7096 51.3954 87.3707C51.8946 88.0319 51.7633 88.9725 51.1022 89.4717L49.2945 87.0775ZM59.0969 83.6387C58.42 84.1163 57.4841 83.9547 57.0065 83.2778C56.529 82.6009 56.6906 81.665 57.3675 81.1874L59.0969 83.6387ZM60.6852 78.8772C61.368 78.408 62.3018 78.5811 62.771 79.2638C63.2403 79.9466 63.0672 80.8804 62.3844 81.3496L60.6852 78.8772ZM70.6607 75.8383C69.9647 76.2875 69.0363 76.0875 68.587 75.3915C68.1377 74.6955 68.3377 73.767 69.0337 73.3178L70.6607 75.8383ZM72.4139 71.1623C73.1148 70.7207 74.041 70.9309 74.4826 71.6318C74.9242 72.3328 74.7139 73.2589 74.013 73.7005L72.4139 71.1623ZM82.5458 68.4832C81.8334 68.906 80.9131 68.6713 80.4902 67.9589C80.0674 67.2465 80.3021 66.3262 81.0145 65.9034L82.5458 68.4832ZM84.4438 63.8914C85.1604 63.4757 86.0782 63.7197 86.4939 64.4363C86.9095 65.153 86.6655 66.0708 85.9489 66.4865L84.4438 63.8914ZM94.6983 61.5567C93.9716 61.9544 93.0601 61.6878 92.6623 60.9611C92.2645 60.2344 92.5312 59.3229 93.2579 58.9251L94.6983 61.5567ZM96.7467 57.0368C97.4771 56.6458 98.3861 56.9211 98.777 57.6515C99.1679 58.3819 98.8927 59.2909 98.1623 59.6818L96.7467 57.0368ZM106.987 55.0904C106.247 55.4643 105.345 55.1681 104.971 54.4289C104.597 53.6896 104.893 52.7872 105.633 52.4133L106.987 55.0904ZM109.27 50.5946C110.013 50.2275 110.912 50.5319 111.279 51.2746C111.647 52.0172 111.342 52.9168 110.599 53.2839L109.27 50.5946ZM119.518 48.9976C118.767 49.3482 117.875 49.0241 117.524 48.2735C117.173 47.523 117.497 46.6303 118.248 46.2796L119.518 48.9976ZM121.901 44.5922C122.655 44.2481 123.544 44.58 123.889 45.3336C124.233 46.0872 123.901 46.977 123.147 47.3211L121.901 44.5922ZM132.273 43.2719C131.512 43.5998 130.63 43.2489 130.302 42.4881C129.974 41.7273 130.325 40.8448 131.086 40.5169L132.273 43.2719ZM134.754 38.9541C135.518 38.6326 136.397 38.991 136.719 39.7545C137.04 40.518 136.682 41.3975 135.918 41.719L134.754 38.9541ZM145.191 37.9287C144.421 38.2341 143.549 37.8575 143.243 37.0874C142.938 36.3174 143.315 35.4455 144.085 35.14L145.191 37.9287ZM147.812 33.6794C148.585 33.3803 149.453 33.7641 149.752 34.5367C150.052 35.3092 149.668 36.178 148.895 36.477L147.812 33.6794ZM158.19 32.9871C157.411 33.2704 156.551 32.869 156.267 32.0905C155.984 31.3121 156.386 30.4513 157.164 30.168L158.19 32.9871ZM160.961 28.8037C161.742 28.5268 162.599 28.9352 162.876 29.716C163.153 30.4967 162.745 31.3542 161.964 31.6311L160.961 28.8037ZM171.379 28.3979C170.593 28.6591 169.744 28.2335 169.483 27.4473C169.221 26.6611 169.647 25.812 170.433 25.5509L171.379 28.3979ZM174.234 24.3051C175.022 24.0502 175.868 24.4826 176.123 25.2708C176.378 26.0591 175.945 26.9047 175.157 27.1596L174.234 24.3051ZM184.724 24.172C183.931 24.411 183.094 23.9617 182.855 23.1685C182.616 22.3753 183.066 21.5385 183.859 21.2995L184.724 24.172ZM187.681 20.1646C188.476 19.9319 189.309 20.3878 189.542 21.1829C189.774 21.978 189.319 22.8111 188.523 23.0438L187.681 20.1646ZM198.093 20.3463C197.293 20.5632 196.469 20.0908 196.252 19.2912C196.035 18.4917 196.508 17.6677 197.307 17.4509L198.093 20.3463ZM201.201 16.4116C202.002 16.2011 202.823 16.6801 203.033 17.4813C203.243 18.2826 202.764 19.1027 201.963 19.3132L201.201 16.4116ZM211.62 16.8794C210.814 17.0739 210.004 16.5787 209.81 15.7735C209.615 14.9682 210.11 14.1577 210.915 13.9633L211.62 16.8794ZM214.807 13.0398C215.614 12.8518 216.421 13.3534 216.609 14.1602C216.797 14.967 216.295 15.7735 215.488 15.9615L214.807 13.0398ZM225.254 13.7883C224.443 13.9602 223.647 13.4425 223.475 12.6321C223.303 11.8217 223.821 11.0254 224.631 10.8536L225.254 13.7883ZM228.556 10.0377C229.368 9.8724 230.16 10.3964 230.325 11.2082C230.491 12.0199 229.967 12.812 229.155 12.9774L228.556 10.0377ZM238.908 11.092C238.094 11.2411 237.312 10.7013 237.163 9.88639C237.014 9.07148 237.554 8.29002 238.369 8.14095L238.908 11.092ZM242.327 7.43335C243.143 7.29086 243.92 7.83691 244.063 8.653C244.205 9.46908 243.659 10.2462 242.843 10.3886L242.327 7.43335ZM252.689 8.77198C251.87 8.89791 251.104 8.33623 250.978 7.51743C250.852 6.69863 251.414 5.93277 252.233 5.80684L252.689 8.77198ZM256.184 5.21554C257.004 5.09624 257.765 5.6641 257.884 6.48389C258.003 7.30368 257.436 8.06497 256.616 8.18427L256.184 5.21554ZM266.504 6.84814C265.682 6.95066 264.933 6.36736 264.83 5.5453C264.728 4.72325 265.311 3.97372 266.133 3.8712L266.504 6.84814ZM270.141 3.38818C270.964 3.29245 271.708 3.88192 271.804 4.7048C271.9 5.52767 271.31 6.27235 270.488 6.36808L270.141 3.38818ZM280.359 5.32224C279.534 5.40104 278.802 4.79639 278.723 3.97172C278.644 3.14705 279.249 2.41464 280.074 2.33584L280.359 5.32224ZM284.068 1.97089C284.893 1.89893 285.62 2.50963 285.692 3.33493C285.764 4.16022 285.154 4.88759 284.328 4.95955L284.068 1.97089ZM294.305 4.19478C293.478 4.24943 292.764 3.62363 292.709 2.797C292.654 1.97038 293.28 1.25597 294.107 1.20132L294.305 4.19478ZM298.087 0.954875C298.914 0.907125 299.623 1.53887 299.67 2.36592C299.718 3.19297 299.086 3.90214 298.259 3.94989L298.087 0.954875ZM308.199 3.48097C307.371 3.51127 306.675 2.86471 306.645 2.03684C306.615 1.20896 307.261 0.513276 308.089 0.482976L308.199 3.48097ZM312.111 0.352938C312.939 0.329696 313.629 0.982163 313.652 1.81026C313.675 2.63836 313.023 3.32851 312.195 3.35176L312.111 0.352938ZM322.157 3.17854C321.329 3.18407 320.653 2.517 320.647 1.68859C320.642 0.860183 321.309 0.18414 322.137 0.178607L322.157 3.17854ZM326.137 0.16904C326.965 0.170615 327.636 0.843463 327.634 1.67189C327.632 2.50031 326.96 3.17061 326.131 3.16903L326.137 0.16904ZM336.108 3.29598C335.28 3.27645 334.624 2.58923 334.644 1.76103C334.664 0.932836 335.351 0.277282 336.179 0.296812L336.108 3.29598ZM340.212 0.409589C341.04 0.436375 341.69 1.12931 341.663 1.9573C341.636 2.7853 340.943 3.43481 340.115 3.40802L340.212 0.409589ZM350.032 3.83705C349.204 3.7922 348.57 3.08525 348.615 2.25804C348.66 1.43082 349.367 0.796595 350.194 0.841446L350.032 3.83705ZM354.197 1.07619C355.024 1.12833 355.652 1.84084 355.6 2.66763C355.548 3.49441 354.835 4.12239 354.009 4.07025L354.197 1.07619ZM363.984 4.81064C363.158 4.74012 362.546 4.01381 362.617 3.18839C362.687 2.36297 363.414 1.75101 364.239 1.82153L363.984 4.81064ZM368.217 2.17922C369.042 2.25706 369.648 2.98877 369.57 3.81353C369.492 4.63829 368.76 5.24379 367.935 5.16594L368.217 2.17922ZM377.819 6.21031C376.997 6.11404 376.408 5.36898 376.504 4.54617C376.6 3.72335 377.345 3.13437 378.168 3.23063L377.819 6.21031ZM382.159 3.71576C382.981 3.81944 383.563 4.56979 383.459 5.3917C383.356 6.21362 382.605 6.79585 381.783 6.69217L382.159 3.71576ZM391.67 8.05323C390.85 7.93095 390.285 7.1676 390.408 6.34824C390.53 5.52889 391.293 4.96381 392.113 5.0861L391.67 8.05323ZM396.059 5.6934C396.878 5.8231 397.436 6.59153 397.306 7.40974C397.176 8.22795 396.408 8.7861 395.59 8.65641L396.059 5.6934ZM405.408 10.3277C404.593 10.1793 404.052 9.39835 404.201 8.58331C404.349 7.76827 405.13 7.2278 405.945 7.37613L405.408 10.3277ZM409.906 8.11589C410.72 8.27172 411.253 9.05762 411.097 9.87126C410.941 10.6849 410.155 11.2182 409.342 11.0623L409.906 8.11589ZM419.09 13.0455C418.28 12.871 417.765 12.0731 417.94 11.2633C418.114 10.4534 418.912 9.93833 419.722 10.1128L419.09 13.0455ZM423.629 10.9732C424.437 11.1551 424.945 11.9578 424.763 12.766C424.581 13.5742 423.778 14.0819 422.97 13.9L423.629 10.9732ZM432.68 16.2039C431.876 16.0033 431.387 15.1891 431.588 14.3853C431.788 13.5816 432.602 13.0926 433.406 13.2931L432.68 16.2039ZM437.321 14.2894C438.123 14.4975 438.604 15.3162 438.396 16.1181C438.188 16.92 437.369 17.4014 436.567 17.1933L437.321 14.2894ZM446.135 19.7943C445.338 19.5677 444.876 18.7381 445.103 17.9413C445.329 17.1444 446.159 16.6821 446.956 16.9086L446.135 19.7943ZM450.805 18.0223C451.6 18.2562 452.054 19.0901 451.82 19.8848C451.586 20.6795 450.753 21.1341 449.958 20.9002L450.805 18.0223ZM459.517 23.8358C458.728 23.5833 458.293 22.7391 458.545 21.95C458.798 21.161 459.642 20.726 460.431 20.9784L459.517 23.8358ZM464.256 22.2218C465.043 22.4815 465.47 23.3298 465.21 24.1165C464.95 24.9031 464.102 25.3302 463.315 25.0704L464.256 22.2218ZM472.688 28.2862C471.907 28.0083 471.5 27.1504 471.778 26.37C472.056 25.5895 472.914 25.1822 473.694 25.4601L472.688 28.2862ZM477.469 26.824C478.246 27.1091 478.646 27.9708 478.361 28.7486C478.075 29.5264 477.214 29.9258 476.436 29.6407L477.469 26.824ZM485.803 33.1994C485.032 32.8962 484.653 32.0254 484.956 31.2544C485.259 30.4835 486.13 30.1044 486.901 30.4076L485.803 33.1994ZM490.606 31.8847C491.374 32.195 491.745 33.0693 491.435 33.8374C491.124 34.6055 490.25 34.9766 489.482 34.6662L490.606 31.8847ZM498.634 38.4871C497.873 38.1591 497.522 37.2766 497.85 36.5158C498.178 35.7551 499.061 35.4042 499.821 35.7321L498.634 38.4871ZM503.504 37.34C504.262 37.6749 504.605 38.5607 504.27 39.3184C503.935 40.0761 503.049 40.4188 502.291 40.0838L503.504 37.34ZM511.415 44.2441C510.665 43.8917 510.343 42.9983 510.696 42.2485C511.048 41.4988 511.941 41.1767 512.691 41.5291L511.415 44.2441ZM516.277 43.2346C517.024 43.5938 517.338 44.4901 516.979 45.2366C516.62 45.9831 515.723 46.2971 514.977 45.938L516.277 43.2346ZM523.869 50.3414C523.131 49.9654 522.837 49.0622 523.213 48.324C523.589 47.5858 524.492 47.2922 525.231 47.6683L523.869 50.3414ZM528.806 49.5104C529.541 49.8931 529.826 50.799 529.444 51.5337C529.061 52.2684 528.155 52.5537 527.42 52.171L528.806 49.5104ZM536.259 56.9037C535.533 56.5044 535.268 55.5923 535.668 54.8664C536.067 54.1406 536.979 53.8759 537.705 54.2752L536.259 56.9037ZM541.174 56.2036C541.896 56.6093 542.153 57.5237 541.747 58.246C541.341 58.9683 540.427 59.2249 539.704 58.8191L541.174 56.2036ZM548.301 63.7747C547.588 63.3531 547.352 62.4332 547.773 61.7201C548.195 61.007 549.115 60.7707 549.828 61.1924L548.301 63.7747ZM553.282 63.2557C553.992 63.6837 554.22 64.6056 553.792 65.3149C553.364 66.0243 552.442 66.2524 551.733 65.8244L553.282 63.2557ZM560.269 71.1045C559.569 70.6609 559.362 69.7342 559.805 69.0345C560.249 68.3348 561.175 68.1272 561.875 68.5707L560.269 71.1045ZM565.213 70.707C565.909 71.1565 566.109 72.085 565.659 72.7809C565.21 73.4767 564.281 73.6764 563.585 73.2268L565.213 70.707ZM571.855 78.6967C571.169 78.2323 570.99 77.2997 571.454 76.6137C571.918 75.9276 572.851 75.7479 573.537 76.2123L571.855 78.6967ZM576.858 78.4809C577.54 78.9512 577.711 79.8853 577.241 80.5673C576.771 81.2493 575.837 81.421 575.155 80.9508L576.858 78.4809ZM583.38 86.7531C582.708 86.2683 582.556 85.3308 583.041 84.659C583.526 83.9872 584.463 83.8355 585.135 84.3203L583.38 86.7531ZM588.333 86.6482C589.001 87.1385 589.145 88.0773 588.655 88.745C588.164 89.4128 587.226 89.5567 586.558 89.0664L588.333 86.6482ZM594.475 95.0064C593.818 94.5024 593.693 93.5609 594.197 92.9034C594.701 92.2459 595.643 92.1214 596.3 92.6253L594.475 95.0064ZM599.477 95.0808C600.13 95.5901 600.247 96.5327 599.737 97.186C599.228 97.8394 598.285 97.9561 597.632 97.4468L599.477 95.0808ZM605.498 103.71C604.855 103.188 604.758 102.243 605.281 101.6C605.803 100.957 606.748 100.86 607.391 101.383L605.498 103.71ZM610.612 104.027C611.249 104.556 611.337 105.502 610.807 106.139C610.278 106.776 609.332 106.864 608.695 106.334L610.612 104.027ZM616.533 113.06C615.914 112.51 615.857 111.562 616.407 110.943C616.956 110.323 617.905 110.266 618.524 110.816L616.533 113.06ZM621.55 113.536C622.162 114.094 622.206 115.043 621.648 115.655C621.09 116.268 620.141 116.312 619.529 115.754L621.55 113.536ZM626.675 122.494C626.082 121.915 626.071 120.965 626.65 120.373C627.229 119.78 628.179 119.769 628.772 120.348L626.675 122.494ZM631.623 123.176C632.207 123.763 632.204 124.713 631.616 125.297C631.029 125.881 630.079 125.878 629.495 125.29L631.623 123.176ZM636.609 132.745C636.05 132.134 636.092 131.185 636.703 130.626C637.314 130.066 638.263 130.108 638.822 130.719L636.609 132.745ZM641.54 133.739C642.089 134.36 642.031 135.308 641.411 135.857C640.79 136.406 639.842 136.348 639.293 135.727L641.54 133.739ZM645.608 143.181C645.087 142.538 645.186 141.593 645.83 141.072C646.474 140.55 647.418 140.65 647.94 141.293L645.608 143.181ZM650.546 144.576C651.054 145.23 650.936 146.173 650.283 146.681C649.629 147.19 648.686 147.072 648.178 146.418L650.546 144.576ZM654.214 154.596C653.74 153.917 653.905 152.982 654.584 152.507C655.264 152.033 656.199 152.199 656.673 152.878L654.214 154.596ZM658.941 156.197C659.401 156.886 659.216 157.817 658.527 158.277C657.838 158.737 656.906 158.552 656.446 157.863L658.941 156.197ZM661.747 166.298C661.326 165.585 661.564 164.665 662.278 164.245C662.992 163.824 663.911 164.062 664.332 164.775L661.747 166.298ZM666.398 168.381C666.801 169.105 666.541 170.019 665.817 170.422C665.093 170.825 664.18 170.565 663.777 169.841L666.398 168.381ZM668.343 178.672C667.986 177.925 668.302 177.029 669.05 176.672C669.798 176.315 670.693 176.632 671.05 177.38L668.343 178.672ZM672.716 180.989C673.054 181.746 672.714 182.633 671.958 182.97C671.201 183.308 670.314 182.968 669.977 182.211L672.716 180.989ZM673.792 191.636C673.509 190.858 673.911 189.997 674.689 189.714C675.468 189.431 676.328 189.832 676.612 190.61L673.792 191.636ZM677.945 194.445C678.206 195.232 677.78 196.081 676.994 196.341C676.207 196.602 675.359 196.176 675.098 195.39L677.945 194.445ZM677.879 204.948C677.678 204.145 678.166 203.33 678.97 203.129C679.773 202.927 680.588 203.416 680.789 204.219L677.879 204.948ZM681.73 208.238C681.906 209.048 681.393 209.847 680.583 210.023C679.774 210.199 678.975 209.685 678.799 208.876L681.73 208.238ZM680.525 218.633C680.413 217.812 680.988 217.056 681.809 216.944C682.63 216.832 683.386 217.406 683.498 218.227L680.525 218.633ZM683.989 222.316C684.074 223.14 683.476 223.877 682.652 223.963C681.828 224.048 681.09 223.45 681.005 222.626L683.989 222.316ZM681.632 232.615C681.613 231.787 682.27 231.101 683.098 231.083C683.927 231.065 684.613 231.721 684.631 232.55L681.632 232.615ZM684.654 236.609C684.645 237.438 683.967 238.102 683.139 238.094C682.31 238.085 681.646 237.406 681.654 236.578L684.654 236.609ZM681.144 246.576C681.219 245.751 681.949 245.144 682.774 245.219C683.599 245.295 684.207 246.025 684.131 246.85L681.144 246.576ZM683.692 250.915C683.591 251.738 682.841 252.321 682.019 252.219C681.197 252.117 680.613 251.368 680.715 250.546L683.692 250.915ZM679.099 260.395C679.265 259.583 680.057 259.059 680.869 259.225C681.68 259.391 682.204 260.184 682.038 260.995L679.099 260.395ZM681.157 264.992C680.967 265.798 680.159 266.297 679.353 266.106C678.546 265.916 678.047 265.108 678.238 264.302L681.157 264.992ZM675.575 273.944C675.825 273.154 676.668 272.716 677.457 272.966C678.247 273.215 678.685 274.058 678.436 274.848L675.575 273.944ZM677.151 278.719C676.879 279.501 676.024 279.915 675.241 279.643C674.459 279.371 674.045 278.516 674.317 277.734L677.151 278.719ZM670.7 287.075C671.026 286.313 671.907 285.959 672.669 286.284C673.431 286.61 673.785 287.491 673.459 288.253L670.7 287.075ZM671.802 291.995C671.457 292.748 670.567 293.079 669.814 292.733C669.061 292.388 668.73 291.498 669.076 290.745L671.802 291.995ZM664.62 299.694C665.013 298.965 665.922 298.691 666.652 299.083C667.381 299.475 667.655 300.385 667.263 301.114L664.62 299.694ZM665.28 304.698C664.87 305.418 663.955 305.67 663.235 305.26C662.515 304.85 662.263 303.934 662.673 303.214L665.28 304.698ZM657.467 311.769C657.918 311.073 658.847 310.875 659.542 311.326C660.237 311.777 660.435 312.706 659.984 313.401L657.467 311.769ZM657.727 316.798C657.261 317.483 656.328 317.66 655.643 317.194C654.958 316.728 654.781 315.795 655.247 315.11L657.727 316.798ZM649.369 323.268C649.87 322.609 650.812 322.482 651.471 322.983C652.13 323.485 652.257 324.426 651.755 325.085L649.369 323.268ZM649.262 328.292C648.747 328.94 647.804 329.049 647.155 328.534C646.506 328.018 646.398 327.075 646.913 326.426L649.262 328.292ZM640.465 334.147C641.011 333.524 641.959 333.462 642.582 334.008C643.204 334.555 643.266 335.502 642.72 336.125L640.465 334.147ZM640.001 339.166C639.443 339.778 638.495 339.822 637.882 339.264C637.27 338.707 637.226 337.758 637.784 337.145L640.001 339.166ZM630.86 344.403C631.446 343.817 632.395 343.816 632.982 344.401C633.568 344.986 633.569 345.936 632.984 346.522L630.86 344.403ZM630.074 349.387C629.479 349.963 628.529 349.947 627.953 349.352C627.377 348.757 627.393 347.807 627.988 347.231L630.074 349.387ZM620.618 354.061C621.237 353.511 622.185 353.567 622.735 354.187C623.286 354.806 623.229 355.754 622.61 356.304L620.618 354.061ZM619.544 358.982C618.916 359.522 617.969 359.45 617.429 358.821C616.889 358.193 616.961 357.246 617.59 356.706L619.544 358.982ZM609.819 363.111C610.469 362.597 611.412 362.707 611.926 363.357C612.44 364.006 612.33 364.95 611.68 365.464L609.819 363.111ZM608.471 367.961C607.813 368.464 606.872 368.339 606.368 367.681C605.865 367.024 605.99 366.082 606.647 365.579L608.471 367.961ZM598.543 371.537C599.219 371.059 600.155 371.22 600.633 371.897C601.111 372.574 600.949 373.51 600.272 373.988L598.543 371.537ZM596.927 376.31C596.243 376.777 595.31 376.602 594.843 375.918C594.375 375.233 594.551 374.3 595.235 373.833L596.927 376.31ZM586.818 379.351C587.519 378.91 588.445 379.121 588.886 379.822C589.327 380.524 589.116 381.45 588.415 381.891L586.818 379.351ZM584.955 384.03C584.248 384.46 583.325 384.235 582.894 383.528C582.464 382.82 582.689 381.897 583.397 381.467L584.955 384.03ZM574.698 386.536C575.421 386.132 576.335 386.392 576.738 387.115C577.142 387.839 576.883 388.752 576.159 389.156L574.698 386.536ZM572.587 391.114C571.857 391.507 570.948 391.234 570.555 390.505C570.162 389.775 570.435 388.865 571.164 388.473L572.587 391.114ZM562.241 393.064C562.985 392.699 563.884 393.006 564.249 393.749C564.614 394.493 564.307 395.392 563.564 395.757L562.241 393.064ZM559.875 397.533C559.126 397.887 558.232 397.566 557.878 396.817C557.525 396.068 557.845 395.174 558.594 394.82L559.875 397.533ZM549.415 398.942C550.177 398.617 551.058 398.972 551.383 399.734C551.707 400.496 551.353 401.377 550.591 401.702L549.415 398.942ZM546.856 403.258C546.089 403.571 545.214 403.203 544.901 402.436C544.588 401.669 544.956 400.793 545.723 400.48L546.856 403.258ZM536.296 404.107C537.075 403.825 537.935 404.228 538.217 405.007C538.499 405.786 538.095 406.646 537.316 406.928L536.296 404.107ZM533.485 408.278C532.702 408.547 531.848 408.129 531.58 407.346C531.311 406.562 531.728 405.709 532.511 405.44L533.485 408.278ZM522.933 408.504C523.727 408.268 524.562 408.721 524.798 409.516C525.033 410.31 524.58 411.145 523.786 411.38L522.933 408.504ZM519.855 412.507C519.056 412.729 518.23 412.261 518.008 411.463C517.787 410.664 518.255 409.838 519.053 409.617L519.855 412.507ZM509.37 412.067C510.178 411.883 510.982 412.388 511.167 413.195C511.351 414.003 510.847 414.807 510.039 414.992L509.37 412.067ZM506.007 415.873C505.196 416.042 504.402 415.521 504.233 414.71C504.064 413.899 504.585 413.105 505.396 412.936L506.007 415.873ZM495.536 414.733C496.355 414.606 497.122 415.166 497.249 415.984C497.377 416.803 496.817 417.57 495.998 417.697L495.536 414.733ZM491.984 418.28C491.163 418.39 490.408 417.813 490.298 416.992C490.188 416.171 490.765 415.416 491.586 415.306L491.984 418.28ZM481.555 416.362C482.381 416.3 483.101 416.919 483.164 417.745C483.226 418.571 482.608 419.291 481.781 419.354L481.555 416.362ZM477.754 419.61C476.927 419.652 476.222 419.016 476.179 418.189C476.137 417.362 476.773 416.656 477.6 416.614L477.754 419.61ZM467.526 416.802C468.354 416.814 469.016 417.496 469.003 418.325C468.99 419.153 468.308 419.814 467.48 419.801L467.526 416.802ZM463.419 419.682C462.591 419.646 461.949 418.946 461.986 418.118C462.022 417.29 462.722 416.649 463.55 416.685L463.419 419.682ZM453.564 415.865C454.386 415.965 454.971 416.713 454.87 417.536C454.77 418.358 454.021 418.943 453.199 418.842L453.564 415.865ZM449.148 418.277C448.33 418.149 447.77 417.381 447.899 416.563C448.027 415.744 448.795 415.185 449.613 415.314L449.148 418.277ZM439.845 413.323C440.648 413.527 441.134 414.343 440.931 415.146C440.727 415.949 439.911 416.434 439.108 416.231L439.845 413.323ZM435.143 415.14C434.349 414.904 433.897 414.069 434.133 413.275C434.369 412.481 435.204 412.028 435.998 412.264L435.143 415.14ZM426.65 408.927C427.414 409.249 427.772 410.129 427.45 410.892C427.128 411.655 426.248 412.013 425.485 411.691L426.65 408.927ZM421.723 409.999C420.976 409.641 420.66 408.745 421.018 407.998C421.376 407.251 422.272 406.935 423.019 407.293L421.723 409.999ZM414.385 402.468C415.081 402.918 415.28 403.846 414.83 404.542C414.379 405.237 413.451 405.436 412.755 404.986L414.385 402.468ZM409.35 402.651C408.68 402.164 408.532 401.226 409.019 400.555C409.506 399.885 410.444 399.737 411.114 400.224L409.35 402.651ZM403.55 393.884C404.146 394.459 404.163 395.409 403.587 396.005C403.012 396.601 402.063 396.618 401.466 396.042L403.55 393.884ZM398.581 393.096C398.018 392.487 398.055 391.538 398.663 390.976C399.271 390.413 400.22 390.45 400.783 391.058L398.581 393.096ZM394.602 383.358C395.074 384.038 394.906 384.973 394.225 385.446C393.545 385.918 392.61 385.75 392.138 385.069L394.602 383.358ZM389.888 381.635C389.453 380.93 389.672 380.005 390.377 379.57C391.082 379.135 392.006 379.354 392.441 380.059L389.888 381.635ZM387.789 371.292C388.13 372.047 387.795 372.935 387.04 373.277C386.285 373.618 385.397 373.283 385.055 372.528L387.789 371.292ZM383.471 368.791C383.165 368.021 383.542 367.149 384.312 366.844C385.082 366.538 385.954 366.915 386.259 367.685L383.471 368.791ZM383.086 358.141C383.305 358.94 382.834 359.765 382.035 359.984C381.236 360.202 380.411 359.732 380.192 358.932L383.086 358.141ZM379.219 355.079C379.032 354.272 379.534 353.466 380.341 353.279C381.148 353.091 381.954 353.593 382.141 354.4L379.219 355.079ZM380.32 344.478C380.433 345.298 379.86 346.055 379.039 346.168C378.219 346.282 377.462 345.708 377.348 344.887L380.32 344.478ZM376.833 340.642C376.746 339.818 377.342 339.079 378.166 338.992C378.99 338.904 379.729 339.5 379.817 340.324L376.833 340.642ZM379.094 330.301C379.124 331.129 378.477 331.824 377.649 331.854C376.821 331.884 376.126 331.237 376.096 330.409L379.094 330.301ZM376.012 326.462C376.007 325.634 376.674 324.958 377.503 324.953C378.331 324.948 379.007 325.615 379.012 326.443L376.012 326.462ZM379.366 316.418C379.301 317.244 378.578 317.86 377.752 317.795C376.926 317.73 376.31 317.008 376.375 316.182L379.366 316.418ZM376.764 312.178C376.859 311.355 377.603 310.765 378.426 310.86C379.249 310.956 379.839 311.7 379.744 312.523L376.764 312.178ZM381.367 302.749C381.19 303.558 380.39 304.07 379.581 303.892C378.771 303.714 378.26 302.915 378.437 302.105L381.367 302.749ZM379.395 298.152C379.607 297.352 380.429 296.875 381.23 297.088C382.03 297.3 382.507 298.122 382.294 298.922L379.395 298.152ZM385.366 289.563C385.062 290.333 384.19 290.711 383.42 290.406C382.65 290.102 382.272 289.23 382.577 288.46L385.366 289.563ZM384.172 284.699C384.515 283.944 385.404 283.61 386.158 283.953C386.913 284.295 387.247 285.184 386.904 285.939L384.172 284.699ZM391.531 277.268C391.094 277.972 390.17 278.188 389.465 277.752C388.761 277.315 388.545 276.39 388.981 275.686L391.531 277.268ZM391.228 272.268C391.702 271.588 392.636 271.421 393.316 271.894C393.996 272.367 394.164 273.302 393.691 273.982L391.228 272.268ZM399.824 266.306C399.265 266.918 398.317 266.961 397.705 266.402C397.093 265.844 397.05 264.895 397.609 264.283L399.824 266.306ZM400.449 261.331C401.039 260.75 401.989 260.756 402.57 261.346C403.152 261.936 403.146 262.885 402.556 263.467L400.449 261.331ZM409.98 257.017C409.322 257.521 408.381 257.396 407.877 256.738C407.373 256.08 407.498 255.139 408.156 254.635L409.98 257.017ZM411.476 252.218C412.157 251.747 413.092 251.916 413.563 252.598C414.035 253.279 413.865 254.213 413.183 254.685L411.476 252.218ZM421.585 249.548C420.856 249.941 419.946 249.668 419.553 248.938C419.161 248.209 419.434 247.299 420.163 246.907L421.585 249.548ZM423.827 245.033C424.573 244.671 425.47 244.982 425.832 245.727C426.194 246.473 425.883 247.37 425.137 247.732L423.827 245.033ZM434.208 243.866C433.432 244.154 432.568 243.759 432.28 242.982C431.991 242.206 432.387 241.342 433.163 241.054L434.208 243.866ZM437.047 239.69C437.834 239.429 438.682 239.856 438.943 240.642C439.203 241.429 438.777 242.277 437.99 242.538L437.047 239.69ZM447.486 239.826C446.681 240.021 445.87 239.527 445.674 238.722C445.479 237.917 445.973 237.106 446.778 236.911L447.486 239.826ZM450.784 236.004C451.595 235.833 452.39 236.352 452.561 237.163C452.731 237.973 452.212 238.769 451.402 238.939L450.784 236.004ZM461.153 237.247C460.333 237.36 459.576 236.787 459.462 235.967C459.348 235.146 459.922 234.389 460.742 234.275L461.153 237.247ZM464.799 233.768C465.622 233.676 466.364 234.269 466.456 235.092C466.548 235.916 465.955 236.658 465.132 236.75L464.799 233.768ZM475.03 235.951C474.203 235.993 473.498 235.357 473.456 234.529C473.414 233.702 474.051 232.997 474.879 232.955L475.03 235.951ZM478.94 232.796C479.768 232.773 480.458 233.426 480.481 234.254C480.504 235.082 479.851 235.772 479.023 235.795L478.94 232.796ZM488.996 235.788C488.168 235.766 487.513 235.078 487.535 234.25C487.556 233.422 488.245 232.767 489.073 232.789L488.996 235.788ZM493.108 232.933C493.936 232.971 494.576 233.672 494.538 234.5C494.5 235.328 493.798 235.968 492.971 235.93L493.108 232.933ZM502.966 236.631C502.141 236.554 501.536 235.822 501.613 234.997C501.691 234.173 502.422 233.567 503.247 233.645L502.966 236.631ZM507.238 234.057C508.062 234.149 508.654 234.891 508.562 235.715C508.469 236.538 507.727 237.13 506.904 237.038L507.238 234.057ZM516.855 238.379C516.037 238.251 515.477 237.483 515.606 236.665C515.734 235.846 516.502 235.287 517.32 235.415L516.855 238.379ZM521.281 236.071C522.097 236.213 522.644 236.989 522.502 237.806C522.36 238.622 521.583 239.168 520.767 239.026L521.281 236.071ZM530.561 240.935C529.751 240.76 529.236 239.962 529.411 239.153C529.585 238.343 530.383 237.828 531.193 238.002L530.561 240.935ZM535.182 238.896C535.989 239.083 536.491 239.889 536.304 240.696C536.117 241.503 535.31 242.005 534.503 241.818L535.182 238.896ZM544.139 244.248C543.34 244.031 542.868 243.207 543.086 242.407C543.304 241.608 544.128 241.136 544.927 241.354L544.139 244.248ZM548.833 242.448C549.629 242.677 550.088 243.508 549.859 244.305C549.63 245.101 548.798 245.56 548.002 245.331L548.833 242.448ZM557.558 248.272C556.771 248.014 556.341 247.166 556.599 246.379C556.857 245.592 557.704 245.163 558.491 245.42L557.558 248.272ZM562.313 246.702C563.096 246.971 563.514 247.824 563.245 248.607C562.976 249.391 562.123 249.808 561.339 249.539L562.313 246.702ZM570.782 252.965C570.008 252.669 569.621 251.801 569.917 251.028C570.213 250.254 571.08 249.867 571.854 250.163L570.782 252.965ZM575.59 251.621C576.36 251.927 576.736 252.8 576.429 253.569C576.123 254.339 575.251 254.715 574.481 254.408L575.59 251.621ZM583.706 258.262C582.947 257.93 582.601 257.046 582.933 256.287C583.265 255.528 584.15 255.182 584.909 255.514L583.706 258.262ZM588.623 257.17C589.377 257.512 589.711 258.401 589.369 259.156C589.027 259.91 588.138 260.244 587.383 259.902L588.623 257.17ZM596.389 264.171C595.647 263.803 595.342 262.904 595.709 262.161C596.077 261.419 596.976 261.114 597.719 261.481L596.389 264.171ZM601.333 263.298C602.07 263.675 602.363 264.578 601.986 265.316C601.609 266.054 600.705 266.346 599.968 265.969L601.333 263.298ZM608.806 270.671C608.081 270.27 607.819 269.357 608.22 268.632C608.621 267.908 609.533 267.645 610.258 268.046L608.806 270.671ZM613.771 270.02C614.491 270.431 614.741 271.347 614.33 272.066C613.92 272.786 613.004 273.036 612.284 272.626L613.771 270.02ZM620.902 277.734C620.196 277.3 619.976 276.376 620.41 275.67C620.845 274.965 621.768 274.745 622.474 275.179L620.902 277.734ZM625.9 277.319C626.6 277.762 626.808 278.689 626.364 279.389C625.921 280.089 624.994 280.296 624.295 279.853L625.9 277.319ZM632.639 285.337C631.954 284.871 631.777 283.938 632.244 283.253C632.71 282.568 633.643 282.392 634.328 282.858L632.639 285.337ZM637.658 285.16C638.336 285.635 638.5 286.571 638.024 287.249C637.549 287.927 636.613 288.092 635.935 287.616L637.658 285.16ZM644.021 293.492C643.359 292.994 643.227 292.053 643.725 291.391C644.223 290.73 645.164 290.597 645.826 291.095L644.021 293.492ZM649.035 293.545C649.69 294.053 649.809 294.995 649.302 295.65C648.795 296.305 647.853 296.424 647.198 295.917L649.035 293.545ZM655.01 302.185C654.373 301.655 654.285 300.709 654.815 300.072C655.344 299.435 656.29 299.348 656.927 299.877L655.01 302.185ZM660.009 302.475C660.639 303.013 660.713 303.96 660.174 304.59C659.636 305.22 658.689 305.294 658.06 304.755L660.009 302.475ZM665.54 311.381C664.93 310.821 664.889 309.872 665.449 309.261C666.009 308.651 666.958 308.61 667.568 309.171L665.54 311.381ZM670.531 311.929C671.134 312.498 671.161 313.447 670.592 314.05C670.023 314.652 669.074 314.679 668.471 314.11L670.531 311.929ZM675.607 321.097C675.026 320.507 675.033 319.557 675.623 318.976C676.214 318.395 677.163 318.402 677.745 318.992L675.607 321.097ZM680.559 321.892C681.132 322.491 681.111 323.44 680.512 324.013C679.913 324.585 678.964 324.564 678.391 323.965L680.559 321.892ZM685.169 331.321C684.619 330.702 684.676 329.754 685.295 329.204C685.915 328.654 686.863 328.711 687.413 329.33L685.169 331.321ZM690.068 332.368C690.609 332.996 690.538 333.943 689.91 334.484C689.282 335.024 688.335 334.953 687.795 334.325L690.068 332.368ZM694.167 342.021C693.651 341.373 693.758 340.429 694.406 339.913C695.054 339.397 695.998 339.504 696.514 340.152L694.167 342.021ZM699.012 343.342C699.518 343.998 699.396 344.94 698.74 345.445C698.084 345.951 697.142 345.829 696.636 345.173L699.012 343.342ZM702.57 353.191C702.091 352.516 702.25 351.58 702.925 351.1C703.601 350.621 704.537 350.779 705.017 351.455L702.57 353.191ZM707.331 354.772C707.8 355.455 707.626 356.388 706.943 356.857C706.259 357.326 705.326 357.152 704.857 356.469L707.331 354.772ZM710.343 364.824C709.903 364.123 710.115 363.197 710.816 362.756C711.518 362.316 712.444 362.528 712.884 363.229L710.343 364.824ZM715.001 366.663C715.43 367.372 715.203 368.294 714.494 368.723C713.785 369.152 712.863 368.925 712.434 368.216L715.001 366.663ZM717.427 376.869C717.028 376.143 717.293 375.231 718.019 374.832C718.745 374.433 719.657 374.698 720.056 375.424L717.427 376.869ZM721.981 378.999C722.368 379.732 722.087 380.639 721.354 381.025C720.622 381.412 719.714 381.132 719.328 380.399L721.981 378.999ZM723.786 389.299C723.431 388.551 723.749 387.656 724.498 387.301C725.246 386.946 726.141 387.265 726.496 388.013L723.786 389.299ZM728.2 391.685C728.542 392.44 728.208 393.329 727.453 393.671C726.699 394.013 725.81 393.679 725.468 392.924L728.2 391.685ZM729.399 402.116C729.09 401.347 729.462 400.474 730.231 400.165C731 399.855 731.873 400.228 732.182 400.996L729.399 402.116ZM733.652 404.745C733.948 405.518 733.561 406.386 732.787 406.681C732.013 406.977 731.146 406.59 730.85 405.816L733.652 404.745ZM734.211 415.222C733.95 414.436 734.375 413.587 735.161 413.326C735.947 413.064 736.796 413.489 737.058 414.275L734.211 415.222ZM738.309 418.151C738.557 418.942 738.117 419.783 737.326 420.031C736.536 420.278 735.694 419.838 735.446 419.048L738.309 418.151ZM738.206 428.587C737.993 427.786 738.47 426.965 739.271 426.752C740.071 426.539 740.893 427.016 741.106 427.817L738.206 428.587ZM742.11 431.737C742.309 432.541 741.818 433.354 741.014 433.553C740.209 433.751 739.396 433.26 739.198 432.456L742.11 431.737ZM741.386 442.24C741.223 441.427 741.749 440.637 742.562 440.474C743.374 440.311 744.164 440.837 744.327 441.65L741.386 442.24ZM745.081 445.584C745.23 446.399 744.69 447.18 743.875 447.329C743.06 447.478 742.279 446.938 742.13 446.123L745.081 445.584ZM743.708 455.97C743.595 455.149 744.168 454.392 744.989 454.279C745.81 454.166 746.567 454.739 746.68 455.56L743.708 455.97ZM747.203 459.605C747.302 460.428 746.715 461.175 745.893 461.274C745.071 461.373 744.323 460.786 744.224 459.964L747.203 459.605ZM745.202 469.853C745.138 469.027 745.756 468.306 746.582 468.242C747.408 468.178 748.129 468.795 748.193 469.621L745.202 469.853ZM748.47 473.641C748.52 474.468 747.891 475.179 747.064 475.229C746.237 475.279 745.526 474.649 745.476 473.822L748.47 473.641ZM745.872 483.871C745.857 483.043 746.516 482.359 747.344 482.343C748.172 482.328 748.856 482.987 748.872 483.815L745.872 483.871ZM748.918 487.871C748.924 488.699 748.257 489.375 747.429 489.381C746.6 489.387 745.924 488.72 745.918 487.891L748.918 487.871ZM745.906 497.791C745.914 496.963 746.592 496.298 747.42 496.306C748.248 496.313 748.914 496.991 748.906 497.82L745.906 497.791ZM748.856 501.777C748.843 502.606 748.161 503.267 747.333 503.254C746.504 503.24 745.843 502.558 745.856 501.73L748.856 501.777ZM745.622 511.563C745.648 510.735 746.341 510.085 747.169 510.112C747.997 510.138 748.647 510.831 748.621 511.659L745.622 511.563ZM748.481 515.643C748.449 516.471 747.752 517.117 746.924 517.085C746.097 517.053 745.451 516.356 745.483 515.529L748.481 515.643ZM745.026 525.384C745.071 524.557 745.778 523.923 746.605 523.968C747.433 524.013 748.067 524.72 748.022 525.547L745.026 525.384ZM747.795 529.485C747.745 530.312 747.034 530.941 746.207 530.891C745.38 530.841 744.751 530.13 744.801 529.303L747.795 529.485ZM744.124 539.164C744.187 538.338 744.908 537.72 745.734 537.783C746.56 537.847 747.178 538.567 747.115 539.393L744.124 539.164ZM746.799 543.353C746.73 544.178 746.005 544.792 745.18 544.724C744.354 544.655 743.74 543.93 743.809 543.105L746.799 543.353ZM742.919 552.893C743 552.068 743.735 551.466 744.559 551.547C745.383 551.629 745.986 552.363 745.904 553.188L742.919 552.893ZM745.502 557.135C745.415 557.959 744.677 558.557 743.853 558.47C743.029 558.383 742.431 557.645 742.518 556.821L745.502 557.135ZM741.406 566.655C741.506 565.832 742.253 565.246 743.075 565.346C743.898 565.445 744.484 566.193 744.384 567.015L741.406 566.655ZM743.897 570.94C743.793 571.762 743.042 572.343 742.22 572.238C741.398 572.134 740.817 571.383 740.921 570.561L743.897 570.94ZM739.602 580.325C739.719 579.505 740.479 578.936 741.299 579.053C742.119 579.17 742.689 579.93 742.572 580.75L739.602 580.325ZM741.996 584.69C741.874 585.509 741.111 586.074 740.291 585.952C739.472 585.83 738.907 585.066 739.029 584.247L741.996 584.69ZM737.501 593.978C737.636 593.161 738.407 592.607 739.225 592.742C740.042 592.877 740.596 593.649 740.461 594.466L737.501 593.978ZM739.809 598.347C739.67 599.164 738.894 599.712 738.078 599.573C737.261 599.433 736.713 598.658 736.852 597.841L739.809 598.347ZM735.107 607.599C735.259 606.785 736.043 606.248 736.857 606.4C737.671 606.552 738.208 607.335 738.056 608.15L735.107 607.599ZM737.318 612.041C737.161 612.855 736.374 613.387 735.561 613.23C734.747 613.073 734.215 612.287 734.372 611.473L737.318 612.041ZM732.438 621.118C732.607 620.307 733.401 619.787 734.212 619.956C735.023 620.125 735.544 620.919 735.375 621.73L732.438 621.118ZM734.55 625.632C734.376 626.442 733.579 626.957 732.769 626.784C731.959 626.61 731.443 625.812 731.617 625.002L734.55 625.632ZM729.478 634.629C729.663 633.821 730.468 633.317 731.276 633.503C732.083 633.689 732.587 634.494 732.402 635.301L729.478 634.629ZM731.509 639.134C731.318 639.941 730.51 640.44 729.704 640.25C728.898 640.059 728.398 639.252 728.589 638.445L731.509 639.134ZM726.243 648.071C726.445 647.268 727.26 646.78 728.063 646.982C728.867 647.184 729.354 647.999 729.152 648.803L726.243 648.071ZM728.175 652.642C727.969 653.445 727.151 653.927 726.348 653.721C725.546 653.514 725.063 652.696 725.27 651.894L728.175 652.642ZM722.749 661.402C722.967 660.603 723.791 660.132 724.591 660.35C725.39 660.568 725.861 661.392 725.643 662.192L722.749 661.402ZM724.582 666.037C724.359 666.835 723.532 667.302 722.734 667.079C721.936 666.857 721.47 666.029 721.692 665.231L724.582 666.037ZM718.977 674.707C719.211 673.912 720.045 673.457 720.839 673.691C721.634 673.925 722.089 674.759 721.855 675.553L718.977 674.707ZM720.736 679.32C720.498 680.113 719.661 680.564 718.868 680.325C718.074 680.087 717.624 679.251 717.862 678.457L720.736 679.32ZM714.943 687.94C715.192 687.15 716.035 686.711 716.825 686.961C717.615 687.21 718.053 688.052 717.804 688.843L714.943 687.94ZM716.604 692.611C716.35 693.4 715.505 693.833 714.717 693.58C713.928 693.326 713.494 692.481 713.748 691.693L716.604 692.611ZM710.666 701.055C710.93 700.27 711.781 699.847 712.566 700.112C713.351 700.376 713.774 701.227 713.509 702.012L710.666 701.055ZM712.228 705.783C711.959 706.567 711.106 706.984 710.322 706.716C709.539 706.447 709.121 705.594 709.39 704.81L712.228 705.783ZM706.14 714.085C706.42 713.305 707.278 712.899 708.058 713.178C708.838 713.457 709.244 714.316 708.965 715.096L706.14 714.085ZM707.616 718.833C707.332 719.612 706.471 720.013 705.693 719.73C704.914 719.447 704.513 718.586 704.797 717.807L707.616 718.833ZM701.349 727.084C701.643 726.309 702.509 725.919 703.284 726.213C704.058 726.507 704.448 727.373 704.154 728.147L701.349 727.084ZM702.75 731.823C702.452 732.596 701.584 732.981 700.811 732.683C700.038 732.385 699.652 731.517 699.95 730.744L702.75 731.823ZM696.329 739.962C696.637 739.193 697.51 738.819 698.279 739.127C699.048 739.435 699.422 740.308 699.114 741.077L696.329 739.962ZM697.632 744.75C697.32 745.518 696.445 745.887 695.677 745.575C694.91 745.263 694.541 744.388 694.853 743.621L697.632 744.75ZM691.086 752.718C691.408 751.954 692.287 751.597 693.051 751.918C693.814 752.24 694.172 753.12 693.85 753.883L691.086 752.718ZM692.29 757.555C691.964 758.317 691.083 758.67 690.321 758.345C689.56 758.019 689.206 757.137 689.532 756.376L692.29 757.555ZM685.616 765.372C685.951 764.614 686.837 764.272 687.595 764.608C688.352 764.943 688.694 765.829 688.359 766.587L685.616 765.372ZM686.73 770.238C686.391 770.993 685.503 771.331 684.747 770.992C683.992 770.652 683.654 769.764 683.993 769.009L686.73 770.238ZM679.891 777.992C680.24 777.24 681.132 776.914 681.883 777.263C682.634 777.612 682.961 778.504 682.612 779.255L679.891 777.992ZM680.956 782.798C680.603 783.548 679.71 783.87 678.96 783.517C678.21 783.164 677.889 782.271 678.241 781.521L680.956 782.798ZM673.952 790.491C674.314 789.746 675.212 789.436 675.957 789.798C676.702 790.16 677.013 791.057 676.651 791.802L673.952 790.491ZM674.925 795.332C674.559 796.075 673.66 796.381 672.917 796.016C672.173 795.65 671.867 794.751 672.233 794.008L674.925 795.332ZM667.803 802.872C668.178 802.133 669.081 801.838 669.82 802.213C670.558 802.588 670.853 803.491 670.478 804.23L667.803 802.872ZM668.683 807.746C668.304 808.483 667.4 808.773 666.663 808.395C665.926 808.016 665.636 807.112 666.014 806.375L668.683 807.746ZM661.446 815.136C661.833 814.404 662.741 814.125 663.473 814.512C664.205 814.9 664.485 815.807 664.097 816.54L661.446 815.136ZM662.233 820.04C661.842 820.77 660.933 821.045 660.203 820.654C659.473 820.263 659.198 819.354 659.589 818.624L662.233 820.04ZM654.881 827.288C655.281 826.562 656.193 826.298 656.918 826.698C657.644 827.098 657.908 828.011 657.508 828.736L654.881 827.288ZM655.578 832.216C655.175 832.939 654.261 833.199 653.538 832.795C652.814 832.392 652.555 831.478 652.958 830.755L655.578 832.216ZM648.108 839.33C648.52 838.612 649.437 838.363 650.155 838.775C650.874 839.187 651.122 840.104 650.71 840.823L648.108 839.33ZM648.719 844.275C648.303 844.991 647.385 845.235 646.669 844.82C645.952 844.404 645.708 843.486 646.124 842.769L648.719 844.275ZM641.127 851.266C641.552 850.554 642.472 850.321 643.184 850.745C643.895 851.17 644.128 852.09 643.704 852.802L641.127 851.266ZM641.659 856.213C641.232 856.923 640.31 857.151 639.6 856.724C638.891 856.296 638.662 855.374 639.09 854.665L641.659 856.213ZM633.943 863.09C634.379 862.386 635.303 862.168 636.008 862.604C636.712 863.04 636.93 863.965 636.494 864.669L633.943 863.09ZM634.408 868.02C633.968 868.723 633.043 868.936 632.341 868.496C631.638 868.057 631.425 867.131 631.865 866.429L634.408 868.02ZM626.568 874.784C627.016 874.087 627.944 873.885 628.641 874.333C629.338 874.78 629.54 875.708 629.092 876.405L626.568 874.784ZM626.989 879.663C626.538 880.358 625.61 880.555 624.915 880.105C624.22 879.654 624.022 878.725 624.473 878.03L626.989 879.663ZM619.044 886.291C619.503 885.602 620.434 885.415 621.124 885.874C621.813 886.333 622 887.264 621.541 887.953L619.044 886.291ZM619.301 891.303C618.839 891.991 617.907 892.173 617.22 891.711C616.532 891.249 616.349 890.317 616.811 889.63L619.301 891.303ZM611.25 897.809C611.719 897.127 612.653 896.954 613.335 897.423C614.018 897.893 614.191 898.826 613.721 899.509L611.25 897.809ZM611.524 902.691C611.052 903.372 610.118 903.541 609.437 903.069C608.756 902.597 608.587 901.663 609.059 900.982L611.524 902.691ZM603.344 909.155C603.821 908.477 604.756 908.314 605.434 908.791C606.111 909.268 606.274 910.204 605.798 910.881L603.344 909.155ZM603.589 914.018C603.113 914.696 602.177 914.858 601.499 914.382C600.822 913.905 600.659 912.969 601.136 912.292L603.589 914.018ZM595.433 920.66C595.861 919.951 596.783 919.724 597.492 920.152C598.201 920.581 598.429 921.503 598 922.212L595.433 920.66ZM0.516266 140.068C0.795799 139.487 1.08654 138.904 1.38837 138.318L4.05489 139.693C3.76535 140.254 3.48689 140.813 3.21956 141.369L0.516266 140.068ZM6.59512 129.586C7.3292 128.496 8.09771 127.401 8.90005 126.3L11.3243 128.068C10.5429 129.14 9.79568 130.205 9.08306 131.262L6.59512 129.586ZM15.1816 118.377C16.0541 117.357 16.9535 116.334 17.8794 115.308L20.1066 117.318C19.198 118.325 18.3161 119.328 17.4615 120.327L15.1816 118.377ZM24.8219 108.054C25.7839 107.102 26.7676 106.149 27.7725 105.195L29.838 107.371C28.8475 108.311 27.8786 109.25 26.9314 110.187L24.8219 108.054ZM35.1761 98.4829C36.1981 97.5962 37.2377 96.7093 38.2949 95.8224L40.223 98.1208C39.1784 98.9971 38.1514 99.8732 37.1422 100.749L35.1761 98.4829ZM46.0599 89.5554C47.1234 88.7287 48.2016 87.9026 49.2945 87.0775L51.1022 89.4717C50.0204 90.2885 48.9533 91.106 47.9011 91.9239L46.0599 89.5554ZM57.3675 81.1874C58.4609 80.4159 59.5669 79.6458 60.6852 78.8772L62.3844 81.3496C61.2761 82.1113 60.1802 82.8744 59.0969 83.6387L57.3675 81.1874ZM69.0337 73.3178C70.1497 72.5974 71.2765 71.8788 72.4139 71.1623L74.013 73.7005C72.8849 74.4113 71.7674 75.1239 70.6607 75.8383L69.0337 73.3178ZM81.0145 65.9034C82.1483 65.2305 83.2914 64.5598 84.4438 63.8914L85.9489 66.4865C84.8052 67.1498 83.6708 67.8154 82.5458 68.4832L81.0145 65.9034ZM93.2579 58.9251C94.4125 58.2931 95.5755 57.6636 96.7467 57.0368L98.1623 59.6818C96.9994 60.3042 95.8447 60.9292 94.6983 61.5567L93.2579 58.9251ZM105.633 52.4133C106.837 51.8041 108.05 51.1978 109.27 50.5946L110.599 53.2839C109.387 53.8831 108.183 54.4853 106.987 55.0904L105.633 52.4133ZM118.248 46.2796C119.459 45.7139 120.676 45.1514 121.901 44.5922L123.147 47.3211C121.93 47.8767 120.721 48.4356 119.518 48.9976L118.248 46.2796ZM131.086 40.5169C132.302 39.9926 133.525 39.4716 134.754 38.9541L135.918 41.719C134.697 42.2332 133.482 42.7509 132.273 43.2719L131.086 40.5169ZM144.085 35.14C145.321 34.6495 146.564 34.1626 147.812 33.6794L148.895 36.477C147.655 36.9573 146.42 37.4412 145.191 37.9287L144.085 35.14ZM157.164 30.168C158.424 29.7093 159.69 29.2545 160.961 28.8037L161.964 31.6311C160.701 32.0792 159.443 32.5312 158.19 32.9871L157.164 30.168ZM170.433 25.5509C171.695 25.1316 172.962 24.7163 174.234 24.3051L175.157 27.1596C173.893 27.5683 172.634 27.9811 171.379 28.3979L170.433 25.5509ZM183.859 21.2995C185.128 20.917 186.403 20.5387 187.681 20.1646L188.523 23.0438C187.253 23.4157 185.986 23.7918 184.724 24.172L183.859 21.2995ZM197.307 17.4509C198.601 17.1 199.899 16.7535 201.201 16.4116L201.963 19.3132C200.669 19.6531 199.379 19.9975 198.093 20.3463L197.307 17.4509ZM210.915 13.9633C212.209 13.6509 213.506 13.3431 214.807 13.0398L215.488 15.9615C214.195 16.2629 212.906 16.5689 211.62 16.8794L210.915 13.9633ZM224.631 10.8536C225.936 10.5769 227.244 10.3049 228.556 10.0377L229.155 12.9774C227.851 13.243 226.551 13.5133 225.254 13.7883L224.631 10.8536ZM238.369 8.14095C239.685 7.90015 241.004 7.66426 242.327 7.43335L242.843 10.3886C241.528 10.6182 240.217 10.8526 238.908 11.092L238.369 8.14095ZM252.233 5.80684C253.547 5.60472 254.864 5.4076 256.184 5.21554L256.616 8.18427C255.304 8.37516 253.995 8.57108 252.689 8.77198L252.233 5.80684ZM266.133 3.8712C267.466 3.70492 268.802 3.54389 270.141 3.38818L270.488 6.36808C269.157 6.52284 267.83 6.68288 266.504 6.84814L266.133 3.8712ZM280.074 2.33584C281.403 2.20885 282.734 2.08717 284.068 1.97089L284.328 4.95955C283.003 5.07511 281.68 5.19603 280.359 5.32224L280.074 2.33584ZM294.107 1.20132C295.431 1.11375 296.758 1.03158 298.087 0.954875L298.259 3.94989C296.939 4.02611 295.621 4.10777 294.305 4.19478L294.107 1.20132ZM308.089 0.482976C309.428 0.433982 310.768 0.390614 312.111 0.352938L312.195 3.35176C310.861 3.38919 309.529 3.43229 308.199 3.48097L308.089 0.482976ZM322.137 0.178607C323.469 0.169713 324.802 0.166503 326.137 0.16904L326.131 3.16903C324.805 3.16651 323.48 3.1697 322.157 3.17854L322.137 0.178607ZM336.179 0.296812C337.522 0.328479 338.866 0.36605 340.212 0.409589L340.115 3.40802C338.778 3.36477 337.442 3.32744 336.108 3.29598L336.179 0.296812ZM350.194 0.841446C351.527 0.913729 352.862 0.991959 354.197 1.07619L354.009 4.07025C352.682 3.98657 351.356 3.90885 350.032 3.83705L350.194 0.841446ZM364.239 1.82153C365.564 1.93474 366.89 2.05395 368.217 2.17922L367.935 5.16594C366.617 5.04151 365.3 4.92309 363.984 4.81064L364.239 1.82153ZM378.168 3.23063C379.497 3.38614 380.828 3.54783 382.159 3.71576L381.783 6.69217C380.461 6.52538 379.14 6.36477 377.819 6.21031L378.168 3.23063ZM392.113 5.0861C393.427 5.28233 394.743 5.48475 396.059 5.6934L395.59 8.65641C394.282 8.44917 392.976 8.24813 391.67 8.05323L392.113 5.0861ZM405.945 7.37613C407.265 7.61632 408.585 7.86289 409.906 8.11589L409.342 11.0623C408.03 10.8111 406.719 10.5662 405.408 10.3277L405.945 7.37613ZM419.722 10.1128C421.024 10.3932 422.326 10.68 423.629 10.9732L422.97 13.9C421.676 13.6088 420.383 13.324 419.09 13.0455L419.722 10.1128ZM433.406 13.2931C434.711 13.6187 436.016 13.9508 437.321 14.2894L436.567 17.1933C435.271 16.857 433.975 16.5272 432.68 16.2039L433.406 13.2931ZM446.956 16.9086C448.239 17.2734 449.522 17.6446 450.805 18.0223L449.958 20.9002C448.684 20.5251 447.409 20.1565 446.135 19.7943L446.956 16.9086ZM460.431 20.9784C461.706 21.3863 462.981 21.8007 464.256 22.2218L463.315 25.0704C462.049 24.6523 460.783 24.2408 459.517 23.8358L460.431 20.9784ZM473.694 25.4601C474.952 25.9081 476.21 26.3628 477.469 26.824L476.436 29.6407C475.187 29.1826 473.937 28.7312 472.688 28.2862L473.694 25.4601ZM486.901 30.4076C488.136 30.8935 489.371 31.3858 490.606 31.8847L489.482 34.6662C488.256 34.1708 487.029 33.6819 485.803 33.1994L486.901 30.4076ZM499.821 35.7321C501.049 36.2615 502.277 36.7974 503.504 37.34L502.291 40.0838C501.072 39.545 499.853 39.0128 498.634 38.4871L499.821 35.7321ZM512.691 41.5291C513.887 42.0911 515.082 42.6596 516.277 43.2346L514.977 45.938C513.79 45.3669 512.603 44.8023 511.415 44.2441L512.691 41.5291ZM525.231 47.6683C526.423 48.2757 527.615 48.8898 528.806 49.5104L527.42 52.171C526.237 51.5546 525.053 50.9448 523.869 50.3414L525.231 47.6683ZM537.705 54.2752C538.862 54.9116 540.018 55.5544 541.174 56.2036L539.704 58.8191C538.557 58.1743 537.408 57.5359 536.259 56.9037L537.705 54.2752ZM549.828 61.1924C550.98 61.8737 552.132 62.5614 553.282 63.2557L551.733 65.8244C550.59 65.1347 549.446 64.4515 548.301 63.7747L549.828 61.1924ZM561.875 68.5707C562.989 69.2765 564.101 69.9886 565.213 70.707L563.585 73.2268C562.481 72.5132 561.375 71.8057 560.269 71.1045L561.875 68.5707ZM573.537 76.2123C574.645 76.9622 575.752 77.7184 576.858 78.4809L575.155 80.9508C574.056 80.1931 572.956 79.4417 571.855 78.6967L573.537 76.2123ZM585.135 84.3203C586.202 85.0902 587.268 85.8661 588.333 86.6482L586.558 89.0664C585.499 88.2892 584.44 87.5181 583.38 86.7531L585.135 84.3203ZM596.3 92.6253C597.36 93.4376 598.419 94.2561 599.477 95.0808L597.632 97.4468C596.581 96.6271 595.528 95.8137 594.475 95.0064L596.3 92.6253ZM607.391 101.383C607.917 101.81 608.443 102.24 608.969 102.671L607.067 104.991C606.544 104.563 606.021 104.136 605.498 103.71L607.391 101.383ZM608.969 102.671C609.52 103.123 610.068 103.575 610.612 104.027L608.695 106.334C608.156 105.887 607.613 105.439 607.067 104.991L608.969 102.671ZM618.524 110.816C619.546 111.722 620.555 112.629 621.55 113.536L619.529 115.754C618.544 114.856 617.545 113.958 616.533 113.06L618.524 110.816ZM628.772 120.348C629.736 121.29 630.686 122.233 631.623 123.176L629.495 125.29C628.569 124.358 627.629 123.426 626.675 122.494L628.772 120.348ZM638.822 130.719C639.743 131.726 640.649 132.733 641.54 133.739L639.293 135.727C638.414 134.733 637.519 133.739 636.609 132.745L638.822 130.719ZM647.94 141.293C648.826 142.388 649.694 143.482 650.546 144.576L648.178 146.418C647.339 145.34 646.482 144.261 645.608 143.181L647.94 141.293ZM656.673 152.878C657.446 153.984 658.202 155.091 658.941 156.197L656.446 157.863C655.719 156.774 654.975 155.685 654.214 154.596L656.673 152.878ZM664.332 164.775C665.04 165.978 665.729 167.18 666.398 168.381L663.777 169.841C663.12 168.661 662.443 167.48 661.747 166.298L664.332 164.775ZM671.05 177.38C671.625 178.584 672.18 179.787 672.716 180.989L669.977 182.211C669.451 181.033 668.906 179.853 668.343 178.672L671.05 177.38ZM676.612 190.61C677.077 191.89 677.522 193.168 677.945 194.445L675.098 195.39C674.683 194.14 674.248 192.889 673.792 191.636L676.612 190.61ZM680.789 204.219C681.125 205.561 681.439 206.901 681.73 208.238L678.799 208.876C678.514 207.569 678.208 206.26 677.879 204.948L680.789 204.219ZM683.498 218.227C683.684 219.593 683.848 220.956 683.989 222.316L681.005 222.626C680.867 221.298 680.708 219.967 680.525 218.633L683.498 218.227ZM684.631 232.55C684.661 233.906 684.668 235.259 684.654 236.609L681.654 236.578C681.668 235.26 681.661 233.939 681.632 232.615L684.631 232.55ZM684.131 246.85C684.006 248.209 683.86 249.564 683.692 250.915L680.715 250.546C680.879 249.227 681.022 247.903 681.144 246.576L684.131 246.85ZM682.038 260.995C681.765 262.332 681.471 263.664 681.157 264.992L678.238 264.302C678.545 263.004 678.832 261.701 679.099 260.395L682.038 260.995ZM678.436 274.848C678.026 276.144 677.598 277.434 677.151 278.719L674.317 277.734C674.755 276.475 675.174 275.212 675.575 273.944L678.436 274.848ZM673.459 288.253C672.924 289.506 672.372 290.754 671.802 291.995L669.076 290.745C669.634 289.527 670.176 288.304 670.7 287.075L673.459 288.253ZM667.263 301.114C666.618 302.315 665.957 303.51 665.28 304.698L662.673 303.214C663.337 302.047 663.987 300.873 664.62 299.694L667.263 301.114ZM659.984 313.401C659.246 314.54 658.493 315.672 657.727 316.798L655.247 315.11C656.001 314.003 656.741 312.889 657.467 311.769L659.984 313.401ZM651.755 325.085C650.937 326.161 650.106 327.23 649.262 328.292L646.913 326.426C647.744 325.38 648.562 324.327 649.369 323.268L651.755 325.085ZM642.72 336.125C641.825 337.146 640.918 338.16 640.001 339.166L637.784 337.145C638.688 336.153 639.582 335.153 640.465 334.147L642.72 336.125ZM632.984 346.522C632.024 347.485 631.053 348.44 630.074 349.387L627.988 347.231C628.955 346.296 629.913 345.353 630.86 344.403L632.984 346.522ZM622.61 356.304C621.596 357.205 620.574 358.097 619.544 358.982L617.59 356.706C618.607 355.832 619.617 354.951 620.618 354.061L622.61 356.304ZM611.68 365.464C610.618 366.304 609.548 367.136 608.471 367.961L606.647 365.579C607.712 364.764 608.769 363.941 609.819 363.111L611.68 365.464ZM600.272 373.988C599.163 374.77 598.048 375.545 596.927 376.31L595.235 373.833C596.343 373.076 597.446 372.31 598.543 371.537L600.272 373.988ZM588.415 381.891C587.266 382.613 586.113 383.326 584.955 384.03L583.397 381.467C584.542 380.77 585.682 380.065 586.818 379.351L588.415 381.891ZM576.159 389.156C574.972 389.818 573.781 390.471 572.587 391.114L571.164 388.473C572.346 387.837 573.524 387.191 574.698 386.536L576.159 389.156ZM563.564 395.757C562.337 396.359 561.107 396.951 559.875 397.533L558.594 394.82C559.813 394.245 561.028 393.659 562.241 393.064L563.564 395.757ZM550.591 401.702C549.347 402.231 548.103 402.75 546.856 403.258L545.723 400.48C546.955 399.978 548.186 399.465 549.415 398.942L550.591 401.702ZM537.316 406.928C536.04 407.389 534.763 407.839 533.485 408.278L532.511 405.44C533.773 405.007 535.035 404.563 536.296 404.107L537.316 406.928ZM523.786 411.38C522.475 411.769 521.164 412.144 519.855 412.507L519.053 409.617C520.345 409.258 521.639 408.887 522.933 408.504L523.786 411.38ZM510.039 414.992C508.693 415.3 507.349 415.593 506.007 415.873L505.396 412.936C506.718 412.66 508.043 412.371 509.37 412.067L510.039 414.992ZM495.998 417.697C494.656 417.907 493.318 418.101 491.984 418.28L491.586 415.306C492.898 415.13 494.215 414.939 495.536 414.733L495.998 417.697ZM481.781 419.354C480.434 419.456 479.091 419.541 477.754 419.61L477.6 416.614C478.912 416.547 480.231 416.463 481.555 416.362L481.781 419.354ZM467.48 419.801C466.118 419.781 464.764 419.741 463.419 419.682L463.55 416.685C464.867 416.743 466.192 416.781 467.526 416.802L467.48 419.801ZM453.199 418.842C451.838 418.676 450.487 418.488 449.148 418.277L449.613 415.314C450.918 415.518 452.236 415.702 453.564 415.865L453.199 418.842ZM439.108 416.231C437.772 415.892 436.45 415.528 435.143 415.14L435.998 412.264C437.265 412.641 438.548 412.994 439.845 413.323L439.108 416.231ZM425.485 411.691C424.213 411.155 422.959 410.591 421.723 409.999L423.019 407.293C424.211 407.865 425.422 408.409 426.65 408.927L425.485 411.691ZM412.755 404.986C411.599 404.238 410.463 403.459 409.35 402.651L411.114 400.224C412.183 401 413.273 401.748 414.385 402.468L412.755 404.986ZM401.466 396.042C400.48 395.091 399.518 394.108 398.581 393.096L400.783 391.058C401.681 392.029 402.604 392.971 403.55 393.884L401.466 396.042ZM392.138 385.069C391.363 383.953 390.613 382.808 389.888 381.635L392.441 380.059C393.137 381.187 393.858 382.286 394.602 383.358L392.138 385.069ZM385.055 372.528C384.503 371.308 383.975 370.062 383.471 368.791L386.259 367.685C386.746 368.913 387.256 370.115 387.789 371.292L385.055 372.528ZM380.192 358.932C379.847 357.669 379.522 356.385 379.219 355.079L382.141 354.4C382.436 355.669 382.751 356.916 383.086 358.141L380.192 358.932ZM377.348 344.887C377.251 344.181 377.159 343.469 377.073 342.752L380.051 342.394C380.136 343.094 380.225 343.789 380.32 344.478L377.348 344.887ZM377.073 342.752C376.988 342.045 376.908 341.342 376.833 340.642L379.817 340.324C379.89 341.01 379.968 341.7 380.051 342.394L377.073 342.752ZM376.096 330.409C376.048 329.079 376.02 327.764 376.012 326.462L379.012 326.443C379.02 327.715 379.047 329.001 379.094 330.301L376.096 330.409ZM376.375 316.182C376.482 314.831 376.611 313.496 376.764 312.178L379.744 312.523C379.596 313.804 379.47 315.102 379.366 316.418L376.375 316.182ZM378.437 302.105C378.731 300.768 379.05 299.45 379.395 298.152L382.294 298.922C381.961 300.178 381.652 301.453 381.367 302.749L378.437 302.105ZM382.577 288.46C383.081 287.183 383.613 285.93 384.172 284.699L386.904 285.939C386.366 287.124 385.853 288.333 385.366 289.563L382.577 288.46ZM388.981 275.686C389.703 274.523 390.452 273.383 391.228 272.268L393.691 273.982C392.945 275.054 392.225 276.149 391.531 277.268L388.981 275.686ZM397.609 264.283C398.53 263.274 399.477 262.29 400.449 261.331L402.556 263.467C401.621 264.39 400.71 265.336 399.824 266.306L397.609 264.283ZM408.156 254.635C409.24 253.805 410.347 252.999 411.476 252.218L413.183 254.685C412.094 255.439 411.025 256.217 409.98 257.017L408.156 254.635ZM420.163 246.907C421.366 246.259 422.587 245.635 423.827 245.033L425.137 247.732C423.934 248.316 422.75 248.921 421.585 249.548L420.163 246.907ZM433.163 241.054C434.442 240.578 435.737 240.124 437.047 239.69L437.99 242.538C436.714 242.96 435.453 243.403 434.208 243.866L433.163 241.054ZM446.778 236.911C448.101 236.59 449.436 236.287 450.784 236.004L451.402 238.939C450.084 239.217 448.778 239.512 447.486 239.826L446.778 236.911ZM460.742 234.275C462.085 234.089 463.437 233.92 464.799 233.768L465.132 236.75C463.796 236.899 462.469 237.065 461.153 237.247L460.742 234.275ZM474.879 232.955C476.225 232.887 477.578 232.834 478.94 232.796L479.023 235.795C477.684 235.832 476.353 235.884 475.03 235.951L474.879 232.955ZM489.073 232.789C490.412 232.823 491.757 232.871 493.108 232.933L492.971 235.93C491.64 235.869 490.315 235.821 488.996 235.788L489.073 232.789ZM503.247 233.645C504.573 233.769 505.904 233.907 507.238 234.057L506.904 237.038C505.587 236.89 504.274 236.754 502.966 236.631L503.247 233.645ZM517.32 235.415C518.637 235.622 519.958 235.84 521.281 236.071L520.767 239.026C519.46 238.799 518.156 238.583 516.855 238.379L517.32 235.415ZM531.193 238.002C532.521 238.289 533.85 238.587 535.182 238.896L534.503 241.818C533.187 241.512 531.873 241.218 530.561 240.935L531.193 238.002ZM544.927 241.354C546.228 241.708 547.53 242.073 548.833 242.448L548.002 245.331C546.714 244.959 545.426 244.599 544.139 244.248L544.927 241.354ZM558.491 245.42C559.765 245.838 561.039 246.265 562.313 246.702L561.339 249.539C560.079 249.107 558.818 248.684 557.558 248.272L558.491 245.42ZM571.854 250.163C573.1 250.639 574.346 251.125 575.59 251.621L574.481 254.408C573.249 253.918 572.016 253.436 570.782 252.965L571.854 250.163ZM584.909 255.514C586.148 256.057 587.386 256.609 588.623 257.17L587.383 259.902C586.159 259.346 584.933 258.8 583.706 258.262L584.909 255.514ZM597.719 261.481C598.926 262.078 600.13 262.683 601.333 263.298L599.968 265.969C598.777 265.361 597.584 264.761 596.389 264.171L597.719 261.481ZM610.258 268.046C611.432 268.696 612.603 269.354 613.771 270.02L612.284 272.626C611.128 271.966 609.968 271.314 608.806 270.671L610.258 268.046ZM622.474 275.179C623.62 275.884 624.762 276.597 625.9 277.319L624.295 279.853C623.167 279.138 622.036 278.432 620.902 277.734L622.474 275.179ZM634.328 282.858C635.442 283.617 636.552 284.384 637.658 285.16L635.935 287.616C634.84 286.848 633.741 286.089 632.639 285.337L634.328 282.858ZM645.826 291.095C646.9 291.904 647.97 292.721 649.035 293.545L647.198 295.917C646.144 295.101 645.085 294.293 644.021 293.492L645.826 291.095ZM656.927 299.877C657.96 300.736 658.987 301.601 660.009 302.475L658.06 304.755C657.048 303.891 656.032 303.034 655.01 302.185L656.927 299.877ZM667.568 309.171C668.562 310.082 669.55 311.002 670.531 311.929L668.471 314.11C667.5 313.193 666.523 312.283 665.54 311.381L667.568 309.171ZM677.745 318.992C678.689 319.951 679.628 320.918 680.559 321.892L678.391 323.965C677.47 323.002 676.542 322.046 675.607 321.097L677.745 318.992ZM687.413 329.33C688.305 330.336 689.19 331.348 690.068 332.368L687.795 334.325C686.927 333.317 686.051 332.316 685.169 331.321L687.413 329.33ZM696.514 340.152C697.355 341.208 698.187 342.271 699.012 343.342L696.636 345.173C695.821 344.115 694.998 343.065 694.167 342.021L696.514 340.152ZM705.017 351.455C705.796 352.554 706.568 353.659 707.331 354.772L704.857 356.469C704.103 355.369 703.341 354.277 702.57 353.191L705.017 351.455ZM712.884 363.229C713.598 364.367 714.304 365.512 715.001 366.663L712.434 368.216C711.746 367.079 711.049 365.948 710.343 364.824L712.884 363.229ZM720.056 375.424C720.707 376.609 721.349 377.801 721.981 378.999L719.328 380.399C718.704 379.216 718.07 378.039 717.427 376.869L720.056 375.424ZM726.496 388.013C727.074 389.231 727.642 390.455 728.2 391.685L725.468 392.924C724.917 391.71 724.356 390.501 723.786 389.299L726.496 388.013ZM732.182 400.996C732.682 402.24 733.172 403.489 733.652 404.745L730.85 405.816C730.376 404.576 729.893 403.343 729.399 402.116L732.182 400.996ZM737.058 414.275C737.485 415.561 737.903 416.853 738.309 418.151L735.446 419.048C735.045 417.767 734.633 416.492 734.211 415.222L737.058 414.275ZM741.106 427.817C741.451 429.118 741.786 430.424 742.11 431.737L739.198 432.456C738.878 431.161 738.547 429.871 738.206 428.587L741.106 427.817ZM744.327 441.65C744.589 442.956 744.841 444.267 745.081 445.584L742.13 446.123C741.893 444.823 741.645 443.529 741.386 442.24L744.327 441.65ZM746.68 455.56C746.866 456.903 747.04 458.251 747.203 459.605L744.224 459.964C744.063 458.627 743.891 457.296 743.708 455.97L746.68 455.56ZM748.193 469.621C748.296 470.956 748.389 472.296 748.47 473.641L745.476 473.822C745.395 472.494 745.304 471.171 745.202 469.853L748.193 469.621ZM748.872 483.815C748.884 484.5 748.894 485.185 748.901 485.872L745.901 485.902C745.894 485.224 745.885 484.547 745.872 483.871L748.872 483.815ZM748.901 485.872C748.908 486.539 748.914 487.205 748.918 487.871L745.918 487.891C745.914 487.229 745.908 486.566 745.901 485.902L748.901 485.872ZM748.906 497.82C748.893 499.141 748.877 500.46 748.856 501.777L745.856 501.73C745.877 500.419 745.894 499.106 745.906 497.791L748.906 497.82ZM748.621 511.659C748.578 512.989 748.531 514.317 748.481 515.643L745.483 515.529C745.533 514.209 745.58 512.887 745.622 511.563L748.621 511.659ZM748.022 525.547C747.95 526.862 747.875 528.174 747.795 529.485L744.801 529.303C744.88 527.999 744.955 526.693 745.026 525.384L748.022 525.547ZM747.115 539.393C747.013 540.716 746.908 542.035 746.799 543.353L743.809 543.105C743.918 541.793 744.023 540.48 744.124 539.164L747.115 539.393ZM745.904 553.188C745.774 554.506 745.64 555.822 745.502 557.135L742.518 556.821C742.656 555.514 742.789 554.205 742.919 552.893L745.904 553.188ZM744.384 567.015C744.226 568.326 744.063 569.634 743.897 570.94L740.921 570.561C741.087 569.262 741.248 567.959 741.406 566.655L744.384 567.015ZM742.572 580.75C742.384 582.066 742.192 583.379 741.996 584.69L739.029 584.247C739.224 582.943 739.415 581.635 739.602 580.325L742.572 580.75ZM740.461 594.466C740.247 595.763 740.03 597.056 739.809 598.347L736.852 597.841C737.072 596.556 737.288 595.269 737.501 593.978L740.461 594.466ZM738.056 608.15C737.814 609.45 737.567 610.747 737.318 612.041L734.372 611.473C734.621 610.185 734.866 608.894 735.107 607.599L738.056 608.15ZM735.375 621.73C735.103 623.034 734.828 624.334 734.55 625.632L731.617 625.002C731.894 623.711 732.167 622.416 732.438 621.118L735.375 621.73ZM732.402 635.301C732.107 636.582 731.809 637.86 731.509 639.134L728.589 638.445C728.888 637.176 729.185 635.904 729.478 634.629L732.402 635.301ZM729.152 648.803C728.83 650.086 728.504 651.366 728.175 652.642L725.27 651.894C725.597 650.623 725.922 649.349 726.243 648.071L729.152 648.803ZM725.643 662.192C725.292 663.477 724.939 664.759 724.582 666.037L721.692 665.231C722.047 663.959 722.4 662.682 722.749 661.402L725.643 662.192ZM721.855 675.553C721.485 676.813 721.112 678.068 720.736 679.32L717.862 678.457C718.237 677.211 718.608 675.961 718.977 674.707L721.855 675.553ZM717.804 688.843C717.406 690.103 717.006 691.359 716.604 692.611L713.748 691.693C714.149 690.446 714.547 689.195 714.943 687.94L717.804 688.843ZM713.509 702.012C713.084 703.274 712.657 704.531 712.228 705.783L709.39 704.81C709.818 703.563 710.243 702.311 710.666 701.055L713.509 702.012ZM708.965 715.096C708.517 716.346 708.067 717.592 707.616 718.833L704.797 717.807C705.247 716.571 705.695 715.33 706.14 714.085L708.965 715.096ZM704.154 728.147C703.688 729.377 703.22 730.602 702.75 731.823L699.95 730.744C700.418 729.529 700.885 728.309 701.349 727.084L704.154 728.147ZM699.114 741.077C698.622 742.307 698.127 743.531 697.632 744.75L694.853 743.621C695.346 742.406 695.839 741.187 696.329 739.962L699.114 741.077ZM693.85 753.883C693.331 755.113 692.812 756.337 692.29 757.555L689.532 756.376C690.051 755.162 690.569 753.943 691.086 752.718L693.85 753.883ZM688.359 766.587C687.817 767.81 687.274 769.027 686.73 770.238L683.993 769.009C684.535 767.802 685.076 766.59 685.616 765.372L688.359 766.587ZM682.612 779.255C682.06 780.443 681.508 781.623 680.956 782.798L678.241 781.521C678.792 780.351 679.342 779.174 679.891 777.992L682.612 779.255ZM676.651 791.802C676.076 792.986 675.5 794.162 674.925 795.332L672.233 794.008C672.806 792.842 673.379 791.67 673.952 790.491L676.651 791.802ZM670.478 804.23C669.88 805.409 669.281 806.581 668.683 807.746L666.014 806.375C666.61 805.215 667.207 804.047 667.803 802.872L670.478 804.23ZM664.097 816.54C663.475 817.715 662.854 818.882 662.233 820.04L659.589 818.624C660.207 817.47 660.826 816.307 661.446 815.136L664.097 816.54ZM657.508 828.736C656.863 829.906 656.22 831.066 655.578 832.216L652.958 830.755C653.597 829.609 654.238 828.453 654.881 827.288L657.508 828.736ZM650.71 840.823C650.044 841.984 649.38 843.135 648.719 844.275L646.124 842.769C646.783 841.634 647.444 840.487 648.108 839.33L650.71 840.823ZM643.704 852.802C643.019 853.952 642.337 855.089 641.659 856.213L639.09 854.665C639.765 853.544 640.444 852.411 641.127 851.266L643.704 852.802ZM636.494 864.669C635.793 865.801 635.097 866.918 634.408 868.02L631.865 866.429C632.552 865.331 633.245 864.218 633.943 863.09L636.494 864.669ZM629.092 876.405C628.383 877.509 627.682 878.595 626.989 879.663L624.473 878.03C625.163 876.966 625.862 875.884 626.568 874.784L629.092 876.405ZM621.541 887.953C620.781 889.096 620.035 890.212 619.301 891.303L616.811 889.63C617.542 888.542 618.286 887.43 619.044 886.291L621.541 887.953ZM613.721 899.509C612.968 900.605 612.235 901.666 611.524 902.691L609.059 900.982C609.768 899.959 610.498 898.901 611.25 897.809L613.721 899.509ZM605.798 910.881C605.005 912.008 604.285 913.03 603.589 914.018L601.136 912.292C601.815 911.326 602.569 910.257 603.344 909.155L605.798 910.881ZM598 922.212C597.749 922.627 597.584 922.929 597.489 923.134C597.466 923.182 597.45 923.22 597.439 923.249C597.433 923.263 597.429 923.274 597.426 923.281C597.423 923.289 597.422 923.293 597.422 923.293C597.422 923.292 597.424 923.287 597.427 923.277C597.429 923.267 597.433 923.249 597.437 923.226C597.443 923.185 597.455 923.092 597.444 922.965L594.455 923.217C594.426 922.875 594.503 922.58 594.553 922.417C594.611 922.227 594.689 922.039 594.77 921.866C594.932 921.518 595.161 921.11 595.433 920.66L598 922.212Z" fill="#007BFB"/>
</svg>
