<svg width="1161" height="613" viewBox="0 0 1161 613" fill="none" xmlns="http://www.w3.org/2000/svg">
<path opacity="0.5" d="M1158.72 612.575C1159.52 612.787 1160.34 612.31 1160.55 611.509C1160.76 610.708 1160.29 609.887 1159.48 609.675L1158.72 612.575ZM701.601 21.1252L701.585 19.6253L701.601 21.1252ZM244.386 506.124L245.048 504.778L244.386 506.124ZM1157.48 609.137C1156.68 608.919 1155.86 609.391 1155.64 610.191C1155.42 610.99 1155.89 611.814 1156.69 612.032L1157.48 609.137ZM1146.78 609.156C1147.57 609.4 1148.41 608.957 1148.65 608.165C1148.9 607.374 1148.45 606.534 1147.66 606.29L1146.78 609.156ZM1143.83 605.079C1143.04 604.823 1142.2 605.256 1141.94 606.044C1141.69 606.832 1142.12 607.678 1142.91 607.933L1143.83 605.079ZM1133.47 604.695C1134.25 604.978 1135.11 604.576 1135.4 603.797C1135.68 603.018 1135.28 602.158 1134.5 601.875L1133.47 604.695ZM1130.86 600.524C1130.08 600.23 1129.22 600.62 1128.92 601.395C1128.63 602.169 1129.02 603.035 1129.79 603.329L1130.86 600.524ZM1120.22 599.486C1120.98 599.81 1121.86 599.454 1122.19 598.691C1122.51 597.929 1122.15 597.048 1121.39 596.725L1120.22 599.486ZM1117.7 595.123C1116.94 594.788 1116.06 595.13 1115.72 595.887C1115.38 596.645 1115.73 597.531 1116.48 597.866L1117.7 595.123ZM1107.4 593.624C1108.14 593.989 1109.04 593.683 1109.41 592.939C1109.77 592.196 1109.46 591.297 1108.72 590.931L1107.4 593.624ZM1105.23 589.181C1104.49 588.803 1103.59 589.095 1103.21 589.833C1102.83 590.57 1103.13 591.474 1103.86 591.851L1105.23 589.181ZM1094.83 586.984C1095.55 587.392 1096.47 587.139 1096.88 586.419C1097.29 585.698 1097.03 584.783 1096.31 584.374L1094.83 586.984ZM1092.84 582.363C1092.12 581.942 1091.2 582.179 1090.78 582.892C1090.36 583.606 1090.6 584.525 1091.31 584.946L1092.84 582.363ZM1082.77 579.655C1083.47 580.107 1084.4 579.91 1084.85 579.215C1085.3 578.521 1085.1 577.592 1084.41 577.14L1082.77 579.655ZM1081.13 574.969C1080.45 574.505 1079.51 574.686 1079.05 575.372C1078.59 576.059 1078.77 576.991 1079.45 577.455L1081.13 574.969ZM1071.1 571.531C1071.76 572.026 1072.7 571.888 1073.2 571.223C1073.69 570.558 1073.55 569.618 1072.89 569.124L1071.1 571.531ZM1069.7 566.707C1069.04 566.201 1068.1 566.322 1067.6 566.977C1067.09 567.633 1067.21 568.575 1067.87 569.081L1069.7 566.707ZM1060.05 562.761C1060.68 563.296 1061.63 563.218 1062.17 562.585C1062.7 561.953 1062.62 561.007 1061.99 560.471L1060.05 562.761ZM1058.96 557.857C1058.34 557.311 1057.39 557.372 1056.84 557.994C1056.3 558.617 1056.36 559.565 1056.98 560.111L1058.96 557.857ZM1049.49 553.225C1050.09 553.799 1051.04 553.781 1051.61 553.184C1052.18 552.587 1052.17 551.637 1051.57 551.063L1049.49 553.225ZM1048.72 548.269C1048.13 547.684 1047.18 547.686 1046.59 548.273C1046.01 548.859 1046.01 549.809 1046.6 550.394L1048.72 548.269ZM1039.61 543.118C1040.17 543.728 1041.12 543.768 1041.73 543.207C1042.34 542.647 1042.38 541.698 1041.82 541.088L1039.61 543.118ZM1039.13 538.109C1038.58 537.489 1037.64 537.432 1037.02 537.982C1036.4 538.532 1036.34 539.48 1036.89 540.1L1039.13 538.109ZM1030.33 532.376C1030.85 533.019 1031.79 533.116 1032.44 532.593C1033.08 532.07 1033.18 531.125 1032.65 530.482L1030.33 532.376ZM1030.16 527.363C1029.65 526.711 1028.7 526.599 1028.05 527.111C1027.4 527.623 1027.29 528.566 1027.8 529.217L1030.16 527.363ZM1021.71 521.144C1022.2 521.815 1023.13 521.966 1023.8 521.48C1024.48 520.995 1024.63 520.057 1024.14 519.386L1021.71 521.144ZM1021.82 516.125C1021.35 515.446 1020.41 515.281 1019.73 515.756C1019.05 516.231 1018.89 517.166 1019.36 517.845L1021.82 516.125ZM1013.72 509.441C1014.17 510.137 1015.1 510.338 1015.79 509.889C1016.49 509.44 1016.69 508.512 1016.24 507.815L1013.72 509.441ZM1014.1 504.431C1013.66 503.728 1012.73 503.514 1012.03 503.952C1011.33 504.391 1011.11 505.316 1011.55 506.019L1014.1 504.431ZM1006.36 497.356C1006.77 498.074 1007.69 498.321 1008.4 497.907C1009.12 497.493 1009.37 496.576 1008.95 495.858L1006.36 497.356ZM1006.98 492.377C1006.58 491.654 1005.66 491.395 1004.94 491.799C1004.22 492.203 1003.96 493.116 1004.36 493.84L1006.98 492.377ZM999.566 484.916C999.947 485.652 1000.85 485.94 1001.59 485.56C1002.32 485.179 1002.61 484.274 1002.23 483.539L999.566 484.916ZM1000.41 479.962C1000.04 479.222 999.139 478.922 998.398 479.293C997.658 479.665 997.358 480.566 997.729 481.307L1000.41 479.962ZM993.347 472.229C993.696 472.98 994.588 473.306 995.339 472.956C996.09 472.607 996.416 471.715 996.067 470.964L993.347 472.229ZM994.396 467.318C994.055 466.563 993.167 466.227 992.412 466.568C991.657 466.909 991.321 467.797 991.662 468.552L994.396 467.318ZM987.613 459.255C987.934 460.019 988.813 460.378 989.577 460.057C990.341 459.736 990.7 458.857 990.379 458.093L987.613 459.255ZM988.853 454.407C988.54 453.64 987.664 453.272 986.897 453.585C986.13 453.898 985.762 454.774 986.076 455.541L988.853 454.407ZM982.377 446.16C982.672 446.934 983.539 447.323 984.313 447.028C985.087 446.733 985.476 445.867 985.181 445.092L982.377 446.16ZM983.767 441.329C983.479 440.552 982.616 440.156 981.839 440.444C981.063 440.732 980.666 441.595 980.954 442.372L983.767 441.329ZM977.541 432.85C977.812 433.632 978.667 434.047 979.45 433.775C980.232 433.504 980.647 432.649 980.375 431.867L977.541 432.85ZM979.08 428.083C978.815 427.298 977.964 426.877 977.179 427.142C976.394 427.407 975.973 428.259 976.238 429.043L979.08 428.083ZM973.099 419.456C973.349 420.245 974.193 420.682 974.982 420.432C975.772 420.181 976.209 419.338 975.958 418.548L973.099 419.456ZM974.754 414.706C974.509 413.914 973.668 413.472 972.877 413.717C972.086 413.962 971.643 414.802 971.888 415.593L974.754 414.706ZM968.982 405.928C969.214 406.723 970.047 407.18 970.842 406.948C971.637 406.715 972.094 405.882 971.862 405.087L968.982 405.928ZM970.75 401.236C970.522 400.44 969.692 399.978 968.896 400.206C968.099 400.433 967.638 401.263 967.865 402.06L970.75 401.236ZM965.164 392.337C965.38 393.137 966.204 393.61 967.003 393.393C967.803 393.177 968.276 392.354 968.06 391.554L965.164 392.337ZM967.017 387.661C966.805 386.86 965.984 386.383 965.183 386.595C964.383 386.807 963.905 387.628 964.117 388.429L967.017 387.661ZM961.596 378.672C961.798 379.476 962.614 379.963 963.417 379.76C964.22 379.557 964.707 378.742 964.504 377.938L961.596 378.672ZM963.53 374.042C963.331 373.238 962.518 372.748 961.714 372.947C960.909 373.146 960.419 373.96 960.618 374.764L963.53 374.042ZM958.242 364.96C958.433 365.766 959.241 366.264 960.047 366.073C960.854 365.882 961.352 365.073 961.161 364.267L958.242 364.96ZM960.237 360.345C960.048 359.538 959.242 359.037 958.435 359.225C957.628 359.414 957.127 360.22 957.315 361.027L960.237 360.345ZM955.064 351.21C955.246 352.018 956.049 352.526 956.857 352.344C957.665 352.162 958.172 351.359 957.99 350.551L955.064 351.21ZM957.112 346.626C956.932 345.818 956.13 345.308 955.322 345.488C954.513 345.668 954.003 346.469 954.183 347.278L957.112 346.626ZM952.025 337.433C952.2 338.243 952.998 338.757 953.808 338.582C954.618 338.407 955.132 337.609 954.957 336.799L952.025 337.433ZM954.11 332.863C953.937 332.053 953.139 331.537 952.329 331.711C951.519 331.884 951.003 332.681 951.177 333.491L954.11 332.863ZM949.088 323.634C949.258 324.445 950.053 324.964 950.864 324.794C951.675 324.624 952.194 323.828 952.024 323.018L949.088 323.634ZM951.2 319.078C951.031 318.267 950.236 317.747 949.425 317.916C948.614 318.085 948.094 318.879 948.263 319.69L951.2 319.078ZM946.221 309.837C946.389 310.648 947.182 311.17 947.993 311.003C948.805 310.836 949.327 310.043 949.16 309.231L946.221 309.837ZM948.347 305.284C948.18 304.473 947.387 303.95 946.576 304.117C945.764 304.284 945.242 305.077 945.409 305.889L948.347 305.284ZM943.382 296.014C943.548 296.825 944.341 297.348 945.153 297.182C945.964 297.015 946.487 296.222 946.321 295.411L943.382 296.014ZM945.511 291.468C945.345 290.656 944.552 290.133 943.74 290.3C942.929 290.467 942.406 291.259 942.573 292.071L945.511 291.468ZM940.547 282.236C940.715 283.047 941.509 283.569 942.32 283.401C943.131 283.233 943.653 282.439 943.485 281.628L940.547 282.236ZM942.664 277.667C942.495 276.856 941.701 276.335 940.89 276.503C940.079 276.672 939.558 277.466 939.726 278.277L942.664 277.667ZM937.66 268.414C937.831 269.224 938.627 269.742 939.438 269.571C940.248 269.4 940.767 268.604 940.595 267.793L937.66 268.414ZM939.76 263.858C939.587 263.047 938.79 262.531 937.98 262.703C937.17 262.876 936.653 263.673 936.826 264.483L939.76 263.858ZM934.707 254.669C934.884 255.478 935.684 255.991 936.493 255.814C937.302 255.637 937.815 254.837 937.638 254.028L934.707 254.669ZM936.767 250.071C936.588 249.263 935.787 248.752 934.978 248.931C934.169 249.111 933.659 249.911 933.838 250.72L936.767 250.071ZM931.625 240.902C931.81 241.709 932.615 242.214 933.423 242.028C934.23 241.843 934.734 241.038 934.549 240.231L931.625 240.902ZM933.644 236.317C933.456 235.51 932.649 235.008 931.843 235.197C931.036 235.385 930.534 236.191 930.722 236.998L933.644 236.317ZM928.393 227.218C928.589 228.023 929.401 228.517 930.206 228.321C931.011 228.125 931.504 227.314 931.308 226.509L928.393 227.218ZM930.341 222.574C930.141 221.77 929.328 221.28 928.524 221.479C927.72 221.679 927.23 222.492 927.429 223.296L930.341 222.574ZM924.953 213.568C925.162 214.37 925.982 214.85 926.783 214.64C927.585 214.431 928.065 213.611 927.855 212.81L924.953 213.568ZM926.832 208.935C926.618 208.135 925.796 207.659 924.996 207.873C924.195 208.087 923.72 208.909 923.934 209.709L926.832 208.935ZM921.26 199.988C921.486 200.785 922.315 201.248 923.112 201.023C923.909 200.797 924.372 199.968 924.147 199.171L921.26 199.988ZM923.031 195.28C922.8 194.485 921.967 194.027 921.172 194.258C920.376 194.489 919.919 195.322 920.15 196.117L923.031 195.28ZM917.277 186.542C917.523 187.334 918.363 187.776 919.154 187.531C919.945 187.285 920.388 186.445 920.143 185.654L917.277 186.542ZM918.938 181.821C918.687 181.031 917.843 180.595 917.053 180.847C916.264 181.098 915.828 181.942 916.08 182.731L918.938 181.821ZM912.913 173.141C913.181 173.925 914.034 174.343 914.818 174.074C915.601 173.806 916.019 172.953 915.751 172.169L912.913 173.141ZM914.426 168.357C914.15 167.576 913.294 167.166 912.512 167.442C911.731 167.717 911.321 168.574 911.597 169.355L914.426 168.357ZM908.167 159.997C908.461 160.771 909.328 161.159 910.102 160.864C910.876 160.57 911.265 159.703 910.97 158.929L908.167 159.997ZM909.496 155.121C909.193 154.35 908.322 153.971 907.551 154.275C906.78 154.578 906.401 155.449 906.704 156.22L909.496 155.121ZM902.895 146.93C903.22 147.692 904.102 148.045 904.864 147.72C905.625 147.394 905.979 146.512 905.653 145.751L902.895 146.93ZM904.05 142.064C903.715 141.306 902.829 140.964 902.072 141.299C901.314 141.634 900.972 142.52 901.307 143.277L904.05 142.064ZM897.102 134.178C897.463 134.924 898.359 135.237 899.105 134.877C899.851 134.517 900.164 133.62 899.804 132.874L897.102 134.178ZM898.011 129.227C897.64 128.486 896.739 128.187 895.998 128.558C895.257 128.928 894.957 129.83 895.328 130.57L898.011 129.227ZM890.697 121.739C891.096 122.465 892.008 122.731 892.734 122.332C893.46 121.933 893.725 121.021 893.326 120.295L890.697 121.739ZM891.358 116.779C890.947 116.059 890.031 115.809 889.312 116.219C888.592 116.63 888.342 117.546 888.752 118.265L891.358 116.779ZM883.589 109.649C884.03 110.35 884.956 110.561 885.657 110.12C886.358 109.678 886.569 108.752 886.127 108.051L883.589 109.649ZM883.94 104.646C883.486 103.953 882.556 103.759 881.864 104.213C881.171 104.667 880.977 105.597 881.431 106.29L883.94 104.646ZM875.774 98.0883C876.261 98.7586 877.199 98.9074 877.869 98.4206C878.539 97.9338 878.688 96.9958 878.201 96.3254L875.774 98.0883ZM875.778 93.0588C875.278 92.3985 874.337 92.2687 873.677 92.769C873.017 93.2692 872.887 94.2101 873.387 94.8705L875.778 93.0588ZM867.153 87.0738C867.688 87.7067 868.634 87.7867 869.267 87.2524C869.9 86.718 869.98 85.7716 869.446 85.1386L867.153 87.0738ZM866.799 82.072C866.251 81.4507 865.303 81.3915 864.682 81.9396C864.061 82.4877 864.002 83.4356 864.55 84.0568L866.799 82.072ZM857.751 76.7737C858.333 77.3629 859.283 77.3685 859.872 76.7862C860.461 76.2039 860.467 75.2542 859.885 74.6649L857.751 76.7737ZM856.997 71.8103C856.401 71.2347 855.452 71.2512 854.876 71.8471C854.301 72.4429 854.317 73.3925 854.913 73.9681L856.997 71.8103ZM847.524 67.2427C848.153 67.7818 849.1 67.709 849.639 67.08C850.179 66.451 850.106 65.504 849.477 64.9649L847.524 67.2427ZM846.388 62.3805C845.746 61.8566 844.801 61.952 844.277 62.5937C843.753 63.2354 843.849 64.1803 844.49 64.7043L846.388 62.3805ZM836.589 58.6413C837.262 59.1255 838.199 58.9732 838.683 58.301C839.168 57.6288 839.015 56.6914 838.343 56.2071L836.589 58.6413ZM834.993 53.8555C834.309 53.3878 833.376 53.563 832.908 54.2468C832.44 54.9305 832.616 55.864 833.299 56.3317L834.993 53.8555ZM824.954 50.9833C825.664 51.4093 826.585 51.1787 827.011 50.4682C827.437 49.7577 827.207 48.8363 826.496 48.4104L824.954 50.9833ZM823.009 46.3752C822.289 45.9661 821.373 46.2184 820.964 46.9388C820.555 47.6591 820.807 48.5747 821.528 48.9838L823.009 46.3752ZM812.633 44.2741C813.377 44.6403 814.276 44.3346 814.642 43.5915C815.008 42.8484 814.702 41.9492 813.959 41.583L812.633 44.2741ZM810.288 39.8259C809.537 39.4767 808.645 39.8027 808.296 40.554C807.946 41.3052 808.272 42.1973 809.024 42.5465L810.288 39.8259ZM799.998 38.6479C800.767 38.9558 801.64 38.582 801.948 37.8129C802.256 37.0438 801.882 36.1708 801.113 35.8628L799.998 38.6479ZM797.317 34.3899C796.541 34.0985 795.677 34.4908 795.385 35.2663C795.094 36.0418 795.486 36.9067 796.261 37.1981L797.317 34.3899ZM786.676 33.8796C787.465 34.1304 788.309 33.6937 788.56 32.9041C788.811 32.1146 788.374 31.2712 787.584 31.0204L786.676 33.8796ZM783.826 29.8657C783.032 29.6299 782.197 30.0825 781.961 30.8767C781.725 31.6708 782.178 32.5058 782.972 32.7416L783.826 29.8657ZM773.422 30.1477C774.226 30.3464 775.039 29.8557 775.238 29.0514C775.437 28.2472 774.946 27.4341 774.142 27.2353L773.422 30.1477ZM770.151 26.2872C769.343 26.103 768.539 26.6084 768.355 27.4161C768.17 28.2238 768.676 29.0279 769.483 29.2121L770.151 26.2872ZM759.574 27.1771C760.389 27.3265 761.171 26.7871 761.32 25.9722C761.469 25.1574 760.93 24.3757 760.115 24.2263L759.574 27.1771ZM756.25 23.5487C755.433 23.412 754.66 23.9636 754.523 24.7807C754.386 25.5977 754.938 26.3709 755.755 26.5076L756.25 23.5487ZM745.945 25.0591C746.767 25.1648 747.518 24.5844 747.624 23.7627C747.73 22.9411 747.149 22.1893 746.328 22.0836L745.945 25.0591ZM742.254 21.5903C741.43 21.4967 740.687 22.0881 740.594 22.9112C740.5 23.7344 741.092 24.4775 741.915 24.5711L742.254 21.5903ZM731.75 23.5975C732.576 23.6622 733.298 23.0452 733.362 22.2193C733.427 21.3934 732.81 20.6714 731.984 20.6066L731.75 23.5975ZM728.101 20.3268C727.275 20.2724 726.56 20.8984 726.506 21.7251C726.451 22.5517 727.077 23.2659 727.904 23.3203L728.101 20.3268ZM718.061 22.8239C718.889 22.8533 719.584 22.2059 719.613 21.378C719.642 20.5501 718.995 19.8552 718.167 19.8258L718.061 22.8239ZM714.102 19.7058C713.274 19.6862 712.586 20.3417 712.567 21.1698C712.547 21.998 713.203 22.6853 714.031 22.7049L714.102 19.7058ZM703.72 22.6092C704.548 22.6054 705.217 21.9306 705.213 21.1021C705.209 20.2737 704.534 19.6054 703.706 19.6093L703.72 22.6092ZM699.486 19.6556C698.658 19.6712 697.999 20.3552 698.015 21.1834C698.03 22.0117 698.714 22.6706 699.542 22.6551L699.486 19.6556ZM689.367 23.0623C690.194 23.0112 690.823 22.2994 690.772 21.4726C690.721 20.6457 690.009 20.0169 689.182 20.068L689.367 23.0623ZM685.149 20.3529C684.323 20.4186 683.707 21.1412 683.772 21.9671C683.838 22.7929 684.561 23.4091 685.387 23.3434L685.149 20.3529ZM675.653 24.336C676.475 24.2333 677.058 23.4837 676.955 22.6616C676.853 21.8396 676.103 21.2564 675.281 21.3592L675.653 24.336ZM671.322 21.8915C670.502 22.0097 669.933 22.7701 670.051 23.5901C670.17 24.4101 670.93 24.979 671.75 24.8608L671.322 21.8915ZM661.757 26.5554C662.57 26.3963 663.1 25.6083 662.941 24.7953C662.782 23.9823 661.994 23.4522 661.181 23.6113L661.757 26.5554ZM657.22 24.4283C656.41 24.6039 655.896 25.4027 656.072 26.2122C656.248 27.0218 657.046 27.5357 657.856 27.3601L657.22 24.4283ZM648.34 29.6813C649.139 29.4642 649.611 28.6401 649.394 27.8406C649.177 27.0412 648.353 26.5691 647.553 26.7862L648.34 29.6813ZM643.638 27.8952C642.843 28.1295 642.389 28.9637 642.624 29.7582C642.858 30.5528 643.692 31.007 644.487 30.7726L643.638 27.8952ZM634.935 33.8784C635.715 33.6004 636.122 32.7424 635.844 31.962C635.566 31.1817 634.709 30.7743 633.928 31.0523L634.935 33.8784ZM630.144 32.4474C629.37 32.7426 628.982 33.6094 629.277 34.3835C629.573 35.1575 630.439 35.5457 631.214 35.2504L630.144 32.4474ZM622.107 39.0171C622.864 38.6792 623.203 37.7921 622.865 37.0357C622.527 36.2794 621.64 35.9401 620.884 36.2781L622.107 39.0171ZM617.169 37.9889C616.421 38.344 616.102 39.2387 616.457 39.9871C616.812 40.7355 617.707 41.0544 618.455 40.6992L617.169 37.9889ZM609.575 45.2269C610.302 44.8298 610.569 43.9186 610.172 43.1915C609.775 42.4644 608.864 42.1969 608.137 42.594L609.575 45.2269ZM604.623 44.5643C603.905 44.9776 603.658 45.8947 604.072 46.6126C604.485 47.3306 605.402 47.5775 606.12 47.1643L604.623 44.5643ZM597.655 52.3572C598.349 51.9045 598.545 50.9752 598.092 50.2814C597.639 49.5875 596.71 49.392 596.016 49.8447L597.655 52.3572ZM592.645 52.0974C591.961 52.5653 591.786 53.4988 592.254 54.1824C592.722 54.8662 593.656 55.0411 594.339 54.5732L592.645 52.0974ZM586.283 60.4126C586.941 59.9086 587.065 58.9671 586.561 58.3096C586.057 57.6521 585.116 57.5277 584.458 58.0316L586.283 60.4126ZM581.278 60.523C580.631 61.0407 580.526 61.9847 581.044 62.6314C581.562 63.2782 582.506 63.3828 583.152 62.8651L581.278 60.523ZM575.551 69.2762C576.171 68.7262 576.227 67.7782 575.677 67.1586C575.127 66.5391 574.179 66.4826 573.56 67.0326L575.551 69.2762ZM570.563 69.7467C569.954 70.3087 569.917 71.2578 570.479 71.8663C571.041 72.4749 571.99 72.5125 572.598 71.9504L570.563 69.7467ZM565.427 78.9012C566.008 78.3107 566 77.361 565.41 76.78C564.82 76.1989 563.87 76.2064 563.289 76.7969L565.427 78.9012ZM560.491 79.6922C559.921 80.2931 559.946 81.2425 560.547 81.8128C561.148 82.383 562.097 82.3581 562.667 81.7572L560.491 79.6922ZM555.982 89.1206C556.526 88.4954 556.459 87.548 555.834 87.0045C555.209 86.461 554.261 86.5273 553.718 87.1525L555.982 89.1206ZM551.088 90.2301C550.555 90.8643 550.637 91.8105 551.271 92.3434C551.906 92.8763 552.852 92.7943 553.385 92.16L551.088 90.2301ZM547.11 99.941C547.617 99.2861 547.497 98.3439 546.842 97.8367C546.187 97.3295 545.245 97.4492 544.738 98.1042L547.11 99.941ZM542.305 101.295C541.808 101.957 541.942 102.898 542.604 103.395C543.267 103.892 544.207 103.758 544.704 103.096L542.305 101.295ZM538.86 111.184C539.333 110.504 539.165 109.569 538.485 109.096C537.806 108.623 536.871 108.79 536.397 109.47L538.86 111.184ZM534.102 112.817C533.638 113.503 533.819 114.436 534.505 114.9C535.191 115.364 536.124 115.183 536.588 114.497L534.102 112.817ZM531.138 122.85C531.58 122.149 531.37 121.223 530.669 120.781C529.968 120.34 529.042 120.55 528.6 121.251L531.138 122.85ZM526.48 124.663C526.047 125.369 526.268 126.293 526.974 126.726C527.681 127.159 528.604 126.937 529.037 126.231L526.48 124.663ZM523.927 134.846C524.34 134.127 524.091 133.21 523.373 132.798C522.655 132.385 521.738 132.633 521.325 133.352L523.927 134.846ZM519.321 136.888C518.916 137.611 519.174 138.525 519.897 138.93C520.62 139.335 521.534 139.077 521.938 138.354L519.321 136.888ZM517.191 147.099C517.577 146.366 517.296 145.459 516.563 145.072C515.83 144.686 514.923 144.968 514.537 145.701L517.191 147.099ZM512.68 149.269C512.301 150.005 512.591 150.91 513.328 151.289C514.064 151.668 514.969 151.378 515.348 150.641L512.68 149.269ZM510.857 159.624C511.219 158.879 510.908 157.982 510.163 157.62C509.418 157.258 508.521 157.568 508.159 158.313L510.857 159.624ZM506.405 161.962C506.049 162.71 506.367 163.605 507.116 163.961C507.864 164.317 508.759 163.998 509.114 163.25L506.405 161.962ZM504.931 172.286C505.272 171.53 504.936 170.642 504.181 170.301C503.425 169.961 502.537 170.297 502.196 171.052L504.931 172.286ZM500.555 174.728C500.22 175.486 500.563 176.371 501.32 176.706C502.078 177.041 502.964 176.699 503.299 175.941L500.555 174.728ZM499.316 185.175C499.638 184.411 499.279 183.531 498.516 183.21C497.752 182.889 496.873 183.247 496.551 184.011L499.316 185.175ZM495.004 187.722C494.687 188.487 495.051 189.365 495.817 189.681C496.583 189.997 497.46 189.633 497.776 188.867L495.004 187.722ZM494.036 198.125C494.34 197.354 493.963 196.483 493.192 196.178C492.422 195.874 491.55 196.252 491.246 197.022L494.036 198.125ZM489.777 200.771C489.477 201.543 489.859 202.412 490.632 202.712C491.404 203.012 492.273 202.629 492.573 201.857L489.777 200.771ZM488.996 211.255C489.285 210.479 488.891 209.615 488.115 209.326C487.338 209.036 486.475 209.431 486.185 210.207L488.996 211.255ZM484.793 213.968C484.507 214.745 484.906 215.607 485.683 215.893C486.461 216.179 487.323 215.78 487.609 215.002L484.793 213.968ZM484.214 224.415C484.491 223.634 484.082 222.776 483.301 222.5C482.52 222.223 481.663 222.632 481.386 223.413L484.214 224.415ZM480.051 227.209C479.778 227.991 480.19 228.847 480.972 229.12C481.754 229.393 482.61 228.981 482.883 228.199L480.051 227.209ZM479.618 237.697C479.884 236.912 479.463 236.061 478.678 235.795C477.893 235.53 477.042 235.951 476.776 236.736L479.618 237.697ZM475.496 240.542C475.234 241.328 475.658 242.178 476.443 242.44C477.229 242.703 478.079 242.279 478.342 241.493L475.496 240.542ZM475.204 251.012C475.46 250.225 475.029 249.378 474.242 249.122C473.454 248.866 472.607 249.297 472.351 250.085L475.204 251.012ZM471.114 253.91C470.86 254.699 471.294 255.544 472.082 255.798C472.871 256.051 473.716 255.618 473.97 254.829L471.114 253.91ZM470.929 264.39C471.178 263.599 470.739 262.757 469.948 262.509C469.158 262.26 468.316 262.7 468.067 263.49L470.929 264.39ZM466.865 267.331C466.618 268.122 467.059 268.963 467.85 269.209C468.641 269.456 469.482 269.015 469.729 268.224L466.865 267.331ZM466.767 277.813C467.009 277.021 466.564 276.182 465.772 275.939C464.98 275.697 464.141 276.142 463.898 276.935L466.767 277.813ZM462.726 280.775C462.485 281.567 462.932 282.405 463.725 282.646C464.517 282.888 465.355 282.441 465.596 281.648L462.726 280.775ZM462.696 291.246C462.935 290.452 462.485 289.616 461.691 289.378C460.898 289.139 460.061 289.589 459.823 290.383L462.696 291.246ZM458.666 294.246C458.429 295.039 458.88 295.875 459.673 296.112C460.467 296.35 461.303 295.899 461.54 295.105L458.666 294.246ZM458.674 304.733C458.91 303.938 458.457 303.104 457.662 302.868C456.868 302.632 456.033 303.085 455.798 303.879L458.674 304.733ZM454.659 307.722C454.424 308.516 454.877 309.351 455.672 309.586C456.466 309.821 457.301 309.368 457.536 308.573L454.659 307.722ZM454.693 318.191C454.927 317.397 454.473 316.562 453.679 316.328C452.884 316.093 452.05 316.547 451.815 317.341L454.693 318.191ZM450.671 321.214C450.437 322.008 450.89 322.842 451.685 323.077C452.479 323.312 453.314 322.858 453.548 322.064L450.671 321.214ZM450.697 331.698C450.933 330.904 450.48 330.069 449.685 329.834C448.891 329.598 448.056 330.051 447.821 330.845L450.697 331.698ZM446.683 334.676C446.447 335.47 446.899 336.305 447.693 336.541C448.487 336.777 449.322 336.325 449.558 335.531L446.683 334.676ZM446.681 345.159C446.92 344.365 446.47 343.529 445.676 343.29C444.883 343.052 444.047 343.502 443.808 344.295L446.681 345.159ZM442.643 348.163C442.403 348.956 442.852 349.793 443.645 350.032C444.438 350.272 445.275 349.823 445.515 349.03L442.643 348.163ZM442.59 358.632C442.834 357.841 442.389 357.001 441.597 356.758C440.805 356.515 439.966 356.96 439.723 357.751L442.59 358.632ZM438.55 361.553C438.305 362.344 438.748 363.184 439.539 363.429C440.331 363.674 441.171 363.232 441.416 362.44L438.55 361.553ZM438.398 372.072C438.649 371.282 438.212 370.439 437.422 370.188C436.633 369.938 435.789 370.375 435.539 371.165L438.398 372.072ZM434.314 375.006C434.061 375.795 434.495 376.639 435.284 376.892C436.073 377.145 436.917 376.711 437.17 375.922L434.314 375.006ZM434.073 385.436C434.333 384.65 433.906 383.801 433.12 383.541C432.333 383.281 431.485 383.708 431.224 384.494L434.073 385.436ZM429.976 388.241C429.713 389.026 430.136 389.876 430.921 390.14C431.707 390.403 432.557 389.98 432.821 389.195L429.976 388.241ZM429.528 398.823C429.801 398.04 429.388 397.185 428.606 396.912C427.824 396.639 426.968 397.052 426.695 397.834L429.528 398.823ZM425.364 401.617C425.086 402.397 425.495 403.255 426.275 403.532C427.056 403.809 427.913 403.401 428.191 402.621L425.364 401.617ZM424.796 411.961C425.085 411.185 424.69 410.321 423.914 410.032C423.137 409.743 422.274 410.138 421.985 410.915L424.796 411.961ZM420.551 414.725C420.257 415.499 420.646 416.366 421.42 416.66C422.195 416.955 423.061 416.566 423.355 415.791L420.551 414.725ZM419.664 425.23C419.973 424.461 419.601 423.588 418.833 423.278C418.064 422.969 417.19 423.341 416.881 424.109L419.664 425.23ZM415.384 427.782C415.068 428.547 415.433 429.424 416.198 429.74C416.964 430.056 417.841 429.692 418.157 428.926L415.384 427.782ZM414.206 438.188C414.54 437.43 414.197 436.545 413.439 436.21C412.681 435.876 411.796 436.219 411.461 436.977L414.206 438.188ZM409.807 440.67C409.464 441.424 409.797 442.313 410.552 442.656C411.306 442.999 412.195 442.666 412.538 441.911L409.807 440.67ZM408.26 450.962C408.626 450.219 408.32 449.32 407.576 448.954C406.833 448.588 405.934 448.895 405.568 449.638L408.26 450.962ZM403.808 453.159C403.432 453.897 403.726 454.8 404.464 455.176C405.203 455.551 406.106 455.257 406.481 454.519L403.808 453.159ZM401.667 463.555C402.071 462.832 401.812 461.918 401.089 461.514C400.366 461.11 399.452 461.369 399.048 462.092L401.667 463.555ZM397.088 465.529C396.671 466.245 396.914 467.163 397.63 467.58C398.346 467.996 399.265 467.754 399.681 467.038L397.088 465.529ZM394.402 475.638C394.853 474.943 394.655 474.014 393.96 473.563C393.265 473.112 392.336 473.31 391.885 474.005L394.402 475.638ZM389.656 477.358C389.19 478.043 389.367 478.976 390.051 479.443C390.736 479.909 391.669 479.732 392.136 479.047L389.656 477.358ZM386.265 487.14C386.772 486.485 386.652 485.543 385.997 485.035C385.342 484.528 384.4 484.648 383.893 485.303L386.265 487.14ZM381.379 488.456C380.853 489.096 380.946 490.041 381.587 490.567C382.227 491.093 383.172 491 383.698 490.359L381.379 488.456ZM376.943 497.975C377.517 497.378 377.499 496.428 376.902 495.854C376.305 495.28 375.355 495.298 374.781 495.895L376.943 497.975ZM372.042 498.648C371.447 499.225 371.433 500.175 372.01 500.769C372.587 501.364 373.537 501.378 374.131 500.801L372.042 498.648ZM366.44 507.586C367.087 507.069 367.194 506.126 366.678 505.478C366.161 504.83 365.218 504.723 364.57 505.239L366.44 507.586ZM361.449 507.621C360.78 508.11 360.633 509.048 361.122 509.717C361.61 510.386 362.549 510.533 363.218 510.044L361.449 507.621ZM354.674 515.573C355.394 515.164 355.647 514.249 355.238 513.528C354.829 512.808 353.913 512.555 353.193 512.964L354.674 515.573ZM349.719 514.826C348.98 515.2 348.683 516.102 349.056 516.842C349.43 517.581 350.332 517.878 351.072 517.504L349.719 514.826ZM341.724 521.521C342.504 521.242 342.91 520.383 342.631 519.603C342.353 518.823 341.494 518.417 340.714 518.696L341.724 521.521ZM336.996 519.92C336.203 520.16 335.754 520.997 335.993 521.79C336.232 522.583 337.069 523.032 337.863 522.792L336.996 519.92ZM327.847 525.143C328.664 525.003 329.213 524.229 329.074 523.412C328.935 522.595 328.16 522.046 327.343 522.185L327.847 525.143ZM323.547 522.742C322.724 522.844 322.14 523.593 322.242 524.415C322.343 525.237 323.092 525.821 323.914 525.72L323.547 522.742ZM313.698 526.397C314.526 526.387 315.19 525.708 315.181 524.88C315.171 524.051 314.492 523.387 313.663 523.397L313.698 526.397ZM309.629 523.358C308.801 523.333 308.11 523.984 308.085 524.812C308.06 525.64 308.711 526.332 309.539 526.357L309.629 523.358ZM299.64 525.595C300.462 525.696 301.21 525.11 301.31 524.288C301.41 523.465 300.825 522.718 300.002 522.617L299.64 525.595ZM296.01 522.061C295.192 521.932 294.425 522.492 294.296 523.31C294.168 524.129 294.727 524.896 295.546 525.025L296.01 522.061ZM285.601 523.067C286.408 523.257 287.215 522.757 287.405 521.951C287.595 521.145 287.095 520.337 286.289 520.147L285.601 523.067ZM282.538 519.211C281.737 519 280.916 519.478 280.705 520.279C280.494 521.08 280.972 521.901 281.773 522.112L282.538 519.211ZM271.922 519.177C272.709 519.438 273.557 519.011 273.818 518.225C274.078 517.439 273.652 516.59 272.865 516.33L271.922 519.177ZM268.895 514.964C268.115 514.685 267.257 515.092 266.978 515.872C266.7 516.652 267.106 517.511 267.887 517.789L268.895 514.964ZM258.854 514.317C259.62 514.632 260.496 514.266 260.811 513.5C261.126 512.734 260.76 511.857 259.994 511.542L258.854 514.317ZM256.34 510.002C255.579 509.673 254.697 510.023 254.368 510.784C254.039 511.544 254.39 512.427 255.15 512.756L256.34 510.002ZM245.661 508.414C246.407 508.774 247.304 508.461 247.664 507.714C248.024 506.968 247.711 506.072 246.964 505.712L245.661 508.414ZM243.219 503.872C242.478 503.503 241.577 503.805 241.208 504.547C240.839 505.288 241.141 506.189 241.882 506.558L243.219 503.872ZM232.837 501.924C233.57 502.31 234.477 502.029 234.863 501.296C235.25 500.563 234.969 499.656 234.236 499.27L232.837 501.924ZM230.716 497.394C229.987 497.001 229.077 497.273 228.684 498.003C228.291 498.732 228.563 499.642 229.293 500.035L230.716 497.394ZM220.588 495.21C221.308 495.621 222.224 495.37 222.634 494.65C223.044 493.93 222.793 493.014 222.073 492.604L220.588 495.21ZM218.554 490.576C217.839 490.158 216.92 490.4 216.503 491.116C216.086 491.832 216.328 492.75 217.043 493.167L218.554 490.576ZM208.375 487.968C209.08 488.403 210.004 488.184 210.439 487.479C210.874 486.774 210.655 485.85 209.95 485.415L208.375 487.968ZM206.585 483.316C205.884 482.874 204.958 483.083 204.516 483.784C204.074 484.484 204.284 485.411 204.984 485.853L206.585 483.316ZM196.553 480.381C197.242 480.841 198.173 480.655 198.633 479.966C199.093 479.277 198.908 478.346 198.219 477.886L196.553 480.381ZM194.879 475.631C194.195 475.164 193.261 475.34 192.794 476.024C192.327 476.708 192.503 477.641 193.187 478.108L194.879 475.631ZM184.971 472.336C185.642 472.821 186.58 472.67 187.065 471.999C187.55 471.328 187.399 470.39 186.728 469.905L184.971 472.336ZM183.546 467.579C182.88 467.087 181.94 467.228 181.448 467.894C180.956 468.56 181.096 469.499 181.763 469.992L183.546 467.579ZM173.686 463.847C174.338 464.358 175.281 464.243 175.792 463.591C176.302 462.939 176.187 461.996 175.535 461.485L173.686 463.847ZM172.402 459.004C171.756 458.487 170.812 458.591 170.294 459.237C169.776 459.884 169.88 460.828 170.527 461.346L172.402 459.004ZM162.818 454.992C163.45 455.528 164.396 455.45 164.932 454.818C165.468 454.186 165.39 453.24 164.758 452.704L162.818 454.992ZM161.691 450.072C161.066 449.529 160.118 449.596 159.575 450.221C159.032 450.847 159.099 451.794 159.725 452.337L161.691 450.072ZM152.201 445.613C152.81 446.174 153.759 446.134 154.32 445.525C154.881 444.915 154.842 443.966 154.232 443.405L152.201 445.613ZM151.33 440.704C150.727 440.136 149.778 440.165 149.21 440.768C148.642 441.371 148.67 442.32 149.273 442.888L151.33 440.704ZM142.026 435.86C142.613 436.446 143.562 436.445 144.148 435.859C144.733 435.273 144.732 434.323 144.146 433.738L142.026 435.86ZM141.33 430.892C140.751 430.3 139.801 430.289 139.209 430.869C138.617 431.448 138.606 432.397 139.185 432.99L141.33 430.892ZM132.29 425.73C132.852 426.339 133.801 426.377 134.41 425.815C135.019 425.254 135.057 424.305 134.496 423.696L132.29 425.73ZM131.787 420.723C131.233 420.107 130.285 420.058 129.669 420.612C129.053 421.166 129.003 422.115 129.558 422.73L131.787 420.723ZM122.916 415.129C123.452 415.761 124.398 415.839 125.03 415.303C125.662 414.767 125.74 413.821 125.204 413.189L122.916 415.129ZM122.653 410.143C122.125 409.505 121.179 409.416 120.541 409.945C119.903 410.473 119.814 411.418 120.342 412.056L122.653 410.143ZM114.025 404.191C114.534 404.844 115.476 404.961 116.13 404.452C116.783 403.943 116.9 403 116.391 402.347L114.025 404.191ZM113.952 399.177C113.451 398.518 112.51 398.39 111.85 398.891C111.191 399.393 111.062 400.334 111.564 400.993L113.952 399.177ZM105.61 392.92C106.092 393.594 107.029 393.749 107.703 393.267C108.376 392.786 108.532 391.849 108.05 391.175L105.61 392.92ZM105.731 387.892C105.257 387.213 104.322 387.046 103.643 387.52C102.963 387.994 102.797 388.929 103.271 389.609L105.731 387.892ZM97.6248 381.262C98.079 381.955 99.0088 382.148 99.7016 381.694C100.394 381.24 100.588 380.31 100.134 379.617L97.6248 381.262ZM97.9729 376.28C97.5266 375.582 96.599 375.378 95.9011 375.825C95.2032 376.271 94.9992 377.199 95.4456 377.897L97.9729 376.28ZM90.128 369.316C90.5545 370.027 91.4759 370.257 92.1862 369.83C92.8964 369.404 93.1265 368.482 92.7001 367.772L90.128 369.316ZM90.6635 364.337C90.245 363.622 89.3261 363.382 88.6112 363.8C87.8962 364.219 87.6559 365.137 88.0744 365.852L90.6635 364.337ZM83.1141 357.105C83.5129 357.831 84.4248 358.097 85.151 357.698C85.8771 357.299 86.1424 356.387 85.7436 355.661L83.1141 357.105ZM83.8337 352.138C83.4428 351.408 82.5337 351.133 81.8034 351.524C81.073 351.915 80.7978 352.824 81.1887 353.554L83.8337 352.138ZM76.5607 344.624C76.9322 345.364 77.8336 345.664 78.5741 345.292C79.3146 344.921 79.6137 344.019 79.2422 343.279L76.5607 344.624ZM77.4714 339.703C77.1076 338.958 76.2093 338.65 75.465 339.014C74.7208 339.377 74.4123 340.276 74.776 341.02L77.4714 339.703ZM70.4641 331.904C70.8088 332.657 71.6989 332.988 72.4522 332.644C73.2056 332.299 73.5368 331.409 73.1921 330.655L70.4641 331.904ZM71.55 327.019C71.2128 326.262 70.326 325.922 69.5693 326.26C68.8126 326.597 68.4725 327.484 68.8097 328.24L71.55 327.019ZM64.8233 318.993C65.1421 319.757 66.0203 320.119 66.785 319.8C67.5496 319.481 67.9111 318.603 67.5924 317.838L64.8233 318.993ZM66.0707 314.139C65.7592 313.371 64.8845 313.001 64.1168 313.313C63.3492 313.624 62.9794 314.499 63.2909 315.267L66.0707 314.139ZM59.6206 305.912C59.9143 306.687 60.7804 307.077 61.555 306.783C62.3296 306.489 62.7194 305.623 62.4257 304.848L59.6206 305.912ZM61.0209 301.093C60.7342 300.316 59.8716 299.918 59.0944 300.205C58.3172 300.492 57.9196 301.354 58.2064 302.132L61.0209 301.093ZM54.8275 292.655C55.0973 293.439 55.951 293.855 56.7342 293.585C57.5175 293.315 57.9337 292.462 57.6639 291.678L54.8275 292.655ZM56.3811 287.903C56.118 287.117 55.2678 286.694 54.4823 286.957C53.6968 287.22 53.2734 288.07 53.5366 288.856L56.3811 287.903ZM50.4332 279.266C50.6803 280.057 51.5216 280.498 52.3123 280.251C53.103 280.004 53.5438 279.162 53.2967 278.372L50.4332 279.266ZM52.1202 274.553C51.8794 273.76 51.0416 273.313 50.2489 273.554C49.4563 273.795 49.0089 274.633 49.2497 275.425L52.1202 274.553ZM46.4179 265.771C46.6436 266.568 47.4727 267.031 48.2698 266.806C49.0669 266.58 49.5301 265.751 49.3045 264.954L46.4179 265.771ZM48.2279 261.097C48.0082 260.298 47.1825 259.829 46.3837 260.048C45.585 260.268 45.1157 261.094 45.3354 261.893L48.2279 261.097ZM42.7581 252.189C42.9638 252.991 43.781 253.475 44.5835 253.269C45.386 253.064 45.8699 252.246 45.6642 251.444L42.7581 252.189ZM44.681 247.551C44.4808 246.748 43.6669 246.258 42.863 246.458C42.0591 246.659 41.5697 247.472 41.7699 248.276L44.681 247.551ZM39.4213 238.502C39.6084 239.309 40.4142 239.812 41.2213 239.625C42.0283 239.438 42.5309 238.632 42.3439 237.825L39.4213 238.502ZM41.455 233.935C41.273 233.127 40.4703 232.619 39.6621 232.801C38.8539 232.983 38.3463 233.786 38.5284 234.594L41.455 233.935ZM36.3888 224.749C36.5588 225.56 37.3538 226.08 38.1646 225.91C38.9755 225.74 39.4949 224.945 39.325 224.134L36.3888 224.749ZM38.5161 220.22C38.3507 219.408 37.5586 218.884 36.7468 219.049C35.9351 219.215 35.4111 220.007 35.5765 220.819L38.5161 220.22ZM33.6358 210.95C33.7903 211.764 34.5753 212.299 35.3892 212.144C36.2031 211.99 36.7377 211.205 36.5832 210.391L33.6358 210.95ZM35.8461 206.452C35.6958 205.637 34.9135 205.099 34.0988 205.249C33.2842 205.399 32.7456 206.182 32.8959 206.996L35.8461 206.452ZM31.1354 197.119C31.276 197.936 32.0517 198.484 32.8682 198.343C33.6846 198.202 34.2325 197.427 34.0919 196.61L31.1354 197.119ZM33.4186 192.646C33.2817 191.829 32.5084 191.278 31.6914 191.415C30.8743 191.551 30.3229 192.325 30.4599 193.142L33.4186 192.646ZM28.855 183.24C28.9833 184.059 29.7508 184.618 30.5693 184.49C31.3877 184.361 31.9471 183.594 31.8188 182.775L28.855 183.24ZM31.2056 178.815C31.0804 177.996 30.3151 177.433 29.4962 177.558C28.6773 177.684 28.1149 178.449 28.24 179.268L31.2056 178.815ZM26.7655 169.317C26.8833 170.137 27.6436 170.706 28.4636 170.588C29.2836 170.47 29.8528 169.71 29.735 168.89L26.7655 169.317ZM29.1742 164.942C29.059 164.121 28.3005 163.55 27.4802 163.665C26.6598 163.78 26.0881 164.538 26.2033 165.359L29.1742 164.942ZM24.8405 155.382C24.9497 156.203 25.704 156.78 26.5252 156.671C27.3464 156.562 27.9235 155.808 27.8144 154.986L24.8405 155.382ZM27.2922 151.02C27.185 150.199 26.4323 149.619 25.6108 149.727C24.7893 149.834 24.2102 150.586 24.3173 151.408L27.2922 151.02ZM23.0476 141.445C23.1502 142.267 23.8997 142.85 24.7218 142.748C25.5438 142.645 26.1271 141.896 26.0246 141.073L23.0476 141.445ZM25.5312 137.088C25.4302 136.265 24.6818 135.681 23.8595 135.782C23.0373 135.883 22.4526 136.631 22.5536 137.453L25.5312 137.088ZM21.352 127.512C21.45 128.335 22.1963 128.922 23.0189 128.825C23.8415 128.727 24.4289 127.98 24.3309 127.158L21.352 127.512ZM23.8558 123.151C23.7587 122.328 23.013 121.74 22.1903 121.837C21.3676 121.934 20.7794 122.68 20.8765 123.503L23.8558 123.151ZM19.7144 113.582C19.8102 114.405 20.555 114.994 21.3779 114.898C22.2008 114.802 22.7901 114.058 22.6943 113.235L19.7144 113.582ZM22.2265 109.215C22.1308 108.392 21.3862 107.803 20.5633 107.898C19.7404 107.994 19.1509 108.739 19.2466 109.562L22.2265 109.215ZM18.0868 99.6101C18.1832 100.433 18.9283 101.022 19.7511 100.925C20.5739 100.829 21.1628 100.084 21.0665 99.2612L18.0868 99.6101ZM20.5991 95.2833C20.5021 94.4606 19.7565 93.8723 18.9338 93.9694C18.1111 94.0664 17.5227 94.812 17.6198 95.6347L20.5991 95.2833ZM16.4266 85.6545C16.5266 86.4769 17.2743 87.0626 18.0966 86.9626C18.919 86.8626 19.5046 86.115 19.4047 85.2926L16.4266 85.6545ZM18.9221 81.3535C18.8205 80.5313 18.0716 79.9471 17.2495 80.0487C16.4273 80.1504 15.8432 80.8992 15.9447 81.7214L18.9221 81.3535ZM14.6768 71.7227C14.784 72.5441 15.5368 73.1232 16.3583 73.016C17.1797 72.9087 17.7588 72.1559 17.6516 71.3345L14.6768 71.7227ZM17.1303 67.392C17.0203 66.5709 16.2654 65.9945 15.4443 66.1045C14.6233 66.2145 14.0468 66.9693 14.1569 67.7904L17.1303 67.392ZM12.769 57.8243C12.888 58.6442 13.649 59.2124 14.4688 59.0934C15.2887 58.9745 15.8569 58.2135 15.7379 57.3936L12.769 57.8243ZM15.1561 53.4537C15.0329 52.6345 14.2689 52.0703 13.4497 52.1935C12.6305 52.3167 12.0662 53.0807 12.1895 53.8999L15.1561 53.4537ZM10.6194 43.975C10.7556 44.7922 11.5285 45.3441 12.3456 45.2079C13.1628 45.0717 13.7148 44.2988 13.5785 43.4816L10.6194 43.975ZM12.9089 39.5542C12.7665 38.7382 11.9895 38.192 11.1734 38.3343C10.3573 38.4767 9.81114 39.2537 9.95349 40.0697L12.9089 39.5542ZM8.12189 30.2011C8.28259 31.0138 9.07171 31.5423 9.88439 31.3816C10.6971 31.2209 11.2256 30.4318 11.0649 29.6191L8.12189 30.2011ZM10.273 25.7205C10.1038 24.9096 9.30918 24.3893 8.49823 24.5585C7.68728 24.7278 7.16705 25.5224 7.33625 26.3333L10.273 25.7205ZM5.14006 16.55C5.33473 17.3553 6.14529 17.8502 6.95055 17.6556C7.75576 17.4609 8.25075 16.6504 8.05609 15.8451L5.14006 16.55ZM7.09687 11.9975C6.89058 11.1952 6.07293 10.712 5.27059 10.9183C4.46826 11.1246 3.98509 11.9423 4.19138 12.7446L7.09687 11.9975ZM1.49568 3.10595C1.73692 3.89846 2.57496 4.34535 3.36751 4.10417C4.16001 3.86287 4.60694 3.02489 4.36565 2.23227L1.49568 3.10595ZM1159.48 609.675C1158.81 609.498 1158.15 609.318 1157.48 609.137L1156.69 612.032C1157.36 612.215 1158.04 612.396 1158.72 612.575L1159.48 609.675ZM1147.66 606.29C1146.38 605.893 1145.1 605.489 1143.83 605.079L1142.91 607.933C1144.19 608.347 1145.48 608.755 1146.78 609.156L1147.66 606.29ZM1134.5 601.875C1133.27 601.431 1132.06 600.981 1130.86 600.524L1129.79 603.329C1131.01 603.791 1132.24 604.246 1133.47 604.695L1134.5 601.875ZM1121.39 596.725C1120.15 596.198 1118.92 595.664 1117.7 595.123L1116.48 597.866C1117.72 598.414 1118.96 598.954 1120.22 599.486L1121.39 596.725ZM1108.72 590.931C1107.55 590.355 1106.38 589.771 1105.23 589.181L1103.86 591.851C1105.03 592.449 1106.21 593.04 1107.4 593.624L1108.72 590.931ZM1096.31 584.374C1095.14 583.711 1093.98 583.041 1092.84 582.363L1091.31 584.946C1092.47 585.633 1093.65 586.312 1094.83 586.984L1096.31 584.374ZM1084.41 577.14C1083.31 576.424 1082.21 575.7 1081.13 574.969L1079.45 577.455C1080.55 578.195 1081.66 578.929 1082.77 579.655L1084.41 577.14ZM1072.89 569.124C1071.82 568.326 1070.75 567.52 1069.7 566.707L1067.87 569.081C1068.93 569.905 1070.01 570.722 1071.1 571.531L1072.89 569.124ZM1061.99 560.471C1060.97 559.607 1059.96 558.736 1058.96 557.857L1056.98 560.111C1057.99 561.002 1059.02 561.885 1060.05 562.761L1061.99 560.471ZM1051.57 551.063C1050.61 550.139 1049.66 549.207 1048.72 548.269L1046.6 550.394C1047.55 551.345 1048.52 552.288 1049.49 553.225L1051.57 551.063ZM1041.82 541.088C1040.92 540.102 1040.02 539.109 1039.13 538.109L1036.89 540.1C1037.79 541.112 1038.7 542.119 1039.61 543.118L1041.82 541.088ZM1032.65 530.482C1031.81 529.449 1030.98 528.409 1030.16 527.363L1027.8 529.217C1028.63 530.277 1029.48 531.33 1030.33 532.376L1032.65 530.482ZM1024.14 519.386C1023.36 518.305 1022.59 517.218 1021.82 516.125L1019.36 517.845C1020.14 518.95 1020.92 520.05 1021.71 521.144L1024.14 519.386ZM1016.24 507.815C1015.52 506.693 1014.8 505.565 1014.1 504.431L1011.55 506.019C1012.27 507.165 1012.99 508.306 1013.72 509.441L1016.24 507.815ZM1008.95 495.858C1008.29 494.703 1007.63 493.543 1006.98 492.377L1004.36 493.84C1005.02 495.017 1005.68 496.189 1006.36 497.356L1008.95 495.858ZM1002.23 483.539C1001.62 482.351 1001.01 481.159 1000.41 479.962L997.729 481.307C998.335 482.514 998.947 483.717 999.566 484.916L1002.23 483.539ZM996.067 470.964C995.504 469.753 994.947 468.537 994.396 467.318L991.662 468.552C992.217 469.782 992.779 471.008 993.347 472.229L996.067 470.964ZM990.379 458.093C989.865 456.868 989.356 455.639 988.853 454.407L986.076 455.541C986.582 456.782 987.095 458.02 987.613 459.255L990.379 458.093ZM985.181 445.092C984.704 443.841 984.233 442.587 983.767 441.329L980.954 442.372C981.423 443.638 981.898 444.901 982.377 446.16L985.181 445.092ZM980.375 431.867C979.939 430.608 979.508 429.347 979.08 428.083L976.238 429.043C976.668 430.315 977.102 431.584 977.541 432.85L980.375 431.867ZM975.958 418.548C975.553 417.27 975.151 415.989 974.754 414.706L971.888 415.593C972.288 416.883 972.691 418.171 973.099 419.456L975.958 418.548ZM971.862 405.087C971.487 403.806 971.117 402.522 970.75 401.236L967.865 402.06C968.234 403.351 968.606 404.641 968.982 405.928L971.862 405.087ZM968.06 391.554C967.709 390.258 967.362 388.96 967.017 387.661L964.117 388.429C964.463 389.733 964.812 391.036 965.164 392.337L968.06 391.554ZM964.504 377.938C964.177 376.641 963.852 375.343 963.53 374.042L960.618 374.764C960.941 376.068 961.267 377.371 961.596 378.672L964.504 377.938ZM961.161 364.267C960.85 362.961 960.543 361.653 960.237 360.345L957.315 361.027C957.622 362.339 957.931 363.65 958.242 364.96L961.161 364.267ZM957.99 350.551C957.696 349.243 957.403 347.935 957.112 346.626L954.183 347.278C954.475 348.589 954.768 349.9 955.064 351.21L957.99 350.551ZM954.957 336.799C954.673 335.487 954.391 334.176 954.11 332.863L951.177 333.491C951.458 334.806 951.741 336.119 952.025 337.433L954.957 336.799ZM952.024 323.018C951.748 321.704 951.474 320.391 951.2 319.078L948.263 319.69C948.537 321.005 948.812 322.319 949.088 323.634L952.024 323.018ZM949.16 309.231C948.888 307.915 948.618 306.6 948.347 305.284L945.409 305.889C945.679 307.204 945.95 308.52 946.221 309.837L949.16 309.231ZM946.321 295.411C946.051 294.096 945.781 292.781 945.511 291.468L942.573 292.071C942.842 293.384 943.112 294.699 943.382 296.014L946.321 295.411ZM943.485 281.628C943.212 280.307 942.938 278.986 942.664 277.667L939.726 278.277C940 279.596 940.274 280.915 940.547 282.236L943.485 281.628ZM940.595 267.793C940.318 266.48 940.039 265.168 939.76 263.858L936.826 264.483C937.105 265.792 937.383 267.102 937.66 268.414L940.595 267.793ZM937.638 254.028C937.349 252.707 937.059 251.388 936.767 250.071L933.838 250.72C934.129 252.035 934.419 253.351 934.707 254.669L937.638 254.028ZM934.549 240.231C934.249 238.924 933.948 237.619 933.644 236.317L930.722 236.998C931.025 238.297 931.326 239.598 931.625 240.902L934.549 240.231ZM931.308 226.509C930.988 225.194 930.666 223.883 930.341 222.574L927.429 223.296C927.753 224.601 928.074 225.908 928.393 227.218L931.308 226.509ZM927.855 212.81C927.517 211.515 927.176 210.224 926.832 208.935L923.934 209.709C924.276 210.992 924.616 212.279 924.953 213.568L927.855 212.81ZM924.147 199.171C923.778 197.87 923.406 196.573 923.031 195.28L920.15 196.117C920.524 197.404 920.894 198.694 921.26 199.988L924.147 199.171ZM920.143 185.654C919.745 184.372 919.344 183.094 918.938 181.821L916.08 182.731C916.483 183.997 916.882 185.268 917.277 186.542L920.143 185.654ZM915.751 172.169C915.314 170.894 914.873 169.623 914.426 168.357L911.597 169.355C912.04 170.612 912.479 171.874 912.913 173.141L915.751 172.169ZM910.97 158.929C910.484 157.654 909.993 156.385 909.496 155.121L906.704 156.22C907.197 157.473 907.685 158.732 908.167 159.997L910.97 158.929ZM905.653 145.751C905.125 144.516 904.591 143.287 904.05 142.064L901.307 143.277C901.842 144.489 902.372 145.706 902.895 146.93L905.653 145.751ZM899.804 132.874C899.214 131.652 898.616 130.436 898.011 129.227L895.328 130.57C895.927 131.766 896.518 132.969 897.102 134.178L899.804 132.874ZM893.326 120.295C892.678 119.115 892.022 117.943 891.358 116.779L888.752 118.265C889.408 119.416 890.057 120.574 890.697 121.739L893.326 120.295ZM886.127 108.051C885.408 106.908 884.679 105.772 883.94 104.646L881.431 106.29C882.159 107.401 882.878 108.521 883.589 109.649L886.127 108.051ZM878.201 96.3254C877.404 95.2274 876.596 94.1385 875.778 93.0588L873.387 94.8705C874.193 95.9337 874.988 97.0064 875.774 98.0883L878.201 96.3254ZM869.446 85.1386C868.575 84.1066 867.692 83.0843 866.799 82.072L864.55 84.0568C865.428 85.0526 866.296 86.0583 867.153 87.0738L869.446 85.1386ZM859.885 74.6649C858.934 73.7029 857.971 72.7513 856.997 71.8103L854.913 73.9681C855.87 74.8928 856.816 75.8281 857.751 76.7737L859.885 74.6649ZM849.477 64.9649C848.459 64.0927 847.43 63.2312 846.388 62.3805L844.49 64.7043C845.514 65.5398 846.525 66.386 847.524 67.2427L849.477 64.9649ZM838.343 56.2071C837.239 55.4119 836.123 54.6279 834.993 53.8555L833.299 56.3317C834.409 57.0903 835.505 57.8603 836.589 58.6413L838.343 56.2071ZM826.496 48.4104C825.346 47.7208 824.184 47.0424 823.009 46.3752L821.528 48.9838C822.682 49.6394 823.824 50.3059 824.954 50.9833L826.496 48.4104ZM813.959 41.583C812.748 40.9862 811.524 40.4005 810.288 39.8259L809.024 42.5465C810.239 43.1114 811.443 43.6874 812.633 44.2741L813.959 41.583ZM801.113 35.8628C799.86 35.3611 798.594 34.8701 797.317 34.3899L796.261 37.1981C797.519 37.6708 798.765 38.1541 799.998 38.6479L801.113 35.8628ZM787.584 31.0204C786.342 30.6258 785.09 30.2409 783.826 29.8657L782.972 32.7416C784.218 33.1115 785.452 33.4908 786.676 33.8796L787.584 31.0204ZM774.142 27.2353C772.823 26.9093 771.492 26.5932 770.151 26.2872L769.483 29.2121C770.808 29.5141 772.12 29.826 773.422 30.1477L774.142 27.2353ZM760.115 24.2263C758.836 23.9918 757.548 23.7659 756.25 23.5487L755.755 26.5076C757.038 26.7223 758.311 26.9454 759.574 27.1771L760.115 24.2263ZM746.328 22.0836C744.98 21.9103 743.622 21.7459 742.254 21.5903L741.915 24.5711C743.268 24.725 744.612 24.8877 745.945 25.0591L746.328 22.0836ZM731.984 20.6066C730.698 20.5059 729.404 20.4126 728.101 20.3268L727.904 23.3203C729.195 23.4053 730.477 23.4977 731.75 23.5975L731.984 20.6066ZM718.167 19.8258C716.821 19.7781 715.466 19.7381 714.102 19.7058L714.031 22.7049C715.383 22.737 716.726 22.7767 718.061 22.8239L718.167 19.8258ZM703.706 19.6093C703.001 19.6126 702.294 19.618 701.585 19.6253L701.616 22.6251C702.32 22.6178 703.021 22.6126 703.72 22.6092L703.706 19.6093ZM701.585 19.6253C700.883 19.6324 700.184 19.6426 699.486 19.6556L699.542 22.6551C700.231 22.6422 700.923 22.6322 701.616 22.6251L701.585 19.6253ZM689.182 20.068C687.829 20.1517 686.485 20.2466 685.149 20.3529L685.387 23.3434C686.705 23.2386 688.032 23.1449 689.367 23.0623L689.182 20.068ZM675.281 21.3592C673.953 21.5251 672.633 21.7026 671.322 21.8915L671.75 24.8608C673.042 24.6746 674.343 24.4997 675.653 24.336L675.281 21.3592ZM661.181 23.6113C659.851 23.8715 658.531 24.1439 657.22 24.4283L657.856 27.3601C659.147 27.08 660.447 26.8117 661.757 26.5554L661.181 23.6113ZM647.553 26.7862C646.239 27.1433 644.934 27.513 643.638 27.8952L644.487 30.7726C645.762 30.3966 647.046 30.0327 648.34 29.6813L647.553 26.7862ZM633.928 31.0523C632.657 31.5049 631.396 31.9699 630.144 32.4474L631.214 35.2504C632.445 34.781 633.685 34.3235 634.935 33.8784L633.928 31.0523ZM620.884 36.2781C619.636 36.8356 618.398 37.4059 617.169 37.9889L618.455 40.6992C619.663 40.1261 620.88 39.5653 622.107 39.0171L620.884 36.2781ZM608.137 42.594C606.956 43.2387 605.785 43.8955 604.623 44.5643L606.12 47.1643C607.262 46.5066 608.414 45.8608 609.575 45.2269L608.137 42.594ZM596.016 49.8447C594.883 50.5839 593.759 51.3349 592.645 52.0974L594.339 54.5732C595.436 53.8231 596.541 53.0843 597.655 52.3572L596.016 49.8447ZM584.458 58.0316C583.389 58.851 582.329 59.6816 581.278 60.523L583.152 62.8651C584.187 62.0367 585.231 61.2192 586.283 60.4126L584.458 58.0316ZM573.56 67.0326C572.552 67.927 571.553 68.8317 570.563 69.7467L572.598 71.9504C573.575 71.0488 574.559 70.1573 575.551 69.2762L573.56 67.0326ZM563.289 76.7969C562.348 77.7525 561.416 78.7177 560.491 79.6922L562.667 81.7572C563.58 80.7958 564.499 79.8437 565.427 78.9012L563.289 76.7969ZM553.718 87.1525C552.834 88.1696 551.957 89.1955 551.088 90.2301L553.385 92.16C554.243 91.1381 555.109 90.1249 555.982 89.1206L553.718 87.1525ZM544.738 98.1042C543.92 99.1599 543.109 100.224 542.305 101.295L544.704 103.096C545.5 102.036 546.301 100.985 547.11 99.941L544.738 98.1042ZM536.397 109.47C535.626 110.579 534.861 111.694 534.102 112.817L536.588 114.497C537.339 113.385 538.096 112.281 538.86 111.184L536.397 109.47ZM528.6 121.251C527.888 122.382 527.181 123.519 526.48 124.663L529.037 126.231C529.732 125.098 530.432 123.971 531.138 122.85L528.6 121.251ZM521.325 133.352C520.652 134.525 519.984 135.704 519.321 136.888L521.938 138.354C522.596 137.178 523.259 136.009 523.927 134.846L521.325 133.352ZM514.537 145.701C513.913 146.885 513.294 148.075 512.68 149.269L515.348 150.641C515.958 149.455 516.572 148.274 517.191 147.099L514.537 145.701ZM508.159 158.313C507.57 159.525 506.985 160.742 506.405 161.962L509.114 163.25C509.691 162.037 510.272 160.829 510.857 159.624L508.159 158.313ZM502.196 171.052C501.645 172.274 501.098 173.499 500.555 174.728L503.299 175.941C503.839 174.719 504.383 173.5 504.931 172.286L502.196 171.052ZM496.551 184.011C496.032 185.244 495.516 186.482 495.004 187.722L497.776 188.867C498.286 187.633 498.799 186.402 499.316 185.175L496.551 184.011ZM491.246 197.022C490.753 198.269 490.263 199.519 489.777 200.771L492.573 201.857C493.058 200.61 493.545 199.366 494.036 198.125L491.246 197.022ZM486.185 210.207C485.718 211.458 485.254 212.712 484.793 213.968L487.609 215.002C488.068 213.751 488.531 212.502 488.996 211.255L486.185 210.207ZM481.386 223.413C480.939 224.677 480.493 225.942 480.051 227.209L482.883 228.199C483.324 226.936 483.768 225.674 484.214 224.415L481.386 223.413ZM476.776 236.736C476.347 238.003 475.921 239.272 475.496 240.542L478.342 241.493C478.765 240.227 479.19 238.961 479.618 237.697L476.776 236.736ZM472.351 250.085C471.937 251.359 471.525 252.634 471.114 253.91L473.97 254.829C474.379 253.556 474.791 252.284 475.204 251.012L472.351 250.085ZM468.067 263.49C467.665 264.77 467.264 266.05 466.865 267.331L469.729 268.224C470.127 266.945 470.528 265.667 470.929 264.39L468.067 263.49ZM463.898 276.935C463.506 278.215 463.116 279.495 462.726 280.775L465.596 281.648C465.985 280.37 466.375 279.091 466.767 277.813L463.898 276.935ZM459.823 290.383C459.436 291.671 459.051 292.959 458.666 294.246L461.54 295.105C461.925 293.819 462.31 292.533 462.696 291.246L459.823 290.383ZM455.798 303.879C455.418 305.161 455.038 306.442 454.659 307.722L457.536 308.573C457.915 307.294 458.294 306.014 458.674 304.733L455.798 303.879ZM451.815 317.341C451.434 318.634 451.052 319.925 450.671 321.214L453.548 322.064C453.929 320.775 454.311 319.484 454.693 318.191L451.815 317.341ZM447.821 330.845C447.441 332.124 447.062 333.401 446.683 334.676L449.558 335.531C449.938 334.256 450.317 332.978 450.697 331.698L447.821 330.845ZM443.808 344.295C443.42 345.587 443.032 346.876 442.643 348.163L445.515 349.03C445.904 347.742 446.293 346.452 446.681 345.159L443.808 344.295ZM439.723 357.751C439.332 359.022 438.942 360.289 438.55 361.553L441.416 362.44C441.808 361.174 442.199 359.905 442.59 358.632L439.723 357.751ZM435.539 371.165C435.131 372.449 434.723 373.73 434.314 375.006L437.17 375.922C437.581 374.643 437.99 373.359 438.398 372.072L435.539 371.165ZM431.224 384.494C430.81 385.748 430.394 386.997 429.976 388.241L432.821 389.195C433.239 387.947 433.656 386.694 434.073 385.436L431.224 384.494ZM426.695 397.834C426.253 399.101 425.809 400.362 425.364 401.617L428.191 402.621C428.638 401.36 429.084 400.094 429.528 398.823L426.695 397.834ZM421.985 410.915C421.509 412.192 421.031 413.462 420.551 414.725L423.355 415.791C423.838 414.522 424.318 413.245 424.796 411.961L421.985 410.915ZM416.881 424.109C416.385 425.341 415.886 426.565 415.384 427.782L418.157 428.926C418.662 427.702 419.165 426.47 419.664 425.23L416.881 424.109ZM411.461 436.977C410.914 438.217 410.362 439.449 409.807 440.67L412.538 441.911C413.098 440.68 413.654 439.439 414.206 438.188L411.461 436.977ZM405.568 449.638C404.986 450.823 404.399 451.996 403.808 453.159L406.481 454.519C407.079 453.344 407.672 452.158 408.26 450.962L405.568 449.638ZM399.048 462.092C398.4 463.251 397.747 464.397 397.088 465.529L399.681 467.038C400.349 465.89 401.011 464.729 401.667 463.555L399.048 462.092ZM391.885 474.005C391.149 475.139 390.406 476.257 389.656 477.358L392.136 479.047C392.899 477.927 393.654 476.79 394.402 475.638L391.885 474.005ZM383.893 485.303C383.063 486.373 382.226 487.425 381.379 488.456L383.698 490.359C384.563 489.306 385.418 488.232 386.265 487.14L383.893 485.303ZM374.781 495.895C373.877 496.834 372.964 497.752 372.042 498.648L374.131 500.801C375.079 499.88 376.016 498.938 376.943 497.975L374.781 495.895ZM364.57 505.239C363.541 506.059 362.501 506.853 361.449 507.621L363.218 510.044C364.305 509.251 365.379 508.431 366.44 507.586L364.57 505.239ZM353.193 512.964C352.049 513.614 350.891 514.234 349.719 514.826L351.072 517.504C352.287 516.89 353.488 516.246 354.674 515.573L353.193 512.964ZM340.714 518.696C339.489 519.133 338.25 519.542 336.996 519.92L337.863 522.792C339.165 522.399 340.452 521.975 341.724 521.521L340.714 518.696ZM327.343 522.185C326.092 522.399 324.827 522.584 323.547 522.742L323.914 525.72C325.24 525.556 326.551 525.364 327.847 525.143L327.343 522.185ZM313.663 523.397C312.334 523.412 310.989 523.399 309.629 523.358L309.539 526.357C310.94 526.399 312.326 526.412 313.698 526.397L313.663 523.397ZM300.002 522.617C298.685 522.457 297.355 522.272 296.01 522.061L295.546 525.025C296.923 525.241 298.288 525.431 299.64 525.595L300.002 522.617ZM286.289 520.147C285.05 519.856 283.799 519.543 282.538 519.211L281.773 522.112C283.06 522.451 284.336 522.769 285.601 523.067L286.289 520.147ZM272.865 516.33C271.553 515.895 270.23 515.44 268.895 514.964L267.887 517.789C269.243 518.273 270.588 518.736 271.922 519.177L272.865 516.33ZM259.994 511.542C258.785 511.045 257.567 510.532 256.34 510.002L255.15 512.756C256.393 513.293 257.628 513.813 258.854 514.317L259.994 511.542ZM246.964 505.712C246.328 505.405 245.689 505.093 245.048 504.778L243.723 507.469C244.371 507.788 245.017 508.103 245.661 508.414L246.964 505.712ZM245.048 504.778C244.437 504.477 243.827 504.175 243.219 503.872L241.882 506.558C242.494 506.863 243.108 507.166 243.723 507.469L245.048 504.778ZM234.236 499.27C233.056 498.648 231.882 498.023 230.716 497.394L229.293 500.035C230.467 500.668 231.649 501.298 232.837 501.924L234.236 499.27ZM222.073 492.604C220.893 491.931 219.72 491.255 218.554 490.576L217.043 493.167C218.218 493.852 219.399 494.533 220.588 495.21L222.073 492.604ZM209.95 485.415C208.821 484.719 207.7 484.019 206.585 483.316L204.984 485.853C206.107 486.561 207.238 487.267 208.375 487.968L209.95 485.415ZM198.219 477.886C197.098 477.138 195.984 476.386 194.879 475.631L193.187 478.108C194.301 478.87 195.423 479.627 196.553 480.381L198.219 477.886ZM186.728 469.905C185.66 469.133 184.599 468.358 183.546 467.579L181.763 469.992C182.825 470.776 183.894 471.558 184.971 472.336L186.728 469.905ZM175.535 461.485C174.483 460.662 173.439 459.835 172.402 459.004L170.527 461.346C171.572 462.183 172.625 463.017 173.686 463.847L175.535 461.485ZM164.758 452.704C163.728 451.83 162.706 450.953 161.691 450.072L159.725 452.337C160.748 453.226 161.779 454.11 162.818 454.992L164.758 452.704ZM154.232 443.405C153.257 442.508 152.29 441.608 151.33 440.704L149.273 442.888C150.241 443.8 151.217 444.708 152.201 445.613L154.232 443.405ZM144.146 433.738C143.2 432.792 142.261 431.844 141.33 430.892L139.185 432.99C140.124 433.95 141.071 434.907 142.026 435.86L144.146 433.738ZM134.496 423.696C133.585 422.708 132.682 421.717 131.787 420.723L129.558 422.73C130.461 423.733 131.371 424.733 132.29 425.73L134.496 423.696ZM125.204 413.189C124.346 412.177 123.496 411.162 122.653 410.143L120.342 412.056C121.192 413.084 122.05 414.108 122.916 415.129L125.204 413.189ZM116.391 402.347C115.57 401.293 114.757 400.237 113.952 399.177L111.564 400.993C112.376 402.062 113.197 403.128 114.025 404.191L116.391 402.347ZM108.05 391.175C107.269 390.083 106.496 388.989 105.731 387.892L103.271 389.609C104.043 390.715 104.822 391.819 105.61 392.92L108.05 391.175ZM100.134 379.617C99.406 378.507 98.6858 377.395 97.9729 376.28L95.4456 377.897C96.1645 379.021 96.8909 380.143 97.6248 381.262L100.134 379.617ZM92.7001 367.772C92.0139 366.629 91.3351 365.484 90.6635 364.337L88.0744 365.852C88.7516 367.009 89.4361 368.164 90.128 369.316L92.7001 367.772ZM85.7436 355.661C85.0999 354.489 84.4633 353.315 83.8337 352.138L81.1887 353.554C81.8233 354.74 82.4651 355.924 83.1141 357.105L85.7436 355.661ZM79.2422 343.279C78.6451 342.089 78.0549 340.896 77.4714 339.703L74.776 341.02C75.3641 342.223 75.959 343.424 76.5607 344.624L79.2422 343.279ZM73.1921 330.655C72.6382 329.445 72.0908 328.233 71.55 327.019L68.8097 328.24C69.3546 329.463 69.906 330.684 70.4641 331.904L73.1921 330.655ZM67.5924 317.838C67.0789 316.607 66.5717 315.373 66.0707 314.139L63.2909 315.267C63.7953 316.51 64.3061 317.752 64.8233 318.993L67.5924 317.838ZM62.4257 304.848C61.9514 303.598 61.4832 302.346 61.0209 301.093L58.2064 302.132C58.6718 303.393 59.1431 304.653 59.6206 305.912L62.4257 304.848ZM57.6639 291.678C57.2307 290.421 56.8031 289.162 56.3811 287.903L53.5366 288.856C53.9612 290.123 54.3915 291.39 54.8275 292.655L57.6639 291.678ZM53.2967 278.372C52.8992 277.099 52.507 275.826 52.1202 274.553L49.2497 275.425C49.6388 276.706 50.0333 277.986 50.4332 279.266L53.2967 278.372ZM49.3045 264.954C48.9406 263.668 48.5818 262.383 48.2279 261.097L45.3354 261.893C45.6912 263.186 46.052 264.478 46.4179 265.771L49.3045 264.954ZM45.6642 251.444C45.3317 250.146 45.004 248.849 44.681 247.551L41.7699 248.276C42.0945 249.58 42.4239 250.884 42.7581 252.189L45.6642 251.444ZM42.3439 237.825C42.0432 236.528 41.747 235.231 41.455 233.935L38.5284 234.594C38.8217 235.896 39.1193 237.199 39.4213 238.502L42.3439 237.825ZM39.325 224.134C39.0513 222.828 38.7818 221.524 38.5161 220.22L35.5765 220.819C35.8433 222.128 36.114 223.438 36.3888 224.749L39.325 224.134ZM36.5832 210.391C36.3338 209.077 36.0882 207.764 35.8461 206.452L32.8959 206.996C33.1389 208.313 33.3855 209.631 33.6358 210.95L36.5832 210.391ZM34.0919 196.61C33.8641 195.287 33.6397 193.966 33.4186 192.646L30.4599 193.142C30.6817 194.466 30.9069 195.792 31.1354 197.119L34.0919 196.61ZM31.8188 182.775C31.6115 181.453 31.4071 180.133 31.2056 178.815L28.24 179.268C28.4421 180.59 28.6471 181.914 28.855 183.24L31.8188 182.775ZM29.735 168.89C29.5456 167.572 29.3587 166.255 29.1742 164.942L26.2033 165.359C26.3882 166.676 26.5756 167.995 26.7655 169.317L29.735 168.89ZM27.8144 154.986C27.6382 153.662 27.4642 152.34 27.2922 151.02L24.3173 151.408C24.4896 152.73 24.664 154.054 24.8405 155.382L27.8144 154.986ZM26.0246 141.073C25.8585 139.742 25.6941 138.413 25.5312 137.088L22.5536 137.453C22.7167 138.781 22.8813 140.111 23.0476 141.445L26.0246 141.073ZM24.3309 127.158C24.1714 125.818 24.013 124.483 23.8558 123.151L20.8765 123.503C21.0339 124.836 21.1923 126.172 21.352 127.512L24.3309 127.158ZM22.6943 113.235C22.5377 111.891 22.3818 110.551 22.2265 109.215L19.2466 109.562C19.4019 110.897 19.5578 112.237 19.7144 113.582L22.6943 113.235ZM21.0665 99.2612C20.9107 97.9304 20.7549 96.6044 20.5991 95.2833L17.6198 95.6347C17.7755 96.9547 17.9311 98.2799 18.0868 99.6101L21.0665 99.2612ZM19.4047 85.2926C19.2445 83.974 19.0836 82.6609 18.9221 81.3535L15.9447 81.7214C16.106 83.0266 16.2666 84.3377 16.4266 85.6545L19.4047 85.2926ZM17.6516 71.3345C17.4792 70.0138 17.3055 68.6996 17.1303 67.392L14.1569 67.7904C14.3316 69.0944 14.5048 70.4052 14.6768 71.7227L17.6516 71.3345ZM15.7379 57.3936C15.5463 56.0727 15.3525 54.7594 15.1561 53.4537L12.1895 53.8999C12.385 55.2001 12.5781 56.5083 12.769 57.8243L15.7379 57.3936ZM13.5785 43.4816C13.3588 42.1635 13.1356 40.8544 12.9089 39.5542L9.95349 40.0697C10.1789 41.3622 10.4008 42.664 10.6194 43.975L13.5785 43.4816ZM11.0649 29.6191C10.8058 28.309 10.5419 27.0094 10.273 25.7205L7.33625 26.3333C7.60297 27.6115 7.86474 28.9008 8.12189 30.2011L11.0649 29.6191ZM8.05609 15.8451C7.74303 14.5501 7.42338 13.2673 7.09687 11.9975L4.19138 12.7446C4.51416 13.9999 4.83029 15.2685 5.14006 16.55L8.05609 15.8451ZM4.36565 2.23227C4.17308 1.59969 3.97832 0.970813 3.7813 0.345684L0.920065 1.24748C1.11403 1.86299 1.30593 2.48256 1.49568 3.10595L4.36565 2.23227Z" fill="#25C16F"/>
</svg>
