<svg width="20" height="20" viewBox="0 0 20 20" fill="none" xmlns="http://www.w3.org/2000/svg">
<path fill-rule="evenodd" clip-rule="evenodd" d="M5 0.5C5.27614 0.5 5.5 0.723858 5.5 1V2.5H14.5V1C14.5 0.723858 14.7239 0.5 15 0.5C15.2761 0.5 15.5 0.723858 15.5 1V2.5L15.8214 2.5C16.3633 2.49999 16.8004 2.49999 17.1543 2.52891C17.5187 2.55868 17.8388 2.62159 18.135 2.77248C18.6054 3.01217 18.9878 3.39462 19.2275 3.86502C19.3784 4.16117 19.4413 4.48126 19.4711 4.84569C19.5 5.19963 19.5 5.6367 19.5 6.17858V15.8214C19.5 16.3633 19.5 16.8004 19.4711 17.1543C19.4413 17.5187 19.3784 17.8388 19.2275 18.135C18.9878 18.6054 18.6054 18.9878 18.135 19.2275C17.8388 19.3784 17.5187 19.4413 17.1543 19.4711C16.8004 19.5 16.3633 19.5 15.8214 19.5H4.17858C3.6367 19.5 3.19963 19.5 2.84569 19.4711C2.48126 19.4413 2.16117 19.3784 1.86502 19.2275C1.39462 18.9878 1.01217 18.6054 0.772484 18.135C0.62159 17.8388 0.558684 17.5187 0.528909 17.1543C0.499991 16.8004 0.499995 16.3633 0.5 15.8214V6.1786C0.499995 5.6367 0.499991 5.19963 0.528909 4.84569C0.558684 4.48126 0.62159 4.16117 0.772484 3.86502C1.01217 3.39462 1.39462 3.01217 1.86502 2.77248C2.16117 2.62159 2.48126 2.55868 2.84569 2.52891C3.19963 2.49999 3.6367 2.49999 4.1786 2.5L4.5 2.5V1C4.5 0.723858 4.72386 0.5 5 0.5ZM4.2 3.5C3.6317 3.5 3.23554 3.50039 2.92712 3.52559C2.62454 3.55031 2.45069 3.5964 2.31901 3.66349C2.03677 3.8073 1.8073 4.03677 1.66349 4.31901C1.5964 4.45069 1.55031 4.62454 1.52559 4.92712C1.50039 5.23554 1.5 5.6317 1.5 6.2V6.5H18.5V6.2C18.5 5.6317 18.4996 5.23554 18.4744 4.92712C18.4497 4.62454 18.4036 4.45069 18.3365 4.31901C18.1927 4.03677 17.9632 3.8073 17.681 3.66349C17.5493 3.5964 17.3755 3.55031 17.0729 3.52559C16.7645 3.50039 16.3683 3.5 15.8 3.5H4.2ZM18.5 7.5H1.5V15.8C1.5 16.3683 1.50039 16.7645 1.52559 17.0729C1.55031 17.3755 1.5964 17.5493 1.66349 17.681C1.8073 17.9632 2.03677 18.1927 2.31901 18.3365C2.45069 18.4036 2.62454 18.4497 2.92712 18.4744C3.23554 18.4996 3.6317 18.5 4.2 18.5H15.8C16.3683 18.5 16.7645 18.4996 17.0729 18.4744C17.3755 18.4497 17.5493 18.4036 17.681 18.3365C17.9632 18.1927 18.1927 17.9632 18.3365 17.681C18.4036 17.5493 18.4497 17.3755 18.4744 17.0729C18.4996 16.7645 18.5 16.3683 18.5 15.8V7.5ZM3.5 10C3.5 9.72386 3.72386 9.5 4 9.5H6C6.27614 9.5 6.5 9.72386 6.5 10C6.5 10.2761 6.27614 10.5 6 10.5H4C3.72386 10.5 3.5 10.2761 3.5 10ZM8.5 10C8.5 9.72386 8.72386 9.5 9 9.5H11C11.2761 9.5 11.5 9.72386 11.5 10C11.5 10.2761 11.2761 10.5 11 10.5H9C8.72386 10.5 8.5 10.2761 8.5 10ZM13.5 10C13.5 9.72386 13.7239 9.5 14 9.5H16C16.2761 9.5 16.5 9.72386 16.5 10C16.5 10.2761 16.2761 10.5 16 10.5H14C13.7239 10.5 13.5 10.2761 13.5 10ZM3.5 13C3.5 12.7239 3.72386 12.5 4 12.5H6C6.27614 12.5 6.5 12.7239 6.5 13C6.5 13.2761 6.27614 13.5 6 13.5H4C3.72386 13.5 3.5 13.2761 3.5 13ZM8.5 13C8.5 12.7239 8.72386 12.5 9 12.5H11C11.2761 12.5 11.5 12.7239 11.5 13C11.5 13.2761 11.2761 13.5 11 13.5H9C8.72386 13.5 8.5 13.2761 8.5 13ZM13.5 13C13.5 12.7239 13.7239 12.5 14 12.5H16C16.2761 12.5 16.5 12.7239 16.5 13C16.5 13.2761 16.2761 13.5 16 13.5H14C13.7239 13.5 13.5 13.2761 13.5 13ZM3.5 16C3.5 15.7239 3.72386 15.5 4 15.5H6C6.27614 15.5 6.5 15.7239 6.5 16C6.5 16.2761 6.27614 16.5 6 16.5H4C3.72386 16.5 3.5 16.2761 3.5 16ZM8.5 16C8.5 15.7239 8.72386 15.5 9 15.5H11C11.2761 15.5 11.5 15.7239 11.5 16C11.5 16.2761 11.2761 16.5 11 16.5H9C8.72386 16.5 8.5 16.2761 8.5 16ZM13.5 16C13.5 15.7239 13.7239 15.5 14 15.5H16C16.2761 15.5 16.5 15.7239 16.5 16C16.5 16.2761 16.2761 16.5 16 16.5H14C13.7239 16.5 13.5 16.2761 13.5 16Z" fill="#6366F1"/>
</svg>
