<svg width="20" height="20" viewBox="0 0 20 20" fill="none" xmlns="http://www.w3.org/2000/svg">
<g clip-path="url(#clip0_2215_19791)">
<path fill-rule="evenodd" clip-rule="evenodd" d="M10 1.5C14.6944 1.5 18.5 5.30558 18.5 10C18.5 11.3582 18.1818 12.6407 17.6164 13.7782C17.3923 14.229 17.3898 14.8233 17.45 15.3666C17.5128 15.9333 17.6573 16.549 17.8169 17.1083C17.9678 17.6373 18.1359 18.1287 18.2712 18.5H10C5.30558 18.5 1.5 14.6944 1.5 10C1.5 5.30558 5.30558 1.5 10 1.5ZM19.4608 18.8076L19.4601 18.806L19.4572 18.7989L19.4451 18.7694C19.4344 18.7431 19.4186 18.7038 19.3985 18.653C19.3583 18.5513 19.3013 18.4038 19.2346 18.2227C19.101 17.8596 18.9299 17.3648 18.7785 16.834C18.6263 16.3004 18.498 15.7447 18.4439 15.2565C18.3872 14.7446 18.4239 14.4002 18.5118 14.2233C19.1445 12.9506 19.5 11.5161 19.5 10C19.5 4.75329 15.2467 0.5 10 0.5C4.7533 0.5 0.500002 4.75329 0.500002 10C0.500002 15.2467 4.7533 19.5 10 19.5H18.9992C19.1664 19.5 19.3225 19.4165 19.4153 19.2774C19.508 19.1383 19.525 18.9619 19.4608 18.8076ZM14.5039 8C14.5039 7.72386 14.28 7.5 14.0039 7.5H6.00391C5.72776 7.5 5.50391 7.72386 5.50391 8C5.50391 8.27614 5.72776 8.5 6.00391 8.5H14.0039C14.28 8.5 14.5039 8.27614 14.5039 8ZM14.5039 12C14.5039 11.7239 14.28 11.5 14.0039 11.5H6.00391C5.72776 11.5 5.50391 11.7239 5.50391 12C5.50391 12.2761 5.72776 12.5 6.00391 12.5H14.0039C14.28 12.5 14.5039 12.2761 14.5039 12Z" fill="black"/>
</g>
<defs>
<clipPath id="clip0_2215_19791">
<rect width="20" height="20" fill="white"/>
</clipPath>
</defs>
</svg>
