<svg width="234" height="39" viewBox="0 0 234 39" fill="none" xmlns="http://www.w3.org/2000/svg">
<path d="M16.3278 7.36V16H15.1838V9.272L10.4478 16H9.45575V7.36H10.5998V14.032L15.3438 7.36H16.3278ZM22.1571 16.24C21.2878 16.24 20.5518 16.0453 19.9491 15.656C19.3465 15.2667 18.8878 14.7307 18.5731 14.048C18.2638 13.36 18.1038 12.5707 18.0931 11.68C18.1038 10.7733 18.2691 9.97867 18.5891 9.296C18.9091 8.608 19.3705 8.07467 19.9731 7.696C20.5758 7.312 21.3065 7.12 22.1651 7.12C23.0398 7.12 23.7998 7.33333 24.4451 7.76C25.0958 8.18667 25.5411 8.77067 25.7811 9.512L24.6291 9.88C24.4265 9.36267 24.1038 8.96267 23.6611 8.68C23.2238 8.392 22.7225 8.248 22.1571 8.248C21.5225 8.248 20.9971 8.39467 20.5811 8.688C20.1651 8.976 19.8558 9.37867 19.6531 9.896C19.4505 10.4133 19.3465 11.008 19.3411 11.68C19.3518 12.7147 19.5918 13.5467 20.0611 14.176C20.5305 14.8 21.2291 15.112 22.1571 15.112C22.7438 15.112 23.2425 14.9787 23.6531 14.712C24.0691 14.44 24.3838 14.0453 24.5971 13.528L25.7811 13.88C25.4611 14.648 24.9918 15.2347 24.3731 15.64C23.7545 16.04 23.0158 16.24 22.1571 16.24ZM27.4245 16V7.36H34.2965V16H33.1205V8.488H28.6005V16H27.4245ZM40.1499 16.24C39.2912 16.24 38.5579 16.0453 37.9499 15.656C37.3419 15.2667 36.8752 14.728 36.5499 14.04C36.2245 13.352 36.0619 12.5627 36.0619 11.672C36.0619 10.7653 36.2272 9.97067 36.5579 9.288C36.8885 8.60533 37.3579 8.07467 37.9659 7.696C38.5792 7.312 39.3072 7.12 40.1499 7.12C41.0139 7.12 41.7499 7.31467 42.3579 7.704C42.9712 8.088 43.4379 8.624 43.7579 9.312C44.0832 9.99467 44.2459 10.7813 44.2459 11.672C44.2459 12.5787 44.0832 13.376 43.7579 14.064C43.4325 14.7467 42.9632 15.28 42.3499 15.664C41.7365 16.048 41.0032 16.24 40.1499 16.24ZM40.1499 15.112C41.1099 15.112 41.8245 14.7947 42.2939 14.16C42.7632 13.52 42.9979 12.6907 42.9979 11.672C42.9979 10.6267 42.7605 9.79467 42.2859 9.176C41.8165 8.55733 41.1045 8.248 40.1499 8.248C39.5045 8.248 38.9712 8.39467 38.5499 8.688C38.1339 8.976 37.8219 9.37867 37.6139 9.896C37.4112 10.408 37.3099 11 37.3099 11.672C37.3099 12.712 37.5499 13.5467 38.0299 14.176C38.5099 14.8 39.2165 15.112 40.1499 15.112ZM45.2106 16V14.968C45.5306 15.0267 45.7733 15.0133 45.9386 14.928C46.1093 14.8373 46.2346 14.688 46.3146 14.48C46.3946 14.2667 46.4613 14.0027 46.5146 13.688C46.6 13.1653 46.6773 12.5893 46.7466 11.96C46.816 11.3307 46.8773 10.6373 46.9306 9.88C46.9893 9.11733 47.048 8.27733 47.1066 7.36H52.9786V16H51.8106V8.488H48.1946C48.1573 9.05333 48.1146 9.616 48.0666 10.176C48.0186 10.736 47.968 11.2747 47.9146 11.792C47.8666 12.304 47.8133 12.776 47.7546 13.208C47.696 13.64 47.6346 14.0133 47.5706 14.328C47.4746 14.8027 47.3466 15.1813 47.1866 15.464C47.032 15.7467 46.8 15.9333 46.4906 16.024C46.1813 16.1147 45.7546 16.1067 45.2106 16ZM55.2218 16L55.2058 7.36H56.3898V10.616H58.4138C58.6644 10.616 58.9098 10.6213 59.1498 10.632C59.3951 10.6427 59.6111 10.664 59.7978 10.696C60.2244 10.776 60.6031 10.9173 60.9338 11.12C61.2698 11.3227 61.5311 11.6027 61.7178 11.96C61.9098 12.3173 62.0058 12.7653 62.0058 13.304C62.0058 14.0453 61.8138 14.6293 61.4298 15.056C61.0511 15.4827 60.5711 15.76 59.9898 15.888C59.7711 15.936 59.5338 15.968 59.2778 15.984C59.0218 15.9947 58.7684 16 58.5178 16H55.2218ZM56.3898 14.992H58.4698C58.6511 14.992 58.8538 14.9867 59.0778 14.976C59.3018 14.9653 59.4991 14.936 59.6698 14.888C59.9524 14.808 60.2084 14.648 60.4378 14.408C60.6724 14.1627 60.7898 13.7947 60.7898 13.304C60.7898 12.8187 60.6778 12.4533 60.4538 12.208C60.2298 11.9573 59.9311 11.792 59.5578 11.712C59.3924 11.6747 59.2138 11.6507 59.0218 11.64C58.8298 11.6293 58.6458 11.624 58.4698 11.624H56.3898V14.992ZM66.8726 16.24C66.0033 16.24 65.2433 16.0507 64.5926 15.672C63.9473 15.288 63.438 14.7573 63.0646 14.08L64.0086 13.48C64.3233 14.0133 64.7153 14.4187 65.1846 14.696C65.654 14.9733 66.1926 15.112 66.8006 15.112C67.4353 15.112 67.9446 14.9653 68.3286 14.672C68.7126 14.3787 68.9046 13.976 68.9046 13.464C68.9046 13.112 68.822 12.832 68.6566 12.624C68.4966 12.416 68.2513 12.2667 67.9206 12.176C67.5953 12.0853 67.1873 12.04 66.6966 12.04H65.6726V11.032H66.6806C67.278 11.032 67.758 10.9253 68.1206 10.712C68.4886 10.4933 68.6726 10.152 68.6726 9.688C68.6726 9.19733 68.4886 8.83467 68.1206 8.6C67.758 8.36 67.3233 8.24 66.8166 8.24C66.3046 8.24 65.8193 8.34667 65.3606 8.56C64.9073 8.768 64.526 9.03733 64.2166 9.368L63.4646 8.576C63.8966 8.10133 64.4006 7.74133 64.9766 7.496C65.558 7.24533 66.2006 7.12 66.9046 7.12C67.4593 7.12 67.9606 7.21867 68.4086 7.416C68.862 7.608 69.2193 7.89067 69.4806 8.264C69.7473 8.63733 69.8806 9.08533 69.8806 9.608C69.8806 10.0987 69.7606 10.5227 69.5206 10.88C69.286 11.2373 68.9526 11.5333 68.5206 11.768L68.4566 11.328C68.83 11.3973 69.1393 11.5467 69.3846 11.776C69.63 12.0053 69.8113 12.28 69.9286 12.6C70.046 12.92 70.1046 13.2453 70.1046 13.576C70.1046 14.1253 69.9606 14.6 69.6726 15C69.39 15.3947 69.0033 15.7013 68.5126 15.92C68.0273 16.1333 67.4806 16.24 66.8726 16.24ZM73.102 19.84L74.774 15.304L74.798 16.648L71.014 7.36H72.262L75.366 15.128H74.854L77.718 7.36H78.918L74.278 19.84H73.102ZM83.8915 6.336C83.5128 6.336 83.1662 6.24267 82.8515 6.056C82.5368 5.86933 82.2862 5.62133 82.0995 5.312C81.9182 4.99733 81.8275 4.65067 81.8275 4.272H82.8035C82.8035 4.57067 82.9102 4.82667 83.1235 5.04C83.3368 5.25333 83.5928 5.36 83.8915 5.36C84.1955 5.36 84.4515 5.25333 84.6595 5.04C84.8728 4.82667 84.9795 4.57067 84.9795 4.272H85.9555C85.9555 4.65067 85.8622 4.99733 85.6755 5.312C85.4942 5.62133 85.2462 5.86933 84.9315 6.056C84.6168 6.24267 84.2702 6.336 83.8915 6.336ZM87.1715 7.36V16H86.0275V9.272L81.2915 16H80.2995V7.36H81.4435V14.032L86.1875 7.36H87.1715ZM91.7609 16V8.448H88.6969V7.36H96.0009V8.448H92.9369V16H91.7609ZM101.182 16.24C100.34 16.24 99.6089 16.0533 98.9903 15.68C98.3769 15.3067 97.8996 14.7813 97.5583 14.104C97.2169 13.4267 97.0463 12.632 97.0463 11.72C97.0463 10.776 97.2143 9.96 97.5503 9.272C97.8863 8.584 98.3583 8.05333 98.9663 7.68C99.5796 7.30667 100.302 7.12 101.134 7.12C101.988 7.12 102.716 7.31733 103.318 7.712C103.921 8.10133 104.377 8.66133 104.686 9.392C104.996 10.1227 105.137 10.9947 105.11 12.008H103.91V11.592C103.889 10.472 103.646 9.62667 103.182 9.056C102.724 8.48533 102.052 8.2 101.166 8.2C100.238 8.2 99.5263 8.50133 99.0303 9.104C98.5396 9.70667 98.2943 10.5653 98.2943 11.68C98.2943 12.768 98.5396 13.6133 99.0303 14.216C99.5263 14.8133 100.228 15.112 101.134 15.112C101.753 15.112 102.292 14.9707 102.75 14.688C103.214 14.4 103.58 13.9867 103.846 13.448L104.942 13.872C104.601 14.624 104.097 15.208 103.43 15.624C102.769 16.0347 102.02 16.24 101.182 16.24ZM97.8783 12.008V11.024H104.478V12.008H97.8783ZM110.081 16V7.36H116.953V16H115.777V8.488H111.257V16H110.081ZM123.078 16.24C122.283 16.24 121.611 16.04 121.062 15.64C120.513 15.2347 120.097 14.688 119.814 14C119.531 13.3067 119.39 12.5307 119.39 11.672C119.39 10.7973 119.531 10.0187 119.814 9.336C120.102 8.648 120.523 8.10667 121.078 7.712C121.633 7.31733 122.315 7.12 123.126 7.12C123.915 7.12 124.593 7.32 125.158 7.72C125.723 8.12 126.155 8.664 126.454 9.352C126.758 10.04 126.91 10.8133 126.91 11.672C126.91 12.536 126.758 13.312 126.454 14C126.15 14.688 125.713 15.2347 125.142 15.64C124.571 16.04 123.883 16.24 123.078 16.24ZM119.19 19.84V7.36H120.246V13.864H120.374V19.84H119.19ZM122.958 15.144C123.561 15.144 124.062 14.992 124.462 14.688C124.862 14.384 125.161 13.9707 125.358 13.448C125.561 12.92 125.662 12.328 125.662 11.672C125.662 11.0213 125.563 10.4347 125.366 9.912C125.169 9.38933 124.867 8.976 124.462 8.672C124.062 8.368 123.553 8.216 122.934 8.216C122.331 8.216 121.83 8.36267 121.43 8.656C121.035 8.94933 120.739 9.35733 120.542 9.88C120.345 10.3973 120.246 10.9947 120.246 11.672C120.246 12.3387 120.345 12.936 120.542 13.464C120.739 13.9867 121.038 14.3973 121.438 14.696C121.838 14.9947 122.345 15.144 122.958 15.144ZM132.275 16.24C131.416 16.24 130.683 16.0453 130.075 15.656C129.467 15.2667 129 14.728 128.675 14.04C128.35 13.352 128.187 12.5627 128.187 11.672C128.187 10.7653 128.352 9.97067 128.683 9.288C129.014 8.60533 129.483 8.07467 130.091 7.696C130.704 7.312 131.432 7.12 132.275 7.12C133.139 7.12 133.875 7.31467 134.483 7.704C135.096 8.088 135.563 8.624 135.883 9.312C136.208 9.99467 136.371 10.7813 136.371 11.672C136.371 12.5787 136.208 13.376 135.883 14.064C135.558 14.7467 135.088 15.28 134.475 15.664C133.862 16.048 133.128 16.24 132.275 16.24ZM132.275 15.112C133.235 15.112 133.95 14.7947 134.419 14.16C134.888 13.52 135.123 12.6907 135.123 11.672C135.123 10.6267 134.886 9.79467 134.411 9.176C133.942 8.55733 133.23 8.248 132.275 8.248C131.63 8.248 131.096 8.39467 130.675 8.688C130.259 8.976 129.947 9.37867 129.739 9.896C129.536 10.408 129.435 11 129.435 11.672C129.435 12.712 129.675 13.5467 130.155 14.176C130.635 14.8 131.342 15.112 132.275 15.112ZM138.128 16L138.136 7.36H139.32V11.52L143.176 7.36H144.744L140.696 11.68L145.272 16H143.56L139.32 11.84V16H138.128ZM149.953 16.24C149.158 16.24 148.486 16.04 147.937 15.64C147.388 15.2347 146.972 14.688 146.689 14C146.406 13.3067 146.265 12.5307 146.265 11.672C146.265 10.7973 146.406 10.0187 146.689 9.336C146.977 8.648 147.398 8.10667 147.953 7.712C148.508 7.31733 149.19 7.12 150.001 7.12C150.79 7.12 151.468 7.32 152.033 7.72C152.598 8.12 153.03 8.664 153.329 9.352C153.633 10.04 153.785 10.8133 153.785 11.672C153.785 12.536 153.633 13.312 153.329 14C153.025 14.688 152.588 15.2347 152.017 15.64C151.446 16.04 150.758 16.24 149.953 16.24ZM146.065 19.84V7.36H147.121V13.864H147.249V19.84H146.065ZM149.833 15.144C150.436 15.144 150.937 14.992 151.337 14.688C151.737 14.384 152.036 13.9707 152.233 13.448C152.436 12.92 152.537 12.328 152.537 11.672C152.537 11.0213 152.438 10.4347 152.241 9.912C152.044 9.38933 151.742 8.976 151.337 8.672C150.937 8.368 150.428 8.216 149.809 8.216C149.206 8.216 148.705 8.36267 148.305 8.656C147.91 8.94933 147.614 9.35733 147.417 9.88C147.22 10.3973 147.121 10.9947 147.121 11.672C147.121 12.3387 147.22 12.936 147.417 13.464C147.614 13.9867 147.913 14.3973 148.313 14.696C148.713 14.9947 149.22 15.144 149.833 15.144ZM156.461 19.84L158.133 15.304L158.157 16.648L154.373 7.36H155.621L158.725 15.128H158.213L161.077 7.36H162.277L157.637 19.84H156.461ZM166.011 16V8.448H162.947V7.36H170.251V8.448H167.187V16H166.011ZM171.768 16L171.776 7.36H172.96V11.52L176.816 7.36H178.384L174.336 11.68L178.912 16H177.2L172.96 11.84V16H171.768ZM180.946 19.84L182.618 15.304L182.642 16.648L178.858 7.36H180.106L183.21 15.128H182.698L185.562 7.36H186.762L182.122 19.84H180.946ZM186.71 17.672L186.782 17.088C186.995 17.104 187.15 17.0613 187.246 16.96C187.342 16.8587 187.401 16.7227 187.422 16.552C187.443 16.3813 187.449 16.1973 187.438 16H186.71V14.312H188.078V16.32C188.078 16.8107 187.953 17.1787 187.702 17.424C187.457 17.6693 187.126 17.752 186.71 17.672ZM24.4236 35V31.784C24.1356 31.928 23.781 32.0533 23.3596 32.16C22.9383 32.2667 22.485 32.32 21.9996 32.32C21.125 32.32 20.4156 32.1253 19.8716 31.736C19.3276 31.3467 18.973 30.784 18.8076 30.048C18.7543 29.8293 18.717 29.5973 18.6956 29.352C18.6796 29.1067 18.669 28.8853 18.6636 28.688C18.6583 28.4907 18.6556 28.3493 18.6556 28.264V26.36H19.8396V28.264C19.8396 28.44 19.845 28.64 19.8556 28.864C19.8663 29.088 19.8903 29.3067 19.9276 29.52C20.0343 30.1013 20.2743 30.5413 20.6476 30.84C21.0263 31.1387 21.557 31.288 22.2396 31.288C22.6663 31.288 23.069 31.2347 23.4476 31.128C23.8316 31.016 24.157 30.8667 24.4236 30.68V26.36H25.5996V35H24.4236ZM30.1828 35V27.448H27.1188V26.36H34.4228V27.448H31.3588V35H30.1828ZM39.3999 35.24C38.5412 35.24 37.8079 35.0453 37.1999 34.656C36.5919 34.2667 36.1252 33.728 35.7999 33.04C35.4745 32.352 35.3119 31.5627 35.3119 30.672C35.3119 29.7653 35.4772 28.9707 35.8079 28.288C36.1385 27.6053 36.6079 27.0747 37.2159 26.696C37.8292 26.312 38.5572 26.12 39.3999 26.12C40.2639 26.12 40.9999 26.3147 41.6079 26.704C42.2212 27.088 42.6879 27.624 43.0079 28.312C43.3332 28.9947 43.4959 29.7813 43.4959 30.672C43.4959 31.5787 43.3332 32.376 43.0079 33.064C42.6825 33.7467 42.2132 34.28 41.5999 34.664C40.9865 35.048 40.2532 35.24 39.3999 35.24ZM39.3999 34.112C40.3599 34.112 41.0745 33.7947 41.5439 33.16C42.0132 32.52 42.2479 31.6907 42.2479 30.672C42.2479 29.6267 42.0105 28.7947 41.5359 28.176C41.0665 27.5573 40.3545 27.248 39.3999 27.248C38.7545 27.248 38.2212 27.3947 37.7999 27.688C37.3839 27.976 37.0719 28.3787 36.8639 28.896C36.6612 29.408 36.5599 30 36.5599 30.672C36.5599 31.712 36.7999 32.5467 37.2799 33.176C37.7599 33.8 38.4665 34.112 39.3999 34.112ZM48.7246 35.248C47.9193 35.2427 47.2286 35.0667 46.6526 34.72C46.0766 34.3733 45.6286 33.856 45.3086 33.168C44.994 32.48 44.8233 31.6213 44.7966 30.592C44.7806 30.1387 44.7913 29.6453 44.8286 29.112C44.866 28.5733 44.9246 28.0613 45.0046 27.576C45.0846 27.0907 45.1806 26.696 45.2926 26.392C45.4313 25.9973 45.6286 25.6293 45.8846 25.288C46.146 24.9413 46.4473 24.6587 46.7886 24.44C47.1193 24.216 47.4926 24.0427 47.9086 23.92C48.33 23.792 48.7673 23.6933 49.2206 23.624C49.6793 23.5547 50.1326 23.4933 50.5806 23.44C51.034 23.3867 51.4526 23.32 51.8366 23.24L51.9646 24.304C51.6713 24.3627 51.3246 24.416 50.9246 24.464C50.5246 24.512 50.106 24.5707 49.6686 24.64C49.2313 24.704 48.8126 24.792 48.4126 24.904C48.0126 25.016 47.6713 25.1627 47.3886 25.344C46.9566 25.6053 46.6233 26 46.3886 26.528C46.1593 27.056 46.018 27.6613 45.9646 28.344C46.2953 27.8267 46.7326 27.4373 47.2766 27.176C47.826 26.9147 48.4206 26.784 49.0606 26.784C49.8393 26.784 50.5086 26.9627 51.0686 27.32C51.634 27.6773 52.0686 28.1733 52.3726 28.808C52.6766 29.4427 52.8286 30.1707 52.8286 30.992C52.8286 31.8507 52.6606 32.6 52.3246 33.24C51.994 33.88 51.522 34.376 50.9086 34.728C50.2953 35.0747 49.5673 35.248 48.7246 35.248ZM48.8126 34.12C49.7193 34.12 50.4073 33.8373 50.8766 33.272C51.3513 32.7067 51.5886 31.9547 51.5886 31.016C51.5886 30.056 51.3433 29.2987 50.8526 28.744C50.3673 28.1893 49.682 27.912 48.7966 27.912C47.9113 27.912 47.2313 28.1893 46.7566 28.744C46.282 29.2987 46.0446 30.056 46.0446 31.016C46.0446 31.976 46.282 32.7333 46.7566 33.288C47.2313 33.8427 47.9166 34.12 48.8126 34.12ZM54.5968 35L54.5808 26.36H55.7648V29.616H57.2688C57.5194 29.616 57.7648 29.6213 58.0048 29.632C58.2448 29.6427 58.4608 29.664 58.6528 29.696C59.0794 29.7813 59.4581 29.9253 59.7888 30.128C60.1194 30.3307 60.3808 30.6107 60.5728 30.968C60.7648 31.32 60.8608 31.7653 60.8608 32.304C60.8608 33.0453 60.6688 33.6293 60.2848 34.056C59.9008 34.4827 59.4181 34.76 58.8368 34.888C58.6181 34.936 58.3808 34.968 58.1248 34.984C57.8688 34.9947 57.6181 35 57.3728 35H54.5968ZM55.7648 33.992H57.3248C57.5008 33.992 57.7008 33.9867 57.9248 33.976C58.1488 33.9653 58.3461 33.936 58.5168 33.888C58.8048 33.808 59.0634 33.648 59.2928 33.408C59.5274 33.1627 59.6448 32.7947 59.6448 32.304C59.6448 31.8187 59.5328 31.4533 59.3088 31.208C59.0848 30.9573 58.7861 30.792 58.4128 30.712C58.2421 30.6747 58.0608 30.6507 57.8688 30.64C57.6821 30.6293 57.5008 30.624 57.3248 30.624H55.7648V33.992ZM61.8928 35V26.36H63.0688V35H61.8928ZM69.7426 38.84L71.4146 34.304L71.4386 35.648L67.6546 26.36H68.9026L72.0066 34.128H71.4946L74.3586 26.36H75.5586L70.9186 38.84H69.7426ZM76.9401 35V26.36H80.5001C80.6815 26.36 80.9001 26.3707 81.1561 26.392C81.4175 26.4133 81.6601 26.4533 81.8841 26.512C82.3695 26.64 82.7588 26.9013 83.0521 27.296C83.3508 27.6907 83.5001 28.1653 83.5001 28.72C83.5001 29.0293 83.4521 29.3067 83.3561 29.552C83.2655 29.792 83.1348 30 82.9641 30.176C82.8841 30.2667 82.7961 30.3467 82.7001 30.416C82.6041 30.48 82.5108 30.5333 82.4201 30.576C82.5908 30.608 82.7748 30.6827 82.9721 30.8C83.2815 30.9813 83.5161 31.2267 83.6761 31.536C83.8361 31.84 83.9161 32.2107 83.9161 32.648C83.9161 33.24 83.7748 33.7227 83.4921 34.096C83.2095 34.4693 82.8308 34.7253 82.3561 34.864C82.1428 34.9227 81.9108 34.96 81.6601 34.976C81.4148 34.992 81.1828 35 80.9641 35H76.9401ZM78.1241 34H80.9081C81.0201 34 81.1615 33.992 81.3321 33.976C81.5028 33.9547 81.6548 33.928 81.7881 33.896C82.1028 33.816 82.3321 33.656 82.4761 33.416C82.6255 33.1707 82.7001 32.904 82.7001 32.616C82.7001 32.2373 82.5881 31.928 82.3641 31.688C82.1455 31.4427 81.8521 31.2933 81.4841 31.24C81.3615 31.2133 81.2335 31.1973 81.1001 31.192C80.9668 31.1867 80.8468 31.184 80.7401 31.184H78.1241V34ZM78.1241 30.176H80.5401C80.6788 30.176 80.8335 30.168 81.0041 30.152C81.1801 30.1307 81.3321 30.096 81.4601 30.048C81.7375 29.952 81.9401 29.7867 82.0681 29.552C82.2015 29.3173 82.2681 29.0613 82.2681 28.784C82.2681 28.48 82.1961 28.2133 82.0521 27.984C81.9135 27.7547 81.7028 27.5947 81.4201 27.504C81.2281 27.4347 81.0201 27.3947 80.7961 27.384C80.5775 27.3733 80.4388 27.368 80.3801 27.368H78.1241V30.176ZM92.3746 26.36V35H91.2306V28.272L86.4946 35H85.5026V26.36H86.6466V33.032L91.3906 26.36H92.3746ZM93.98 36.92V33.992C94.4707 33.992 94.8227 33.8347 95.036 33.52C95.2493 33.2 95.4227 32.6907 95.556 31.992C95.6467 31.5387 95.7213 31.0507 95.78 30.528C95.8387 30.0053 95.8893 29.408 95.932 28.736C95.9747 28.0587 96.0147 27.2667 96.052 26.36H101.764V33.992H102.596V36.92H101.46V35H95.108V36.92H93.98ZM95.972 33.992H100.596V27.368H97.14C97.124 27.7733 97.1 28.2027 97.068 28.656C97.0413 29.1093 97.0067 29.5627 96.964 30.016C96.9267 30.4693 96.8813 30.896 96.828 31.296C96.78 31.6907 96.7213 32.0373 96.652 32.336C96.572 32.72 96.484 33.048 96.388 33.32C96.2973 33.592 96.1587 33.816 95.972 33.992ZM107.854 35.24C107.011 35.24 106.281 35.0533 105.662 34.68C105.049 34.3067 104.571 33.7813 104.23 33.104C103.889 32.4267 103.718 31.632 103.718 30.72C103.718 29.776 103.886 28.96 104.222 28.272C104.558 27.584 105.03 27.0533 105.638 26.68C106.251 26.3067 106.974 26.12 107.806 26.12C108.659 26.12 109.387 26.3173 109.99 26.712C110.593 27.1013 111.049 27.6613 111.358 28.392C111.667 29.1227 111.809 29.9947 111.782 31.008H110.582V30.592C110.561 29.472 110.318 28.6267 109.854 28.056C109.395 27.4853 108.723 27.2 107.838 27.2C106.91 27.2 106.198 27.5013 105.702 28.104C105.211 28.7067 104.966 29.5653 104.966 30.68C104.966 31.768 105.211 32.6133 105.702 33.216C106.198 33.8133 106.899 34.112 107.806 34.112C108.425 34.112 108.963 33.9707 109.422 33.688C109.886 33.4 110.251 32.9867 110.518 32.448L111.614 32.872C111.273 33.624 110.769 34.208 110.102 34.624C109.441 35.0347 108.691 35.24 107.854 35.24ZM104.55 31.008V30.024H111.15V31.008H104.55ZM115.792 35V27.448H112.728V26.36H120.032V27.448H116.968V35H115.792ZM121.566 35L121.55 26.36H122.734V29.616H124.758C125.008 29.616 125.254 29.6213 125.494 29.632C125.739 29.6427 125.955 29.664 126.142 29.696C126.568 29.776 126.947 29.9173 127.278 30.12C127.614 30.3227 127.875 30.6027 128.062 30.96C128.254 31.3173 128.35 31.7653 128.35 32.304C128.35 33.0453 128.158 33.6293 127.774 34.056C127.395 34.4827 126.915 34.76 126.334 34.888C126.115 34.936 125.878 34.968 125.622 34.984C125.366 34.9947 125.112 35 124.862 35H121.566ZM122.734 33.992H124.814C124.995 33.992 125.198 33.9867 125.422 33.976C125.646 33.9653 125.843 33.936 126.014 33.888C126.296 33.808 126.552 33.648 126.782 33.408C127.016 33.1627 127.134 32.7947 127.134 32.304C127.134 31.8187 127.022 31.4533 126.798 31.208C126.574 30.9573 126.275 30.792 125.902 30.712C125.736 30.6747 125.558 30.6507 125.366 30.64C125.174 30.6293 124.99 30.624 124.814 30.624H122.734V33.992ZM136.772 35.248C135.966 35.2427 135.276 35.0667 134.7 34.72C134.124 34.3733 133.676 33.856 133.356 33.168C133.041 32.48 132.87 31.6213 132.844 30.592C132.828 30.1387 132.838 29.6453 132.876 29.112C132.913 28.5733 132.972 28.0613 133.052 27.576C133.132 27.0907 133.228 26.696 133.34 26.392C133.478 25.9973 133.676 25.6293 133.932 25.288C134.193 24.9413 134.494 24.6587 134.836 24.44C135.166 24.216 135.54 24.0427 135.956 23.92C136.377 23.792 136.814 23.6933 137.268 23.624C137.726 23.5547 138.18 23.4933 138.628 23.44C139.081 23.3867 139.5 23.32 139.884 23.24L140.012 24.304C139.718 24.3627 139.372 24.416 138.972 24.464C138.572 24.512 138.153 24.5707 137.716 24.64C137.278 24.704 136.86 24.792 136.46 24.904C136.06 25.016 135.718 25.1627 135.436 25.344C135.004 25.6053 134.67 26 134.436 26.528C134.206 27.056 134.065 27.6613 134.012 28.344C134.342 27.8267 134.78 27.4373 135.324 27.176C135.873 26.9147 136.468 26.784 137.108 26.784C137.886 26.784 138.556 26.9627 139.116 27.32C139.681 27.6773 140.116 28.1733 140.42 28.808C140.724 29.4427 140.876 30.1707 140.876 30.992C140.876 31.8507 140.708 32.6 140.372 33.24C140.041 33.88 139.569 34.376 138.956 34.728C138.342 35.0747 137.614 35.248 136.772 35.248ZM136.86 34.12C137.766 34.12 138.454 33.8373 138.924 33.272C139.398 32.7067 139.636 31.9547 139.636 31.016C139.636 30.056 139.39 29.2987 138.9 28.744C138.414 28.1893 137.729 27.912 136.844 27.912C135.958 27.912 135.278 28.1893 134.804 28.744C134.329 29.2987 134.092 30.056 134.092 31.016C134.092 31.976 134.329 32.7333 134.804 33.288C135.278 33.8427 135.964 34.12 136.86 34.12ZM146.244 35.24C145.385 35.24 144.652 35.0453 144.044 34.656C143.436 34.2667 142.969 33.728 142.644 33.04C142.318 32.352 142.156 31.5627 142.156 30.672C142.156 29.7653 142.321 28.9707 142.652 28.288C142.982 27.6053 143.452 27.0747 144.06 26.696C144.673 26.312 145.401 26.12 146.244 26.12C147.108 26.12 147.844 26.3147 148.452 26.704C149.065 27.088 149.532 27.624 149.852 28.312C150.177 28.9947 150.34 29.7813 150.34 30.672C150.34 31.5787 150.177 32.376 149.852 33.064C149.526 33.7467 149.057 34.28 148.444 34.664C147.83 35.048 147.097 35.24 146.244 35.24ZM146.244 34.112C147.204 34.112 147.918 33.7947 148.388 33.16C148.857 32.52 149.092 31.6907 149.092 30.672C149.092 29.6267 148.854 28.7947 148.38 28.176C147.91 27.5573 147.198 27.248 146.244 27.248C145.598 27.248 145.065 27.3947 144.644 27.688C144.228 27.976 143.916 28.3787 143.708 28.896C143.505 29.408 143.404 30 143.404 30.672C143.404 31.712 143.644 32.5467 144.124 33.176C144.604 33.8 145.31 34.112 146.244 34.112ZM151.304 35V33.968C151.624 34.0267 151.867 34.0133 152.032 33.928C152.203 33.8373 152.328 33.688 152.408 33.48C152.488 33.2667 152.555 33.0027 152.608 32.688C152.694 32.1653 152.771 31.5893 152.84 30.96C152.91 30.3307 152.971 29.6373 153.024 28.88C153.083 28.1173 153.142 27.2773 153.2 26.36H159.072V35H157.904V27.488H154.288C154.251 28.0533 154.208 28.616 154.16 29.176C154.112 29.736 154.062 30.2747 154.008 30.792C153.96 31.304 153.907 31.776 153.848 32.208C153.79 32.64 153.728 33.0133 153.664 33.328C153.568 33.8027 153.44 34.1813 153.28 34.464C153.126 34.7467 152.894 34.9333 152.584 35.024C152.275 35.1147 151.848 35.1067 151.304 35ZM161.316 35L161.3 26.36H162.484V29.616H164.508C164.758 29.616 165.004 29.6213 165.244 29.632C165.489 29.6427 165.705 29.664 165.892 29.696C166.318 29.776 166.697 29.9173 167.028 30.12C167.364 30.3227 167.625 30.6027 167.812 30.96C168.004 31.3173 168.1 31.7653 168.1 32.304C168.1 33.0453 167.908 33.6293 167.524 34.056C167.145 34.4827 166.665 34.76 166.084 34.888C165.865 34.936 165.628 34.968 165.372 34.984C165.116 34.9947 164.862 35 164.612 35H161.316ZM162.484 33.992H164.564C164.745 33.992 164.948 33.9867 165.172 33.976C165.396 33.9653 165.593 33.936 165.764 33.888C166.046 33.808 166.302 33.648 166.532 33.408C166.766 33.1627 166.884 32.7947 166.884 32.304C166.884 31.8187 166.772 31.4533 166.548 31.208C166.324 30.9573 166.025 30.792 165.652 30.712C165.486 30.6747 165.308 30.6507 165.116 30.64C164.924 30.6293 164.74 30.624 164.564 30.624H162.484V33.992ZM169.612 35V26.36H170.756V33.912H173.996V26.36H175.14V33.912H178.372V26.36H179.516V35H169.612ZM185.417 35.24C184.574 35.24 183.843 35.0533 183.225 34.68C182.611 34.3067 182.134 33.7813 181.793 33.104C181.451 32.4267 181.281 31.632 181.281 30.72C181.281 29.776 181.449 28.96 181.785 28.272C182.121 27.584 182.593 27.0533 183.201 26.68C183.814 26.3067 184.537 26.12 185.369 26.12C186.222 26.12 186.95 26.3173 187.553 26.712C188.155 27.1013 188.611 27.6613 188.921 28.392C189.23 29.1227 189.371 29.9947 189.345 31.008H188.145V30.592C188.123 29.472 187.881 28.6267 187.417 28.056C186.958 27.4853 186.286 27.2 185.401 27.2C184.473 27.2 183.761 27.5013 183.265 28.104C182.774 28.7067 182.529 29.5653 182.529 30.68C182.529 31.768 182.774 32.6133 183.265 33.216C183.761 33.8133 184.462 34.112 185.369 34.112C185.987 34.112 186.526 33.9707 186.985 33.688C187.449 33.4 187.814 32.9867 188.081 32.448L189.177 32.872C188.835 33.624 188.331 34.208 187.665 34.624C187.003 35.0347 186.254 35.24 185.417 35.24ZM182.113 31.008V30.024H188.713V31.008H182.113Z" fill="#909090"/>
<g clip-path="url(#clip0_4288_7167)">
<path d="M233.151 3.35882H226.401L227.416 2.31187C227.714 2.00524 227.706 1.51558 227.4 1.21816C227.093 0.920876 226.603 0.928329 226.306 1.23496L224.019 3.59381C223.728 3.88406 223.731 4.39368 224.027 4.67915L226.314 6.96649C226.465 7.11752 226.663 7.19303 226.861 7.19303C227.059 7.19303 227.257 7.11752 227.408 6.96649C227.71 6.66442 227.71 6.1747 227.408 5.87263L226.441 4.9057H233.151C233.578 4.9057 233.925 4.55941 233.925 4.13226C233.925 3.70511 233.578 3.35882 233.151 3.35882Z" fill="#007BFB"/>
<path d="M230.865 13.08C230.262 13.08 229.7 13.2551 229.225 13.557C228.85 12.2909 227.676 11.3646 226.29 11.3646C225.687 11.3646 225.125 11.5396 224.651 11.8416C224.276 10.5754 223.102 9.64907 221.715 9.64907C221.165 9.64907 220.648 9.79588 220.201 10.0513V4.06077C220.201 2.37306 218.828 1 217.141 1C215.453 1 214.08 2.37306 214.08 4.06077V18.5122C213.397 17.6727 212.914 17.1106 212.541 16.7376C211.683 15.8796 210.624 15.3674 209.707 15.3674C207.229 15.3674 206.295 16.7137 206.196 16.8673C206.057 17.0849 206.035 17.3577 206.139 17.5945L210.142 26.7439C210.82 28.2931 211.703 29.2897 212.483 30.169C213.41 31.2149 214.08 31.9705 214.08 33.2959V35.4531H215.627V33.2959C215.627 31.3835 214.662 30.2951 213.64 29.1429C212.902 28.3104 212.139 27.4495 211.559 26.1238L207.765 17.4524C208.076 17.2217 208.683 16.9142 209.707 16.9142C210.207 16.9142 210.89 17.2743 211.447 17.8314C211.977 18.3612 212.84 19.4227 214.248 21.1963C214.452 21.454 214.797 21.5541 215.108 21.4459C215.419 21.3376 215.627 21.0445 215.627 20.7156V4.06077C215.627 3.22595 216.306 2.54688 217.141 2.54688C217.976 2.54688 218.655 3.22602 218.655 4.06077V17.2844C218.655 17.7116 219.001 18.0579 219.428 18.0579C219.855 18.0579 220.201 17.7116 220.201 17.2844V12.7098C220.201 11.875 220.881 11.1959 221.715 11.1959C222.55 11.1959 223.229 11.8751 223.229 12.7098V14.4253V17.2845C223.229 17.7117 223.576 18.058 224.003 18.058C224.43 18.058 224.776 17.7117 224.776 17.2845V14.4253C224.776 13.5905 225.455 12.9114 226.29 12.9114C227.125 12.9114 227.804 13.5906 227.804 14.4253V16.1408V17.2845C227.804 17.7117 228.15 18.058 228.577 18.058C229.005 18.058 229.351 17.7117 229.351 17.2845V16.1408C229.351 15.3061 230.03 14.6269 230.865 14.6269C231.699 14.6269 232.379 15.3061 232.379 16.1408V25.862C232.379 27.5063 231.961 28.5483 231.518 29.6516C231.098 30.6989 230.663 31.7821 230.663 33.2959V35.4531H232.21V33.2959C232.21 32.0808 232.555 31.2219 232.954 30.2275C233.409 29.092 233.926 27.805 233.926 25.862V16.1408C233.926 14.4531 232.553 13.08 230.865 13.08Z" fill="#919191"/>
<path d="M232.825 37H213.383C212.956 37 212.609 36.6537 212.609 36.2266C212.609 35.7994 212.956 35.4531 213.383 35.4531H232.825C233.252 35.4531 233.599 35.7994 233.599 36.2266C233.599 36.6537 233.252 37 232.825 37Z" fill="#007BFB"/>
</g>
<defs>
<clipPath id="clip0_4288_7167">
<rect width="28" height="36" fill="white" transform="translate(206 1)"/>
</clipPath>
</defs>
</svg>
