<svg width="127" height="127" viewBox="0 0 127 127" fill="none" xmlns="http://www.w3.org/2000/svg">
<g opacity="0.3" filter="url(#filter0_f_2345_12959)">
<circle cx="63.5" cy="63.5" r="33.5" fill="#6366F1"/>
</g>
<g filter="url(#filter1_dii_2345_12959)">
<circle cx="58.5" cy="62.5" r="33.5" fill="#8894FF"/>
</g>
<path d="M73.544 76.2361L66.1484 68.5625C68.0506 66.311 69.0932 63.4608 69.0918 60.5162C69.0918 53.6149 63.4636 48 56.5459 48C49.6282 48 44 53.6149 44 60.5162C44 67.4176 49.6282 73.0325 56.5459 73.0325C59.1429 73.0325 61.6177 72.251 63.7336 70.7676L71.1853 78.4994C71.4968 78.8221 71.9157 79 72.3647 79C72.7896 79 73.1927 78.8384 73.4987 78.5445C73.811 78.2441 73.9912 77.8324 73.9997 77.3996C74.0082 76.9669 73.8443 76.5485 73.544 76.2361ZM56.5459 51.2651C61.6592 51.2651 65.819 55.4151 65.819 60.5162C65.819 65.6174 61.6592 69.7674 56.5459 69.7674C51.4326 69.7674 47.2728 65.6174 47.2728 60.5162C47.2728 55.4151 51.4326 51.2651 56.5459 51.2651Z" fill="white"/>
<defs>
<filter id="filter0_f_2345_12959" x="0" y="0" width="127" height="127" filterUnits="userSpaceOnUse" color-interpolation-filters="sRGB">
<feFlood flood-opacity="0" result="BackgroundImageFix"/>
<feBlend mode="normal" in="SourceGraphic" in2="BackgroundImageFix" result="shape"/>
<feGaussianBlur stdDeviation="15" result="effect1_foregroundBlur_2345_12959"/>
</filter>
<filter id="filter1_dii_2345_12959" x="9" y="23" width="99" height="99" filterUnits="userSpaceOnUse" color-interpolation-filters="sRGB">
<feFlood flood-opacity="0" result="BackgroundImageFix"/>
<feColorMatrix in="SourceAlpha" type="matrix" values="0 0 0 0 0 0 0 0 0 0 0 0 0 0 0 0 0 0 127 0" result="hardAlpha"/>
<feMorphology radius="4" operator="erode" in="SourceAlpha" result="effect1_dropShadow_2345_12959"/>
<feOffset dy="10"/>
<feGaussianBlur stdDeviation="10"/>
<feColorMatrix type="matrix" values="0 0 0 0 0.916051 0 0 0 0 0.921023 0 0 0 0 0.927984 0 0 0 1 0"/>
<feBlend mode="multiply" in2="BackgroundImageFix" result="effect1_dropShadow_2345_12959"/>
<feBlend mode="normal" in="SourceGraphic" in2="effect1_dropShadow_2345_12959" result="shape"/>
<feColorMatrix in="SourceAlpha" type="matrix" values="0 0 0 0 0 0 0 0 0 0 0 0 0 0 0 0 0 0 127 0" result="hardAlpha"/>
<feOffset/>
<feGaussianBlur stdDeviation="2"/>
<feComposite in2="hardAlpha" operator="arithmetic" k2="-1" k3="1"/>
<feColorMatrix type="matrix" values="0 0 0 0 0.625417 0 0 0 0 0.631402 0 0 0 0 0.658333 0 0 0 1 0"/>
<feBlend mode="color-burn" in2="shape" result="effect2_innerShadow_2345_12959"/>
<feColorMatrix in="SourceAlpha" type="matrix" values="0 0 0 0 0 0 0 0 0 0 0 0 0 0 0 0 0 0 127 0" result="hardAlpha"/>
<feOffset dx="2" dy="2"/>
<feGaussianBlur stdDeviation="1"/>
<feComposite in2="hardAlpha" operator="arithmetic" k2="-1" k3="1"/>
<feColorMatrix type="matrix" values="0 0 0 0 1 0 0 0 0 1 0 0 0 0 1 0 0 0 0.3 0"/>
<feBlend mode="normal" in2="effect2_innerShadow_2345_12959" result="effect3_innerShadow_2345_12959"/>
</filter>
</defs>
</svg>
