<svg width="127" height="127" viewBox="0 0 127 127" fill="none" xmlns="http://www.w3.org/2000/svg">
<g opacity="0.3" filter="url(#filter0_f_2345_12979)">
<circle cx="63.5" cy="63.5" r="33.5" fill="#FBE777"/>
</g>
<g filter="url(#filter1_dii_2345_12979)">
<circle cx="58.5" cy="62.5" r="33.5" fill="#FBE777"/>
</g>
<g clip-path="url(#clip0_2345_12979)">
<path fill-rule="evenodd" clip-rule="evenodd" d="M48.0636 51.8318C48.3479 51.5479 48.6893 51.3277 49.0652 51.1857C49.441 51.0437 49.8428 50.9833 50.2438 51.0083C50.6448 51.0334 51.0358 51.1433 51.3911 51.331C51.7464 51.5186 52.0577 51.7796 52.3045 52.0966L55.2211 55.8437C55.7557 56.531 55.9442 57.4263 55.733 58.2713L54.8442 61.8298C54.7982 62.0141 54.8007 62.2072 54.8514 62.3902C54.9021 62.5733 54.9992 62.7402 55.1334 62.8746L59.1257 66.867C59.2603 67.0014 59.4274 67.0988 59.6108 67.1494C59.7942 67.2001 59.9875 67.2025 60.1721 67.1562L63.7289 66.2674C64.1459 66.1631 64.5811 66.155 65.0016 66.2437C65.4222 66.3324 65.8171 66.5155 66.1565 66.7792L69.9034 69.6943C71.2504 70.7424 71.3739 72.7329 70.1682 73.9369L68.4881 75.6171C67.2857 76.8195 65.4886 77.3476 63.8134 76.7577C59.5257 75.2491 55.6327 72.7943 52.4231 69.5757C49.2048 66.3665 46.7501 62.474 45.2412 58.1868C44.653 56.5131 45.1811 54.7143 46.3835 53.5119L48.0636 51.8318ZM70.7613 51.2387C70.837 51.3142 70.897 51.4038 70.938 51.5025C70.9789 51.6012 71 51.707 71 51.8139C71 51.9208 70.9789 52.0266 70.938 52.1253C70.897 52.224 70.837 52.3136 70.7613 52.3891L64.023 59.1259H68.5613C68.7767 59.1259 68.9834 59.2115 69.1357 59.3639C69.2881 59.5163 69.3737 59.7229 69.3737 59.9384C69.3737 60.1539 69.2881 60.3605 69.1357 60.5129C68.9834 60.6653 68.7767 60.7508 68.5613 60.7508H62.0618C61.8463 60.7508 61.6397 60.6653 61.4873 60.5129C61.335 60.3605 61.2494 60.1539 61.2494 59.9384V53.4388C61.2494 53.2233 61.335 53.0167 61.4873 52.8643C61.6397 52.7119 61.8463 52.6264 62.0618 52.6264C62.2773 52.6264 62.4839 52.7119 62.6363 52.8643C62.7886 53.0167 62.8742 53.2233 62.8742 53.4388V57.9771L69.6109 51.2387C69.6864 51.163 69.776 51.103 69.8747 51.062C69.9734 51.0211 70.0793 51 70.1861 51C70.293 51 70.3988 51.0211 70.4975 51.062C70.5962 51.103 70.6858 51.163 70.7613 51.2387V51.2387Z" fill="white"/>
</g>
<defs>
<filter id="filter0_f_2345_12979" x="0" y="0" width="127" height="127" filterUnits="userSpaceOnUse" color-interpolation-filters="sRGB">
<feFlood flood-opacity="0" result="BackgroundImageFix"/>
<feBlend mode="normal" in="SourceGraphic" in2="BackgroundImageFix" result="shape"/>
<feGaussianBlur stdDeviation="15" result="effect1_foregroundBlur_2345_12979"/>
</filter>
<filter id="filter1_dii_2345_12979" x="9" y="23" width="99" height="99" filterUnits="userSpaceOnUse" color-interpolation-filters="sRGB">
<feFlood flood-opacity="0" result="BackgroundImageFix"/>
<feColorMatrix in="SourceAlpha" type="matrix" values="0 0 0 0 0 0 0 0 0 0 0 0 0 0 0 0 0 0 127 0" result="hardAlpha"/>
<feMorphology radius="4" operator="erode" in="SourceAlpha" result="effect1_dropShadow_2345_12979"/>
<feOffset dy="10"/>
<feGaussianBlur stdDeviation="10"/>
<feColorMatrix type="matrix" values="0 0 0 0 0.916051 0 0 0 0 0.921023 0 0 0 0 0.927984 0 0 0 1 0"/>
<feBlend mode="multiply" in2="BackgroundImageFix" result="effect1_dropShadow_2345_12979"/>
<feBlend mode="normal" in="SourceGraphic" in2="effect1_dropShadow_2345_12979" result="shape"/>
<feColorMatrix in="SourceAlpha" type="matrix" values="0 0 0 0 0 0 0 0 0 0 0 0 0 0 0 0 0 0 127 0" result="hardAlpha"/>
<feOffset/>
<feGaussianBlur stdDeviation="2"/>
<feComposite in2="hardAlpha" operator="arithmetic" k2="-1" k3="1"/>
<feColorMatrix type="matrix" values="0 0 0 0 0.625417 0 0 0 0 0.631402 0 0 0 0 0.658333 0 0 0 1 0"/>
<feBlend mode="color-burn" in2="shape" result="effect2_innerShadow_2345_12979"/>
<feColorMatrix in="SourceAlpha" type="matrix" values="0 0 0 0 0 0 0 0 0 0 0 0 0 0 0 0 0 0 127 0" result="hardAlpha"/>
<feOffset dx="2" dy="2"/>
<feGaussianBlur stdDeviation="1"/>
<feComposite in2="hardAlpha" operator="arithmetic" k2="-1" k3="1"/>
<feColorMatrix type="matrix" values="0 0 0 0 1 0 0 0 0 1 0 0 0 0 1 0 0 0 0.3 0"/>
<feBlend mode="normal" in2="effect2_innerShadow_2345_12979" result="effect3_innerShadow_2345_12979"/>
</filter>
<clipPath id="clip0_2345_12979">
<rect width="26" height="26" fill="white" transform="translate(45 51)"/>
</clipPath>
</defs>
</svg>
