<svg width="123" height="128" viewBox="0 0 123 128" fill="none" xmlns="http://www.w3.org/2000/svg">
<g opacity="0.5" filter="url(#filter0_f_2345_12984)">
<rect x="30" y="30" width="63" height="68" rx="11" fill="#FA9D7C"/>
</g>
<g filter="url(#filter1_dii_2345_12984)">
<rect x="21" y="24" width="63" height="68" rx="11" fill="#FA9D7C"/>
</g>
<path d="M37.0969 49.9804C37.2922 49.1337 37.7724 48.3777 38.4588 47.8363C39.1452 47.2948 39.9971 46.9999 40.875 47H64.125C65.0029 46.9999 65.8548 47.2948 66.5412 47.8363C67.2276 48.3777 67.7078 49.1337 67.9031 49.9804L52.5 59.2935L37.0969 49.9804ZM37 52.1692V65.7852L48.2433 58.9657L37 52.1692ZM50.0994 60.0908L37.3701 67.8092C37.6846 68.4653 38.181 69.0195 38.8015 69.4073C39.4219 69.7952 40.141 70.0007 40.875 70H64.125C64.8589 70.0002 65.5777 69.7942 66.1978 69.406C66.8179 69.0178 67.3139 68.4634 67.628 67.8073L54.8986 60.0889L52.5 61.5398L50.0994 60.0889V60.0908ZM56.7567 58.9677L68 65.7852V52.1692L56.7567 58.9657V58.9677Z" fill="white"/>
<defs>
<filter id="filter0_f_2345_12984" x="0" y="0" width="123" height="128" filterUnits="userSpaceOnUse" color-interpolation-filters="sRGB">
<feFlood flood-opacity="0" result="BackgroundImageFix"/>
<feBlend mode="normal" in="SourceGraphic" in2="BackgroundImageFix" result="shape"/>
<feGaussianBlur stdDeviation="15" result="effect1_foregroundBlur_2345_12984"/>
</filter>
<filter id="filter1_dii_2345_12984" x="5" y="18" width="95" height="100" filterUnits="userSpaceOnUse" color-interpolation-filters="sRGB">
<feFlood flood-opacity="0" result="BackgroundImageFix"/>
<feColorMatrix in="SourceAlpha" type="matrix" values="0 0 0 0 0 0 0 0 0 0 0 0 0 0 0 0 0 0 127 0" result="hardAlpha"/>
<feMorphology radius="4" operator="erode" in="SourceAlpha" result="effect1_dropShadow_2345_12984"/>
<feOffset dy="10"/>
<feGaussianBlur stdDeviation="10"/>
<feColorMatrix type="matrix" values="0 0 0 0 0.916051 0 0 0 0 0.921023 0 0 0 0 0.927984 0 0 0 1 0"/>
<feBlend mode="multiply" in2="BackgroundImageFix" result="effect1_dropShadow_2345_12984"/>
<feBlend mode="normal" in="SourceGraphic" in2="effect1_dropShadow_2345_12984" result="shape"/>
<feColorMatrix in="SourceAlpha" type="matrix" values="0 0 0 0 0 0 0 0 0 0 0 0 0 0 0 0 0 0 127 0" result="hardAlpha"/>
<feOffset/>
<feGaussianBlur stdDeviation="2"/>
<feComposite in2="hardAlpha" operator="arithmetic" k2="-1" k3="1"/>
<feColorMatrix type="matrix" values="0 0 0 0 0.625417 0 0 0 0 0.631402 0 0 0 0 0.658333 0 0 0 1 0"/>
<feBlend mode="color-burn" in2="shape" result="effect2_innerShadow_2345_12984"/>
<feColorMatrix in="SourceAlpha" type="matrix" values="0 0 0 0 0 0 0 0 0 0 0 0 0 0 0 0 0 0 127 0" result="hardAlpha"/>
<feOffset dx="2" dy="2"/>
<feGaussianBlur stdDeviation="1"/>
<feComposite in2="hardAlpha" operator="arithmetic" k2="-1" k3="1"/>
<feColorMatrix type="matrix" values="0 0 0 0 1 0 0 0 0 1 0 0 0 0 1 0 0 0 0.3 0"/>
<feBlend mode="normal" in2="effect2_innerShadow_2345_12984" result="effect3_innerShadow_2345_12984"/>
</filter>
</defs>
</svg>
