<svg width="124" height="124" viewBox="0 0 124 124" fill="none" xmlns="http://www.w3.org/2000/svg">
<g opacity="0.3" filter="url(#filter0_f_2345_12975)">
<path d="M61.9 30.0003H85.936C86.9981 29.9917 88.0513 30.1948 89.0341 30.5976C90.0169 31.0004 90.9097 31.5948 91.6603 32.3463C92.411 33.0978 93.0045 33.9912 93.4062 34.9745C93.8079 35.9577 94.0097 37.0111 94 38.0733V62.1003C94 79.7223 79.722 94.0003 62.1 94.0003H61.918C57.7277 94.0039 53.5778 93.1818 49.7054 91.5807C45.833 89.9797 42.3141 87.6312 39.3499 84.6694C36.3857 81.7077 34.0342 78.1908 32.4299 74.3198C30.8256 70.4488 29.9999 66.2996 30 62.1093C30 44.4373 44.254 30.1823 61.9 30.0003Z" fill="#25C16F"/>
</g>
<g filter="url(#filter1_dii_2345_12975)">
<path d="M51.9 22.0003H75.936C76.9981 21.9917 78.0513 22.1948 79.0341 22.5976C80.0169 23.0004 80.9097 23.5948 81.6603 24.3463C82.411 25.0978 83.0045 25.9912 83.4062 26.9745C83.8079 27.9577 84.0097 29.0111 84 30.0733V54.1003C84 71.7223 69.722 86.0003 52.1 86.0003H51.918C47.7277 86.0039 43.5778 85.1818 39.7054 83.5807C35.833 81.9797 32.3141 79.6312 29.3499 76.6694C26.3857 73.7077 24.0342 70.1908 22.4299 66.3198C20.8256 62.4488 19.9999 58.2996 20 54.1093C20 36.4373 34.254 22.1823 51.9 22.0003Z" fill="#25C16F"/>
</g>
<path d="M51.5076 36C43.4954 36 37 42.4694 37 50.4517V60.2781C37.0574 62.9083 39.184 65.0266 41.8243 65.0838H45.9279V53.7959H40.3838V50.64C40.7204 44.6972 45.6576 40.0483 51.6343 40.0483C57.611 40.0483 62.5363 44.6884 62.8729 50.64V53.7959H57.2496V65.0917H60.9572V65.2712C60.9176 67.711 58.9425 69.6795 56.5022 69.7091H52.0739C51.7135 69.7091 51.3175 69.8886 51.3175 70.2465C51.3262 70.4436 51.4087 70.6302 51.5487 70.7697C51.6887 70.9092 51.8761 70.9913 52.0739 71H56.5289C59.7019 70.9803 62.269 68.4231 62.2888 65.2623V64.9034C63.3486 64.6655 64.2946 64.0732 64.9692 63.2249C65.6439 62.3767 66.0064 61.3238 65.9963 60.2416V50.64C66.1765 42.5 59.6959 36.0089 51.4888 36.0089L51.5076 36Z" fill="white"/>
<defs>
<filter id="filter0_f_2345_12975" x="0" y="0" width="124" height="124" filterUnits="userSpaceOnUse" color-interpolation-filters="sRGB">
<feFlood flood-opacity="0" result="BackgroundImageFix"/>
<feBlend mode="normal" in="SourceGraphic" in2="BackgroundImageFix" result="shape"/>
<feGaussianBlur stdDeviation="15" result="effect1_foregroundBlur_2345_12975"/>
</filter>
<filter id="filter1_dii_2345_12975" x="4" y="16" width="96" height="96.0005" filterUnits="userSpaceOnUse" color-interpolation-filters="sRGB">
<feFlood flood-opacity="0" result="BackgroundImageFix"/>
<feColorMatrix in="SourceAlpha" type="matrix" values="0 0 0 0 0 0 0 0 0 0 0 0 0 0 0 0 0 0 127 0" result="hardAlpha"/>
<feMorphology radius="4" operator="erode" in="SourceAlpha" result="effect1_dropShadow_2345_12975"/>
<feOffset dy="10"/>
<feGaussianBlur stdDeviation="10"/>
<feColorMatrix type="matrix" values="0 0 0 0 0.916051 0 0 0 0 0.921023 0 0 0 0 0.927984 0 0 0 1 0"/>
<feBlend mode="multiply" in2="BackgroundImageFix" result="effect1_dropShadow_2345_12975"/>
<feBlend mode="normal" in="SourceGraphic" in2="effect1_dropShadow_2345_12975" result="shape"/>
<feColorMatrix in="SourceAlpha" type="matrix" values="0 0 0 0 0 0 0 0 0 0 0 0 0 0 0 0 0 0 127 0" result="hardAlpha"/>
<feOffset/>
<feGaussianBlur stdDeviation="2"/>
<feComposite in2="hardAlpha" operator="arithmetic" k2="-1" k3="1"/>
<feColorMatrix type="matrix" values="0 0 0 0 0.625417 0 0 0 0 0.631402 0 0 0 0 0.658333 0 0 0 1 0"/>
<feBlend mode="color-burn" in2="shape" result="effect2_innerShadow_2345_12975"/>
<feColorMatrix in="SourceAlpha" type="matrix" values="0 0 0 0 0 0 0 0 0 0 0 0 0 0 0 0 0 0 127 0" result="hardAlpha"/>
<feOffset dx="2" dy="2"/>
<feGaussianBlur stdDeviation="1"/>
<feComposite in2="hardAlpha" operator="arithmetic" k2="-1" k3="1"/>
<feColorMatrix type="matrix" values="0 0 0 0 1 0 0 0 0 1 0 0 0 0 1 0 0 0 0.3 0"/>
<feBlend mode="normal" in2="effect2_innerShadow_2345_12975" result="effect3_innerShadow_2345_12975"/>
</filter>
</defs>
</svg>
