<svg width="128" height="128" viewBox="0 0 128 128" fill="none" xmlns="http://www.w3.org/2000/svg">
<g filter="url(#filter0_f_3093_6336)">
<circle cx="64.4305" cy="63.9339" r="33.5" transform="rotate(10.1767 64.4305 63.9339)" fill="#FF8A8A" fill-opacity="0.5"/>
</g>
<g filter="url(#filter1_dii_3093_6336)">
<circle cx="60.1121" cy="61.8919" r="33.5" transform="rotate(10.1767 60.1121 61.8919)" fill="#FF8A8A"/>
</g>
<g clip-path="url(#clip0_3093_6336)">
<path d="M69.0587 56.5971C67.7169 54.5213 65.6719 52.884 63.1344 52.0893C60.5969 51.2946 57.9832 51.4731 55.6971 52.4126L69.0587 56.5971ZM50.6539 68.5164C51.9957 70.5921 54.0407 72.2295 56.5782 73.0242C59.1157 73.8189 61.7294 73.6404 64.0155 72.7009L50.6539 68.5164Z" fill="white"/>
<path d="M66.8622 73.5925C63.7233 75.5817 59.7636 76.2323 55.9479 75.0373C52.1323 73.8424 49.2509 71.0494 47.8075 67.6251L42.159 65.8562C43.3452 72.1887 47.9001 77.6746 54.477 79.7343C61.0539 81.794 67.9243 79.8861 72.5106 75.3614L66.8622 73.5925ZM52.8507 51.5214C55.9895 49.5321 59.9493 48.8815 63.7649 50.0765C67.5806 51.2714 70.4619 54.0644 71.9054 57.4887L77.5538 59.2576C76.3676 52.9251 71.8128 47.4392 65.2359 45.3795C58.6589 43.3199 51.7886 45.2277 47.2022 49.7524L52.8507 51.5214Z" fill="white"/>
<path d="M53.8581 62.8888C54.9699 63.2369 56.1533 62.6179 56.5015 61.5062C56.8497 60.3945 56.2307 59.211 55.1189 58.8628C54.0072 58.5147 52.8237 59.1337 52.4756 60.2454C52.1274 61.3571 52.7464 62.5406 53.8581 62.8888Z" fill="white"/>
<path d="M71.7437 64.0692C71.2913 63.9275 70.808 64.1803 70.6663 64.6327L69.9193 67.0178C69.7777 67.4702 70.0305 67.9535 70.4829 68.0952C70.9353 68.2369 71.4186 67.9841 71.5603 67.5317L72.3072 65.1466C72.4489 64.6942 72.1962 64.2109 71.7437 64.0692ZM61.6454 60.9067L60.8237 60.6494C60.7231 60.974 60.6131 61.328 60.5612 61.4938C60.5004 61.6879 60.3946 62.0306 60.299 62.3415C60.5992 62.4339 60.9273 62.5351 61.1169 62.5945C61.5904 62.7428 62.1115 62.4816 62.2547 62.0242C62.398 61.5668 62.1189 61.055 61.6454 60.9067Z" fill="white"/>
<path d="M77.9181 61.5823L45.5763 51.4539C45.0205 51.2798 44.4287 51.5893 44.2546 52.1452L41.1026 62.21C40.9285 62.7659 41.2381 63.3576 41.7939 63.5317L74.1357 73.6602C74.6915 73.8342 75.2833 73.5247 75.4573 72.9689L78.6093 62.904C78.7834 62.3482 78.4739 61.7564 77.9181 61.5823ZM50.7021 57.4799L49.8848 57.2239L48.4139 61.9209C48.2978 62.2915 47.9033 62.4978 47.5327 62.3817C47.1622 62.2657 46.9558 61.8712 47.0719 61.5006L48.5428 56.8037L47.7376 56.5515C47.367 56.4355 47.1606 56.041 47.2767 55.6704C47.3928 55.2998 47.7873 55.0935 48.1578 55.2095L51.1223 56.1379C51.4929 56.2539 51.6992 56.6484 51.5832 57.019C51.4671 57.3896 51.0726 57.5959 50.7021 57.4799ZM53.4374 64.2309C51.5875 63.6516 50.5538 61.6752 51.1331 59.8253C51.7124 57.9754 53.6888 56.9417 55.5387 57.521C57.3886 58.1003 58.4223 60.0767 57.843 61.9266C57.2637 63.7765 55.2873 64.8102 53.4374 64.2309ZM60.6967 63.9367C60.5066 63.8772 60.1741 63.7746 59.8722 63.6817L59.3509 65.346C59.2349 65.7166 58.8403 65.9229 58.4698 65.8069C58.0993 65.6909 57.8929 65.2964 58.009 64.9258L59.6894 59.56C59.7167 59.4716 59.7613 59.3895 59.8205 59.3184C59.8796 59.2473 59.9522 59.1885 60.0342 59.1455C60.1161 59.1025 60.2057 59.0761 60.2978 59.0678C60.39 59.0595 60.4828 59.0694 60.5711 59.0971L62.0658 59.5651C63.2874 59.9477 63.9742 61.2396 63.5968 62.4448C63.2193 63.65 61.9183 64.3193 60.6967 63.9367ZM67.0673 67.7626C66.9513 68.1332 66.5567 68.3395 66.1862 68.2234C65.8157 68.1074 65.6093 67.7129 65.7254 67.3423L67.1963 62.6454L66.7199 62.4962C66.3494 62.3801 66.143 61.9856 66.259 61.6151C66.3751 61.2445 66.7696 61.0382 67.1402 61.1542L68.2875 61.5135C68.6581 61.6296 68.8645 62.0241 68.7484 62.3947L67.0673 67.7626ZM72.9023 67.9522C72.5289 69.1446 71.2551 69.8109 70.0627 69.4374C68.8703 69.064 68.204 67.7902 68.5775 66.5978L69.3244 64.2127C69.6978 63.0204 70.9716 62.3541 72.1641 62.7275C73.3564 63.1009 74.0227 64.3748 73.6493 65.5671L72.9023 67.9522Z" fill="white"/>
</g>
<defs>
<filter id="filter0_f_3093_6336" x="0.924805" y="0.428223" width="127.011" height="127.011" filterUnits="userSpaceOnUse" color-interpolation-filters="sRGB">
<feFlood flood-opacity="0" result="BackgroundImageFix"/>
<feBlend mode="normal" in="SourceGraphic" in2="BackgroundImageFix" result="shape"/>
<feGaussianBlur stdDeviation="15" result="effect1_foregroundBlur_3093_6336"/>
</filter>
<filter id="filter1_dii_3093_6336" x="10.6064" y="22.3862" width="99.0112" height="99.0112" filterUnits="userSpaceOnUse" color-interpolation-filters="sRGB">
<feFlood flood-opacity="0" result="BackgroundImageFix"/>
<feColorMatrix in="SourceAlpha" type="matrix" values="0 0 0 0 0 0 0 0 0 0 0 0 0 0 0 0 0 0 127 0" result="hardAlpha"/>
<feMorphology radius="4" operator="erode" in="SourceAlpha" result="effect1_dropShadow_3093_6336"/>
<feOffset dy="10"/>
<feGaussianBlur stdDeviation="10"/>
<feColorMatrix type="matrix" values="0 0 0 0 0.916051 0 0 0 0 0.921023 0 0 0 0 0.927984 0 0 0 1 0"/>
<feBlend mode="multiply" in2="BackgroundImageFix" result="effect1_dropShadow_3093_6336"/>
<feBlend mode="normal" in="SourceGraphic" in2="effect1_dropShadow_3093_6336" result="shape"/>
<feColorMatrix in="SourceAlpha" type="matrix" values="0 0 0 0 0 0 0 0 0 0 0 0 0 0 0 0 0 0 127 0" result="hardAlpha"/>
<feOffset/>
<feGaussianBlur stdDeviation="2"/>
<feComposite in2="hardAlpha" operator="arithmetic" k2="-1" k3="1"/>
<feColorMatrix type="matrix" values="0 0 0 0 0.625417 0 0 0 0 0.631402 0 0 0 0 0.658333 0 0 0 1 0"/>
<feBlend mode="color-burn" in2="shape" result="effect2_innerShadow_3093_6336"/>
<feColorMatrix in="SourceAlpha" type="matrix" values="0 0 0 0 0 0 0 0 0 0 0 0 0 0 0 0 0 0 127 0" result="hardAlpha"/>
<feOffset dx="2" dy="2"/>
<feGaussianBlur stdDeviation="1"/>
<feComposite in2="hardAlpha" operator="arithmetic" k2="-1" k3="1"/>
<feColorMatrix type="matrix" values="0 0 0 0 1 0 0 0 0 1 0 0 0 0 1 0 0 0 0.3 0"/>
<feBlend mode="normal" in2="effect2_innerShadow_3093_6336" result="effect3_innerShadow_3093_6336"/>
</filter>
<clipPath id="clip0_3093_6336">
<rect width="36" height="36" fill="white" transform="translate(48.0581 40) rotate(17.389)"/>
</clipPath>
</defs>
</svg>
