<svg width="198" height="198" viewBox="0 0 198 198" fill="none" xmlns="http://www.w3.org/2000/svg">
<g clip-path="url(#clip0_2702_3095)">
<g filter="url(#filter0_f_2702_3095)">
<circle cx="98.9295" cy="98.9005" r="40.4792" transform="rotate(-11.5568 98.9295 98.9005)" fill="#8894FF" fill-opacity="0.5"/>
</g>
<g filter="url(#filter1_dii_2702_3095)">
<circle cx="92.7681" cy="98.9269" r="40.4792" transform="rotate(-11.5568 92.7681 98.9269)" fill="#8894FF"/>
</g>
<g clip-path="url(#clip1_2702_3095)">
<path d="M89.5093 82.9936C89.1659 83.0639 88.8087 82.9948 88.5162 82.8016C88.2237 82.6084 88.02 82.307 87.9497 81.9636L87.2589 78.585C87.1886 78.2416 87.2577 77.8843 87.4509 77.5918C87.6441 77.2994 87.9455 77.0956 88.2889 77.0254C88.6323 76.9552 88.9896 77.0242 89.282 77.2174C89.5745 77.4106 89.7783 77.712 89.8485 78.0554L90.5394 81.434C90.6096 81.7775 90.5405 82.1347 90.3474 82.4272C90.1542 82.7197 89.8527 82.9234 89.5093 82.9936ZM101.815 85.3732C101.558 85.4258 101.292 85.401 101.05 85.3022C100.808 85.2034 100.6 85.035 100.454 84.8182C100.308 84.6014 100.229 84.3461 100.228 84.0845C100.226 83.8229 100.303 83.5669 100.447 83.3488L102.348 80.4708C102.444 80.3259 102.567 80.2013 102.711 80.1041C102.855 80.0069 103.016 79.9389 103.186 79.9042C103.357 79.8694 103.532 79.8684 103.702 79.9014C103.873 79.9344 104.035 80.0006 104.18 80.0962C104.325 80.1919 104.449 80.3152 104.547 80.459C104.644 80.6029 104.712 80.7645 104.747 80.9345C104.781 81.1046 104.782 81.2799 104.749 81.4504C104.716 81.6208 104.65 81.7831 104.554 81.928L102.654 84.806C102.46 85.0987 102.158 85.3027 101.815 85.3732ZM112.212 95.0658L108.834 95.7566C108.49 95.8269 108.133 95.7578 107.841 95.5646C107.548 95.3714 107.344 95.07 107.274 94.7266C107.204 94.3832 107.273 94.0259 107.466 93.7335C107.659 93.441 107.961 93.2372 108.304 93.167L111.683 92.4761C112.026 92.4059 112.383 92.475 112.676 92.6681C112.968 92.8613 113.172 93.1628 113.242 93.5062C113.313 93.8496 113.244 94.2068 113.05 94.4993C112.857 94.7918 112.556 94.9955 112.212 95.0658ZM109.332 109.963C109.162 109.998 108.987 109.999 108.816 109.966C108.646 109.933 108.484 109.866 108.339 109.77L105.461 107.869C105.317 107.774 105.192 107.65 105.095 107.506C104.998 107.363 104.93 107.201 104.895 107.031C104.86 106.861 104.859 106.686 104.892 106.515C104.925 106.345 104.991 106.182 105.087 106.037C105.183 105.893 105.306 105.768 105.45 105.671C105.594 105.574 105.755 105.506 105.925 105.471C106.095 105.436 106.271 105.435 106.441 105.468C106.611 105.501 106.774 105.567 106.919 105.663L109.797 107.564C110.015 107.708 110.186 107.913 110.288 108.155C110.389 108.396 110.417 108.662 110.367 108.919C110.317 109.176 110.192 109.412 110.008 109.598C109.824 109.784 109.589 109.911 109.332 109.963ZM81.8646 115.579C81.6084 115.632 81.3423 115.607 81.1001 115.508C80.8579 115.41 80.6504 115.241 80.504 115.024C80.3576 114.808 80.2789 114.552 80.2777 114.291C80.2765 114.029 80.353 113.773 80.4974 113.555L82.3982 110.677C82.4939 110.532 82.6171 110.408 82.761 110.31C82.9048 110.213 83.0664 110.145 83.2365 110.11C83.4066 110.076 83.5818 110.075 83.7523 110.108C83.9228 110.141 84.0851 110.207 84.2299 110.302C84.3748 110.398 84.4994 110.521 84.5966 110.665C84.6938 110.809 84.7618 110.971 84.7966 111.141C84.8313 111.311 84.8323 111.486 84.7993 111.657C84.7664 111.827 84.7002 111.989 84.6045 112.134L82.7037 115.012C82.6082 115.157 82.4848 115.282 82.3408 115.38C82.1968 115.477 82.035 115.545 81.8646 115.579ZM76.7463 102.318L73.3677 103.009C73.0243 103.079 72.6671 103.01 72.3746 102.817C72.0821 102.624 71.8783 102.322 71.8081 101.979C71.7379 101.635 71.807 101.278 72.0001 100.986C72.1933 100.693 72.4948 100.489 72.8382 100.419L76.2168 99.7284C76.5602 99.6582 76.9174 99.7272 77.2099 99.9204C77.5024 100.114 77.7062 100.415 77.7764 100.758C77.8466 101.102 77.7775 101.459 77.5844 101.752C77.3912 102.044 77.0897 102.248 76.7463 102.318ZM79.1259 90.0127C78.9559 90.0479 78.7807 90.049 78.6103 90.0159C78.4398 89.9828 78.2777 89.9163 78.1332 89.82L75.2553 87.9192C75.1104 87.8236 74.9858 87.7003 74.8886 87.5564C74.7914 87.4126 74.7234 87.251 74.6886 87.0809C74.6538 86.9108 74.6529 86.7356 74.6859 86.5651C74.7188 86.3947 74.785 86.2324 74.8807 86.0875C74.9764 85.9426 75.0997 85.818 75.2435 85.7208C75.3873 85.6236 75.5489 85.5556 75.719 85.5208C75.8891 85.4861 76.0644 85.4851 76.2348 85.5181C76.4053 85.551 76.5676 85.6172 76.7125 85.7129L79.5904 87.6137C79.809 87.7577 79.9799 87.9633 80.0815 88.2045C80.1831 88.4458 80.2107 88.7117 80.161 88.9687C80.1112 89.2256 79.9863 89.462 79.802 89.6479C79.6178 89.8338 79.3824 89.9607 79.1259 90.0127ZM100.882 112.221L101.323 114.379C101.662 116.037 100.577 117.679 98.9196 118.018L94.6036 118.901C93.1534 119.197 91.3564 118.414 90.8621 115.997L90.5232 114.339L100.882 112.221ZM98.2183 86.7939C96.5735 85.9421 94.7586 85.4702 92.9072 85.413C91.0558 85.3558 89.2152 85.7147 87.5209 86.4633C83.14 88.3484 80.1907 92.8364 80.1767 97.6056C80.1702 102.499 82.8843 106.8 87.2304 108.879C88.4043 109.431 89.3522 110.46 89.8728 111.775L89.8764 111.792C89.9074 111.767 89.9592 111.757 89.9937 111.75L100.352 109.632C100.387 109.625 100.404 109.621 100.442 109.631L100.439 109.614C100.412 108.252 100.942 106.885 101.942 105.709C103.149 104.286 104.017 102.606 104.479 100.798C104.941 98.9893 104.986 97.0996 104.61 95.2713C103.862 91.6113 101.54 88.5248 98.2183 86.7939ZM99.1759 97.2819C98.468 97.4266 97.761 96.9597 97.6163 96.2518C97.0797 93.6277 94.5219 91.9384 91.8978 92.475C91.1899 92.6197 90.4829 92.1528 90.3382 91.4449C90.1934 90.7371 90.6604 90.0301 91.3682 89.8853C93.3137 89.4923 95.3357 89.8857 96.9919 90.9795C98.6481 92.0734 99.8037 93.7786 100.206 95.7223C100.351 96.4301 99.8837 97.1371 99.1759 97.2819Z" fill="white"/>
<path d="M89.8728 111.774L89.9937 111.75C89.9591 111.757 89.9073 111.767 89.8763 111.792L89.8728 111.774ZM100.439 109.614L100.442 109.631C100.404 109.621 100.387 109.624 100.352 109.632L100.439 109.614Z" fill="white"/>
</g>
</g>
<defs>
<filter id="filter0_f_2702_3095" x="28.4424" y="28.4131" width="140.974" height="140.975" filterUnits="userSpaceOnUse" color-interpolation-filters="sRGB">
<feFlood flood-opacity="0" result="BackgroundImageFix"/>
<feBlend mode="normal" in="SourceGraphic" in2="BackgroundImageFix" result="shape"/>
<feGaussianBlur stdDeviation="15" result="effect1_foregroundBlur_2702_3095"/>
</filter>
<filter id="filter1_dii_2702_3095" x="36.281" y="52.4395" width="112.974" height="112.975" filterUnits="userSpaceOnUse" color-interpolation-filters="sRGB">
<feFlood flood-opacity="0" result="BackgroundImageFix"/>
<feColorMatrix in="SourceAlpha" type="matrix" values="0 0 0 0 0 0 0 0 0 0 0 0 0 0 0 0 0 0 127 0" result="hardAlpha"/>
<feMorphology radius="4" operator="erode" in="SourceAlpha" result="effect1_dropShadow_2702_3095"/>
<feOffset dy="10"/>
<feGaussianBlur stdDeviation="10"/>
<feColorMatrix type="matrix" values="0 0 0 0 0.916051 0 0 0 0 0.921023 0 0 0 0 0.927984 0 0 0 1 0"/>
<feBlend mode="multiply" in2="BackgroundImageFix" result="effect1_dropShadow_2702_3095"/>
<feBlend mode="normal" in="SourceGraphic" in2="effect1_dropShadow_2702_3095" result="shape"/>
<feColorMatrix in="SourceAlpha" type="matrix" values="0 0 0 0 0 0 0 0 0 0 0 0 0 0 0 0 0 0 127 0" result="hardAlpha"/>
<feOffset/>
<feGaussianBlur stdDeviation="2"/>
<feComposite in2="hardAlpha" operator="arithmetic" k2="-1" k3="1"/>
<feColorMatrix type="matrix" values="0 0 0 0 0.625417 0 0 0 0 0.631402 0 0 0 0 0.658333 0 0 0 1 0"/>
<feBlend mode="color-burn" in2="shape" result="effect2_innerShadow_2702_3095"/>
<feColorMatrix in="SourceAlpha" type="matrix" values="0 0 0 0 0 0 0 0 0 0 0 0 0 0 0 0 0 0 127 0" result="hardAlpha"/>
<feOffset dx="2" dy="2"/>
<feGaussianBlur stdDeviation="1"/>
<feComposite in2="hardAlpha" operator="arithmetic" k2="-1" k3="1"/>
<feColorMatrix type="matrix" values="0 0 0 0 1 0 0 0 0 1 0 0 0 0 1 0 0 0 0.3 0"/>
<feBlend mode="normal" in2="effect2_innerShadow_2702_3095" result="effect3_innerShadow_2702_3095"/>
</filter>
<clipPath id="clip0_2702_3095">
<rect width="167.569" height="167.569" fill="white" transform="translate(0.128662 33.6992) rotate(-11.5568)"/>
</clipPath>
<clipPath id="clip1_2702_3095">
<rect width="42.2917" height="42.2917" fill="white" transform="translate(67.5718 81.2617) rotate(-11.5568)"/>
</clipPath>
</defs>
</svg>
