<svg width="128" height="128" viewBox="0 0 128 128" fill="none" xmlns="http://www.w3.org/2000/svg">
<g filter="url(#filter0_f_4707_4179)">
<circle cx="63.8603" cy="64.0263" r="33.5" transform="rotate(10.4623 63.8603 64.0263)" fill="#8894FF" fill-opacity="0.5"/>
</g>
<g filter="url(#filter1_dii_4707_4179)">
<circle cx="58.8603" cy="62.0262" r="33.5" transform="rotate(10.4623 58.8603 62.0262)" fill="#8894FF"/>
</g>
<g clip-path="url(#clip0_4707_4179)">
<path d="M61.9927 45H60.9966V61.0039H77.0005V60.0078C77.0005 51.7687 70.2318 45 61.9927 45ZM48.1858 75.2233C50.815 77.5258 54.2467 79 58.0083 79C66.2475 79 72.9497 72.2313 72.9497 63.9922V62.9961H60.4129L48.1858 75.2233ZM59.0044 49.0508H58.0083C54.7555 49.0508 51.7514 50.1072 49.2955 51.8787L59.0044 61.5876V49.0508ZM47.7536 53.1538C44.8747 55.879 43.0005 59.7243 43.0005 63.9922C43.0005 67.7538 44.4747 71.1854 46.7772 73.8147L57.5959 62.9961L47.7536 53.1538Z" fill="white"/>
</g>
<defs>
<filter id="filter0_f_4707_4179" x="0.354492" y="0.520508" width="127.012" height="127.012" filterUnits="userSpaceOnUse" color-interpolation-filters="sRGB">
<feFlood flood-opacity="0" result="BackgroundImageFix"/>
<feBlend mode="normal" in="SourceGraphic" in2="BackgroundImageFix" result="shape"/>
<feGaussianBlur stdDeviation="15" result="effect1_foregroundBlur_4707_4179"/>
</filter>
<filter id="filter1_dii_4707_4179" x="9.35449" y="22.5205" width="99.0117" height="99.0117" filterUnits="userSpaceOnUse" color-interpolation-filters="sRGB">
<feFlood flood-opacity="0" result="BackgroundImageFix"/>
<feColorMatrix in="SourceAlpha" type="matrix" values="0 0 0 0 0 0 0 0 0 0 0 0 0 0 0 0 0 0 127 0" result="hardAlpha"/>
<feMorphology radius="4" operator="erode" in="SourceAlpha" result="effect1_dropShadow_4707_4179"/>
<feOffset dy="10"/>
<feGaussianBlur stdDeviation="10"/>
<feColorMatrix type="matrix" values="0 0 0 0 0.916051 0 0 0 0 0.921023 0 0 0 0 0.927984 0 0 0 1 0"/>
<feBlend mode="multiply" in2="BackgroundImageFix" result="effect1_dropShadow_4707_4179"/>
<feBlend mode="normal" in="SourceGraphic" in2="effect1_dropShadow_4707_4179" result="shape"/>
<feColorMatrix in="SourceAlpha" type="matrix" values="0 0 0 0 0 0 0 0 0 0 0 0 0 0 0 0 0 0 127 0" result="hardAlpha"/>
<feOffset/>
<feGaussianBlur stdDeviation="2"/>
<feComposite in2="hardAlpha" operator="arithmetic" k2="-1" k3="1"/>
<feColorMatrix type="matrix" values="0 0 0 0 0.625417 0 0 0 0 0.631402 0 0 0 0 0.658333 0 0 0 1 0"/>
<feBlend mode="color-burn" in2="shape" result="effect2_innerShadow_4707_4179"/>
<feColorMatrix in="SourceAlpha" type="matrix" values="0 0 0 0 0 0 0 0 0 0 0 0 0 0 0 0 0 0 127 0" result="hardAlpha"/>
<feOffset dx="2" dy="2"/>
<feGaussianBlur stdDeviation="1"/>
<feComposite in2="hardAlpha" operator="arithmetic" k2="-1" k3="1"/>
<feColorMatrix type="matrix" values="0 0 0 0 1 0 0 0 0 1 0 0 0 0 1 0 0 0 0.3 0"/>
<feBlend mode="normal" in2="effect2_innerShadow_4707_4179" result="effect3_innerShadow_4707_4179"/>
</filter>
<clipPath id="clip0_4707_4179">
<rect width="34" height="34" fill="white" transform="translate(43.0005 45)"/>
</clipPath>
</defs>
</svg>
