<svg width="228" height="49" viewBox="0 0 228 49" fill="none" xmlns="http://www.w3.org/2000/svg">
<path d="M22.9754 24.7598C21.4359 23.2283 18.9529 21.8836 15.8978 21.8836C12.8985 21.8836 10.3938 23.2647 8.89079 24.7598C7.42877 26.2127 5.86646 28.7368 5.86646 31.6346V32.2796C5.86646 35.1729 7.40825 37.6685 8.8623 39.1259C10.3494 40.6153 12.8381 42.0306 15.8009 42.0306H16.1006C19.0315 42.0306 21.5351 40.5925 23.0028 39.1259C24.442 37.6856 25.9986 35.1729 25.9986 32.3161V31.6335C25.9986 28.7357 24.4375 26.2093 22.9754 24.7598ZM19.8657 40.1629C18.807 40.6164 17.6595 41.0506 16.1553 41.0506H15.7109C14.3036 41.0506 13.0398 40.6347 12.0655 40.1868C11.3522 39.8643 9.81495 38.8673 9.43093 38.302C9.82863 37.7083 11.4023 36.6702 12.1305 36.3432C13.3555 35.7962 14.2386 35.5558 15.9468 35.4885C17.7655 35.4133 19.9192 36.17 21.2399 37.1488C21.4735 37.3198 21.6741 37.4736 21.8929 37.6605C22.0513 37.7961 22.3806 38.1391 22.5094 38.2257C22.1402 38.7738 20.546 39.8666 19.8657 40.1629ZM25.0198 32.3343C25.0198 33.3132 24.6961 34.5439 24.4124 35.2504C24.2346 35.6914 24.05 36.056 23.8369 36.4526C23.7503 36.6178 23.1441 37.4987 23.1373 37.5226C22.9014 37.3665 22.5025 36.9346 22.2256 36.7192C21.8895 36.4526 21.5784 36.2406 21.2114 36.0139C18.7603 34.4732 15.5707 34.1416 12.8495 35.0521C11.9903 35.3347 11.212 35.7107 10.518 36.1711C10.0622 36.472 9.46512 36.9255 9.07767 37.3175C8.83039 37.5625 8.85432 37.6753 8.65149 37.3973C7.78772 36.2372 6.84646 34.3034 6.84646 32.2956V31.6141C6.84646 29.0103 8.2857 26.7574 9.59388 25.4413C10.9363 24.0863 13.2347 22.8591 15.9331 22.8591C18.6065 22.8591 20.9311 24.0784 22.2575 25.423C23.5486 26.7266 25.0209 28.9875 25.0209 31.5583L25.0198 32.3343ZM31.5242 48.1009C31.3886 47.9448 31.2644 47.8001 31.13 47.6451C30.3471 46.7346 29.5471 45.8287 28.7688 44.9125C27.7376 43.6886 26.6744 42.4887 25.6317 41.2717C25.1098 40.662 24.5662 40.0649 24.0546 39.4461C23.8278 39.1727 23.7572 39.241 23.9999 38.9789C24.3417 38.6074 24.8203 37.9397 25.0699 37.5215C25.8311 36.2509 26.6265 34.3148 26.6425 32.2933L31.9641 48.4006C31.759 48.4997 31.6758 48.2753 31.5242 48.1009ZM1.36872 46.9887C1.00635 47.4206 0.624603 47.8684 0.247417 48.2844C-0.185606 48.7675 0.0662313 48.0861 0.139162 47.8639C0.673603 46.2173 5.11665 32.6203 5.23744 32.4824C5.26479 33.802 5.72972 35.411 6.16616 36.3375C6.57981 37.2058 6.94446 37.8269 7.52107 38.5676C7.67377 38.7636 7.94725 39.0302 8.06463 39.2046C8.03386 39.314 2.26439 45.9073 1.36872 46.9887ZM15.9684 0H15.9741L24.336 25.3182C24.2346 25.2475 23.7503 24.6538 23.6102 24.5103C23.3709 24.2516 23.0871 24.0066 22.8159 23.7718C21.1362 22.336 18.6281 21.2523 16.1348 21.2523H15.7303C13.874 21.2523 12.1818 21.8608 10.9477 22.4899C10.0497 22.9468 9.06514 23.6989 8.35407 24.4077C8.20935 24.5524 7.73644 25.1233 7.63502 25.1883L15.9684 0Z" fill="white"/>
<path d="M55.1316 8.12253L55.0131 7.74876H49.5171L49.3804 8.0815C47.4249 12.8687 45.0889 19.3048 43.5699 24.0908L43.3477 24.7894H47.6631L47.7782 24.4076C48.0984 23.3456 48.4778 22.1023 48.8926 20.8021H55.1145C55.6068 22.1456 56.1116 23.4139 56.5287 24.4532L56.662 24.7894H61.1768L60.8646 24.0464C59.1826 20.0364 56.8808 13.6367 55.1316 8.12253ZM53.8678 17.1431H50.0561C50.7717 15.076 51.4463 13.2162 52.0651 11.5992C52.6041 13.3655 53.2297 15.2902 53.8678 17.1431Z" fill="white"/>
<path d="M68.7584 7.36024C65.8468 7.36024 63.9723 7.92659 62.6801 9.19376C61.2716 10.576 60.6152 12.7787 60.6152 16.1198C60.6152 19.5259 61.2659 21.7742 62.663 23.1998C63.9461 24.5034 65.8822 25.1119 68.7572 25.1119C71.6209 25.1119 73.5501 24.5034 74.8309 23.1975C76.2269 21.7742 76.8775 19.5259 76.8775 16.121C76.8787 9.81708 74.6019 7.36024 68.7584 7.36024ZM68.7584 11.1583C71.9206 11.1583 72.5974 11.5902 72.5974 16.1677C72.5974 20.8079 71.8203 21.3127 68.7584 21.3127C65.6953 21.3127 64.917 20.8079 64.917 16.1677C64.917 11.5902 65.5973 11.1583 68.7584 11.1583Z" fill="white"/>
<path d="M93.7729 15.2629C94.8942 14.1108 96.7767 11.8226 99.0706 8.59543L99.6723 7.74876H94.6834L94.5239 7.98464C92.712 10.65 90.6985 13.1069 89.249 14.6657V7.74876H85.1523V24.7905H89.249V17.2753C91.4768 17.6308 92.8602 18.9561 94.9239 24.4441L95.0538 24.7905H99.8011L99.523 24.0635C97.0856 17.6901 95.4993 16.0423 93.7729 15.2629Z" fill="white"/>
<path d="M109.494 14.1188H104.462V11.4329H112.939V7.74876H100.365V24.7905H109.632C112.768 24.7905 114.293 23.0641 114.293 19.5122C114.291 15.9352 112.677 14.1188 109.494 14.1188ZM104.462 17.6433H108.875C109.174 17.6433 109.967 17.6433 109.967 19.4677C109.967 21.177 109.315 21.177 108.966 21.177H104.462V17.6433Z" fill="white"/>
<path d="M125.573 16.1221C127.526 13.4145 129.354 10.8141 130.877 8.58632L131.449 7.74876H126.437L126.275 7.98806C125.409 9.28257 124.328 10.8483 123.048 12.6442C121.694 10.8358 120.494 9.26092 119.467 7.9516L119.307 7.74876H114.068L114.753 8.61823C116.182 10.4301 118.221 13.1103 120.511 16.1927C118.322 19.1874 116.159 22.0568 114.685 23.9222L114 24.7905H119.055L119.215 24.5877C120.425 23.0675 121.69 21.4004 123.025 19.6352C124.309 21.4312 125.489 23.1199 126.489 24.5603L126.65 24.7905H131.706L131.129 23.9529C129.634 21.7685 127.5 18.792 125.573 16.1221Z" fill="white"/>
<path d="M142.198 8.03023C140.517 11.1423 138.531 14.5632 136.15 18.4479V7.74876H132.098V24.7905H136.891L137.049 24.5455C138.903 21.6511 140.84 18.3818 142.822 14.8048V24.7916H146.847V7.74876H142.348L142.198 8.03023Z" fill="white"/>
<path d="M162.923 8.05074C161.522 10.9338 160.089 14.2031 158.97 17.0451C157.689 13.9228 156.26 10.7047 154.972 8.05074L154.825 7.74876H149.83V24.7905H153.813V14.9233C154.849 17.3687 155.932 20.1218 156.848 22.4465L157.197 23.3239H160.278L160.415 22.9889C161.18 21.1258 162.502 17.9248 163.829 14.8879V24.7894H167.856V7.74876H163.067L162.923 8.05074Z" fill="white"/>
<path d="M183.909 8.05074C182.512 10.9338 181.078 14.2031 179.959 17.0451C178.677 13.9228 177.249 10.7047 175.96 8.05074L175.812 7.74876H170.818V24.7905H174.801V14.9233C175.836 17.3687 176.921 20.1218 177.839 22.4465L178.184 23.3239H181.268L181.404 22.9889C182.167 21.1258 183.49 17.9248 184.816 14.8879V24.7894H188.844V7.74876H184.054L183.909 8.05074Z" fill="white"/>
<path d="M201.146 8.12253L201.027 7.74876H195.531L195.396 8.0815C193.438 12.8687 191.104 19.3048 189.583 24.0908L189.364 24.7894H193.677L193.792 24.4076C194.114 23.3456 194.491 22.1023 194.906 20.8021H201.13C201.618 22.1456 202.126 23.4139 202.543 24.4532L202.677 24.7894H207.19L206.88 24.0464C205.196 20.0364 202.892 13.6367 201.146 8.12253ZM199.881 17.1431H196.07C196.785 15.076 197.457 13.2162 198.077 11.5992C198.615 13.3655 199.243 15.2902 199.881 17.1431Z" fill="white"/>
<path d="M222.712 7.74876V20.9936H219.156V7.74876H215.084V20.9936H211.525V7.74876H207.43V24.7905H226.785V7.74876H222.712Z" fill="white"/>
<path d="M44.9931 39.5214V32.8597H43.3477V41.6865H45.539C46.8301 39.6718 48.1098 37.4577 49.2732 35.3028V41.6865H50.9073V32.8597H48.8938C47.7041 35.0635 46.3606 37.3187 44.9931 39.5214Z" fill="white"/>
<path d="M57.9083 38.5072C57.1744 36.6737 56.2628 34.5838 55.4275 32.8608H53.1484V41.6876H54.7563V35.1148C55.5289 36.8104 56.4417 39.1408 57.1243 40.8751H58.429C59.139 39.1419 60.0893 36.8731 60.8859 35.1148V41.6876H62.52V32.8608H60.3549C59.5298 34.5564 58.6057 36.6611 57.9083 38.5072Z" fill="white"/>
<path d="M64.748 41.6877H71.1545V40.2404H66.4197V37.7745H69.7996V36.3432H66.4197V34.3023H71.1545V32.8597H64.748V41.6877Z" fill="white"/>
<path d="M78.0412 36.2281H74.2671V32.8597H72.5977V41.6877H74.2671V37.7745H78.0412V41.6877H79.6878V32.8597H78.0412V36.2281Z" fill="white"/>
<path d="M83.5626 39.5214V32.8597H81.916V41.6865H84.1073C85.3984 39.6718 86.6781 37.4577 87.8416 35.3028V41.6865H89.4745V32.8597H87.4621C86.2725 35.0635 84.9312 37.3187 83.5626 39.5214Z" fill="white"/>
<path d="M97.047 32.8597C95.9713 35.4931 94.679 39.0519 93.8438 41.6865H95.6043C95.8072 41.0142 96.0351 40.2689 96.2892 39.4827H100.15C100.442 40.2929 100.746 41.0518 100.999 41.6865H102.847C101.859 39.3322 100.568 35.6948 99.6691 32.8597H97.047ZM96.7313 38.0525C97.1872 36.7238 97.6555 35.4168 98.0988 34.2773H98.4406C98.7825 35.4168 99.2132 36.7478 99.6702 38.0525H96.7313Z" fill="white"/>
<path d="M104.391 39.8758C103.656 39.8758 103.418 39.9897 103.418 40.7612C103.418 41.5976 103.657 41.7492 104.391 41.7492C105.164 41.7492 105.404 41.5976 105.404 40.7612C105.404 39.9886 105.164 39.8758 104.391 39.8758Z" fill="white"/>
<path d="M112.091 38.5072C111.356 36.6737 110.446 34.5838 109.61 32.8608H107.33V41.6876H108.938V35.1148C109.711 36.8104 110.622 39.1408 111.306 40.8751H112.611C113.319 39.1419 114.27 36.8731 115.064 35.1148V41.6876H116.702V32.8608H114.535C113.713 34.5564 112.787 36.6611 112.091 38.5072Z" fill="white"/>
<path d="M119.598 39.8758C118.863 39.8758 118.623 39.9897 118.623 40.7612C118.623 41.5976 118.865 41.7492 119.598 41.7492C120.369 41.7492 120.61 41.5976 120.61 40.7612C120.61 39.9886 120.369 39.8758 119.598 39.8758Z" fill="white"/>
<path d="M127.549 39.5214V32.8597H125.906V41.6865H128.096C129.391 39.6718 130.667 37.4577 131.831 35.3028V41.6865H133.465V32.8597H131.452C130.26 35.0635 128.917 37.3187 127.549 39.5214Z" fill="white"/>
<path d="M139.694 34.1644C140.29 34.1644 141.111 34.2784 141.569 34.4425L141.933 32.9759C141.25 32.7845 140.213 32.6466 139.401 32.6466C136.602 32.6466 135.26 33.5787 135.26 37.191C135.26 40.7874 136.602 41.8631 139.401 41.8631C140.213 41.8631 141.25 41.7366 141.933 41.5475L141.569 40.0536C141.112 40.2188 140.29 40.3316 139.694 40.3316C137.769 40.3316 137.048 39.9134 137.048 37.2024C137.048 34.4938 137.768 34.1644 139.694 34.1644Z" fill="white"/>
<path d="M145.165 32.8597C144.09 35.4931 142.796 39.0519 141.961 41.6865H143.72C143.923 41.0142 144.151 40.2689 144.406 39.4827H148.267C148.559 40.2929 148.863 41.0518 149.114 41.6865H150.963C149.978 39.3322 148.684 35.6948 147.785 32.8597H145.165ZM144.846 38.0525C145.304 36.7238 145.772 35.4168 146.214 34.2773H146.556C146.899 35.4168 147.33 36.7478 147.784 38.0525H144.846Z" fill="white"/>
<path d="M151.838 41.6877H158.245V40.2404H153.51V37.7745H156.892V36.3432H153.51V34.3023H158.245V32.8597H151.838V41.6877Z" fill="white"/>
<path d="M164.763 37.0133C166.348 36.8731 166.602 36.1404 166.602 34.9747C166.602 33.6836 166.197 32.8597 164.438 32.8597H159.688V41.6865H164.511C165.931 41.6865 166.79 41.0005 166.79 39.2696C166.79 37.95 166.448 37.0908 164.763 37.0133ZM161.361 34.2773H164.068C164.639 34.2773 164.83 34.6066 164.83 35.3165C164.83 35.9752 164.627 36.3808 164.068 36.3808H161.361V34.2773ZM164.144 40.2803H161.361V37.7346H164.094C164.7 37.7346 164.993 38.2041 164.993 39.0405C164.993 39.8359 164.753 40.2803 164.144 40.2803Z" fill="white"/>
<path d="M173.285 32.8597H170.664C169.588 35.4931 168.296 39.0519 167.461 41.6865H169.22C169.423 41.0142 169.651 40.2689 169.906 39.4827H173.768C174.059 40.2929 174.362 41.0518 174.614 41.6865H176.463C175.478 39.3322 174.183 35.696 173.285 32.8597ZM170.349 38.0525C170.804 36.7238 171.273 35.4168 171.715 34.2773H172.057C172.4 35.4168 172.832 36.7478 173.285 38.0525H170.349Z" fill="white"/>
</svg>
