<svg width="28" height="27" viewBox="0 0 28 27" fill="none" xmlns="http://www.w3.org/2000/svg">
<path d="M21.58 17.3105L21.9351 16.9446C22.1303 16.7434 23.5339 15.3529 25.0542 13.8546L21.58 17.3105ZM21.58 17.3105L22.3198 21.6762C23.008 25.7371 23.084 26.1724 22.9215 26.4827C22.9002 26.5235 22.8747 26.562 22.846 26.6064L21.58 17.3105ZM14.2585 0.540523L14.2584 0.540471C14.1794 0.505197 14.0391 0.486081 13.8834 0.511837C13.81 0.523971 13.7469 0.544039 13.6994 0.566505C13.677 0.577109 13.6602 0.587191 13.6485 0.59551C13.6442 0.6034 13.6393 0.612443 13.6338 0.622715C13.6041 0.678544 13.562 0.759696 13.5083 0.864819C13.4013 1.07444 13.2522 1.37154 13.0717 1.73489C12.711 2.46119 12.2268 3.44768 11.7065 4.51881C11.1856 5.5913 10.7075 6.57108 10.3568 7.28574C10.1815 7.64296 10.0377 7.93453 9.93633 8.13849C9.88572 8.24027 9.84509 8.32136 9.81614 8.37824C9.80183 8.40636 9.78938 8.43054 9.77958 8.44901C9.77491 8.45782 9.76921 8.46843 9.76342 8.47864C9.76074 8.48338 9.75581 8.49196 9.74964 8.50184C9.74662 8.50668 9.74114 8.51529 9.73392 8.52558L9.73363 8.52599C9.72915 8.53237 9.71092 8.55837 9.68314 8.58705C9.62558 8.64646 9.56698 8.67658 9.55227 8.68415L9.55181 8.68438C9.52853 8.69635 9.50902 8.70408 9.49862 8.70801C9.47732 8.71608 9.45945 8.72122 9.45123 8.72352C9.43294 8.72865 9.41569 8.73256 9.40451 8.735C9.38012 8.74034 9.3503 8.74609 9.31862 8.75192C9.2538 8.76385 9.16267 8.77946 9.05 8.79807C8.82377 8.83545 8.50084 8.88657 8.10584 8.94766C7.31538 9.06991 6.23136 9.23283 5.04436 9.40695C3.48512 9.6357 2.39784 9.80093 1.68454 9.91867C1.32722 9.97766 1.06878 10.0239 0.893688 10.0596C0.805614 10.0776 0.74464 10.0917 0.705364 10.1021C0.703409 10.1026 0.701551 10.1031 0.699789 10.1036C0.630194 10.1557 0.561581 10.2497 0.524637 10.3776C0.488359 10.5031 0.495123 10.618 0.525061 10.6999C0.5298 10.7053 0.53524 10.7114 0.541443 10.7183C0.580261 10.7614 0.637724 10.823 0.71348 10.9026C0.864336 11.0611 1.07882 11.2815 1.34195 11.5484C1.86772 12.0818 2.58221 12.7955 3.35817 13.5605C4.90874 15.089 6.31953 16.4865 6.48665 16.6598L6.77998 16.964L6.9552 17.1457L6.91302 17.3946L6.17394 21.7557L5.68097 21.6721L6.17394 21.7557C6.14915 21.9019 6.12514 22.0435 6.1019 22.1805C5.73692 24.3329 5.56154 25.3672 5.51899 25.9134C5.49968 26.1613 5.51478 26.2464 5.51975 26.2664C5.52835 26.2746 5.55593 26.3018 5.63171 26.3741C5.73477 26.4725 5.8588 26.5126 5.98761 26.4965C5.99789 26.4919 6.0107 26.486 6.02629 26.4787C6.08427 26.4516 6.16723 26.4113 6.27411 26.3582C6.4871 26.2523 6.78489 26.1005 7.14655 25.9138C7.86935 25.5406 8.84121 25.0304 9.8873 24.4737C10.9354 23.9159 11.8959 23.4086 12.5993 23.0406C12.9508 22.8566 13.239 22.707 13.4422 22.603C13.5434 22.5512 13.6254 22.5098 13.6842 22.4808C13.7131 22.4667 13.7398 22.4538 13.7616 22.4438C13.7718 22.4392 13.7863 22.4327 13.8018 22.4265C13.8089 22.4236 13.823 22.4182 13.8404 22.4126C13.849 22.4098 13.864 22.4052 13.883 22.4009C13.896 22.3979 13.9393 22.3882 13.9956 22.3882C14.0521 22.3882 14.0956 22.398 14.1085 22.401C14.1274 22.4053 14.1425 22.4099 14.151 22.4127C14.1684 22.4182 14.1824 22.4237 14.1895 22.4266C14.2049 22.4327 14.2194 22.4392 14.2296 22.4439C14.2515 22.4539 14.2782 22.4667 14.3072 22.481C14.3663 22.51 14.4486 22.5516 14.5504 22.6036C14.7545 22.708 15.0442 22.8583 15.3974 23.043C16.1043 23.4126 17.0697 23.9221 18.1232 24.4823C19.5033 25.216 20.4745 25.7248 21.123 26.0524C21.4479 26.2165 21.6869 26.3327 21.8536 26.4082C21.9374 26.4462 21.9974 26.4714 22.0379 26.4867C22.045 26.4894 22.0509 26.4915 22.0557 26.4933C22.1022 26.4931 22.1793 26.4802 22.2669 26.4416C22.3144 26.4207 22.3546 26.3965 22.3847 26.3736C22.4148 26.3505 22.4257 26.3354 22.4263 26.3346L22.4263 26.3346C22.484 26.2455 22.4846 26.2407 22.4859 26.2312C22.486 26.23 22.4862 26.2288 22.4865 26.2273C22.4948 26.1838 22.5024 26.0733 22.4705 25.7737C22.4081 25.1899 22.2224 24.0939 21.8403 21.8391L21.8269 21.7598L21.0871 17.3941L21.0447 17.1442L21.2212 16.9623L21.5762 16.5964L21.5762 16.5964C21.7765 16.39 23.186 14.9938 24.7032 13.4985C25.4621 12.7506 26.1611 12.0524 26.6756 11.5302C26.9332 11.2689 27.1431 11.0531 27.2908 10.8978C27.365 10.8198 27.4213 10.7594 27.4592 10.7172C27.4652 10.7106 27.4704 10.7047 27.4749 10.6996C27.5047 10.6186 27.5118 10.5036 27.4755 10.3775C27.4387 10.2499 27.371 10.1572 27.3037 10.1065C27.3018 10.1059 27.2997 10.1054 27.2976 10.1048C27.2568 10.0942 27.1938 10.0799 27.1039 10.0617C26.9249 10.0257 26.6619 9.97883 26.3015 9.91945C25.5822 9.80091 24.494 9.63539 22.9571 9.40988C21.7697 9.23566 20.6853 9.0725 19.8945 8.94994C19.4994 8.8887 19.1763 8.8374 18.9499 8.79984C18.8372 8.78114 18.7459 8.76542 18.6809 8.75337C18.6491 8.74749 18.6191 8.74163 18.5944 8.73617C18.5831 8.73367 18.5655 8.72963 18.5468 8.72429C18.5383 8.72189 18.52 8.71652 18.4981 8.70805C18.4874 8.70392 18.4675 8.69583 18.4437 8.68331L18.4434 8.68315C18.4283 8.67517 18.3692 8.64402 18.3117 8.58285L18.3113 8.58237C18.2856 8.55499 18.2687 8.53046 18.2645 8.52433L18.2642 8.52399C18.2574 8.51416 18.2522 8.50594 18.2494 8.50128C18.2435 8.49176 18.2387 8.48348 18.2361 8.47883C18.2305 8.46884 18.2249 8.4584 18.2203 8.44962C18.2105 8.43124 18.1981 8.40713 18.1839 8.37899C18.1549 8.3221 18.1143 8.24099 18.0637 8.13914C17.9623 7.93506 17.8186 7.64339 17.6433 7.28606C17.2927 6.57118 16.8146 5.59129 16.2936 4.51881C15.7733 3.44769 15.2892 2.4612 14.9284 1.73492C14.7479 1.37158 14.5989 1.0745 14.4919 0.864877C14.4382 0.759757 14.3961 0.678607 14.3663 0.622779C14.3617 0.614144 14.3575 0.606376 14.3538 0.599432C14.3485 0.595429 14.3425 0.59108 14.336 0.586491C14.3034 0.563732 14.2737 0.547296 14.2585 0.540523ZM13.6309 0.610068C13.6309 0.610045 13.6309 0.610022 13.6309 0.609999C13.6309 0.610013 13.6309 0.610017 13.6309 0.610012L13.6309 0.610068ZM13.6685 0.559527C13.6713 0.555167 13.6728 0.55254 13.6729 0.552325C13.6729 0.552111 13.6715 0.554288 13.6685 0.559527ZM0.727129 10.0853L0.727005 10.0854L0.727129 10.0853ZM0.502651 10.6739C0.499565 10.6697 0.497601 10.6673 0.497253 10.667C0.49687 10.6666 0.498447 10.6688 0.502651 10.6739ZM5.95513 26.5104C5.95439 26.5107 5.95655 26.51 5.96225 26.5076C5.95822 26.5091 5.95573 26.5101 5.95513 26.5104ZM22.0338 26.4922L22.0339 26.4922L22.0338 26.4922ZM27.5022 10.6673C27.502 10.6674 27.5001 10.6697 27.497 10.6739C27.5008 10.6692 27.5024 10.6671 27.5022 10.6673ZM27.3302 10.1141C27.3316 10.1146 27.3323 10.1149 27.3324 10.1149L27.3302 10.1141ZM14.3273 0.552392C14.3273 0.552614 14.3289 0.555238 14.3316 0.559588C14.3286 0.554345 14.3272 0.55217 14.3273 0.552392Z" stroke="#25C16F"/>
</svg>
