<svg width="86" height="104" viewBox="0 0 86 104" fill="none" xmlns="http://www.w3.org/2000/svg">
<g clip-path="url(#clip0_3064_1316)">
<g filter="url(#filter0_f_3064_1316)">
<circle cx="52.0427" cy="51.8176" r="27.0115" fill="#FA9D7C" fill-opacity="0.5"/>
</g>
<g filter="url(#filter1_dii_3064_1316)">
<circle cx="48.0115" cy="51.0115" r="27.0115" fill="#FA9D7C"/>
</g>
<g clip-path="url(#clip1_3064_1316)">
<path d="M54.8653 44.6113C53.3326 43.3374 51.3645 42.5703 49.2205 42.5703C47.0765 42.5703 45.1083 43.3374 43.5757 44.6113H54.8653ZM43.5757 58.2178C45.1083 59.4917 47.0765 60.2588 49.2205 60.2588C51.3645 60.2588 53.3326 59.4917 54.8653 58.2178H43.5757Z" fill="white"/>
<path d="M57.2703 58.2178C55.3344 60.5048 52.4444 61.9596 49.2204 61.9596C45.9965 61.9596 43.1063 60.5048 41.1705 58.2178H36.3979C38.8366 62.8045 43.6634 65.9282 49.2204 65.9282C54.7774 65.9282 59.6042 62.8045 62.0429 58.2178H57.2703ZM41.1705 44.6112C43.1063 42.3242 45.9965 40.8695 49.2204 40.8695C52.4444 40.8695 55.3345 42.3242 57.2703 44.6112H62.0429C59.6042 40.0245 54.7774 36.9009 49.2204 36.9009C43.6634 36.9009 38.8366 40.0245 36.3979 44.6112H41.1705Z" fill="white"/>
<path d="M44.6852 53.1155C45.6245 53.1155 46.386 52.354 46.386 51.4147C46.386 50.4753 45.6245 49.7139 44.6852 49.7139C43.7459 49.7139 42.9844 50.4753 42.9844 51.4147C42.9844 52.354 43.7459 53.1155 44.6852 53.1155Z" fill="white"/>
<path d="M58.7325 49.7139C58.3502 49.7139 58.0392 50.0248 58.0392 50.4071V52.4223C58.0392 52.8045 58.3502 53.1155 58.7325 53.1155C59.1147 53.1155 59.4256 52.8045 59.4256 52.4223V50.4071C59.4256 50.0248 59.1147 49.7139 58.7325 49.7139ZM50.2001 49.7139H49.5059C49.5067 49.9879 49.5073 50.2868 49.5073 50.4268C49.5073 50.5909 49.5085 50.8801 49.5099 51.1423C49.7631 51.1411 50.04 51.1399 50.2001 51.1399C50.6002 51.1399 50.9382 50.8134 50.9382 50.4269C50.9382 50.0404 50.6002 49.7139 50.2001 49.7139Z" fill="white"/>
<path d="M62.8839 46.312H35.5574C35.0878 46.312 34.707 46.6928 34.707 47.1624V55.6665C34.707 56.1362 35.0878 56.5169 35.5574 56.5169H62.8839C63.3535 56.5169 63.7343 56.1362 63.7343 55.6665V47.1624C63.7343 46.6928 63.3535 46.312 62.8839 46.312ZM40.9536 49.7136H40.2631V53.6822C40.2631 53.9953 40.0092 54.2492 39.6962 54.2492C39.3831 54.2492 39.1292 53.9953 39.1292 53.6822V49.7136H38.4488C38.1358 49.7136 37.8819 49.4598 37.8819 49.1467C37.8819 48.8336 38.1358 48.5798 38.4488 48.5798H40.9536C41.2667 48.5798 41.5206 48.8336 41.5206 49.1467C41.5206 49.4598 41.2667 49.7136 40.9536 49.7136ZM44.6852 54.2492C43.1221 54.2492 41.8505 52.9775 41.8505 51.4145C41.8505 49.8514 43.1221 48.5798 44.6852 48.5798C46.2482 48.5798 47.5199 49.8514 47.5199 51.4145C47.5199 52.9775 46.2482 54.2492 44.6852 54.2492ZM50.2001 52.2735C50.0394 52.2735 49.7588 52.2747 49.5041 52.276V53.6822C49.5041 53.9953 49.2503 54.2492 48.9372 54.2492C48.6241 54.2492 48.3703 53.9953 48.3703 53.6822V49.1485C48.37 49.0739 48.3845 49 48.4129 48.931C48.4413 48.862 48.483 48.7993 48.5357 48.7465C48.5884 48.6937 48.6509 48.6517 48.7198 48.6231C48.7887 48.5945 48.8626 48.5798 48.9372 48.5798H50.2001C51.2322 48.5798 52.072 49.4083 52.072 50.4267C52.072 51.445 51.2322 52.2735 50.2001 52.2735ZM56.0239 53.6822C56.0239 53.9953 55.7701 54.2492 55.457 54.2492C55.1439 54.2492 54.8901 53.9953 54.8901 53.6822V49.7136H54.4875C54.1745 49.7136 53.9206 49.4598 53.9206 49.1467C53.9206 48.8336 54.1745 48.5798 54.4875 48.5798H55.457C55.7701 48.5798 56.0239 48.8336 56.0239 49.1467V53.6822ZM60.5594 52.4221C60.5594 53.4295 59.7398 54.2492 58.7324 54.2492C57.7249 54.2492 56.9052 53.4295 56.9052 52.4221V50.4068C56.9052 49.3994 57.7249 48.5798 58.7324 48.5798C59.7398 48.5798 60.5594 49.3994 60.5594 50.4068V52.4221Z" fill="white"/>
</g>
</g>
<defs>
<filter id="filter0_f_3064_1316" x="0.841856" y="0.616758" width="102.402" height="102.402" filterUnits="userSpaceOnUse" color-interpolation-filters="sRGB">
<feFlood flood-opacity="0" result="BackgroundImageFix"/>
<feBlend mode="normal" in="SourceGraphic" in2="BackgroundImageFix" result="shape"/>
<feGaussianBlur stdDeviation="12.0947" result="effect1_foregroundBlur_3064_1316"/>
</filter>
<filter id="filter1_dii_3064_1316" x="8.09899" y="19.1621" width="79.825" height="79.825" filterUnits="userSpaceOnUse" color-interpolation-filters="sRGB">
<feFlood flood-opacity="0" result="BackgroundImageFix"/>
<feColorMatrix in="SourceAlpha" type="matrix" values="0 0 0 0 0 0 0 0 0 0 0 0 0 0 0 0 0 0 127 0" result="hardAlpha"/>
<feMorphology radius="3.22525" operator="erode" in="SourceAlpha" result="effect1_dropShadow_3064_1316"/>
<feOffset dy="8.06313"/>
<feGaussianBlur stdDeviation="8.06313"/>
<feColorMatrix type="matrix" values="0 0 0 0 0.916051 0 0 0 0 0.921023 0 0 0 0 0.927984 0 0 0 1 0"/>
<feBlend mode="multiply" in2="BackgroundImageFix" result="effect1_dropShadow_3064_1316"/>
<feBlend mode="normal" in="SourceGraphic" in2="effect1_dropShadow_3064_1316" result="shape"/>
<feColorMatrix in="SourceAlpha" type="matrix" values="0 0 0 0 0 0 0 0 0 0 0 0 0 0 0 0 0 0 127 0" result="hardAlpha"/>
<feOffset/>
<feGaussianBlur stdDeviation="1.61263"/>
<feComposite in2="hardAlpha" operator="arithmetic" k2="-1" k3="1"/>
<feColorMatrix type="matrix" values="0 0 0 0 0.625417 0 0 0 0 0.631402 0 0 0 0 0.658333 0 0 0 1 0"/>
<feBlend mode="color-burn" in2="shape" result="effect2_innerShadow_3064_1316"/>
<feColorMatrix in="SourceAlpha" type="matrix" values="0 0 0 0 0 0 0 0 0 0 0 0 0 0 0 0 0 0 127 0" result="hardAlpha"/>
<feOffset dx="1.61263" dy="1.61263"/>
<feGaussianBlur stdDeviation="0.806313"/>
<feComposite in2="hardAlpha" operator="arithmetic" k2="-1" k3="1"/>
<feColorMatrix type="matrix" values="0 0 0 0 1 0 0 0 0 1 0 0 0 0 1 0 0 0 0.3 0"/>
<feBlend mode="normal" in2="effect2_innerShadow_3064_1316" result="effect3_innerShadow_3064_1316"/>
</filter>
<clipPath id="clip0_3064_1316">
<rect width="104" height="104" fill="white"/>
</clipPath>
<clipPath id="clip1_3064_1316">
<rect width="29.0273" height="29.0273" fill="white" transform="translate(34.707 36.9009)"/>
</clipPath>
</defs>
</svg>
