<svg width="127" height="127" viewBox="0 0 127 127" fill="none" xmlns="http://www.w3.org/2000/svg">
<g opacity="0.5" filter="url(#filter0_f_2255_12681)">
<circle cx="63.5" cy="63.5" r="33.5" fill="#FA9D7C"/>
</g>
<g filter="url(#filter1_dii_2255_12681)">
<circle cx="58.5" cy="62.5" r="33.5" fill="#FA9D7C"/>
</g>
<path d="M48 47H68C69.3261 47 70.5979 47.4457 71.5355 48.2391C72.4732 49.0324 73 50.1084 73 51.2304V68.7717L66.175 62.9972C65.9181 62.7805 65.6085 62.6136 65.2677 62.5082C64.9269 62.4029 64.5631 62.3615 64.2015 62.3871C63.8399 62.4126 63.4892 62.5045 63.1738 62.6562C62.8584 62.808 62.5858 63.016 62.375 63.2659L57.6525 68.8584L53.23 66.6121C52.7519 66.3691 52.1915 66.2683 51.6379 66.3258C51.0844 66.3833 50.5694 66.5958 50.175 66.9294L43 73V51.2304C43 50.1084 43.5268 49.0324 44.4645 48.2391C45.4021 47.4457 46.6739 47 48 47V47ZM58.005 58.6336C58.005 58.2169 57.908 57.8043 57.7195 57.4194C57.5311 57.0345 57.2549 56.6847 56.9067 56.3901C56.5584 56.0955 56.145 55.8618 55.6901 55.7023C55.2351 55.5429 54.7475 55.4608 54.255 55.4608C53.7625 55.4608 53.2749 55.5429 52.8199 55.7023C52.365 55.8618 51.9516 56.0955 51.6033 56.3901C51.2551 56.6847 50.9789 57.0345 50.7905 57.4194C50.602 57.8043 50.505 58.2169 50.505 58.6336C50.505 59.4751 50.9001 60.2821 51.6033 60.8771C52.3066 61.4721 53.2604 61.8064 54.255 61.8064C55.2496 61.8064 56.2034 61.4721 56.9067 60.8771C57.6099 60.2821 58.005 59.4751 58.005 58.6336V58.6336Z" fill="white"/>
<path d="M64.41 65L73 72.1162V76.8603C73 77.9582 72.4732 79.0112 71.5355 79.7875C70.5979 80.5639 69.3261 81 68 81H48C46.6739 81 45.4021 80.5639 44.4645 79.7875C43.5268 79.0112 43 77.9582 43 76.8603V76.2538L51.945 68.8499L58.345 72.0292L64.41 65.0021V65Z" fill="white"/>
<defs>
<filter id="filter0_f_2255_12681" x="0" y="0" width="127" height="127" filterUnits="userSpaceOnUse" color-interpolation-filters="sRGB">
<feFlood flood-opacity="0" result="BackgroundImageFix"/>
<feBlend mode="normal" in="SourceGraphic" in2="BackgroundImageFix" result="shape"/>
<feGaussianBlur stdDeviation="15" result="effect1_foregroundBlur_2255_12681"/>
</filter>
<filter id="filter1_dii_2255_12681" x="9" y="23" width="99" height="99" filterUnits="userSpaceOnUse" color-interpolation-filters="sRGB">
<feFlood flood-opacity="0" result="BackgroundImageFix"/>
<feColorMatrix in="SourceAlpha" type="matrix" values="0 0 0 0 0 0 0 0 0 0 0 0 0 0 0 0 0 0 127 0" result="hardAlpha"/>
<feMorphology radius="4" operator="erode" in="SourceAlpha" result="effect1_dropShadow_2255_12681"/>
<feOffset dy="10"/>
<feGaussianBlur stdDeviation="10"/>
<feColorMatrix type="matrix" values="0 0 0 0 0.916051 0 0 0 0 0.921023 0 0 0 0 0.927984 0 0 0 1 0"/>
<feBlend mode="multiply" in2="BackgroundImageFix" result="effect1_dropShadow_2255_12681"/>
<feBlend mode="normal" in="SourceGraphic" in2="effect1_dropShadow_2255_12681" result="shape"/>
<feColorMatrix in="SourceAlpha" type="matrix" values="0 0 0 0 0 0 0 0 0 0 0 0 0 0 0 0 0 0 127 0" result="hardAlpha"/>
<feOffset/>
<feGaussianBlur stdDeviation="2"/>
<feComposite in2="hardAlpha" operator="arithmetic" k2="-1" k3="1"/>
<feColorMatrix type="matrix" values="0 0 0 0 0.625417 0 0 0 0 0.631402 0 0 0 0 0.658333 0 0 0 1 0"/>
<feBlend mode="color-burn" in2="shape" result="effect2_innerShadow_2255_12681"/>
<feColorMatrix in="SourceAlpha" type="matrix" values="0 0 0 0 0 0 0 0 0 0 0 0 0 0 0 0 0 0 127 0" result="hardAlpha"/>
<feOffset dx="2" dy="2"/>
<feGaussianBlur stdDeviation="1"/>
<feComposite in2="hardAlpha" operator="arithmetic" k2="-1" k3="1"/>
<feColorMatrix type="matrix" values="0 0 0 0 1 0 0 0 0 1 0 0 0 0 1 0 0 0 0.3 0"/>
<feBlend mode="normal" in2="effect2_innerShadow_2255_12681" result="effect3_innerShadow_2255_12681"/>
</filter>
</defs>
</svg>
