<svg width="20" height="20" viewBox="0 0 20 20" fill="none" xmlns="http://www.w3.org/2000/svg">
<path fill-rule="evenodd" clip-rule="evenodd" d="M4 10C4 9.82321 4.07084 9.65367 4.19693 9.52866C4.32302 9.40366 4.49404 9.33343 4.67236 9.33343H14.7034L10.4715 5.13935C10.409 5.07737 10.3594 5.0038 10.3256 4.92282C10.2917 4.84185 10.2743 4.75506 10.2743 4.66742C10.2743 4.57977 10.2917 4.49298 10.3256 4.41201C10.3594 4.33103 10.409 4.25746 10.4715 4.19548C10.534 4.13351 10.6082 4.08434 10.6899 4.0508C10.7716 4.01726 10.8591 4 10.9475 4C11.0359 4 11.1235 4.01726 11.2052 4.0508C11.2868 4.08434 11.3611 4.13351 11.4236 4.19548L16.8025 9.52807C16.8651 9.58999 16.9148 9.66354 16.9487 9.74452C16.9826 9.82551 17 9.91232 17 10C17 10.0877 16.9826 10.1745 16.9487 10.2555C16.9148 10.3365 16.8651 10.41 16.8025 10.4719L11.4236 15.8045C11.3611 15.8665 11.2868 15.9157 11.2052 15.9492C11.1235 15.9827 11.0359 16 10.9475 16C10.8591 16 10.7716 15.9827 10.6899 15.9492C10.6082 15.9157 10.534 15.8665 10.4715 15.8045C10.409 15.7425 10.3594 15.669 10.3256 15.588C10.2917 15.507 10.2743 15.4202 10.2743 15.3326C10.2743 15.2449 10.2917 15.1582 10.3256 15.0772C10.3594 14.9962 10.409 14.9226 10.4715 14.8607L14.7034 10.6666H4.67236C4.49404 10.6666 4.32302 10.5963 4.19693 10.4713C4.07084 10.3463 4 10.1768 4 10Z" fill="#1F2133"/>
</svg>
