<svg width="20" height="20" viewBox="0 0 20 20" fill="none" xmlns="http://www.w3.org/2000/svg">
<path fill-rule="evenodd" clip-rule="evenodd" d="M17 10C17 9.82321 16.9292 9.65367 16.8031 9.52866C16.677 9.40366 16.506 9.33343 16.3276 9.33343H6.29665L10.5285 5.13935C10.591 5.07737 10.6406 5.0038 10.6744 4.92282C10.7083 4.84185 10.7257 4.75506 10.7257 4.66742C10.7257 4.57977 10.7083 4.49298 10.6744 4.41201C10.6406 4.33103 10.591 4.25746 10.5285 4.19548C10.466 4.13351 10.3918 4.08434 10.3101 4.0508C10.2284 4.01726 10.1409 4 10.0525 4C9.96405 4 9.87651 4.01726 9.79483 4.0508C9.71315 4.08434 9.63894 4.13351 9.57643 4.19548L4.19753 9.52807C4.13492 9.58999 4.08524 9.66354 4.05134 9.74452C4.01745 9.82551 4 9.91232 4 10C4 10.0877 4.01745 10.1745 4.05134 10.2555C4.08524 10.3365 4.13492 10.41 4.19753 10.4719L9.57643 15.8045C9.63894 15.8665 9.71315 15.9157 9.79483 15.9492C9.87651 15.9827 9.96405 16 10.0525 16C10.1409 16 10.2284 15.9827 10.3101 15.9492C10.3918 15.9157 10.466 15.8665 10.5285 15.8045C10.591 15.7425 10.6406 15.669 10.6744 15.588C10.7083 15.507 10.7257 15.4202 10.7257 15.3326C10.7257 15.2449 10.7083 15.1582 10.6744 15.0772C10.6406 14.9962 10.591 14.9226 10.5285 14.8607L6.29665 10.6666H16.3276C16.506 10.6666 16.677 10.5963 16.8031 10.4713C16.9292 10.3463 17 10.1768 17 10Z" fill="#1F2133"/>
</svg>
