<svg width="20" height="20" viewBox="0 0 20 20" fill="none" xmlns="http://www.w3.org/2000/svg">
<path fill-rule="evenodd" clip-rule="evenodd" d="M9.50865 0.5C9.78479 0.5 10.0086 0.723858 10.0086 1V2.51904C11.3745 2.62329 12.6696 3.15249 13.6592 4.03218C14.7709 5.02034 15.4086 6.37407 15.4086 7.8C15.4086 9.69047 15.8351 11.0839 16.3723 12.093L16.377 12.1018C16.7418 12.7871 17.0208 13.3114 17.2058 13.6839C17.2982 13.8701 17.3729 14.0297 17.424 14.1584C17.4494 14.2224 17.4731 14.2891 17.49 14.3538C17.5036 14.4062 17.5277 14.5106 17.5124 14.6285C17.4994 14.7288 17.4768 14.8776 17.39 15.0221C17.3033 15.1666 17.1826 15.2564 17.1001 15.315C17.0133 15.3768 16.923 15.4057 16.8678 15.4207C16.8056 15.4375 16.7406 15.4486 16.6788 15.4567C16.5554 15.4729 16.4027 15.4822 16.2282 15.4882C15.8799 15.5 15.3879 15.5 14.7506 15.5H4.26668C3.62939 15.5 3.13744 15.5 2.7891 15.4882C2.61461 15.4822 2.46192 15.4729 2.33846 15.4567C2.27672 15.4486 2.21168 15.4375 2.14946 15.4207C2.09433 15.4057 2.00404 15.3768 1.91722 15.315C1.83473 15.2564 1.71402 15.1666 1.62726 15.0221C1.5405 14.8776 1.5179 14.7288 1.5049 14.6285C1.48962 14.5106 1.51373 14.4062 1.52734 14.3538C1.54415 14.2891 1.5679 14.2224 1.59331 14.1584C1.64437 14.0297 1.71906 13.8701 1.81151 13.6839C1.99645 13.3114 2.27554 12.7871 2.64031 12.1018L2.64502 12.093C3.18215 11.0839 3.60865 9.69047 3.60865 7.8C3.60865 6.37407 4.24641 5.02034 5.35809 4.03218C6.34774 3.15249 7.6428 2.62329 9.00865 2.51904V1C9.00865 0.723858 9.2325 0.5 9.50865 0.5ZM9.50865 3.5C8.19132 3.5 6.93808 3.9657 6.02245 4.77959C5.10874 5.59178 4.60865 6.67985 4.60865 7.8C4.60865 9.84765 4.14496 11.4033 3.52775 12.5628C3.1574 13.2586 2.88503 13.7704 2.70718 14.1286C2.63444 14.2751 2.58132 14.3883 2.54502 14.4734C2.615 14.4796 2.70634 14.4848 2.82309 14.4887C3.15228 14.4999 3.62713 14.5 4.27842 14.5H14.7389C15.3902 14.5 15.865 14.4999 16.1942 14.4887C16.311 14.4848 16.4023 14.4796 16.4723 14.4734C16.436 14.3883 16.3829 14.2751 16.3101 14.1286C16.1323 13.7704 15.8599 13.2586 15.4895 12.5628C14.8723 11.4033 14.4086 9.84765 14.4086 7.8C14.4086 6.67985 13.9086 5.59178 12.9948 4.77959C12.0792 3.9657 10.826 3.5 9.50865 3.5ZM16.5221 14.6053C16.524 14.6126 16.5232 14.6116 16.5218 14.6041ZM16.6049 14.4558C16.607 14.4552 16.6081 14.4549 16.6079 14.455C16.6078 14.455 16.6073 14.4552 16.6064 14.4554M2.41091 14.4554C2.40834 14.4547 2.40906 14.4548 2.41245 14.4558ZM2.4955 14.6041C2.49408 14.6116 2.4933 14.6126 2.4952 14.6053ZM6.48778 17.6691C6.67051 17.4621 6.98648 17.4424 7.19352 17.6251C7.81192 18.1709 8.62307 18.5016 9.51265 18.5016C10.4022 18.5016 11.2134 18.1709 11.8318 17.6251C12.0388 17.4424 12.3548 17.4621 12.5375 17.6691C12.7203 17.8762 12.7006 18.1921 12.4935 18.3749C11.6994 19.0757 10.6552 19.5016 9.51265 19.5016C8.37014 19.5016 7.32587 19.0757 6.53178 18.3749C6.32475 18.1921 6.30505 17.8762 6.48778 17.6691Z" fill="#6366F1"/>
</svg>
