<svg width="20" height="20" viewBox="0 0 20 20" fill="none" xmlns="http://www.w3.org/2000/svg">
<g clip-path="url(#clip0_2215_19244)">
<mask id="mask0_2215_19244" style="mask-type:luminance" maskUnits="userSpaceOnUse" x="0" y="0" width="20" height="20">
<path d="M20 0H0V20H20V0Z" fill="white"/>
</mask>
<g mask="url(#mask0_2215_19244)">
<path fill-rule="evenodd" clip-rule="evenodd" d="M10 1.5C5.30558 1.5 1.5 5.30558 1.5 10C1.5 14.6945 5.30558 18.5 10 18.5C14.6945 18.5 18.5 14.6945 18.5 10C18.5 5.30558 14.6945 1.5 10 1.5ZM0.5 10C0.5 4.7533 4.7533 0.5 10 0.5C15.2467 0.5 19.5 4.7533 19.5 10C19.5 15.2467 15.2467 19.5 10 19.5C4.7533 19.5 0.5 15.2467 0.5 10ZM10 5.5C10.2761 5.5 10.5 5.72386 10.5 6V12.7929L12.6464 10.6464C12.8417 10.4512 13.1583 10.4512 13.3536 10.6464C13.5488 10.8417 13.5488 11.1583 13.3536 11.3536L10.3536 14.3536C10.1583 14.5488 9.84171 14.5488 9.64645 14.3536L6.64645 11.3536C6.45118 11.1583 6.45118 10.8417 6.64645 10.6464C6.84171 10.4512 7.15829 10.4512 7.35355 10.6464L9.5 12.7929V6C9.5 5.72386 9.72386 5.5 10 5.5Z" fill="black"/>
</g>
</g>
<defs>
<clipPath id="clip0_2215_19244">
<rect width="20" height="20" fill="white"/>
</clipPath>
</defs>
</svg>
