<svg width="11" height="11" viewBox="0 0 11 11" fill="none" xmlns="http://www.w3.org/2000/svg">
<g clip-path="url(#clip0_2215_19250)">
<path fill-rule="evenodd" clip-rule="evenodd" d="M0.292893 0.292893C0.683417 -0.0976311 1.31658 -0.0976311 1.70711 0.292893L5.5 4.08579L9.29289 0.292893C9.68342 -0.0976311 10.3166 -0.0976311 10.7071 0.292893C11.0976 0.683417 11.0976 1.31658 10.7071 1.70711L6.91421 5.5L10.7071 9.29289C11.0976 9.68342 11.0976 10.3166 10.7071 10.7071C10.3166 11.0976 9.68342 11.0976 9.29289 10.7071L5.5 6.91421L1.70711 10.7071C1.31658 11.0976 0.683417 11.0976 0.292893 10.7071C-0.0976311 10.3166 -0.0976311 9.68342 0.292893 9.29289L4.08579 5.5L0.292893 1.70711C-0.0976311 1.31658 -0.0976311 0.683417 0.292893 0.292893Z" fill="white"/>
</g>
<defs>
<clipPath id="clip0_2215_19250">
<rect width="11" height="11" fill="white"/>
</clipPath>
</defs>
</svg>
