<svg width="20" height="20" viewBox="0 0 20 20" fill="none" xmlns="http://www.w3.org/2000/svg">
<path fill-rule="evenodd" clip-rule="evenodd" d="M5.1786 0.5L10 0.5C10.1326 0.5 10.2598 0.552679 10.3536 0.646447L16.3536 6.64645C16.4473 6.74022 16.5 6.86739 16.5 7V9C16.5 9.27614 16.2761 9.5 16 9.5C15.7239 9.5 15.5 9.27614 15.5 9V7.5H11.5807C11.3171 7.50001 11.0897 7.50002 10.9025 7.48472C10.7048 7.46857 10.5082 7.43291 10.319 7.33653C10.0366 7.19266 9.80731 6.96316 9.66352 6.68104C9.56712 6.49185 9.53144 6.29519 9.51529 6.09752C9.49998 5.91023 9.49999 5.68284 9.5 5.41926V1.5H5.2C4.6317 1.5 4.23554 1.50039 3.92712 1.52559C3.62454 1.55031 3.45069 1.5964 3.31902 1.66349C3.03678 1.80729 2.8073 2.03676 2.6635 2.31901C2.59641 2.45068 2.55031 2.62454 2.52559 2.92712C2.50039 3.23554 2.5 3.6317 2.5 4.2V15.8C2.5 16.3683 2.50039 16.7645 2.52559 17.0729C2.55031 17.3755 2.5964 17.5493 2.66349 17.681C2.8073 17.9632 3.03678 18.1927 3.31897 18.3365C3.45064 18.4036 3.62454 18.4497 3.92712 18.4744C4.23554 18.4996 4.6317 18.5 5.2 18.5H11C11.2761 18.5 11.5 18.7239 11.5 19C11.5 19.2761 11.2761 19.5 11 19.5H5.17859C4.6367 19.5 4.19963 19.5 3.84569 19.4711C3.48126 19.4413 3.16116 19.3784 2.86501 19.2275C2.86499 19.2275 2.86503 19.2275 2.86501 19.2275C2.39457 18.9878 2.01215 18.6053 1.77249 18.135C1.62159 17.8389 1.55868 17.5188 1.52891 17.1543C1.49999 16.8004 1.5 16.3633 1.5 15.8214V4.1786C1.5 3.63671 1.49999 3.19963 1.52891 2.84569C1.55868 2.48127 1.62159 2.16118 1.77248 1.86503C2.01216 1.39463 2.39461 1.01217 2.86502 0.772489M10.5 2.20711L14.7929 6.5H11.6C11.3117 6.5 11.1256 6.49961 10.9839 6.48804C10.8481 6.47694 10.7977 6.4581 10.773 6.44551C10.679 6.39761 10.6025 6.32114 10.5545 6.22694C10.5419 6.20221 10.5231 6.15184 10.512 6.01608C10.5004 5.87441 10.5 5.68828 10.5 5.4V2.20711ZM5.1786 0.5C4.63671 0.499995 4.19963 0.499991 3.84569 0.52891ZM3.84569 0.52891C3.48127 0.558684 3.16116 0.621597 2.86502 0.772489ZM15.5 17.7929V13C15.5 12.7239 15.7239 12.5 16 12.5C16.2761 12.5 16.5 12.7239 16.5 13V17.7929L17.6464 16.6464C17.8417 16.4512 18.1583 16.4512 18.3536 16.6464C18.5488 16.8417 18.5488 17.1583 18.3536 17.3536L16.3536 19.3536C16.1583 19.5488 15.8417 19.5488 15.6464 19.3536L13.6464 17.3536C13.4512 17.1583 13.4512 16.8417 13.6464 16.6464C13.8417 16.4512 14.1583 16.4512 14.3536 16.6464L15.5 17.7929Z" fill="#25C16F"/>
</svg>
