<svg width="20" height="20" viewBox="0 0 20 20" fill="none" xmlns="http://www.w3.org/2000/svg">
<g clip-path="url(#clip0_2215_19256)">
<mask id="mask0_2215_19256" style="mask-type:luminance" maskUnits="userSpaceOnUse" x="0" y="0" width="20" height="20">
<path d="M20 0H0V20H20V0Z" fill="white"/>
</mask>
<g mask="url(#mask0_2215_19256)">
<path fill-rule="evenodd" clip-rule="evenodd" d="M10 1.5C5.30558 1.5 1.5 5.30558 1.5 10C1.5 14.6945 5.30558 18.5 10 18.5C14.6945 18.5 18.5 14.6945 18.5 10C18.5 5.30558 14.6945 1.5 10 1.5ZM0.5 10C0.5 4.7533 4.7533 0.5 10 0.5C15.2467 0.5 19.5 4.7533 19.5 10C19.5 15.2467 15.2467 19.5 10 19.5C4.7533 19.5 0.5 15.2467 0.5 10ZM9.5 6C9.5 5.72386 9.72386 5.5 10 5.5H10.01C10.2861 5.5 10.51 5.72386 10.51 6C10.51 6.27614 10.2861 6.5 10.01 6.5H10C9.72386 6.5 9.5 6.27614 9.5 6ZM10 8.5C10.2761 8.5 10.5 8.72386 10.5 9V14C10.5 14.2761 10.2761 14.5 10 14.5C9.72386 14.5 9.5 14.2761 9.5 14V9C9.5 8.72386 9.72386 8.5 10 8.5Z" fill="#9397AD"/>
</g>
</g>
<defs>
<clipPath id="clip0_2215_19256">
<rect width="20" height="20" fill="white"/>
</clipPath>
</defs>
</svg>
