<svg width="20" height="20" viewBox="0 0 20 20" fill="none" xmlns="http://www.w3.org/2000/svg">
<path d="M13.5314 3H7.46858C5.0046 3 3 5.0046 3 7.46858V13.5314C3 15.9954 5.0046 18 7.46858 18H13.5314C15.9954 18 18 15.9954 18 13.5314V7.46858C18 5.0046 15.9954 3 13.5314 3ZM16.491 13.5314C16.491 15.1659 15.1659 16.491 13.5314 16.491H7.46858C5.83406 16.491 4.509 15.1659 4.509 13.5314V7.46858C4.509 5.83404 5.83406 4.509 7.46858 4.509H13.5314C15.1659 4.509 16.491 5.83404 16.491 7.46858V13.5314Z" fill="#565973"/>
<path d="M10 7C7.7944 7 6 8.7944 6 11C6 13.2056 7.7944 15 10 15C12.2056 15 14 13.2056 14 11C14 8.79437 12.2056 7 10 7ZM10 13.4442C8.65013 13.4442 7.55586 12.3499 7.55586 11C7.55586 9.65014 8.65015 8.55586 10 8.55586C11.3499 8.55586 12.4441 9.65014 12.4441 11C12.4441 12.3499 11.3498 13.4442 10 13.4442Z" fill="#565973"/>
<path d="M14 8C14.5523 8 15 7.55228 15 7C15 6.44772 14.5523 6 14 6C13.4477 6 13 6.44772 13 7C13 7.55228 13.4477 8 14 8Z" fill="#565973"/>
</svg>
