<svg width="20" height="21" viewBox="0 0 20 21" fill="none" xmlns="http://www.w3.org/2000/svg">
<g clip-path="url(#clip0_2215_19786)">
<path fill-rule="evenodd" clip-rule="evenodd" d="M13.7922 2.47752C15.0993 1.17053 17.2131 1.17644 18.5184 2.48162C19.8236 3.78677 19.8295 5.90027 18.5223 7.20724L7.95844 17.7698C6.94898 18.7792 5.31239 19.5263 3.93048 19.9755C3.23113 20.2028 2.57185 20.362 2.05487 20.4414C1.79834 20.4808 1.56202 20.5029 1.36667 20.4997C1.26979 20.4981 1.16704 20.4902 1.06985 20.4684C0.986217 20.4496 0.836713 20.406 0.71416 20.2834C0.589614 20.1589 0.546844 20.0065 0.528828 19.9228C0.507752 19.825 0.500752 19.7215 0.500058 19.6241C0.498657 19.4276 0.522931 19.1897 0.564545 18.9314C0.648418 18.4109 0.812793 17.7472 1.04346 17.0452C1.49877 15.6596 2.24592 14.0223 3.22844 13.04L11.4233 4.84617L11.0356 4.45845C11.0356 4.45844 11.0356 4.45846 11.0356 4.45845C10.6315 4.05441 10.3494 3.77287 10.112 3.5714C9.87911 3.37371 9.72238 3.28261 9.58051 3.23652C9.27695 3.1379 8.94994 3.1379 8.64637 3.23652C8.50451 3.28261 8.34778 3.37371 8.11488 3.5714C7.87752 3.77288 7.59543 4.05439 7.19132 4.45845L5.44415 6.20541C5.24887 6.40066 4.93229 6.40064 4.73704 6.20536C4.54179 6.01009 4.54181 5.69351 4.73708 5.49826L6.49941 3.73615C6.88483 3.35077 7.19558 3.04005 7.46775 2.80902C7.74795 2.57118 8.01999 2.38857 8.33739 2.28545C8.84178 2.12159 9.38511 2.12159 9.8895 2.28545C10.2069 2.38857 10.4789 2.57118 10.7591 2.80902C11.0313 3.04005 11.3421 3.35077 11.7275 3.73615L11.7426 3.7513L12.1304 4.13911L13.7922 2.47752ZM12.4729 5.21076C12.4767 5.20722 12.4804 5.20361 12.4841 5.19994C12.4878 5.19627 12.4914 5.19255 12.4949 5.1888L14.4993 3.18467C15.414 2.27 16.8947 2.2722 17.8113 3.18875C18.7278 4.10522 18.73 5.58549 17.8153 6.50008L12.1307 12.184L8.81477 8.86846L12.4729 5.21076ZM8.10762 9.57553L3.93548 13.7471C3.12322 14.5592 2.4355 16.0123 1.99348 17.3574C1.77549 18.0208 1.6256 18.6325 1.55181 19.0905C1.52556 19.2534 1.51016 19.3895 1.50366 19.4972C1.60953 19.4916 1.74318 19.4775 1.90308 19.453C2.35611 19.3834 2.96206 19.2388 3.62135 19.0245C4.95669 18.5904 6.41096 17.903 7.25138 17.0627L11.4235 12.891L8.10762 9.57553ZM1.28889 19.4927C1.28371 19.4915 1.28497 19.4913 1.29105 19.4931C1.29016 19.4929 1.28944 19.4928 1.28889 19.4927ZM1.50598 19.7101C1.50778 19.7164 1.50758 19.7177 1.50642 19.7123C1.5063 19.7118 1.50615 19.711 1.50598 19.7101Z" fill="black"/>
</g>
<defs>
<clipPath id="clip0_2215_19786">
<rect width="20" height="20" fill="white" transform="translate(0 0.5)"/>
</clipPath>
</defs>
</svg>
