<svg width="20" height="20" viewBox="0 0 20 20" fill="none" xmlns="http://www.w3.org/2000/svg">
<g clip-path="url(#clip0_2215_19796)">
<path fill-rule="evenodd" clip-rule="evenodd" d="M15.8235 0.5C16.0997 0.5 16.3235 0.723858 16.3235 1V3.67647H19C19.2761 3.67647 19.5 3.90033 19.5 4.17647C19.5 4.45261 19.2761 4.67647 19 4.67647H16.3235V7.35294C16.3235 7.62908 16.0997 7.85294 15.8235 7.85294C15.5474 7.85294 15.3235 7.62908 15.3235 7.35294V4.67647H12.6471C12.3709 4.67647 12.1471 4.45261 12.1471 4.17647C12.1471 3.90033 12.3709 3.67647 12.6471 3.67647H15.3235V1C15.3235 0.723858 15.5474 0.5 15.8235 0.5ZM4.3667 1.55882L8.41177 1.55882C8.68791 1.55882 8.91177 1.78268 8.91177 2.05882C8.91177 2.33497 8.68791 2.55882 8.41177 2.55882H4.38824C3.78699 2.55882 3.36612 2.55921 3.03809 2.58601C2.71588 2.61234 2.52751 2.66163 2.38325 2.73514C2.07887 2.89023 1.8314 3.13769 1.67631 3.44207C1.60281 3.58634 1.55352 3.77471 1.52719 4.09691C1.50039 4.42495 1.5 4.84581 1.5 5.44706V15.6118C1.5 15.7471 1.50003 15.8732 1.50038 15.9911L4.92644 12.5404L4.94169 12.5253C5.34666 12.1237 5.67211 11.801 5.95681 11.5612C6.24959 11.3146 6.53179 11.1269 6.85959 11.021C7.38276 10.852 7.94587 10.852 8.46904 11.021C8.79684 11.1269 9.07904 11.3146 9.37182 11.5612C9.65654 11.801 9.98202 12.1238 10.387 12.5254L11.8685 13.9945L11.8933 13.9699C12.3069 13.5598 12.639 13.2304 12.9293 12.9863C13.2276 12.7354 13.5152 12.545 13.849 12.4397C14.3812 12.2718 14.9531 12.2784 15.4813 12.4584C15.8126 12.5714 16.0957 12.7684 16.3882 13.026C16.6728 13.2768 16.9973 13.6137 17.4013 14.0333L17.4144 14.0469L17.4412 14.074V11.5882C17.4412 11.3121 17.665 11.0882 17.9412 11.0882C18.2173 11.0882 18.4412 11.3121 18.4412 11.5882V15.6333C18.4412 16.208 18.4412 16.6698 18.4107 17.0433C18.3793 17.4274 18.3132 17.762 18.1559 18.0707C17.9049 18.5633 17.5045 18.9637 17.0119 19.2147C16.7367 19.3549 16.4416 19.4225 16.1094 19.4578C15.7126 19.5 15.2149 19.5 14.5824 19.5H4.36669C3.79196 19.5 3.3302 19.5 2.95665 19.4695C2.57261 19.4381 2.23799 19.372 1.92926 19.2147C1.43672 18.9637 1.03627 18.5633 0.785308 18.0707C0.652198 17.8095 0.58461 17.5304 0.547838 17.2185C0.499977 16.8126 0.499987 16.3009 0.5 15.645L0.500001 5.42553C0.499996 4.85079 0.499992 4.38903 0.530513 4.01548C0.56189 3.63143 0.628002 3.29681 0.785307 2.98808C1.03627 2.49554 1.43672 2.09509 1.92926 1.84413C2.23799 1.68683 2.57261 1.62071 2.95665 1.58934C3.3302 1.55882 3.79197 1.55882 4.3667 1.55882ZM17.4412 15.4992L16.6961 14.7426C16.2735 14.3038 15.9773 13.9968 15.7271 13.7764C15.4813 13.5599 15.3131 13.4576 15.1586 13.4049C14.8322 13.2936 14.4787 13.2896 14.1499 13.3933C13.9942 13.4425 13.8236 13.5408 13.5729 13.7516C13.3178 13.9662 13.0146 14.2663 12.582 14.6953L12.574 14.7033L16.2354 18.4293C16.3711 18.4024 16.4724 18.3673 16.5579 18.3237C16.8623 18.1686 17.1098 17.9211 17.2649 17.6168C17.3384 17.4725 17.3877 17.2841 17.414 16.9619C17.4408 16.6339 17.4412 16.213 17.4412 15.6118V15.4992ZM14.9026 18.4997L11.5141 15.0514L9.69805 13.2505C9.27432 12.8303 8.97753 12.5365 8.72762 12.3261C8.48223 12.1194 8.31493 12.0221 8.16162 11.9726C7.83831 11.8682 7.49032 11.8682 7.16701 11.9726C7.0137 12.0221 6.8464 12.1194 6.60101 12.3261C6.35137 12.5363 6.05495 12.8297 5.63195 13.2492C5.6315 13.2496 5.63104 13.2501 5.63059 13.2505L1.57851 17.3317C1.60428 17.4489 1.63686 17.5393 1.67631 17.6168C1.8314 17.9211 2.07887 18.1686 2.38325 18.3237C2.52751 18.3972 2.71588 18.4465 3.03809 18.4728C3.36612 18.4996 3.78699 18.5 4.38824 18.5H14.5529C14.677 18.5 14.7933 18.5 14.9026 18.4997Z" fill="#9397AD"/>
</g>
<defs>
<clipPath id="clip0_2215_19796">
<rect width="20" height="20" fill="white"/>
</clipPath>
</defs>
</svg>
