<svg width="20" height="20" viewBox="0 0 20 20" fill="none" xmlns="http://www.w3.org/2000/svg">
<g clip-path="url(#clip0_2215_19284)">
<mask id="mask0_2215_19284" style="mask-type:luminance" maskUnits="userSpaceOnUse" x="0" y="0" width="20" height="20">
<path d="M20 0H0V20H20V0Z" fill="white"/>
</mask>
<g mask="url(#mask0_2215_19284)">
<path fill-rule="evenodd" clip-rule="evenodd" d="M1.5 8.2C1.5 3.92329 5.14378 0.5 9.58333 0.5C14.0229 0.5 17.6667 3.92328 17.6667 8.2C17.6667 10.3551 16.6377 12.2655 15.1852 14.0561C13.968 15.5568 12.4101 17.0232 10.8288 18.5118C10.5285 18.7945 10.2274 19.078 9.9276 19.3626C9.73464 19.5458 9.43201 19.5458 9.23906 19.3626C8.93927 19.078 8.63815 18.7945 8.33788 18.5118C6.75655 17.0233 5.19872 15.5568 3.98148 14.0561C2.52901 12.2655 1.5 10.3551 1.5 8.2ZM9.58333 1.5C5.64656 1.5 2.5 4.52381 2.5 8.2C2.5 10.0213 3.36683 11.7109 4.75811 13.4262C5.92906 14.8698 7.42797 16.2812 9.01032 17.7712C9.20026 17.9501 9.39141 18.1301 9.58333 18.3114C9.77527 18.1301 9.96643 17.9501 10.1564 17.7712C11.7387 16.2812 13.2376 14.8698 14.4086 13.4262C15.7999 11.7109 16.6667 10.0213 16.6667 8.2C16.6667 4.52382 13.5201 1.5 9.58333 1.5Z" fill="black"/>
<path d="M9.5 9C10.3284 9 11 8.32843 11 7.5C11 6.67157 10.3284 6 9.5 6C8.67157 6 8 6.67157 8 7.5C8 8.32843 8.67157 9 9.5 9Z" fill="black"/>
</g>
</g>
<defs>
<clipPath id="clip0_2215_19284">
<rect width="20" height="20" fill="white"/>
</clipPath>
</defs>
</svg>
