<svg width="20" height="20" viewBox="0 0 20 20" fill="none" xmlns="http://www.w3.org/2000/svg">
<g clip-path="url(#clip0_2215_19254)">
<path fill-rule="evenodd" clip-rule="evenodd" d="M10 1.75C5.44365 1.75 1.75 5.44365 1.75 10C1.75 14.5564 5.44365 18.25 10 18.25C14.5564 18.25 18.25 14.5564 18.25 10C18.25 5.44365 14.5564 1.75 10 1.75ZM0.25 10C0.25 4.61523 4.61523 0.25 10 0.25C15.3848 0.25 19.75 4.61523 19.75 10C19.75 15.3848 15.3848 19.75 10 19.75C4.61523 19.75 0.25 15.3848 0.25 10ZM7.30367 7.56306C7.60891 6.37713 8.68457 5.5 9.96699 5.5C11.4858 5.5 12.717 6.73122 12.717 8.25C12.717 9.08663 12.3136 9.6438 11.8628 10.0789C11.6774 10.2579 11.4659 10.4331 11.2678 10.5974C11.2385 10.6217 11.2096 10.6457 11.181 10.6694C10.9496 10.8619 10.7217 11.0559 10.4973 11.2803C10.2045 11.5732 9.72958 11.5732 9.43668 11.2803C9.14379 10.9874 9.14379 10.5126 9.43668 10.2197C9.71229 9.94406 9.98442 9.71365 10.2218 9.51623C10.2531 9.4902 10.2834 9.46497 10.313 9.44046C10.5164 9.27163 10.6796 9.13622 10.8212 8.99956C11.1204 8.71077 11.217 8.51794 11.217 8.25C11.217 7.55964 10.6574 7 9.96699 7C9.38557 7 8.89513 7.39765 8.75633 7.93694C8.65308 8.33808 8.2442 8.57957 7.84306 8.47633C7.44192 8.37308 7.20043 7.9642 7.30367 7.56306ZM9.21701 13.75C9.21701 13.3358 9.5528 13 9.96701 13H9.97701C10.3912 13 10.727 13.3358 10.727 13.75C10.727 14.1642 10.3912 14.5 9.97701 14.5H9.96701C9.5528 14.5 9.21701 14.1642 9.21701 13.75Z" fill="#6366F1"/>
</g>
<defs>
<clipPath id="clip0_2215_19254">
<rect width="20" height="20" fill="white"/>
</clipPath>
</defs>
</svg>
