<svg width="20" height="20" viewBox="0 0 20 20" fill="none" xmlns="http://www.w3.org/2000/svg">
<path fill-rule="evenodd" clip-rule="evenodd" d="M9.66667 5.75C6.93 5.75 4.75 7.89759 4.75 10.5C4.75 13.1024 6.93 15.25 9.66667 15.25C10.0809 15.25 10.4167 15.5858 10.4167 16C10.4167 16.4142 10.0809 16.75 9.66667 16.75C6.1441 16.75 3.25 13.9728 3.25 10.5C3.25 7.02727 6.1441 4.25 9.66667 4.25C13.1893 4.25 16.0833 7.02728 16.0833 10.5C16.0833 11.0232 16.0171 11.5317 15.8926 12.0177L16.7643 11.7292C17.1576 11.599 17.5819 11.8123 17.712 12.2055C17.8422 12.5988 17.6289 13.0231 17.2357 13.1532L14.5885 14.0294C14.2002 14.1581 13.7806 13.9519 13.645 13.5661L12.7422 10.9965C12.6049 10.6057 12.8104 10.1776 13.2012 10.0403C13.592 9.903 14.0201 10.1085 14.1574 10.4993L14.4874 11.4387C14.5503 11.1353 14.5833 10.8215 14.5833 10.5C14.5833 7.89758 12.4033 5.75 9.66667 5.75Z" fill="#9397AD"/>
</svg>
