<svg width="20" height="20" viewBox="0 0 20 20" fill="none" xmlns="http://www.w3.org/2000/svg">
<path d="M11.1699 15C6.04497 15 3.1218 11.6216 3 6H5.56715C5.65147 10.1261 7.54404 11.8739 9.0431 12.2342V6H11.4603V9.55856C12.9407 9.40541 14.4959 7.78378 15.0206 6H17.4379C17.2401 6.92512 16.846 7.80106 16.2802 8.57304C15.7143 9.34501 14.9889 9.99641 14.1493 10.4865C15.0865 10.9343 15.9143 11.5681 16.5781 12.3461C17.2418 13.1241 17.7265 14.0287 18 15H15.3392C15.0936 14.1563 14.5946 13.4011 13.9046 12.829C13.2146 12.2568 12.3643 11.8932 11.4603 11.7838V15H11.1699Z" fill="#565973"/>
</svg>
