<svg width="20" height="20" viewBox="0 0 20 20" fill="none" xmlns="http://www.w3.org/2000/svg">
<path d="M9.65605 2.96191H9.65255C5.79292 2.96191 2.6543 6.10141 2.6543 9.96191C2.6543 11.4932 3.1478 12.9124 3.98692 14.0648L3.11455 16.6653L5.80517 15.8052C6.91205 16.5384 8.23242 16.9619 9.65605 16.9619C13.5157 16.9619 16.6543 13.8215 16.6543 9.96191C16.6543 6.10229 13.5157 2.96191 9.65605 2.96191ZM13.7292 12.8468C13.5603 13.3237 12.89 13.7192 12.3554 13.8347C11.9897 13.9125 11.5119 13.9747 9.90367 13.3079C7.84655 12.4557 6.5218 10.3653 6.41855 10.2297C6.31967 10.094 5.5873 9.12279 5.5873 8.11829C5.5873 7.11379 6.09742 6.62466 6.30305 6.41466C6.47192 6.24229 6.75105 6.16354 7.0188 6.16354C7.10542 6.16354 7.1833 6.16791 7.2533 6.17141C7.45892 6.18016 7.56217 6.19241 7.6978 6.51704C7.86667 6.92391 8.27792 7.92841 8.32692 8.03166C8.3768 8.13491 8.42667 8.27491 8.35667 8.41054C8.29105 8.55054 8.2333 8.61266 8.13005 8.73166C8.0268 8.85066 7.9288 8.94166 7.82555 9.06941C7.73105 9.18054 7.6243 9.29954 7.7433 9.50516C7.8623 9.70641 8.27355 10.3775 8.87905 10.9165C9.66042 11.6122 10.2939 11.8344 10.5205 11.9289C10.6894 11.9989 10.8907 11.9823 11.014 11.851C11.1707 11.6822 11.364 11.4022 11.5609 11.1265C11.7009 10.9288 11.8777 10.9043 12.0632 10.9743C12.2522 11.0399 13.2523 11.5343 13.4579 11.6367C13.6635 11.7399 13.7992 11.7889 13.849 11.8755C13.898 11.9622 13.898 12.369 13.7292 12.8468Z" fill="#565973"/>
</svg>
