<svg width="123" height="128" viewBox="0 0 123 128" fill="none" xmlns="http://www.w3.org/2000/svg">
<g opacity="0.3" filter="url(#filter0_f_2345_12951)">
<rect x="30" y="30" width="63" height="68" rx="11" fill="#25C16F"/>
</g>
<g filter="url(#filter1_dii_2345_12951)">
<rect x="21" y="24" width="63" height="68" rx="11" fill="#25C16F"/>
</g>
<path d="M59.9968 50.1726C55.7222 43.8932 50.0131 40.5557 47.0233 42.6006C46.694 42.8321 46.408 43.1194 46.178 43.4494C46.178 43.4736 39.2565 57.4601 39.2565 57.4601L35.3925 60.0742C34.7993 60.4762 34.2913 60.9911 33.8974 61.5893C33.5035 62.1874 33.2316 62.8573 33.097 63.5604C32.9624 64.2636 32.9679 64.9863 33.1132 65.6874C33.2584 66.3884 33.5406 67.054 33.9435 67.6462L34.1174 67.9018C34.9318 69.0865 36.1812 69.9028 37.5944 70.1736C39.0077 70.4445 40.4709 70.1481 41.6667 69.3487L47.8734 78.4785C48.7862 79.6023 50.5395 80.7212 52.7034 79.4045C53.0867 79.1563 53.4137 78.8307 53.6633 78.4486C53.9129 78.0664 54.0795 77.6363 54.1524 77.186C54.2398 76.738 54.2375 76.2772 54.1454 75.8302C54.0534 75.3832 53.8736 74.9588 53.6163 74.5816L48.1487 66.5273C48.1487 66.5273 61.0739 65.5 61.1222 65.4807C61.5257 65.3963 61.9084 65.2324 62.2476 64.9984C63.7835 63.9566 64.3342 61.7718 63.8029 58.8443C63.3247 56.1483 61.9674 53.0953 59.9968 50.1726ZM35.5229 66.9517L35.349 66.6961C35.071 66.2874 34.8765 65.828 34.7765 65.3442C34.6765 64.8603 34.6731 64.3615 34.7664 63.8764C34.8598 63.3912 35.048 62.9292 35.3203 62.5168C35.5927 62.1043 35.9439 61.7496 36.3537 61.4728L39.6913 59.206L44.0963 65.6832L40.7587 67.95C40.3493 68.228 39.8891 68.4227 39.4044 68.5229C38.9196 68.6232 38.4199 68.627 37.9336 68.5343C37.4474 68.4416 36.9842 68.2541 36.5705 67.9826C36.1569 67.711 35.8009 67.3607 35.5229 66.9517ZM52.2252 75.5317C52.4892 75.9239 52.5866 76.4047 52.4961 76.8685C52.4055 77.3324 52.1344 77.7414 51.7422 78.0059C51.3487 78.2697 50.8665 78.3671 50.4012 78.2767C49.9358 78.1863 49.5254 77.9155 49.2596 77.5236L43.0723 68.4227L45.5598 66.7347L46.2167 66.6816L52.2252 75.5317ZM45.695 65.0273L40.8939 57.9665L45.4728 48.6438C45.9172 51.2626 47.2165 54.3734 49.2934 57.4264C51.3703 60.4793 53.7853 62.8329 56.0555 64.2122L45.695 65.0273ZM59.9437 63.9036C57.6349 63.7541 53.8771 61.1545 50.6941 56.4714C47.5111 51.7883 46.4775 47.356 47.1875 45.152C47.3157 44.7382 47.5716 44.3756 47.9186 44.1157C48.2655 43.8559 48.6859 43.7121 49.1195 43.7051C51.409 43.7051 55.3068 46.3191 58.5816 51.1372C60.4267 53.8477 61.7694 56.6836 62.1365 59.1626C62.8562 63.9036 59.9437 63.9036 59.9437 63.9036Z" fill="white"/>
<path d="M53.9098 50.389C53.3018 50.2705 52.6762 50.2735 52.0694 50.3979C51.4626 50.5222 50.8869 50.7654 50.3759 51.1132C50.2817 51.1778 50.2013 51.2603 50.1392 51.3559C50.0771 51.4514 50.0346 51.5581 50.0141 51.67C49.9936 51.7818 49.9955 51.8966 50.0196 52.0077C50.0438 52.1188 50.0898 52.2241 50.155 52.3176C50.2202 52.4111 50.3033 52.4909 50.3995 52.5525C50.4958 52.6141 50.6033 52.6563 50.716 52.6766C50.8287 52.697 50.9443 52.6951 51.0563 52.6711C51.1683 52.6471 51.2744 52.6015 51.3686 52.5368C51.6922 52.3188 52.0559 52.1662 52.4389 52.0877C52.822 52.0092 53.2169 52.0063 53.601 52.0793C53.9852 52.1523 54.3511 52.2996 54.6779 52.5129C55.0047 52.7262 55.2859 53.0013 55.5056 53.3225C55.7252 53.6437 55.879 54.0047 55.9581 54.3849C56.0372 54.765 56.0401 55.1569 55.9665 55.5382C55.893 55.9195 55.7446 56.2826 55.5296 56.607C55.3147 56.9313 55.0375 57.2104 54.7139 57.4284C54.5613 57.533 54.4464 57.6833 54.3861 57.8574C54.3258 58.0314 54.3232 58.22 54.3786 58.3957C54.4341 58.5713 54.5448 58.7247 54.6944 58.8334C54.844 58.9421 55.0248 59.0004 55.2102 58.9999C55.3872 59.0031 55.5607 58.9515 55.7066 58.8521C56.4786 58.333 57.078 57.5983 57.4289 56.7408C57.7798 55.8834 57.8664 54.9419 57.6777 54.0356C57.489 53.1293 57.0335 52.299 56.369 51.6498C55.7044 51.0007 54.8606 50.5619 53.9446 50.389H53.9098ZM61.1862 44.2117H61.2706C61.4854 44.2116 61.6926 44.1325 61.8521 43.9897C62.0116 43.8468 62.1121 43.6504 62.1342 43.4383L62.8043 36.9752C62.8195 36.861 62.8115 36.7448 62.7808 36.6336C62.75 36.5225 62.6971 36.4186 62.6251 36.3281C62.5531 36.2376 62.4636 36.1623 62.3619 36.1067C62.2601 36.0512 62.1481 36.0164 62.0326 36.0046C61.9171 35.9927 61.8003 36.004 61.6892 36.0377C61.5781 36.0714 61.475 36.1269 61.3859 36.2008C61.2968 36.2748 61.2236 36.3658 61.1705 36.4683C61.1175 36.5709 61.0857 36.6829 61.077 36.7979L60.4119 43.2659C60.3883 43.4932 60.4566 43.7205 60.6018 43.8978C60.747 44.0752 60.9572 44.1881 61.1862 44.2117ZM72.4135 42.8816C72.286 42.6908 72.0876 42.5579 71.8616 42.5117C71.6356 42.4656 71.4004 42.51 71.2074 42.6353L65.157 46.5762C64.9999 46.6792 64.8807 46.83 64.8175 47.006C64.7542 47.182 64.7503 47.3736 64.8063 47.552C64.8623 47.7304 64.9752 47.8859 65.1279 47.9951C65.2807 48.1043 65.4651 48.1613 65.6533 48.1575C65.8289 48.1615 66.0017 48.1135 66.1496 48.0196L72.2001 44.0787C72.3878 43.9476 72.5156 43.7481 72.5556 43.5239C72.5956 43.2996 72.5445 43.0687 72.4135 42.8816ZM74.2649 53.4038L67.2267 52.1476C66.9996 52.1071 66.7656 52.1578 66.5762 52.2885C66.3868 52.4193 66.2575 52.6193 66.2166 52.8447C66.1758 53.0701 66.2269 53.3023 66.3586 53.4903C66.4903 53.6783 66.6919 53.8066 66.919 53.8471L73.9522 55.1033H74.106C74.3273 55.1097 74.5428 55.032 74.7083 54.8861C74.8738 54.7401 74.9769 54.537 74.9966 54.3181C75.0162 54.0992 74.9509 53.8812 74.814 53.7085C74.6771 53.5358 74.4789 53.4215 74.2599 53.389L74.2649 53.4038Z" fill="white"/>
<defs>
<filter id="filter0_f_2345_12951" x="0" y="0" width="123" height="128" filterUnits="userSpaceOnUse" color-interpolation-filters="sRGB">
<feFlood flood-opacity="0" result="BackgroundImageFix"/>
<feBlend mode="normal" in="SourceGraphic" in2="BackgroundImageFix" result="shape"/>
<feGaussianBlur stdDeviation="15" result="effect1_foregroundBlur_2345_12951"/>
</filter>
<filter id="filter1_dii_2345_12951" x="5" y="18" width="95" height="100" filterUnits="userSpaceOnUse" color-interpolation-filters="sRGB">
<feFlood flood-opacity="0" result="BackgroundImageFix"/>
<feColorMatrix in="SourceAlpha" type="matrix" values="0 0 0 0 0 0 0 0 0 0 0 0 0 0 0 0 0 0 127 0" result="hardAlpha"/>
<feMorphology radius="4" operator="erode" in="SourceAlpha" result="effect1_dropShadow_2345_12951"/>
<feOffset dy="10"/>
<feGaussianBlur stdDeviation="10"/>
<feColorMatrix type="matrix" values="0 0 0 0 0.916051 0 0 0 0 0.921023 0 0 0 0 0.927984 0 0 0 1 0"/>
<feBlend mode="multiply" in2="BackgroundImageFix" result="effect1_dropShadow_2345_12951"/>
<feBlend mode="normal" in="SourceGraphic" in2="effect1_dropShadow_2345_12951" result="shape"/>
<feColorMatrix in="SourceAlpha" type="matrix" values="0 0 0 0 0 0 0 0 0 0 0 0 0 0 0 0 0 0 127 0" result="hardAlpha"/>
<feOffset/>
<feGaussianBlur stdDeviation="2"/>
<feComposite in2="hardAlpha" operator="arithmetic" k2="-1" k3="1"/>
<feColorMatrix type="matrix" values="0 0 0 0 0.625417 0 0 0 0 0.631402 0 0 0 0 0.658333 0 0 0 1 0"/>
<feBlend mode="color-burn" in2="shape" result="effect2_innerShadow_2345_12951"/>
<feColorMatrix in="SourceAlpha" type="matrix" values="0 0 0 0 0 0 0 0 0 0 0 0 0 0 0 0 0 0 127 0" result="hardAlpha"/>
<feOffset dx="2" dy="2"/>
<feGaussianBlur stdDeviation="1"/>
<feComposite in2="hardAlpha" operator="arithmetic" k2="-1" k3="1"/>
<feColorMatrix type="matrix" values="0 0 0 0 1 0 0 0 0 1 0 0 0 0 1 0 0 0 0.3 0"/>
<feBlend mode="normal" in2="effect2_innerShadow_2345_12951" result="effect3_innerShadow_2345_12951"/>
</filter>
</defs>
</svg>
