<svg width="127" height="127" viewBox="0 0 127 127" fill="none" xmlns="http://www.w3.org/2000/svg">
<g opacity="0.5" filter="url(#filter0_f_2255_12731)">
<circle cx="63.5" cy="63.5" r="33.5" fill="#FA9D7C"/>
</g>
<g filter="url(#filter1_dii_2255_12731)">
<circle cx="58.5" cy="62.5" r="33.5" fill="#FA9D7C"/>
</g>
<g filter="url(#filter2_dii_2255_12731)">
<path d="M92 62.5C92 81.0015 77.0015 96 58.5 96C39.9985 96 25 81.0015 25 62.5C25 43.9985 39.9985 29 58.5 29C77.0015 29 92 43.9985 92 62.5Z" fill="#FA9D7C"/>
</g>
<path d="M58.1975 80.675C56.1425 80.675 54.275 80.18 52.595 79.19C50.93 78.2 49.6025 76.85 48.6125 75.14C47.6375 73.415 47.15 71.4725 47.15 69.3125V58.535C47.15 56.27 47.6375 54.2675 48.6125 52.5275C49.6025 50.7725 50.9525 49.4075 52.6625 48.4325C54.3875 47.4425 56.3525 46.9475 58.5575 46.9475C60.3425 46.9475 62 47.315 63.53 48.05C65.075 48.77 66.3725 49.8125 67.4225 51.1775L64.43 53.8325C63.785 52.8875 62.945 52.1375 61.91 51.5825C60.875 51.0275 59.7575 50.75 58.5575 50.75C57.1325 50.75 55.865 51.095 54.755 51.785C53.66 52.46 52.7975 53.36 52.1675 54.485C51.5375 55.595 51.2225 56.795 51.2225 58.085V64.5875L50.345 63.5975C51.29 62.2475 52.49 61.1675 53.945 60.3575C55.4 59.5475 56.975 59.1425 58.67 59.1425C60.68 59.1425 62.48 59.615 64.07 60.56C65.675 61.505 66.935 62.7875 67.85 64.4075C68.78 66.0125 69.245 67.82 69.245 69.83C69.245 71.84 68.7425 73.6625 67.7375 75.2975C66.7325 76.9325 65.39 78.2375 63.71 79.2125C62.045 80.1875 60.2075 80.675 58.1975 80.675ZM58.1975 76.805C59.4875 76.805 60.665 76.4975 61.73 75.8825C62.795 75.2525 63.635 74.4125 64.25 73.3625C64.88 72.2975 65.195 71.12 65.195 69.83C65.195 68.54 64.88 67.3625 64.25 66.2975C63.635 65.2325 62.795 64.3925 61.73 63.7775C60.68 63.1475 59.51 62.8325 58.22 62.8325C56.93 62.8325 55.7525 63.1475 54.6875 63.7775C53.6375 64.3925 52.7975 65.2325 52.1675 66.2975C51.5375 67.3625 51.2225 68.54 51.2225 69.83C51.2225 71.105 51.53 72.275 52.145 73.34C52.775 74.39 53.615 75.23 54.665 75.86C55.73 76.49 56.9075 76.805 58.1975 76.805Z" fill="white"/>
<defs>
<filter id="filter0_f_2255_12731" x="0" y="0" width="127" height="127" filterUnits="userSpaceOnUse" color-interpolation-filters="sRGB">
<feFlood flood-opacity="0" result="BackgroundImageFix"/>
<feBlend mode="normal" in="SourceGraphic" in2="BackgroundImageFix" result="shape"/>
<feGaussianBlur stdDeviation="15" result="effect1_foregroundBlur_2255_12731"/>
</filter>
<filter id="filter1_dii_2255_12731" x="9" y="23" width="99" height="99" filterUnits="userSpaceOnUse" color-interpolation-filters="sRGB">
<feFlood flood-opacity="0" result="BackgroundImageFix"/>
<feColorMatrix in="SourceAlpha" type="matrix" values="0 0 0 0 0 0 0 0 0 0 0 0 0 0 0 0 0 0 127 0" result="hardAlpha"/>
<feMorphology radius="4" operator="erode" in="SourceAlpha" result="effect1_dropShadow_2255_12731"/>
<feOffset dy="10"/>
<feGaussianBlur stdDeviation="10"/>
<feColorMatrix type="matrix" values="0 0 0 0 0.916051 0 0 0 0 0.921023 0 0 0 0 0.927984 0 0 0 1 0"/>
<feBlend mode="multiply" in2="BackgroundImageFix" result="effect1_dropShadow_2255_12731"/>
<feBlend mode="normal" in="SourceGraphic" in2="effect1_dropShadow_2255_12731" result="shape"/>
<feColorMatrix in="SourceAlpha" type="matrix" values="0 0 0 0 0 0 0 0 0 0 0 0 0 0 0 0 0 0 127 0" result="hardAlpha"/>
<feOffset/>
<feGaussianBlur stdDeviation="2"/>
<feComposite in2="hardAlpha" operator="arithmetic" k2="-1" k3="1"/>
<feColorMatrix type="matrix" values="0 0 0 0 0.625417 0 0 0 0 0.631402 0 0 0 0 0.658333 0 0 0 1 0"/>
<feBlend mode="color-burn" in2="shape" result="effect2_innerShadow_2255_12731"/>
<feColorMatrix in="SourceAlpha" type="matrix" values="0 0 0 0 0 0 0 0 0 0 0 0 0 0 0 0 0 0 127 0" result="hardAlpha"/>
<feOffset dx="2" dy="2"/>
<feGaussianBlur stdDeviation="1"/>
<feComposite in2="hardAlpha" operator="arithmetic" k2="-1" k3="1"/>
<feColorMatrix type="matrix" values="0 0 0 0 1 0 0 0 0 1 0 0 0 0 1 0 0 0 0.3 0"/>
<feBlend mode="normal" in2="effect2_innerShadow_2255_12731" result="effect3_innerShadow_2255_12731"/>
</filter>
<filter id="filter2_dii_2255_12731" x="9" y="23" width="99" height="99" filterUnits="userSpaceOnUse" color-interpolation-filters="sRGB">
<feFlood flood-opacity="0" result="BackgroundImageFix"/>
<feColorMatrix in="SourceAlpha" type="matrix" values="0 0 0 0 0 0 0 0 0 0 0 0 0 0 0 0 0 0 127 0" result="hardAlpha"/>
<feMorphology radius="4" operator="erode" in="SourceAlpha" result="effect1_dropShadow_2255_12731"/>
<feOffset dy="10"/>
<feGaussianBlur stdDeviation="10"/>
<feColorMatrix type="matrix" values="0 0 0 0 0.916051 0 0 0 0 0.921023 0 0 0 0 0.927984 0 0 0 1 0"/>
<feBlend mode="multiply" in2="BackgroundImageFix" result="effect1_dropShadow_2255_12731"/>
<feBlend mode="normal" in="SourceGraphic" in2="effect1_dropShadow_2255_12731" result="shape"/>
<feColorMatrix in="SourceAlpha" type="matrix" values="0 0 0 0 0 0 0 0 0 0 0 0 0 0 0 0 0 0 127 0" result="hardAlpha"/>
<feOffset/>
<feGaussianBlur stdDeviation="2"/>
<feComposite in2="hardAlpha" operator="arithmetic" k2="-1" k3="1"/>
<feColorMatrix type="matrix" values="0 0 0 0 0.625417 0 0 0 0 0.631402 0 0 0 0 0.658333 0 0 0 1 0"/>
<feBlend mode="color-burn" in2="shape" result="effect2_innerShadow_2255_12731"/>
<feColorMatrix in="SourceAlpha" type="matrix" values="0 0 0 0 0 0 0 0 0 0 0 0 0 0 0 0 0 0 127 0" result="hardAlpha"/>
<feOffset dx="2" dy="2"/>
<feGaussianBlur stdDeviation="1"/>
<feComposite in2="hardAlpha" operator="arithmetic" k2="-1" k3="1"/>
<feColorMatrix type="matrix" values="0 0 0 0 1 0 0 0 0 1 0 0 0 0 1 0 0 0 0.3 0"/>
<feBlend mode="normal" in2="effect2_innerShadow_2255_12731" result="effect3_innerShadow_2255_12731"/>
</filter>
</defs>
</svg>
