<svg width="127" height="127" viewBox="0 0 127 127" fill="none" xmlns="http://www.w3.org/2000/svg">
<g filter="url(#filter0_f_3096_7403)">
<circle cx="63.5" cy="63.5" r="33.5" fill="#FF8A8A" fill-opacity="0.5"/>
</g>
<g filter="url(#filter1_dii_3096_7403)">
<circle cx="58.5" cy="62.5" r="33.5" fill="#FA9D7C"/>
</g>
<g clip-path="url(#clip0_3096_7403)">
<path d="M69.625 60.8748C69.3432 60.8748 69.073 60.7628 68.8737 60.5636C68.6744 60.3643 68.5625 60.094 68.5625 59.8123V52.3748H61.125C60.8432 52.3748 60.573 52.2628 60.3737 52.0636C60.1744 51.8643 60.0625 51.594 60.0625 51.3123C60.0625 51.0305 60.1744 50.7602 60.3737 50.561C60.573 50.3617 60.8432 50.2498 61.125 50.2498H69.625C69.9068 50.2498 70.177 50.3617 70.3763 50.561C70.5756 50.7602 70.6875 51.0305 70.6875 51.3123V59.8123C70.6875 60.094 70.5756 60.3643 70.3763 60.5636C70.177 60.7628 69.9068 60.8748 69.625 60.8748Z" fill="white"/>
<path d="M62.1875 54.4999C62.0479 54.5001 61.9097 54.4728 61.7808 54.4193C61.6518 54.3659 61.5348 54.2875 61.4363 54.1886L59.3113 52.0636C59.1121 51.8643 59.0002 51.5941 59.0002 51.3124C59.0002 51.0306 59.1121 50.7604 59.3113 50.5612L61.4363 48.4362C61.5343 48.3347 61.6516 48.2538 61.7812 48.1981C61.9108 48.1424 62.0502 48.1131 62.1913 48.1119C62.3324 48.1106 62.4723 48.1375 62.6029 48.1909C62.7335 48.2444 62.8521 48.3233 62.9519 48.423C63.0516 48.5228 63.1305 48.6414 63.1839 48.772C63.2374 48.9026 63.2642 49.0425 63.263 49.1835C63.2618 49.3246 63.2325 49.464 63.1768 49.5937C63.1211 49.7233 63.0402 49.8405 62.9387 49.9386L61.5654 51.3124L62.9387 52.6862C63.0872 52.8348 63.1884 53.0241 63.2294 53.2302C63.2703 53.4362 63.2493 53.6498 63.1689 53.8439C63.0885 54.0381 62.9524 54.204 62.7777 54.3207C62.603 54.4375 62.3976 54.4998 62.1875 54.4999ZM59 75.7499H48.375C48.0932 75.7499 47.823 75.6379 47.6237 75.4387C47.4244 75.2394 47.3125 74.9692 47.3125 74.6874V66.1874C47.3125 65.9056 47.4244 65.6353 47.6237 65.4361C47.823 65.2368 48.0932 65.1249 48.375 65.1249C48.6568 65.1249 48.927 65.2368 49.1263 65.4361C49.3256 65.6353 49.4375 65.9056 49.4375 66.1874V73.6249H59C59.2818 73.6249 59.552 73.7368 59.7513 73.9361C59.9506 74.1353 60.0625 74.4056 60.0625 74.6874C60.0625 74.9692 59.9506 75.2394 59.7513 75.4387C59.552 75.6379 59.2818 75.7499 59 75.7499Z" fill="white"/>
<path d="M57.9375 77.8748C57.7274 77.8747 57.522 77.8124 57.3473 77.6956C57.1726 77.5789 57.0365 77.4129 56.9561 77.2188C56.8757 77.0247 56.8547 76.8111 56.8956 76.605C56.9366 76.399 57.0378 76.2097 57.1863 76.0611L58.5596 74.6873L57.1863 73.3134C57.0848 73.2154 57.0039 73.0982 56.9482 72.9686C56.8925 72.8389 56.8632 72.6995 56.862 72.5584C56.8608 72.4174 56.8876 72.2774 56.9411 72.1469C56.9945 72.0163 57.0734 71.8977 57.1731 71.7979C57.2729 71.6981 57.3915 71.6192 57.5221 71.5658C57.6527 71.5124 57.7926 71.4855 57.9337 71.4867C58.0748 71.488 58.2142 71.5173 58.3438 71.573C58.4734 71.6286 58.5907 71.7096 58.6887 71.8111L60.8137 73.9361C61.0129 74.1353 61.1248 74.4055 61.1248 74.6873C61.1248 74.969 61.0129 75.2392 60.8137 75.4384L58.6887 77.5634C58.5902 77.6623 58.4732 77.7408 58.3442 77.7942C58.2153 77.8476 58.0771 77.875 57.9375 77.8748ZM69.625 69.3748C67.8671 69.3748 66.4375 67.9452 66.4375 66.1873C66.4375 64.4293 67.8671 62.9998 69.625 62.9998C71.3829 62.9998 72.8125 64.4293 72.8125 66.1873C72.8125 67.9452 71.3829 69.3748 69.625 69.3748ZM73.2657 70.0457C72.3137 70.9446 71.0344 71.4998 69.625 71.4998C68.2156 71.4998 66.9363 70.9446 65.9843 70.0457C64.3555 70.9547 63.25 72.6935 63.25 74.6873V78.9373C63.25 79.219 63.3619 79.4893 63.5612 79.6886C63.7605 79.8878 64.0307 79.9998 64.3125 79.9998H74.9375C75.2193 79.9998 75.4895 79.8878 75.6888 79.6886C75.8881 79.4893 76 79.219 76 78.9373V74.6873C76 72.6935 74.8945 70.9547 73.2657 70.0457ZM44.125 50.2498H43.0625C42.7807 50.2498 42.5105 50.3617 42.3112 50.561C42.1119 50.7602 42 51.0305 42 51.3123V61.9373C42 62.219 42.1119 62.4893 42.3112 62.6886C42.5105 62.8878 42.7807 62.9998 43.0625 62.9998H44.125V50.2498ZM55.8125 45.9998H47.3125C47.0307 45.9998 46.7605 46.1117 46.5612 46.311C46.3619 46.5102 46.25 46.7805 46.25 47.0623V62.9998H50.5V59.8123C50.5 59.5305 50.6119 59.2602 50.8112 59.061C51.0105 58.8617 51.2807 58.7498 51.5625 58.7498C51.8443 58.7498 52.1145 58.8617 52.3138 59.061C52.5131 59.2602 52.625 59.5305 52.625 59.8123V62.9998H55.8125C56.0943 62.9998 56.3645 62.8878 56.5638 62.6886C56.7631 62.4893 56.875 62.219 56.875 61.9373V47.0623C56.875 46.7805 56.7631 46.5102 56.5638 46.311C56.3645 46.1117 56.0943 45.9998 55.8125 45.9998ZM51.5625 56.6248C51.4229 56.6247 51.2847 56.5972 51.1558 56.5438C51.0269 56.4903 50.9098 56.412 50.8111 56.3133C50.7124 56.2146 50.6342 56.0974 50.5808 55.9684C50.5274 55.8395 50.5 55.7013 50.5 55.5617C50.5 55.4222 50.5276 55.284 50.581 55.155C50.6344 55.0261 50.7128 54.909 50.8115 54.8103C50.9102 54.7117 51.0274 54.6334 51.1563 54.58C51.2853 54.5266 51.4235 54.4992 51.563 54.4992C51.8449 54.4993 52.1152 54.6113 52.3144 54.8107C52.5137 55.01 52.6256 55.2804 52.6255 55.5623C52.6255 55.8441 52.5134 56.1144 52.3141 56.3137C52.1147 56.5129 51.8444 56.6248 51.5625 56.6248ZM51.5625 52.3748C51.4229 52.3747 51.2847 52.3472 51.1558 52.2938C51.0269 52.2403 50.9098 52.162 50.8111 52.0633C50.7124 51.9646 50.6342 51.8474 50.5808 51.7184C50.5274 51.5895 50.5 51.4513 50.5 51.3117C50.5 51.1722 50.5276 51.034 50.581 50.905C50.6344 50.7761 50.7128 50.659 50.8115 50.5603C50.9102 50.4617 51.0274 50.3834 51.1563 50.33C51.2853 50.2766 51.4235 50.2492 51.563 50.2492C51.8449 50.2493 52.1152 50.3613 52.3144 50.5607C52.5137 50.76 52.6256 51.0304 52.6255 51.3123C52.6255 51.5941 52.5134 51.8644 52.3141 52.0637C52.1147 52.2629 51.8444 52.3748 51.5625 52.3748Z" fill="white"/>
</g>
<defs>
<filter id="filter0_f_3096_7403" x="0" y="0" width="127" height="127" filterUnits="userSpaceOnUse" color-interpolation-filters="sRGB">
<feFlood flood-opacity="0" result="BackgroundImageFix"/>
<feBlend mode="normal" in="SourceGraphic" in2="BackgroundImageFix" result="shape"/>
<feGaussianBlur stdDeviation="15" result="effect1_foregroundBlur_3096_7403"/>
</filter>
<filter id="filter1_dii_3096_7403" x="9" y="23" width="99" height="99" filterUnits="userSpaceOnUse" color-interpolation-filters="sRGB">
<feFlood flood-opacity="0" result="BackgroundImageFix"/>
<feColorMatrix in="SourceAlpha" type="matrix" values="0 0 0 0 0 0 0 0 0 0 0 0 0 0 0 0 0 0 127 0" result="hardAlpha"/>
<feMorphology radius="4" operator="erode" in="SourceAlpha" result="effect1_dropShadow_3096_7403"/>
<feOffset dy="10"/>
<feGaussianBlur stdDeviation="10"/>
<feColorMatrix type="matrix" values="0 0 0 0 0.916051 0 0 0 0 0.921023 0 0 0 0 0.927984 0 0 0 1 0"/>
<feBlend mode="multiply" in2="BackgroundImageFix" result="effect1_dropShadow_3096_7403"/>
<feBlend mode="normal" in="SourceGraphic" in2="effect1_dropShadow_3096_7403" result="shape"/>
<feColorMatrix in="SourceAlpha" type="matrix" values="0 0 0 0 0 0 0 0 0 0 0 0 0 0 0 0 0 0 127 0" result="hardAlpha"/>
<feOffset/>
<feGaussianBlur stdDeviation="2"/>
<feComposite in2="hardAlpha" operator="arithmetic" k2="-1" k3="1"/>
<feColorMatrix type="matrix" values="0 0 0 0 0.625417 0 0 0 0 0.631402 0 0 0 0 0.658333 0 0 0 1 0"/>
<feBlend mode="color-burn" in2="shape" result="effect2_innerShadow_3096_7403"/>
<feColorMatrix in="SourceAlpha" type="matrix" values="0 0 0 0 0 0 0 0 0 0 0 0 0 0 0 0 0 0 127 0" result="hardAlpha"/>
<feOffset dx="2" dy="2"/>
<feGaussianBlur stdDeviation="1"/>
<feComposite in2="hardAlpha" operator="arithmetic" k2="-1" k3="1"/>
<feColorMatrix type="matrix" values="0 0 0 0 1 0 0 0 0 1 0 0 0 0 1 0 0 0 0.3 0"/>
<feBlend mode="normal" in2="effect2_innerShadow_3096_7403" result="effect3_innerShadow_3096_7403"/>
</filter>
<clipPath id="clip0_3096_7403">
<rect width="34" height="34" fill="white" transform="translate(42 45.9998)"/>
</clipPath>
</defs>
</svg>
