<svg width="142" height="141" viewBox="0 0 142 141" fill="none" xmlns="http://www.w3.org/2000/svg">
<g filter="url(#filter0_f_3096_7388)">
<circle cx="70.9983" cy="70.2147" r="40.0193" fill="#7DA9FF" fill-opacity="0.5"/>
</g>
<g filter="url(#filter1_dii_3096_7388)">
<circle cx="65.0252" cy="69.0201" r="40.0193" fill="#7DA9FF"/>
</g>
<path d="M48.2449 79.3307C46.6609 79.3307 45.3042 78.9861 44.1749 78.2967C43.0455 77.6001 42.1765 76.6321 41.5679 75.3927C40.9665 74.1534 40.6659 72.7161 40.6659 71.0807C40.6659 69.4454 40.9665 68.0081 41.5679 66.7687C42.1765 65.5294 43.0455 64.5651 44.1749 63.8757C45.3042 63.1791 46.6609 62.8307 48.2449 62.8307C50.0709 62.8307 51.5925 63.2891 52.8099 64.2057C54.0272 65.1151 54.8815 66.3434 55.3729 67.8907L52.6999 68.6277C52.3919 67.5937 51.8675 66.7871 51.1269 66.2077C50.3862 65.6211 49.4255 65.3277 48.2449 65.3277C47.1815 65.3277 46.2942 65.5661 45.5829 66.0427C44.8789 66.5194 44.3472 67.1904 43.9879 68.0557C43.6359 68.9137 43.4562 69.9221 43.4489 71.0807C43.4489 72.2394 43.6249 73.2514 43.9769 74.1167C44.3362 74.9747 44.8715 75.6421 45.5829 76.1187C46.2942 76.5954 47.1815 76.8337 48.2449 76.8337C49.4255 76.8337 50.3862 76.5404 51.1269 75.9537C51.8675 75.3671 52.3919 74.5604 52.6999 73.5337L55.3729 74.2707C54.8815 75.8181 54.0272 77.0501 52.8099 77.9667C51.5925 78.8761 50.0709 79.3307 48.2449 79.3307ZM57.788 79.0007V63.1607H64.333C64.487 63.1607 64.685 63.1681 64.927 63.1827C65.169 63.1901 65.3927 63.2121 65.598 63.2487C66.5147 63.3881 67.27 63.6924 67.864 64.1617C68.4654 64.6311 68.909 65.2251 69.195 65.9437C69.4884 66.6551 69.635 67.4471 69.635 68.3197C69.635 69.6104 69.3087 70.7214 68.656 71.6527C68.0034 72.5767 67.0024 73.1487 65.653 73.3687L64.52 73.4677H60.439V79.0007H57.788ZM66.885 79.0007L63.761 72.5547L66.456 71.9607L69.888 79.0007H66.885ZM60.439 70.9927H64.223C64.3697 70.9927 64.5347 70.9854 64.718 70.9707C64.9014 70.9561 65.07 70.9267 65.224 70.8827C65.664 70.7727 66.0087 70.5784 66.258 70.2997C66.5147 70.0211 66.6944 69.7057 66.797 69.3537C66.907 69.0017 66.962 68.6571 66.962 68.3197C66.962 67.9824 66.907 67.6377 66.797 67.2857C66.6944 66.9264 66.5147 66.6074 66.258 66.3287C66.0087 66.0501 65.664 65.8557 65.224 65.7457C65.07 65.7017 64.9014 65.6761 64.718 65.6687C64.5347 65.6541 64.3697 65.6467 64.223 65.6467H60.439V70.9927ZM72.3115 79.0007V63.1607H74.6985L80.1765 74.3807L85.6545 63.1607H88.0415V79.0007H85.5665V68.8477L80.7045 79.0007H79.6485L74.7975 68.8477V79.0007H72.3115Z" fill="white"/>
<defs>
<filter id="filter0_f_3096_7388" x="0.979004" y="0.195312" width="140.039" height="140.039" filterUnits="userSpaceOnUse" color-interpolation-filters="sRGB">
<feFlood flood-opacity="0" result="BackgroundImageFix"/>
<feBlend mode="normal" in="SourceGraphic" in2="BackgroundImageFix" result="shape"/>
<feGaussianBlur stdDeviation="15" result="effect1_foregroundBlur_3096_7388"/>
</filter>
<filter id="filter1_dii_3096_7388" x="9.00586" y="23.0007" width="112.039" height="112.039" filterUnits="userSpaceOnUse" color-interpolation-filters="sRGB">
<feFlood flood-opacity="0" result="BackgroundImageFix"/>
<feColorMatrix in="SourceAlpha" type="matrix" values="0 0 0 0 0 0 0 0 0 0 0 0 0 0 0 0 0 0 127 0" result="hardAlpha"/>
<feMorphology radius="4" operator="erode" in="SourceAlpha" result="effect1_dropShadow_3096_7388"/>
<feOffset dy="10"/>
<feGaussianBlur stdDeviation="10"/>
<feColorMatrix type="matrix" values="0 0 0 0 0.916051 0 0 0 0 0.921023 0 0 0 0 0.927984 0 0 0 1 0"/>
<feBlend mode="multiply" in2="BackgroundImageFix" result="effect1_dropShadow_3096_7388"/>
<feBlend mode="normal" in="SourceGraphic" in2="effect1_dropShadow_3096_7388" result="shape"/>
<feColorMatrix in="SourceAlpha" type="matrix" values="0 0 0 0 0 0 0 0 0 0 0 0 0 0 0 0 0 0 127 0" result="hardAlpha"/>
<feOffset/>
<feGaussianBlur stdDeviation="2"/>
<feComposite in2="hardAlpha" operator="arithmetic" k2="-1" k3="1"/>
<feColorMatrix type="matrix" values="0 0 0 0 0.625417 0 0 0 0 0.631402 0 0 0 0 0.658333 0 0 0 1 0"/>
<feBlend mode="color-burn" in2="shape" result="effect2_innerShadow_3096_7388"/>
<feColorMatrix in="SourceAlpha" type="matrix" values="0 0 0 0 0 0 0 0 0 0 0 0 0 0 0 0 0 0 127 0" result="hardAlpha"/>
<feOffset dx="2" dy="2"/>
<feGaussianBlur stdDeviation="1"/>
<feComposite in2="hardAlpha" operator="arithmetic" k2="-1" k3="1"/>
<feColorMatrix type="matrix" values="0 0 0 0 1 0 0 0 0 1 0 0 0 0 1 0 0 0 0.3 0"/>
<feBlend mode="normal" in2="effect2_innerShadow_3096_7388" result="effect3_innerShadow_3096_7388"/>
</filter>
</defs>
</svg>
