<svg width="128" height="128" viewBox="0 0 128 128" fill="none" xmlns="http://www.w3.org/2000/svg">
<g opacity="0.5" filter="url(#filter0_f_2255_12673)">
<circle cx="63.7024" cy="64.3901" r="33.5" transform="rotate(20.4257 63.7024 64.3901)" fill="#FA9D7C"/>
</g>
<g filter="url(#filter1_dii_2255_12673)">
<circle cx="59.7024" cy="61.3901" r="33.5" transform="rotate(20.4257 59.7024 61.3901)" fill="#FA9D7C"/>
</g>
<g clip-path="url(#clip0_2255_12673)">
<path d="M47.669 64.9667C45.7052 63.7451 44.7278 61.4217 45.2389 59.1858L45.2823 59.0204C45.436 58.4397 45.6284 57.9906 45.8837 57.5803L51.0013 49.3534L41.9471 57.2736C40.6703 58.4727 40.6156 60.5053 41.832 61.8126L57.6919 78.6087C57.8859 78.8113 58.1047 78.989 58.343 79.1375C59.5646 79.8974 61.1771 79.7942 62.2212 78.8134L65.4766 76.044L47.669 64.9667ZM58.9236 54.3955C60.2767 55.2372 62.0502 54.8391 62.8781 53.5081C63.706 52.1772 63.2792 50.4105 61.9261 49.5688C60.573 48.7271 58.7993 49.1251 57.9715 50.456C57.1436 51.7868 57.5706 53.5538 58.9236 54.3955Z" fill="white"/>
<path d="M79.642 55.8771L61.1737 44.3888C59.4772 43.3335 57.2437 43.8437 56.1974 45.5258L47.8454 58.9522C46.7991 60.6343 47.3287 62.8633 49.0251 63.9186L67.4934 75.4069C69.1901 76.4623 71.4236 75.9521 72.4699 74.27L80.8219 60.8436C81.8682 59.1615 81.3387 56.9325 79.642 55.8771ZM59.6551 46.8301L78.1234 58.3184C78.4634 58.5299 78.569 58.9747 78.3594 59.3117L72.9693 67.9768L71.8787 61.0582C71.7645 60.3219 71.3268 59.694 70.6944 59.2806C70.0544 58.8874 69.2815 58.7959 68.5705 59.0275L60.6128 61.6243L60.0395 59.2242C59.7168 57.8657 58.3464 57.0132 56.9861 57.3249L51.4931 58.5788L58.66 47.0575C58.8696 46.7205 59.3154 46.6188 59.6551 46.8301Z" fill="white"/>
</g>
<defs>
<filter id="filter0_f_2255_12673" x="0.193359" y="0.880859" width="127.018" height="127.019" filterUnits="userSpaceOnUse" color-interpolation-filters="sRGB">
<feFlood flood-opacity="0" result="BackgroundImageFix"/>
<feBlend mode="normal" in="SourceGraphic" in2="BackgroundImageFix" result="shape"/>
<feGaussianBlur stdDeviation="15" result="effect1_foregroundBlur_2255_12673"/>
</filter>
<filter id="filter1_dii_2255_12673" x="10.1934" y="21.8809" width="99.0176" height="99.0186" filterUnits="userSpaceOnUse" color-interpolation-filters="sRGB">
<feFlood flood-opacity="0" result="BackgroundImageFix"/>
<feColorMatrix in="SourceAlpha" type="matrix" values="0 0 0 0 0 0 0 0 0 0 0 0 0 0 0 0 0 0 127 0" result="hardAlpha"/>
<feMorphology radius="4" operator="erode" in="SourceAlpha" result="effect1_dropShadow_2255_12673"/>
<feOffset dy="10"/>
<feGaussianBlur stdDeviation="10"/>
<feColorMatrix type="matrix" values="0 0 0 0 0.916051 0 0 0 0 0.921023 0 0 0 0 0.927984 0 0 0 1 0"/>
<feBlend mode="multiply" in2="BackgroundImageFix" result="effect1_dropShadow_2255_12673"/>
<feBlend mode="normal" in="SourceGraphic" in2="effect1_dropShadow_2255_12673" result="shape"/>
<feColorMatrix in="SourceAlpha" type="matrix" values="0 0 0 0 0 0 0 0 0 0 0 0 0 0 0 0 0 0 127 0" result="hardAlpha"/>
<feOffset/>
<feGaussianBlur stdDeviation="2"/>
<feComposite in2="hardAlpha" operator="arithmetic" k2="-1" k3="1"/>
<feColorMatrix type="matrix" values="0 0 0 0 0.625417 0 0 0 0 0.631402 0 0 0 0 0.658333 0 0 0 1 0"/>
<feBlend mode="color-burn" in2="shape" result="effect2_innerShadow_2255_12673"/>
<feColorMatrix in="SourceAlpha" type="matrix" values="0 0 0 0 0 0 0 0 0 0 0 0 0 0 0 0 0 0 127 0" result="hardAlpha"/>
<feOffset dx="2" dy="2"/>
<feGaussianBlur stdDeviation="1"/>
<feComposite in2="hardAlpha" operator="arithmetic" k2="-1" k3="1"/>
<feColorMatrix type="matrix" values="0 0 0 0 1 0 0 0 0 1 0 0 0 0 1 0 0 0 0.3 0"/>
<feBlend mode="normal" in2="effect2_innerShadow_2255_12673" result="effect3_innerShadow_2255_12673"/>
</filter>
<clipPath id="clip0_2255_12673">
<rect width="35" height="34" fill="white" transform="translate(53 39.3052) rotate(31.8839)"/>
</clipPath>
</defs>
</svg>
