<svg width="127" height="127" viewBox="0 0 127 127" fill="none" xmlns="http://www.w3.org/2000/svg">
<g opacity="0.5" filter="url(#filter0_f_2255_12716)">
<circle cx="63.5" cy="63.5" r="33.5" fill="#7DA9FF"/>
</g>
<g filter="url(#filter1_dii_2255_12716)">
<circle cx="58.5" cy="62.5" r="33.5" fill="#7DA9FF"/>
</g>
<path d="M47.0634 53.0014L51.0252 66.3907L54.9867 53.0014H65.7271V54.3324L61.6829 61.258C63.1037 61.7108 64.1781 62.5351 64.9064 63.7297C65.6352 64.9251 66 66.3276 66 67.9389C66 69.9314 65.4665 71.6059 64.4008 72.9634C63.335 74.3208 61.9554 75 60.2618 75C58.9864 75 57.8758 74.5977 56.9292 73.7919C55.9819 72.9861 55.2808 71.8956 54.8257 70.5191L57.0654 69.5958C57.3935 70.4287 57.8262 71.0851 58.3637 71.5643C58.9009 72.0442 59.5339 72.2844 60.2622 72.2844C61.0266 72.2844 61.6738 71.8589 62.2019 71.0083C62.7305 70.1572 62.9948 69.1347 62.9948 67.9387C62.9948 66.6168 62.7123 65.5936 62.1482 64.8695C61.4913 64.0189 60.4622 63.5929 59.06 63.5929H57.9678V62.2896L61.7923 55.7168H57.1761L56.9135 56.1613L51.2982 74.9965H51.025L46.9264 61.3637L42.8288 74.9965H42.5559L36 53.0005H38.8685L42.83 66.3898L45.5078 57.3738L44.1967 53.0009H47.0645V53L47.0634 53.0014Z" fill="white"/>
<path d="M79.9945 53C79.4559 53 78.9722 53.1942 78.6055 53.5665C78.2166 53.9616 78 54.4718 78 54.9994C78 55.5271 78.2061 56.016 78.5836 56.3997C78.9673 56.7886 79.4615 57 79.9947 57C80.5164 57 81.0229 56.7888 81.4164 56.406C81.7939 56.0393 82 55.5505 82 55.0006C82 54.4671 81.7888 53.9674 81.4225 53.5951C81.0425 53.2052 80.5419 53 79.9965 53H79.9945ZM81.7334 55.0166C81.7334 55.4779 81.5548 55.9059 81.2282 56.2219C80.8834 56.5557 80.4556 56.7334 79.9834 56.7334C79.5395 56.7334 79.1007 56.5506 78.7724 56.2169C78.445 55.8831 78.2613 55.4558 78.2613 55.0006C78.2613 54.5449 78.4504 54.1006 78.789 53.7567C79.1054 53.4342 79.5328 53.2626 79.9994 53.2626C80.4775 53.2626 80.9048 53.4411 81.2383 53.779C81.5624 54.1004 81.7345 54.5328 81.7345 55.0166H81.7334ZM80.0504 53.8275H79.1953V56.0943H79.6231V55.1279H80.0457L80.5068 56.0943H80.9844L80.4784 55.0616C80.8058 54.9943 80.9954 54.7726 80.9954 54.4506C80.9976 54.0394 80.6847 53.8275 80.0522 53.8275H80.0504ZM79.9722 54.1055C80.372 54.1055 80.5553 54.2168 80.5553 54.4944C80.5553 54.7605 80.372 54.8557 79.9825 54.8557H79.6211V54.1055H79.972H79.9722Z" fill="white"/>
<path d="M76.5463 53L77 55.8474L75.3937 59.0197C75.3937 59.0197 74.7773 57.6737 73.7527 56.9294C72.8899 56.302 72.3274 56.1654 71.4479 56.3526C70.3185 56.5931 69.0379 57.9867 68.479 59.705C67.8104 61.7604 67.8038 62.7557 67.7801 63.6693C67.7426 65.1349 67.9663 66 67.9663 66C67.9663 66 66.9907 64.138 67.0001 61.4107C67.0062 59.4634 67.3031 57.6979 68.1758 55.956C68.9436 54.4242 70.0851 53.5047 71.0983 53.3966C72.1457 53.2852 72.973 53.8059 73.6131 54.3695C74.2842 54.9621 74.9631 56.2561 74.9631 56.2561L76.5422 53H76.5463Z" fill="white"/>
<path d="M76.5965 68.4428C76.5965 68.4428 75.8956 69.8257 75.4589 70.3582C75.0221 70.8915 74.2405 71.8295 73.2755 72.2991C72.3105 72.7682 71.8045 72.8559 70.8503 72.7555C69.8975 72.6546 69.0119 72.0458 68.7016 71.7917C68.3914 71.5376 67.5981 70.7901 67.1495 70.0922C66.7007 69.3944 66 68 66 68C66 68 66.3902 69.3979 66.6354 69.9913C66.7757 70.3331 67.2079 71.3775 67.8218 72.2864C68.3943 73.1341 69.506 74.5942 71.1953 74.9238C72.8846 75.254 74.0454 74.4164 74.3329 74.2141C74.6197 74.0117 75.2253 73.4518 75.609 72.9986C76.0089 72.5273 76.3878 71.9247 76.5969 71.5635C76.7506 71.2992 77 70.7642 77 70.7642L76.5967 68.4445L76.5965 68.4428Z" fill="white"/>
<defs>
<filter id="filter0_f_2255_12716" x="0" y="0" width="127" height="127" filterUnits="userSpaceOnUse" color-interpolation-filters="sRGB">
<feFlood flood-opacity="0" result="BackgroundImageFix"/>
<feBlend mode="normal" in="SourceGraphic" in2="BackgroundImageFix" result="shape"/>
<feGaussianBlur stdDeviation="15" result="effect1_foregroundBlur_2255_12716"/>
</filter>
<filter id="filter1_dii_2255_12716" x="9" y="23" width="99" height="99" filterUnits="userSpaceOnUse" color-interpolation-filters="sRGB">
<feFlood flood-opacity="0" result="BackgroundImageFix"/>
<feColorMatrix in="SourceAlpha" type="matrix" values="0 0 0 0 0 0 0 0 0 0 0 0 0 0 0 0 0 0 127 0" result="hardAlpha"/>
<feMorphology radius="4" operator="erode" in="SourceAlpha" result="effect1_dropShadow_2255_12716"/>
<feOffset dy="10"/>
<feGaussianBlur stdDeviation="10"/>
<feColorMatrix type="matrix" values="0 0 0 0 0.916051 0 0 0 0 0.921023 0 0 0 0 0.927984 0 0 0 1 0"/>
<feBlend mode="multiply" in2="BackgroundImageFix" result="effect1_dropShadow_2255_12716"/>
<feBlend mode="normal" in="SourceGraphic" in2="effect1_dropShadow_2255_12716" result="shape"/>
<feColorMatrix in="SourceAlpha" type="matrix" values="0 0 0 0 0 0 0 0 0 0 0 0 0 0 0 0 0 0 127 0" result="hardAlpha"/>
<feOffset/>
<feGaussianBlur stdDeviation="2"/>
<feComposite in2="hardAlpha" operator="arithmetic" k2="-1" k3="1"/>
<feColorMatrix type="matrix" values="0 0 0 0 0.625417 0 0 0 0 0.631402 0 0 0 0 0.658333 0 0 0 1 0"/>
<feBlend mode="color-burn" in2="shape" result="effect2_innerShadow_2255_12716"/>
<feColorMatrix in="SourceAlpha" type="matrix" values="0 0 0 0 0 0 0 0 0 0 0 0 0 0 0 0 0 0 127 0" result="hardAlpha"/>
<feOffset dx="2" dy="2"/>
<feGaussianBlur stdDeviation="1"/>
<feComposite in2="hardAlpha" operator="arithmetic" k2="-1" k3="1"/>
<feColorMatrix type="matrix" values="0 0 0 0 1 0 0 0 0 1 0 0 0 0 1 0 0 0 0.3 0"/>
<feBlend mode="normal" in2="effect2_innerShadow_2255_12716" result="effect3_innerShadow_2255_12716"/>
</filter>
</defs>
</svg>
