<svg width="123" height="128" viewBox="0 0 123 128" fill="none" xmlns="http://www.w3.org/2000/svg">
<g opacity="0.5" filter="url(#filter0_f_3096_7460)">
<rect x="30.0068" y="30.0005" width="63" height="68" rx="11" fill="#FA9D7C"/>
</g>
<g filter="url(#filter1_dii_3096_7460)">
<rect x="21.0068" y="24.0005" width="63" height="68" rx="11" fill="#FA9D7C"/>
</g>
<g clip-path="url(#clip0_3096_7460)">
<path d="M69.3245 41.0039C62.8826 40.8884 55.536 44.2557 50.8857 49.4794C46.3931 49.5736 42.1101 51.3974 38.9287 54.571C38.8375 54.6609 38.7733 54.7745 38.7432 54.8989C38.713 55.0234 38.7183 55.1538 38.7583 55.2755C38.7983 55.3971 38.8716 55.5051 38.9697 55.5874C39.0678 55.6697 39.187 55.7229 39.3137 55.7411L44.613 56.5001L43.9585 57.233C43.8415 57.3641 43.7791 57.5351 43.7842 57.7108C43.7893 57.8865 43.8615 58.0535 43.986 58.1776L52.8231 67.0147C52.9472 67.1393 53.1144 67.2115 53.2902 67.2163C53.466 67.2212 53.6369 67.1584 53.7677 67.0409L54.5006 66.3864L55.2596 71.6856C55.2967 71.9441 55.5002 72.1339 55.7464 72.2164C55.8099 72.2367 55.8763 72.247 55.943 72.2466C56.1422 72.2438 56.3327 72.1645 56.4751 72.0252C59.617 68.8834 61.4389 64.5562 61.5227 60.1122C66.7519 55.4524 70.1467 48.1085 69.9969 41.6749C69.992 41.4982 69.9195 41.3301 69.7945 41.2053C69.6694 41.0805 69.5011 41.0084 69.3245 41.0039ZM62.9885 52.8729C62.3189 53.5425 61.4389 53.878 60.5575 53.878C59.6761 53.878 58.7961 53.5425 58.1265 52.8729C57.4833 52.2273 57.1222 51.3531 57.1222 50.4419C57.1222 49.5306 57.4833 48.6564 58.1265 48.0109C59.4671 46.6702 61.6479 46.6702 62.9885 48.0109C64.3291 49.3515 64.3291 51.5336 62.9885 52.8729ZM40.7465 64.2441C39.2752 65.7154 37.2554 72.3621 37.0299 73.1142C36.995 73.2331 36.9928 73.3592 37.0234 73.4793C37.0541 73.5994 37.1165 73.709 37.2041 73.7966C37.2917 73.8842 37.4013 73.9466 37.5214 73.9773C37.6415 74.008 37.7676 74.0057 37.8865 73.9709C38.6386 73.7454 45.2854 71.7255 46.7566 70.2542C47.5525 69.4567 47.9995 68.3759 47.9995 67.2492C47.9995 66.1224 47.5525 65.0417 46.7566 64.2441C45.9589 63.4485 44.8782 63.0018 43.7515 63.0018C42.6249 63.0018 41.5442 63.4485 40.7465 64.2441Z" fill="white"/>
</g>
<defs>
<filter id="filter0_f_3096_7460" x="0.00683594" y="0.000488281" width="123" height="128" filterUnits="userSpaceOnUse" color-interpolation-filters="sRGB">
<feFlood flood-opacity="0" result="BackgroundImageFix"/>
<feBlend mode="normal" in="SourceGraphic" in2="BackgroundImageFix" result="shape"/>
<feGaussianBlur stdDeviation="15" result="effect1_foregroundBlur_3096_7460"/>
</filter>
<filter id="filter1_dii_3096_7460" x="5.00684" y="18.0005" width="95" height="100" filterUnits="userSpaceOnUse" color-interpolation-filters="sRGB">
<feFlood flood-opacity="0" result="BackgroundImageFix"/>
<feColorMatrix in="SourceAlpha" type="matrix" values="0 0 0 0 0 0 0 0 0 0 0 0 0 0 0 0 0 0 127 0" result="hardAlpha"/>
<feMorphology radius="4" operator="erode" in="SourceAlpha" result="effect1_dropShadow_3096_7460"/>
<feOffset dy="10"/>
<feGaussianBlur stdDeviation="10"/>
<feColorMatrix type="matrix" values="0 0 0 0 0.916051 0 0 0 0 0.921023 0 0 0 0 0.927984 0 0 0 1 0"/>
<feBlend mode="multiply" in2="BackgroundImageFix" result="effect1_dropShadow_3096_7460"/>
<feBlend mode="normal" in="SourceGraphic" in2="effect1_dropShadow_3096_7460" result="shape"/>
<feColorMatrix in="SourceAlpha" type="matrix" values="0 0 0 0 0 0 0 0 0 0 0 0 0 0 0 0 0 0 127 0" result="hardAlpha"/>
<feOffset/>
<feGaussianBlur stdDeviation="2"/>
<feComposite in2="hardAlpha" operator="arithmetic" k2="-1" k3="1"/>
<feColorMatrix type="matrix" values="0 0 0 0 0.625417 0 0 0 0 0.631402 0 0 0 0 0.658333 0 0 0 1 0"/>
<feBlend mode="color-burn" in2="shape" result="effect2_innerShadow_3096_7460"/>
<feColorMatrix in="SourceAlpha" type="matrix" values="0 0 0 0 0 0 0 0 0 0 0 0 0 0 0 0 0 0 127 0" result="hardAlpha"/>
<feOffset dx="2" dy="2"/>
<feGaussianBlur stdDeviation="1"/>
<feComposite in2="hardAlpha" operator="arithmetic" k2="-1" k3="1"/>
<feColorMatrix type="matrix" values="0 0 0 0 1 0 0 0 0 1 0 0 0 0 1 0 0 0 0.3 0"/>
<feBlend mode="normal" in2="effect2_innerShadow_3096_7460" result="effect3_innerShadow_3096_7460"/>
</filter>
<clipPath id="clip0_3096_7460">
<rect width="33" height="33" fill="white" transform="translate(37.001 40.9995)"/>
</clipPath>
</defs>
</svg>
