<svg width="127" height="127" viewBox="0 0 127 127" fill="none" xmlns="http://www.w3.org/2000/svg">
<g filter="url(#filter0_f_3096_7424)">
<circle cx="63.5" cy="63.5" r="33.5" fill="#FA9D7C" fill-opacity="0.5"/>
</g>
<g filter="url(#filter1_dii_3096_7424)">
<circle cx="58.5" cy="62.5" r="33.5" fill="#FA9D7C"/>
</g>
<path d="M54.395 61.583V64.4163C54.395 65.2617 54.7308 66.0725 55.3286 66.6702C55.9264 67.268 56.7371 67.6038 57.5825 67.6038H60.4159C61.2612 67.6038 62.072 67.268 62.6698 66.6702C63.2675 66.0725 63.6034 65.2617 63.6034 64.4163V61.583C63.6034 60.7376 63.2675 59.9269 62.6698 59.3291C62.072 58.7313 61.2612 58.3955 60.4159 58.3955H57.5825C56.7371 58.3955 55.9264 58.7313 55.3286 59.3291C54.7308 59.9269 54.395 60.7376 54.395 61.583ZM43.77 50.958V53.7913C43.77 54.6367 44.1058 55.4475 44.7036 56.0452C45.3014 56.643 46.1121 56.9788 46.9575 56.9788H49.7909C50.6362 56.9788 51.447 56.643 52.0448 56.0452C52.6425 55.4475 52.9784 54.6367 52.9784 53.7913V50.958C52.9784 50.1126 52.6425 49.3019 52.0448 48.7041C51.447 48.1063 50.6362 47.7705 49.7909 47.7705H46.9575C46.1121 47.7705 45.3014 48.1063 44.7036 48.7041C44.1058 49.3019 43.77 50.1126 43.77 50.958ZM65.02 72.208V75.0413C65.02 75.8867 65.3558 76.6975 65.9536 77.2952C66.5514 77.893 67.3621 78.2288 68.2075 78.2288H71.0409C71.8862 78.2288 72.697 77.893 73.2948 77.2952C73.8925 76.6975 74.2284 75.8867 74.2284 75.0413V72.208C74.2284 71.3626 73.8925 70.5519 73.2948 69.9541C72.697 69.3563 71.8862 69.0205 71.0409 69.0205H68.2075C67.3621 69.0205 66.5514 69.3563 65.9536 69.9541C65.3558 70.5519 65.02 71.3626 65.02 72.208Z" fill="white"/>
<path d="M51.9159 53.4373H70.3325C70.8019 53.438 71.2519 53.6248 71.5839 53.9567C71.9158 54.2887 72.1026 54.7387 72.1034 55.2081V60.1664C72.1026 60.6358 71.9158 61.0858 71.5839 61.4178C71.2519 61.7497 70.8019 61.9365 70.3325 61.9373H66.0825C65.8007 61.9373 65.5305 62.0492 65.3312 62.2485C65.132 62.4477 65.02 62.718 65.02 62.9998C65.02 63.2815 65.132 63.5518 65.3312 63.7511C65.5305 63.9503 65.8007 64.0623 66.0825 64.0623H70.3325C71.3653 64.0623 72.3569 63.6514 73.0879 62.9218C73.8178 62.1905 74.2279 61.1996 74.2284 60.1664V55.2081C74.2284 54.1753 73.8175 53.1837 73.0879 52.4527C72.3566 51.7228 71.3657 51.3127 70.3325 51.3123H51.9159C51.6341 51.3123 51.3638 51.4242 51.1646 51.6235C50.9653 51.8227 50.8534 52.093 50.8534 52.3748C50.8534 52.6565 50.9653 52.9268 51.1646 53.1261C51.3638 53.3253 51.6341 53.4373 51.9159 53.4373ZM60.4159 72.5623H47.6659C47.1964 72.5615 46.7464 72.3747 46.4145 72.0428C46.0826 71.7108 45.8958 71.2608 45.895 70.7914V65.8331C45.8958 65.3637 46.0826 64.9137 46.4145 64.5817C46.7464 64.2498 47.1964 64.063 47.6659 64.0623H55.4575C55.7393 64.0623 56.0096 63.9503 56.2088 63.7511C56.4081 63.5518 56.52 63.2815 56.52 62.9998C56.52 62.718 56.4081 62.4477 56.2088 62.2485C56.0096 62.0492 55.7393 61.9373 55.4575 61.9373H47.6659C46.6331 61.9373 45.6414 62.3481 44.9104 63.0777C44.1806 63.809 43.7705 64.7999 43.77 65.8331V70.7914C43.77 71.8242 44.1809 72.8158 44.9104 73.5468C45.6418 74.2767 46.6326 74.6868 47.6659 74.6873H60.4159C60.6976 74.6873 60.9679 74.5753 61.1672 74.3761C61.3664 74.1768 61.4784 73.9065 61.4784 73.6248C61.4784 73.343 61.3664 73.0727 61.1672 72.8735C60.9679 72.6742 60.6976 72.5623 60.4159 72.5623Z" fill="white"/>
<path d="M69.6668 65.0822L67.5858 62.9997L69.6668 60.9172C69.7654 60.8186 69.8437 60.7015 69.897 60.5727C69.9504 60.4439 69.9778 60.3058 69.9778 60.1663C69.9778 60.0269 69.9504 59.8888 69.897 59.76C69.8437 59.6312 69.7654 59.5141 69.6668 59.4155C69.5682 59.3169 69.4512 59.2387 69.3224 59.1853C69.1935 59.132 69.0554 59.1045 68.916 59.1045C68.7766 59.1045 68.6385 59.132 68.5097 59.1853C68.3808 59.2387 68.2638 59.3169 68.1652 59.4155L65.3318 62.2488C65.2331 62.3474 65.1549 62.4644 65.1014 62.5933C65.048 62.7221 65.0205 62.8602 65.0205 62.9997C65.0205 63.1391 65.048 63.2772 65.1014 63.4061C65.1549 63.5349 65.2331 63.6519 65.3318 63.7505L68.1652 66.5838C68.2638 66.6824 68.3808 66.7606 68.5097 66.814C68.6385 66.8674 68.7766 66.8948 68.916 66.8948C69.0554 66.8948 69.1935 66.8674 69.3224 66.814C69.4512 66.7606 69.5682 66.6824 69.6668 66.5838C69.7654 66.4852 69.8437 66.3682 69.897 66.2393C69.9504 66.1105 69.9778 65.9724 69.9778 65.833C69.9778 65.6936 69.9504 65.5555 69.897 65.4267C69.8437 65.2978 69.7654 65.1808 69.6668 65.0822ZM59.7502 77.2088L62.5835 74.3755C62.6822 74.2769 62.7605 74.1599 62.8139 74.0311C62.8673 73.9022 62.8948 73.7641 62.8948 73.6247C62.8948 73.4852 62.8673 73.3471 62.8139 73.2183C62.7605 73.0894 62.6822 72.9724 62.5835 72.8738L59.7502 70.0405C59.551 69.8414 59.281 69.7295 58.9993 69.7295C58.7177 69.7295 58.4476 69.8414 58.2485 70.0405C58.0494 70.2396 57.9375 70.5097 57.9375 70.7913C57.9375 71.0729 58.0494 71.343 58.2485 71.5422L60.3296 73.6247L58.2485 75.7072C58.1499 75.8058 58.0717 75.9228 58.0183 76.0516C57.965 76.1805 57.9375 76.3186 57.9375 76.458C57.9375 76.5974 57.965 76.7355 58.0183 76.8643C58.0717 76.9932 58.1499 77.1102 58.2485 77.2088C58.3471 77.3074 58.4642 77.3856 58.593 77.439C58.7218 77.4924 58.8599 77.5198 58.9993 77.5198C59.1388 77.5198 59.2769 77.4924 59.4057 77.439C59.5345 77.3856 59.6516 77.3074 59.7502 77.2088Z" fill="white"/>
<defs>
<filter id="filter0_f_3096_7424" x="0" y="0" width="127" height="127" filterUnits="userSpaceOnUse" color-interpolation-filters="sRGB">
<feFlood flood-opacity="0" result="BackgroundImageFix"/>
<feBlend mode="normal" in="SourceGraphic" in2="BackgroundImageFix" result="shape"/>
<feGaussianBlur stdDeviation="15" result="effect1_foregroundBlur_3096_7424"/>
</filter>
<filter id="filter1_dii_3096_7424" x="9" y="23" width="99" height="99" filterUnits="userSpaceOnUse" color-interpolation-filters="sRGB">
<feFlood flood-opacity="0" result="BackgroundImageFix"/>
<feColorMatrix in="SourceAlpha" type="matrix" values="0 0 0 0 0 0 0 0 0 0 0 0 0 0 0 0 0 0 127 0" result="hardAlpha"/>
<feMorphology radius="4" operator="erode" in="SourceAlpha" result="effect1_dropShadow_3096_7424"/>
<feOffset dy="10"/>
<feGaussianBlur stdDeviation="10"/>
<feColorMatrix type="matrix" values="0 0 0 0 0.916051 0 0 0 0 0.921023 0 0 0 0 0.927984 0 0 0 1 0"/>
<feBlend mode="multiply" in2="BackgroundImageFix" result="effect1_dropShadow_3096_7424"/>
<feBlend mode="normal" in="SourceGraphic" in2="effect1_dropShadow_3096_7424" result="shape"/>
<feColorMatrix in="SourceAlpha" type="matrix" values="0 0 0 0 0 0 0 0 0 0 0 0 0 0 0 0 0 0 127 0" result="hardAlpha"/>
<feOffset/>
<feGaussianBlur stdDeviation="2"/>
<feComposite in2="hardAlpha" operator="arithmetic" k2="-1" k3="1"/>
<feColorMatrix type="matrix" values="0 0 0 0 0.625417 0 0 0 0 0.631402 0 0 0 0 0.658333 0 0 0 1 0"/>
<feBlend mode="color-burn" in2="shape" result="effect2_innerShadow_3096_7424"/>
<feColorMatrix in="SourceAlpha" type="matrix" values="0 0 0 0 0 0 0 0 0 0 0 0 0 0 0 0 0 0 127 0" result="hardAlpha"/>
<feOffset dx="2" dy="2"/>
<feGaussianBlur stdDeviation="1"/>
<feComposite in2="hardAlpha" operator="arithmetic" k2="-1" k3="1"/>
<feColorMatrix type="matrix" values="0 0 0 0 1 0 0 0 0 1 0 0 0 0 1 0 0 0 0.3 0"/>
<feBlend mode="normal" in2="effect2_innerShadow_3096_7424" result="effect3_innerShadow_3096_7424"/>
</filter>
</defs>
</svg>
